<?xml version="1.0" encoding="UTF-8" standalone="no"?>
<!-- Created with Inkscape (http://www.inkscape.org/) -->

<svg
   width="5.3243589in"
   height="5.3276143in"
   viewBox="0 0 135.23872 135.32141"
   version="1.1"
   id="svg53678"
   xml:space="preserve"
   xmlns="http://www.w3.org/2000/svg"
   xmlns:svg="http://www.w3.org/2000/svg"><defs
     id="defs53675" /><g
     id="layer1"
     transform="translate(-69.34078,-39.084155)"><path
       style="fill:#000000"
       d="m 69.349375,173.9211 c 0.10445,-0.26671 5.3082,-12.82781 11.56389,-27.91354 l 11.37397,-27.42862 h 14.885915 c 8.18726,0 14.88592,-0.0674 14.88592,-0.14978 0,-0.0824 -3.5616,-5.82874 -7.91468,-12.76968 -9.12464,-14.549151 -9.72853,-15.614769 -10.9712,-19.359704 -1.24148,-3.741342 -1.75561,-6.41993 -1.9298,-10.054166 -0.47606,-9.932764 3.29573,-19.563188 10.47516,-26.746011 5.23383,-5.2363 11.35097,-8.481504 18.74168,-9.942652 3.45505,-0.683065 9.93434,-0.616561 13.48879,0.13845 14.33218,3.044332 25.43447,14.380704 28.0219,28.612713 0.68108,3.746212 0.62199,9.913062 -0.12862,13.423283 -1.31879,6.167363 -2.12806,7.756362 -11.84588,23.259527 -4.4565,7.10961 -8.16076,13.07539 -8.23168,13.25729 -0.10222,0.26218 2.96168,0.33124 14.78217,0.33317 l 14.91112,0.002 10.31875,24.92003 c 5.67531,13.70602 10.87765,26.26601 11.56074,27.9111 l 1.242,2.99106 h -67.71003 c -65.543565,0 -67.703945,-0.0155 -67.520115,-0.48492 z M 111.45,159.25863 c 0.48601,-3.96545 0.94433,-7.59685 1.01848,-8.0698 l 0.13483,-0.85989 h -12.44173 c -9.704015,0 -12.471825,0.0728 -12.578535,0.33073 -0.10117,0.24455 -5.40891,12.97566 -6.45301,15.47812 -0.10943,0.26229 2.92224,0.33073 14.64916,0.33073 h 14.787145 z m 43.66804,6.87916 c -0.008,-0.1819 -0.45906,-3.78354 -1.00308,-8.00364 l -0.98912,-7.67292 -16.32713,-0.0682 c -12.97343,-0.0542 -16.32754,1.8e-4 -16.32913,0.26458 -10e-4,0.18301 -0.41691,3.60697 -0.92405,7.60879 -0.50713,4.00182 -0.92295,7.4844 -0.92405,7.73906 -0.002,0.43652 1.04299,0.46302 18.25426,0.46302 14.43605,0 18.25333,-0.0692 18.2423,-0.33073 z m 37.23674,-0.52916 c -0.19532,-0.47295 -1.69947,-4.10435 -3.34254,-8.0698 l -2.98741,-7.20989 h -12.40371 -12.40371 l 5.9e-4,0.59531 c 3.3e-4,0.32742 0.41705,3.80568 0.92604,7.72945 0.509,3.92378 0.92545,7.2873 0.92545,7.47448 0,0.27335 2.91727,0.34034 14.82022,0.34034 h 14.82021 z M 113.5944,142.06071 c 0.001,-0.1819 0.41692,-3.60495 0.92405,-7.60677 0.50713,-4.00182 0.92296,-7.42487 0.92405,-7.60677 0.002,-0.2581 -1.96155,-0.33073 -8.93907,-0.33073 h -8.941055 l -3.08981,7.47448 c -1.69939,4.11096 -3.16552,7.68284 -3.25807,7.9375 -0.15859,0.43636 0.48082,0.46302 11.104815,0.46302 8.84103,0 11.27353,-0.0713 11.27509,-0.33073 z m 38.36199,-0.26458 c -3.3e-4,-0.32742 -0.41705,-3.80568 -0.92604,-7.72946 -0.50899,-3.92377 -0.92544,-7.22776 -0.92544,-7.34218 0,-0.11443 -0.8115,-0.20805 -1.80334,-0.20805 h -1.80333 l -4.71615,7.54062 c -2.59388,4.14735 -4.80702,7.54063 -4.91809,7.54063 -0.11107,0 -2.32675,-3.39277 -4.92375,-7.53948 l -4.7218,-7.53948 -1.8761,-0.001 -1.8761,-0.001 -0.85145,7.0776 c -0.4683,3.89269 -0.91723,7.46456 -0.99762,7.9375 l -0.14616,0.8599 h 15.24298 15.24299 z m 30.62079,0.26458 c -0.0704,-0.1819 -1.53971,-3.75378 -3.26501,-7.9375 l -3.13691,-7.60677 h -9.09587 -9.09588 l 0.1515,0.8599 c 0.0833,0.47294 0.52367,3.89599 0.97853,7.60677 0.45487,3.71078 0.87246,6.8957 0.92798,7.0776 0.0787,0.25783 2.58745,0.33073 11.38235,0.33073 8.91705,0 11.25455,-0.0693 11.15331,-0.33073 z M 148.6497,108.20532 c 6.40291,-10.215406 12.04595,-19.282188 12.54009,-20.148395 1.2749,-2.23489 2.60932,-6.138096 3.07041,-8.981046 2.20994,-13.62592 -6.03053,-26.830743 -19.31467,-30.950519 -10.66897,-3.308742 -22.48539,0.286655 -29.56165,8.994759 -6.57725,8.094026 -8.1312,19.476376 -3.92993,28.785819 0.80298,1.779285 25.10485,40.876242 25.40643,40.873972 0.0812,-6.1e-4 5.3864,-8.35917 11.78932,-18.57459 z M 134.3622,94.354604 c -0.29104,-0.0674 -1.17871,-0.25444 -1.9726,-0.41566 -5.75274,-1.168222 -11.35256,-5.927722 -13.81301,-11.74021 -1.0853,-2.563876 -1.40672,-4.286828 -1.40672,-7.540624 0,-3.253796 0.32142,-4.976748 1.40672,-7.540625 2.44578,-5.77782 7.46531,-10.076207 13.80123,-11.81844 0.65485,-0.180066 2.67891,-0.331335 4.49792,-0.336152 2.73533,-0.0072 3.65047,0.0978 5.29167,0.607428 3.59021,1.11483 5.96552,2.543781 8.6215,5.186564 2.03302,2.022922 2.59412,2.779549 3.63774,4.905392 1.71029,3.483854 2.14542,5.30835 2.14542,8.995833 0,3.687483 -0.43513,5.511978 -2.14542,8.995833 -1.04362,2.125843 -1.60472,2.882469 -3.63774,4.905391 -3.83231,3.81327 -7.91354,5.6222 -13.11942,5.81495 -1.52797,0.0566 -3.01625,0.0477 -3.30729,-0.0197 z m 4.65909,-8.060306 c 6.21172,-1.178028 10.5622,-7.271352 9.55054,-13.376563 -0.87026,-5.251831 -4.82673,-9.155627 -10.10761,-9.973031 -5.82705,-0.901943 -11.60471,3.020329 -13.07296,8.874819 -0.53265,2.123882 -0.53265,3.553292 0,5.677173 1.06796,4.258386 4.29123,7.487513 8.64406,8.659783 1.68838,0.454701 3.10813,0.493945 4.98597,0.137819 z"
       id="path1" /></g></svg>
