<?xml version="1.0" encoding="UTF-8" standalone="no"?>
<!-- Created with Inkscape (http://www.inkscape.org/) -->

<svg
   width="2.9259789in"
   height="2.4486246in"
   viewBox="0 0 74.319864 62.195065"
   version="1.1"
   id="svg53678"
   xml:space="preserve"
   sodipodi:docname="boat.svg"
   inkscape:export-filename="..\svg\boat.png"
   inkscape:export-xdpi="96"
   inkscape:export-ydpi="96"
   inkscape:version="1.4 (86a8ad7, 2024-10-11)"
   xmlns:inkscape="http://www.inkscape.org/namespaces/inkscape"
   xmlns:sodipodi="http://sodipodi.sourceforge.net/DTD/sodipodi-0.dtd"
   xmlns="http://www.w3.org/2000/svg"
   xmlns:svg="http://www.w3.org/2000/svg"><sodipodi:namedview
     id="namedview1"
     pagecolor="#505050"
     bordercolor="#ffffff"
     borderopacity="1"
     inkscape:showpageshadow="0"
     inkscape:pageopacity="0"
     inkscape:pagecheckerboard="1"
     inkscape:deskcolor="#d1d1d1"
     inkscape:document-units="in"
     showgrid="false"
     inkscape:zoom="3.3905088"
     inkscape:cx="140.39191"
     inkscape:cy="117.53398"
     inkscape:window-width="1916"
     inkscape:window-height="999"
     inkscape:window-x="-4"
     inkscape:window-y="1083"
     inkscape:window-maximized="0"
     inkscape:current-layer="svg53678" /><defs
     id="defs53675" /><g
     id="layer1"
     transform="translate(-45.814196,142.73039)"><path
       style="fill:#ffffff;stroke-width:0.661084"
       d="m 46.499139,-80.682435 c -0.53776,-0.277457 -0.85314,-1.074605 -0.5911,-1.494023 0.24619,-0.394045 0.87141,-0.696703 1.71166,-0.828569 0.57607,-0.09041 0.92009,-0.353244 2.1438,-1.637855 1.85039,-1.942495 2.64439,-2.366918 4.42885,-2.367367 1.7333,-4.36e-4 2.76206,0.548137 4.35383,2.321647 1.31882,1.469404 1.80785,1.778004 2.81755,1.778004 1.01397,0 1.5245,-0.321677 2.83576,-1.786784 1.54639,-1.727821 2.60621,-2.305595 4.24816,-2.315935 1.86722,-0.01177 2.56575,0.339295 4.3713,2.196868 1.61563,1.662169 1.99857,1.905851 2.99506,1.905851 0.89578,0 1.40547,-0.336749 2.89214,-1.910803 1.64603,-1.742795 2.49956,-2.17958 4.25918,-2.17958 1.752,0 2.58787,0.428151 4.2458,2.174761 1.50761,1.588267 2.00756,1.915622 2.92557,1.915622 0.91486,0 1.42931,-0.330819 2.9713,-1.91071 1.74544,-1.788338 2.53418,-2.191228 4.28754,-2.190111 1.73304,0.0013 2.752571,0.545255 4.335621,2.314037 1.31126,1.465107 1.82179,1.786784 2.83576,1.786784 1.01528,0 1.49857,-0.308448 2.86008,-1.825338 1.58683,-1.767923 2.53014,-2.264602 4.31131,-2.270003 1.76289,-0.0053 2.63398,0.444341 4.27743,2.208159 1.33224,1.429824 1.99234,1.884339 2.73917,1.886104 0.61571,0.0013 1.37916,0.627699 1.37916,1.13132 0,0.222864 -0.14693,0.586645 -0.3265,0.808412 -0.26896,0.332155 -0.48308,0.399381 -1.21509,0.381499 -1.42036,-0.03471 -2.29654,-0.544409 -4.11774,-2.395464 l -1.64683,-1.673811 h -0.90331 c -1.2125,0 -1.66311,0.268394 -3.0474,1.815098 -1.51933,1.697584 -2.591,2.25932 -4.31028,2.25932 -1.72024,0 -2.80074,-0.566093 -4.3277,-2.267332 -1.391631,-1.550473 -1.821461,-1.807086 -3.026941,-1.807086 h -0.90028 l -1.6354,1.638067 c -2.00338,2.00664 -2.80947,2.43725 -4.54946,2.430322 -1.66919,-0.0066 -2.64251,-0.513477 -4.18262,-2.178 -1.5303,-1.653926 -1.89978,-1.888082 -2.97919,-1.888082 -1.07943,0 -1.4489,0.234156 -2.9792,1.888082 -1.54305,1.667689 -2.51082,2.170272 -4.20007,2.18116 -1.73257,0.01117 -2.50475,-0.402924 -4.5252,-2.426653 l -1.64222,-1.644896 h -0.90028 c -1.20547,0 -1.63531,0.256613 -3.02693,1.807086 -1.53897,1.714626 -2.6035,2.267768 -4.34338,2.25688 -1.7396,-0.01091 -2.77852,-0.554927 -4.29459,-2.248868 -1.33742,-1.494333 -1.84354,-1.815098 -2.86392,-1.815098 -1.00237,0 -1.28971,0.183378 -2.90495,1.853884 -1.46058,1.51057 -2.32006,2.038035 -3.65143,2.240908 -0.43016,0.06558 -0.86695,0.0203 -1.13402,-0.117507 z m 13.3498,-4.948661 -1.01265,-1.146293 -3.71191,-12.540553 c -2.04155,-6.897298 -3.65709,-12.591228 -3.59008,-12.653178 0.067,-0.0619 0.83022,-0.32296 1.69604,-0.58003 0.86581,-0.25707 2.57776,-0.77704 3.80433,-1.15548 4.59569,-1.41795 6.79499,-2.09144 10.53842,-3.22718 2.11643,-0.64213 4.98936,-1.52202 6.38428,-1.95534 4.9006,-1.52229 7.59777,-2.30044 7.71739,-2.22651 0.0664,0.041 0.12779,7.38847 0.13634,16.32756 l 0.0155,16.252916 -0.56759,0.119914 c -1.05839,0.223605 -2.18579,0.986806 -3.63523,2.460897 -1.00178,1.01881 -1.57151,1.469569 -1.85745,1.469569 -0.2884,0 -0.89882,-0.491138 -2.02953,-1.632929 -2.00001,-2.019618 -2.89804,-2.444813 -5.20542,-2.464672 -2.10825,-0.01818 -3.3945,0.620533 -5.31907,2.641141 -1.78225,1.871185 -1.96918,1.888426 -3.36342,0.310168 z m 13.69717,-19.779734 c 1.63217,-0.77451 1.80917,-4.08309 0.27891,-5.21326 -1.58009,-1.16695 -3.33857,0.78894 -2.94155,3.27177 0.17311,1.0826 1.09837,2.1562 1.91054,2.21684 0.0817,0.006 0.42011,-0.1178 0.7521,-0.27535 z m 14.72895,19.434232 c -1.3336,-1.382307 -2.46423,-2.141409 -3.86591,-2.595574 -0.28764,-0.0932 -0.30465,-1.028527 -0.29403,-16.162068 0.006,-8.83473 0.0678,-16.15461 0.13688,-16.2664 0.13767,-0.22276 0.3176,-0.1711 12.96863,3.72371 1.77972,0.54791 3.708131,1.13652 4.285341,1.30801 1.02506,0.30456 5.23682,1.59773 9.79506,3.00747 1.25061,0.38678 2.45211,0.74354 2.66998,0.7928 0.21788,0.0493 0.42781,0.1408 0.46652,0.20344 0.0387,0.0626 -1.59679,5.75451 -3.63444,12.648623 l -3.7048,12.534756 -1.01462,1.148514 c -1.3895,1.572883 -1.56355,1.556971 -3.35332,-0.306585 -2.19554,-2.286047 -4.164921,-3.052871 -6.606711,-2.572481 -1.60613,0.315991 -2.32955,0.76252 -4.01148,2.476122 -1.11178,1.13272 -1.64088,1.551457 -1.96033,1.551457 -0.3201,0 -0.8239,-0.400458 -1.87677,-1.491794 z m 5.85411,-19.630872 c 0.50342,-0.44715 0.98429,-1.60602 0.98868,-2.38267 0.01,-1.68014 -0.83991,-2.92521 -2.01842,-2.95862 -0.5608,-0.0159 -0.75023,0.0874 -1.30394,0.71141 -0.45381,0.51138 -0.67864,0.95481 -0.75071,1.48062 -0.34081,2.48646 1.59982,4.46789 3.08439,3.14926 z m -30.84142,-12.90545 c 0,-0.14858 0.11601,-0.75858 0.2578,-1.35556 0.14179,-0.59698 0.61239,-2.74724 1.04577,-4.77836 0.4334,-2.03112 0.83854,-3.82469 0.90033,-3.98571 0.18175,-0.47363 1.03197,-0.80457 2.06703,-0.80457 h 0.96497 l 0.0494,-1.96776 0.0495,-1.96775 1.0932,-0.0521 1.0932,-0.0521 v 2.01983 2.01983 h 12.24382 12.24382 v -2.01983 -2.01983 l 1.0932,0.0521 1.09319,0.0521 0.0495,1.96775 0.0494,1.96776 h 0.87752 c 0.9568,0 1.802761,0.34383 1.979561,0.80457 0.0618,0.16102 0.46818,1.95459 0.9031,3.98571 0.43491,2.03112 0.91966,4.26256 1.07722,4.95876 0.15756,0.6962 0.23843,1.31386 0.17972,1.37257 -0.0587,0.0587 -1.43062,-0.30025 -3.048671,-0.79769 -7.96912,-2.44996 -10.87028,-3.34002 -14.22373,-4.36375 l -2.36131,-0.72084 -3.49823,1.0681 c -3.4814,1.06296 -5.93801,1.81632 -10.18861,3.12451 -6.62003,2.03743 -5.99073,1.88068 -5.99073,1.49226 z m 13.2933,-15.4719 v -2.09894 h 6.44796 6.44796 l 0.11122,0.81152 c 0.0611,0.44633 0.11124,1.39085 0.11124,2.09893 v 1.28743 h -6.5592 -6.55918 z m 0.0827,-4.73031 c -0.19054,-0.3083 0.41502,-1.02928 1.36971,-1.63079 1.24005,-0.7813 4.61977,-2.38449 5.0268,-2.38449 0.5473,0 4.92912,2.16528 5.63367,2.78387 0.41506,0.36443 0.65567,0.72951 0.65567,0.99486 v 0.41916 h -6.2865 c -4.17886,0 -6.32434,-0.0612 -6.39935,-0.18261 z"
       id="path3" /></g></svg>
