<?xml version="1.0" encoding="UTF-8" standalone="no"?>
<!-- Created with Inkscape (http://www.inkscape.org/) -->

<svg
   width="3.0778224in"
   height="2.0219593in"
   viewBox="0 0 78.17669 51.357766"
   version="1.1"
   id="svg53678"
   xml:space="preserve"
   xmlns="http://www.w3.org/2000/svg"
   xmlns:svg="http://www.w3.org/2000/svg"><defs
     id="defs53675" /><g
     id="layer1"
     transform="translate(-48.064498,205.55984)"><path
       style="fill:#ffffff;stroke-width:0.513159"
       d="m 49.882959,-155.06992 c -0.894196,-0.46724 -1.647786,-0.91546 -1.674645,-0.99603 -0.04624,-0.1387 0.711491,-1.64148 4.591808,-9.10691 0.91213,-1.75487 2.325951,-4.48337 3.141818,-6.06333 0.815867,-1.57997 1.557424,-2.89658 1.647904,-2.92581 0.09047,-0.0293 13.45333,-0.0496 29.695227,-0.0452 l 29.530719,0.008 1.8713,3.59668 c 5.31002,10.20601 7.44777,14.40281 7.40373,14.53493 -0.0268,0.0804 -0.79672,0.533 -1.71094,1.00582 l -1.66222,0.85968 -0.31802,-0.56362 c -0.17491,-0.30999 -2.04398,-3.90874 -4.15349,-7.99721 l -3.83547,-7.4336 H 87.145415 59.880152 l -1.901692,3.69983 c -1.045927,2.03491 -2.335861,4.52465 -2.866514,5.53277 -0.530658,1.00812 -1.476878,2.84106 -2.102712,4.0732 -0.625839,1.23214 -1.219462,2.33702 -1.319174,2.45528 -0.162158,0.19233 -0.352848,0.12537 -1.807101,-0.63452 z m 5.923743,-33.76146 c -0.897126,-1.7362 -3.006129,-5.81218 -4.68667,-9.05773 l -3.055531,-5.901 1.722138,-0.90127 c 0.947174,-0.4957 1.765335,-0.87789 1.818134,-0.84932 0.0528,0.0286 0.729708,1.2872 1.504245,2.79695 0.774532,1.50975 2.615958,5.082 4.092051,7.93834 l 2.683814,5.19333 h 27.262313 27.262314 l 3.83632,-7.4336 c 4.52226,-8.76274 4.39557,-8.52197 4.47876,-8.5118 0.0359,0.005 0.8418,0.40108 1.79092,0.88153 l 1.72568,0.87355 -1.47323,2.85224 c -0.81027,1.56874 -2.28071,4.41024 -3.26763,6.31446 -0.98691,1.90423 -2.43467,4.69946 -3.21722,6.21164 l -1.42284,2.74941 H 87.149058 57.437846 Z"
       id="path1" /></g></svg>
