<?xml version="1.0" encoding="UTF-8" standalone="no"?>
<!-- Created with Inkscape (http://www.inkscape.org/) -->

<svg
   width="5.3489971in"
   height="4.7949538in"
   viewBox="0 0 135.86453 121.79182"
   version="1.1"
   id="svg53678"
   xml:space="preserve"
   xmlns="http://www.w3.org/2000/svg"
   xmlns:svg="http://www.w3.org/2000/svg"><defs
     id="defs53675" /><g
     id="layer1"
     transform="translate(-67.888533,-46.557932)"><path
       style="fill:#000000"
       d="m 67.889331,168.01903 c 0.0848,-0.25464 2.29336,-0.34673 9.59968,-0.40028 7.18771,-0.0527 9.53993,-0.14894 9.69741,-0.39687 0.11434,-0.18003 0.20972,-17.67259 0.21195,-38.87235 l 0.004,-38.545007 3.48421,-1.09848 c 2.74835,-0.86648 3.60051,-1.0398 4.03489,-0.82067 0.30288,0.1528 3.58678,2.16308 7.297569,4.4673 l 6.74687,4.18949 0.13229,35.440777 0.1323,35.44077 h 0.92604 0.92604 l 0.0667,-58.89373 0.0667,-58.893732 0.59473,-0.26472 c 0.3271,-0.145595 2.46021,-0.838216 4.74025,-1.539157 l 4.14553,-1.274439 0.75545,0.637058 c 0.4155,0.350382 5.42587,4.966329 11.13416,10.257661 l 10.37871,9.620603 0.009,22.129399 c 0.005,12.171167 0.001,34.642787 -0.009,49.936927 -0.0202,30.65474 -0.14218,28.53902 1.63605,28.36833 l 0.87718,-0.0842 0.0669,-47.41938 0.0669,-47.419377 1.38834,-0.390192 c 2.81268,-0.790501 14.06185,-3.592921 14.42232,-3.592921 0.20481,0 2.11882,1.696641 4.25335,3.770313 2.13453,2.073672 4.9224,4.748588 6.19526,5.944259 l 2.31428,2.173945 V 123.7262 c 0,47.57295 -0.13534,43.95178 1.63637,43.78171 l 0.87717,-0.0842 0.0678,-19.90989 c 0.0373,-10.95045 0.16999,-19.9099 0.29487,-19.9099 0.55885,0 8.13698,3.25763 8.41695,3.61822 0.23331,0.30049 0.31815,4.92237 0.33336,18.15944 0.0112,9.76599 0.1128,17.84876 0.22574,17.9617 0.11294,0.11294 4.12023,0.23678 8.90509,0.27518 6.67424,0.0536 8.72539,0.14684 8.8099,0.40057 0.0879,0.26401 -13.61588,0.33073 -67.93185,0.33073 -54.315979,0 -68.019789,-0.0667 -67.931839,-0.33073 z m 25.48438,-15.45557 c 0.40181,-0.15419 0.55835,-2.60038 0.18027,-2.817 -0.10914,-0.0625 -1.27,0.0197 -2.57969,0.18282 l -2.38125,0.29652 -0.0813,1.42667 -0.0813,1.42668 2.28226,-0.18518 c 1.25525,-0.10185 2.45268,-0.25058 2.66097,-0.33051 z m 12.609269,-0.88245 c 0.15815,-0.92423 0.11526,-1.2562 -0.19166,-1.48371 -0.4333,-0.32118 -9.994169,-0.78325 -10.444729,-0.50479 -0.14919,0.0922 -0.27125,0.75593 -0.27125,1.47494 0,1.2919 0.0101,1.30769 0.85989,1.33959 0.47294,0.0177 2.52677,0.11876 4.564059,0.22446 5.57239,0.28912 5.24369,0.35208 5.48369,-1.05049 z m 49.28506,1.04684 c 5.7774,-0.37899 5.42396,-0.25873 5.42396,-1.84564 v -1.31787 l -1.78593,0.0217 c -0.98227,0.0119 -3.50996,0.16077 -5.61708,0.33073 -3.77469,0.30446 -3.83471,0.31919 -4.07291,0.99947 -0.13297,0.37974 -0.16286,1.00482 -0.0664,1.38906 0.20789,0.82829 0.0741,0.81905 6.11838,0.42254 z m 17.85938,-1.41903 v -1.43051 l -2.4474,-0.1586 c -1.34606,-0.0872 -3.51895,-0.18763 -4.82864,-0.22313 l -2.38125,-0.0645 -0.0797,1.38062 c -0.0963,1.66803 -0.18334,1.63181 4.18072,1.73889 1.67349,0.0411 3.60825,0.10012 4.29948,0.13122 l 1.25677,0.0566 z m -80.433329,-3.30625 c 0.871,-0.16834 0.93098,-0.24731 1.00915,-1.32892 0.0457,-0.63248 -0.0162,-1.24922 -0.13748,-1.37055 -0.12133,-0.12133 -1.0517,-0.10072 -2.06749,0.0458 -3.22681,0.46544 -3.03752,0.35 -3.03752,1.85237 v 1.33101 l 1.65365,-0.17537 c 0.9095,-0.0965 2.07036,-0.25591 2.57969,-0.35434 z m 23.871159,0.0927 c 0.97815,-0.0982 1.90779,-0.33433 2.06586,-0.52479 0.15807,-0.19046 0.25073,-0.9211 0.20592,-1.62363 l -0.0815,-1.27732 -2.24421,0.0847 c -1.23432,0.0466 -2.39518,0.20999 -2.57969,0.36312 -0.34963,0.29017 -0.47617,2.89515 -0.15617,3.21515 0.0986,0.0986 0.3665,0.12574 0.59531,0.0603 0.22881,-0.0655 1.21632,-0.19935 2.19447,-0.29752 z m 39.23196,0.01 c 1.60073,-0.084 3.3569,-0.21712 3.90261,-0.29591 l 0.99218,-0.14325 v -1.29966 -1.29966 h -1.4498 c -2.76879,0 -9.53227,0.58539 -9.86113,0.8535 -0.18191,0.1483 -0.33073,0.64796 -0.33073,1.11036 0,1.28267 0.41895,1.53821 2.24895,1.37171 0.87313,-0.0794 2.89719,-0.21312 4.49792,-0.29709 z m -49.76531,-0.52494 c 0.20664,-0.82331 -0.0477,-1.90438 -0.48783,-2.07326 -0.18228,-0.07 -2.61912,-0.21427 -5.41519,-0.32071 l -5.083759,-0.19353 0.0813,1.42604 0.0813,1.42605 2.51354,0.14779 c 1.38245,0.0813 3.780559,0.17058 5.329129,0.19844 2.80044,0.0504 2.81648,0.0471 2.9816,-0.61082 z m 27.92788,-0.11489 c 0.31802,-0.59424 0.35685,-2.12313 0.0656,-2.58128 -0.19477,-0.30632 -3.79648,-0.8757 -5.53942,-0.8757 h -0.86683 v 1.58246 c 0,1.79149 -0.16764,1.67122 2.91041,2.08807 2.74755,0.37209 3.12958,0.34831 3.43028,-0.21355 z m 39.34225,0.10003 c 0.0869,-0.22646 0.0492,-0.792 -0.0837,-1.25677 -0.23536,-0.82277 -0.29027,-0.84937 -2.08453,-1.00967 -1.01355,-0.0906 -3.1525,-0.20961 -4.75323,-0.26458 l -2.91041,-0.1 v 1.32292 1.32291 l 1.45521,0.15532 c 0.80036,0.0854 2.97699,0.17471 4.83695,0.19843 2.8428,0.0363 3.40692,-0.0225 3.53974,-0.36861 z m -48.26263,-0.28082 c 0.37288,-0.11021 0.46302,-0.43938 0.46302,-1.69091 0,-0.85473 -0.0893,-1.60351 -0.19844,-1.66396 -0.43491,-0.24087 -4.38844,0.32329 -4.59964,0.65636 -0.27567,0.43473 -0.29896,2.70244 -0.0306,2.97588 0.19485,0.19851 3.45674,-0.009 4.36563,-0.27737 z m -33.139059,-3.63548 1.71979,-0.30217 0.08,-1.38906 c 0.044,-0.76399 0.0228,-1.38906 -0.047,-1.38906 -0.39395,0 -4.34019,0.57816 -4.72933,0.69289 -0.35994,0.10612 -0.46302,0.42706 -0.46302,1.4416 0,1.30188 0.002,1.30502 0.85989,1.27653 0.47295,-0.0157 1.63381,-0.16453 2.57969,-0.33073 z m 63.912599,-0.006 c 2.33699,-0.1843 4.39082,-0.4227 4.56407,-0.52978 0.17324,-0.10707 0.31499,-0.72343 0.31499,-1.36968 v -1.17501 h -1.21801 c -1.53155,0 -8.77142,0.51088 -9.54612,0.67362 -0.69375,0.14574 -0.97951,0.90559 -0.74394,1.97815 0.20587,0.93729 0.14957,0.9337 6.62901,0.4227 z m -49.74051,-0.53402 c 0.28381,-1.13079 0.0332,-1.83006 -0.72838,-2.03243 -0.39133,-0.10399 -2.86863,-0.2763 -5.505129,-0.38293 l -4.79362,-0.19388 0.0812,1.42346 0.0812,1.42345 2.38125,0.14844 c 1.30968,0.0816 3.718429,0.17094 5.352769,0.19844 2.9336,0.0494 2.97355,0.0419 3.13078,-0.58455 z m 67.00299,-0.74593 c 0.072,-1.11897 0.0172,-1.26196 -0.52917,-1.3813 -1.01278,-0.22122 -8.74403,-0.669 -8.98452,-0.52037 -0.36768,0.22724 -0.26474,2.48933 0.12,2.63697 0.43551,0.16712 6.84468,0.59148 8.25506,0.54658 l 1.05834,-0.0337 z m -31.83029,-1.37861 c 0,-1.82129 -10e-4,-1.82201 -3.44136,-2.14438 l -1.9826,-0.18579 v 1.62689 c 0,1.05998 0.11525,1.66945 0.33073,1.74903 0.48392,0.1787 3.94597,0.60346 4.56406,0.55996 0.46547,-0.0328 0.52917,-0.22605 0.52917,-1.60571 z m -24.60625,1.02626 c 0.87312,-0.10151 1.73633,-0.3035 1.91823,-0.44889 0.1819,-0.14538 0.33073,-0.83048 0.33073,-1.52245 0,-0.69817 -0.1472,-1.36823 -0.33073,-1.50551 -0.20618,-0.15423 -1.17766,-0.14152 -2.57969,0.0337 l -2.24896,0.28113 -0.0812,1.42367 c -0.10439,1.83079 0.0575,2.24254 0.81124,2.06359 0.32607,-0.0774 1.30722,-0.22379 2.18035,-0.32529 z m 17.276,-1.73317 c 0.0516,-0.97594 -0.0381,-1.56695 -0.26458,-1.74335 -0.40632,-0.31645 -5.42924,-0.9523 -5.78514,-0.73234 -0.37382,0.23103 -0.30184,2.96395 0.0847,3.21409 0.33242,0.21515 4.74867,0.83645 5.4901,0.77238 0.29085,-0.0251 0.41774,-0.42875 0.47496,-1.51078 z m -9.20621,0.82563 c 0.60564,-0.15915 0.66819,-0.31502 0.74121,-1.84716 l 0.0798,-1.67335 -2.04374,0.1852 c -2.72691,0.24711 -3.01055,0.42257 -3.01055,1.8623 0,1.92405 0.0885,2.00672 1.94394,1.81502 0.89536,-0.0925 1.92559,-0.24641 2.28939,-0.34201 z m -31.975059,-2.09344 c 0.82421,-0.1673 0.89236,-0.26084 0.96963,-1.33089 0.0457,-0.63302 -0.0149,-1.24892 -0.1346,-1.36867 -0.11975,-0.11975 -1.05012,-0.10433 -2.06749,0.0343 -3.17484,0.43249 -3.0404,0.34985 -3.0404,1.86896 v 1.33893 l 1.69317,-0.18132 c 0.93125,-0.0997 2.09211,-0.2623 2.57969,-0.36127 z m 63.374489,0.12131 c 2.20828,-0.19736 4.14305,-0.43794 4.29948,-0.53462 0.3198,-0.19765 0.39378,-2.43574 0.086,-2.60133 -0.21619,-0.11631 -8.93156,0.51409 -10.30384,0.7453 -0.9601,0.16176 -1.27102,0.77445 -1.0058,1.98201 0.16516,0.75193 0.23533,0.78734 1.54107,0.77763 0.75243,-0.006 3.17482,-0.17164 5.3831,-0.36899 z m -50.02891,-0.54688 c 0.0913,-0.3638 0.0952,-0.94364 0.009,-1.28853 -0.19789,-0.78844 -0.73132,-0.87917 -6.595939,-1.1219 l -4.44701,-0.18405 0.0814,1.42953 0.0814,1.42953 2.51355,0.1478 c 1.38244,0.0813 3.791199,0.17058 5.352769,0.19843 2.82566,0.0504 2.84003,0.0475 3.00525,-0.61081 z m 67.20416,0 c 0.0913,-0.3638 0.0931,-0.95189 0.004,-1.30686 -0.13126,-0.52301 -0.37502,-0.67343 -1.28545,-0.79326 -2.26403,-0.29798 -8.19862,-0.66987 -8.42795,-0.52814 -0.36722,0.22695 -0.28578,2.49443 0.0946,2.6335 0.42602,0.15577 5.65904,0.57121 7.80016,0.61924 1.55136,0.0348 1.6584,-0.002 1.81462,-0.62448 z m -31.96929,-3.57188 c 0.0379,-0.65484 -0.0262,-1.33546 -0.14243,-1.51248 -0.25396,-0.38674 -4.86308,-1.17684 -5.16638,-0.88562 -0.11703,0.11237 -0.17656,0.90628 -0.13229,1.76423 l 0.0805,1.55992 1.19063,0.16431 c 0.65484,0.0904 1.84547,0.14991 2.64583,0.13229 l 1.45521,-0.032 z m -23.03174,0.5079 c 0.5152,-0.19588 0.60491,-0.41864 0.60147,-1.49353 -0.006,-2.01559 -0.0907,-2.0645 -2.81418,-1.63367 l -2.34115,0.37035 -0.0796,1.68599 -0.0796,1.68599 2.05378,-0.19245 c 1.12957,-0.10585 2.32626,-0.29606 2.6593,-0.42268 z m 15.55447,-1.69852 v -1.5875 l -2.66996,-0.37516 c -3.47231,-0.4879 -3.59555,-0.43513 -3.4949,1.49644 l 0.0795,1.52455 1.98437,0.30585 c 1.09141,0.16821 2.46063,0.28728 3.04271,0.26458 l 1.05833,-0.0413 z m -8.77028,1.0367 c 0.3359,-0.12889 0.43591,-0.52143 0.43591,-1.71085 0,-0.84897 -0.11137,-1.61241 -0.24749,-1.69654 -0.3422,-0.21149 -4.04239,0.37975 -4.44886,0.71086 -0.35584,0.28986 -0.46005,2.62809 -0.1323,2.96814 0.21248,0.22044 3.66713,0.007 4.39274,-0.27161 z m 35.41315,-0.85081 c 0.13545,-0.13546 0.20888,-0.76848 0.16317,-1.40671 l -0.0831,-1.16043 -1.5875,0.0794 c -3.76185,0.18804 -9.52438,0.8957 -9.7133,1.19284 -0.26945,0.4238 -0.2587,1.07506 0.0303,1.83518 l 0.23887,0.62828 5.35265,-0.46111 c 2.94395,-0.25362 5.46347,-0.57195 5.59893,-0.7074 z m -68.579319,0.64545 1.71979,-0.30217 0.0811,-1.42135 0.0811,-1.42134 -1.27172,0.17528 c -0.69945,0.0964 -1.8968,0.29797 -2.66078,0.44791 l -1.38906,0.27264 v 1.30416 c 0,1.30082 0.002,1.30408 0.85989,1.2756 0.47295,-0.0157 1.6338,-0.16454 2.57969,-0.33073 z m 14.172089,-0.53985 c 0.0876,-0.349 0.11963,-0.91454 0.0712,-1.25677 -0.10938,-0.77273 -0.7725,-0.88637 -6.783969,-1.16261 l -4.31465,-0.19826 0.0813,1.42766 0.0813,1.42766 2.64584,0.14719 c 1.45521,0.081 3.863959,0.17026 5.352769,0.19844 2.65491,0.0503 2.71,0.039 2.8662,-0.58331 z m 67.15897,0.21604 c 0.22131,-0.57673 0.19435,-1.49997 -0.0553,-1.89299 -0.22431,-0.35315 -8.79412,-1.28079 -9.46259,-1.02428 -0.48269,0.18523 -0.52153,2.50336 -0.045,2.68402 0.44006,0.16682 5.43565,0.56868 7.6446,0.61495 1.3819,0.0289 1.79197,-0.0526 1.91823,-0.3817 z m -17.19724,-4.22569 c 2.31314,-0.21959 4.30743,-0.46213 4.43177,-0.53898 0.31517,-0.19478 0.28422,-2.42257 -0.0364,-2.62072 -0.37999,-0.23485 -10.6554,0.9255 -11.04846,1.24764 -0.40023,0.32801 -0.43065,1.37728 -0.06,2.06983 0.22103,0.41301 0.47603,0.48161 1.38906,0.37368 0.61508,-0.0727 3.0109,-0.31186 5.32403,-0.53145 z m -64.133819,0.0669 1.71979,-0.3193 0.08,-1.38814 c 0.044,-0.76348 -0.0156,-1.38725 -0.13229,-1.38615 -0.28885,0.003 -3.47854,0.50205 -4.37946,0.68558 -0.67508,0.13752 -0.7276,0.24219 -0.7276,1.45011 0,1.29495 0.005,1.30183 0.85989,1.28955 0.47295,-0.007 1.63381,-0.15604 2.57969,-0.33165 z m 14.121599,-0.48131 c 0.13305,-0.37833 0.16692,-0.98669 0.0753,-1.35191 -0.19561,-0.7794 -0.76861,-0.87289 -7.119249,-1.16157 l -3.9026,-0.17739 v 1.36121 c 0,0.74867 0.0298,1.37751 0.0662,1.39743 0.11954,0.0654 9.846329,0.68404 10.247129,0.6517 0.21527,-0.0174 0.50027,-0.34114 0.63332,-0.71947 z m 35.19488,0.40679 c 0.31204,-0.81317 0.17336,-2.76819 -0.20671,-2.91404 -0.63603,-0.24407 -4.91615,-0.82078 -5.05572,-0.68122 -0.0733,0.0733 -0.13322,0.82549 -0.13322,1.67158 0,1.37855 0.0618,1.55253 0.59531,1.67472 0.49714,0.11387 3.26625,0.51916 4.33732,0.63482 0.16633,0.018 0.37469,-0.15567 0.46302,-0.38586 z m 31.85895,-1.23513 c 0.0575,-0.89645 -0.0183,-1.25828 -0.26458,-1.26203 -0.18988,-0.003 -1.95257,-0.17912 -3.9171,-0.39161 -1.96453,-0.2125 -4.02459,-0.38873 -4.57789,-0.39162 l -1.00602,-0.005 0.08,1.38906 0.08,1.38907 3.04271,0.29952 c 1.67349,0.16473 3.81661,0.2838 4.7625,0.26458 l 1.71979,-0.0349 z m -56.12598,0.83241 c 1.44525,-0.25167 1.69968,-0.38172 1.8399,-0.9404 0.15756,-0.62776 -0.0198,-2.41326 -0.26398,-2.65743 -0.0661,-0.0661 -1.17251,0.038 -2.45871,0.23122 l -2.33854,0.35139 -0.0788,1.65365 -0.0788,1.65364 h 0.85085 c 0.46796,0 1.60558,-0.13143 2.52802,-0.29207 z m 16.96829,-1.79623 c 0.0447,-0.78476 -0.0148,-1.52212 -0.13229,-1.63858 -0.30013,-0.29754 -5.57276,-1.10688 -5.8987,-0.90544 -0.38975,0.24088 -0.33673,2.96911 0.0627,3.22764 0.42492,0.27502 4.05614,0.83249 5.09322,0.78192 0.76819,-0.0375 0.79637,-0.0847 0.87504,-1.46554 z m -10.26774,0.95037 1.71979,-0.31948 0.0788,-1.65254 c 0.0788,-1.65231 0.0787,-1.65255 -0.66146,-1.65102 -1.41106,0.003 -3.87727,0.5167 -4.09012,0.85209 -0.25231,0.39756 -0.29103,2.09818 -0.0614,2.69662 0.18895,0.4924 0.69652,0.50491 3.0144,0.0743 z m -31.882299,-3.16894 1.85209,-0.3278 0.0809,-1.41369 0.0809,-1.41369 -1.3775,0.18946 c -0.75762,0.1042 -1.92512,0.32464 -2.59444,0.48987 -1.15995,0.28636 -1.22088,0.34821 -1.30073,1.32044 -0.11558,1.40726 0.0794,1.80106 0.80557,1.62716 0.33062,-0.0792 1.43456,-0.29145 2.4532,-0.47175 z m 64.029169,-0.0704 c 2.32833,-0.2263 4.38216,-0.46135 4.56406,-0.52232 0.20608,-0.0691 0.33073,-0.61261 0.33073,-1.44208 0,-1.16929 -0.0665,-1.33122 -0.547,-1.33122 -1.65782,0 -10.47106,1.13475 -10.77548,1.3874 -0.24877,0.20646 -0.3052,0.58854 -0.18309,1.23945 0.24872,1.32579 0.33084,1.3973 1.41241,1.22974 0.53077,-0.0822 2.87004,-0.33466 5.19837,-0.56097 z m -49.92687,0.0911 c 0.42752,-0.42752 0.40359,-1.9275 -0.0366,-2.29281 -0.3508,-0.29114 -6.294759,-0.82248 -9.250899,-0.82695 l -1.53518,-0.002 0.08,1.38906 0.08,1.38906 4.63021,0.28854 c 2.546609,0.1587 4.874279,0.30752 5.172599,0.33073 0.29832,0.0232 0.68527,-0.10068 0.8599,-0.27531 z m 67.2079,-0.99578 c 0.0457,-0.62693 -0.0138,-1.23578 -0.13229,-1.353 -0.20799,-0.20581 -7.30197,-1.03789 -8.84857,-1.03789 -0.73468,0 -0.75954,0.0431 -0.75954,1.31788 0,1.14961 0.076,1.33541 0.59531,1.45519 0.73329,0.16915 8.43144,0.87537 8.79739,0.80706 0.14553,-0.0272 0.30199,-0.56232 0.3477,-1.18924 z m -32.01832,-0.59172 c 0.35305,-0.35305 0.42463,-2.27924 0.10348,-2.78474 -0.2078,-0.32709 -4.96147,-1.15907 -5.20889,-0.91166 -0.0733,0.0733 -0.13334,0.82248 -0.13334,1.66476 0,1.52179 0.005,1.53232 0.8599,1.67554 0.47294,0.0793 1.4552,0.24995 2.18281,0.37928 1.85428,0.32959 1.84316,0.3297 2.19604,-0.0232 z m -24.56241,-0.49322 c 2.23176,-0.36209 2.43308,-0.55237 2.33653,-2.20849 l -0.0785,-1.34641 -1.71979,0.069 c -0.94588,0.0379 -2.07698,0.1651 -2.51354,0.28261 -0.76095,0.20482 -0.797,0.28122 -0.87252,1.84927 -0.0908,1.88557 -0.17663,1.84476 2.84782,1.35406 z m 17.47158,-1.8195 c 0,-0.86453 -0.12346,-1.64818 -0.27435,-1.74144 -0.32349,-0.19993 -4.61274,-0.91754 -5.49297,-0.919 -0.57784,-9.6e-4 -0.60403,0.0809 -0.52916,1.65264 l 0.0788,1.65365 2.51354,0.4377 c 3.93752,0.68567 3.70417,0.75393 3.70417,-1.08355 z m -10.96266,1.02797 c 2.63647,-0.4691 2.49599,-0.34069 2.49599,-2.28148 v -1.73141 l -0.8599,0.15464 c -0.47294,0.0851 -1.39567,0.23369 -2.05052,0.33031 -1.8658,0.27527 -2.11666,0.48985 -2.11666,1.81057 0,1.37039 0.20112,1.9967 0.64117,1.9967 0.17599,0 1.02645,-0.1257 1.88992,-0.27933 z m -32.808329,-1.32495 c 0.86347,-0.15476 2.01643,-0.39747 2.56213,-0.53937 0.97854,-0.25444 0.99219,-0.27605 0.99219,-1.57071 0,-1.50878 0.17306,-1.45957 -2.91042,-0.82753 l -2.24896,0.46098 -0.08,1.379 c -0.044,0.75845 -0.0361,1.379 0.0175,1.379 0.0536,0 0.80401,-0.12662 1.66748,-0.28137 z m 64.568279,-0.25816 c 2.74977,-0.29674 5.20794,-0.60242 5.4626,-0.67929 0.35951,-0.10851 0.46302,-0.43154 0.46302,-1.44485 0,-1.56191 0.51849,-1.49293 -5.80979,-0.77296 -5.32934,0.60633 -5.48466,0.64279 -5.70576,1.33944 -0.19157,0.60357 0.0829,2.09719 0.38543,2.09719 0.11271,0 2.45473,-0.24279 5.2045,-0.53953 z m -48.89604,-0.0426 c 0.41689,-0.41689 0.40809,-1.92573 -0.0132,-2.26628 -0.328,-0.26511 -6.837729,-0.8558 -9.431469,-0.8558 h -1.3503 v 1.33122 c 0,0.82872 0.12484,1.3736 0.33072,1.44349 0.2813,0.0955 6.199119,0.49716 9.207509,0.62497 0.51659,0.0219 1.08214,-0.10297 1.25677,-0.2776 z m 67.12479,-1.1377 v -1.32292 l -2.51354,-0.31778 c -1.38245,-0.17479 -3.52558,-0.35338 -4.7625,-0.39688 l -2.24896,-0.0791 -0.0806,1.25677 c -0.0444,0.69122 0.0152,1.26348 0.13229,1.27168 0.11711,0.008 1.99887,0.23434 4.18168,0.50255 5.47996,0.67332 5.29167,0.70585 5.29167,-0.91433 z m -31.75,-3.43959 v -1.5875 l -2.51354,-0.42282 c -1.38245,-0.23256 -2.60284,-0.37436 -2.71198,-0.31512 -0.34047,0.18481 -0.22526,2.9389 0.13229,3.16246 0.40744,0.25474 3.83856,0.85072 4.56406,0.79276 0.46567,-0.0372 0.52917,-0.23276 0.52917,-1.62978 z m -24.9218,0.88663 c 1.04668,-0.16719 2.05188,-0.4199 2.23378,-0.56156 0.503,-0.39173 0.43178,-2.81644 -0.0886,-3.01612 -0.23062,-0.0885 -1.39148,0.005 -2.57969,0.20674 l -2.16037,0.36765 -0.0788,1.65364 c -0.0904,1.89771 -0.2507,1.81679 2.67364,1.34965 z m -24.687579,-0.71352 1.98438,-0.43769 0.0831,-1.16043 c 0.0457,-0.63823 -0.0152,-1.25879 -0.13547,-1.37901 -0.12022,-0.12022 -1.05059,-0.0472 -2.06749,0.16227 -3.30133,0.68002 -3.03953,0.50902 -3.03953,1.98533 0,1.54009 -0.0213,1.53453 3.175,0.82953 z m 42.280379,-1.16496 c 0.0935,-1.79188 -0.003,-1.86466 -3.04043,-2.30452 -3.34978,-0.48502 -3.25661,-0.52204 -3.25661,1.29417 0,1.80372 -0.11992,1.71715 3.15248,2.27599 3.0507,0.52097 3.05139,0.52069 3.14456,-1.26564 z m 20.9144,1.1169 c 6.38453,-0.73322 5.86147,-0.54454 5.86147,-2.11446 0,-1.23454 -0.0425,-1.31788 -0.67138,-1.31788 -0.78518,0 -9.23795,1.00162 -10.10636,1.19756 -0.66951,0.15107 -1.00892,1.09914 -0.75527,2.10973 0.19949,0.79486 -0.10286,0.7882 5.67154,0.12505 z m -48.80329,-0.14669 c 0.27171,-0.70807 0.17823,-1.8833 -0.17299,-2.17479 -0.31108,-0.25817 -6.988909,-0.84628 -9.609339,-0.84628 h -1.16957 v 1.32292 c 0,0.7276 0.0298,1.33775 0.0661,1.35588 0.1683,0.0839 7.906709,0.69025 9.232099,0.72342 1.14129,0.0286 1.53088,-0.0612 1.65365,-0.38115 z m 17.09393,0.0103 c 2.24246,-0.2803 2.38125,-0.41298 2.38125,-2.27639 v -1.60764 l -0.8599,0.15465 c -0.47294,0.085 -1.39567,0.23369 -2.05052,0.3303 -1.8658,0.27527 -2.11666,0.48985 -2.11666,1.81057 0,1.49388 0.22013,2.04251 0.75893,1.89144 0.23743,-0.0666 1.08654,-0.20289 1.8869,-0.30293 z m 49.95362,-0.95711 c 0.094,-1.45521 0.39826,-1.33347 -4.84216,-1.9377 -5.17612,-0.59683 -4.89479,-0.64886 -4.89479,0.90531 v 1.3067 l 1.12448,0.16189 c 3.57024,0.514 6.79795,0.86823 7.60677,0.83482 0.90809,-0.0375 0.92758,-0.0621 1.0057,-1.27102 z m -81.174449,-3.35721 1.71979,-0.4371 v -1.32291 c 0,-1.29524 -0.0156,-1.32109 -0.74564,-1.23548 -0.41011,0.0481 -1.5412,0.28622 -2.51354,0.52917 l -1.76791,0.44172 -0.0806,1.25677 -0.0806,1.25677 0.8744,-0.0259 c 0.48091,-0.0143 1.64829,-0.22261 2.59418,-0.46302 z m 63.078199,-0.0744 c 5.77933,-0.71981 5.71346,-0.69435 5.71346,-2.20826 0,-1.4284 0.46753,-1.36925 -5.30683,-0.67144 -6.28836,0.75992 -6.00398,0.68688 -6.20308,1.59338 -0.23879,1.08719 0.0584,1.84963 0.72105,1.84963 0.30392,0 2.58785,-0.25349 5.0754,-0.56331 z m -48.9243,-0.48907 c 0.26587,-1.21053 -0.0451,-1.82112 -1.00579,-1.97497 -1.67671,-0.2685 -9.449469,-0.70463 -9.708209,-0.54472 -0.22182,0.13709 -0.40183,2.44408 -0.19876,2.54739 0.18813,0.0957 7.703079,0.69328 9.107109,0.72417 1.60695,0.0354 1.63534,0.0235 1.80565,-0.75187 z m 67.07318,-0.38721 c 0,-0.64626 -0.11122,-1.24375 -0.24716,-1.32777 -0.43164,-0.26676 -8.71153,-1.27226 -9.13583,-1.10943 -0.28183,0.10814 -0.40659,0.51895 -0.40659,1.33874 v 1.18271 l 1.12448,0.16087 c 3.75734,0.53751 6.55961,0.87149 7.54062,0.8987 l 1.12448,0.0312 z m -31.8038,-0.56828 c 0.0506,-0.86726 -0.0436,-1.44594 -0.26458,-1.62608 -0.3294,-0.26851 -3.56402,-0.86396 -4.69324,-0.86396 -0.48908,0 -0.54463,0.16141 -0.54463,1.58246 0,1.75881 -0.19504,1.59623 2.51354,2.0952 0.72761,0.13403 1.68011,0.2246 2.11667,0.20125 0.76119,-0.0407 0.79697,-0.0977 0.87224,-1.38887 z m -24.65179,0.6598 c 0.91509,-0.15935 1.79495,-0.44776 1.95524,-0.6409 0.16029,-0.19314 0.25477,-0.92596 0.20996,-1.62849 l -0.0815,-1.27733 -1.5875,0.0741 c -0.87312,0.0408 -2.03398,0.19417 -2.57968,0.34093 l -0.99219,0.26684 v 1.5773 c 0,1.53256 0.02,1.5773 0.70593,1.5773 0.38826,0 1.45464,-0.13038 2.36973,-0.28974 z m 17.24625,-1.80104 c 0.0447,-0.7834 -0.0209,-1.52654 -0.14578,-1.65142 -0.27127,-0.27128 -5.66972,-1.27393 -5.95478,-1.10598 -0.33958,0.20007 -0.22524,2.94752 0.1323,3.17892 0.38016,0.24605 4.89439,1.10384 5.4901,1.04323 0.28716,-0.0292 0.41935,-0.43415 0.47816,-1.46475 z m -10.09981,0.72213 1.68415,-0.31032 v -1.67406 c 0,-1.38663 -0.0758,-1.67405 -0.44135,-1.67405 -0.93302,0 -3.93999,0.60683 -4.255,0.85869 -0.34234,0.27371 -0.46589,2.62213 -0.15434,2.93367 0.25889,0.2589 1.2657,0.21631 3.16654,-0.13393 z m -32.467089,-2.35922 2.40124,-0.55287 v -1.29921 c 0,-1.53157 -0.0457,-1.54334 -3.175,-0.8168 l -1.98438,0.46073 -0.08,1.38051 c -0.045,0.77661 0.0331,1.38051 0.17846,1.38051 0.14213,0 1.33898,-0.24879 2.65966,-0.55287 z M 106.02194,107.464 c 0.13305,-0.37834 0.16655,-0.98815 0.0744,-1.35515 -0.15417,-0.61425 -0.3201,-0.68118 -2.08853,-0.84253 -3.88007,-0.35401 -8.541089,-0.62431 -8.734079,-0.5065 -0.34016,0.20765 -0.22502,2.47803 0.13229,2.60876 0.37778,0.13821 9.387139,0.87962 9.982559,0.8215 0.21527,-0.021 0.50027,-0.34775 0.63332,-0.72608 z m 49.68192,0.19249 c 2.4225,-0.34388 4.53586,-0.70639 4.69635,-0.80557 0.16049,-0.0992 0.29179,-0.7091 0.29179,-1.35535 0,-1.42351 0.46131,-1.38359 -6.07696,-0.52591 -3.85251,0.50537 -4.9581,0.73913 -5.22552,1.10485 -0.3593,0.49136 -0.45918,1.74202 -0.16279,2.03841 0.30389,0.3039 1.92638,0.18956 6.47713,-0.45643 z m 17.29127,-0.84374 v -1.30017 l -4.45881,-0.61394 c -2.45235,-0.33767 -4.62524,-0.55008 -4.82865,-0.47203 -0.38878,0.14919 -0.54837,2.52711 -0.1714,2.55386 0.10914,0.008 2.16297,0.29317 4.56407,0.63428 2.40109,0.3411 4.48468,0.59273 4.6302,0.55918 0.14553,-0.0336 0.26459,-0.64609 0.26459,-1.36118 z m -31.66785,-2.06608 c 0.0452,-0.71153 -0.0318,-1.40762 -0.17104,-1.54688 -0.26774,-0.26774 -3.73033,-0.99506 -4.73976,-0.99559 -0.55104,-2.9e-4 -0.59531,0.11738 -0.59531,1.58215 0,1.75041 -0.16475,1.6047 2.38125,2.10597 0.65484,0.12893 1.60734,0.21498 2.11667,0.19122 0.91403,-0.0426 0.9271,-0.06 1.00819,-1.33687 z m -24.82069,0.61376 c 0.94588,-0.17226 1.86862,-0.49946 2.05052,-0.72711 0.37706,-0.47189 0.43564,-2.11876 0.0945,-2.65716 -0.2408,-0.38006 -2.00298,-0.26773 -4.06327,0.25903 l -0.99219,0.25368 v 1.5332 c 0,1.65627 0.13163,1.95734 0.77461,1.77169 0.22881,-0.0661 1.18992,-0.26107 2.13581,-0.43333 z m 17.40954,-1.902 c 0.0716,-1.37039 0.02,-1.54375 -0.52916,-1.77799 -0.83748,-0.35722 -5.25877,-1.08288 -5.53973,-0.90924 -0.35155,0.21727 -0.27459,2.96026 0.0894,3.1852 0.39309,0.24294 4.95914,1.12684 5.50331,1.06533 0.29084,-0.0329 0.41807,-0.45055 0.47621,-1.5633 z m -10.26579,0.78253 1.71979,-0.31948 0.0788,-1.65254 c 0.0755,-1.5832 0.0525,-1.65255 -0.54672,-1.65255 -1.04487,0 -3.7441,0.56052 -4.09611,0.85059 -0.34246,0.2822 -0.46566,2.63045 -0.15434,2.94177 0.24562,0.24563 1.00053,0.20339 2.99861,-0.16779 z m -33.072919,-0.46799 c 3.33495,-0.75645 3.175,-0.65023 3.175,-2.10844 0,-0.79684 -0.1171,-1.31272 -0.29798,-1.31272 -0.16389,0 -1.35451,0.24804 -2.64583,0.55121 l -2.34786,0.55121 v 1.30087 c 0,1.46088 0.0524,1.48609 2.11667,1.01787 z m 64.426039,-0.53281 c 5.78457,-0.7533 5.68854,-0.71582 5.68854,-2.22034 0,-1.129667 -0.041,-1.197167 -0.7276,-1.196987 -1.51452,3.8e-4 -10.21271,1.334617 -10.55553,1.619127 -0.44416,0.36862 -0.47042,1.86713 -0.0402,2.2973 0.17506,0.17506 0.50248,0.26617 0.72761,0.20247 0.22512,-0.0637 2.43338,-0.3794 4.90723,-0.70157 z m -48.94922,-0.23657 c 0.23569,-1.07311 -0.0504,-1.83297 -0.74393,-1.97565 -0.63688,-0.13102 -8.349139,-0.68103 -9.507369,-0.67802 -0.69648,0.002 -0.7276,0.0585 -0.7276,1.3248 0,0.86871 0.11355,1.33144 0.33072,1.34774 0.18191,0.0136 2.1762,0.17549 4.43178,0.35963 6.358119,0.51909 6.014659,0.54 6.216399,-0.3785 z m 67.07318,-0.38721 c 0,-0.64626 -0.12627,-1.25305 -0.28059,-1.34842 -0.43073,-0.26621 -8.99812,-1.465237 -9.26979,-1.297337 -0.28705,0.177407 -0.32451,2.489707 -0.0408,2.516787 0.10914,0.0104 1.98438,0.29092 4.16719,0.62335 5.77322,0.87923 5.42396,0.91106 5.42396,-0.49438 z m -31.8038,-4.225447 -0.0785,-1.34641 -1.26908,-0.31323 c -0.698,-0.17228 -1.92444,-0.39511 -2.72544,-0.49519 l -1.45636,-0.18196 0.0796,1.68581 0.0796,1.68582 2.38125,0.419 c 2.88266,0.507227 3.09716,0.402897 2.98891,-1.45384 z m -49.555579,0.67627 1.85209,-0.4663 0.0806,-1.24121 c 0.0743,-1.14321 0.0325,-1.2411 -0.52917,-1.23974 -0.3354,8.1e-4 -1.02653,0.11225 -1.53585,0.24765 -0.50932,0.13539 -1.43206,0.37744 -2.05052,0.53789 -1.10309,0.28616 -1.12448,0.31333 -1.12448,1.42804 0,1.32162 0.14018,1.53049 0.89917,1.33973 0.30582,-0.0769 1.38947,-0.34959 2.40812,-0.60606 z m 25.362599,0.12008 1.36032,-0.3011 0.0788,-1.64844 c 0.075,-1.56833 0.0492,-1.64798 -0.52916,-1.63914 -0.79374,0.0121 -3.7437,0.64721 -4.13784,0.89081 -0.32532,0.20105 -0.43201,2.855 -0.12704,3.15997 0.18155,0.18156 0.88437,0.0847 3.35495,-0.4621 z m 38.58442,-0.53698 c 2.42866,-0.3458 4.54202,-0.70676 4.69635,-0.80214 0.15433,-0.0954 0.28059,-0.70217 0.28059,-1.34843 0,-1.10513 -0.0433,-1.17508 -0.7276,-1.17627 -1.56097,-0.003 -10.52808,1.4129 -10.71157,1.69102 -0.32402,0.49109 -0.22588,1.68865 0.1709,2.08543 0.20658,0.20658 0.70895,0.32999 1.12448,0.27625 0.4131,-0.0534 2.73818,-0.38007 5.16685,-0.72586 z m -49.68782,0.22466 c 0.30191,-0.78676 0.16097,-1.67934 -0.30452,-1.92845 -0.55249,-0.29569 -10.061619,-1.15883 -10.408019,-0.94474 -0.20344,0.12573 -0.3641,2.46086 -0.17322,2.51762 0.48207,0.14335 7.188109,0.71284 8.702949,0.73907 1.62181,0.0281 2.05401,-0.0478 2.18281,-0.3835 z m 67.10018,-0.76707 c 0,-1.01156 -0.0874,-1.20616 -0.59531,-1.32579 -1.44913,-0.34129 -8.81694,-1.39181 -8.99584,-1.28265 -0.1756,0.10715 -0.29947,2.44005 -0.13229,2.49144 0.63643,0.19567 7.7832,1.25567 8.59896,1.2754 l 1.12448,0.0272 z m -39.21129,-0.73488 c 0.0717,-1.37135 0.0204,-1.54317 -0.52916,-1.77376 -0.9176,-0.38501 -5.21966,-1.11128 -5.5121,-0.93055 -0.33996,0.21011 -0.32989,2.96024 0.0116,3.17131 0.36049,0.2228 5.05399,1.1473 5.55343,1.09389 0.2912,-0.0311 0.418,-0.44676 0.47621,-1.56089 z m -9.4059,0.57446 0.99219,-0.26189 v -1.5773 c 0,-1.476 -0.0396,-1.57731 -0.61733,-1.57731 -0.97385,0 -3.71434,0.58152 -4.07902,0.86555 -0.35556,0.27692 -0.46056,2.61918 -0.1323,2.95103 0.21999,0.22238 2.30007,0.005 3.83646,-0.40008 z m 30.39587,-3.67983 c 2.91677,-0.43587 5.41182,-0.85962 5.54456,-0.94165 0.13274,-0.082 0.24134,-0.67792 0.24134,-1.32417 0,-1.16909 -0.005,-1.17501 -0.93696,-1.17501 -1.51168,0 -10.01245,1.34807 -10.37397,1.64512 -0.4693,0.38562 -0.37898,2.58821 0.10614,2.58821 0.0636,0 2.50212,-0.35662 5.41889,-0.7925 z m 18.16967,-0.46427 -0.0806,-1.25677 -4.10104,-0.71314 c -2.25558,-0.39223 -4.43499,-0.71965 -4.84315,-0.72761 -0.72193,-0.0141 -0.73991,0.0197 -0.66145,1.24231 l 0.0806,1.25677 4.10104,0.69937 c 2.25557,0.38466 4.43499,0.71208 4.84314,0.72761 0.72356,0.0275 0.74009,-0.003 0.66146,-1.22854 z m -31.75215,-1.01817 c 0.0506,-0.86641 -0.0434,-1.44209 -0.26458,-1.62019 -0.3769,-0.30349 -3.82221,-1.13195 -4.70741,-1.13195 -0.51368,0 -0.54975,0.12506 -0.47694,1.65364 l 0.0788,1.65365 2.24896,0.4407 c 3.04455,0.5966 3.02788,0.60192 3.1212,-0.99585 z m -25.1241,0.51445 c 2.4782,-0.49193 2.62112,-0.64403 2.46379,-2.62212 l -0.0974,-1.22512 -1.11687,0.16749 c -0.61427,0.0921 -1.70269,0.31205 -2.4187,0.48876 l -1.30185,0.32127 -0.0788,1.65365 c -0.0433,0.9095 0.0162,1.65374 0.13229,1.65385 0.11609,1.1e-4 1.20398,-0.19689 2.41754,-0.43778 z m 17.71614,-1.99627 c 0.0652,-1.24224 -0.006,-1.54817 -0.41172,-1.76523 -0.71645,-0.38343 -5.06744,-1.15829 -5.52281,-0.98355 -0.29327,0.11254 -0.36915,0.52326 -0.3092,1.67369 l 0.0795,1.52456 2.64583,0.5728 c 1.45521,0.31505 2.82443,0.55201 3.04271,0.5266 0.29005,-0.0338 0.4181,-0.45068 0.47574,-1.54887 z m -10.79449,0.83774 c 2.6224,-0.57323 2.38125,-0.34584 2.38125,-2.24539 0,-0.94312 -0.0468,-1.71476 -0.10399,-1.71476 -0.5852,0 -4.34045,0.91564 -4.59236,1.11975 -0.34239,0.27741 -0.46579,2.62576 -0.15434,2.9372 0.24302,0.24303 1.06157,0.21094 2.46944,-0.0968 z m 49.95815,-2.47366 c 0.0463,-0.56488 -0.0251,-1.13632 -0.15861,-1.26986 -0.30611,-0.30612 -8.80504,-1.85057 -9.25214,-1.681335 -0.40618,0.153743 -0.44456,2.156885 -0.0461,2.403175 0.40333,0.24927 8.20472,1.68115 8.84344,1.62314 0.4134,-0.0375 0.54759,-0.27276 0.61336,-1.07512 z m -18.42057,0.0997 c 2.80265,-0.4373 5.30667,-0.86204 5.56449,-0.94387 0.3545,-0.11251 0.46876,-0.43086 0.46876,-1.30596 0,-0.636447 -0.0983,-1.217961 -0.21855,-1.292251 -0.30947,-0.191266 -10.27122,1.358071 -10.90179,1.695541 -0.33364,0.17856 -0.52132,0.55362 -0.52132,1.0418 0,0.74189 0.22359,1.59983 0.41694,1.59983 0.0527,0 2.38882,-0.35779 5.19147,-0.79509 z m -13.33513,-3.064865 c 0.0506,-0.868422 -0.0433,-1.444491 -0.26458,-1.622671 -0.3769,-0.303488 -3.82221,-1.131953 -4.70741,-1.131953 -0.51348,0 -0.54972,0.125164 -0.47694,1.647113 l 0.0788,1.647116 2.11667,0.44544 c 3.08047,0.64827 3.15967,0.62429 3.25349,-0.985045 z m -24.8996,0.534275 c 0.9913,-0.228403 1.90753,-0.518122 2.03607,-0.643823 0.25455,-0.248917 0.32633,-2.834689 0.0854,-3.075635 -0.0816,-0.08159 -1.19879,0.07121 -2.48267,0.339548 l -2.33434,0.487886 -0.0788,1.653646 c -0.0918,1.927498 -0.1343,1.908538 2.77433,1.238378 z m 17.49406,-1.958412 c 0.0447,-0.773325 -0.0306,-1.517878 -0.16723,-1.654561 -0.30069,-0.300681 -4.38037,-1.247122 -5.41678,-1.256633 l -0.74023,-0.0068 0.0788,1.653646 0.0788,1.653646 2.77812,0.573855 c 1.52797,0.31562 2.89719,0.544386 3.04271,0.50837 0.14552,-0.03602 0.30116,-0.698206 0.34587,-1.47153 z m 39.16124,0.135549 c 0.0463,-0.553631 -0.016,-1.106793 -0.13845,-1.229248 -0.22838,-0.228387 -8.18643,-1.824288 -9.09691,-1.824288 -0.42314,0 -0.50612,0.194383 -0.50612,1.185584 0,1.009515 0.0884,1.207434 0.59531,1.332706 1.43249,0.354016 8.55783,1.647891 8.79739,1.597501 0.14553,-0.03061 0.30248,-0.508624 0.34878,-1.062255 z m -49.80169,0.550601 c 0.88642,-0.190313 1.74963,-0.431282 1.91823,-0.535487 0.36618,-0.226307 0.42142,-3.333233 0.0593,-3.333233 -0.70995,0 -4.12741,0.846279 -4.42933,1.096856 -0.35971,0.298531 -0.49723,2.636938 -0.17407,2.960089 0.24714,0.247146 0.77397,0.209383 2.6259,-0.188225 z m 31.19666,-0.699728 c 1.89178,-0.291271 4.06467,-0.655641 4.82865,-0.809712 l 1.38906,-0.28013 v -1.304188 c 0,-1.166863 -0.0612,-1.304159 -0.58145,-1.304159 -1.1871,0 -10.40226,1.63541 -10.72516,1.903388 -0.35,0.290476 -0.46688,2.109928 -0.15554,2.42127 0.0987,0.09874 0.54522,0.11732 0.99219,0.0413 0.44697,-0.07602 2.36048,-0.376529 4.25225,-0.667799 z m 18.65313,-3.820252 c 0,-1.041329 0.60702,-0.788885 -5.68191,-2.362946 -2.76052,-0.690931 -3.74848,-0.845332 -3.89856,-0.609272 -0.3177,0.499739 -0.24183,1.718992 0.12162,1.954217 0.47534,0.307651 7.57645,1.88695 8.59895,1.912422 0.80865,0.02015 0.8599,-0.03316 0.8599,-0.894421 z m -31.8038,-0.827449 c 0.0509,-0.873282 -0.0421,-1.438494 -0.26458,-1.60844 -0.32223,-0.2461 -4.19041,-1.146185 -4.92581,-1.146185 -0.24573,0 -0.31592,0.448189 -0.25854,1.650837 l 0.0788,1.650837 1.85208,0.450227 c 1.01865,0.247625 2.20928,0.427483 2.64584,0.399684 0.75994,-0.04839 0.79709,-0.107883 0.87224,-1.39696 z m -24.68794,0.552446 c 1.94683,-0.464763 2.34544,-0.929148 2.13944,-2.492441 -0.0848,-0.643343 -0.20509,-1.22066 -0.26736,-1.282926 -0.0623,-0.06227 -1.16308,0.11321 -2.44625,0.389948 l -2.33305,0.503159 -0.0788,1.639663 -0.0788,1.639663 0.74023,-0.0094 c 0.40713,-0.0052 1.45316,-0.179622 2.32453,-0.387641 z m 17.28045,-2.070894 c 0.0715,-1.3519 0.0192,-1.525504 -0.52916,-1.757117 -1.02312,-0.432117 -5.27147,-1.34216 -5.52735,-1.184017 -0.34722,0.214591 -0.29657,2.961979 0.0586,3.181516 0.39406,0.24354 5.31301,1.388435 5.65395,1.315967 0.14552,-0.03093 0.30029,-0.731287 0.34392,-1.556349 z m -10.81195,0.735863 c 0.93653,-0.220748 1.85927,-0.531223 2.05052,-0.689945 0.20835,-0.172922 0.34772,-0.858839 0.34772,-1.711396 0,-1.644073 -0.0716,-1.67132 -2.72626,-1.037058 -2.03683,0.486654 -2.30082,0.744626 -2.30082,2.248379 0,1.806918 0.004,1.808716 2.62884,1.19002 z m 18.11264,-4.242668 c 0.0883,-0.230183 0.1606,-0.887579 0.1606,-1.46088 0,-1.206446 -0.17924,-1.323317 -2.99298,-1.951532 -2.70131,-0.603114 -2.6005,-0.653187 -2.50975,1.24656 l 0.0788,1.648966 1.85208,0.438174 c 2.43595,0.576306 3.21345,0.594247 3.41128,0.07871 z m -24.79678,-0.471441 c 0.89828,-0.207081 1.76148,-0.45577 1.91823,-0.552642 0.41563,-0.256876 0.37332,-3.32163 -0.0457,-3.313434 -0.36261,0.0071 -2.14877,0.397401 -3.70416,0.809428 l -0.99219,0.262833 v 1.533205 c 0,1.658173 0.13289,1.96089 0.77461,1.764462 0.22881,-0.07004 1.15097,-0.296771 2.04926,-0.503852 z m 17.54905,-2.274846 V 71.26804 l -0.99219,-0.264775 c -2.02857,-0.541342 -4.44657,-1.070838 -4.90742,-1.074627 -0.4158,-0.0034 -0.46573,0.204137 -0.39687,1.649735 l 0.0788,1.653646 2.24896,0.571274 c 1.23692,0.314201 2.63591,0.582092 3.10885,0.595313 l 0.8599,0.02404 z m -11.01326,0.913922 c 2.65112,-0.614836 2.54659,-0.522083 2.54659,-2.259729 0,-0.848968 -0.0893,-1.596789 -0.19844,-1.661824 -0.10914,-0.06503 -1.21047,0.136297 -2.44739,0.447406 l -2.24896,0.565652 -0.082,1.289299 c -0.0888,1.396227 0.0512,2.017993 0.45412,2.017993 0.14106,0 1.03028,-0.179459 1.97605,-0.398797 z m 18.106,-5.442299 -0.0813,-1.418737 -2.11666,-0.595428 c -3.11,-0.874856 -3.04271,-0.896626 -3.04271,0.984398 0,1.206225 0.10144,1.634729 0.41551,1.75525 1.05283,0.404009 4.50187,1.053161 4.69286,0.883254 0.11746,-0.1045 0.17699,-0.828431 0.13229,-1.608737 z m -24.68754,0.731583 2.11667,-0.595617 0.0788,-1.645352 c 0.0581,-1.214336 -0.0112,-1.644164 -0.26458,-1.640818 -0.49272,0.0065 -4.06433,0.951196 -4.41455,1.167646 -0.42249,0.261115 -0.38894,3.32802 0.0363,3.317747 0.1819,-0.0044 1.28323,-0.276017 2.44739,-0.603606 z m 17.5948,-2.304238 v -1.561687 l -0.99219,-0.258762 c -5.65078,-1.473721 -5.35781,-1.500665 -5.35781,0.492751 v 1.577302 l 1.12448,0.315048 c 2.34327,0.656519 4.83612,1.202974 5.02708,1.101982 0.10914,-0.05772 0.19844,-0.807706 0.19844,-1.666634 z m -10.94391,0.828692 c 1.03861,-0.269815 2.02088,-0.572457 2.18281,-0.672539 0.42233,-0.261011 0.38881,-3.32703 -0.0363,-3.321202 -0.84881,0.01164 -4.27295,1.060403 -4.46841,1.368613 -0.26271,0.41424 -0.30263,2.697308 -0.0516,2.948381 0.23523,0.235239 0.21082,0.238564 2.37345,-0.323253 z m -6.18192,-4.751189 1.6477,-0.443674 0.0788,-1.650665 c 0.0582,-1.21869 -0.0111,-1.649477 -0.26458,-1.64613 -0.49272,0.0065 -4.06433,0.951196 -4.41455,1.167646 -0.16343,0.101004 -0.29443,0.890697 -0.29443,1.774874 v 1.592908 l 0.7997,-0.175643 c 0.43983,-0.0966 1.54116,-0.375296 2.44739,-0.619316 z m 17.12583,-2.015902 c 0,-1.108707 -0.10798,-1.502189 -0.46302,-1.687272 -0.86953,-0.45328 -5.38127,-1.646064 -5.63444,-1.489594 -0.37895,0.2342 -0.31241,2.966623 0.0782,3.210734 0.52377,0.327346 4.48872,1.370598 5.29166,1.392334 0.70739,0.01915 0.72761,-0.02047 0.72761,-1.426202 z m -8.52019,-1.680299 c 0.0651,-1.353198 0.006,-1.636302 -0.3425,-1.636302 -0.69957,0 -3.94603,0.852587 -4.30033,1.129358 -0.40781,0.31856 -0.43847,2.625827 -0.0402,3.024106 0.21101,0.211008 0.88101,0.130206 2.4474,-0.295156 l 2.15685,-0.585704 z"
       id="path1" /></g></svg>
