<?xml version="1.0" encoding="UTF-8" standalone="no"?>
<!-- Created with Inkscape (http://www.inkscape.org/) -->

<svg
   width="6.1416883in"
   height="6.2802086in"
   viewBox="0 0 155.99888 159.5173"
   version="1.1"
   id="svg53678"
   inkscape:version="1.2.2 (732a01da63, 2022-12-09)"
   sodipodi:docname="Changing-Objects-To-Paths.svg"
   xml:space="preserve"
   xmlns:inkscape="http://www.inkscape.org/namespaces/inkscape"
   xmlns:sodipodi="http://sodipodi.sourceforge.net/DTD/sodipodi-0.dtd"
   xmlns="http://www.w3.org/2000/svg"
   xmlns:svg="http://www.w3.org/2000/svg"><sodipodi:namedview
     id="namedview53680"
     pagecolor="#ffffff"
     bordercolor="#ffffff"
     borderopacity="1"
     inkscape:showpageshadow="0"
     inkscape:pageopacity="0"
     inkscape:pagecheckerboard="false"
     inkscape:deskcolor="#505050"
     inkscape:document-units="mm"
     showgrid="false"
     inkscape:zoom="0.73851712"
     inkscape:cx="526.05416"
     inkscape:cy="453.61169"
     inkscape:window-width="1920"
     inkscape:window-height="1009"
     inkscape:window-x="-8"
     inkscape:window-y="-8"
     inkscape:window-maximized="1"
     inkscape:current-layer="layer1"><inkscape:page
       x="0"
       y="0"
       width="155.99889"
       height="159.5173"
       id="page2"
       margin="0"
       bleed="0" /></sodipodi:namedview><defs
     id="defs53675" /><g
     inkscape:label="Layer 1"
     inkscape:groupmode="layer"
     id="layer1"
     transform="translate(-60.527296,-34.298679)"><path
       style="fill:#000000"
       d="m 60.527297,149.34607 v -44.46991 l 4.93604,-0.0522 4.93605,-0.0522 0.0522,-5.033787 0.0522,-5.033789 h 17.58722 17.587223 l 0.0522,5.033789 0.0522,5.033787 2.49246,0.0547 2.49245,0.0547 V 79.657472 54.43382 h 5.08266 5.08266 v -4.982593 -4.982594 l 7.47738,-0.05119 7.47737,-0.05119 0.0522,-5.033788 0.0522,-5.033788 h 2.53473 2.53473 l 0.0522,5.033788 0.0522,5.033788 7.47737,0.05119 7.47738,0.05119 v 4.982594 4.982593 h 5.08145 5.08145 l 0.0501,15.101364 0.0501,15.101364 2.05261,0.057 c 1.12894,0.03135 2.25054,0.0077 2.49246,-0.0526 l 0.43984,-0.109596 V 79.55016 74.568968 h 17.59053 17.59052 l 0.0522,5.033788 0.0522,5.033788 4.93604,0.05223 4.93605,0.05223 v 54.537486 54.53749 H 138.52663 60.527357 Z m 9.96983,28.43999 V 165.2749 h 68.029443 68.02945 v 12.51116 12.51117 h 2.5417 2.54171 l -0.0493,-50.28901 -0.0493,-50.289012 -22.62708,-0.04969 -22.62707,-0.04969 -0.0494,35.237322 -0.0494,35.23734 -2.49246,0.0547 -2.49245,0.0547 V 109.8602 59.51648 h -22.6764 -22.67648 v 50.34372 50.34372 l -2.49245,-0.0547 -2.49246,-0.0547 -0.0496,-25.16976 -0.0496,-25.16976 -22.626873,0.0497 -22.62688,0.0497 -0.0493,40.22143 -0.0493,40.22144 h 2.5418 2.5418 z m 0.13033,-17.72414 c -0.0717,-0.0717 -0.13033,-1.21528 -0.13033,-2.54133 v -2.41101 h 7.52625 7.52624 v 2.54133 2.54133 h -7.39592 c -4.06776,0 -7.45457,-0.0586 -7.52624,-0.13032 z m 20.00482,-2.41101 v -2.54133 h 7.52625 7.526243 v 2.54133 2.54133 h -7.526243 -7.52625 z m 30.300473,0 v -2.54133 h 17.59382 17.59383 v 2.54133 2.54133 h -17.59383 -17.59382 z m 50.43562,0 v -2.54133 h 7.52625 7.52625 v 2.54133 2.54133 h -7.52625 -7.52625 z m 20.13516,0.002 v -2.54365 h 7.53208 7.53209 l -0.0547,2.49246 -0.0547,2.49246 -7.47737,0.0512 -7.47737,0.0512 z M 70.497127,147.58334 v -2.44359 h 7.52625 7.52624 v 2.44359 2.44358 h -7.52624 -7.52625 z m 20.13515,0 v -2.44359 h 7.52625 7.526243 v 2.44359 2.44358 h -7.526243 -7.52625 z m 30.300473,0 v -2.44359 h 7.52625 7.52624 v 2.44359 2.44358 h -7.52624 -7.52625 z m 20.13515,0 v -2.44359 h 7.52625 7.52625 v 2.44359 2.44358 h -7.52625 -7.52625 z m 30.30047,0 v -2.44359 h 7.52625 7.52625 v 2.44359 2.44358 h -7.52625 -7.52625 z m 20.13516,0 v -2.44359 h 7.52624 7.52625 v 2.44359 2.44358 h -7.52625 -7.52624 z M 70.627457,139.92677 c -0.0717,-0.0717 -0.13033,-1.21528 -0.13033,-2.54133 v -2.41101 h 7.52625 7.52624 v 2.54133 2.54133 h -7.39592 c -4.06776,0 -7.45457,-0.0587 -7.52624,-0.13032 z m 20.13515,0 c -0.0717,-0.0717 -0.13033,-1.21528 -0.13033,-2.54133 v -2.41101 h 7.52625 7.526243 v 2.54133 2.54133 h -7.395923 c -4.06775,0 -7.45456,-0.0587 -7.52624,-0.13032 z m 30.170143,-2.41101 v -2.54133 h 7.52625 7.52624 v 2.54133 2.54133 h -7.52624 -7.52625 z m 20.26548,2.41101 c -0.0717,-0.0717 -0.13033,-1.21528 -0.13033,-2.54133 v -2.41101 h 7.52625 7.52625 v 2.54133 2.54133 h -7.39593 c -4.06775,0 -7.45456,-0.0587 -7.52624,-0.13032 z m 30.17014,-2.40996 v -2.54238 h 17.59967 17.59966 l -0.0547,2.49246 -0.0547,2.49246 -17.54495,0.0499 -17.54495,0.0499 z M 70.497127,127.44818 v -2.44358 h 17.59382 17.593823 v 2.44358 2.44359 H 88.090947 70.497127 Z m 50.435623,0 v -2.44358 h 7.52625 7.52624 v 2.44358 2.44359 h -7.52624 -7.52625 z m 20.13515,0 v -2.44358 h 7.52625 7.52625 v 2.44358 2.44359 h -7.52625 -7.52625 z m 30.30047,0 v -2.44358 h 7.52625 7.52625 v 2.44358 2.44359 h -7.52625 -7.52625 z m 20.13516,0 v -2.44358 h 7.52624 7.52625 v 2.44358 2.44359 h -7.52625 -7.52624 z M 70.497127,117.38061 v -2.54133 h 7.52625 7.52624 v 2.54133 2.54133 h -7.52624 -7.52625 z m 20.13515,0 v -2.54133 h 7.52625 7.526243 v 2.54133 2.54133 h -7.526243 -7.52625 z m 30.300473,0 v -2.54133 h 7.52625 7.52624 v 2.54133 2.54133 h -7.52624 -7.52625 z m 20.13515,0 v -2.54133 h 7.52625 7.52625 v 2.54133 2.54133 h -7.52625 -7.52625 z m 30.30047,0 v -2.54133 h 7.52625 7.52625 v 2.54133 2.54133 h -7.52625 -7.52625 z m 20.13516,0 v -2.54133 h 7.52624 7.52625 v 2.54133 2.54133 h -7.52625 -7.52624 z m -70.57078,-10.06758 v -2.44358 h 17.59382 17.59383 v 2.44358 2.44359 h -17.59383 -17.59382 z m 50.43562,0 v -2.44358 h 7.52625 7.52625 v 2.44358 2.44359 h -7.52625 -7.52625 z m 20.13516,0 v -2.44358 h 7.52624 7.52625 v 2.44358 2.44359 h -7.52625 -7.52624 z M 120.93275,97.245453 v -2.541329 h 7.52625 7.52624 v 2.541329 2.54133 h -7.52624 -7.52625 z m 20.13515,0 v -2.541329 h 7.52625 7.52625 v 2.541329 2.54133 h -7.52625 -7.52625 z m 30.30047,0 v -2.541329 h 7.52625 7.52625 v 2.541329 2.54133 h -7.52625 -7.52625 z m 20.13516,0.002 v -2.543652 h 7.53208 7.53209 l -0.0547,2.492462 -0.0547,2.49245 -7.47737,0.0512 -7.47737,0.0512 z M 120.93275,87.177878 v -2.443586 h 7.52625 7.52624 v 2.443586 2.443586 h -7.52624 -7.52625 z m 20.13515,0 v -2.443586 h 7.52625 7.52625 v 2.443586 2.443586 h -7.52625 -7.52625 z M 120.93275,77.112625 v -2.543653 h 7.53209 7.53209 l -0.0547,2.492458 -0.0547,2.492458 -7.47737,0.0512 -7.47738,0.05119 z m 20.26548,2.408682 c -0.0717,-0.07168 -0.13033,-1.215277 -0.13033,-2.54133 v -2.411005 h 7.52625 7.52625 v 2.54133 2.54133 h -7.39593 c -4.06775,0 -7.45456,-0.05865 -7.52624,-0.130325 z M 120.93275,67.042726 V 64.59914 h 7.52625 7.52624 v 2.443586 2.443586 h -7.52624 -7.52625 z m 20.13515,0 V 64.59914 h 7.52625 7.52625 v 2.443586 2.443586 h -7.52625 -7.52625 z M 110.76743,187.85364 v -2.44359 H 93.173607 75.579787 v 2.44359 2.44359 h 17.59382 17.593823 z m 50.43563,0 v -2.44359 h -22.67649 -22.67648 v 2.44359 2.44359 h 22.67648 22.67649 z m 40.2703,0 v -2.44359 h -17.59382 -17.59383 v 2.44359 2.44359 h 17.59383 17.59382 z m -90.70593,-10.06758 v -2.54133 h 2.54133 2.54133 v 2.54133 2.54133 h 22.67648 22.67649 v -2.54133 -2.54133 h 2.54132 2.54133 v 2.54133 2.54133 h 17.59383 17.59382 v -5.08266 -5.08266 H 138.52657 75.579787 v 5.08266 5.08266 h 17.59382 17.593823 z m -10.01286,-75.50682 0.0547,-2.492457 H 88.194527 75.579777 v 2.411007 c 0,1.32605 0.0593,2.4703 0.13176,2.54277 0.0725,0.0725 5.72448,0.10912 12.56003,0.0815 l 12.428283,-0.0503 z m 100.67576,-20.13515 0.0547,-2.492458 h -12.61475 -12.61474 v 2.411005 c 0,1.326053 0.0593,2.470297 0.13176,2.542765 0.0725,0.07247 5.72448,0.109122 12.56003,0.08145 l 12.42827,-0.05031 z m -50.39259,-30.2516 v -2.54133 h -12.51117 -12.51116 v 2.54133 2.54133 h 12.51116 12.51117 z"
       id="path1"
       inkscape:export-filename="buildings-vs2.svg"
       inkscape:export-xdpi="96"
       inkscape:export-ydpi="96" /></g></svg>
