<?xml version="1.0" encoding="UTF-8" standalone="no"?>
<!-- Created with Inkscape (http://www.inkscape.org/) -->

<svg
   width="3.1041665in"
   height="3.0104153in"
   viewBox="0 0 78.845829 76.464549"
   version="1.1"
   id="svg53678"
   xml:space="preserve"
   xmlns="http://www.w3.org/2000/svg"
   xmlns:svg="http://www.w3.org/2000/svg"><defs
     id="defs53675" /><g
     id="layer1"
     transform="translate(-96.200145,-78.660425)"><path
       style="fill:#000000"
       d="M 96.200141,116.89271 V 78.660416 h 2.11667 2.116669 v 7.80521 7.80521 h 14.68437 14.68437 v -1.7198 -1.71979 h 3.04271 3.04271 v 17.330214 17.33021 h -3.03008 -3.03009 l -0.0788,-1.65365 -0.0788,-1.65365 -14.61823,-0.0684 -14.61822,-0.0684 v 16.5387 16.5387 h -2.116609 -2.11667 z m 8.202089,32.97748 c 0,-3.60604 0.0197,-3.74102 0.54734,-3.74102 0.30103,0 1.81908,-0.42724 3.37343,-0.94942 4.28423,-1.43927 5.33473,-1.45504 9.37457,-0.14074 1.84298,0.59959 3.81476,1.09016 4.38175,1.09016 0.56698,0 2.46552,-0.47625 4.21898,-1.05834 2.03023,-0.67396 3.67323,-1.05833 4.52383,-1.05833 0.82648,0 2.60641,0.40349 4.66863,1.05833 1.8331,0.58209 3.7632,1.05834 4.28911,1.05834 0.52591,0 2.42008,-0.47625 4.20926,-1.05834 2.07695,-0.6757 3.74489,-1.05833 4.61345,-1.05833 0.88498,0 2.46278,0.36985 4.51489,1.05833 1.73498,0.58209 3.63326,1.05834 4.2184,1.05834 0.58514,0 2.52776,-0.47625 4.31694,-1.05834 2.04725,-0.66604 3.74875,-1.05833 4.59033,-1.05833 0.85044,0 2.50223,0.38529 4.53724,1.05833 1.75998,0.58209 3.43973,1.05834 3.73278,1.05834 0.50891,0 0.53281,0.16784 0.53281,3.74102 v 3.74102 l -1.25677,-0.15958 c -0.69122,-0.0878 -2.20927,-0.54663 -3.37344,-1.01968 -1.78229,-0.72422 -2.45104,-0.85957 -4.23333,-0.85681 -1.79449,0.003 -2.43884,0.13749 -4.23333,0.88501 -1.48309,0.61781 -2.67105,0.91682 -3.96875,0.99893 -1.89269,0.11975 -2.11656,0.0706 -6.17691,-1.35557 -2.65965,-0.9342 -3.84167,-0.87402 -7.43316,0.37846 -4.0137,1.39972 -5.15289,1.39937 -9.20846,-0.003 -1.85812,-0.64243 -3.53869,-1.05724 -4.27647,-1.05553 -0.7289,0.002 -2.42699,0.42532 -4.24215,1.05833 -3.70326,1.29146 -5.34419,1.36705 -8.08577,0.37248 -4.83943,-1.75561 -5.96333,-1.80097 -9.51338,-0.38394 -1.15777,0.46214 -2.67582,0.90785 -3.37343,0.99048 l -1.26839,0.15022 z m 48.04539,-9.05299 c -0.9278,-1.10263 -0.89755,-2.18909 0.0884,-3.17505 1.27163,-1.27164 2.92752,-0.94985 3.61817,0.7031 1.02766,2.45952 -2.01156,4.48639 -3.70659,2.47195 z m 8.80194,-2.233 c -2.24451,-1.21933 -0.77057,-4.88723 1.71339,-4.2638 1.05291,0.26427 1.76553,1.18454 1.75586,2.26751 -0.0172,1.92582 -1.75658,2.9267 -3.46925,1.99629 z m -9.39246,-5.42391 c -1.46046,-0.57257 -1.88989,-2.72225 -0.76794,-3.84419 0.93104,-0.93104 2.54862,-0.90766 3.30011,0.0477 1.45637,1.85147 -0.39877,4.63288 -2.53217,3.79648 z m 7.78355,-3.31856 c -1.47058,-0.79805 -1.68724,-2.37946 -0.49003,-3.57667 0.52784,-0.52784 1.03834,-0.77339 1.60785,-0.77339 0.56952,0 1.08001,0.24555 1.60786,0.77339 1.21698,1.21699 0.97651,2.80309 -0.54423,3.58949 -0.94617,0.48929 -1.25962,0.48744 -2.18145,-0.0128 z m -12.25627,-4.52099 c -1.07955,-1.16486 -0.86487,-3.00653 0.42843,-3.67532 1.06835,-0.55246 1.67896,-0.48268 2.60661,0.29789 1.05479,0.88755 1.10298,2.10605 0.12908,3.26347 -0.90807,1.07918 -2.2256,1.12663 -3.16412,0.11396 z m 9.00847,-2.68386 c -0.29104,-0.0597 -0.79706,-0.35545 -1.12448,-0.65733 -1.51164,-1.39372 -0.0538,-4.13519 2.02007,-3.79865 2.54814,0.4135 2.87121,3.70506 0.42732,4.35375 -0.43656,0.11588 -1.03187,0.16188 -1.32291,0.10223 z m -16.55681,-1.09361 c -1.60021,-1.60021 -0.56133,-3.9891 1.73477,-3.9891 1.82946,0 2.68038,2.67679 1.29221,4.06496 -0.94754,0.94753 -2.03073,0.92039 -3.02698,-0.0759 z m 9.30107,-5.73242 c -0.65643,-0.55235 -0.81405,-0.88767 -0.81405,-1.73181 0,-2.04631 2.17606,-3.07534 3.80077,-1.79734 0.56175,0.44187 0.69714,0.77132 0.69714,1.69627 0,0.957 -0.13538,1.26182 -0.81405,1.83288 -0.44772,0.37674 -1.09343,0.68498 -1.43491,0.68498 -0.34147,0 -0.98718,-0.30824 -1.4349,-0.68498 z m -8.96304,-2.49734 c -1.25816,-1.17215 -1.00758,-3.00872 0.5136,-3.76423 2.43568,-1.2097 4.42471,1.68901 2.54257,3.70541 -0.72427,0.77593 -2.25483,0.80539 -3.05617,0.0588 z"
       id="path4" /></g></svg>
