<?xml version="1.0" encoding="UTF-8" standalone="no"?>
<!-- Created with Inkscape (http://www.inkscape.org/) -->

<svg
   width="5.3716216in"
   height="5.3694444in"
   viewBox="0 0 136.43919 136.38389"
   version="1.1"
   id="svg53678"
   xml:space="preserve"
   xmlns="http://www.w3.org/2000/svg"
   xmlns:svg="http://www.w3.org/2000/svg"><defs
     id="defs53675" /><g
     id="layer1"
     transform="translate(-69.823916,-44.769105)"><path
       style="fill:#000000"
       d="m 70.53453,171.31059 v -9.84247 l 3.50961,-2.18169 c 1.93028,-1.19992 4.24868,-3.32233 5.152,-4.71645 0.90331,-1.39413 2.03056,-2.53873 2.505,-2.54357 0.47443,-0.005 2.1018,1.31969 3.61638,2.94339 2.45345,2.63023 3.17981,2.98752 6.66033,3.27615 4.65134,0.38573 7.70461,-0.91877 9.57957,-4.09284 1.59604,-2.70186 3.10815,-2.70642 5.09773,-0.0154 2.39161,3.23483 5.39018,4.48594 9.86267,4.11504 3.32995,-0.27614 4.21386,-0.69955 6.83922,-3.27615 1.65826,-1.62746 3.36586,-2.95902 3.79466,-2.95902 0.42881,0 1.31348,0.81472 1.96592,1.81048 1.79262,2.73588 5.32632,4.57945 8.78352,4.58245 3.58984,0.003 6.10379,-1.17195 8.98042,-4.19762 2.59331,-2.72769 3.28491,-2.73759 5.25332,-0.0752 2.39161,3.23483 5.39018,4.48594 9.86267,4.11504 3.32995,-0.27614 4.21385,-0.69955 6.83921,-3.27615 1.65826,-1.62746 3.25556,-2.95902 3.54955,-2.95902 0.294,0 1.7238,1.25018 3.17734,2.77817 4.60899,4.84506 11.31016,4.84506 15.91916,0 2.48515,-2.61244 4.83159,-3.62854 4.83159,-2.09227 0,1.31672 4.50602,5.80441 7.21658,7.18724 l 2.73211,1.39382 v 9.93425 9.93424 H 138.39881 70.53453 Z m -0.71062,-17.43021 c 0,-3.58936 0.1318,-3.8768 2.16357,-4.71838 1.18996,-0.4929 3.7495,-2.67556 5.68787,-4.85036 l 3.5243,-3.95417 3.01723,2.94631 c 5.84302,5.70567 11.33358,5.8392 16.61591,0.40408 l 3.13352,-3.22416 3.45566,3.23236 c 5.66687,5.3007 11.37312,5.15156 16.57637,-0.43325 l 2.65443,-2.84907 3.44485,3.22226 c 5.75491,5.38304 11.9601,5.13512 16.95246,-0.6773 l 2.25569,-2.62621 3.52579,3.29797 c 5.76627,5.39367 11.4057,5.24586 16.72378,-0.43833 l 2.7317,-2.91976 1.88734,2.20292 c 2.37785,2.77546 4.93389,4.39363 7.21699,4.56891 5.16721,0.3967 6.46073,-0.0249 9.87517,-3.21872 1.88028,-1.75879 3.61001,-3.1978 3.84383,-3.1978 0.23382,0 1.37588,1.38186 2.5379,3.07081 1.21301,1.76304 3.49728,3.80528 5.3638,4.79547 3.22932,1.71315 3.25102,1.74957 3.25102,5.45664 0,2.47617 -0.29364,3.73198 -0.87264,3.73198 -0.47995,0 -2.70772,-1.95865 -4.95061,-4.35255 -5.0421,-5.3816 -6.62552,-5.60051 -10.63444,-1.47018 -4.71229,4.85502 -8.0577,4.77871 -13.53559,-0.30875 -1.83975,-1.70862 -3.86029,-3.10659 -4.49009,-3.10659 -0.6298,0 -2.61037,1.42419 -4.40127,3.16486 -5.28237,5.13419 -8.59654,5.12585 -13.44659,-0.0339 -3.81246,-4.05588 -5.28042,-4.01685 -9.19297,0.24445 -2.92732,3.18826 -3.30204,3.37545 -6.75692,3.37545 -3.44308,0 -3.81634,-0.18417 -6.36086,-3.13858 -3.70383,-4.30046 -6.16726,-4.32817 -9.8005,-0.11021 -2.22716,2.58558 -3.10647,3.08445 -6.01403,3.41203 -3.29523,0.37125 -3.50366,0.28118 -6.43912,-2.78243 -1.66851,-1.74136 -3.57747,-3.37478 -4.24213,-3.62983 -1.2649,-0.48539 -4.74473,0.75362 -4.74473,1.68938 0,0.29805 -0.98393,1.52583 -2.18652,2.72842 -1.79852,1.79852 -2.75819,2.18653 -5.40798,2.18653 -2.87723,0 -3.55832,-0.3417 -6.37401,-3.1978 -4.37514,-4.43792 -5.82499,-4.29546 -10.84816,1.06594 -2.19711,2.34504 -4.38743,4.26372 -4.86738,4.26372 -0.58161,0 -0.87264,-1.27472 -0.87264,-3.8222 z m 87.02063,-10.29288 c -1.18925,-0.72523 -2.71557,-2.16304 -3.39183,-3.19514 -0.9538,-1.45569 -1.80588,-1.87654 -3.79933,-1.87654 h -2.56978 l 0.46342,-3.73076 c 2.00245,-16.12108 1.90583,-30.80154 -0.25138,-38.191166 -0.39858,-1.365368 -0.72469,-8.348676 -0.72469,-15.518466 V 68.039446 l 3.02014,0.450721 c 11.58447,1.728847 17.58216,4.513669 24.40987,11.333876 8.66465,8.655121 11.4121,16.210611 13.73117,37.760677 2.48179,23.06219 2.51219,23.96935 0.85373,25.47024 -0.79852,0.72265 -2.89476,1.47654 -4.65831,1.67532 -3.05103,0.3439 -3.36812,0.20204 -6.54151,-2.92652 -4.3636,-4.30196 -6.0867,-4.31694 -10.37405,-0.0901 -3.68897,3.63686 -6.44387,4.1446 -10.16745,1.87389 z m -23.16369,-43.38175 -1.67762,-1.357796 -0.20399,-24.963507 -0.20398,-24.963509 2.10353,-2.103526 c 2.72248,-2.722479 5.24797,-2.730839 7.95248,-0.02633 l 2.0772,2.077199 v 24.60338 24.603383 l -1.74425,1.74425 c -2.1478,2.147796 -5.91076,2.322926 -8.30337,0.386446 z M 69.82391,73.138715 V 50.398852 h 29.49076 29.49076 V 73.138715 95.878584 H 99.31467 69.82391 Z"
       id="path4" /></g></svg>
