<?xml version="1.0" encoding="UTF-8" standalone="no"?>
<!-- Created with Inkscape (http://www.inkscape.org/) -->

<svg
   width="3.4701519in"
   height="4.5389295in"
   viewBox="0 0 88.141858 115.28881"
   version="1.1"
   id="svg53678"
   xml:space="preserve"
   xmlns="http://www.w3.org/2000/svg"
   xmlns:svg="http://www.w3.org/2000/svg"><defs
     id="defs53675" /><g
     id="layer1"
     transform="translate(-88.531647,-57.531613)"><path
       style="fill:#000000;stroke-width:1.50515"
       d="m 89.141025,172.07554 c -0.24933,-0.40339 -0.21598,-1.35195 0.074,-2.10789 0.47234,-1.23091 5.02054,-1.37443 43.557105,-1.37443 38.53657,0 43.08476,0.14344 43.55711,1.37443 0.29008,0.75594 0.31641,1.71586 0.0585,2.13316 -0.60319,0.97597 -86.643455,0.95106 -87.246835,-0.0253 z m 9.9238,-35.8933 v -29.8181 h 33.707415 33.70741 v 29.8181 29.8181 H 132.77224 99.064825 Z m 41.708805,17.95009 c 4.44754,-1.76575 10.49724,-8.69942 11.87082,-13.60536 4.46771,-15.95709 -9.47675,-30.90767 -25.48604,-27.32495 -16.39717,3.66953 -22.61778,24.43374 -10.84642,36.2051 6.66599,6.66599 15.34867,8.34321 24.46164,4.72521 z m -15.7542,-2.01276 c -6.47927,-2.72312 -12.09882,-10.66888 -12.11747,-17.13349 -0.0221,-7.66542 4.95708,-15.30454 11.63885,-17.85632 5.79156,-2.21183 13.26105,-1.43802 17.95919,1.86048 10.85277,7.61955 10.64971,23.92968 -0.38888,31.23467 -2.79178,1.84752 -4.7247,2.38369 -9.24336,2.56397 -3.14239,0.12538 -6.67412,-0.1758 -7.84833,-0.66931 z m 11.20893,-17.44984 c 5.7e-4,-0.35652 -0.97562,-0.64822 -2.16932,-0.64822 h -2.17038 l 3.55618,-7.13042 c 1.95591,-3.92172 3.16624,-6.74148 2.68962,-6.26612 -1.6477,1.64338 -12.27656,15.91104 -12.27656,16.47947 0,0.31374 1.16679,0.39918 2.59287,0.18988 1.42608,-0.20931 2.59289,-0.24755 2.59289,-0.085 0,0.16254 -1.16681,2.36299 -2.59289,4.88987 -1.42608,2.52689 -2.59287,4.88929 -2.59287,5.2498 0,0.36053 2.33311,-2.19899 5.1847,-5.68778 2.85158,-3.4888 5.18517,-6.63496 5.18576,-6.99148 z M 89.730465,103.5984 c -2.77004,-2.77004 -1.22948,-3.28431 9.83853,-3.28431 8.314115,0 10.791885,-0.25446 10.519895,-1.08036 -0.19569,-0.594202 -1.20043,-1.204644 -2.23275,-1.356543 -2.5611,-0.376859 -2.37275,-2.437013 0.28376,-3.103763 1.38627,-0.34793 2.16073,-1.150067 2.16073,-2.237957 0,-1.08789 -0.77446,-1.890028 -2.16073,-2.237957 -2.6896,-0.675059 -2.8328,-2.732127 -0.21608,-3.103763 2.93951,-0.417483 3.1452,-3.939706 0.27219,-4.660792 -2.73488,-0.686407 -2.91438,-2.742587 -0.27219,-3.117835 2.93951,-0.417483 3.1452,-3.939718 0.27219,-4.660801 -2.73488,-0.68641 -2.91438,-2.742586 -0.27219,-3.117837 1.27641,-0.181279 1.94467,-0.870192 1.94467,-2.004771 0,-0.963622 -0.86058,-2.106144 -1.94467,-2.581754 -2.42324,-1.063136 -2.54603,-3.036148 -0.18894,-3.036148 0.96564,0 1.97959,-0.583398 2.25321,-1.296439 0.63186,-1.646606 4.29555,-1.696518 4.92083,-0.06704 0.25948,0.676171 1.34019,1.356801 2.40158,1.512513 2.43988,0.35794 3.24784,2.443843 0.94662,2.443843 -3.868,0 -4.71648,4.781736 -0.94662,5.33479 2.39272,0.351023 3.26077,2.443843 1.01365,2.443843 -4.00985,0 -4.94479,4.11613 -1.10918,4.883259 2.7824,0.556467 3.62021,2.895375 1.03715,2.895375 -3.95119,0 -4.82733,4.125215 -1.03715,4.883252 2.82241,0.564475 3.6034,2.895375 0.97013,2.895375 -2.47172,0 -4.04492,2.267247 -2.69871,3.889329 0.59178,0.713033 1.80619,1.296427 2.69871,1.296427 2.63327,0 1.85228,2.3309 -0.97013,2.895391 -1.42608,0.28521 -2.59287,0.917221 -2.59287,1.404467 0,0.543629 3.21316,0.885896 8.3166,0.885896 7.29454,0 8.18438,-0.15933 7.24066,-1.296425 -0.59177,-0.713048 -1.80619,-1.296443 -2.6987,-1.296443 -0.89252,0 -1.62276,-0.583395 -1.62276,-1.296443 0,-0.713033 0.73024,-1.296443 1.62276,-1.296443 2.47172,0 4.0449,-2.267232 2.6987,-3.889313 -0.59177,-0.713033 -1.80619,-1.296443 -2.6987,-1.296443 -0.89252,0 -1.62276,-0.583395 -1.62276,-1.296428 0,-0.713048 0.73024,-1.296443 1.62276,-1.296443 0.89251,0 2.10693,-0.583395 2.6987,-1.296443 1.3462,-1.622066 -0.22698,-3.889313 -2.6987,-3.889313 -0.89252,0 -1.62276,-0.583395 -1.62276,-1.296443 0,-0.713033 0.73024,-1.296443 1.62276,-1.296443 0.89251,0 2.14185,-0.625479 2.77632,-1.389958 0.98012,-1.180968 0.90622,-1.570837 -0.49151,-2.592878 -0.90479,-0.661602 -2.15413,-1.202912 -2.77632,-1.202912 -0.62219,0 -1.13125,-0.583398 -1.13125,-1.296438 0,-0.713042 0.73024,-1.29644 1.62276,-1.29644 0.89251,0 2.14185,-0.625485 2.77632,-1.389965 0.98012,-1.180971 0.90622,-1.570837 -0.49151,-2.592878 -0.90479,-0.661603 -2.15413,-1.202912 -2.77632,-1.202912 -0.62219,0 -1.13125,-0.583398 -1.13125,-1.29644 0,-0.713041 0.73024,-1.296438 1.62276,-1.296438 0.89251,0 2.10693,-0.583398 2.6987,-1.296439 0.59178,-0.713042 1.75857,-1.29644 2.59288,-1.29644 0.83431,0 2.00111,0.583398 2.59287,1.29644 0.59178,0.713041 1.80619,1.296439 2.69872,1.296439 0.8925,0 1.62275,0.583397 1.62275,1.296438 0,0.713042 -0.50907,1.29644 -1.13125,1.29644 -0.62218,0 -1.87153,0.541309 -2.77632,1.202912 -1.39774,1.022041 -1.47164,1.411907 -0.49152,2.592878 0.63447,0.76448 1.88381,1.389965 2.77634,1.389965 0.8925,0 1.62275,0.583398 1.62275,1.29644 0,0.71304 -0.50907,1.296438 -1.13125,1.296438 -0.62218,0 -1.87153,0.54131 -2.77632,1.202912 -1.39774,1.022041 -1.47164,1.41191 -0.49152,2.592878 0.63447,0.764479 1.88381,1.389958 2.77634,1.389958 0.8925,0 1.62275,0.58341 1.62275,1.296443 0,0.713048 -0.73025,1.296443 -1.62275,1.296443 -2.47173,0 -4.04492,2.267247 -2.69872,3.889313 0.59178,0.713048 1.80619,1.296443 2.69872,1.296443 0.8925,0 1.62275,0.583395 1.62275,1.296443 0,0.713033 -0.73025,1.296428 -1.62275,1.296428 -0.89253,0 -2.10694,0.58341 -2.69872,1.296443 -1.3462,1.622081 0.22699,3.889313 2.69872,3.889313 0.8925,0 1.62275,0.58341 1.62275,1.296443 0,0.713048 -0.73025,1.296443 -1.62275,1.296443 -0.89253,0 -2.10694,0.583395 -2.69872,1.296443 -0.94371,1.137095 -0.0539,1.296425 7.24066,1.296425 5.10344,0 8.31661,-0.342267 8.31661,-0.885896 0,-0.487246 -1.16679,-1.119257 -2.59287,-1.404467 -2.82242,-0.564491 -3.60339,-2.895391 -0.97012,-2.895391 2.47172,0 4.0449,-2.267232 2.69871,-3.889313 -0.59178,-0.713033 -1.80619,-1.296443 -2.69871,-1.296443 -2.63327,0 -1.8523,-2.3309 0.97012,-2.895375 3.79019,-0.758037 2.91403,-4.883252 -1.03715,-4.883252 -2.58306,0 -1.74525,-2.338908 1.03715,-2.895375 3.83561,-0.767129 2.90068,-4.883259 -1.10919,-4.883259 -2.24712,0 -1.37906,-2.09282 1.01366,-2.443843 3.76985,-0.553054 2.92137,-5.33479 -0.94662,-5.33479 -2.30123,0 -1.49325,-2.085903 0.94662,-2.443843 1.0614,-0.155712 2.14211,-0.836342 2.40158,-1.512513 0.62529,-1.629479 4.28898,-1.579567 4.92084,0.06704 0.27362,0.713041 1.28756,1.296439 2.2532,1.296439 2.35708,0 2.2343,1.973012 -0.18895,3.036148 -1.08407,0.47561 -1.94465,1.618132 -1.94465,2.581754 0,1.134579 0.66825,1.823492 1.94465,2.004771 2.64219,0.375251 2.4627,2.431427 -0.27218,3.117837 -2.87302,0.721083 -2.66733,4.243318 0.27218,4.660801 2.64219,0.375248 2.4627,2.431428 -0.27218,3.117835 -2.87302,0.721086 -2.66733,4.243309 0.27218,4.660792 2.61674,0.371636 2.47354,2.428704 -0.21607,3.103763 -1.38627,0.347929 -2.16074,1.150067 -2.16074,2.237957 0,1.08789 0.77447,1.890027 2.16074,2.237957 2.65651,0.66675 2.84487,2.726904 0.28377,3.103763 -1.03234,0.151899 -2.03707,0.762341 -2.23275,1.356543 -0.27141,0.82411 2.10915,1.08036 10.03672,1.08036 10.50428,0 12.51629,0.58898 10.46312,3.06289 -0.88832,1.07037 -7.33603,1.25857 -43.11617,1.25857 -31.57,0 -42.330535,-0.25888 -43.108805,-1.03715 z M 110.30063,59.865203 c 0,-1.290253 1.93356,-2.63283 3.13034,-2.173579 2.04667,0.78538 1.34285,2.865014 -0.96961,2.865014 -1.1884,0 -2.16073,-0.311146 -2.16073,-0.691435 z m 20.90755,-0.821077 c 0.16021,-0.831882 0.86403,-1.512512 1.56406,-1.512512 0.70002,0 1.40384,0.68063 1.56405,1.512512 0.20436,1.061221 -0.26229,1.512512 -1.56405,1.512512 -1.30175,0 -1.76842,-0.451291 -1.56406,-1.512512 z m 19.7142,0.308543 c 0,-1.618795 2.14618,-2.354183 3.35186,-1.148511 1.54515,1.54516 1.13638,2.35248 -1.19113,2.35248 -1.27069,0 -2.16073,-0.49593 -2.16073,-1.203969 z"
       id="path4" /></g></svg>
