<?xml version="1.0" encoding="UTF-8" standalone="no"?>
<!-- Created with Inkscape (http://www.inkscape.org/) -->

<svg
   width="4.0140529in"
   height="1.3257217in"
   viewBox="0 0 101.95694 33.673332"
   version="1.1"
   id="svg53678"
   xml:space="preserve"
   xmlns="http://www.w3.org/2000/svg"
   xmlns:svg="http://www.w3.org/2000/svg"><defs
     id="defs53675" /><g
     id="layer1"
     transform="translate(-91.325553,-96.979928)"><path
       style="fill:#000000"
       d="m 190.8859,130.30641 c 0.27169,-0.50767 0.96502,-1.17016 1.61792,-1.54595 0.2127,-0.12243 0.11635,0.15382 -0.21684,0.62175 -0.70689,0.99273 -1.83657,1.7379 -1.40108,0.9242 z m -1.76372,-0.93023 c -1.74665,-2.10905 -7.89839,-5.81769 -11.72868,-7.07076 -1.91081,-0.62511 -1.96933,-0.69488 -2.22975,-2.65803 l -0.17535,-1.32183 1.42258,0.41672 c 4.7345,1.38688 9.26954,3.6716 13.0794,6.58929 2.91011,2.22864 2.88424,2.16475 1.44533,3.56945 l -1.22038,1.19137 z m -96.712047,-6.49517 c -0.83022,-1.61745 -1.0954,-3.86615 -1.08424,-9.19427 0.009,-4.1134 0.11333,-5.69998 0.4703,-7.12541 0.25257,-1.00856 0.58958,-1.99083 0.74892,-2.18282 0.2376,-0.28629 7.687517,-0.34907 41.428317,-0.34907 39.07312,0 41.12941,0.0232 40.95521,0.46302 -0.74857,1.88975 -1.03333,4.45995 -1.03333,9.32657 0,4.86662 0.28476,7.43681 1.03333,9.32656 0.1742,0.43978 -1.88331,0.46302 -40.98081,0.46302 H 92.783603 Z m 83.701217,0.32781 c -0.35703,-0.43018 -0.077,-0.52002 0.49368,-0.1584 0.21806,0.13817 0.25579,0.29123 0.0961,0.38991 -0.14457,0.0893 -0.40999,-0.0148 -0.58981,-0.23151 z m -0.0421,-5.51017 c -1.58964,-0.50406 -1.47105,-0.70462 0.41667,-0.70462 1.5556,0 1.77202,0.0591 1.69504,0.46302 -0.108,0.56667 -0.82711,0.64895 -2.11171,0.2416 z m -1.27842,-3.87962 v -2.11667 h 8.6651 8.66511 v 2.11667 2.11667 h -8.66511 -8.6651 z m 18.34093,0 c 0,-0.94589 0.048,-1.33284 0.10672,-0.8599 0.0587,0.47295 0.0587,1.24685 0,1.71979 -0.0587,0.47295 -0.10672,0.086 -0.10672,-0.85989 z m -18.19541,-3.40361 c 0.36506,-0.33203 2.74776,-0.87155 3.04305,-0.68905 0.13806,0.0853 0.25101,0.32671 0.25101,0.5364 0,0.29402 -0.40562,0.38126 -1.77271,0.38126 -1.01339,0 -1.66504,-0.0979 -1.52135,-0.22861 z m 0.15037,-1.96251 c 0.079,-2.15051 0.19801,-2.29676 2.61452,-3.21416 4.53081,-1.72007 9.57859,-4.79949 11.42432,-6.969467 l 0.61423,-0.72213 1.24737,1.2587 1.24738,1.258697 -1.77654,1.47101 c -4.32105,3.57789 -8.05134,5.47516 -15.07186,7.66575 -0.22142,0.0691 -0.32038,-0.17826 -0.29942,-0.7484 z m 1.02461,-4.02368 c 0.17982,-0.21668 0.44524,-0.32086 0.58981,-0.23151 0.15966,0.0987 0.12193,0.25174 -0.0961,0.38991 -0.57071,0.36163 -0.85071,0.27179 -0.49368,-0.1584 z m 15.77913,-5.976557 c -0.38434,-0.30232 -0.82583,-0.78703 -0.98108,-1.07712 -0.27244,-0.50905 -0.2592,-0.51231 0.38016,-0.0934 0.58332,0.38221 1.67416,1.7202 1.40244,1.7202 -0.0565,0 -0.41717,-0.24736 -0.80152,-0.54969 z"
       id="path4" /></g></svg>
