<?xml version="1.0" encoding="UTF-8" standalone="no"?>
<!-- Created with Inkscape (http://www.inkscape.org/) -->

<svg
   width="4.7312083in"
   height="5.1281309in"
   viewBox="0 0 120.17269 130.25453"
   version="1.1"
   id="svg53678"
   xml:space="preserve"
   xmlns="http://www.w3.org/2000/svg"
   xmlns:svg="http://www.w3.org/2000/svg"><defs
     id="defs53675" /><g
     id="layer1"
     transform="translate(-81.640188,-50.032361)"><path
       style="fill:#000000;stroke-width:1.38466"
       d="m 82.101364,180.07686 c -0.330407,-0.13334 -0.457947,-1.40073 -0.457947,-4.55054 v -4.36575 h 60.082533 60.08251 v 4.35709 c 0,3.63513 -0.096,4.39393 -0.57949,4.57946 -0.6933,0.26603 -118.467721,0.24601 -119.127606,-0.0202 z m -0.368263,-46.1015 0.09346,-33.70484 4.304701,-0.10316 4.304687,-0.10329 v -3.835126 c 0,-4.815625 0.335156,-5.300545 3.663564,-5.300545 h 2.198141 v -2.747683 -2.74767 h -3.398869 c -4.061721,0 -5.027325,-0.458902 -5.027325,-2.389205 0,-1.710849 0.726404,-2.007078 4.921731,-2.007078 h 3.504467 v -4.213104 -4.213104 h -3.637394 c -4.030719,0 -4.788804,-0.343132 -4.788804,-2.167528 0,-1.80892 0.922084,-2.228754 4.895063,-2.228754 h 3.555131 L 96.218082,64.092759 96.11451,59.971244 92.471467,59.865525 c -2.00368,-0.05814 -3.866693,-0.291322 -4.140038,-0.518178 -0.2946,-0.244501 -0.452146,-0.943963 -0.386873,-1.717648 0.15065,-1.785754 1.165285,-2.225812 5.147513,-2.23252 l 3.205631,-0.0054 v -1.80182 c 0,-0.991003 0.104957,-2.075226 0.233134,-2.409385 0.347341,-0.905135 1.854731,-1.367542 2.813291,-0.862999 1.166465,0.61398 1.338025,1.016088 1.344245,3.15083 l 0.006,1.923374 3.20563,0.0054 c 3.90324,0.0065 4.99199,0.457249 5.154,2.133437 0.19468,2.014317 -0.29618,2.257445 -4.55774,2.257445 h -3.80189 v 4.213103 4.213103 h 3.6068 c 3.96136,0 4.81942,0.402694 4.81942,2.261797 0,1.709325 -0.97264,2.134485 -4.88308,2.134485 h -3.54314 v 4.213105 4.213103 h 3.63741 c 4.04771,0 4.78881,0.34101 4.78881,2.203536 0,1.711918 -1.1024,2.192753 -5.02734,2.192753 h -3.39888 v 2.74767 2.747683 h 2.19814 c 3.33012,0 3.66358,0.483522 3.66358,5.312163 v 3.846748 h 6.41125 6.41123 v -3.97314 c 0,-4.873185 0.21706,-5.185771 3.60083,-5.185771 h 2.26089 v -2.747683 -2.74767 h -3.6493 c -3.28233,0 -3.72442,-0.08059 -4.39628,-0.801799 -0.91581,-0.983008 -0.94683,-1.808418 -0.10579,-2.816132 0.56074,-0.671925 1.10043,-0.780359 4.30469,-0.864889 l 3.66356,-0.09665 0.10357,-4.121514 0.10358,-4.121515 h -3.67557 c -3.18709,0 -3.77295,-0.09737 -4.40829,-0.732713 -0.93283,-0.932838 -0.93283,-1.998017 0,-2.930855 0.63534,-0.635337 1.2212,-0.732714 4.40829,-0.732714 h 3.67557 l -0.10358,-4.121514 -0.10357,-4.121515 -3.66356,-0.09665 c -3.20426,-0.08453 -3.74395,-0.192965 -4.30469,-0.864891 -0.86592,-1.037601 -0.80749,-1.653089 0.25811,-2.718684 0.82914,-0.829139 1.17185,-0.899239 4.39629,-0.899239 h 3.49704 V 53.23849 c 0,-2.389905 0.46058,-3.067304 2.08554,-3.067304 1.43898,0 2.31074,1.280839 2.31074,3.395057 v 1.756868 l 3.6936,0.125921 c 3.96162,0.135059 4.7326,0.515822 4.7326,2.337302 0,1.571418 -1.04969,2.001722 -4.88307,2.001722 h -3.54313 v 4.213103 4.213103 h 3.39888 c 3.90154,0 5.02732,0.48417 5.02732,2.162135 0,1.813111 -0.92024,2.234147 -4.88307,2.234147 h -3.54313 v 4.213105 4.213103 h 3.60678 c 3.02894,0 3.70393,0.107339 4.21311,0.669972 0.81526,0.900846 0.76451,2.102687 -0.12642,2.993602 -0.62988,0.629866 -1.2212,0.732704 -4.21311,0.732704 h -3.48038 v 2.747684 2.747669 h 2.14135 c 3.04831,0 3.30108,0.378773 3.43191,5.142736 l 0.10524,3.833018 h 6.41124 6.41124 l 0.10523,-3.833018 c 0.13085,-4.763963 0.38359,-5.142736 3.4319,-5.142736 h 2.14137 v -2.747667 -2.747684 h -3.4804 c -2.99191,0 -3.58323,-0.10288 -4.2131,-0.732704 -0.91435,-0.914358 -0.942,-2.261538 -0.0627,-3.057258 0.52621,-0.476205 1.43031,-0.606316 4.21311,-0.606316 h 3.54314 v -4.213103 -4.213105 h -3.6068 c -3.02892,0 -3.70392,-0.107338 -4.2131,-0.669971 -0.81526,-0.900846 -0.76451,-2.10269 0.12642,-2.993597 0.62986,-0.629877 1.22118,-0.732714 4.21309,-0.732714 h 3.4804 v -4.213103 -4.213103 h -3.60679 c -3.02892,0 -3.70393,-0.107339 -4.21311,-0.669973 -0.74356,-0.821626 -0.77625,-1.888204 -0.0868,-2.831985 0.4425,-0.605726 1.06705,-0.729812 4.21311,-0.837066 l 3.69361,-0.125921 v -1.814107 c 0,-2.956082 1.97873,-4.357945 3.93833,-2.790175 0.27285,0.218298 0.45795,1.236673 0.45795,2.519661 v 2.153282 h 3.49703 c 3.22444,0 3.56715,0.07011 4.39629,0.899239 1.0656,1.065595 1.12403,1.681083 0.25812,2.718684 -0.56076,0.671926 -1.10044,0.78036 -4.3047,0.864891 l -3.66356,0.09665 -0.10357,4.121515 -0.10358,4.121514 h 3.67556 c 3.18709,0 3.77295,0.09738 4.40829,0.732714 0.90265,0.902662 0.93357,1.876286 0.0915,2.88521 -0.56076,0.671926 -1.10044,0.780359 -4.3047,0.864889 l -3.66356,0.09665 v 4.029926 4.029924 l 3.66356,0.09665 c 3.20426,0.08453 3.74394,0.192964 4.3047,0.864889 0.84198,1.008924 0.81106,1.982541 -0.0915,2.885212 -0.63502,0.635017 -1.2212,0.732718 -4.39629,0.732718 h -3.66356 v 2.74767 2.747683 h 2.32453 c 3.31653,0 3.53717,0.327443 3.53717,5.249424 v 3.909494 h 6.37884 6.37883 l 0.12406,-4.060117 c 0.1471,-4.815833 0.35101,-5.098801 3.67442,-5.098801 h 2.12812 v -2.747686 -2.74767 h -3.39887 c -3.92495,0 -5.02734,-0.480835 -5.02734,-2.192752 0,-1.862525 0.7411,-2.203535 4.78881,-2.203535 h 3.6374 v -4.213104 -4.213104 h -3.60679 c -3.96136,0 -4.81942,-0.402693 -4.81942,-2.261797 0,-1.709324 0.97265,-2.134486 4.88309,-2.134486 h 3.54312 v -4.213103 -4.213103 h -3.80189 c -4.26154,0 -4.75241,-0.243128 -4.55772,-2.257445 0.16201,-1.676188 1.25075,-2.126861 5.154,-2.133437 l 3.20561,-0.0054 v -1.988373 c 0,-1.71593 0.13335,-2.093289 0.97346,-2.754094 1.87578,-1.475485 3.42282,-0.211058 3.42282,2.797525 v 1.944942 h 3.39888 c 4.04089,0 5.02734,0.462523 5.02734,2.357234 0,0.669139 -0.21532,1.395308 -0.47847,1.613708 -0.26315,0.2184 -2.11785,0.444663 -4.12153,0.502804 l -3.64304,0.105719 -0.10357,4.121515 -0.10357,4.121514 h 3.61878 c 4.07621,0 4.83142,0.38904 4.83142,2.488866 0,1.599433 -0.79469,1.907416 -4.92173,1.907416 h -3.50448 v 4.213105 4.213103 h 3.50448 c 4.19532,0 4.92173,0.296229 4.92173,2.007078 0,1.930302 -0.96561,2.389204 -5.02733,2.389204 h -3.39888 v 2.747683 2.74767 h 2.19814 c 3.32841,0 3.66357,0.48492 3.66357,5.300545 v 3.835126 l 4.3047,0.10329 4.30469,0.10316 0.0935,33.61107 0.0935,33.61106 -60.08633,0.0937 -60.086355,0.0937 z m 75.472169,26.03816 c 2.11045,-0.75314 3.77574,-2.21188 4.72439,-4.13839 0.8596,-1.74569 0.86181,-1.78612 0.86181,-15.85489 0,-13.75296 -0.0197,-14.14128 -0.79075,-15.57016 -0.92529,-1.71473 -2.36041,-3.12383 -4.15508,-4.0797 -1.19036,-0.63401 -2.34544,-0.68294 -16.11969,-0.68294 -13.77427,0 -14.92935,0.0489 -16.11971,0.68294 -1.79466,0.95587 -3.22979,2.36497 -4.15506,4.0797 -0.77103,1.42888 -0.79076,1.8172 -0.79076,15.57016 0,14.06877 0.003,14.1092 0.86181,15.85489 0.94864,1.92651 2.61394,3.38525 4.72439,4.13839 1.98778,0.70937 28.97088,0.70937 30.95865,0 z m -30.79677,-3.88298 c -2.24273,-1.36734 -2.3053,-1.84328 -2.18909,-16.65005 l 0.10454,-13.32361 0.9159,-0.99221 c 1.79867,-1.94854 2.19743,-1.99684 16.48606,-1.99684 14.28861,0 14.68737,0.0483 16.48606,1.99684 l 0.91588,0.99221 0.10454,13.32361 c 0.11617,14.80677 0.0536,15.28271 -2.18909,16.65005 -1.16089,0.7078 -1.81524,0.73938 -15.31743,0.73938 -13.50221,0 -14.15656,-0.0316 -15.31745,-0.73938 z m 17.93507,-9.51588 c 0.73622,-1.71272 1.63427,-3.97264 1.99564,-5.02208 0.63272,-1.83738 0.63252,-1.93513 -0.006,-2.63969 -0.4901,-0.54155 -1.22246,-0.7597 -2.81877,-0.83963 l -2.15663,-0.108 1.32981,-2.80977 c 1.49713,-3.16334 1.48838,-4.53118 -0.0314,-4.91264 -0.48922,-0.12281 -1.08545,-0.10218 -1.32494,0.0458 -0.50756,0.31369 -4.73519,9.12496 -4.73519,9.86914 0,1.12484 1.11713,1.65414 3.49123,1.65414 h 2.33982 l -1.31418,3.13939 c -1.11844,2.67183 -1.25217,3.27543 -0.89792,4.05293 0.33921,0.74452 0.63576,0.89236 1.60266,0.79896 1.11106,-0.10731 1.27141,-0.31238 2.52501,-3.22864 z"
       id="path4" /></g></svg>
