<?xml version="1.0" encoding="UTF-8" standalone="no"?>
<!-- Created with Inkscape (http://www.inkscape.org/) -->

<svg
   width="4.5310907in"
   height="4.4677534in"
   viewBox="0 0 115.0897 113.48093"
   version="1.1"
   id="svg53678"
   xml:space="preserve"
   xmlns="http://www.w3.org/2000/svg"
   xmlns:svg="http://www.w3.org/2000/svg"><defs
     id="defs53675" /><g
     id="layer1"
     transform="translate(-77.809299,-58.686894)"><path
       style="fill:#000000"
       d="m 96.779125,171.27191 c -18.9589,-0.84593 -18.95067,-0.84514 -18.96983,-1.82481 -0.002,-0.11395 0.54812,-1.66176 1.22298,-3.43958 10.27977,-27.0803 30.996775,-55.35418 53.946965,-73.625021 3.70494,-2.94954 4.32493,-3.32976 4.91474,-3.01411 0.51496,0.2756 0.69162,1.42322 0.26014,1.68988 -0.51756,0.31988 -0.88995,3.82417 -0.75042,7.06174 0.2421,5.617491 1.54983,8.460681 5.88592,12.796771 4.43944,4.43943 7.50573,5.81569 12.96459,5.81894 2.69511,0.002 3.44282,-0.0947 4.94696,-0.63742 1.46801,-0.52964 1.84244,-0.58082 2.18281,-0.29833 0.78489,0.6514 0.41317,1.22394 -1.90425,2.93301 -9.34661,6.89301 -15.48608,13.15163 -24.60744,25.085 -8.48239,11.09742 -15.08374,20.8495 -17.892,26.43161 l -0.96503,1.91823 -1.38573,-0.036 c -0.76216,-0.0198 -9.69484,-0.40676 -19.850405,-0.8599 z m 2.84453,-11.96926 c 0.23674,-0.0909 1.356005,-2.08514 2.487255,-4.43177 6.08784,-12.62847 12.5054,-21.48069 24.32887,-33.55864 4.74467,-4.84679 5.10459,-5.28226 5.02708,-6.08219 -0.0908,-0.93723 -0.94008,-1.57296 -1.80067,-1.34791 -0.55472,0.14507 -7.66214,7.30434 -11.47804,11.5618 -6.2153,6.93449 -11.5791,14.36698 -15.66776,21.71049 -2.18552,3.92532 -5.135975,10.15376 -5.135975,10.84209 0,0.51575 0.93105,1.4713 1.43357,1.4713 0.20638,0 0.56893,-0.0743 0.80567,-0.16517 z M 154.3782,113.33108 c -0.12188,-0.31762 0.6387,-1.31214 2.71078,-3.54456 1.58411,-1.70669 4.18178,-4.50865 5.7726,-6.22656 3.06849,-3.31366 5.35528,-5.176381 7.94471,-6.471431 2.01708,-1.0088 5.55122,-2.12718 7.41369,-2.34608 1.41189,-0.16594 1.46093,-0.14872 2.48027,0.87061 1.39316,1.39317 2.01229,3.41534 2.01229,6.572471 0,1.88899 -0.10614,2.55669 -0.51344,3.22993 -0.58071,0.95987 -0.84084,1.08019 -4.51364,2.08781 -3.33168,0.91403 -5.55858,1.8276 -9.35053,3.83599 l -3.00052,1.58921 -1.7676,-0.17417 c -1.29787,-0.12789 -2.15282,-0.0581 -3.21718,0.26263 -0.79728,0.24024 -2.42889,0.50854 -3.6258,0.59622 -1.88048,0.13776 -2.19924,0.0994 -2.34563,-0.28207 z m -6.09741,-2.13401 c -1.73188,-1.16632 -3.66157,-3.05476 -5.0573,-4.9492 -1.8854,-2.55909 -1.90908,-2.46871 1.57403,-6.00726 3.43339,-3.488041 10.56671,-11.177541 16.87666,-18.192531 4.3196,-4.80226 4.94128,-5.28767 6.3417,-4.95164 2.25294,0.5406 5.54613,3.13811 6.56498,5.17816 0.65232,1.30615 0.7721,2.88056 0.26033,3.42198 -0.1819,0.19244 -1.75948,1.95434 -3.50573,3.91533 -1.74625,1.96099 -6.09203,6.72558 -9.65729,10.587971 -3.56526,3.86239 -7.48125,8.12165 -8.7022,9.46503 -1.469,1.6163 -2.40991,2.44249 -2.78165,2.44249 -0.30897,0 -1.17005,-0.40965 -1.91353,-0.91033 z m 37.65608,-10.92977 c -0.0628,-0.10914 -0.19471,-0.754111 -0.29312,-1.433281 -0.20638,-1.42426 -0.37075,-1.31423 2.88963,-1.93435 3.55126,-0.67545 4.36562,-0.50157 4.36562,0.93215 0,1.09923 -0.74248,1.51793 -3.71521,2.09509 -3.15428,0.612401 -3.09402,0.606091 -3.24692,0.340391 z m -45.28985,-4.233331 c 0.10967,-1.85539 0.22596,-4.68313 0.25843,-6.28386 0.0558,-2.7496 0.11377,-3.02737 1.04973,-5.02708 1.4217,-3.0375 2.40884,-6.22561 3.1727,-10.2467 0.59635,-3.13926 0.75019,-3.58706 1.45083,-4.22291 2.55438,-2.31817 9.37301,-1.1958 10.79021,1.7761 0.41065,0.86115 0.40196,1.10795 -0.15237,4.32274 -0.73895,4.28545 -1.66346,7.32111 -2.63636,8.65657 -1.86179,2.55561 -13.18313,14.39858 -13.76439,14.39858 -0.3057,0 -0.33434,-0.57252 -0.16878,-3.37344 z m 33.02112,-19.47303 -0.96684,-0.88604 1.6159,-2.22281 c 2.0682,-2.84498 2.60882,-3.41343 3.24627,-3.41343 0.6647,0 1.5772,0.90753 1.5772,1.56862 0,0.57553 -3.81852,5.83971 -4.23599,5.83971 -0.14834,0 -0.70478,-0.39872 -1.23654,-0.88605 z m -22.1267,-10.68213 -0.74402,-0.1118 0.17878,-2.82512 c 0.0983,-1.55381 0.31491,-3.122767 0.48128,-3.486569 0.38281,-0.837091 1.73494,-1.039619 2.41311,-0.361447 0.40702,0.407021 0.43888,0.800312 0.27262,3.365466 -0.10354,1.59753 -0.2492,3.06343 -0.3237,3.25758 -0.13206,0.34414 -0.76567,0.38917 -2.27807,0.16189 z"
       id="path4" /></g></svg>
