<?xml version="1.0" encoding="UTF-8" standalone="no"?>
<!-- Created with Inkscape (http://www.inkscape.org/) -->

<svg
   width="9.5913057in"
   height="4.4487767in"
   viewBox="0 0 243.61917 112.99893"
   version="1.1"
   id="svg53678"
   xml:space="preserve"
   xmlns="http://www.w3.org/2000/svg"
   xmlns:svg="http://www.w3.org/2000/svg"><defs
     id="defs53675" /><g
     id="layer1"
     transform="translate(-15.778797,-62.192587)"><path
       style="fill:#000000"
       d="m 49.186581,175.02162 c -2.51277,-0.38815 -5.89874,-1.52495 -8.26644,-2.77535 -5.93111,-3.13226 -10.47964,-8.46061 -12.5073,-14.65158 l -0.86012,-2.62616 -2.26819,-0.56888 c -3.23405,-0.81112 -4.63983,-1.48879 -5.88046,-2.83472 -3.45391,-3.74704 -4.60276,-12.9448 -2.73687,-21.91145 1.01861,-4.89497 3.73205,-11.32628 6.59244,-15.62519 2.86072,-4.29939 6.93538,-7.70134 11.18739,-9.34039 5.69765,-2.1963 10.55602,-3.27461 22.28018,-4.945049 4.5839,-0.6531 8.87015,-1.367138 9.525,-1.586728 1.59202,-0.53387 2.45626,-1.34717 4.76699,-4.48598 3.42179,-4.64803 6.18146,-7.85092 9.69659,-11.253894 5.51777,-5.341709 10.24686,-8.66005 17.154131,-12.036819 8.332018,-4.073293 17.323368,-6.59069 28.045828,-7.852273 3.89446,-0.458213 31.593,-0.441073 36.5125,0.02259 10.18892,0.960315 17.35072,2.795173 22.48959,5.761848 7.36838,4.253776 11.97675,9.899245 19.18818,23.506458 1.65555,3.12385 2.2752,4.01585 3.95517,5.69366 1.09564,1.09422 3.17916,2.820627 4.63004,3.836457 5.26109,3.68352 7.68432,6.60161 9.6437,11.61307 3.21101,8.21272 4.73794,17.81105 4.44431,27.93703 -0.15049,5.1893 -0.40654,6.48099 -1.69148,8.53282 l -0.62135,0.99218 6.15488,-4.1e-4 c 6.99882,-4.6e-4 7.35439,-0.0825 8.83616,-2.0398 1.59312,-2.10434 1.68435,-3.12388 1.68435,-18.82387 v -14.01275 l -2.79988,-0.0902 c -3.47278,-0.11191 -3.55012,-0.18444 -3.55012,-3.32894 0,-3.39509 -0.73135,-4.30192 -3.46943,-4.30192 -2.45982,0 -2.3514,0.30498 -2.3514,-6.61459 0,-5.727277 0.0286,-6.082127 0.51177,-6.340687 0.33317,-0.17831 5.12038,-0.27389 13.71733,-0.27389 12.4573,0 13.23036,0.0274 13.64343,0.48385 0.3789,0.41867 0.43788,1.25074 0.43788,6.176697 0,6.66329 0.0358,6.56862 -2.48137,6.56862 -2.91496,0 -3.59974,0.91498 -3.60257,4.81365 -0.002,2.73949 -0.17632,2.85927 -4.16139,2.85927 h -2.98383 l -0.004,14.48594 c -0.004,15.43953 -0.0728,16.40873 -1.33668,18.8862 -0.84102,1.64853 -2.49236,3.27812 -4.0233,3.97029 -1.34109,0.60634 -1.65152,0.62964 -10.24653,0.76903 l -8.86354,0.14374 -2.45514,0.93178 c -1.35032,0.51248 -2.61159,1.10263 -2.80282,1.31146 -0.19123,0.20883 -0.61974,1.1536 -0.95224,2.09948 -2.33131,6.63199 -7.74241,12.39144 -14.14692,15.05764 -3.79076,1.5781 -5.96946,1.99399 -10.33455,1.97278 -3.39189,-0.0165 -4.34462,-0.11911 -6.55471,-0.706 -8.33979,-2.21464 -15.21317,-8.50227 -17.88407,-16.36 l -0.48254,-1.41963 -42.98315,-0.0669 -42.983139,-0.0669 -0.48995,1.38985 c -1.31297,3.72461 -3.35527,6.90333 -6.33824,9.86511 -3.31876,3.29518 -7.33035,5.55434 -11.98605,6.75002 -2.39341,0.61468 -7.59977,0.88001 -9.99816,0.50953 z m 7.92651,-12.03889 c 4.55375,-1.1861 8.42242,-4.7994 9.97228,-9.31402 0.87213,-2.5404 0.87213,-6.5963 0,-9.13671 -1.50773,-4.39189 -5.0558,-7.81833 -9.52614,-9.19959 -2.12735,-0.65731 -5.94334,-0.70167 -7.9939,-0.0929 -6.26934,1.86117 -10.56521,7.49706 -10.56521,13.86088 0,6.31779 4.52586,12.23226 10.61306,13.86931 1.89353,0.50924 5.57038,0.51564 7.49991,0.0131 z m 135.995839,0 c 3.47353,-0.90474 7.06456,-3.66118 8.82972,-6.77761 1.02841,-1.81567 1.8969,-5.06856 1.8969,-7.10476 0,-1.9238 -0.84224,-5.2199 -1.76885,-6.92238 -1.01358,-1.86229 -3.36991,-4.2846 -5.24261,-5.38944 -5.78665,-3.41392 -12.87752,-2.51752 -17.61713,2.2271 -3.53744,3.54117 -5.00631,8.71043 -3.8084,13.40257 1.26571,4.95772 4.74097,8.6956 9.63627,10.36447 2.11256,0.7202 5.73274,0.8099 8.0741,0.20005 z m -66.22619,-18.77716 c 0.25944,-1.16417 0.47542,-2.2655 0.47996,-2.4474 0.006,-0.25787 -1.85706,-0.33073 -8.45841,-0.33073 -6.59578,0 -8.46714,-0.0731 -8.46883,-0.33073 -0.001,-0.1819 0.3775,-1.96784 0.84154,-3.96875 l 0.8437,-3.63802 h 7.62009 7.62009 l 0.13714,-0.59531 c 0.68569,-2.97642 0.92403,-4.06338 0.92736,-4.22934 0.002,-0.10694 -3.42511,-0.226 -7.61614,-0.26458 l -7.62005,-0.0701 0.67705,-3.175 0.67706,-3.175 7.93518,-0.1323 7.93519,-0.13229 0.43769,-1.98437 c 0.24073,-1.09141 0.44909,-2.19274 0.46302,-2.4474 0.0237,-0.43391 -0.66201,-0.46302 -10.90726,-0.46302 h -10.9326 l -2.97856,14.35365 c -1.63821,7.8945 -3.03728,14.56326 -3.10904,14.81946 -0.12334,0.44034 0.50273,0.46204 11.44682,0.39687 l 11.57729,-0.0689 z m 26.84208,-12.43542 c 4.41724,-8.00365 8.03373,-14.64528 8.03666,-14.75919 0.003,-0.1139 -1.33037,-0.17344 -2.96287,-0.13229 l -2.96819,0.0748 -6.09017,11.11249 c -3.98366,7.26883 -6.12546,10.92946 -6.1922,10.58333 -0.0561,-0.29103 -0.8956,-5.29165 -1.8655,-11.11248 l -1.76346,-10.58334 -2.75045,-0.0759 c -1.51275,-0.0418 -2.89131,-0.0219 -3.06347,0.0442 -0.23496,0.0902 -0.19848,0.73591 0.14631,2.58948 0.25263,1.35814 1.44802,7.9794 2.65642,14.7139 l 2.19709,12.24453 3.29425,-0.0737 3.29425,-0.0737 z M 36.278981,130.24879 c 2.50814,-2.73415 4.42055,-12.41623 2.67048,-13.51998 -1.30177,-0.82101 -3.55881,3.78281 -4.3258,8.82363 -0.63567,4.1778 0.1323,6.35663 1.65532,4.69635 z m 93.921499,-26.76621 0.74236,-0.63859 V 88.378383 73.912781 l -0.78347,-0.673865 c -0.73896,-0.63559 -0.90427,-0.665256 -2.91041,-0.522303 -8.00689,0.570553 -16.39724,2.759842 -23.04641,6.013487 -9.137798,4.471409 -15.663469,10.558313 -19.716709,18.391013 -1.06879,2.065368 -1.34578,3.809667 -0.77448,4.877147 0.35544,0.66414 1.81469,1.53268 3.06968,1.82706 0.57616,0.13514 10.262011,0.25448 21.855899,0.26928 l 20.82118,0.0266 z m 47.6037,0.24756 c 4.18692,-1.24338 6.76253,-5.316827 6.36087,-10.059997 -0.41167,-4.86132 -4.01783,-11.50147 -8.05455,-14.831149 -5.03318,-4.1516 -12.05262,-5.898756 -25.59742,-6.371263 -4.51259,-0.157421 -5.13942,-0.126611 -6.03093,0.296438 -1.81595,0.861727 -1.76535,0.406483 -1.76535,15.883144 0,9.34427 0.0927,14.094317 0.28188,14.447847 0.15503,0.28969 0.54198,0.6315 0.85989,0.75959 0.31791,0.12809 7.78945,0.24043 16.60343,0.24966 13.40375,0.014 16.24083,-0.0472 17.34218,-0.37427 z m 49.22333,-11.999057 c -0.32177,-0.35555 -0.43788,-0.987 -0.43788,-2.38125 0,-3.23013 -1.5174,-2.95573 16.34529,-2.95573 13.40768,0 15.35925,0.0506 15.875,0.41187 0.5268,0.36899 0.58804,0.63903 0.58804,2.59292 0,1.34359 -0.12191,2.30295 -0.3175,2.49854 -0.23979,0.23979 -4.14779,0.3175 -15.96628,0.3175 -14.82427,0 -15.67186,-0.0255 -16.08667,-0.48385 z m 5.17158,-14.619528 0.0791,-6.63671 0.86407,-0.771623 c 1.18091,-1.054565 2.46621,-1.053917 3.52191,0.0018 l 0.77339,0.773398 v 6.634936 6.634937 h -2.65876 -2.65877 z m 16.88012,0.0018 v -6.634936 l 0.7734,-0.773398 c 1.05569,-1.055691 2.34099,-1.056339 3.5219,-0.0018 l 0.86408,0.771623 0.0791,6.63671 0.0791,6.636709 h -2.65876 -2.65877 z"
       id="path2" /></g></svg>
