<?xml version="1.0" encoding="UTF-8" standalone="no"?>
<!-- Created with Inkscape (http://www.inkscape.org/) -->

<svg
   width="4.4158792in"
   height="5.2165627in"
   viewBox="0 0 112.16333 132.50069"
   version="1.1"
   id="svg53678"
   inkscape:version="1.2.2 (732a01da63, 2022-12-09)"
   sodipodi:docname="Changing-Objects-To-Paths.svg"
   xml:space="preserve"
   xmlns:inkscape="http://www.inkscape.org/namespaces/inkscape"
   xmlns:sodipodi="http://sodipodi.sourceforge.net/DTD/sodipodi-0.dtd"
   xmlns="http://www.w3.org/2000/svg"
   xmlns:svg="http://www.w3.org/2000/svg"><sodipodi:namedview
     id="namedview53680"
     pagecolor="#ffffff"
     bordercolor="#ffffff"
     borderopacity="1"
     inkscape:showpageshadow="0"
     inkscape:pageopacity="0"
     inkscape:pagecheckerboard="false"
     inkscape:deskcolor="#505050"
     inkscape:document-units="mm"
     showgrid="false"
     inkscape:zoom="0.73851712"
     inkscape:cx="526.05416"
     inkscape:cy="453.61169"
     inkscape:window-width="1920"
     inkscape:window-height="1009"
     inkscape:window-x="-8"
     inkscape:window-y="-8"
     inkscape:window-maximized="1"
     inkscape:current-layer="layer1"><inkscape:page
       x="-5.8535086e-14"
       y="2.5085536e-14"
       width="112.16332"
       height="132.50069"
       id="page2"
       margin="0"
       bleed="0" /></sodipodi:namedview><defs
     id="defs53675" /><g
     inkscape:label="Layer 1"
     inkscape:groupmode="layer"
     id="layer1"
     transform="translate(-78.614909,-42.471963)"><path
       style="fill:#000000"
       d="m 90.75326,174.56021 c -3.1919,-1.05713 -5.38223,-3.38594 -6.19923,-6.59117 -0.3682,-1.44449 -0.40869,-3.67417 -0.32188,-17.72708 0.11176,-18.0926 0.0907,-17.87159 2.25587,-23.61538 0.576,-1.52797 0.9958,-2.86742 0.93289,-2.97656 -0.0629,-0.10915 -0.91101,-0.20106 -1.88469,-0.20425 -4.07134,-0.0134 -6.92932,-2.79692 -6.9213,-6.74107 0.005,-2.63435 1.29316,-4.81843 3.56348,-6.0435 0.93782,-0.50606 1.59647,-0.58614 5.78459,-0.70337 l 4.72627,-0.13229 2.97794,-8.08864 c 1.63786,-4.44876 3.19708,-8.55641 3.46492,-9.12813 0.61759,-1.31829 3.12244,-3.85409 4.48948,-4.54496 2.16525,-1.09426 9.50636,-2.38377 17.18596,-3.01882 5.17778,-0.42816 22.63011,-0.42667 27.78125,0.002 7.88256,0.65656 14.98205,1.90265 17.18596,3.01644 1.36704,0.69087 3.87189,3.22667 4.48948,4.54496 0.26784,0.57172 1.82706,4.67938 3.46492,9.12813 l 2.97794,8.08864 4.72627,0.13229 c 4.18812,0.11723 4.84677,0.19731 5.78459,0.70337 2.273,1.22652 3.56026,3.41162 3.56026,6.0435 0,3.94139 -2.85718,6.73831 -6.8896,6.74429 -0.95801,0.001 -1.81191,0.0727 -1.89755,0.1583 -0.0856,0.0857 0.14319,0.94885 0.50852,1.91823 2.65508,7.04506 2.734,7.79606 2.734,26.0164 0,16.70014 -0.0217,16.93608 -1.79246,19.51487 -1.24116,1.80749 -2.95479,2.98865 -5.2291,3.60428 -3.03785,0.82231 -6.26204,-0.0531 -8.5609,-2.32445 -2.10422,-2.07901 -2.9321,-4.61623 -2.93637,-8.99911 l -0.002,-2.05052 H 134.69819 102.6836 l -0.002,2.05052 c -0.005,4.62156 -0.86479,7.05005 -3.27914,9.25663 -2.37493,2.17056 -5.72944,2.93308 -8.6492,1.96607 z m 12.32914,-31.09325 c 1.46985,-0.68447 2.89881,-2.14975 3.50297,-3.59197 0.51103,-1.21993 0.49489,-3.85285 -0.0311,-5.08053 -1.46483,-3.41867 -5.51276,-5.10091 -8.83508,-3.67168 -1.80798,0.77777 -3.35034,2.46978 -3.88137,4.25794 -0.51636,1.73877 -0.51668,2.18313 -0.003,3.9136 1.14061,3.84087 5.61975,5.86195 9.24741,4.17264 z m 68.78974,-4.1e-4 c 0.72761,-0.33954 1.76268,-1.10519 2.30017,-1.70144 0.93629,-1.03863 1.80087,-3.16205 1.80087,-4.42291 0,-2.20631 -1.71761,-4.91977 -3.81841,-6.0323 -1.52133,-0.80565 -4.60347,-0.80385 -6.12851,0.004 -1.29085,0.68343 -2.59457,2.10378 -3.17488,3.45888 -0.5341,1.24721 -0.55489,3.87439 -0.0404,5.10263 1.46916,3.50714 5.67214,5.17308 9.06114,3.59156 z m -4.12093,-27.09258 c -0.0109,-0.25466 -1.52898,-4.92786 -3.37344,-10.38489 l -3.35354,-9.92188 h -26.32604 -26.32605 l -3.35354,9.92188 c -1.84446,5.45703 -3.3625,10.13023 -3.37344,10.38489 -0.0188,0.43861 1.72382,0.46302 33.05303,0.46302 31.3292,0 33.07186,-0.0244 33.05302,-0.46302 z M 129.40652,70.690093 c 0,-5.178579 -0.0569,-9.415597 -0.12645,-9.415597 -0.0695,0 -5.39759,1.917035 -11.8401,4.260079 -16.88612,6.141226 -17.56167,6.37961 -17.26991,6.094134 0.14552,-0.142388 9.13474,-6.760905 19.97604,-14.707816 l 19.71146,-14.448929 0.0695,9.268974 c 0.0598,7.972255 0.12427,9.268974 0.46079,9.268974 0.2152,0 6.78058,-2.323097 14.58973,-5.162439 7.80916,-2.839342 14.22933,-5.131295 14.26706,-5.093229 0.0377,0.03807 -8.40442,6.283697 -18.76031,13.87918 -10.35588,7.595483 -19.3349,14.183986 -19.95336,14.641118 l -1.12448,0.831148 z"
       id="path2" /></g></svg>
