<?xml version="1.0" encoding="UTF-8" standalone="no"?>
<!-- Created with Inkscape (http://www.inkscape.org/) -->

<svg
   width="7.9758191in"
   height="4.6060119in"
   viewBox="0 0 202.58581 116.9927"
   version="1.1"
   id="svg53678"
   xml:space="preserve"
   xmlns="http://www.w3.org/2000/svg"
   xmlns:svg="http://www.w3.org/2000/svg"><defs
     id="defs53675" /><g
     id="layer1"
     transform="translate(-36.696461,-56.460128)"><path
       style="fill:#000000"
       d="m 40.153506,173.20002 c -0.30733,-0.12778 -0.81334,-0.55596 -1.12448,-0.95151 -0.56334,-0.71617 -0.5657,-0.7842 -0.56345,-16.22777 0.003,-18.49449 0.29433,-22.74415 1.89579,-27.6251 0.6498,-1.98045 0.95107,-2.59177 2.66975,-5.41732 0.73198,-1.20339 1.28359,-2.235 1.22581,-2.29246 -0.0578,-0.0575 -1.43688,-0.53488 -3.06464,-1.06092 -2.27866,-0.73639 -3.10996,-1.13516 -3.61322,-1.73325 -1.20925,-1.43711 -1.17208,-3.78454 0.0879,-5.55407 1.05795,-1.48574 1.5555,-1.5911 7.51422,-1.5911 h 5.42126 l 4.26607,-6.86464 c 4.81725,-7.751555 6.16302,-9.294511 9.57785,-10.981215 3.92976,-1.941047 2.43033,-1.832348 26.62547,-1.930171 18.235414,-0.07373 22.150814,-0.02488 24.032504,0.299845 3.91012,0.674765 8.06279,3.086169 10.17261,5.907099 0.52075,0.696278 2.65577,4.027902 4.74449,7.403612 l 3.79766,6.13765 5.7472,0.0801 c 5.71192,0.0796 5.7516,0.0841 6.46429,0.74151 1.55273,1.43227 2.11927,3.94311 1.28594,5.69921 -0.56117,1.1826 -1.08137,1.48079 -4.34283,2.48951 -1.52796,0.47257 -2.8113,0.8906 -2.85185,0.92895 -0.0405,0.0384 0.68929,1.32803 1.62187,2.86597 0.99173,1.63549 1.95591,3.63786 2.32268,4.82369 l 0.6271,2.02743 5.55625,-0.12835 c 5.85391,-0.13523 7.49704,-0.38192 8.91896,-1.33907 1.53689,-1.03455 1.65094,-1.59652 1.13222,-5.57928 -0.36818,-2.8269 -0.39787,-3.77186 -0.15422,-4.90799 1.13713,-5.30223 5.83301,-8.23573 13.84939,-8.65164 l 3.10886,-0.1613 0.006,-0.68721 c 0.008,-0.97647 0.8547,-2.68095 1.74676,-3.51745 0.83569,-0.78363 2.43016,-1.53538 3.25656,-1.53538 0.52256,0 0.52904,-0.21443 0.60594,-20.042191 0.0636,-16.389492 0.14501,-20.210958 0.44688,-20.968229 1.18484,-2.972332 3.62599,-5.206477 6.4952,-5.94442 2.31674,-0.595852 35.77283,-0.606487 38.05485,-0.0121 2.6039,0.678229 4.66959,2.32826 5.96647,4.765893 l 0.70382,1.322916 0.0689,48.750781 0.0689,48.75078 -25.8658,-0.0674 -25.86579,-0.0675 -0.0678,-20.01922 -0.0678,-20.01921 -1.04677,-0.17685 c -2.11663,-0.3576 -4.14758,-2.49705 -4.44,-4.67717 l -0.14607,-1.08904 -2.80432,0.16843 c -4.40883,0.26479 -6.94649,1.15819 -8.4415,2.9719 -1.02964,1.24914 -1.12592,2.04319 -0.65506,5.40261 0.42454,3.02893 0.32315,5.16121 -0.31844,6.69673 -0.93445,2.23646 -3.29045,3.94862 -6.61848,4.80982 -1.86806,0.48339 -6.65027,0.91877 -10.15681,0.92468 l -2.48389,0.004 0.20285,2.05052 c 0.28945,2.926 0.36278,33.09746 0.083,34.14133 -0.14657,0.54681 -0.54883,1.06242 -1.08291,1.38807 -0.78263,0.47719 -1.36156,0.5181 -7.33202,0.5181 -6.01305,0 -6.54501,-0.0382 -7.34878,-0.5283 -0.47657,-0.29056 -0.98258,-0.83365 -1.12448,-1.20686 -0.14189,-0.37321 -0.25799,-2.27815 -0.25799,-4.23321 v -3.55465 H 92.173736 55.661226 v 3.83228 3.83229 l -0.77163,0.86407 -0.77163,0.86407 -6.70285,0.0559 c -3.68656,0.0308 -6.95429,-0.0486 -7.26161,-0.1764 z m 66.513434,-16.29871 c 0.53453,-0.3744 0.58804,-0.63134 0.58804,-2.82344 0,-1.87268 -0.0978,-2.51968 -0.43788,-2.89541 -0.41379,-0.45723 -1.21449,-0.48386 -14.552084,-0.48386 -16.65489,0 -15.17253,-0.32312 -15.17253,3.3073 0,3.62868 -1.45985,3.30729 15.02237,3.30729 12.210334,0 14.037904,-0.0517 14.552084,-0.41188 z m 104.3981,-21.20267 c 4.45978,-4.68472 8.1087,-8.58401 8.1087,-8.6651 0,-0.0811 -1.72641,-0.14744 -3.83646,-0.14744 -2.11005,0 -3.83646,-0.0394 -3.83646,-0.0875 0,-0.0481 1.36843,-3.75969 3.04096,-8.24792 1.67253,-4.48823 3.00013,-8.20126 2.95022,-8.25117 -0.1035,-0.10351 -19.0412,19.70714 -19.17625,20.0602 -0.0485,0.12681 1.66087,0.23056 3.79862,0.23056 3.59561,0 3.87299,0.0347 3.70235,0.46302 -0.71183,1.78672 -5.95757,16.00989 -5.95757,16.1532 0,0.23097 1.37319,-1.17923 11.20589,-11.50785 z m -148.106974,7.35448 c 2.7795,-1.26239 3.51155,-4.67303 1.48757,-6.9307 -1.01353,-1.13057 -11.12965,-4.79486 -13.28232,-4.81117 -1.80629,-0.0137 -3.29455,0.70073 -4.57427,2.1958 -2.18625,2.55414 -1.92508,6.00254 0.62849,8.29842 0.71405,0.64199 1.74513,1.28593 2.29129,1.43097 0.54617,0.14505 3.55287,0.27341 6.68157,0.28526 5.00198,0.0189 5.81879,-0.0376 6.76767,-0.46858 z m 71.915754,0.12716 c 3.69799,-1.11293 5.43344,-5.11207 3.71494,-8.56065 -1.18338,-2.37472 -4.08044,-3.83465 -6.48702,-3.26903 -1.68359,0.39569 -10.92597,3.79026 -11.52815,4.23409 -1.52312,1.1226 -2.11122,3.66773 -1.26133,5.45873 1.04218,2.19624 2.06781,2.48532 8.8689,2.49982 3.96489,0.008 5.78689,-0.0904 6.69266,-0.36296 z m -3.70438,-22.6785 c 0.91941,-0.41891 1.38984,-1.63353 0.98057,-2.53177 -0.5854,-1.28483 -10.66894,-17.40436 -11.36838,-18.17348 -1.13915,-1.252649 -3.61052,-2.71586 -5.38307,-3.187131 -1.50082,-0.399025 -3.80804,-0.434009 -23.886284,-0.362178 l -22.225,0.07951 -2.03895,0.973649 c -1.18183,0.564353 -2.51651,1.457396 -3.175,2.124406 -0.62676,0.634874 -3.53794,5.036324 -6.49387,9.818154 -4.14004,6.69741 -5.35781,8.86628 -5.35781,9.5424 0,0.85132 0.48321,1.51889 1.32292,1.82764 0.21828,0.0803 17.62557,0.15533 38.68286,0.16682 27.931264,0.0152 38.463414,-0.06 38.942014,-0.27802 z m 94.3543,-34.229215 V 75.55694 H 208.7227 191.92165 V 86.272565 96.98819 h 16.80105 16.80104 z m -47.36042,84.458145 c 0,-2.29734 0.0929,-2.90593 0.59531,-3.90047 0.74839,-1.48142 1.95292,-2.29224 3.71752,-2.50243 0.75664,-0.0901 13.11212,-0.12771 27.45662,-0.0835 l 26.08091,0.0804 1.1258,0.7451 c 1.66609,1.10269 2.12963,2.33293 2.13678,5.67104 l 0.006,2.71198 h -30.55937 -30.55938 z"
       id="path4" /></g></svg>
