<?xml version="1.0" encoding="UTF-8" standalone="no"?>
<!-- Created with Inkscape (http://www.inkscape.org/) -->

<svg
   width="4.4746723in"
   height="4.2519479in"
   viewBox="0 0 113.65668 107.99948"
   version="1.1"
   id="svg53678"
   xml:space="preserve"
   xmlns="http://www.w3.org/2000/svg"
   xmlns:svg="http://www.w3.org/2000/svg"><defs
     id="defs53675" /><g
     id="layer1"
     transform="translate(-69.37525,-63.142185)"><path
       style="fill:#000000"
       d="m 121.31532,163.71921 c 0,-6.06063 0.11599,-7.58803 0.63218,-8.32499 0.34769,-0.49641 0.89592,-0.90255 1.21829,-0.90255 0.47376,0 0.58813,-0.83689 0.59664,-4.36555 0.006,-2.40105 0.18162,-13.31999 0.39074,-24.26431 0.62669,-32.798998 0.5856,-41.861461 -0.20143,-44.425467 -2.26837,-7.389939 -5.98257,-11.319575 -12.85877,-13.604592 -5.22314,-1.735695 -16.337649,-2.567422 -16.839299,-1.260127 -0.12856,0.33503 -0.48001,0.609146 -0.78099,0.609146 -0.30098,0 -0.97892,0.431681 -1.50653,0.959292 -0.93311,0.933105 -1.1969,0.965281 -9.66327,1.178675 -8.37478,0.211086 -8.74973,0.187105 -9.9137,-0.634075 -0.66534,-0.469402 -1.64756,-0.817221 -2.1827,-0.772932 -0.89082,0.07373 -0.95072,-0.03089 -0.7094,-1.238936 0.14496,-0.725704 0.70074,-1.756906 1.23506,-2.29156 0.95859,-0.959189 1.10165,-0.974782 10.7727,-1.174172 6.56468,-0.135346 10.09602,-0.05793 10.69397,0.234447 0.49102,0.240086 3.9994,0.524889 7.79641,0.632895 5.388849,0.153285 7.562419,0.385815 9.905949,1.059748 3.70873,1.066521 7.39142,2.86564 9.64387,4.711355 2.13305,1.747874 4.81916,5.795823 5.70969,8.60446 0.37179,1.172606 0.79198,2.132011 0.93376,2.132011 0.14177,0 0.56197,-0.959405 0.93376,-2.132011 0.89137,-2.811285 3.58157,-6.863843 5.69552,-8.57982 4.80161,-3.897642 10.41465,-5.54557 19.76704,-5.803388 3.68533,-0.101594 7.09988,-0.380736 7.58789,-0.620317 0.59081,-0.290049 4.1603,-0.372861 10.68259,-0.247835 9.70672,0.186068 9.80418,0.196659 10.77817,1.171245 0.54058,0.540914 1.10727,1.60619 1.25931,2.367281 0.25944,1.298655 0.21843,1.368628 -0.66651,1.137213 -0.66763,-0.174592 -1.30556,0.05853 -2.1849,0.798448 -1.14439,0.962941 -1.45016,1.025365 -3.89225,0.794636 -1.45766,-0.13772 -5.35407,-0.2517 -8.65869,-0.253287 -5.86569,-0.0028 -6.0325,-0.027 -7.02363,-1.01813 -0.55839,-0.558384 -1.2615,-1.015243 -1.56249,-1.015243 -0.30098,0 -0.66315,-0.302073 -0.80483,-0.671273 -0.22877,-0.596185 -0.85824,-0.642103 -5.62728,-0.410498 -2.95333,0.143426 -6.64366,0.535788 -8.20072,0.871916 -3.7204,0.803129 -8.24737,2.985288 -10.49926,5.061003 -1.98501,1.829716 -4.29211,5.88383 -5.32784,9.362254 -0.81476,2.736296 -0.83389,7.65406 -0.17688,45.473508 l 0.46898,26.99609 1.16259,1.08602 1.1626,1.08603 v 7.55291 7.55292 h -4.87317 -4.87317 z"
       id="path4" /></g></svg>
