<?xml version="1.0" encoding="UTF-8" standalone="no"?>
<!-- Created with Inkscape (http://www.inkscape.org/) -->

<svg
   width="3.3541532in"
   height="5.9895835in"
   viewBox="0 0 85.19549 152.13542"
   version="1.1"
   id="svg53678"
   xml:space="preserve"
   xmlns="http://www.w3.org/2000/svg"
   xmlns:svg="http://www.w3.org/2000/svg"><defs
     id="defs53675" /><g
     id="layer1"
     transform="translate(-90.89642,-39.65018)"><path
       style="fill:#000000"
       d="m 90.896414,189.92502 c 0,-2.23998 0.40046,-3.29554 1.67473,-4.41436 0.92596,-0.813 1.6433,-1.05039 3.61694,-1.19693 l 0.92604,-0.0688 0.13229,-26.94431 0.13229,-26.94431 0.74127,-0.63756 c 0.40769,-0.35066 1.21136,-0.71274 1.78593,-0.80462 l 1.044676,-0.16705 v -26.40532 c 0,-27.178565 0.0435,-28.475196 1.09627,-32.66137 1.76382,-7.013684 7.46137,-14.078661 13.98152,-17.33712 3.52191,-1.760088 2.51583,-1.482427 36.96569,-10.201905 5.41334,-1.370152 10.22132,-2.491184 10.6844,-2.491184 1.13299,0 2.4762,0.8735 2.98189,1.939152 0.46614,0.98232 0.86526,3.087931 0.58532,3.087931 -0.10062,0 -6.27732,1.539556 -13.726,3.421236 -32.73196,8.268727 -31.33432,7.889542 -34.18055,9.273297 -5.82062,2.829818 -9.77422,7.579889 -11.67616,14.028384 l -0.74135,2.513542 -0.0855,27.450517 -0.0855,27.45053 h 0.68036 c 0.3742,0 1.09755,0.1743 1.60743,0.38735 1.78541,0.74599 1.70177,-0.6649 1.70177,28.70832 v 26.46683 h 1.39319 c 1.75348,0 2.99635,0.64132 4.00781,2.06801 0.65671,0.92631 0.78901,1.40197 0.89389,3.21377 l 0.1231,2.12655 H 104.02728 90.896414 Z M 147.33624,70.178005 c -0.1707,-0.444837 1.86701,-7.122449 2.35165,-7.706408 0.3935,-0.474133 1.25561,-0.409853 1.4545,0.108449 0.0929,0.242155 -0.39548,2.147155 -1.08533,4.233334 -1.16187,3.513578 -1.30226,3.793051 -1.90535,3.793051 -0.35809,0 -0.72505,-0.192792 -0.81547,-0.428426 z m 14.50007,-1.606062 c -1.72596,-5.87304 -1.81358,-6.961345 -0.56043,-6.961345 0.55341,0 0.76305,0.502021 1.85375,4.439208 0.96566,3.485846 0.9578,4.125301 -0.0521,4.241928 -0.66851,0.0772 -0.74372,-0.027 -1.24119,-1.719791 z m 10.14155,-7.821241 c -3.26873,-2.497188 -3.6612,-2.96524 -2.93738,-3.503142 0.64589,-0.479994 0.87952,-0.362597 4.20715,2.114079 2.07143,1.54172 2.84402,2.270682 2.84427,2.683672 3.1e-4,0.505079 -0.4512,0.888203 -1.04675,0.888203 -0.11553,0 -1.49581,-0.982265 -3.06729,-2.182812 z m -20.37601,-2.847538 c -0.88245,-0.436815 -5.05057,-4.748954 -5.34783,-5.532618 -0.0399,-0.10527 1.03163,-0.44817 2.38125,-0.762 1.34962,-0.31383 6.1966,-1.523306 10.77106,-2.687724 4.57447,-1.164417 8.37372,-2.060612 8.44279,-1.991542 0.16953,0.169529 -0.99214,5.321409 -1.45878,6.469551 -0.81958,2.016499 -1.35396,2.297741 -7.29536,3.839511 -5.19626,1.348408 -5.97294,1.417319 -7.49313,0.664822 z"
       id="path4" /></g></svg>
