<?xml version="1.0" encoding="UTF-8" standalone="no"?>
<!-- Created with Inkscape (http://www.inkscape.org/) -->

<svg
   width="3.1249995in"
   height="5.3307104in"
   viewBox="0 0 79.374988 135.40005"
   version="1.1"
   id="svg53678"
   xml:space="preserve"
   xmlns="http://www.w3.org/2000/svg"
   xmlns:svg="http://www.w3.org/2000/svg"><defs
     id="defs53675" /><g
     id="layer1"
     transform="translate(-94.203077,-42.587294)"><path
       style="fill:#000000"
       d="m 95.893262,177.73816 c -0.30732,-0.12418 -0.81334,-0.5494 -1.12448,-0.94496 -0.5151,-0.65484 -0.56571,-1.04209 -0.56571,-4.32879 0,-4.03536 0.17364,-4.5536 1.74587,-5.21052 0.48564,-0.20291 1.7104,-0.36892 2.72169,-0.36892 h 1.838728 l 0.088,-4.65238 0.088,-4.65238 0.86407,-0.77158 0.86407,-0.77158 h 31.56365 31.56364 l 0.59526,0.55458 c 0.95976,0.89415 1.09202,1.63018 1.09202,6.07723 v 4.21611 h 1.68672 c 2.33528,0 3.22489,0.22127 3.99806,0.99444 0.64637,0.64637 0.66522,0.76878 0.66522,4.32085 0,2.17016 -0.12241,3.9243 -0.30125,4.3168 -0.71152,1.56163 1.43446,1.48196 -39.42624,1.46364 -20.5692,-0.009 -37.649998,-0.11837 -37.957318,-0.24254 z M 107.9614,142.01414 v -8.46667 h -2.65433 c -3.2532,0 -4.34305,-0.37883 -4.89581,-1.70177 -0.586058,-1.40264 -0.563478,-14.1235 0.0271,-15.26555 0.60938,-1.17839 1.78501,-1.55351 4.86872,-1.55351 h 2.65433 v -7.9375 -7.937503 h 26.06145 26.06146 v 7.937503 7.9375 h 2.65433 c 3.08372,0 4.25935,0.37512 4.86872,1.55351 0.61388,1.18712 0.61388,14.22668 0,15.4138 -0.60937,1.1784 -1.785,1.55352 -4.86872,1.55352 h -2.65433 v 8.46667 8.46666 H 134.02286 107.9614 Z m 29.75463,-3.84472 c 2.32093,-0.60452 4.45872,-1.86101 6.34615,-3.72997 2.11646,-2.09573 3.18343,-3.94687 3.89359,-6.75517 1.2647,-5.00122 -0.13287,-9.87385 -3.89793,-13.59012 -2.83425,-2.79752 -6.04262,-4.1123 -10.03498,-4.1123 -2.69569,0 -4.50856,0.44727 -6.86048,1.69259 -1.9098,1.01122 -4.57086,3.61498 -5.68538,5.56295 -0.97956,1.71211 -1.87574,5.01691 -1.86934,6.89354 0.0216,6.33698 4.61851,12.41453 10.60846,14.02542 1.89354,0.50924 5.57039,0.51564 7.49991,0.0131 z m -5.557,-6.30634 c -7.0205,-1.74639 -8.03539,-11.43867 -1.53099,-14.62098 1.17685,-0.57577 1.83458,-0.71594 3.35535,-0.71504 3.23892,0.002 5.5786,1.45761 7.03854,4.3792 2.93587,5.8752 -2.46249,12.54896 -8.8629,10.95682 z m -28.6393,-38.663943 c -1.30395,-0.5701 -1.64374,-1.66507 -1.64374,-5.29694 0,-4.54558 0.69772,-5.41931 4.32757,-5.41931 h 1.69874 l 0.12677,-5.622397 c 0.14672,-6.507898 0.53015,-8.464899 2.46759,-12.594568 2.0915,-4.458053 5.17392,-8.047196 9.24151,-10.760708 2.36813,-1.579795 3.88798,-2.305902 6.61178,-3.158774 l 1.85208,-0.579921 0.15225,-1.699629 c 0.18138,-2.024922 0.69255,-3.09584 1.98702,-4.162845 1.90732,-1.572178 4.3961,-1.74806 6.58487,-0.465355 1.61004,0.943549 2.54297,2.579803 2.71863,4.76819 l 0.13536,1.686264 0.95781,0.178177 c 1.70479,0.317135 5.40208,1.995268 7.57853,3.439754 5.45316,3.61922 9.20987,8.896161 11.00399,15.45702 0.44702,1.634682 0.57423,3.069263 0.68812,7.760103 l 0.13971,5.754689 h 1.71395 c 1.90079,0 3.1852,0.4743 3.76137,1.38898 0.49047,0.77863 0.70764,5.77442 0.31418,7.22721 -0.16022,0.59156 -0.59987,1.36547 -0.977,1.71979 l -0.68569,0.64423 -29.9428,0.0582 c -25.54618,0.0496 -30.07052,0.002 -30.8126,-0.32212 z"
       id="path4" /></g></svg>
