<?xml version="1.0" encoding="UTF-8" standalone="no"?>
<!-- Created with Inkscape (http://www.inkscape.org/) -->

<svg
   width="4.9000211in"
   height="3.8704128in"
   viewBox="0 0 124.46054 98.308486"
   version="1.1"
   id="svg53678"
   xml:space="preserve"
   xmlns="http://www.w3.org/2000/svg"
   xmlns:svg="http://www.w3.org/2000/svg"><defs
     id="defs53675" /><g
     id="layer1"
     transform="translate(-74.983505,-66.788879)"><path
       style="fill:#000000;stroke-width:1.52953"
       d="m 140.27132,163.76748 c -0.39421,-0.73658 -0.71674,-1.56562 -0.71674,-1.84229 0,-0.27668 3.77466,-4.32117 8.38813,-8.98774 l 8.38815,-8.48469 -1.98367,-4.03984 c -2.77506,-5.65155 -3.14568,-13.94964 -0.89147,-19.95938 2.10855,-5.62137 7.7737,-11.32404 13.3057,-13.39383 5.34034,-1.99808 12.85783,-2.03087 18.07507,-0.0789 4.74007,1.77348 9.97913,6.64292 12.62758,11.73665 1.79251,3.44752 1.97997,4.46359 1.97997,10.73182 0,6.23545 -0.19157,7.28749 -1.92714,10.58238 -2.47311,4.69513 -6.41254,8.61342 -11.0302,10.97099 -6.76818,3.45557 -17.7085,2.91828 -23.42228,-1.15031 l -1.79009,-1.27466 -8.26346,8.25516 c -6.47053,6.46402 -8.67131,8.25719 -10.14315,8.26448 -1.15656,0.006 -2.1554,-0.50586 -2.5964,-1.3299 z m 43.85169,-19.3286 c 10.44688,-5.57319 12.01788,-20.44101 2.97752,-28.17923 -2.71382,-2.32291 -8.08637,-4.46591 -11.19621,-4.46591 -3.91313,0 -9.0689,2.29869 -12.22186,5.4491 -14.11722,14.10574 2.79617,36.60892 20.44055,27.19604 z M 75.333552,139.84497 c 0.192538,-1.70813 0.867429,-3.89531 1.499769,-4.86038 2.691684,-4.10804 10.708344,-8.10127 13.386554,-6.66806 2.70697,1.4486 7.67638,1.64428 11.468265,0.45159 3.63817,-1.14434 3.82893,-1.136 7.20172,0.31493 5.54796,2.38667 9.89344,7.9149 9.89344,12.58618 0,1.21999 -1.05016,1.28145 -21.899895,1.28145 H 74.983503 Z m 48.958368,0.85549 c -0.0167,-1.23763 -0.47939,-3.49652 -1.02814,-5.01973 -0.54877,-1.52324 -1.00244,-2.8435 -1.00818,-2.93392 -0.0275,-0.43331 5.4525,-3.50473 7.5192,-4.21436 1.88132,-0.64598 3.07527,-0.58772 6.12521,0.29892 2.39726,0.69691 4.85486,0.94139 6.69268,0.66579 l 2.90428,-0.43552 0.84241,4.91245 c 0.46331,2.70186 1.31526,5.82688 1.89321,6.94453 l 1.05082,2.03206 H 136.80286 124.32231 Z M 92.072385,123.63551 c -8.86869,-4.02797 -9.43323,-16.53267 -0.94196,-20.8646 9.091935,-4.638342 18.858075,2.74868 16.966225,12.83311 -0.61965,3.303 -4.67999,7.73939 -7.90258,8.63449 -3.509175,0.9747 -4.870445,0.87363 -8.121685,-0.603 z m 43.342085,-0.24488 c -3.55233,-1.81514 -5.4168,-4.1147 -6.21858,-7.66972 -1.62594,-7.2092 3.92688,-14.31323 11.18784,-14.31323 3.98812,0 6.62532,1.20846 9.12802,4.18276 2.69227,3.19957 2.88717,4.93359 0.90711,8.0702 -0.94097,1.49059 -2.28364,4.32288 -2.98371,6.29399 -0.9955,2.80287 -1.71355,3.73744 -3.29529,4.28882 -3.09227,1.07799 -5.38536,0.85385 -8.72539,-0.85282 z m -25.46886,-21.97892 c -0.47426,-0.7594 -2.60991,-2.367019 -4.74589,-3.572491 l -3.8836,-2.191776 1.63674,-1.258607 c 2.09136,-1.608244 5.60291,-3.307556 7.26702,-3.516689 0.71141,-0.08933 3.06008,0.263325 5.21929,0.78384 3.46681,0.835738 4.33632,0.812137 7.43664,-0.201929 3.15144,-1.030783 3.76363,-1.042698 5.98069,-0.116397 2.94862,1.232009 6.54382,3.705999 6.54382,4.503054 0,0.313585 -0.727,0.752622 -1.61554,0.975644 -0.88855,0.223006 -3.03946,1.65884 -4.77979,3.190741 l -3.16424,2.78529 h -7.51643 c -6.75929,0 -7.6033,-0.13904 -8.37871,-1.38073 z M 152.087,99.981759 c -1.67531,-1.51462 -3.77841,-2.937683 -4.67354,-3.162341 -0.89513,-0.224673 -1.6275,-0.637984 -1.6275,-0.918485 0,-0.944503 2.452,-2.739181 5.71358,-4.181929 3.14137,-1.389581 3.34946,-1.397137 6.85904,-0.249207 3.3357,1.091047 3.94463,1.099108 7.7688,0.102785 3.14806,-0.820182 4.66135,-0.905071 6.2708,-0.351778 2.37271,0.815701 7.31839,3.906873 7.30654,4.56679 -0.0107,0.570226 -8.63934,4.235336 -9.97166,4.235336 -0.57608,0 -2.62833,0.62314 -4.56056,1.38475 -1.93223,0.76162 -4.98157,1.37198 -6.77631,1.35636 -2.81222,-0.0245 -3.68408,-0.40895 -6.30919,-2.782281 z M 114.28285,86.907458 c -4.39224,-1.791849 -7.20906,-7.677571 -5.90066,-12.329357 1.45572,-5.175482 4.84064,-7.777836 10.12563,-7.784661 10.57634,-0.01361 14.58344,13.223515 5.81484,19.208871 -2.3713,1.618613 -7.21952,2.055708 -10.03981,0.905147 z m 42.58078,-0.905147 c -8.71068,-5.945818 -4.76907,-19.213434 5.70802,-19.213434 6.2799,0 10.48328,4.215071 10.48328,10.512437 0,5.695218 -4.73851,10.258842 -10.65194,10.258842 -2.23993,0 -3.96983,-0.486499 -5.53936,-1.557845 z"
       id="path4" /></g></svg>
