<?xml version="1.0" encoding="UTF-8" standalone="no"?>
<!-- Created with Inkscape (http://www.inkscape.org/) -->

<svg
   width="5.170239in"
   height="5.0183229in"
   viewBox="0 0 131.32407 127.4654"
   version="1.1"
   id="svg53678"
   xml:space="preserve"
   xmlns="http://www.w3.org/2000/svg"
   xmlns:svg="http://www.w3.org/2000/svg"><defs
     id="defs53675" /><g
     id="layer1"
     transform="translate(-70.129671,-50.761583)"><path
       style="fill:#000000"
       d="m 190.39417,177.65826 c -0.79894,-0.31258 -6.98535,-6.08795 -13.74758,-12.83415 l -12.29496,-12.26582 -2.81231,2.05727 c -8.75775,6.40648 -18.86742,10.11756 -30.52546,11.20534 -8.08884,0.75475 -21.41715,-2.01533 -29.52018,-6.1353 -13.763495,-6.99802 -25.049875,-20.50162 -29.363825,-35.13238 -1.885,-6.39296 -2.56997,-18.31223 -1.48053,-25.762927 2.30265,-15.74789 13.20735,-31.80371 27.1496,-39.97441 4.505965,-2.640678 12.465365,-5.829191 17.349405,-6.950124 6.81517,-1.564149 18.62466,-1.45174 25.56615,0.243351 11.11411,2.714031 23.66599,10.470019 30.64565,18.936383 9.10252,11.04142 13.37591,22.91389 13.40361,37.238357 0.0212,10.94679 -2.36869,20.18703 -7.36164,28.46325 l -2.09832,3.47814 12.73339,12.79123 c 8.28088,8.31849 12.87451,13.36224 13.13696,14.42421 1.68114,6.80254 -4.50998,12.67068 -10.77996,10.21758 z m -53.16598,-25.20319 c 2.4846,-0.51307 6.66701,-2.14292 10.74802,-4.18843 5.76212,-2.88812 7.31999,-3.99744 11.33045,-8.06807 5.36202,-5.44246 7.8573,-9.33897 10.51172,-16.4146 6.8341,-18.21696 1.07516,-38.557677 -14.39316,-50.836977 -8.48214,-6.73342 -16.27363,-9.366478 -27.78434,-9.389429 -8.26638,-0.01648 -13.77082,1.090289 -19.46514,3.913819 -13.815525,6.85045 -22.578215,18.78077 -25.106315,34.182027 -0.82483,5.02488 -0.86576,6.70681 -0.27672,11.37055 2.5065,19.84513 16.33768,35.31936 35.249875,39.4373 4.71234,1.02607 14.20158,1.023 19.18561,-0.006 z m -20.84267,-17.75025 c -7.55769,-0.71932 -11.38799,-1.74648 -13.53181,-3.62877 -2.27943,-2.00136 -2.43412,-3.45524 -0.85577,-8.04281 2.59389,-7.53926 6.76171,-13.49972 11.92728,-17.05739 l 3.16536,-2.18006 3.25056,1.59035 c 4.51756,2.21023 9.48875,2.21617 13.98432,0.0167 l 3.21646,-1.57367 2.52577,1.4802 c 5.58003,3.27012 11.75672,12.51511 13.31043,19.92245 0.55081,2.62601 0.51655,3.44032 -0.19913,4.73286 -2.2689,4.09768 -19.80577,6.35698 -36.79347,4.74015 z m 8.05959,-31.87391 c -6.19787,-1.61304 -10.16188,-6.625677 -10.16188,-12.850097 0,-7.37473 5.66633,-13.02109 13.06713,-13.02109 13.76703,0 18.20558,18.40659 5.95761,24.706137 -2.53788,1.30532 -6.38219,1.81067 -8.86286,1.16505 z"
       id="path4" /></g></svg>
