<?xml version="1.0" encoding="UTF-8" standalone="no"?>
<!-- Created with Inkscape (http://www.inkscape.org/) -->

<svg
   width="5.0618238in"
   height="5.1454253in"
   viewBox="0 0 128.57032 130.6938"
   version="1.1"
   id="svg53678"
   xml:space="preserve"
   xmlns="http://www.w3.org/2000/svg"
   xmlns:svg="http://www.w3.org/2000/svg"><defs
     id="defs53675" /><g
     id="layer1"
     transform="translate(-63.632904,-53.228157)"><path
       style="fill:#000000"
       d="m 182.26182,183.4376 c -0.75352,-0.34231 -3.44705,-2.98166 -9.24206,-9.05617 -4.49824,-4.71519 -8.47573,-8.89913 -8.83888,-9.29765 l -0.66026,-0.72458 2.74005,-2.58271 c 1.50703,-1.42049 3.24106,-3.26229 3.8534,-4.09288 l 1.11334,-1.51017 9.48852,8.1387 c 5.21868,4.47629 9.81136,8.52307 10.20595,8.99286 2.61427,3.1125 1.05101,8.25022 -3.08139,10.12715 -1.43309,0.65091 -4.15196,0.65356 -5.57867,0.005 z m -43.18893,-16.18401 c -12.84946,-1.61065 -22.98445,-10.76865 -25.90258,-23.40564 -0.68854,-2.98174 -0.68854,-9.98285 0,-12.96459 1.71289,-7.41767 6.49435,-14.50136 12.57613,-18.63141 3.95655,-2.68685 9.02481,-4.49243 14.26552,-5.08214 11.85695,-1.3342 24.17046,5.57645 29.69683,16.66661 4.81036,9.65332 3.9794,21.47165 -2.14369,30.48829 -4.24682,6.25371 -11.63036,11.12208 -18.98374,12.51699 -2.77308,0.52605 -7.10183,0.71356 -9.50847,0.41189 z m 7.90367,-4.34712 c 16.10679,-2.8208 25.65885,-19.42391 20.06653,-34.87904 -2.41051,-6.66177 -8.58029,-12.84154 -15.21908,-15.24374 -3.71107,-1.34282 -6.04702,-1.69373 -10.27698,-1.54383 -4.16287,0.14753 -6.88942,0.78637 -10.39522,2.43566 -6.92954,3.25995 -12.0095,9.42844 -14.03625,17.04391 -0.58069,2.1819 -0.67655,3.09278 -0.67162,6.38164 0.005,3.25068 0.10829,4.22505 0.67732,6.38146 1.25583,4.75916 3.18621,8.19767 6.61243,11.77847 5.9749,6.24447 14.75376,9.13218 23.24287,7.64547 z m -6.13726,-15.20171 -0.7734,-0.7734 v -3.59223 -3.59223 l -3.37343,-9.9e-4 c -2.88263,-8.4e-4 -3.49707,-0.0764 -4.22316,-0.51908 -1.52245,-0.92829 -1.5975,-3.10265 -0.14649,-4.24402 0.59404,-0.46727 1.07489,-0.52757 4.20689,-0.52757 h 3.53619 v -3.55158 c 0,-3.39816 0.0285,-3.58538 0.65856,-4.33422 0.79088,-0.93991 1.82068,-1.18675 2.96182,-0.70995 1.37912,0.57624 1.67129,1.49846 1.67129,5.27532 v 3.32043 h 3.59223 3.59223 l 0.77339,0.77339 c 0.84522,0.84522 0.99943,1.88063 0.45731,3.07046 -0.54326,1.19232 -1.44233,1.44781 -5.09473,1.44781 h -3.32043 v 3.29485 c 0,3.62722 -0.2276,4.47312 -1.36129,5.05937 -1.18624,0.61343 -2.28515,0.47546 -3.15698,-0.39636 z m -71.683437,-7.94048 c -1.91776,-0.58336 -3.70992,-2.17081 -4.79888,-4.25071 -0.6131,-1.17102 -0.62472,-1.33644 -0.70604,-10.04711 -0.055,-5.89525 0.0158,-9.24748 0.21178,-10.02589 0.37946,-1.50695 1.60185,-3.27513 2.7583,-3.98986 1.2064,-0.74559 28.05835,-10.86214 28.83096,-10.86214 0.33047,0 0.84365,0.26789 1.14041,0.59531 0.29676,0.32742 1.89031,3.54211 3.541237,7.14375 1.65092,3.60164 3.06598,6.54562 3.14458,6.54218 0.0786,-0.003 1.56124,-3.04612 3.29475,-6.76149 3.01247,-6.45651 3.83278,-7.78433 4.809,-7.78433 0.19188,0 3.86209,1.33184 8.15603,2.95965 l 7.80717,2.95966 -1.77557,1.05439 c -10.7174,6.36434 -17.24506,17.71609 -17.25212,30.00182 l -0.002,2.71198 -19.248437,-0.0227 c -10.5862,-0.0126 -19.54642,-0.11356 -19.91117,-0.22451 z M 173.24378,121.69149 c -2.71859,-5.42515 -7.50581,-10.84417 -12.04677,-13.63665 -7.16107,-4.40372 -16.23288,-5.95556 -25.82389,-4.41746 l -2.17924,0.34948 -6.02284,-2.24122 c -3.31256,-1.23267 -6.89162,-2.567408 -7.95345,-2.966098 l -1.93061,-0.72489 11.45561,-4.29879 c 6.30058,-2.36434 11.63747,-4.29452 11.85976,-4.28929 0.94108,0.0221 1.59544,1.03935 4.07834,6.33995 1.44053,3.0753 2.70792,5.498638 2.81644,5.385188 0.10852,-0.11344 1.28056,-2.527978 2.60455,-5.365638 2.47649,-5.30777 3.20894,-6.35 4.46264,-6.35 1.10331,0 23.85213,8.67161 24.9245,9.50095 0.50932,0.3939 1.19393,1.240518 1.52135,1.881388 0.57774,1.13081 0.59527,1.3959 0.59384,8.9805 -8.6e-4,4.56728 -0.11522,8.22486 -0.27517,8.80079 -0.65575,2.36114 -3.22356,4.42041 -6.00267,4.81387 l -1.11995,0.15855 z M 100.40609,96.994862 c -6.380657,-1.71585 -12.407047,-9.63736 -14.049577,-18.46778 -0.451,-2.42461 -0.20744,-6.39682 0.52916,-8.63018 2.11038,-6.398582 7.7767,-11.049724 14.468597,-11.876395 5.40801,-0.668068 10.48011,1.092166 14.37757,4.989629 3.41582,3.415811 5.09085,7.433276 5.07766,12.178436 -0.0138,4.95519 -1.63769,9.76867 -4.88625,14.48342 -4.12682,5.98942 -10.06131,8.79003 -15.51716,7.32287 z m 44.29002,-10.25497 c -5.21211,-1.7231 -9.9053,-7.5178 -11.49842,-14.19715 -0.98429,-4.12676 -0.66732,-7.388654 1.07208,-11.032522 2.41412,-5.05733 7.60697,-8.282062 13.33676,-8.282062 6.44831,0 12.06746,4.06267 14.20237,10.268362 0.79708,2.316936 0.84792,6.711892 0.1077,9.310802 -0.5853,2.05497 -2.41867,6.02492 -3.53245,7.64909 -1.51369,2.20734 -4.05399,4.50315 -6.10494,5.51739 -1.70813,0.84471 -2.21776,0.96968 -4.23334,1.03814 -1.39944,0.0475 -2.7034,-0.0584 -3.34976,-0.27205 z"
       id="path4" /></g></svg>
