<?xml version="1.0" encoding="UTF-8" standalone="no"?>
<!-- Created with Inkscape (http://www.inkscape.org/) -->

<svg
   width="2.9583333in"
   height="2.8732212in"
   viewBox="0 0 75.141665 72.979817"
   version="1.1"
   id="svg53678"
   xml:space="preserve"
   xmlns="http://www.w3.org/2000/svg"
   xmlns:svg="http://www.w3.org/2000/svg"><defs
     id="defs53675" /><g
     id="layer1"
     transform="translate(-147.82667,218.84167)"><path
       style="fill:#ffffff"
       d="m 171.81556,-145.99305 c -0.097,-0.097 -0.17385,-0.72209 -0.17076,-1.38906 0.006,-1.20515 0.0337,-1.24222 4.52656,-5.97518 l 4.52092,-4.7625 -0.15326,-2.24895 c -0.0843,-1.23693 -0.29878,-6.10129 -0.47664,-10.8097 -0.22861,-6.05215 -0.41447,-8.59569 -0.63427,-8.68003 -0.2665,-0.10227 -4.83942,1.08645 -27.72232,7.20635 -1.86831,0.49967 -3.50542,0.84144 -3.63802,0.75949 -0.1326,-0.082 -0.2411,-1.2147 -0.2411,-2.5172 v -2.3682 l 3.17238,-2.04796 c 1.7448,-1.12638 8.75265,-5.61984 15.57298,-9.98546 l 12.40061,-7.9375 0.13744,-6.48229 c 0.11494,-5.42111 0.22699,-6.81566 0.68445,-8.51867 0.77931,-2.90115 1.7329,-4.75475 3.08933,-6.00507 1.04526,-0.96348 1.32551,-1.08668 2.47206,-1.08668 1.93722,0 3.25034,1.12493 4.56165,3.9079 1.36783,2.90293 1.63275,4.61916 1.8048,11.69203 l 0.15743,6.47181 12.7,8.15709 c 6.985,4.48641 13.97992,8.98034 15.54427,9.98653 l 2.84427,1.82944 v 2.37761 c 0,1.30768 -0.10849,2.44466 -0.24109,2.52662 -0.22479,0.13892 -1.46939,-0.17008 -10.67297,-2.64984 -18.26336,-4.92079 -20.5572,-5.50779 -20.75393,-5.31106 -0.0904,0.0904 -0.3155,3.76735 -0.50018,8.17095 -0.18468,4.4036 -0.39825,9.15042 -0.4746,10.5485 l -0.13883,2.54196 4.7442,4.99867 4.7442,4.99866 0.005,1.26508 c 0.003,0.85982 -0.11696,1.31185 -0.3756,1.4111 -0.20929,0.0803 -2.73937,-0.88816 -5.62239,-2.15217 -2.88303,-1.26401 -5.36521,-2.34844 -5.51596,-2.40986 -0.15075,-0.0614 -0.41439,0.41288 -0.58586,1.054 -0.3307,1.23645 -1.47409,2.81623 -2.0383,2.81623 -0.6824,0 -1.70278,-1.09754 -2.15497,-2.31795 -0.25554,-0.68966 -0.48868,-1.28919 -0.5181,-1.3323 -0.0294,-0.0431 -2.35965,0.93916 -5.17832,2.18281 -5.1364,2.26629 -5.5476,2.41221 -5.87501,2.0848 z"
       id="path2" /></g></svg>
