<?xml version="1.0" encoding="UTF-8" standalone="no"?>
<!-- Created with Inkscape (http://www.inkscape.org/) -->

<svg
   width="4.8417521in"
   height="4.8242888in"
   viewBox="0 0 122.9805 122.53694"
   version="1.1"
   id="svg53678"
   xml:space="preserve"
   xmlns="http://www.w3.org/2000/svg"
   xmlns:svg="http://www.w3.org/2000/svg"><defs
     id="defs53675" /><g
     id="layer1"
     transform="translate(-78.214746,-56.101567)"><path
       style="fill:#000000"
       d="m 96.906765,178.54851 c -1.66001,-0.25961 -4.87493,-1.24402 -4.87493,-1.49272 0,-0.0607 0.93881,-1.01884 2.08624,-2.1291 1.14744,-1.11026 4.72865,-4.63761 7.958255,-7.83856 l 5.87201,-5.81989 -1.44764,-1.37797 c -0.7962,-0.75788 -3.19235,-3.08005 -5.32479,-5.16037 -2.132445,-2.08033 -4.078325,-3.94894 -4.324185,-4.15248 l -0.44701,-0.37006 -4.7515,4.65638 c -2.61332,2.561 -6.1669,6.07638 -7.89684,7.81195 -1.72994,1.73556 -3.19355,3.15557 -3.25246,3.15557 -0.27136,0 -1.15203,-3.09108 -1.40313,-4.92491 -1.35395,-9.88818 4.39196,-19.18931 13.90113,-22.50228 3.72598,-1.29812 9.061215,-1.44747 12.580445,-0.35216 l 0.87517,0.27238 2.26076,-2.22014 c 13.24349,-13.00561 17.39839,-17.05162 17.51555,-17.05655 0.0383,-0.002 1.29246,1.221 2.78697,2.7169 l 2.71728,2.71983 -2.06875,2.02232 c -1.13781,1.11227 -2.06875,2.0843 -2.06875,2.16006 0,0.0758 1.67755,1.78252 3.72788,3.7928 l 3.72788,3.65506 -2.73606,2.6904 c -1.50483,1.47972 -4.96295,4.90781 -7.6847,7.61798 l -4.94864,4.92758 0.31686,1.25524 c 0.53393,2.11519 0.80549,4.45023 0.71685,6.16383 -0.0734,1.41931 -0.47133,3.91087 -0.80005,5.00961 -0.69511,2.32339 -1.93575,4.78359 -3.38041,6.70335 -2.90693,3.86292 -6.6667,6.35239 -11.51208,7.62249 -1.77188,0.46446 -1.9579,0.48583 -4.5829,0.52653 -1.504835,0.0233 -3.097145,-0.0141 -3.538455,-0.0831 z m 81.858105,-6.0196 c -2.90092,-0.49639 -5.11996,-1.43673 -7.18215,-3.04353 -0.37621,-0.29312 -2.5925,-2.42027 -4.92509,-4.727 -2.33258,-2.30672 -9.44291,-9.33825 -15.80073,-15.62563 -6.35781,-6.28737 -13.61118,-13.4594 -16.11859,-15.93784 l -4.55892,-4.50625 2.06227,-2.04582 c 1.13425,-1.1252 2.06227,-2.10005 2.06227,-2.16633 0,-0.0663 -2.56572,-2.65809 -5.70161,-5.75958 l -5.70161,-5.63907 2.0861,-2.0441 2.08611,-2.0441 -3.87835,-3.83048 C 118.5489,100.57086 95.547215,77.815792 89.808455,72.131031 l -4.07021,-4.031919 -0.57877,0.540455 c -0.31832,0.29725 -0.60033,0.586626 -0.62668,0.643057 -0.0264,0.05643 -0.11882,0.102603 -0.20547,0.102603 -0.20786,0 -3.37653,-3.16371 -3.37653,-3.371245 0,-0.08836 -0.2093,-0.889618 -0.46512,-1.780575 -0.25582,-0.890958 -0.69041,-2.451 -0.96576,-3.466762 -0.27535,-1.015761 -0.68166,-2.456256 -0.9029,-3.201101 -0.22125,-0.744844 -0.40227,-1.398989 -0.40227,-1.453656 0,-0.05467 0.72334,0.113448 1.60743,0.37359 0.88409,0.260141 2.19227,0.645098 2.90706,0.855459 0.7148,0.210362 2.19227,0.642662 3.28327,0.960667 1.091,0.318005 2.05406,0.617974 2.14011,0.666598 0.0861,0.04862 0.90573,0.792921 1.82148,1.653993 l 1.665,1.565586 -0.70495,0.62326 -0.70496,0.62326 6.54444,6.516022 c 3.599455,3.583812 6.913825,6.8705 7.365275,7.30375 0.45145,0.433251 3.40668,3.349364 6.56719,6.480255 8.74587,8.66392 17.8957,17.703462 19.52347,19.288152 l 1.45878,1.42017 2.04383,-1.95035 c 1.1241,-1.07269 2.09737,-1.93696 2.16281,-1.9206 0.0654,0.0164 2.643,2.51203 5.72791,5.54592 3.0849,3.0339 5.64815,5.53686 5.6961,5.56214 0.048,0.0253 1.02022,-0.84668 2.16058,-1.93768 1.14036,-1.091 2.12595,-1.98364 2.1902,-1.98364 0.10571,0 13.77623,13.47698 28.46313,28.06015 3.12252,3.10047 7.19045,7.1356 9.03984,8.96696 3.41661,3.38329 4.23993,4.36256 5.10214,6.0685 1.20544,2.38505 1.6796,4.73569 1.54476,7.65825 -0.092,1.99434 -0.27018,2.86184 -0.95711,4.65994 -1.29408,3.38735 -3.98244,6.31314 -7.27388,7.91625 -1.42744,0.69525 -2.08132,0.92662 -3.49213,1.23568 -1.2215,0.26758 -4.27839,0.38497 -5.33165,0.20474 z m -23.41723,-63.85967 -3.75686,-3.69994 -2.04098,2.04438 c -1.12253,1.12441 -2.10386,2.04438 -2.18073,2.04438 -0.0769,0 -1.38849,-1.24983 -2.9147,-2.7774 l -2.77493,-2.77741 5.3697,-5.259762 c 2.95334,-2.89287 7.11735,-6.98348 9.25338,-9.09025 2.13602,-2.10676 3.93347,-3.86131 3.99435,-3.899 0.0609,-0.0377 -0.0663,-0.77046 -0.2825,-1.62839 -0.52495,-2.082685 -0.67551,-3.259516 -0.67551,-5.280033 0,-9.301305 5.90354,-17.156688 14.91151,-19.84158 1.09734,-0.327068 3.45493,-0.723606 4.8565,-0.816845 1.53374,-0.102032 3.50825,0.06879 5.58562,0.483231 1.33598,0.266531 3.51283,0.941662 3.5108,1.088846 -5.3e-4,0.03891 -3.57923,3.60822 -7.95265,7.931797 l -7.95169,7.861049 1.77745,1.715153 c 0.9776,0.943333 3.56042,3.451594 5.7396,5.573911 l 3.96215,3.858761 7.85448,-7.860245 c 4.31997,-4.323134 7.89517,-7.860243 7.9449,-7.860243 0.25387,0 1.25802,3.466942 1.47883,5.105806 0.18552,1.376982 0.1851,4.293191 -8.2e-4,5.629909 -0.66874,4.808073 -3.36261,9.732013 -7.03715,12.862733 -3.86183,3.29029 -9.24904,5.1478 -14.3643,4.95279 -1.89657,-0.0723 -4.42717,-0.45584 -5.49617,-0.83301 l -0.55376,-0.19538 -1.96834,1.93047 c -1.08259,1.061762 -4.34501,4.294262 -7.24983,7.183332 l -5.28148,5.25287 z"
       id="path3" /></g></svg>
