<?xml version="1.0" encoding="UTF-8" standalone="no"?>
<!-- Created with Inkscape (http://www.inkscape.org/) -->

<svg
   width="3.6401193in"
   height="3.6623752in"
   viewBox="0 0 92.459031 93.02433"
   version="1.1"
   id="svg53678"
   xml:space="preserve"
   xmlns="http://www.w3.org/2000/svg"
   xmlns:svg="http://www.w3.org/2000/svg"><defs
     id="defs53675" /><g
     id="layer1"
     transform="translate(-88.815679,-90.964552)"><path
       style="fill:#000000;stroke-width:1.55804"
       d="m 126.86517,183.51076 c -19.08463,-3.98864 -33.712803,-18.56247 -37.346659,-37.20789 -0.993938,-5.10001 -0.925743,-13.17365 0.154246,-18.26683 2.21868,-10.4626 8.09319,-20.00085 16.453643,-26.71518 14.3138,-11.495521 33.26263,-13.582208 49.50403,-5.451482 12.8745,6.445202 21.97603,18.249272 24.86747,32.251402 1.23734,5.99192 0.97077,15.14267 -0.61598,21.14522 -4.34227,16.42649 -17.23268,29.20345 -33.96332,33.66442 -4.11094,1.09611 -14.99887,1.42776 -19.0535,0.58034 z m 13.89684,-2.32404 c 6.28977,-0.8573 14.20371,-4.06302 19.71392,-7.98558 3.37823,-2.40487 8.35927,-7.61811 10.90911,-11.41765 5.82764,-8.68383 8.52354,-20.8191 6.86631,-30.90781 -4.24332,-25.83212 -28.99112,-42.227692 -54.06116,-35.815846 -11.84161,3.028571 -22.41506,11.630836 -28.118623,22.876516 -7.32611,14.44481 -5.96232,31.52682 3.59845,45.07243 9.146883,12.95923 25.689613,20.27726 41.091993,18.17794 z m -29.85702,-13.43717 c -0.93255,-0.3763 -0.54865,-0.90195 2.34487,-3.21065 2.77402,-2.21334 2.85392,-2.32869 2.65281,-3.8307 -0.4224,-3.15474 -0.48987,-3.26204 -2.60304,-4.14023 l -2.05012,-0.852 -3.15074,2.48433 c -3.80753,3.00221 -4.28071,2.86602 -3.61171,-1.03951 0.50175,-2.9292 2.14215,-5.77934 3.82808,-6.65116 0.59291,-0.30661 2.55058,-0.76229 4.35036,-1.01262 1.79979,-0.25033 4.0182,-0.81793 4.92978,-1.26133 0.91158,-0.4434 3.72824,-2.75816 6.25923,-5.1439 2.53101,-2.38573 4.80343,-4.33771 5.04986,-4.33771 1.09058,0 0.14209,1.21533 -4.30006,5.50963 -2.61146,2.52453 -4.74476,4.88968 -4.74068,5.25587 0.014,1.27171 1.64343,2.83816 2.95195,2.83816 1.0139,0 2.04624,-0.79035 5.75002,-4.40219 3.59888,-3.50954 4.61698,-4.2973 5.02086,-3.88491 0.40325,0.41176 -0.43311,1.41492 -4.09987,4.91749 -2.53355,2.42011 -4.89205,4.86759 -5.24112,5.43885 -0.34908,0.57126 -1.02927,2.70009 -1.51155,4.73075 -1.28063,5.39214 -2.28381,6.91154 -5.43171,8.22682 -1.4403,0.6018 -5.26901,0.82025 -6.39722,0.36501 z m 42.80157,-3.33401 c -1.26995,-1.3037 -5.55094,-5.89494 -9.5133,-10.20275 -8.7829,-9.54866 -26.69514,-28.5394 -27.23097,-28.87056 -0.85751,-0.52997 -0.17104,-1.74702 2.24835,-3.98613 l 2.54084,-2.35149 20.49586,20.36269 c 19.95072,19.82111 20.49585,20.40475 20.49585,21.94371 0,1.87716 -1.64367,3.93355 -3.89644,4.87482 -2.21593,0.92587 -2.66415,0.7715 -5.14019,-1.77029 z m -32.12285,-13.13136 c -0.48851,-0.34216 -0.88821,-0.95466 -0.88821,-1.36111 0,-0.41123 2.11114,-2.71001 4.76007,-5.18317 l 4.76006,-4.44418 1.01119,0.94996 c 0.55615,0.52248 1.0112,1.15299 1.0112,1.40113 0,0.56622 -7.73259,8.22872 -8.90232,8.82164 -0.65548,0.33225 -1.07798,0.28782 -1.75199,-0.18427 z m 18.89894,-14.67175 c 0,-0.27099 1.9478,-2.46933 4.32845,-4.88518 4.55434,-4.62172 4.99413,-5.49891 3.50397,-6.98907 -1.56376,-1.56376 -2.59415,-1.09903 -7.4459,3.35828 -3.26432,2.99892 -4.67908,4.05654 -4.99876,3.73686 -0.3197,-0.3197 0.59031,-1.416 3.2153,-3.87358 6.70432,-6.27673 6.68868,-6.25408 7.77442,-11.26008 0.95875,-4.42055 1.93072,-6.06648 4.28594,-7.25783 1.42372,-0.72015 2.60874,-0.96862 4.65684,-0.97639 1.51094,-0.006 2.90148,0.14334 3.09006,0.33141 0.18859,0.18801 -0.91401,1.48655 -2.45021,2.88562 -2.28619,2.08212 -2.78986,2.76823 -2.77525,3.78049 0.0348,2.40336 0.42681,2.99365 2.61373,3.93443 2.41582,1.03926 2.32831,1.06788 6.27569,-2.05141 1.86029,-1.47003 2.38377,-1.7117 2.67893,-1.2367 0.82659,1.33027 -0.68632,6.00105 -2.64224,8.15734 -1.13658,1.25302 -2.21323,1.65343 -6.24002,2.3206 -1.81382,0.30051 -3.81152,0.74617 -4.43932,0.99037 -0.6278,0.24419 -3.34875,2.48779 -6.04655,4.98576 -2.6978,2.49798 -5.01308,4.54179 -5.14508,4.54179 -0.13196,0 -0.24,-0.22172 -0.24,-0.49271 z m -2.2003,-2.00165 c -0.60365,-0.47483 -1.09755,-1.09439 -1.09755,-1.37678 0,-0.71589 8.19963,-8.25947 9.15708,-8.42442 0.9621,-0.16574 1.97319,0.62032 1.97319,1.53405 0,0.58575 -4.54878,5.32977 -7.8685,8.20623 l -1.06667,0.92425 z m -32.99561,-6.58247 c -1.50119,-1.59135 -2.72945,-3.1445 -2.72945,-3.45147 0,-0.61734 3.4557,-3.96098 4.09372,-3.96098 0.22111,0 0.86904,0.21278 1.43981,0.47283 1.51891,0.69207 2.3517,-0.1438 2.22822,-2.23636 -0.0893,-1.51246 0.0792,-1.79948 2.15115,-3.66715 7.56536,-6.8193 7.38825,-6.73982 14.33666,-6.43326 4.3951,0.1939 8.07651,1.17286 7.25613,1.92954 -0.21018,0.19387 -1.83412,0.56163 -3.60877,0.81724 -3.69948,0.53284 -7.04729,1.83614 -7.92109,3.08367 -0.33051,0.47185 -0.60092,1.43463 -0.60092,2.13949 0,1.07302 -0.50289,1.73343 -3.09069,4.0587 -2.42556,2.17948 -3.27591,2.71836 -3.95129,2.50401 -1.57185,-0.49889 -3.77187,2.48512 -2.43935,3.30864 0.8433,0.5212 0.35883,1.44584 -1.5021,2.86676 -1.05287,0.80393 -2.14344,1.46169 -2.42345,1.46169 -0.28003,0 -1.73739,-1.30201 -3.23858,-2.89335 z"
       id="path4-9" /></g></svg>
