<?xml version="1.0" encoding="UTF-8" standalone="no"?>
<!-- Created with Inkscape (http://www.inkscape.org/) -->

<svg
   width="5.3281422in"
   height="4.8925943in"
   viewBox="0 0 135.33481 124.2719"
   version="1.1"
   id="svg53678"
   xml:space="preserve"
   xmlns="http://www.w3.org/2000/svg"
   xmlns:svg="http://www.w3.org/2000/svg"><defs
     id="defs53675" /><g
     id="layer1"
     transform="translate(-75.032182,-51.093527)"><path
       style="fill:#000000"
       d="M 136.81239,175.10037 C 125.9264,174.10435 115.0579,169.97815 105.98843,163.39814 98.204925,157.75111 91.762025,150.19718 87.353015,141.54918 l -1.62563,-3.18856 h -2.58849 c -1.66614,0 -3.02609,-0.1491 -3.81658,-0.41845 -1.43386,-0.48856 -3.03454,-1.94424 -3.77097,-3.42937 -0.50218,-1.01272 -0.51917,-1.7091 -0.51917,-21.28759 0,-19.578489 0.017,-20.274869 0.51917,-21.287589 0.73643,-1.48513 2.33711,-2.94081 3.77097,-3.42938 0.79049,-0.26934 2.15044,-0.41845 3.81658,-0.41845 h 2.58849 l 1.62563,-3.188557 c 6.17624,-12.114308 16.000845,-21.69437 28.326565,-27.621508 20.73576,-9.971321 44.92418,-7.775841 63.59843,5.772558 7.7835,5.647026 14.2264,13.200959 18.63541,21.84895 l 1.62563,3.188557 h 2.58849 c 3.26104,0 4.68727,0.45879 6.23375,2.00527 2.0878,2.0878 2.00526,1.13571 2.00526,23.130149 0,21.99443 0.0825,21.04235 -2.00526,23.13015 -1.54648,1.54648 -2.97271,2.00526 -6.23375,2.00526 h -2.58849 l -1.62563,3.18856 c -6.17624,12.11431 -16.00084,21.69438 -28.32656,27.62151 -10.2985,4.9523 -21.43515,6.96718 -32.77447,5.92968 z m 12.37451,-5.3897 c 5.52314,-0.68378 9.64053,-1.71342 14.4807,-3.62119 12.23486,-4.82245 22.49804,-13.92809 28.94263,-25.67833 l 1.12464,-2.05053 h -3.03109 -3.03109 l -1.06472,1.78594 c -2.85422,4.7876 -8.43894,10.91508 -13.13543,14.41201 -11.61048,8.64499 -26.829,12.06821 -40.90178,9.20036 -4.07467,-0.83036 -8.4765,-2.27742 -9.23499,-3.03591 -1.0315,-1.03151 -0.93682,-2.59591 0.21967,-3.62923 1.06446,-0.95109 1.23177,-0.93909 5.82685,0.41812 5.0962,1.50522 7.62842,1.85725 13.38322,1.86057 3.73639,0.002 5.7064,-0.12119 7.67292,-0.4804 9.57493,-1.74896 17.88993,-6.04475 24.63312,-12.72625 1.61551,-1.60073 3.72668,-3.98198 4.69148,-5.29166 l 1.75418,-2.38125 -3.20965,-0.0746 -3.20966,-0.0746 -1.33558,1.52982 c -4.94256,5.66132 -11.67011,10.09355 -18.70232,12.32143 -4.8603,1.53979 -7.16441,1.89027 -12.42678,1.89027 -3.33484,0 -5.29639,-0.12996 -7.01146,-0.46452 -6.01403,-1.1732 -12.12719,-3.78356 -16.98639,-7.25331 -2.52291,-1.8015 -6.24371,-5.25299 -7.64884,-7.09521 l -0.69528,-0.91156 h -9.37984 -9.379845 l 1.12464,2.05053 c 7.437815,13.56115 19.845235,23.46546 34.498895,27.53898 7.34318,2.0413 14.89171,2.6445 22.0318,1.76054 z m -32.76778,-12.27969 c -2.09738,-2.09738 0.25326,-5.35543 2.92182,-4.04972 1.7136,0.83846 1.94283,3.39482 0.39534,4.40878 -1.04093,0.68204 -2.42598,0.53212 -3.31716,-0.35906 z m 31.10889,-8.87548 c 4.63598,-0.66366 9.39666,-2.31528 13.22917,-4.5896 1.96006,-1.16315 5.29168,-3.67877 6.33335,-4.78214 l 0.77711,-0.82314 H 142.63322 117.3988 l 0.77711,0.82314 c 1.04167,1.10337 4.3733,3.61899 6.33335,4.78214 6.7895,4.02908 15.2084,5.70768 23.01875,4.5896 z m 57.1311,-15.90232 c 0.37026,-0.37026 0.41577,-2.49693 0.41577,-19.42797 0,-16.931039 -0.0455,-19.057719 -0.41577,-19.427979 -0.37559,-0.37559 -6.36947,-0.41577 -62.02589,-0.41577 -55.656425,0 -61.650295,0.0402 -62.025895,0.41577 -0.37026,0.37026 -0.41577,2.49694 -0.41577,19.427979 0,16.93104 0.0455,19.05771 0.41577,19.42797 0.3756,0.3756 6.36947,0.41578 62.025895,0.41578 55.65642,0 61.6503,-0.0402 62.02589,-0.41578 z M 87.203015,122.55325 c -0.29104,-0.0672 -0.73753,-0.30701 -0.99219,-0.53282 -0.42256,-0.37469 -0.46302,-1.14178 -0.46302,-8.77736 0,-7.14437 0.0602,-8.4527 0.41188,-8.95482 0.39162,-0.55912 0.59007,-0.58797 4.03489,-0.58656 1.99266,8.1e-4 4.09927,0.13156 4.68135,0.29056 2.52957,0.69097 3.82086,2.57986 3.83065,5.60344 0.0131,4.05728 -1.89118,5.91091 -6.37069,6.20112 l -2.35475,0.15256 v 2.70965 c 0,2.20211 -0.0867,2.80903 -0.46302,3.24021 -0.50122,0.57432 -1.47243,0.84869 -2.3151,0.65402 z m 6.84308,-10.55475 c 0.5382,-0.5382 0.69754,-0.95842 0.69754,-1.83963 0,-2.25688 -0.87833,-3.01908 -3.47906,-3.01908 h -1.28344 v 2.77813 2.77812 h 1.68371 c 1.46641,0 1.77374,-0.09 2.38125,-0.69754 z m 9.561085,10.56025 c -1.19964,-0.29487 -1.19062,-0.22315 -1.19062,-9.46583 0,-7.4435 0.0603,-8.84878 0.39138,-9.12357 0.28517,-0.23667 1.52382,-0.29676 4.56407,-0.22142 4.39733,0.10898 5.18151,0.30118 6.62834,1.62463 0.87731,0.80248 1.46877,3.07129 1.24036,4.75793 -0.24009,1.77289 -0.66171,2.56779 -1.94207,3.66146 l -1.04013,0.88847 1.55936,2.77812 c 0.85764,1.52797 1.56023,3.03543 1.56131,3.34992 0.003,0.77535 -1.43677,1.94175 -2.39627,1.94175 -0.91144,0 -1.37087,-0.64486 -3.47805,-4.88182 -1.33961,-2.69357 -1.41836,-2.7911 -2.25383,-2.7911 h -0.86572 v 3.45309 3.45308 l -0.91755,0.38337 c -0.95619,0.39953 -0.99831,0.40387 -1.86058,0.19192 z m 7.0822,-11.13878 c 0.34614,-0.34614 0.51108,-0.89636 0.52395,-1.74785 0.0276,-1.82743 -0.60114,-2.3532 -2.97456,-2.48731 l -1.85346,-0.10473 v 2.58177 2.58177 l 1.89945,-0.15924 c 1.36293,-0.11426 2.04215,-0.30193 2.40462,-0.66441 z m 9.85113,11.13803 c -1.19946,-0.29312 -1.19062,-0.22294 -1.19062,-9.45501 v -8.78867 l 0.67391,-0.30706 c 0.93348,-0.42532 2.0094,-0.38365 2.7068,0.10483 0.58707,0.4112 0.58804,0.42598 0.58804,8.97693 0,7.43364 -0.0549,8.61998 -0.41577,8.98083 -0.22868,0.22868 -0.57613,0.41578 -0.77212,0.41578 -0.19598,0 -0.5149,0.0454 -0.7087,0.10084 -0.1938,0.0555 -0.59049,0.0426 -0.88154,-0.0285 z m 10.98021,-0.11866 c -1.40032,-0.39792 -2.64523,-1.47785 -3.2686,-2.83543 -0.50715,-1.10447 -0.56027,-1.69287 -0.56387,-6.24641 -0.005,-6.43117 0.37527,-7.61643 2.86529,-8.92846 0.8952,-0.4717 1.54189,-0.57933 3.48072,-0.57933 1.93883,0 2.58553,0.10763 3.48072,0.57933 2.48862,1.31128 2.86949,2.49679 2.86853,8.92846 -6.8e-4,4.56887 -0.0521,5.13822 -0.56387,6.24641 -0.64772,1.40252 -1.88387,2.43899 -3.40413,2.85426 -1.28001,0.34964 -3.62991,0.3406 -4.89479,-0.0188 z m 4.29948,-3.94373 c 0.40285,-0.49291 0.46193,-1.173 0.45461,-5.23357 -0.009,-5.07772 -0.0855,-5.37663 -1.49847,-5.86921 -0.90281,-0.31472 -2.07567,0.0195 -2.63033,0.74955 -0.43771,0.57613 -0.50586,9.34431 -0.0788,10.14223 0.61046,1.14065 2.88854,1.26873 3.75302,0.211 z m 10.14286,3.97197 c -0.42416,-0.12325 -0.86882,-0.37797 -0.98813,-0.56604 -0.11932,-0.18808 -0.21876,-4.17322 -0.22099,-8.85587 -0.004,-7.57603 0.0442,-8.56219 0.43423,-8.95219 0.37871,-0.37872 0.99897,-0.42623 4.56406,-0.34963 4.69908,0.10097 5.59446,0.37698 7.0192,2.16373 0.76388,0.95797 0.81075,1.14917 0.81075,3.30729 0,1.93675 -0.095,2.44326 -0.61474,3.27925 -0.33811,0.54379 -0.96319,1.19454 -1.38906,1.44611 -0.42588,0.25157 -0.77433,0.55995 -0.77433,0.68528 0,0.12533 0.71684,1.51417 1.59298,3.08632 1.33741,2.39985 1.55352,2.96223 1.34705,3.5053 -0.43874,1.15396 -1.91057,1.80998 -3.06605,1.36658 -0.23863,-0.0916 -1.26481,-1.82519 -2.28039,-3.85249 -1.83738,-3.66775 -1.85072,-3.68559 -2.69661,-3.60381 l -0.8501,0.0822 -0.0739,3.34744 c -0.0494,2.2413 -0.18059,3.43141 -0.39687,3.60154 -0.5249,0.41291 -1.59071,0.54917 -2.41714,0.30902 z M 152.18227,111.9 c 1.41144,-0.39207 1.97298,-1.98441 1.25529,-3.55957 -0.37324,-0.81917 -1.71783,-1.27634 -3.39601,-1.15467 l -1.19062,0.0863 -0.0781,2.09328 c -0.0429,1.15131 -0.0169,2.25264 0.0579,2.4474 0.16263,0.42381 1.97053,0.47087 3.35154,0.0872 z m 10.71413,10.56758 c -0.42416,-0.12325 -0.86882,-0.37797 -0.98814,-0.56604 -0.11931,-0.18808 -0.21876,-4.17497 -0.22099,-8.85977 -0.004,-8.50429 -0.003,-8.51846 0.58399,-8.92968 0.6974,-0.48848 1.77332,-0.53015 2.7068,-0.10483 l 0.67391,0.30706 v 8.78867 c 0,6.71562 -0.078,8.85012 -0.33073,9.04917 -0.53173,0.41882 -1.59366,0.55695 -2.42484,0.31542 z m 12.17083,0 c -0.42416,-0.12325 -0.86882,-0.37797 -0.98814,-0.56604 -0.11931,-0.18808 -0.21876,-3.52688 -0.22099,-7.41956 l -0.004,-7.0776 h -1.85208 c -1.49931,0 -1.95288,-0.1008 -2.38125,-0.52917 -0.63302,-0.63302 -0.68487,-1.77663 -0.11729,-2.58696 0.40516,-0.57845 0.51032,-0.58804 6.4499,-0.58804 6.39215,0 6.39316,1.9e-4 6.70871,1.28517 0.17068,0.69508 -0.20585,1.90416 -0.6886,2.21112 -0.1728,0.10988 -1.17738,0.2016 -2.23241,0.20382 l -1.91823,0.004 v 7.24364 c 0,5.4796 -0.0805,7.30708 -0.33073,7.50414 -0.53172,0.41882 -1.59366,0.55695 -2.42484,0.31542 z m 16.58238,0.0894 c -1.16216,-0.21087 -1.39139,-0.98007 -1.39139,-4.66886 v -3.42138 l -2.64583,-4.33601 c -1.45521,-2.3848 -2.64584,-4.57091 -2.64584,-4.85801 0,-0.63133 1.43756,-1.57018 2.40639,-1.57157 0.89896,-0.001 1.17274,0.34679 3.17282,4.03391 0.92752,1.70987 1.75848,3.10885 1.84658,3.10885 0.0881,0 0.90954,-1.39898 1.82542,-3.10885 1.96401,-3.66664 2.25266,-4.03522 3.15907,-4.03391 0.96513,0.001 2.40639,0.9403 2.40639,1.56765 0,0.28494 -1.19063,2.49609 -2.64583,4.91365 l -2.64584,4.39558 v 3.39529 c 0,2.85511 -0.0737,3.47971 -0.46302,3.92586 -0.49935,0.57218 -1.43099,0.82979 -2.37892,0.6578 z M 98.658465,86.303861 c 2.854225,-4.787603 8.438945,-10.915081 13.135435,-14.412016 11.61048,-8.644986 26.829,-12.068208 40.90178,-9.200358 4.07467,0.830365 8.4765,2.277421 9.23499,3.035908 1.03151,1.031509 0.93682,2.595914 -0.21966,3.629231 -1.06447,0.951098 -1.23177,0.939092 -5.82685,-0.418114 -5.09621,-1.505219 -7.62843,-1.857254 -13.38323,-1.86057 -3.73638,-0.0022 -5.7064,0.121188 -7.67292,0.480394 -9.59649,1.752906 -17.87475,6.029712 -24.63312,12.726251 -1.61551,1.600729 -3.72668,3.981979 -4.69148,5.291666 l -1.75418,2.381248 3.20965,0.0746 3.20966,0.0746 1.33559,-1.52981 c 4.94255,-5.661326 11.6701,-10.093559 18.70231,-12.321431 4.8603,-1.539791 7.16441,-1.890276 12.42678,-1.890276 3.33484,0 5.2964,0.129958 7.01146,0.464526 6.01403,1.173195 12.1272,3.783558 16.98639,7.253303 2.52291,1.801503 6.24371,5.252988 7.64885,7.095218 l 0.69527,0.91155 h 9.37984 9.37984 l -1.12464,-2.0505 c -4.5315,-8.262154 -11.2758,-15.579711 -18.91144,-20.51887 -18.85332,-12.195375 -43.27782,-12.195375 -62.13113,0 -7.63564,4.939159 -14.379955,12.256716 -18.911455,20.51887 l -1.12464,2.05052 h 3.03109 3.03109 z M 166.00353,73.152013 c -0.99452,-0.432612 -1.45447,-1.191432 -1.4904,-2.458841 -0.0353,-1.246422 1.2495,-2.447126 2.61858,-2.447126 1.3173,0 2.48901,1.181862 2.48901,2.510583 0,1.303924 -0.40057,1.960603 -1.46801,2.406607 -1.07599,0.449577 -1.09002,0.449504 -2.14918,-0.01122 z m 1.087,14.114648 c -0.4274,-0.45272 -1.67007,-1.50195 -2.76148,-2.331604 -12.97964,-9.866796 -30.41202,-9.866796 -43.39166,0 -1.09141,0.829654 -2.33407,1.878884 -2.76148,2.331604 l -0.77711,0.82313 h 25.23442 25.23442 z"
       id="path4" /></g></svg>
