<?xml version="1.0" encoding="UTF-8" standalone="no"?>
<!-- Created with Inkscape (http://www.inkscape.org/) -->

<svg
   width="5.6183133in"
   height="5.4814725in"
   viewBox="0 0 142.70516 139.2294"
   version="1.1"
   id="svg53678"
   inkscape:version="1.2.2 (732a01da63, 2022-12-09)"
   sodipodi:docname="Changing-Objects-To-Paths.svg"
   xml:space="preserve"
   xmlns:inkscape="http://www.inkscape.org/namespaces/inkscape"
   xmlns:sodipodi="http://sodipodi.sourceforge.net/DTD/sodipodi-0.dtd"
   xmlns="http://www.w3.org/2000/svg"
   xmlns:svg="http://www.w3.org/2000/svg"><sodipodi:namedview
     id="namedview53680"
     pagecolor="#ffffff"
     bordercolor="#ffffff"
     borderopacity="1"
     inkscape:showpageshadow="0"
     inkscape:pageopacity="0"
     inkscape:pagecheckerboard="false"
     inkscape:deskcolor="#505050"
     inkscape:document-units="mm"
     showgrid="false"
     inkscape:zoom="0.73851712"
     inkscape:cx="526.05416"
     inkscape:cy="453.61169"
     inkscape:window-width="1920"
     inkscape:window-height="1009"
     inkscape:window-x="-8"
     inkscape:window-y="-8"
     inkscape:window-maximized="1"
     inkscape:current-layer="layer1"><inkscape:page
       x="0"
       y="0"
       width="142.70515"
       height="139.2294"
       id="page2"
       margin="0"
       bleed="0" /></sodipodi:namedview><defs
     id="defs53675" /><g
     inkscape:label="Layer 1"
     inkscape:groupmode="layer"
     id="layer1"
     transform="translate(-61.927899,-46.40267)"><path
       style="fill:#000000"
       d="m 89.671607,185.53743 c -1.7107,-0.1544 -3.73606,-0.52052 -5.19055,-0.93828 -0.87078,-0.2501 -1.28078,-0.64865 -0.90573,-0.88045 0.10174,-0.0629 4.50332,-4.37787 9.78128,-9.58887 6.735803,-6.65035 9.698323,-9.68645 9.938593,-10.18545 0.48716,-1.01174 0.60624,-2.00398 0.35325,-2.94353 -0.19714,-0.73217 -0.75386,-1.34155 -6.632823,-7.26033 -3.87289,-3.89913 -6.64395,-6.55876 -6.98842,-6.70741 -0.66766,-0.28814 -2.09082,-0.32293 -2.76219,-0.0675 -0.25826,0.0983 -0.7469,0.36709 -1.08587,0.59742 -0.33897,0.23034 -4.87963,4.67499 -10.09036,9.87701 -6.29339,6.28287 -9.55616,9.42669 -9.71865,9.36434 -0.31693,-0.12162 -1.04038,-3.17521 -1.30492,-5.50791 -0.35594,-3.13867 -0.0109,-6.91757 0.93051,-10.19211 2.53212,-8.80718 9.47894,-15.81837 18.25595,-18.4251 5.08403,-1.50993 10.76938,-1.4787 15.72372,0.0864 0.736483,0.23265 1.409263,0.39929 1.495083,0.3703 0.0858,-0.029 3.52847,-3.42224 7.65036,-7.54058 l 7.49433,-7.48788 7.96186,8.06285 c 4.37902,4.43456 7.95901,8.10729 7.95554,8.16163 -0.003,0.0543 -3.18695,3.24435 -7.07437,7.08893 -3.88742,3.84458 -7.28088,7.23298 -7.54103,7.52978 l -0.47299,0.53963 0.44036,1.39398 c 1.37519,4.35325 1.46279,10.07499 0.22506,14.6999 -0.71955,2.68863 -2.04365,5.62728 -3.57041,7.924 -2.60109,3.91284 -6.82131,7.59089 -10.90632,9.50519 -4.269213,2.00061 -9.427893,2.93327 -13.961263,2.5241 z m 91.545643,-7.94574 c -2.59393,-2.62038 -9.90654,-10.03063 -16.25024,-16.46721 -6.3437,-6.43657 -14.26446,-14.46874 -17.60169,-17.84926 -3.33723,-3.38052 -8.60889,-8.72419 -11.7148,-11.87482 C 99.324507,94.551264 94.859517,90.047484 94.653807,90.047484 c -0.0894,0 -2.85763,2.67486 -6.15165,5.94413 -9.66917,9.596516 -9.51159,9.451036 -10.23731,9.451036 -0.59922,0 -0.92449,-0.30545 -8.41467,-7.902066 -5.25069,-5.32531 -7.82407,-8.05108 -7.89171,-8.35903 -0.15546,-0.70779 0.23324,-1.25485 2.30444,-3.243324 1.05144,-1.009444 7.25538,-7.108718 13.78653,-13.553942 19.07244,-18.821497 18.89927,-18.653939 19.69091,-19.052656 0.87931,-0.442871 30.860573,-6.940074 31.973553,-6.928951 1.03632,0.01036 1.65737,0.395894 3.11354,1.932843 2.1204,2.238023 2.70637,1.292238 -6.31018,10.184846 -4.19198,4.134357 -9.15886,9.03324 -11.03751,10.886406 -1.87864,1.853166 -3.39458,3.458364 -3.36874,3.567108 0.0258,0.108744 5.08536,5.302285 11.24339,11.541202 6.15803,6.238918 13.8893,14.071648 17.1806,17.406064 3.2913,3.33442 8.59917,8.71502 11.79527,11.95687 3.19609,3.24186 8.50488,8.62395 11.79731,11.96021 7.99947,8.10595 16.87809,17.1101 23.75288,24.0887 3.10292,3.14977 7.71873,7.82882 10.25736,10.39788 2.53862,2.56907 4.6767,4.76717 4.75129,4.88468 0.0746,0.11752 0.13677,0.48979 0.13819,0.82727 0.002,0.58756 -0.3307,0.94162 -7.84566,8.33765 -4.31653,4.24822 -7.97373,7.77555 -8.1271,7.83852 -0.88146,0.36189 -0.98778,0.27772 -5.83729,-4.62124 z M 150.22497,106.8505 c -2.77669,-2.80314 -6.37546,-6.44223 -7.99727,-8.086856 l -2.94874,-2.99023 6.4331,-6.44225 6.4331,-6.44226 -0.49156,-1.73652 c -1.28751,-4.548412 -1.34705,-9.936898 -0.15856,-14.349237 2.50381,-9.295525 9.83371,-16.68597 19.03043,-19.187631 4.22849,-1.15022 9.26099,-1.211874 13.55522,-0.166066 0.74112,0.180491 1.51804,0.400566 1.72648,0.489054 0.43034,0.182689 0.49892,0.58956 0.13382,0.793881 -0.13484,0.07546 -4.52502,4.363249 -9.75595,9.528423 -10.03757,9.911374 -10.18146,10.074668 -10.34107,11.735822 -0.15526,1.615781 0.0446,1.866465 7.08458,8.885055 6.12088,6.102316 6.47489,6.424394 7.23266,6.580276 0.83512,0.171796 2.03608,0.02985 2.70071,-0.319218 0.6896,-0.362174 1.49829,-1.141738 10.85466,-10.463748 5.70143,-5.680494 9.38693,-9.231133 9.52625,-9.177669 0.26746,0.102634 0.68098,1.511596 1.08459,3.69547 0.41227,2.230721 0.40647,6.885948 -0.0114,9.144302 -2.99479,16.185766 -19.02292,25.978832 -34.69013,21.195406 l -1.48511,-0.45343 -6.43365,6.432026 -6.43366,6.43203 z"
       id="path1"
       inkscape:export-filename="priority-repair.png"
       inkscape:export-xdpi="96"
       inkscape:export-ydpi="96" /></g></svg>
