<?xml version="1.0" encoding="UTF-8" standalone="no"?>
<!-- Created with Inkscape (http://www.inkscape.org/) -->

<svg
   width="4.1445165in"
   height="3.7147417in"
   viewBox="0 0 105.27072 94.354439"
   version="1.1"
   id="svg53678"
   xml:space="preserve"
   xmlns="http://www.w3.org/2000/svg"
   xmlns:svg="http://www.w3.org/2000/svg"><defs
     id="defs53675" /><g
     id="layer1"
     transform="translate(-76.588587,-90.290123)"><path
       style="fill:#000000;stroke-width:1.59262"
       d="m 81.844393,184.03229 c -2.903169,-1.01931 -5.277011,-4.54184 -5.255665,-7.79883 0.01099,-1.67633 0.771093,-3.08654 15.786358,-29.28823 7.835294,-13.67263 17.936264,-31.30644 22.446604,-39.18628 4.51034,-7.879834 8.51148,-14.685591 8.89143,-15.123897 0.99491,-1.14774 3.82164,-2.344931 5.5367,-2.344931 1.81071,0 4.53677,1.213197 5.75136,2.559553 0.95874,1.062742 2.15057,3.120108 29.33672,50.641755 15.69415,27.43351 17.32519,30.46187 17.4924,32.47819 0.29274,3.53013 -1.64839,6.61302 -5.0619,8.03928 -1.37737,0.57549 -6.95121,0.65001 -47.3997,0.63369 -38.24296,-0.0159 -46.118084,-0.11658 -47.524307,-0.6103 z m 93.890437,-4.07523 c 0.50625,-0.26962 1.15144,-0.79107 1.43376,-1.15879 1.4128,-1.84012 1.07658,-2.5139 -17.42951,-34.92883 -25.23571,-44.202461 -27.08255,-47.369902 -28.24141,-48.435893 -1.18606,-1.091026 -2.92857,-1.225412 -4.21409,-0.324991 -0.48929,0.342701 -1.91841,2.475956 -3.17581,4.740539 -1.83283,3.300915 -21.15989,37.080325 -40.311369,70.455315 -3.402701,5.92984 -3.627193,7.05768 -1.773731,8.91114 l 1.231731,1.23172 h 45.780019 c 33.9969,0 46.01691,-0.12614 46.70041,-0.49021 z m -64.79065,-9.16198 c -0.12978,-0.20999 0.71233,-1.17576 1.87135,-2.14616 1.48496,-1.24326 2.10732,-2.07205 2.10732,-2.80625 0,-1.5351 -0.64915,-2.4896 -2.10261,-3.09165 -1.23023,-0.50957 -1.39229,-0.45066 -3.38701,1.23133 -1.15223,0.97156 -2.28465,1.64925 -2.51649,1.50596 -1.18128,-0.73007 0.32479,-5.31017 2.24205,-6.81827 0.67966,-0.53463 2.04145,-0.95271 3.65136,-1.12097 3.26035,-0.34077 3.8663,-0.67491 7.95469,-4.38626 1.85095,-1.68025 3.61239,-3.05502 3.91431,-3.05502 0.30192,0 -1.01125,1.56835 -2.91815,3.4852 -3.52873,3.54716 -3.98999,4.50898 -2.79544,5.82896 0.93487,1.03301 1.5752,0.68965 5.42157,-2.90722 2.00817,-1.87791 3.42559,-2.92269 3.532,-2.60345 0.0977,0.29328 -1.52513,2.16477 -3.60643,4.15888 -3.78399,3.62545 -3.78421,3.62578 -4.49464,6.82748 -0.77054,3.47259 -1.64813,4.75776 -3.8879,5.6936 -1.57892,0.65971 -4.62721,0.78433 -4.98598,0.20384 z m 25.38852,-8.78326 c -9.61675,-10.26074 -20.30309,-21.96853 -20.48194,-22.43971 -0.069,-0.18189 0.73708,-1.03756 1.79138,-1.90148 1.6819,-1.37819 2.0049,-1.49992 2.63451,-0.99287 0.39468,0.31784 7.07862,6.99396 14.8532,14.83581 9.68626,9.77006 14.17838,14.58649 14.27152,15.30183 0.16851,1.2944 -2.45317,3.9401 -3.90435,3.9401 -0.71722,0 -3.10144,-2.27479 -9.16432,-8.74368 z m -17.42281,-3.52705 c -0.22914,-0.72198 0.30921,-1.49017 2.80539,-4.00312 1.69892,-1.71034 3.30133,-3.10971 3.56091,-3.10971 0.25958,0 0.78079,0.34125 1.15825,0.75834 0.64522,0.71296 0.49098,0.95249 -2.57765,4.00312 -3.38145,3.36162 -4.46308,3.87575 -4.9469,2.35137 z M 133.04226,148.449 c 0,-0.21706 1.32663,-1.58242 2.94808,-3.03414 3.37771,-3.02414 3.82453,-3.89147 2.62352,-5.09248 -1.13604,-1.13603 -1.85538,-0.81064 -5.36091,2.42498 -2.78317,2.56888 -3.58175,3.11187 -3.58175,2.43539 0,-0.15941 1.68395,-2.00822 3.74212,-4.10848 3.49777,-3.56927 3.77605,-3.98369 4.26191,-6.3469 0.71019,-3.4544 1.48936,-4.806 3.17704,-5.51116 1.52404,-0.63678 5.25281,-0.82506 5.25281,-0.26522 0,0.1835 -0.83797,1.15605 -1.86215,2.1612 -1.02419,1.00517 -1.79851,2.04017 -1.72072,2.29999 0.0777,0.25984 0.252,0.97916 0.38713,1.59848 0.17833,0.81729 0.65019,1.25956 1.72085,1.6129 1.39436,0.46019 1.57165,0.40427 3.2364,-1.02071 2.42008,-2.07149 3.06037,-2.00422 2.69666,0.28333 -0.32673,2.05486 -1.71201,4.2953 -3.02605,4.89402 -0.4955,0.22575 -1.82632,0.54529 -2.95739,0.71007 -2.89918,0.42236 -4.32558,1.26081 -7.67096,4.50906 -2.74807,2.66829 -3.86659,3.37692 -3.86659,2.44967 z m -1.67377,-1.4874 c -0.69293,-0.83492 -0.65158,-0.89563 2.81073,-4.12668 3.10029,-2.89322 4.341,-3.29514 4.341,-1.40625 0,0.60879 -0.9929,1.81144 -2.91982,3.53665 -1.6059,1.43781 -3.09966,2.61418 -3.31946,2.61418 -0.2198,0 -0.6304,-0.27805 -0.91245,-0.6179 z m -23.86014,-5.09616 -2.0017,-2.34302 1.48941,-1.48942 c 1.31154,-1.31154 1.59036,-1.42637 2.33468,-0.96153 1.37571,0.85916 2.37215,0.20226 2.06009,-1.35806 -0.23926,-1.19632 -0.0389,-1.53024 2.16088,-3.60087 3.82286,-3.59851 4.05741,-3.70821 7.88402,-3.68793 3.36249,0.0178 6.54995,0.7427 6.54995,1.48955 0,0.21379 -0.43422,0.38871 -0.96492,0.38871 -1.63549,0 -5.92198,1.26456 -6.71297,1.98039 -0.41236,0.37319 -0.74974,1.20041 -0.74974,1.83829 0,1.44812 -3.90621,5.18475 -5.04291,4.82398 -1.10687,-0.3513 -2.30006,1.19055 -1.73639,2.24376 0.37951,0.70912 0.24553,1.01661 -0.8415,1.93128 -0.71108,0.59834 -1.5481,1.08789 -1.86004,1.08789 -0.31194,0 -1.46792,-1.05436 -2.56886,-2.34302 z"
       id="path4-0" /></g></svg>
