<?xml version="1.0" encoding="UTF-8" standalone="no"?>
<!-- Created with Inkscape (http://www.inkscape.org/) -->

<svg
   width="5in"
   height="4.833333in"
   viewBox="0 0 127 122.76666"
   version="1.1"
   id="svg53678"
   xml:space="preserve"
   xmlns="http://www.w3.org/2000/svg"
   xmlns:svg="http://www.w3.org/2000/svg"><defs
     id="defs53675" /><g
     id="layer1"
     transform="translate(-73.960503,-57.917193)"><path
       style="fill:#000000"
       d="m 75.392622,180.44958 c -1.41957,-0.36574 -1.43211,-0.39702 -1.43211,-3.57238 v -2.98167 l 1.5955,0.25694 c 3.28232,0.52861 6.3999,-0.48254 10.04647,-3.25844 2.86648,-2.18206 4.19574,-2.7598 6.34969,-2.7598 2.14389,0 3.36949,0.53179 6.36273,2.76081 2.731908,2.03441 4.462248,2.85875 6.747578,3.21454 3.45011,0.53713 6.51704,-0.43225 10.17334,-3.21555 2.86647,-2.18206 4.19573,-2.7598 6.34968,-2.7598 2.14389,0 3.36949,0.53179 6.36273,2.76081 2.73191,2.03441 4.46225,2.85875 6.74758,3.21454 3.45012,0.53713 6.51704,-0.43225 10.17334,-3.21555 2.86647,-2.18206 4.19573,-2.7598 6.34969,-2.7598 2.14389,0 3.36949,0.53179 6.36273,2.76081 2.7319,2.03441 4.46225,2.85875 6.74757,3.21454 3.45012,0.53713 6.51705,-0.43225 10.17334,-3.21555 2.86647,-2.18206 4.19573,-2.7598 6.34969,-2.7598 2.20783,0 3.35888,0.52421 6.84041,3.11525 3.38506,2.51925 5.3883,3.23641 8.40323,3.00839 1.26216,-0.0954 2.46275,-0.3826 3.40685,-0.81482 l 1.45784,-0.66742 v 2.47641 2.47642 l -1.22927,1.08205 c -1.08512,0.95516 -3.15822,1.87334 -4.22969,1.87334 -1.64134,0 -3.2062,-0.70499 -5.72381,-2.57866 -3.13518,-2.33328 -4.82711,-3.17043 -7.20345,-3.5642 -3.41228,-0.56543 -6.315,0.3564 -10.17605,3.23167 -2.99324,2.22902 -4.21884,2.76081 -6.36273,2.76081 -2.15395,0 -3.48321,-0.57774 -6.34968,-2.7598 -3.71096,-2.82491 -6.77787,-3.79794 -10.1891,-3.23268 -2.27912,0.37766 -4.02442,1.21551 -6.73182,3.23167 -2.99324,2.22902 -4.21884,2.76081 -6.36273,2.76081 -2.15396,0 -3.48321,-0.57774 -6.34969,-2.7598 -3.71095,-2.82491 -6.77786,-3.79794 -10.18909,-3.23268 -2.27912,0.37766 -4.02443,1.21551 -6.73182,3.23167 -2.99324,2.22902 -4.21884,2.76081 -6.36273,2.76081 -2.15396,0 -3.48322,-0.57774 -6.34969,-2.7598 -3.710948,-2.82491 -6.777858,-3.79794 -10.189088,-3.23268 -2.27913,0.37766 -4.02443,1.21551 -6.73183,3.23167 -1.22992,0.91591 -2.75691,1.89561 -3.39329,2.17711 -1.31189,0.58031 -3.49936,0.81233 -4.71232,0.49981 z m 0,-10.58333 c -1.44901,-0.37333 -1.43211,-0.31871 -1.43211,-4.63072 v -4.04 l 1.5955,0.25694 c 3.28232,0.52861 6.3999,-0.48254 10.04647,-3.25844 2.86648,-2.18206 4.19574,-2.7598 6.34969,-2.7598 2.14389,0 3.36949,0.53179 6.36273,2.76081 2.731908,2.03441 4.462248,2.85875 6.747578,3.21454 3.45011,0.53713 6.51704,-0.43225 10.17334,-3.21555 2.86647,-2.18206 4.19573,-2.7598 6.34968,-2.7598 2.14389,0 3.36949,0.53179 6.36273,2.76081 2.73191,2.03441 4.46225,2.85875 6.74758,3.21454 3.45012,0.53713 6.51704,-0.43225 10.17334,-3.21555 2.86647,-2.18206 4.19573,-2.7598 6.34969,-2.7598 2.14389,0 3.36949,0.53179 6.36273,2.76081 2.7319,2.03441 4.46225,2.85875 6.74757,3.21454 3.45012,0.53713 6.51705,-0.43225 10.17334,-3.21555 2.86647,-2.18206 4.19573,-2.7598 6.34969,-2.7598 2.20783,0 3.35888,0.52421 6.84041,3.11525 3.38506,2.51925 5.3883,3.23641 8.40323,3.0084 1.26216,-0.0955 2.46275,-0.38261 3.40685,-0.81483 l 1.45784,-0.66742 v 3.53475 3.53475 l -1.22927,1.08204 c -1.08512,0.95516 -3.15822,1.87335 -4.22969,1.87335 -1.64134,0 -3.2062,-0.70499 -5.72381,-2.57866 -3.13518,-2.33328 -4.82711,-3.17043 -7.20345,-3.5642 -3.41228,-0.56544 -6.315,0.3564 -10.17605,3.23167 -2.99324,2.22902 -4.21884,2.76081 -6.36273,2.76081 -2.15395,0 -3.48321,-0.57774 -6.34968,-2.7598 -3.71096,-2.82491 -6.77787,-3.79794 -10.1891,-3.23268 -2.27912,0.37766 -4.02442,1.21551 -6.73182,3.23167 -2.99324,2.22902 -4.21884,2.76081 -6.36273,2.76081 -2.15396,0 -3.48321,-0.57774 -6.34969,-2.7598 -3.71095,-2.82491 -6.77786,-3.79794 -10.18909,-3.23268 -2.27912,0.37766 -4.02443,1.21551 -6.73182,3.23167 -2.99324,2.22902 -4.21884,2.76081 -6.36273,2.76081 -2.15396,0 -3.48322,-0.57774 -6.34969,-2.7598 -3.710948,-2.82491 -6.777858,-3.79794 -10.189088,-3.23268 -2.27913,0.37766 -4.02443,1.21551 -6.73183,3.23167 -1.22992,0.9159 -2.75691,1.89561 -3.39329,2.17711 -1.31189,0.58031 -3.49936,0.81232 -4.71232,0.49981 z m 0,-12.7 c -1.42021,-0.36591 -1.43211,-0.39576 -1.43211,-3.58968 v -2.99897 l 1.12447,0.26115 c 1.5499,0.35994 4.26557,0.10094 6.087,-0.58055 0.83725,-0.31325 2.56351,-1.33854 3.83613,-2.27842 3.33335,-2.4618 4.83045,-3.13718 6.94406,-3.13261 2.14414,0.005 3.37441,0.53918 6.36273,2.76454 3.887018,2.8946 6.756908,3.78487 10.259488,3.18256 2.33994,-0.40238 3.94999,-1.1731 6.64839,-3.18256 2.99323,-2.22902 4.21884,-2.76082 6.36272,-2.76082 2.14389,0 3.36949,0.5318 6.36273,2.76082 3.88702,2.8946 6.75692,3.78487 10.25949,3.18256 2.33995,-0.40238 3.94999,-1.1731 6.64839,-3.18256 1.22992,-0.91591 2.77774,-1.90797 3.43958,-2.20458 1.50676,-0.67526 4.20514,-0.71787 5.66613,-0.0895 0.86238,0.37093 0.99748,0.53375 0.85961,1.03596 -0.09,0.32772 -0.24122,1.64339 -0.33611,2.92372 -0.12127,1.63615 -0.2661,2.29195 -0.4874,2.20703 -1.04219,-0.39992 -3.35832,-0.4352 -5.06483,-0.0771 -2.32897,0.48867 -3.35384,1.00261 -6.18414,3.10115 -2.98389,2.21242 -4.20925,2.74176 -6.34678,2.74176 -2.15396,0 -3.48321,-0.57774 -6.34969,-2.7598 -3.71095,-2.82491 -6.77786,-3.79794 -10.18909,-3.23268 -2.30671,0.38223 -4.17946,1.2798 -6.74486,3.23268 -2.86648,2.18206 -4.19574,2.7598 -6.34969,2.7598 -2.15396,0 -3.48322,-0.57774 -6.34969,-2.7598 -3.710948,-2.82491 -6.777858,-3.79794 -10.189088,-3.23268 -2.30672,0.38223 -4.17946,1.2798 -6.74487,3.23268 -1.1743,0.89392 -2.67559,1.86439 -3.33621,2.15662 -1.35084,0.59754 -3.52946,0.8354 -4.75636,0.51929 z m 88.658508,-0.11857 c -1.45515,-0.47921 -2.12822,-0.86045 -3.96875,-2.24799 -0.87313,-0.65823 -1.61302,-1.2112 -1.64422,-1.22882 -0.1879,-0.10616 0.52371,-6.55102 0.87155,-7.89339 0.2307,-0.89029 1.30169,-3.40909 2.37998,-5.59732 1.12274,-2.27843 2.1921,-4.88311 2.50244,-6.09527 0.70564,-2.75614 0.94848,-6.68894 0.53525,-8.66843 -0.7531,-3.60764 -3.45658,-7.18841 -6.64365,-8.79955 -2.60637,-1.31757 -5.50623,-4.83798 -7.01283,-8.51351 -0.74236,-1.81106 -0.84077,-1.67192 2.31355,-3.27107 10.59741,-5.372576 23.42293,-1.03098 28.51545,9.65284 1.38132,2.89793 1.85953,5.06174 2.13462,9.65871 0.37277,6.22926 1.4431,10.25284 4.0169,15.10039 1.85143,3.48701 2.06842,4.20627 2.3205,7.69178 0.25404,3.5127 0.81496,6.02682 1.86605,8.36389 0.91217,2.02819 0.75755,1.99791 -2.62129,-0.51332 -2.93393,-2.18056 -4.70107,-3.04099 -7.0424,-3.42896 -3.41123,-0.56526 -6.47814,0.40777 -10.18909,3.23268 -1.1743,0.89392 -2.67559,1.86439 -3.33621,2.15662 -1.53192,0.67764 -3.643,0.8469 -4.99785,0.40072 z m 33.35799,-1.03622 c -0.53091,-0.81335 -1.67098,-3.35751 -1.86889,-4.17055 -0.15517,-0.63747 -0.0897,-0.67849 1.59178,-0.99747 0.96449,-0.18296 2.22046,-0.57082 2.79105,-0.86192 l 1.03744,-0.52926 v 2.48523 2.48522 l -1.18471,1.09203 c -1.3491,1.24355 -1.81532,1.3414 -2.36667,0.49672 z M 136.79905,125.3427 c -3.40909,-0.64072 -7.71837,-3.63498 -10.55687,-7.33531 -3.83699,-5.00199 -6.49948,-12.20841 -7.43966,-20.136496 -1.97249,-16.63304 4.43517,-33.53624 14.54118,-38.35919 2.95072,-1.408191 4.15684,-1.594512 10.32181,-1.594512 h 5.38521 l -1.86513,1.785937 c -3.59179,3.439294 -6.43819,7.890939 -8.44523,13.207981 -6.69322,17.731664 -3.13604,39.66316 8.22665,50.72072 l 2.07439,2.01869 -5.45972,-0.0296 c -3.00284,-0.0163 -6.05503,-0.14148 -6.78263,-0.27823 z m 21.82812,0.12503 c -6.34894,-1.06279 -12.30532,-6.98871 -15.73933,-15.65884 -2.82881,-7.14215 -3.89073,-15.915036 -2.91866,-24.112076 2.04693,-17.260735 11.82246,-29.153599 22.66438,-27.573373 3.45575,0.503681 6.10864,1.938627 9.09093,4.917275 1.33104,1.329405 2.92336,3.191006 3.5385,4.136892 5.00781,7.700336 7.44545,19.055006 6.36993,29.671446 -0.25861,2.55269 -1.17163,7.584706 -1.42153,7.834606 -0.0608,0.0608 -0.72642,-0.3762 -1.4791,-0.97116 -0.75268,-0.59496 -1.54006,-1.17775 -1.74972,-1.29508 -0.32961,-0.18446 -0.31868,-0.55145 0.0807,-2.711466 0.64872,-3.50821 0.64932,-12.58868 0.001,-16.12418 -1.12527,-6.13713 -2.7564,-10.579665 -5.25713,-14.3183 -1.93665,-2.895311 -4.03086,-4.819208 -6.5655,-6.031528 -1.84899,-0.884375 -2.1568,-0.94913 -4.51164,-0.94913 -2.39093,0 -2.63649,0.05398 -4.55206,1.000713 -5.84013,2.886347 -9.81536,9.74986 -11.75641,20.298245 -0.64571,3.50901 -0.64323,12.8387 0.004,16.40416 1.406,7.741086 3.9937,13.571746 7.68551,17.317186 0.89148,0.90443 2.21618,1.97915 2.94378,2.38826 3.1252,1.75724 4.07399,2.6963 5.0184,4.96695 0.40669,0.97782 0.40399,0.99167 -0.1862,0.95616 -0.32937,-0.0198 -0.89652,-0.0859 -1.26032,-0.14676 z m -71.665178,-8.58747 c -3.3021,-0.95023 -6.92143,-5.63277 -8.76366,-11.33807 -4.03185,-12.486436 -1.93191,-28.841526 4.61045,-35.907875 0.92185,-0.995679 2.24241,-2.093624 2.95714,-2.458632 l 1.29146,-0.659533 16.734898,-0.07372 c 9.20419,-0.04055 16.73489,-0.02542 16.73489,0.03361 0,0.05903 -0.64582,1.461427 -1.43515,3.116428 -3.40134,7.131606 -4.91485,13.965356 -4.91485,22.191386 0,8.226026 1.51351,15.059766 4.91485,22.191376 0.78933,1.655 1.43515,3.05398 1.43515,3.10885 0,0.2328 -32.738768,0.034 -33.565178,-0.20383 z m 61.928358,-16.42489 c -1.24483,-6.760896 -1.03557,-13.560506 0.61904,-20.114746 0.24798,-0.98226 0.54083,-1.78593 0.65079,-1.78593 0.23214,0 1.1185,3.47543 1.61948,6.35 0.45571,2.6148 0.4586,10.32041 0.005,13.52492 -0.35839,2.532246 -0.36486,2.547106 -1.32292,3.035796 -0.52952,0.27011 -1.03095,0.52685 -1.11429,0.57056 -0.0833,0.0437 -0.28906,-0.66757 -0.45717,-1.5806 z m 21.92409,-1.019786 c -2.7595,-0.97729 -5.73605,-1.37789 -9.01227,-1.21295 -1.67349,0.0842 -3.68023,0.32938 -4.45943,0.54472 l -1.41673,0.39153 0.16078,-0.71095 c 0.0884,-0.39102 0.23346,-2.73502 0.32228,-5.20887 0.24305,-6.76945 -0.70966,-12.72857 -2.92839,-18.316883 l -0.91671,-2.308918 0.76973,-1.196473 c 1.04135,-1.618676 3.05267,-3.533321 4.49972,-4.283445 0.88954,-0.461121 1.62552,-0.617195 2.91042,-0.617195 2.2974,0 3.816,0.793391 5.96839,3.118165 4.45856,4.815656 7.11106,14.551889 6.61099,24.266209 -0.21676,4.2108 -0.44235,5.88501 -0.80543,5.97733 -0.14552,0.037 -0.91202,-0.16202 -1.70335,-0.44227 z"
       id="path4" /></g></svg>
