<?xml version="1.0" encoding="UTF-8" standalone="no"?>
<!-- Created with Inkscape (http://www.inkscape.org/) -->

<svg
   width="3.168in"
   height="4.0155225in"
   viewBox="0 0 80.4672 101.99427"
   version="1.1"
   id="svg53678"
   xml:space="preserve"
   xmlns="http://www.w3.org/2000/svg"
   xmlns:svg="http://www.w3.org/2000/svg"><defs
     id="defs53675" /><g
     id="layer1"
     transform="translate(29.739207,103.6575)"><path
       style="fill:#ffffff"
       d="m -28.554527,-2.0765022 c -1.3176,-0.57358 -1.58652,-2.0435 -0.55171,-3.01565 l 0.61236,-0.57529 h 39.029019 39.02902 l 0.57529,0.61237 c 0.9501,1.01133 0.72649,2.33403 -0.50197,2.96929 -1.07786,0.55738 -76.912279,0.56638 -78.192009,0.009 z m 3.77911,-5.08594 c -0.0994,-0.0994 -0.18069,-12.4585898 -0.18069,-27.4649098 v -27.28421 l 0.59532,-1.17946 c 0.39225,-0.77714 0.95631,-1.3814 1.65364,-1.7715 1.000209,-0.55953 1.359939,-0.59229 6.549599,-0.5964 l 5.49127,-0.004 -0.0673,29.17031 -0.0673,29.1703098 -6.89692,0.0704 c -3.79331,0.0387 -6.978229,-0.0109 -7.077609,-0.11024 z m 10.402649,-4.8549998 c 0.47756,-0.47756 0.52917,-0.88194 0.52917,-4.14635 0,-4.63481 0.0364,-4.5849 -3.3422,-4.5849 -3.32624,0 -3.34443,0.0276 -3.22702,4.90195 0.10575,4.39011 0.0817,4.35847 3.3125,4.35847 1.84561,0 2.2833,-0.0849 2.72755,-0.52917 z m 0.15363,-12.81671 c 0.2814,-0.38486 0.37554,-1.42941 0.37554,-4.16719 0,-4.65132 -0.0423,-4.71193 -3.28809,-4.71193 -2.09371,0 -2.26322,0.0425 -2.77813,0.69714 -0.49046,0.62351 -0.54837,1.0579 -0.54837,4.11307 0,3.31045 0.0209,3.4368 0.67599,4.09191 0.6373,0.63731 0.80506,0.67068 2.93175,0.58329 1.86131,-0.0765 2.32143,-0.18251 2.63131,-0.60629 z m -0.10832,-12.75659 c 0.42365,-0.38339 0.48386,-0.88641 0.48386,-4.04217 0,-4.76795 -0.008,-4.78036 -3.19,-4.78036 -3.387,0 -3.42459,0.0502 -3.42459,4.57134 0,4.67476 0.01,4.68908 3.23532,4.68908 1.87269,0 2.51968,-0.0978 2.89541,-0.43789 z m -0.0453,-12.79128 c 0.47756,-0.47756 0.52917,-0.88195 0.52917,-4.14636 0,-4.63312 0.0351,-4.58489 -3.3333,-4.58489 -3.27833,0 -3.28129,0.004 -3.28129,4.68908 0,4.49561 0.0548,4.57134 3.3073,4.57134 1.89618,0 2.33196,-0.083 2.77812,-0.52917 z m 5.0285598,10.92031 c 10e-4,-22.24517 0.0907,-32.80503 0.28442,-33.50284 0.37114,-1.33663 2.18263,-3.13251 3.58126,-3.55041 1.5521,-0.46375 30.3966202,-0.46547 31.9438802,-0.002 1.44245,0.43218 3.21346,2.16868 3.58277,3.51297 0.20391,0.74224 0.29119,10.7585 0.29222,33.53594 l 0.001,32.4776098 h -4.47516 -4.47515 l -0.0889,-4.3120098 c -0.13976,-6.77807 0.26055,-6.53591 -10.80453,-6.53591 -8.5589002,0 -9.3837902,0.11163 -10.0990202,1.36666 -0.23605,0.4142 -0.39561,2.05603 -0.48432,4.98334 l -0.13229,4.3656198 -4.56406,0.0724 -4.56406,0.0724 z m 11.95009,16.95222 c 0.4257,-0.38525 0.48385,-0.89179 0.48385,-4.21443 0,-4.69785 0.0618,-4.6081 -3.175,-4.6081 -3.23312,0 -3.175,-0.0835 -3.175,4.56213 0,4.7207 -0.0149,4.69829 3.12903,4.69829 1.72539,0 2.36662,-0.10259 2.73712,-0.43789 z m 10.5833302,0 c 0.4257,-0.38525 0.48386,-0.89179 0.48386,-4.21443 0,-4.69785 0.0618,-4.6081 -3.175,-4.6081 -3.2331302,0 -3.1750002,-0.0835 -3.1750002,4.56213 0,4.7207 -0.0149,4.69829 3.1290202,4.69829 1.72539,0 2.36662,-0.10259 2.73712,-0.43789 z m 10.65142,0.0221 c 0.34075,-0.34075 0.41577,-1.12678 0.41577,-4.35631 0,-4.65663 0.1201,-4.48833 -3.20292,-4.48833 -3.15705,0 -3.14708,-0.0145 -3.14708,4.58424 0,4.70994 -0.0231,4.67618 3.19711,4.67618 1.75753,0 2.42233,-0.10099 2.73712,-0.41578 z m -21.3389402,-12.6961 c 0.56299,-0.39433 0.58804,-0.58008 0.58804,-4.35953 0,-3.91335 -0.006,-3.95139 -0.65801,-4.37879 -0.81843,-0.53626 -4.56674,-0.45013 -5.25459,0.12074 -0.3708,0.30773 -0.4374,0.96004 -0.4374,4.28435 0,4.7386 0.004,4.74511 3.175,4.74511 1.38096,0 2.18072,-0.12733 2.58696,-0.41188 z m 10.5833402,0 c 0.56288,-0.39426 0.58804,-0.58037 0.58804,-4.35062 0,-4.77117 0.006,-4.7625 -3.23388,-4.7625 -3.0655202,0 -3.1161202,0.0792 -3.1161202,4.87978 0,4.62452 0.0141,4.64522 3.1750002,4.64522 1.38096,0 2.18071,-0.12733 2.58696,-0.41188 z m 10.58333,0 c 0.56299,-0.39433 0.58804,-0.58008 0.58804,-4.35953 0,-3.91335 -0.006,-3.95139 -0.65801,-4.37879 -0.50912,-0.33359 -1.14309,-0.40912 -2.80167,-0.3338 -2.89868,0.13164 -2.89032,0.1175 -2.89032,4.88935 0,4.56678 0.0192,4.59465 3.175,4.59465 1.38096,0 2.18071,-0.12733 2.58696,-0.41188 z m -10.32602,-12.87456 c 0.23696,-0.19496 0.33073,-1.3635 0.33073,-4.12148 0,-4.83216 0.009,-4.81708 -3.02485,-4.81708 -3.3275802,0 -3.3251502,-0.003 -3.3251502,4.59464 0,2.60668 0.1021,3.90613 0.33072,4.20895 0.51125,0.67717 4.9029002,0.78137 5.6885502,0.13497 z m -10.5701102,0.004 c 0.21823,-0.21823 0.3175,-1.53713 0.3175,-4.21833 0,-4.71516 -0.006,-4.72458 -3.175,-4.72458 -3.16866,0 -3.175,0.009 -3.175,4.72458 0,2.6812 0.0993,4.0001 0.3175,4.21833 0.20285,0.20285 1.23472,0.3175 2.8575,0.3175 1.62278,0 2.65465,-0.11465 2.8575,-0.3175 z m 21.1666702,0 c 0.21769,-0.21769 0.3175,-1.52113 0.3175,-4.14635 0,-4.8089 0.008,-4.79656 -3.02484,-4.79656 -3.32084,0 -3.32516,0.006 -3.32516,4.53031 0,2.04905 0.12248,3.93541 0.27389,4.21833 0.24208,0.45234 0.57395,0.51177 2.8575,0.51177 1.6567,0 2.69752,-0.11391 2.90111,-0.3175 z M 2.6739618,-60.851962 c 0.33866,-0.33866 0.41577,-1.1077 0.41577,-4.14636 0,-4.73505 0.025,-4.69828 -3.19711,-4.69828 -3.21323,0 -3.15289,-0.0886 -3.15289,4.6302 0,4.72295 -0.0636,4.63021 3.175,4.63021 1.77764,0 2.44384,-0.10038 2.75923,-0.41577 z m 10.5833302,0 c 0.62788,-0.62788 0.60927,-7.66312 -0.0221,-8.36079 -0.59778,-0.66055 -4.8511902,-0.71323 -5.4963402,-0.0681 -0.62788,0.62788 -0.60927,7.66312 0.0221,8.36079 0.59779,0.66055 4.8511902,0.71323 5.4963402,0.0681 z m 10.48734,0.14188 c 0.47203,-0.25262 0.51177,-0.59093 0.51177,-4.35632 0,-4.81886 0.1305,-4.6302 -3.20292,-4.6302 -3.15705,0 -3.14708,-0.0145 -3.14708,4.58423 0,4.68957 -0.009,4.67618 3.10111,4.67618 1.22394,0 2.45564,-0.12325 2.73712,-0.27389 z m 8.10079,53.5476398 c -0.0994,-0.0994 -0.18069,-13.2641698 -0.18069,-29.2550798 v -29.07439 l 5.75469,0.0805 c 5.54087,0.0775 5.78686,0.10342 6.62057,0.69806 0.47624,0.33968 1.10187,1.08017 1.3903,1.64552 0.51417,1.00787 0.52309,1.56386 0.45703,28.48658 l -0.0674,27.4586398 -6.89692,0.0704 c -3.7933,0.0387 -6.97822,-0.0109 -7.0776,-0.11024 z m 8.86046,-4.7637098 c 0.42679,-0.38624 0.48385,-0.89486 0.48385,-4.31271 0,-2.66098 -0.0995,-3.97429 -0.3175,-4.19233 -0.20359,-0.20359 -1.24441,-0.3175 -2.9011,-0.3175 -2.28355,0 -2.61542,0.0594 -2.8575,0.51178 -0.15068,0.28153 -0.2739,2.14691 -0.2739,4.14635 0,4.61179 -0.006,4.60229 3.12903,4.60229 1.72539,0 2.36662,-0.10258 2.73712,-0.43788 z m 0.0465,-12.75766 c 0.3708,-0.30774 0.43739,-0.96004 0.43739,-4.28435 0,-4.74503 -5e-5,-4.74511 -3.20456,-4.74511 -3.16343,0 -3.18075,0.0274 -3.08841,4.88734 0.0745,3.9225 0.0817,3.96471 0.73672,4.30945 0.86302,0.45424 4.51371,0.3349 5.11886,-0.16733 z m 0.0216,-12.88482 c 0.33866,-0.33866 0.41577,-1.10769 0.41577,-4.14635 0,-4.7207 0.0149,-4.69829 -3.12902,-4.69829 -3.24795,0 -3.22098,-0.039 -3.22098,4.65232 0,4.69784 -0.0618,4.6081 3.175,4.6081 1.77764,0 2.44384,-0.10039 2.75923,-0.41578 z m -0.0681,-12.72211 c 0.42458,-0.38423 0.48385,-0.88879 0.48385,-4.11843 0,-2.03113 -0.12274,-3.90991 -0.27389,-4.19233 -0.24095,-0.45021 -0.57284,-0.51177 -2.75923,-0.51177 -3.39581,0 -3.31688,-0.10857 -3.31688,4.56213 0,4.7207 -0.0149,4.69829 3.12903,4.69829 1.72539,0 2.36662,-0.10259 2.73712,-0.43789 z M 9.7043218,-81.510792 c -1.69409,-0.55812 -2.64584,-1.80187 -2.64584,-3.4576 0,-1.47111 0.91777,-2.75111 2.32373,-3.24089 4.0327902,-1.40485 6.4870202,4.59816 2.6284602,6.42917 -0.93093,0.44175 -1.55998,0.51521 -2.3063502,0.26932 z m -6.05227,-10.24474 c -0.60032,-0.61168 -1.09007,-1.226699 -1.08835,-1.366711 0.006,-0.469451 2.78716,-2.192855 4.43482,-2.747911 3.3347802,-1.123407 7.3870102,-0.482073 10.2211602,1.617673 l 1.49484,1.107489 -1.2506,1.26969 c -1.23485,1.2537 -1.25742,1.26344 -1.79312,0.77384 -2.5198,-2.302955 -6.9318802,-2.436175 -9.8829802,-0.29841 l -1.04429,0.75648 z m -5.21296,-5.367665 -1.01023,-1.232844 1.0445,-0.907634 c 5.65779,-4.916435 14.4973502,-5.818975 20.9573102,-2.139785 1.70203,0.96937 4.03198,2.784689 4.03198,3.141415 0,0.294714 -1.88898,2.370582 -2.15778,2.371256 -0.0954,2.4e-4 -0.6842,-0.42632 -1.3085,-0.947911 -2.56325,-2.141533 -5.86946,-3.28499 -9.4983,-3.28499 -3.6446802,0 -7.2045702,1.242399 -9.4987502,3.315055 -0.55904,0.505055 -1.13649,0.918281 -1.28322,0.918281 -0.14673,0 -0.72139,-0.554779 -1.27701,-1.232843 z"
       id="path7" /></g></svg>
