<?xml version="1.0" encoding="UTF-8" standalone="no"?>
<!-- Created with Inkscape (http://www.inkscape.org/) -->

<svg
   width="2.9574444in"
   height="3.0819755in"
   viewBox="0 0 75.119089 78.282177"
   version="1.1"
   id="svg53678"
   xml:space="preserve"
   xmlns="http://www.w3.org/2000/svg"
   xmlns:svg="http://www.w3.org/2000/svg"><defs
     id="defs53675" /><g
     id="layer1"
     transform="translate(38.094061,191.7831)"><path
       style="fill:#ffffff"
       d="m -37.747663,-113.76974 c -0.46119,-0.46119 -0.4622,-48.11737 -10e-4,-48.57854 0.20775,-0.20774 1.30528,-0.3175 3.175,-0.3175 h 2.8575 v -2.98979 c 0,-1.97261 0.10802,-3.09781 0.3175,-3.30729 0.22865,-0.22865 2.03112,-0.3175 6.44128,-0.3175 7.48337,0 6.99955,-0.26205 6.99955,3.79115 v 2.82343 h 1.98438 1.98437 v -5.66964 c 0,-6.6357 -0.0497,-6.50119 2.40015,-6.50119 h 1.5686 v -7.78799 c 0,-4.41989 0.1115997,-8.08149 0.2580397,-8.46666 0.28043,-0.73759 1.23781,-0.92909 1.80571,-0.36119 0.2332,0.2332 0.3175,2.48121 0.3175,8.46667 v 8.14917 h 1.98438 1.98437 v -3.78589 c 0,-4.14207 0.1902,-4.80174 1.33774,-4.63976 l 0.64664,0.0913 0.0729,4.16719 0.0729,4.16719 h 6.58896 c 5.6372003,0 6.6490303,0.0601 7.0047403,0.41577 0.36924,0.36924 0.41578,2.29502 0.41578,17.20687 v 16.7911 l 2.84427,-0.0751 2.84427,-0.0751 0.0718,-5.0736 c 0.0685,-4.83957 0.0479,-5.08121 -0.44673,-5.23818 -0.28518,-0.0905 -0.88303,-0.57974 -1.32856,-1.08717 -0.68263,-0.77748 -0.80989,-1.13962 -0.80905,-2.30244 0.002,-2.57608 1.57127,-4.06388 4.03691,-3.82697 3.52026,0.33826 4.64986,5.07821 1.63422,6.85748 l -0.90962,0.53669 v 5.12617 5.12617 l 3.9026,0.0732 3.90261,0.0732 v 13.36146 13.36146 l -32.8205403,0.0672 c -25.3081297,0.0518 -32.8934397,-0.006 -33.1390597,-0.25135 z m 23.75855,-24.29272 v -22.49252 l -10.91406,0.0691 -10.91406,0.0691 -0.0676,22.42344 -0.0676,22.42344 h 10.9817 10.9817 z m -19.79083,11.59169 c -0.50483,-0.50484 -0.42454,-5.09392 0.0983,-5.61673 0.36009,-0.36009 1.51406,-0.41577 8.61636,-0.41577 5.14689,0 8.39115,0.10199 8.71235,0.27389 0.45233,0.24208 0.51177,0.57395 0.51177,2.8575 0,1.65669 -0.11391,2.69752 -0.3175,2.90111 -0.4543,0.45429 -17.16695,0.45429 -17.62125,0 z m 15.82208,-2.8575 v -0.79375 h -7.01146 -7.01145 v 0.79375 0.79375 h 7.01145 7.01146 z m -15.81858,-5.60567 c -0.47043,-0.47043 -0.4357,-5.08227 0.0412,-5.4781 0.25815,-0.21424 2.86233,-0.28058 9.06198,-0.23083 l 8.69973,0.0698 v 2.91042 2.91042 l -8.74098,0.0696 c -6.57739,0.0524 -8.82044,-0.01 -9.06198,-0.25135 z m 15.81858,-2.7331 v -0.93044 l -6.9418,0.0705 c -6.45487,0.0656 -6.94826,0.1041 -7.03384,0.54902 -0.23812,1.23803 -0.21939,1.24131 7.08817,1.24131 h 6.88747 z m -15.97764,-5.8346 c -0.30036,-0.78271 -0.17721,-5.02011 0.15556,-5.35289 0.4995,-0.4995 17.23488,-0.44993 17.65168,0.0523 0.19952,0.24041 0.28028,1.28175 0.23083,2.97656 l -0.076,2.60679 -8.90005,0.0696 c -7.94344,0.0621 -8.91744,0.0243 -9.06197,-0.35237 z m 15.97764,-2.63207 v -0.93043 l -6.94531,0.0705 -6.94531,0.0705 -0.0829,0.8599 -0.0829,0.85989 h 7.02822 7.02822 z m -15.67656,-5.44076 c -0.64696,-0.37682 -0.68571,-5.00998 -0.0473,-5.64845 0.36009,-0.36009 1.51406,-0.41577 8.61636,-0.41577 5.14689,0 8.39115,0.10199 8.71235,0.27389 0.45233,0.24208 0.51177,0.57395 0.51177,2.8575 0,1.65669 -0.11391,2.69752 -0.3175,2.90111 -0.41065,0.41065 -16.77415,0.44035 -17.47573,0.0317 z m 15.67656,-2.88922 v -0.79375 h -7.01146 -7.01145 v 0.79375 0.79375 h 7.01145 7.01146 z m 28.04584,10.45104 v -28.44271 H -0.75994328 -11.607863 v 28.44271 28.44271 H -0.75994328 10.087977 Z m -19.7335303,21.17011 c -0.6417597,-0.97944 -0.4452297,-4.79266 0.27411,-5.31865 0.61694,-0.45112 6.49926,-0.53118 7.30598,-0.0994 0.45233,0.24208 0.51177,0.57395 0.51177,2.8575 0,1.65669 -0.11391,2.69752 -0.3175,2.90111 -0.21506,0.21506 -1.45091,0.3175 -3.83036,0.3175 -3.45018,0 -3.52055,-0.0117 -3.944,-0.65802 z m 5.97519,-2.38469 v -0.92604 h -1.98437 -1.98438 v 0.74965 c 0,0.41231 0.0794,0.82903 0.17639,0.92604 0.097,0.097 0.98999,0.17639 1.98438,0.17639 h 1.80798 z m 3.85536002,2.62693 c -0.31549,-0.31549 -0.41577,-0.98194 -0.41577,-2.76312 0,-3.11314 0.0788,-3.1711 4.30959998,-3.1711 1.72343,0 3.36382,0.12325 3.64529,0.27389 0.45234,0.24208 0.51177,0.57395 0.51177,2.8575 0,1.65669 -0.1139,2.69752 -0.3175,2.90111 -0.21494,0.21494 -1.44806,0.3175 -3.81756,0.3175 -2.82909,0 -3.57975998,-0.0797 -3.91582998,-0.41578 z m 5.88484998,-2.69308 0.0829,-0.85989 h -2.00113 -2.00114 v 0.93763 0.93763 l 1.91823,-0.0777 1.91823,-0.0777 z m -15.76383,-5.81373 c -0.24969,-0.61255 -0.25063,-4.56562 -0.001,-5.17358 0.1745,-0.42538 0.56485,-0.46316 4.10104,-0.39688 l 3.90818,0.0732 v 2.91042 2.91042 l -3.90818,0.0733 c -3.53657,0.0663 -3.92641,0.0285 -4.09982,-0.39688 z m 6.02362,-2.58679 v -0.92604 h -1.98437 -1.98438 v 0.92604 0.92604 h 1.98438 1.98437 z m 3.71723002,2.53794 c -0.35809,-0.66909 -0.36085,-4.40163 -0.004,-5.06888 0.25052,-0.4681 0.58349,-0.51142 3.90259998,-0.50772 1.9958,0.002 3.78193,0.10127 3.96919,0.22008 0.25038,0.15886 0.3204,0.94543 0.26459,2.97251 l -0.0759,2.75649 -3.88955,0.0731 c -3.63326998,0.0683 -3.90783998,0.039 -4.16717998,-0.44562 z m 6.07235998,-2.53794 v -0.92604 h -1.98438 -1.98437 v 0.92604 0.92604 h 1.98437 1.98438 z m -15.90087,-5.87988 c -0.4150397,-1.07843 -0.20191,-4.79461 0.29292,-5.10745 0.4827,-0.30518 7.13967,-0.33432 7.61405,-0.0333 0.25038,0.15886 0.32039,0.94542 0.26458,2.97251 l -0.0759,2.75648 -3.90646,0.0732 -3.90645,0.0733 z m 6.11128,-2.3222 v -0.92604 h -1.98437 -1.98438 v 0.92604 0.92604 h 1.98438 1.98437 z m 3.71723002,2.53793 c -0.35809,-0.66909 -0.36085,-4.40163 -0.004,-5.06887 0.25054,-0.46814 0.58617,-0.51177 3.93634998,-0.51177 2.81346,0 3.7336,0.0857 3.96935,0.36978 0.19953,0.24041 0.28028,1.28174 0.23084,2.97656 l -0.0761,2.60678 -3.88955,0.0731 c -3.63326998,0.0683 -3.90783998,0.039 -4.16717998,-0.44563 z m 6.07235998,-2.53793 v -0.92604 h -1.98438 -1.98437 v 0.92604 0.92604 h 1.98437 1.98438 z m -15.75115,-5.79658 c -0.5337297,-0.81458 -0.4909497,-4.39036 0.062,-5.17976 0.3423,-0.4887 0.66481,-0.53304 3.87732,-0.53304 2.37252,0 3.60647,0.10252 3.82145,0.3175 0.43246,0.43246 0.43246,5.28255 0,5.715 -0.21506,0.21506 -1.45091,0.3175 -3.83036,0.3175 -3.41943,0 -3.52396,-0.0169 -3.93037,-0.6372 z m 5.96156,-2.5378 v -0.79375 h -1.98437 -1.98438 v 0.79375 0.79375 h 1.98438 1.98437 z m 3.87747002,2.69115 c -0.3353,-0.3705 -0.43788,-1.01173 -0.43788,-2.73712 0,-3.11649 0.0176,-3.12903 4.39968998,-3.12903 2.31653,0 3.53517,0.10319 3.74947,0.3175 0.2036,0.20359 0.3175,1.24441 0.3175,2.90111 0,2.28355 -0.0594,2.61542 -0.51177,2.8575 -0.28147,0.15064 -1.98943,0.27389 -3.79545,0.27389 -2.84516,0 -3.34215998,-0.0646 -3.72155998,-0.48385 z m 5.91211998,-2.69115 v -0.79375 h -1.98438 -1.98437 v 0.79375 0.79375 h 1.98437 1.98438 z m -15.60795,-5.54912 c -0.49483,-0.31285 -0.7079597,-4.02902 -0.29292,-5.10745 l 0.28275,-0.7347 3.90645,0.0732 3.90646,0.0732 0.0759,2.75648 c 0.0558,2.02709 -0.0142,2.81365 -0.26458,2.97252 -0.47438,0.30098 -7.13135,0.27184 -7.61405,-0.0333 z m 5.81836,-2.78525 v -0.92605 h -1.98437 -1.98438 v 0.92605 0.92604 h 1.98438 1.98437 z m 3.85536002,2.62693 c -0.56081,-0.56082 -0.60051,-4.92237 -0.049,-5.38011 0.24873,-0.20643 1.59017998,-0.28074 4.16718998,-0.23084 l 3.80037,0.0736 0.0761,2.60678 c 0.0494,1.69482 -0.0313,2.73615 -0.23084,2.97657 -0.47214,0.56889 -7.18871998,0.5291 -7.76381998,-0.046 z m 5.93422998,-2.62693 v -0.92605 h -1.98438 -1.98437 v 0.92605 0.92604 h 1.98437 1.98438 z m -15.90527,-6.14447 c -0.3851397,-0.98543 -0.13157,-4.83362 0.33849,-5.13688 0.19428,-0.12534 2.02011,-0.19816 4.0574,-0.16181 l 3.70417,0.0661 v 2.91042 2.91041 l -3.90646,0.0733 -3.90645,0.0732 z m 6.11568,-2.3222 v -0.92604 h -1.98437 -1.98438 v 0.92604 0.92604 h 1.98438 1.98437 z m 3.71723002,2.53793 c -0.35809,-0.66909 -0.36085,-4.40163 -0.004,-5.06887 0.25054,-0.46813 0.58617,-0.51177 3.93634998,-0.51177 2.81346,0 3.7336,0.0857 3.96935,0.36978 0.19953,0.24041 0.28028,1.28174 0.23084,2.97656 l -0.0761,2.60678 -3.88955,0.0731 c -3.63326998,0.0683 -3.90783998,0.039 -4.16717998,-0.44563 z m 6.07235998,-2.53793 v -0.92604 h -1.98438 -1.98437 v 0.92604 0.92604 h 1.98437 1.98438 z m 20.1083303,40.08438 v -11.37709 h -6.87917 -6.87916 v 11.37709 11.37708 h 6.87916 6.87917 z m -11.10319,7.69031 c -0.16892,-0.31563 -0.27389,-3.18315 -0.27389,-7.48176 0,-5.88015 0.0644,-7.06192 0.41188,-7.55802 0.50057,-0.71466 0.95126,-0.74532 1.53149,-0.10418 0.38508,0.42551 0.43788,1.36023 0.43788,7.75229 0,5.30045 -0.086,7.35441 -0.3175,7.58594 -0.48607,0.48607 -1.4837,0.37779 -1.78986,-0.19427 z m 6.50676,0.1075 c -0.0913,-0.23802 -0.16607,-3.75258 -0.16607,-7.81014 0,-7.1066 0.0194,-7.38778 0.52917,-7.66059 0.37654,-0.20152 0.68294,-0.20091 1.06231,0.002 0.51832,0.2774 0.5312,0.50014 0.46302,8.01295 l -0.0701,7.72763 -0.82613,0.0804 c -0.57319,0.0558 -0.87696,-0.0521 -0.99218,-0.35237 z m -1.06904,-34.38651 c 0.55638,-0.84915 0.32241,-1.78279 -0.5659,-2.2582 -1.47701,-0.79048 -2.94824,1.16223 -1.81725,2.41196 0.66188,0.73136 1.85357,0.65447 2.38315,-0.15376 z m -40.9012,-11.24672 v -2.11667 h -4.63021 -4.6302 v 2.11667 2.11666 h 4.6302 4.63021 z m 45.65563,9.46613 c -0.22653,-0.32343 -0.41188,-0.8416 -0.41188,-1.1515 0,-0.70005 -0.96244,-2.14388 -1.88398,-2.82629 -0.38134,-0.28239 -1.32718,-0.72007 -2.10185,-0.97261 -1.59421,-0.5197 -2.12249,-1.08883 -1.67433,-1.80375 0.91585,-1.46101 5.27643,0.35032 6.85204,2.84624 0.9134,1.44692 1.39151,3.53671 0.935,4.08677 -0.48456,0.58385 -1.23564,0.50552 -1.715,-0.17886 z m 4.66813,-0.7878 c -0.17463,-0.17462 -0.31751,-0.58688 -0.31751,-0.91612 0,-1.2026 -1.14769,-3.64709 -2.28134,-4.85904 -1.40753,-1.50478 -3.18937,-2.50133 -5.39045,-3.01481 -2.12924,-0.49672 -2.72596,-1.28446 -1.58065,-2.08667 0.59797,-0.41884 1.88798,-0.26533 3.94948,0.46997 2.54428,0.90751 5.20491,3.16579 6.33146,5.37402 0.87666,1.71838 1.48275,4.47784 1.08799,4.95349 -0.3955,0.47655 -1.35919,0.51896 -1.79898,0.0792 z m 5.13535,0.0997 c -0.074,-0.1198 -0.31755,-1.10207 -0.5411,-2.18281 -1.25399,-6.0621 -5.91419,-10.64227 -12.22663,-12.01666 -2.45377,-0.53425 -2.84249,-0.70505 -2.95958,-1.30032 -0.46358,-2.3569 6.09222,-0.92127 10.65225,2.3327 3.55548,2.53714 5.69171,5.90616 6.77046,10.67762 0.434,1.91966 0.20484,2.70731 -0.78768,2.70731 -0.4252,0 -0.83368,-0.098 -0.90772,-0.21784 z"
       id="path8" /></g></svg>
