<?xml version="1.0" encoding="UTF-8" standalone="no"?>
<!-- Created with Inkscape (http://www.inkscape.org/) -->

<svg
   width="8.3333282in"
   height="6.1770835in"
   viewBox="0 0 211.66654 156.89792"
   version="1.1"
   id="svg53678"
   xml:space="preserve"
   xmlns="http://www.w3.org/2000/svg"
   xmlns:svg="http://www.w3.org/2000/svg"><defs
     id="defs53675" /><g
     id="layer1"
     transform="translate(-38.560883,-41.633903)"><path
       style="fill:#000000"
       d="m 38.560883,193.76933 v -4.7625 h 9.92187 9.92188 l -7e-4,-1.12448 c -3.8e-4,-0.61846 0.18019,-3.32713 0.40128,-6.01927 0.22109,-2.69213 0.93297,-11.74088 1.58195,-20.10833 0.64898,-8.36745 1.36255,-17.35667 1.58572,-19.97604 0.22316,-2.61938 0.58703,-7.14375 0.80859,-10.05417 0.22156,-2.91041 0.69197,-8.9826 1.04536,-13.49375 0.35339,-4.51114 0.94351,-12.13114 1.31137,-16.93333 0.36786,-4.802195 0.73659,-9.234555 0.8194,-9.849705 l 0.15056,-1.11845 -4.84396,-0.0722 -4.84395,-0.0722 -0.0798,-1.09238 c -0.0695,-0.95089 -9.2e-4,-1.11268 0.52917,-1.24917 0.44317,-0.11412 9.21638,-4.93639 9.66396,-5.31188 0.0325,-0.0273 0.23738,-2.18598 0.4552,-4.797063 0.21781,-2.611085 0.46629,-5.551098 0.55216,-6.533364 l 0.15613,-1.785944 h -8.05802 -8.05802 l -0.11755,-1.124419 c -0.0647,-0.618464 -0.10694,-1.134249 -0.0939,-1.146189 0.013,-0.01194 1.80956,-0.690863 3.99237,-1.508718 2.18282,-0.817855 5.99282,-2.256888 8.46667,-3.197849 l 4.49792,-1.71084 0.30911,-3.659608 c 0.17001,-2.012785 0.31884,-3.98703 0.33073,-4.387213 l 0.0216,-0.727604 h -5.42396 -5.42396 v -1.035799 c 0,-1.173945 -0.72068,-0.554734 7.05797,-6.064214 l 4.54442,-3.218736 h 5.9137 5.91369 l 5.74761,4.024652 5.74761,4.024652 v 1.134722 1.134723 h -5.45264 -5.45264 l 0.14298,0.595313 c 0.0786,0.327422 0.22606,2.101569 0.32761,3.94255 0.10154,1.840981 0.25966,3.468655 0.35138,3.617054 0.0917,0.148399 2.07056,0.98826 4.39743,1.866358 2.32687,0.878099 6.13567,2.330602 8.46401,3.227786 2.32833,0.897183 4.501217,1.690336 4.828637,1.76256 0.50685,0.111804 0.59532,0.30366 0.59532,1.291098 v 1.159781 h -8.814277 -8.81428 l 0.11454,1.653645 c 0.063,0.909506 0.30873,4.033895 0.54605,6.943088 l 0.43151,5.289438 3.96875,2.30485 c 2.18281,1.26767 4.23664,2.31047 4.56406,2.31733 0.52732,0.011 0.59531,0.14847 0.59531,1.20311 v 1.19062 h -4.30195 -4.30195 l 0.45287,5.6224 c 0.52566,6.526075 1.25952,15.834995 2.20574,27.979685 0.36848,4.72943 0.90364,11.51599 1.18925,15.08125 0.28561,3.56526 0.58113,7.2562 0.65672,8.20209 0.0756,0.94588 0.61344,7.79198 1.19522,15.21354 0.58178,7.42156 1.28767,16.3441 1.56863,19.82786 0.28096,3.48376 0.45122,6.43056 0.37837,6.54844 -0.0728,0.11788 21.067687,0.21432 46.978977,0.21432 h 47.11145 l 0.004,-0.59531 c 0.004,-0.61225 0.57378,-8.19594 1.03901,-13.82448 0.14433,-1.74625 0.44778,-5.55625 0.67432,-8.46667 0.22655,-2.91041 0.70478,-8.9826 1.06274,-13.49374 0.35796,-4.51115 0.77508,-9.80943 0.92693,-11.77396 0.15186,-1.96453 0.57336,-7.32235 0.93668,-11.90625 0.36332,-4.58391 0.89947,-11.37047 1.19144,-15.08125 0.7734,-9.82928 1.53785,-19.429375 1.72237,-21.629695 l 0.16086,-1.91823 h -4.78507 -4.78508 v -1.19062 c 0,-0.65485 0.11816,-1.19063 0.26257,-1.19063 0.14442,0 2.43637,-1.23392 5.09323,-2.74205 l 4.83066,-2.74206 0.29926,-3.938672 c 0.1646,-2.166271 0.38914,-5.097764 0.49899,-6.514429 l 0.19971,-2.575754 -8.0263,-0.07008 -8.02631,-0.07008 -0.0728,-1.088731 -0.0728,-1.08873 2.17619,-0.802981 c 2.00704,-0.740572 10.19348,-3.852577 13.28868,-5.051581 1.31424,-0.509102 1.3241,-0.521759 1.50343,-1.928763 0.0993,-0.778963 0.26429,-2.75575 0.3667,-4.392859 l 0.18618,-2.976563 h -5.32763 -5.32764 l 0.009,-1.124479 0.009,-1.124479 5.03737,-3.571875 c 2.77056,-1.964531 5.356,-3.779607 5.74545,-4.033503 0.6198,-0.40408 1.4447,-0.461801 6.61706,-0.463021 l 5.90899,-0.0014 3.08684,2.199226 c 1.69777,1.209575 4.24771,3.014081 5.66653,4.010014 l 2.57969,1.810787 v 1.149361 1.149361 h -5.33049 -5.3305 l 0.18556,3.108854 c 0.10206,1.70987 0.25262,3.599122 0.33458,4.198339 l 0.14902,1.089484 9.09197,3.408432 9.09197,3.408432 0.005,1.12448 0.005,1.124479 h -8.81298 -8.81297 l 0.19875,1.860031 c 0.10931,1.023017 0.32745,3.79122 0.48476,6.151562 0.43435,6.517078 -0.0562,5.613408 4.42121,8.145268 2.128,1.20334 4.14894,2.24139 4.49099,2.30678 0.54015,0.10325 0.6219,0.27134 0.6219,1.27866 v 1.15978 h -4.26087 -4.26087 l 0.16364,2.05052 c 0.09,1.12779 0.45611,5.80099 0.81358,10.384905 0.35748,4.5839 0.7726,9.82265 0.92251,11.64166 0.34685,4.2087 1.1891,14.86103 1.86188,23.54792 0.2874,3.71078 0.69942,8.94953 0.91562,11.64167 0.37451,4.66355 1.12764,14.22696 2.26072,28.70729 0.28467,3.63802 0.59128,7.53732 0.68135,8.6651 l 0.16377,2.05052 h 14.25996 14.25996 v 4.7625 4.7625 H 144.39421 38.560883 Z m 52.55461,-5.4901 c -0.0767,-0.40018 -0.21827,-2.06706 -0.31453,-3.70417 l -0.175,-2.97656 h -14.90443 c -8.19743,0 -14.95899,0.0893 -15.02569,0.19844 -0.0667,0.10914 -0.20806,1.77601 -0.31415,3.70416 l -0.19289,3.50573 h 15.5331 15.5331 z m 128.586857,-1.12448 c -0.0916,-1.01865 -0.24139,-2.68552 -0.33295,-3.70417 l -0.16648,-1.85208 h -14.88429 -14.88428 l -0.15345,1.38906 c -0.0844,0.76399 -0.23126,2.43086 -0.32637,3.70417 l -0.17291,2.3151 h 15.54361 15.5436 z M 88.552753,179.2834 c -0.0147,-0.20265 -10.84335,-8.59589 -11.97964,-9.28535 -0.59894,-0.36341 -0.7802,-0.2622 -4.17179,2.32956 -1.95011,1.49021 -4.76098,3.62025 -6.24638,4.73341 -1.48541,1.11317 -2.7058,2.11323 -2.71198,2.22238 -0.006,0.10914 5.64422,0.19843 12.55646,0.19843 6.91224,0 12.56124,-0.0893 12.55333,-0.19843 z M 217.11053,179.233 c -0.12885,-0.36348 -12.03195,-9.54079 -12.37453,-9.54079 -0.34431,0 -12.28006,9.17632 -12.40811,9.53947 -0.0546,0.15481 4.66714,0.25011 12.39132,0.25011 7.67791,0 12.44558,-0.0957 12.39132,-0.24879 z M 66.209833,174.712 c 1.60073,-1.22241 3.6248,-2.76265 4.49792,-3.42274 0.87313,-0.6601 1.64703,-1.266 1.71979,-1.34645 0.0728,-0.0805 0.57683,-0.48005 1.12015,-0.888 l 0.98785,-0.74171 -3.63368,-2.80104 c -1.99853,-1.54056 -4.50396,-3.49245 -5.56762,-4.33752 -2.08149,-1.65374 -2.95936,-1.93258 -2.96313,-0.94118 -10e-4,0.32742 -0.11705,1.905 -0.25734,3.50572 -0.46482,5.30352 -1.05955,13.21552 -1.06144,14.12094 l -0.002,0.89177 1.12448,-0.90861 c 0.61846,-0.49973 2.43416,-1.90876 4.03489,-3.13118 z m 128.322917,0.27304 c 2.32833,-1.79646 5.22534,-4.03399 6.4378,-4.97229 1.21245,-0.93829 2.10542,-1.79093 1.98437,-1.89474 -0.19669,-0.16868 -8.80122,-6.80304 -10.37608,-8.00028 -1.45609,-1.10693 -1.44106,-1.15967 -2.10674,7.39167 -0.33702,4.32924 -0.68207,8.64526 -0.76679,9.59114 -0.13035,1.45544 -0.0965,1.67606 0.22004,1.4353 0.20574,-0.15647 2.27907,-1.75433 4.6074,-3.5508 z m -104.239167,2.31394 c -0.0746,-0.32742 -0.31853,-3.15516 -0.54197,-6.28385 -0.45229,-6.33317 -0.87549,-11.15629 -0.98885,-11.26964 -0.041,-0.041 -1.67936,1.18002 -3.64082,2.71338 -1.96145,1.53336 -4.42948,3.4415 -5.4845,4.24031 -1.05503,0.79882 -1.91269,1.53115 -1.90591,1.6274 0.007,0.0962 1.57977,1.36563 3.49555,2.82084 1.91578,1.45521 4.67253,3.56857 6.12611,4.69635 1.45358,1.12779 2.74035,2.05052 2.85949,2.05052 0.11913,0 0.15554,-0.26789 0.0809,-0.59531 z M 218.92,177.03444 c -0.0801,-0.47295 -0.41483,-4.52521 -0.74388,-9.00503 -0.44784,-6.097 -0.68065,-8.12619 -0.92587,-8.0698 -0.54017,0.12424 -10.91669,8.23911 -10.79244,8.44015 0.0631,0.10215 1.51348,1.2584 3.22299,2.56944 1.70951,1.31104 4.41789,3.39945 6.01862,4.6409 1.60073,1.24145 3.01296,2.26327 3.1383,2.27071 0.12533,0.007 0.16236,-0.37343 0.0823,-0.84637 z M 80.189023,163.95728 c 2.20686,-1.69902 4.34904,-3.36589 4.76039,-3.70416 l 0.7479,-0.61504 h -9.71729 -9.71729 l 1.03189,0.76953 c 0.56753,0.42323 2.69876,2.07895 4.73605,3.67936 2.03729,1.60041 3.80355,2.921 3.92502,2.93464 0.12146,0.0136 2.02646,-1.3653 4.23333,-3.06433 z m 129.455037,-0.6227 4.61427,-3.5642 -4.76956,-0.0721 c -2.62326,-0.0397 -6.93325,-0.0397 -9.57775,0 l -4.80818,0.0721 2.59961,1.98437 c 1.42978,1.09141 3.5637,2.72531 4.74203,3.63089 1.17834,0.90558 2.24208,1.61651 2.36387,1.57983 0.12179,-0.0367 2.29786,-1.67057 4.83571,-3.63089 z M 86.715043,157.27927 c 0,-0.20795 -10.70882,-7.43077 -11.01712,-7.43077 -0.27564,0 -11.19637,7.25892 -11.2024,7.44615 -0.003,0.0935 4.99515,0.17394 11.10702,0.17863 6.11188,0.005 11.1125,-0.0826 11.1125,-0.19401 z m 128.848027,0.013 c -0.002,-0.0922 -2.51679,-1.82373 -5.58792,-3.84777 -5.26243,-3.46824 -5.61828,-3.65863 -6.18173,-3.3073 -2.86049,1.78366 -10.68247,7.02599 -10.69719,7.16932 -0.0103,0.10006 5.04147,0.17552 11.2261,0.16768 6.18464,-0.008 11.24297,-0.0897 11.24074,-0.18193 z M 68.361723,152.42819 c 2.94288,-1.92815 5.35609,-3.62479 5.36269,-3.77031 0.0198,-0.43696 -9.76399,-6.79876 -9.87504,-6.42112 -0.0543,0.18463 -0.29468,3.01461 -0.53418,6.28882 -0.23951,3.27422 -0.48688,6.28055 -0.54973,6.68073 -0.0628,0.40019 -0.0333,0.72761 0.0656,0.72761 0.099,0 2.58773,-1.57758 5.53061,-3.50573 z m 20.20072,3.175 c -0.003,-0.1819 -0.23859,-3.00964 -0.52448,-6.28386 -0.28589,-3.27421 -0.52191,-6.23375 -0.52448,-6.57674 -0.003,-0.42421 -0.12291,-0.57825 -0.37441,-0.48174 -0.78647,0.30179 -9.70626,6.33112 -9.56913,6.46824 0.31975,0.31975 10.61405,7.17162 10.79875,7.18763 0.10914,0.009 0.19633,-0.13163 0.19375,-0.31353 z m 108.618307,-3.28413 c 2.98321,-1.98817 5.35679,-3.68209 5.27463,-3.76425 -0.0822,-0.0822 -2.31509,-1.5938 -4.96205,-3.35919 -4.77685,-3.18592 -4.81397,-3.20467 -4.98858,-2.51961 -0.14346,0.56288 -1.02534,11.77171 -1.01708,12.92718 0.001,0.1819 0.0624,0.33073 0.13572,0.33073 0.0733,0 2.57416,-1.62669 5.55736,-3.61486 z m 19.48102,-3.47805 c -0.27854,-3.5365 -0.57031,-6.49387 -0.64837,-6.57193 -0.19952,-0.19952 -9.70129,6.06569 -9.68919,6.3888 0.0168,0.44965 10.69056,7.35025 10.77107,6.96353 0.0401,-0.19271 -0.15496,-3.24389 -0.43351,-6.7804 z M 80.954463,144.07748 c 2.58189,-1.70088 4.69613,-3.18182 4.6983,-3.29096 0.002,-0.10914 -4.54424,-0.19844 -10.10313,-0.19844 -6.36404,0 -10.014,0.0928 -9.85573,0.25066 0.85683,0.85443 9.84717,6.56322 10.17127,6.45867 0.21721,-0.0701 2.50739,-1.51904 5.08929,-3.21993 z m 128.527497,0.0686 c 2.76476,-1.82666 5.02683,-3.37447 5.02683,-3.43958 0,-0.0651 -4.52437,-0.1184 -10.05417,-0.1184 -5.52979,0 -10.04986,0.0893 -10.04459,0.19844 0.01,0.20451 9.49129,6.61483 9.84641,6.65709 0.10928,0.013 2.46077,-1.4709 5.22552,-3.29755 z M 64.490043,138.20683 c 0,-0.14552 -0.11906,-0.26458 -0.26458,-0.26458 -0.14552,0 -0.26458,0.11906 -0.26458,0.26458 0,0.14552 0.11906,0.26459 0.26458,0.26459 0.14552,0 0.26458,-0.11907 0.26458,-0.26459 z m 22.07948,0.0339 c -0.22852,-0.20969 -7.51864,-5.44608 -9.57858,-6.88015 l -0.86055,-0.59909 -5.09257,3.62597 c -2.80091,1.99428 -5.20568,3.72901 -5.34392,3.85494 -0.14192,0.12928 4.40264,0.22898 10.43781,0.22898 6.0934,0 10.5811,-0.0992 10.43781,-0.23065 z m 106.772597,0.11397 c 0,-0.0642 -0.11906,-0.19026 -0.26458,-0.2802 -0.14552,-0.0899 -0.26458,-0.0374 -0.26458,0.11668 0,0.15411 0.11906,0.2802 0.26458,0.2802 0.14552,0 0.26458,-0.0525 0.26458,-0.11668 z m 17.43154,-3.35627 c -2.6751,-1.91013 -5.11573,-3.63975 -5.42362,-3.84362 -0.52204,-0.34566 -0.91462,-0.11783 -5.82083,3.3781 -2.89358,2.06182 -5.31065,3.79144 -5.37129,3.84361 -0.0606,0.0522 4.74747,0.0949 10.68466,0.0949 h 10.79491 z M 69.525623,133.28541 c 2.77943,-1.97919 5.01589,-3.63522 4.9699,-3.68008 -0.4722,-0.46064 -9.03134,-6.48374 -9.10668,-6.4084 -0.0555,0.0555 -0.27994,2.35412 -0.49871,5.10802 -0.21878,2.7539 -0.47321,5.81076 -0.56541,6.79303 -0.0922,0.98227 -0.0968,1.78594 -0.0101,1.78594 0.0866,0 2.43159,-1.61933 5.21102,-3.59851 z m 128.283447,0.25946 c 2.55811,-1.83648 4.80221,-3.39703 4.98688,-3.46789 0.73809,-0.28323 0.90928,-0.14117 -7.1656,-5.94631 -0.7492,-0.53861 -1.43302,-0.9851 -1.51959,-0.99219 -0.0866,-0.007 -0.3591,2.75531 -0.60562,6.13867 -0.24652,3.38336 -0.48249,6.47898 -0.52437,6.87916 -0.0419,0.40019 -0.0192,0.72761 0.0505,0.72761 0.0697,0 2.21967,-1.50257 4.77779,-3.33905 z m -110.911497,1.15624 c -0.0852,-0.76399 -0.30477,-3.50243 -0.48792,-6.08542 -0.18315,-2.583 -0.43307,-4.69636 -0.55537,-4.69636 -0.38111,0 -7.84644,5.4091 -7.85101,5.68855 -0.004,0.26879 8.38373,6.41505 8.81435,6.45856 0.12917,0.013 0.16515,-0.60135 0.0799,-1.36533 z m 128.268567,-5.07305 c -0.25162,-3.06704 -0.50004,-5.62362 -0.55204,-5.6813 -0.0874,-0.097 -1.96721,1.06503 -2.60479,1.61019 -0.15325,0.13103 -1.40003,1.03722 -2.77062,2.01375 -1.37059,0.97652 -2.52485,1.89391 -2.56503,2.03863 -0.0402,0.14472 1.91464,1.66855 4.34406,3.38628 3.47282,2.45547 4.43729,3.02542 4.51151,2.66601 0.0519,-0.25142 -0.11147,-2.96652 -0.36309,-6.03356 z m -134.579737,-4.29189 4.02698,-2.87204 -4.24083,-0.0727 c -2.33246,-0.04 -6.13113,-0.04 -8.44148,0 l -4.20063,0.0727 4.1344,2.97952 c 2.27392,1.63873 4.26044,2.93115 4.41449,2.87204 0.15404,-0.0591 2.09222,-1.3999 4.30707,-2.97952 z m 126.852257,1.31623 c 1.34196,-0.97067 3.1301,-2.2412 3.97365,-2.82341 0.84354,-0.5822 1.59471,-1.15723 1.66926,-1.27785 0.0745,-0.12062 -3.69567,-0.21931 -8.37825,-0.21931 h -8.51379 l 3.00807,2.15872 c 1.65444,1.18729 3.54385,2.55289 4.19869,3.03467 0.65484,0.48178 1.28328,0.87958 1.39653,0.884 0.11325,0.004 1.30388,-0.78615 2.64584,-1.75682 z M 85.348033,119.96713 c -0.0485,-0.13642 -2.16285,-1.70025 -4.69854,-3.47518 -3.20828,-2.24574 -4.71599,-3.15598 -4.95774,-2.99311 -3.27903,2.20904 -9.07041,6.36777 -9.07671,6.51789 -0.005,0.10914 4.22831,0.19844 9.40643,0.19844 5.74411,0 9.38037,-0.0967 9.32656,-0.24804 z m 128.706117,0.0853 c 0.0895,-0.0895 -0.63481,-0.70638 -1.60955,-1.37086 -0.97475,-0.66449 -2.98855,-2.08171 -4.47512,-3.14938 -1.48657,-1.06768 -2.86239,-2.00245 -3.05736,-2.07727 -0.19498,-0.0748 -0.88369,0.24988 -1.53048,0.72155 -0.64679,0.47167 -2.74964,1.94787 -4.673,3.28044 -1.92337,1.33258 -3.42157,2.49832 -3.32934,2.59055 0.21595,0.21595 18.45901,0.22081 18.67485,0.005 z M 70.377023,114.99209 c 2.14643,-1.51767 3.90261,-2.80083 3.90261,-2.85146 0,-0.17097 -7.49223,-5.42352 -7.59273,-5.32301 -0.11571,0.1157 -0.86965,9.13715 -0.87221,10.4366 -0.002,1.04915 -0.39945,1.24618 4.56233,-2.26213 z m 127.668017,0.70253 c 1.85178,-1.32213 3.6943,-2.59795 4.09448,-2.83517 0.40018,-0.23721 0.72448,-0.55445 0.72066,-0.70497 -0.0112,-0.43974 -7.52603,-5.50124 -7.59358,-5.11452 -0.10069,0.57644 -0.86614,9.8198 -0.86614,10.45929 0,0.32959 0.0625,0.59925 0.13885,0.59925 0.0764,0 1.65394,-1.08174 3.50573,-2.40388 z M 85.114723,112.29177 c -0.18558,-2.77265 -0.38978,-5.04118 -0.45379,-5.04118 -0.11319,0 -6.32769,4.38005 -6.7624,4.76622 -0.11965,0.10629 0.86831,0.95261 2.19547,1.8807 1.32716,0.9281 3.02319,2.13323 3.76895,2.67806 0.74577,0.54484 1.40842,0.93814 1.47256,0.874 0.0641,-0.0641 -0.0352,-2.38515 -0.22079,-5.1578 z m 129.033737,4.15309 c -0.0857,-0.61847 -0.2949,-2.91042 -0.46487,-5.09323 -0.16997,-2.18282 -0.34114,-4.00801 -0.38037,-4.05599 -0.10591,-0.12952 -6.60648,4.54597 -6.70127,4.81985 -0.0792,0.2288 7.01988,5.38833 7.47386,5.43191 0.12567,0.0121 0.15836,-0.48408 0.0726,-1.10254 z m -134.124027,-8.20209 3.8451,-2.71198 -3.85256,-0.0731 c -2.1189,-0.0402 -5.6551,-0.0402 -7.85821,0 l -4.00566,0.0731 3.79087,2.68526 c 2.08497,1.47688 3.89088,2.69728 4.01311,2.71198 0.12224,0.0147 1.95255,-1.19367 4.06735,-2.68526 z m 128.431167,0.15749 c 2.03023,-1.40498 3.75353,-2.65513 3.82954,-2.77813 0.076,-0.123 -3.34714,-0.22363 -7.60701,-0.22363 -6.78937,0 -7.69742,0.0476 -7.35781,0.38612 0.38405,0.38275 7.1849,5.15995 7.35527,5.16665 0.0488,0.002 1.74978,-1.14604 3.78001,-2.55101 z M 82.204953,103.0834 c -0.011,-0.17896 -1.65654,-1.53542 -5.30526,-4.373225 l -1.28547,-0.99978 -3.11469,2.555715 c -1.71308,1.40563 -3.15438,2.65921 -3.20289,2.78571 -0.0485,0.12651 2.83876,0.23002 6.41615,0.23002 3.57738,0 6.49886,-0.0893 6.49216,-0.19844 z m 128.591697,0 c -0.01,-0.24209 -6.23759,-5.232705 -6.49893,-5.207835 -0.29391,0.028 -6.43092,4.986915 -6.44501,5.207835 -0.007,0.10914 2.90436,0.19844 6.46962,0.19844 3.56526,0 6.47871,-0.0893 6.47432,-0.19844 z M 70.667033,99.463305 c 1.85753,-1.51811 3.37664,-2.83495 3.3758,-2.92632 -0.003,-0.31831 -5.98222,-5.11581 -6.15793,-4.94083 -0.0974,0.097 -0.30835,2.20036 -0.46887,4.67422 -0.16052,2.47385 -0.35822,4.825335 -0.43932,5.225525 -0.0811,0.40018 -0.0439,0.7276 0.0828,0.7276 0.12663,0 1.75003,-1.24209 3.60755,-2.760195 z m 13.56193,1.238845 c -0.0862,-0.836755 -0.28893,-3.247765 -0.45044,-5.357825 -0.1615,-2.11005 -0.31185,-3.85715 -0.33411,-3.88246 -0.0476,-0.054 -3.24355,2.49319 -5.03728,4.01476 l -1.24764,1.05833 3.38871,2.82589 c 1.8638,1.554245 3.48971,2.834165 3.61313,2.844275 0.12343,0.0101 0.15386,-0.66623 0.0676,-1.50297 z m 112.278767,1.13579 c 0.17599,-0.21205 1.68176,-1.48311 3.34616,-2.824575 1.76748,-1.42455 2.92825,-2.53693 2.79076,-2.67443 -0.66622,-0.66621 -6.0083,-4.89966 -6.08712,-4.82386 -0.0505,0.0486 -0.20089,1.43608 -0.33412,3.08329 -0.13323,1.64721 -0.3349,4.03672 -0.44815,5.31003 -0.20992,2.360295 -0.0264,2.843875 0.73247,1.929545 z m 16.02235,-5.358985 c -0.23618,-2.72463 -0.45314,-4.976 -0.48212,-5.00306 -0.0513,-0.0479 -5.58611,4.40121 -6.04074,4.85584 -0.12791,0.12791 1.13797,1.32558 2.8799,2.72472 1.70947,1.373085 3.28672,2.668645 3.505,2.879025 0.34692,0.33437 0.40761,0.32681 0.48213,-0.0601 0.0469,-0.24342 -0.10799,-2.671835 -0.34417,-5.396455 z m -132.633557,-4.57421 1.76906,-1.45521 -2.8843,-0.0747 c -1.58636,-0.0411 -4.27516,-0.0411 -5.97511,0 l -3.09081,0.0747 2.9665,2.43544 2.9665,2.43544 1.23955,-0.98023 c 0.68175,-0.53913 2.03563,-1.63507 3.00861,-2.43544 z m 127.715087,0.76689 2.76011,-2.2221 -2.94362,-0.0747 c -1.61899,-0.0411 -4.32743,-0.0411 -6.01875,0 l -3.07512,0.0747 2.9938,2.42511 c 1.67642,1.35797 3.11033,2.33577 3.25863,2.22209 0.14566,-0.11166 1.50689,-1.20295 3.02495,-2.4251 z M 66.342133,86.337345 v -1.59866 l -1.12448,0.6486 c -0.61847,0.35672 -1.89839,1.07475 -2.84427,1.59562 l -1.7198,0.94703 2.84427,0.003 2.84428,0.003 z m 16.7492,-0.055 c -0.21466,-2.65017 5.9e-4,-2.57969 -7.87901,-2.57969 h -6.6816 l -0.16826,1.22755 c -0.0925,0.67516 -0.16825,1.62766 -0.16825,2.11667 v 0.88911 h 7.51553 7.51554 z m 4.02314,0.47821 c -1.16276,-0.64175 -2.15685,-1.12409 -2.20908,-1.07186 -0.0522,0.0522 -0.0131,0.57924 0.0868,1.17113 l 0.18182,1.07616 2.02726,-0.004 2.02727,-0.004 z M 195.0117,86.423485 c 0.0858,-0.83188 0.11878,-1.54983 0.0732,-1.59545 -0.0768,-0.0768 -5.15014,2.72301 -5.4161,2.98896 -0.0654,0.0654 1.07481,0.119 2.53392,0.119 h 2.65291 z m 16.85126,0.88798 c 0,-1.86935 -0.33933,-3.02875 -0.97064,-3.3164 -0.41377,-0.18852 -2.98721,-0.2924 -7.24389,-0.2924 -6.25156,0 -6.60214,0.026 -6.60214,0.49035 0,0.2697 -0.0765,1.2222 -0.16998,2.11667 l -0.16999,1.62631 h 7.57832 7.57832 z m 5.79878,0.52635 c -0.0606,-0.054 -0.97344,-0.58374 -2.02847,-1.1772 l -1.91823,-1.07902 v 1.1772 1.1772 h 2.02847 c 1.11566,0 1.97887,-0.0442 1.91823,-0.0982 z M 79.037903,79.800055 c -1.07016,-1.127782 -2.26113,-2.385641 -2.64661,-2.795238 l -0.70087,-0.744721 -1.96217,2.041891 c -1.07919,1.123038 -2.28557,2.380898 -2.68085,2.795238 l -0.71869,0.75335 h 5.32746 5.32747 z m 129.610797,1.05834 c -0.51722,-0.54571 -1.68912,-1.7926 -2.60422,-2.770885 -0.9151,-0.978282 -1.75086,-1.724903 -1.85724,-1.659158 -0.10638,0.06575 -1.29345,1.312642 -2.63795,2.770883 l -2.44454,2.65134 h 5.24218 5.24217 z M 73.950853,75.483644 c 0.34095,-0.486773 0.22468,-0.689739 -1.47273,-2.570885 -1.83218,-2.030505 -2.95781,-3.14809 -2.96449,-2.94329 -0.002,0.05893 -0.17807,2.131215 -0.39145,4.605069 -0.21337,2.473855 -0.3904,4.939057 -0.39338,5.478227 l -0.005,0.98031 2.42865,-2.510465 c 1.33576,-1.380758 2.59523,-2.748293 2.79883,-3.038966 z m 126.348727,2.545512 2.84173,-3.027674 -2.4236,-2.535126 c -1.33298,-1.39432 -2.4549,-2.502413 -2.49317,-2.46243 -0.0383,0.03998 -0.19989,1.858633 -0.35916,4.041446 -0.15927,2.182812 -0.36088,4.653359 -0.44802,5.490103 -0.0872,0.83675 -0.11368,1.52135 -0.059,1.52135 0.0547,0 1.37825,-1.36245 2.9412,-3.027669 z M 82.650813,80.329225 c -0.10663,-0.37651 -0.41771,-4.115487 -0.78697,-9.458853 -0.0302,-0.436563 -0.16633,-0.734219 -0.30257,-0.661458 -0.13625,0.07276 -1.25559,1.177793 -2.48742,2.455628 l -2.23971,2.323337 1.03458,1.116246 c 2.58323,2.78714 4.48492,4.68812 4.68987,4.68812 0.12285,0 0.16435,-0.20836 0.0922,-0.46302 z m 128.581037,-0.52917 c -0.0701,-0.5457 -0.27271,-2.98648 -0.45018,-5.423954 -0.17747,-2.437474 -0.39374,-4.417851 -0.48059,-4.400838 -0.0868,0.01701 -1.21067,1.148117 -2.49736,2.513564 l -2.33945,2.482633 2.70642,2.910393 c 1.48853,1.600712 2.81492,2.910392 2.94754,2.910392 0.13261,0 0.18374,-0.44648 0.11362,-0.99219 z M 77.693263,71.637132 c 1.05173,-1.106251 1.86158,-2.062029 1.79966,-2.123951 -0.0619,-0.06192 -1.84095,-0.07954 -3.9534,-0.03915 l -3.84081,0.07343 1.87811,2.050521 c 1.03296,1.127787 1.95148,2.050521 2.04115,2.050521 0.0897,0 1.02355,-0.905114 2.07529,-2.011365 z m 128.859757,-0.138823 1.9661,-2.083145 h -4.19679 -4.19678 l 1.9661,2.083145 c 1.08135,1.145729 2.08516,2.083144 2.23068,2.083144 0.14552,0 1.14933,-0.937415 2.23069,-2.083144 z M 67.993243,65.148375 c 0.10775,-1.051534 0.13976,-1.968029 0.0711,-2.036656 -0.0686,-0.06863 -2.44255,0.752826 -5.27538,1.825451 -2.83283,1.072625 -5.04913,2.012959 -4.92511,2.089631 0.12402,0.07667 2.40979,0.115566 5.07947,0.08643 l 4.85398,-0.05297 z m 27.18847,1.938162 c 0,-0.116578 -2.11336,-1.00767 -4.69635,-1.980204 -2.583,-0.972535 -5.33796,-2.014038 -6.12213,-2.314451 l -1.42577,-0.546207 0.16609,1.005057 c 0.0914,0.552781 0.1674,1.627813 0.169,2.388959 l 0.003,1.383903 5.75469,0.07674 c 3.16507,0.04221 5.84398,0.104061 5.95312,0.137451 0.10914,0.03339 0.19844,-0.03467 0.19844,-0.15125 z M 196.56802,66.049988 c 0.2537,-1.385526 0.25593,-2.984824 0.004,-2.984824 -0.11524,0 -2.10953,0.727488 -4.43177,1.616639 -2.32223,0.889152 -4.6092,1.742566 -5.08214,1.896475 -0.47294,0.15391 -0.85996,0.349157 -0.86003,0.433882 -8e-5,0.08472 2.29187,0.127997 5.09323,0.09616 l 5.09336,-0.05788 z m 27.29344,1.048715 c 0.0679,-0.109887 -2.60397,-1.228168 -5.93751,-2.485069 l -6.06099,-2.285276 0.003,1.360591 c 0.002,0.748324 0.0763,1.804751 0.16607,2.347614 l 0.16316,0.987023 5.58862,0.07686 c 3.07374,0.04227 5.67088,0.104128 5.77144,0.137456 0.10055,0.03333 0.23838,-0.02931 0.3063,-0.139199 z M 81.382413,64.851101 c -0.0999,-1.200547 -0.19101,-2.391171 -0.20258,-2.645833 -0.0193,-0.425605 -0.47002,-0.463021 -5.57729,-0.463021 h -5.55625 l -0.002,0.859896 c -10e-4,0.472943 -0.0778,1.663568 -0.17055,2.645833 l -0.16867,1.785938 h 5.92938 5.92939 z M 210.1333,65.51256 c -0.0807,-0.836745 -0.20813,-2.02737 -0.28311,-2.645834 l -0.13632,-1.124479 h -5.39576 -5.39576 l -0.13352,0.859896 c -0.0734,0.472943 -0.20738,1.663568 -0.29764,2.645833 l -0.1641,1.785938 h 5.97649 5.9765 z M 80.789003,57.57506 c -0.0979,-1.273307 -0.24977,-3.059245 -0.33751,-3.96875 l -0.15952,-1.653646 h -4.68972 -4.68971 l -0.17364,2.579688 c -0.0955,1.418828 -0.2446,3.204765 -0.33132,3.96875 l -0.15768,1.389062 h 5.35854 5.35854 z m 128.816207,0.79375 c -0.0921,-0.836745 -0.24679,-2.592917 -0.34387,-3.902604 l -0.17651,-2.38125 h -4.7625 -4.7625 l -0.18295,2.38125 c -0.10062,1.309687 -0.23815,3.065859 -0.30563,3.902604 l -0.1227,1.521354 h 5.41201 5.41201 z M 69.374113,47.520894 c 0.093,-1.273308 0.225,-2.582995 0.29337,-2.910417 0.0684,-0.327422 0.0588,-0.595313 -0.0214,-0.595313 -0.26594,0 -7.668,5.314579 -7.75781,5.570004 -0.0529,0.150302 1.39568,0.25083 3.61427,0.25083 h 3.70246 z m 10.59828,-0.79375 c -0.10533,-1.70987 -0.23001,-3.149803 -0.27706,-3.19985 -0.0471,-0.05005 -1.84267,-0.106379 -3.99026,-0.125181 l -3.90472,-0.03419 -0.17472,0.654348 c -0.0961,0.359891 -0.25982,1.815207 -0.36383,3.234035 l -0.1891,2.579688 h 4.5456 4.54561 z m 9.65201,2.910416 c -5.9e-4,-0.10914 -1.60561,-1.307385 -3.56673,-2.662764 -1.96111,-1.35538 -3.63453,-2.575771 -3.71872,-2.711979 -0.0842,-0.136209 -0.27793,-0.247653 -0.43056,-0.247653 -0.26634,0 -0.0633,5.142668 0.22196,5.622396 0.0649,0.109141 1.77785,0.198438 3.80656,0.198438 2.0287,0 3.68807,-0.0893 3.68749,-0.198438 z M 197.94374,48.711518 c 0.25959,-2.144332 0.40487,-4.696354 0.26735,-4.696354 -0.076,0 -0.65822,0.386954 -1.29379,0.859896 -0.63557,0.472943 -2.34913,1.693334 -3.80791,2.711979 -1.45879,1.018646 -2.65804,1.941381 -2.66501,2.050521 -0.007,0.109141 1.64691,0.198438 3.67528,0.198438 h 3.68796 z m 10.71805,-0.661458 c -0.0144,-0.982265 -0.10369,-2.412345 -0.19844,-3.177955 l -0.17227,-1.392017 -3.7338,-0.101367 c -2.0536,-0.05575 -3.86138,-0.02253 -4.01729,0.07383 -0.27476,0.169815 -0.87259,5.785519 -0.65843,6.18501 0.0585,0.109141 2.06388,0.198438 4.45639,0.198438 h 4.35001 z m 9.81575,1.673291 c 0,-0.142736 -7.85441,-5.708187 -8.05585,-5.708187 -0.15581,0 0.0626,4.189148 0.27248,5.225521 0.11833,0.584405 0.19074,0.595313 3.95195,0.595313 2.10728,0 3.83142,-0.05069 3.83142,-0.112647 z M 106.29421,171.95445 c 0,-0.0655 0.17814,-2.17884 0.39588,-4.69636 0.21774,-2.51751 0.57078,-6.89902 0.78453,-9.73667 0.21375,-2.83766 0.69264,-8.96938 1.06421,-13.62604 0.66851,-8.37807 0.99496,-12.50994 2.52503,-31.95911 0.43263,-5.49928 0.7866,-10.35107 0.7866,-10.78177 v -0.78308 h -3.43959 -3.43958 v -0.767075 c 0,-0.70803 0.25958,-0.91159 3.37344,-2.6454 1.85539,-1.03309 3.52047,-1.97375 3.70017,-2.09036 0.25092,-0.16281 1.08866,-7.14631 1.12522,-9.37998 0.002,-0.10915 -2.60858,-0.19844 -5.80082,-0.19844 h -5.80406 l -0.0829,-0.8599 -0.0829,-0.85989 5.02708,-1.937 c 2.76489,-1.06535 5.52306,-2.11492 6.12925,-2.33238 l 1.10216,-0.39537 0.16136,-2.297834 c 0.0887,-1.26381 0.21036,-2.684789 0.27026,-3.157732 l 0.10891,-0.859895 h -3.95212 -3.95211 l 4.7e-4,-0.859896 c 3.9e-4,-0.719134 0.18447,-0.980725 1.12448,-1.598026 0.6182,-0.405971 1.73291,-1.179877 2.47714,-1.719791 0.74422,-0.539914 2.14891,-1.547209 3.12153,-2.238433 l 1.76839,-1.256771 h 4.21015 4.21014 l 4.23795,2.976563 c 4.00594,2.813608 4.23828,3.024303 4.24385,3.848616 l 0.006,0.872054 -3.90261,-0.03406 -3.9026,-0.03406 0.0632,1.675546 c 0.0347,0.92155 0.12911,2.27268 0.20971,3.00251 l 0.14655,1.326966 6.60324,2.509493 6.60323,2.50949 7e-5,0.86804 7e-5,0.86804 -6.24394,-0.026 c -3.43417,-0.0143 -6.2959,0.026 -6.35942,0.0895 -0.11568,0.11568 0.29097,5.97269 0.59626,8.58783 l 0.16244,1.39154 2.54889,1.4354 c 1.40189,0.78947 2.87632,1.58137 3.2765,1.75979 0.54676,0.24376 0.7276,0.51111 0.7276,1.07566 v 0.751295 h -3.11605 -3.11606 l 0.19532,2.57969 c 0.10743,1.41882 0.50236,6.44921 0.87763,11.17864 0.6696,8.4388 1.3318,16.86765 2.6503,33.73438 0.36402,4.65666 0.89834,11.62182 1.18739,15.47812 0.28905,3.8563 0.59096,7.39841 0.67091,7.87135 0.13757,0.81372 0.10211,0.8599 -0.66036,0.8599 -0.78453,0 -0.8058,-0.0331 -0.80804,-1.25677 -0.001,-0.69123 -0.0774,-1.88185 -0.16915,-2.64583 l -0.16685,-1.38907 h -10.79 -10.79 l -0.16411,1.78594 c -0.30495,3.31882 -0.36257,3.50573 -1.08063,3.50573 -0.3572,0 -0.64946,-0.0536 -0.64946,-0.11905 z m 21.91632,-6.99503 c -0.11271,-0.30021 -8.70231,-6.90884 -8.9798,-6.90884 -0.11427,0 -1.89959,1.31905 -3.96738,2.93123 -2.06779,1.61217 -4.03879,3.11415 -4.38,3.33772 -0.34122,0.22357 -0.62039,0.51187 -0.62039,0.64065 0,0.13124 3.96363,0.23415 9.01788,0.23415 5.14256,0 8.97998,-0.10095 8.92969,-0.23491 z m -14.88144,-4.14521 c 2.53373,-1.97251 4.60598,-3.66915 4.60501,-3.77031 -9.8e-4,-0.10117 -1.08425,-1.01738 -2.40727,-2.03602 -1.32302,-1.01865 -3.12247,-2.42279 -3.99877,-3.12031 -0.8763,-0.69752 -1.72085,-1.22569 -1.87679,-1.17372 -0.31825,0.10609 -0.28404,-0.16785 -0.83522,6.68771 -0.4372,5.43779 -0.49284,6.99902 -0.24946,6.99902 0.0856,0 2.22876,-1.61386 4.7625,-3.58637 z m 15.84759,-2.80739 c -0.24436,-3.25015 -0.52202,-6.17373 -0.61702,-6.49684 -0.16115,-0.54804 -0.38756,-0.42368 -3.37206,1.85208 -4.99055,3.80544 -4.75942,3.59015 -4.32261,4.02628 0.66058,0.65954 8.57643,6.69602 8.66812,6.61014 0.0483,-0.0453 -0.11207,-2.74151 -0.35643,-5.99166 z m -6.93871,-4.05101 c 1.56579,-1.22589 3.10642,-2.41067 3.42362,-2.63285 0.3172,-0.22217 0.51242,-0.46827 0.43381,-0.54688 -0.0786,-0.0786 -3.22177,-0.11111 -6.9848,-0.0722 l -6.84187,0.0707 3.42888,2.70135 c 1.88589,1.48573 3.48842,2.70302 3.56118,2.70507 0.0728,0.002 1.41339,-0.99926 2.97918,-2.22515 z m 1.12028,-7.54011 c -2.18194,-1.45147 -4.12992,-2.6421 -4.32885,-2.64583 -0.19892,-0.004 -2.15486,1.18384 -4.34654,2.63905 l -3.98486,2.64583 h 8.31371 8.31371 z m -9.52192,-0.97431 c 2.10923,-1.40527 3.83165,-2.62566 3.8276,-2.71198 -0.006,-0.13278 -6.61551,-4.50899 -7.14395,-4.73022 -0.099,-0.0414 -0.32531,1.98261 -0.50292,4.49791 -0.17761,2.5153 -0.38156,4.78163 -0.45322,5.0363 -0.0717,0.25466 -0.003,0.46302 0.15362,0.46302 0.15616,0 2.00965,-1.14977 4.11887,-2.55503 z m 14.40401,1.56284 c -0.0236,-1.63952 -0.65691,-8.76445 -0.78901,-8.87652 -0.13787,-0.11698 -7.11553,4.37023 -7.11735,4.57704 -10e-4,0.15821 7.43653,5.23119 7.72221,5.26688 0.10914,0.0136 0.19201,-0.4217 0.18415,-0.9674 z m -5.62326,-7.40833 c 1.93058,-1.27331 3.51255,-2.4044 3.51551,-2.51355 0.003,-0.10914 -3.20932,-0.19843 -7.13838,-0.19843 -3.92907,0 -7.1412,0.0893 -7.13807,0.19843 0.005,0.18142 6.84601,4.80988 7.12829,4.82297 0.0674,0.003 1.70208,-1.03612 3.63265,-2.30942 z m 4.31463,-4.26041 c 0,-0.28846 -7.44211,-5.47336 -7.73379,-5.38811 -0.4282,0.12514 -7.34746,5.15981 -7.34746,5.34623 0,0.0956 3.39328,0.1864 7.54062,0.20184 4.14734,0.0154 7.54063,-0.0565 7.54063,-0.15996 z m -11.70782,-4.24899 c 1.49159,-1.05896 2.71198,-2.02611 2.71198,-2.14922 0,-0.20375 -5.80592,-4.52216 -6.3121,-4.69491 -0.18162,-0.062 -0.84658,7.44703 -0.83523,9.4318 l 0.004,0.62672 0.8599,-0.6445 c 0.47294,-0.35448 2.08028,-1.51093 3.57187,-2.56989 z m 11.68309,-1.77631 c -0.17127,-2.31013 -0.38461,-4.28266 -0.47407,-4.3834 -0.15504,-0.17458 -5.84774,3.74389 -5.83966,4.01963 0.005,0.17269 6.4469,4.73605 6.54794,4.63852 0.0425,-0.041 -0.0629,-1.96462 -0.23421,-4.27475 z m -3.81173,-3.8476 c 0.58208,-0.40545 1.35599,-0.97543 1.71979,-1.26663 l 0.66146,-0.52944 -6.19566,-0.006 c -3.40762,-0.003 -6.14605,0.0368 -6.08542,0.089 0.0606,0.0522 1.4679,1.06229 3.12726,2.24472 l 3.01701,2.14987 1.34861,-0.9722 c 0.74174,-0.53471 1.82486,-1.30394 2.40695,-1.70939 z m 2.51354,-3.92812 c -0.3638,-0.28656 -1.13719,-0.84946 -1.71864,-1.25089 -0.58144,-0.40143 -1.85194,-1.30317 -2.82333,-2.00387 l -1.76615,-1.27401 -2.86521,2.00488 c -1.57587,1.10268 -3.16287,2.23888 -3.52667,2.52489 l -0.66146,0.52001 h 7.01146 7.01146 z m -11.67403,-2.34144 c 0.96368,-0.70769 2.25817,-1.61648 2.87663,-2.01953 0.61847,-0.40305 1.12448,-0.82024 1.12448,-0.92708 0,-0.10685 -0.44648,-0.49952 -0.99219,-0.8726 -0.5457,-0.37309 -1.76609,-1.22116 -2.71197,-1.88462 l -1.7198,-1.20627 -0.16611,1.12185 c -0.3018,2.03822 -0.5568,7.07497 -0.35819,7.07497 0.10725,0 0.98347,-0.57902 1.94715,-1.28672 z m 11.96334,-2.78985 c -0.15912,-1.6296 -0.28931,-3.16329 -0.28931,-3.4082 0,-0.4163 -0.7709,0.0624 -4.62293,2.87093 -0.60086,0.43808 -0.89773,0.15026 2.88713,2.79911 1.56856,1.09776 2.15671,1.38788 2.22355,1.09681 0.05,-0.21766 -0.0393,-1.72906 -0.19844,-3.35865 z m -3.01102,-3.46405 c 1.04797,-0.72761 1.91048,-1.41222 1.91668,-1.52136 0.006,-0.10914 -2.48903,-0.19844 -5.54497,-0.19844 -3.52778,0 -5.55625,0.0966 -5.55625,0.26459 0,0.14552 0.0893,0.26497 0.19844,0.26545 0.10914,4.8e-4 1.32953,0.81887 2.71198,1.81863 l 2.51354,1.81776 0.92759,-0.56186 c 0.51017,-0.30902 1.78502,-1.15717 2.83299,-1.88477 z m 0.68865,-3.27899 c 0.31166,-0.0409 -4.21971,-3.73247 -4.58152,-3.73247 -0.3354,0 -4.78578,3.59278 -4.63584,3.7425 0.0802,0.0801 8.60063,0.0708 9.21736,-0.01 z m -7.95423,-2.88623 2.31583,-1.87701 -2.23392,-1.86587 c -1.22865,-1.02622 -2.28353,-1.86586 -2.34416,-1.86586 -0.0606,0 -0.19048,1.22039 -0.28857,2.71198 -0.0981,1.49159 -0.25316,3.30729 -0.34462,4.03489 -0.14011,1.11468 -0.10758,1.27695 0.20666,1.0309 0.20512,-0.16061 1.41507,-1.13668 2.68878,-2.16903 z m 9.53295,0.8074 c -0.0617,-0.69122 -0.193,-2.43605 -0.29189,-3.8774 l -0.17981,-2.62063 -2.30248,1.82688 c -1.26637,1.00479 -2.30101,1.88641 -2.29921,1.95918 0.005,0.18379 4.77416,3.96875 5.00121,3.96875 0.10134,0 0.13382,-0.56555 0.0722,-1.25678 z m -3.85052,-5.42396 2.00083,-1.65364 -2.15528,-0.0769 c -1.1854,-0.0423 -3.12433,-0.0423 -4.30874,0 l -2.15347,0.0769 1.95503,1.64114 c 1.07527,0.90262 2.11383,1.64676 2.30792,1.65364 0.19408,0.007 1.25325,-0.73163 2.35371,-1.64114 z m -9.23916,-4.643805 0.082,-1.13807 -1.86347,1.00578 c -1.0249,0.55318 -1.86549,1.10052 -1.86796,1.21631 -0.002,0.11579 0.79918,0.17532 1.78145,0.13229 l 1.78594,-0.0782 z m 12.25457,-0.18406 c -0.0448,-0.72718 -0.2195,-1.40996 -0.3882,-1.5173 -0.1687,-0.10734 -2.52296,-0.19699 -5.2317,-0.19922 l -4.92497,-0.004 -0.16826,1.22755 c -0.0925,0.67516 -0.16825,1.39195 -0.16825,1.59287 0,0.30124 0.96137,0.35277 5.48142,0.2938 l 5.48143,-0.0715 z m 4.19764,1.25599 c -0.003,-0.22792 -2.57387,-1.63518 -2.72027,-1.48879 -0.0532,0.0532 -0.0442,0.45458 0.02,0.89197 0.11148,0.75953 0.1748,0.79526 1.40961,0.79526 0.71109,0 1.29188,-0.0893 1.29066,-0.19844 z m -6.82756,-5.55625 c -0.58203,-0.69122 -1.43194,-1.61163 -1.88869,-2.04535 l -0.83047,-0.78857 -1.69599,1.71461 c -0.93279,0.94304 -1.7571,1.86345 -1.8318,2.04535 -0.10486,0.25534 0.71223,0.33073 3.58468,0.33073 h 3.7205 z m -3.75716,-3.81516 c 0.002,-0.0974 -0.75362,-0.98432 -1.67912,-1.97088 l -1.68272,-1.79373 -0.15982,1.44171 c -0.0879,0.79294 -0.2287,2.63233 -0.3129,4.08754 l -0.15308,2.64583 1.99201,-2.11666 c 1.09561,-1.16417 1.99364,-2.19638 1.99563,-2.29381 z m 5.82356,0.25949 c -0.1767,-2.08258 -0.3491,-3.81738 -0.38312,-3.85511 -0.11419,-0.12661 -3.32016,3.3734 -3.32016,3.62467 0,0.32369 3.74724,4.29425 3.90441,4.13708 0.0661,-0.0661 -0.0244,-1.82405 -0.20113,-3.90664 z m -3.22055,-2.72818 c 0.74491,-0.80037 1.26846,-1.46326 1.16343,-1.4731 -0.71505,-0.067 -5.24369,0.003 -5.35033,0.0822 -0.15646,0.11679 2.38549,2.84612 2.65071,2.84612 0.1,0 0.79127,-0.65485 1.53619,-1.45521 z m -7.09731,-4.80476 c 0,-1.28954 -0.0567,-1.44823 -0.46303,-1.29543 -4.00525,1.50632 -6.94158,2.68738 -6.94362,2.79289 -0.001,0.0728 1.66452,0.0962 3.70205,0.0522 l 3.7046,-0.0801 z m 19.55711,1.38897 c -0.28677,-0.28222 -8.45485,-3.25894 -8.52657,-3.10736 -0.0451,0.0952 -0.0342,0.85479 0.0241,1.6879 l 0.10604,1.51476 4.14308,0.0727 c 4.04909,0.0711 4.47905,0.0541 4.25332,-0.16804 z m -9.86067,-1.28057 c -0.0918,-0.76398 -0.16788,-1.64754 -0.16914,-1.96345 -0.002,-0.56498 -0.0669,-0.57392 -3.94793,-0.54557 l -3.94562,0.0288 -0.15542,0.77708 c -0.0855,0.42739 -0.15542,1.29798 -0.15542,1.93463 v 1.15755 h 4.27019 4.27019 z m -0.37375,-4.828643 c -0.0375,-0.582084 -0.1384,-1.862005 -0.22433,-2.844271 l -0.15624,-1.785937 h -3.41273 c -2.55129,0 -3.41391,0.08348 -3.41743,0.330729 -0.003,0.181901 -0.11638,1.392424 -0.25287,2.690051 -0.13649,1.297628 -0.19899,2.43889 -0.13889,2.536139 0.0601,0.09725 1.81057,0.166647 3.88993,0.154219 l 3.78065,-0.0226 z m -8.38885,-6.816038 c 0.0848,-0.33789 0.11774,-1.281354 0.0732,-2.096587 l -0.081,-1.482242 -2.70772,1.890142 c -1.48924,1.039578 -2.70963,1.966382 -2.71198,2.059564 -0.002,0.09318 1.18319,0.186082 2.63452,0.206445 2.5541,0.03584 2.64373,0.01731 2.79298,-0.577322 z m 7.79705,-0.621513 c 2e-4,-0.598153 -0.0754,-1.63995 -0.1679,-2.315104 l -0.16825,-1.227553 h -2.85663 c -2.49307,0 -2.8737,0.05893 -2.99085,0.463021 -0.11763,0.405781 -0.2773,3.681907 -0.19666,4.034895 0.0166,0.07276 1.45892,0.132292 3.20509,0.132292 h 3.17485 z m 6.87952,0.982841 c 0,-0.130351 -0.56554,-0.600162 -1.25677,-1.044024 -0.69122,-0.443861 -1.90335,-1.289711 -2.69362,-1.879664 -0.79026,-0.589954 -1.50464,-1.072806 -1.5875,-1.073004 -0.16797,-4.03e-4 -0.0728,2.710312 0.12768,3.638381 0.12294,0.569006 0.24532,0.595313 2.76942,0.595313 1.45244,0 2.64079,-0.106651 2.64079,-0.237002 z m 17.03572,98.595858 c 0.16542,-2.51989 0.66232,-8.89681 1.62358,-20.83594 0.21675,-2.69213 0.68592,-8.64526 1.0426,-13.22916 0.35668,-4.58391 1.06527,-13.69219 1.57464,-20.24063 0.50937,-6.54843 0.99173,-12.53133 1.0719,-13.29531 l 0.14577,-1.38906 h -3.57419 -3.57418 v -0.790205 c 0,-0.63703 0.16667,-0.86399 0.85989,-1.17087 0.47294,-0.20937 2.16959,-1.13708 3.77031,-2.06157 l 2.91042,-1.6809 0.35743,-4.57396 c 0.19658,-2.51568 0.31112,-4.62027 0.25452,-4.67687 -0.0566,-0.0566 -2.65822,-0.13807 -5.78138,-0.18104 l -5.67849,-0.0781 -0.079,-0.80754 -0.079,-0.80754 5.37067,-2.03057 c 2.95387,-1.11681 5.69169,-2.14702 6.08404,-2.28935 0.80387,-0.29162 0.88442,-0.596722 1.13974,-4.317602 l 0.15887,-2.315104 h -3.85026 -3.85026 v -0.871906 c 0,-0.816022 0.22416,-1.032234 3.49757,-3.373437 5.25762,-3.760352 4.36724,-3.427574 9.17077,-3.427574 h 4.18889 l 1.16253,0.875602 c 0.63939,0.481582 2.50198,1.808878 4.13909,2.949548 2.78792,1.942504 2.97656,2.130156 2.97656,2.960856 v 0.886911 h -3.86806 -3.86806 l 0.18827,2.84427 c 0.10354,1.564349 0.27386,2.934877 0.37847,3.045617 0.15884,0.168148 3.26198,1.379249 11.93188,4.656789 1.04266,0.39416 1.19063,0.54771 1.19063,1.23556 v 0.78547 l -6.35,0.0309 c -3.4925,0.017 -6.34843,0.13608 -6.34651,0.26458 0.002,0.12851 0.16836,2.39483 0.36986,5.03626 l 0.36636,4.80261 3.10847,1.74583 c 1.70966,0.96021 3.21403,1.74583 3.34305,1.74583 0.12902,0 0.22043,0.32742 0.20314,0.7276 l -0.0314,0.727615 -3.08615,0.0745 c -2.21183,0.0534 -3.08494,0.16586 -3.08187,0.39687 0.008,0.59646 1.80764,23.77508 2.63406,33.92442 0.37351,4.58705 1.22472,15.37772 1.98279,25.13542 0.36177,4.65666 0.72513,9.32986 0.80747,10.38489 0.1476,1.89117 0.14073,1.91823 -0.48682,1.91823 -0.55667,0 -0.65763,-0.154 -0.80478,-1.22755 -0.0925,-0.67516 -0.16826,-1.86578 -0.16826,-2.64584 v -1.41828 h -10.94251 -10.94252 l -0.16998,1.62632 c -0.0935,0.89447 -0.16999,2.08509 -0.16999,2.64583 0,0.9258 -0.0643,1.01952 -0.69928,1.01952 h -0.69928 z m 21.85803,-4.27244 c 0,-0.0579 -1.27992,-1.10618 -2.84427,-2.32952 -5.91658,-4.62684 -6.18969,-4.81245 -6.65415,-4.52239 -0.74099,0.46275 -8.75783,6.73035 -8.75783,6.8469 0,0.0606 4.10766,0.11026 9.12813,0.11026 5.02047,0 9.12812,-0.0474 9.12812,-0.10525 z m -14.41979,-4.78562 c 2.03729,-1.56929 3.80492,-2.94393 3.92806,-3.05477 0.12314,-0.11083 -1.05256,-1.19614 -2.61267,-2.41179 -1.56011,-1.21565 -3.40993,-2.65676 -4.1107,-3.20246 -1.06767,-0.83141 -1.83084,-1.21632 -1.83609,-0.92604 -6.6e-4,0.0364 -0.23825,3.0427 -0.52797,6.68073 -0.28973,3.63802 -0.52731,6.77341 -0.52797,6.96754 -7.4e-4,0.21848 0.37683,0.0571 0.99099,-0.4235 0.5457,-0.42706 2.65906,-2.06043 4.69635,-3.62971 z m 15.07809,-3.31098 c -0.24976,-3.27434 -0.49844,-6.00135 -0.55261,-6.06001 -0.0542,-0.0587 -1.14192,0.69996 -2.4172,1.68582 -1.27528,0.98586 -3.05794,2.34354 -3.96147,3.01707 -0.90353,0.67353 -1.64767,1.2991 -1.65365,1.39015 -0.006,0.091 1.68577,1.45671 3.75945,3.03478 2.07367,1.57808 4.06796,3.14338 4.43177,3.47844 l 0.66146,0.6092 0.0932,-0.60105 c 0.0512,-0.33057 -0.11116,-3.28005 -0.36093,-6.5544 z m -6.50952,-3.33188 c 3.43867,-2.61843 3.46997,-2.64413 3.46997,-2.84908 0,-0.0931 -3.03609,-0.16927 -6.74687,-0.16927 -3.71078,0 -6.74688,0.0936 -6.74688,0.20811 0,0.11446 0.56555,0.63725 1.25677,1.16176 0.69123,0.52451 2.2038,1.67543 3.36128,2.55761 1.22561,0.9341 2.22008,1.51609 2.38125,1.39357 0.15221,-0.11572 1.51323,-1.15193 3.02448,-2.3027 z m 4.48998,-4.73237 c -0.39743,-0.39743 -7.81153,-5.23183 -8.03146,-5.23695 -0.2334,-0.005 -7.27783,4.5634 -7.92428,5.13948 -0.13824,0.12319 3.42371,0.22399 7.91546,0.22399 4.49174,0 8.10987,-0.0569 8.04028,-0.12652 z m -13.30817,-3.45074 c 2.10182,-1.38541 3.81916,-2.6058 3.8163,-2.71198 -0.006,-0.21246 -6.7114,-4.69097 -7.0238,-4.69097 -0.243,0 -0.28421,0.34435 -0.49079,4.10104 -0.092,1.67349 -0.24005,3.66779 -0.32895,4.43177 -0.0889,0.76399 -0.079,1.38907 0.0221,1.38907 0.10102,0 1.90335,-1.13352 4.00517,-2.51893 z m 14.54224,1.52674 c -0.0734,-0.5457 -0.26125,-2.77607 -0.41748,-4.95636 -0.15622,-2.1803 -0.31908,-3.99921 -0.36189,-4.04202 -0.15354,-0.15354 -7.01674,4.57139 -6.95153,4.78573 0.0746,0.24535 7.34677,5.17315 7.66276,5.19249 0.11086,0.007 0.14153,-0.43414 0.0681,-0.97984 z m -5.55438,-7.47916 c 1.96069,-1.31226 3.56489,-2.42875 3.56489,-2.48109 0,-0.0523 -3.27422,-0.1155 -7.27604,-0.14034 -4.00183,-0.0249 -7.26789,0.0498 -7.25791,0.16599 0.0189,0.21961 6.83748,4.7865 7.19875,4.82148 0.11298,0.0109 1.80962,-1.05378 3.77031,-2.36604 z m 4.09405,-4.20815 c 0,-0.20226 -6.88623,-5.23474 -7.34746,-5.36954 -0.29051,-0.0849 -7.73379,5.09905 -7.73379,5.38629 0,0.10242 3.39328,0.18489 7.54063,0.18327 4.14734,-0.002 7.54062,-0.0916 7.54062,-0.20002 z m -12.23966,-3.72467 c 1.91988,-1.38245 3.49279,-2.57307 3.49535,-2.64583 0.007,-0.20768 -6.42274,-4.76489 -6.54732,-4.64032 -0.0612,0.0612 -0.21228,1.51724 -0.33578,3.23568 -0.1235,1.71843 -0.30279,3.94253 -0.39843,4.94244 -0.0985,1.02997 -0.0722,1.77544 0.0608,1.71979 0.12908,-0.054 1.8055,-1.22931 3.72537,-2.61176 z m 12.2475,-2.90245 c -0.17033,-2.11068 -0.34906,-3.87697 -0.39718,-3.92509 -0.17959,-0.17959 -5.71868,3.98158 -5.63485,4.2331 0.048,0.14414 1.45291,1.2413 3.12192,2.43813 2.66651,1.91213 3.0458,2.11029 3.12718,1.63376 0.0509,-0.29826 -0.0467,-2.26922 -0.21707,-4.3799 z m -3.77309,-3.18297 2.40972,-1.71979 -3.0264,-0.0745 c -1.66452,-0.041 -4.40648,-0.041 -6.09324,0 l -3.06684,0.0745 3.0007,2.16521 c 3.45617,2.49388 2.5766,2.5517 6.77606,-0.44542 z m 2.96235,-3.63802 c -0.008,-0.16823 -2.37309,-1.84829 -5.94739,-4.22432 l -0.88199,-0.58631 -3.39375,2.40693 c -1.86657,1.32382 -3.44337,2.45086 -3.504,2.50454 -0.0606,0.0537 3.00522,0.0976 6.81302,0.0976 3.80779,0 6.91915,-0.0893 6.91411,-0.19844 z m -10.96696,-3.45626 c 1.54386,-1.0642 2.76217,-2.06941 2.70738,-2.2338 -0.13904,-0.41711 -5.184,-3.91979 -5.31592,-3.69081 -0.0591,0.10263 -0.1864,1.43676 -0.28283,2.96473 -0.0964,1.52797 -0.24617,3.29933 -0.33277,3.93635 -0.10585,0.77862 -0.0633,1.12549 0.12984,1.05834 0.15801,-0.0549 1.55045,-0.97061 3.0943,-2.03481 z m 10.74463,-2.74388 c -0.14622,-1.45949 -0.32706,-2.71482 -0.40186,-2.78962 -0.0748,-0.0748 -0.58798,0.21056 -1.14039,0.63415 -0.55242,0.42358 -1.6264,1.18207 -2.38663,1.68554 -0.76023,0.50346 -1.3789,0.97492 -1.37481,1.04768 0.004,0.0728 1.22141,0.97851 2.70516,2.01278 l 2.69772,1.88049 0.0833,-0.9087 c 0.0458,-0.49979 -0.0363,-2.10284 -0.18253,-3.56232 z m -1.09143,-4.23507 c 0,-0.11784 -2.50032,-0.21427 -5.55625,-0.21427 -3.05594,0 -5.55625,0.05 -5.55625,0.11105 0,0.0611 1.26521,1.00906 2.81159,2.10665 l 2.8116,1.99561 2.74465,-1.89238 c 1.50956,-1.04082 2.74466,-1.98881 2.74466,-2.10666 z m -1.4016,-1.93406 c 0.0295,-0.14552 -0.91891,-1.05703 -2.10756,-2.02557 -1.78546,-1.45485 -2.23459,-1.70783 -2.58353,-1.45521 -1.03139,0.74671 -4.22603,3.46809 -4.2257,3.5997 6.9e-4,0.27419 8.86108,0.15602 8.91679,-0.11892 z m -5.60986,-4.61476 c 0,-0.26742 -4.17896,-3.7299 -4.32521,-3.58365 -0.14063,0.14064 -0.7421,7.54082 -0.62262,7.66031 0.14743,0.14743 4.94783,-3.80776 4.94783,-4.07666 z m 7.39884,1.24133 c -0.10251,-1.63711 -0.26199,-3.43717 -0.35441,-4.00014 l -0.16804,-1.02357 -2.11528,1.75865 c -1.1634,0.96726 -2.11528,1.86915 -2.11528,2.0042 0,0.20209 4.56359,4.17458 4.85095,4.22263 0.0486,0.008 0.005,-1.32466 -0.0979,-2.96177 z m -3.72534,-4.04105 2.086,-1.71364 h -4.4452 c -2.44486,0 -4.3956,0.0464 -4.33496,0.10311 1.12751,1.05464 4.07269,3.33491 4.30142,3.33032 0.1687,-0.003 1.24544,-0.77728 2.39274,-1.71979 z m -9.25806,-3.719665 c 0.2192,-0.57122 0.20329,-1.96273 -0.0224,-1.96273 -0.25113,0 -3.7857,2.1108 -3.7857,2.26077 0,0.0663 0.8207,0.12048 1.82378,0.12048 1.41897,0 1.85942,-0.0929 1.98437,-0.41852 z m 12.33143,-0.65721 c 0,-2.14083 0.11281,-2.09927 -5.69785,-2.09927 h -5.15006 v 1.5875 1.5875 h 5.42396 5.42395 z m 4.08782,0.84632 c -0.13825,-0.12617 -0.8169,-0.55421 -1.50813,-0.95118 l -1.25677,-0.72178 v 0.95118 0.95119 h 1.50813 c 0.86812,0 1.40145,-0.0974 1.25677,-0.22941 z m -7.41457,-6.22009 c -1.00794,-1.07336 -1.95424,-1.96633 -2.10289,-1.98437 -0.14865,-0.018 -1.07903,0.86017 -2.06751,1.95158 l -1.79725,1.98437 h 3.90014 3.90013 z m -4.51861,-4.78276 c -0.85104,-0.91867 -1.67986,-1.68426 -1.84182,-1.70132 -0.18751,-0.0197 -0.35945,0.90612 -0.47333,2.54868 -0.0984,1.41883 -0.24286,3.175 -0.3211,3.90261 l -0.14225,1.32291 2.16292,-2.20128 2.16292,-2.20129 z m 7.48524,5.47757 c -0.0722,-0.25466 -0.20414,-1.59411 -0.29328,-2.97656 -0.0892,-1.38245 -0.22806,-2.96518 -0.3087,-3.51718 l -0.14661,-1.00365 -0.66605,0.73906 c -0.36632,0.40648 -1.14561,1.23685 -1.73175,1.84526 l -1.0657,1.1062 1.95538,2.12818 c 1.96477,2.13842 2.49974,2.53636 2.25671,1.67869 z m -3.60863,-6.28385 c 0.79043,-0.80037 1.38167,-1.46157 1.31388,-1.46933 -0.6,-0.0687 -5.54742,-0.0984 -5.54733,-0.0333 2.2e-4,0.1563 2.51172,2.95106 2.65499,2.95445 0.0777,0.002 0.78804,-0.65151 1.57846,-1.45187 z m -10.46349,-3.3073 h 3.25157 l 0.17959,-1.3538 c 0.0988,-0.74459 0.12474,-1.40865 0.0577,-1.47568 -0.18544,-0.18544 -7.56452,2.66422 -7.57143,2.92394 -0.003,0.12471 0.1823,0.15447 0.41248,0.0661 0.23019,-0.0883 1.88172,-0.1606 3.67008,-0.1606 z m 13.05312,-1.85208 -0.0761,-1.98437 -3.80881,-0.0806 c -2.09484,-0.0443 -3.89764,0.0152 -4.00623,0.13229 -0.23022,0.24822 -0.59205,3.45304 -0.42109,3.72966 0.0637,0.10305 1.97711,0.18737 4.25205,0.18737 h 4.13624 z m 5.87704,0.15252 -4.36562,-1.67421 -0.0865,0.80922 c -0.0476,0.44507 -0.0124,1.20416 0.0781,1.68688 l 0.16466,0.87767 4.28749,-0.0127 4.28749,-0.0127 z m -6.28691,-5.576477 c -0.0381,-1.164166 -0.12695,-2.473854 -0.19753,-2.910416 l -0.12834,-0.79375 -3.40286,0.08034 -3.40286,0.08034 -0.16992,2.010097 c -0.0934,1.105553 -0.16991,2.412121 -0.16991,2.903483 v 0.893387 l 3.77031,-0.07341 3.77031,-0.07341 z M 154.013,68.974517 c 0.0943,-1.115481 0.1265,-2.073086 0.0716,-2.128012 -0.15566,-0.155657 -5.45704,3.65106 -5.45704,3.91849 0,0.130718 1.17315,0.237669 2.60701,0.237669 h 2.60701 z m 7.61681,-0.277001 c -0.052,-1.133263 -0.14835,-2.149774 -0.21405,-2.258915 -0.0657,-0.10914 -1.42211,-0.198437 -3.01425,-0.198437 h -2.8948 v 0.754938 c 0,0.415216 -0.0736,1.45955 -0.16366,2.320743 l -0.16366,1.565805 3.27251,-0.06183 3.27252,-0.06183 z m 7.10606,2.17514 c 0,-0.110148 -5.53617,-4.103326 -5.68888,-4.103326 -0.18379,0 -0.1647,1.539294 0.0374,3.013584 l 0.16933,1.235356 2.74109,-0.03611 c 1.5076,-0.01986 2.74109,-0.06914 2.74109,-0.109504 z"
       id="path4" /></g></svg>
