<?xml version="1.0" encoding="UTF-8" standalone="no"?>
<!-- Created with Inkscape (http://www.inkscape.org/) -->

<svg
   width="7.6882672in"
   height="6.322917in"
   viewBox="0 0 195.28199 160.60209"
   version="1.1"
   id="svg53678"
   xml:space="preserve"
   xmlns="http://www.w3.org/2000/svg"
   xmlns:svg="http://www.w3.org/2000/svg"><defs
     id="defs53675" /><g
     id="layer1"
     transform="translate(-39.309692,-34.788302)"><path
       style="fill:#000000"
       d="m 47.068509,193.20756 c 1.11569,-14.48278 3.01112,-38.6467 3.7409,-47.69114 0.50491,-6.2574 1.57396,-19.89005 2.37569,-30.29479 1.62841,-21.133428 1.93065,-24.825498 2.14969,-26.259888 l 0.15151,-0.99219 h -5.31492 -5.31492 v -1.15861 -1.1586 l 5.02762,-2.744 c 2.7652,-1.5092 5.25985,-2.92259 5.54367,-3.14087 0.45483,-0.3498 0.58031,-1.13516 1.05779,-6.6204 0.29796,-3.422939 0.54175,-6.607861 0.54175,-7.077605 v -0.854081 h -8.71504 -8.71504 l -0.18038,-1.202847 c -0.0992,-0.661566 -0.13626,-1.23923 -0.0824,-1.283698 0.0539,-0.04447 4.14615,-1.604669 9.09386,-3.467115 4.94771,-1.862446 9.09134,-3.469837 9.20807,-3.571981 0.17231,-0.150771 0.94174,-7.333744 0.97064,-9.061337 0.007,-0.427483 -0.44917,-0.463021 -5.94538,-0.463021 h -5.95312 v -1.006431 c 0,-1.326479 0.41254,-1.699537 7.18596,-6.498153 l 5.46616,-3.872499 h 6.46609 6.46609 l 6.25785,4.379178 6.25785,4.379179 v 1.309363 1.309363 h -5.90519 -5.90518 l 0.2052,1.785937 c 0.11286,0.982266 0.2812,2.949594 0.37409,4.37184 0.1677,2.567706 0.17477,2.588959 1.00363,3.020121 0.45911,0.23882 4.9424,2.000493 9.96286,3.91483 l 9.12813,3.480612 0.0806,1.23833 0.0806,1.238329 h -9.65267 -9.65268 l 0.12634,1.389063 c 0.0695,0.763984 0.35122,4.169794 0.62608,7.568463 0.27487,3.39868 0.53684,6.20546 0.58216,6.23731 0.73541,0.51673 6.22527,3.56439 7.65433,4.24925 2.14649,1.02868 2.34015,1.23095 2.34589,2.45018 l 0.004,0.8599 h -4.78848 -4.78847 l 0.16166,1.52135 c 0.0889,0.83675 0.57472,6.81964 1.07955,13.295308 2.21382,28.39715 7.00888,89.44395 7.14392,90.95052 l 0.14823,1.65365 h -1.02745 -1.02744 l -0.16867,-1.78594 c -0.0928,-0.98227 -0.17114,-2.38125 -0.17416,-3.10885 -0.003,-0.72761 -0.0773,-1.59081 -0.16503,-1.91823 l -0.15954,-0.59532 h -16.22544 c -9.18178,0 -16.28852,0.10212 -16.37079,0.23523 -0.08,0.12938 -0.22438,1.79626 -0.32094,3.70417 l -0.17557,3.46894 h -1.05397 -1.05397 z m 31.38489,-7.83137 1.45006,-0.17227 -3.03756,-2.40074 c -6.0951,-4.81724 -10.11437,-7.78572 -10.54175,-7.78572 -0.37052,0 -6.93903,4.80765 -12.29067,8.99583 l -1.52137,1.19063 1.2654,0.15687 c 1.7382,0.21548 22.88066,0.22868 24.67589,0.0154 z m -24.66695,-3.678 c 2.01689,-1.56435 5.2323,-4.0349 7.14536,-5.4901 1.91305,-1.45521 3.48402,-2.72903 3.49104,-2.83072 0.0176,-0.25436 -10.46988,-8.38997 -11.67668,-9.05815 -0.5356,-0.29655 -1.06853,-0.44447 -1.18429,-0.32871 -0.11576,0.11576 -0.53473,4.28129 -0.93105,9.25673 -0.7245,9.09552 -0.84707,11.29522 -0.62938,11.29522 0.0649,0 1.7681,-1.27992 3.785,-2.84427 z m 28.00865,0.66146 c -0.0902,-0.76399 -0.39914,-4.48469 -0.68656,-8.26823 -0.28741,-3.78354 -0.5984,-7.6234 -0.69109,-8.53302 l -0.16852,-1.65385 -1.09363,0.80331 c -0.6015,0.44183 -3.34943,2.54732 -6.10652,4.67887 l -5.01289,3.87556 1.17643,0.99579 c 2.03819,1.72523 12.27825,9.48777 12.51785,9.48923 0.12591,7.7e-4 0.15513,-0.62368 0.0649,-1.38766 z m -14.6222,-11.0952 c 1.32502,-0.91766 9.43356,-7.16346 9.43356,-7.26642 0,-0.0512 -4.72113,-0.0931 -10.49139,-0.0931 h -10.49139 l 2.22316,1.6948 c 1.22273,0.93213 3.53284,2.71199 5.13357,3.95522 1.60073,1.24324 3.0111,2.26652 3.13416,2.27396 0.12306,0.007 0.59931,-0.24658 1.05833,-0.56449 z m 9.3577,-9.91103 c 1.68356,-0.20224 2.13339,0.20567 -5.17035,-4.68865 -4.29393,-2.87742 -5.47285,-3.55371 -5.84642,-3.35378 -0.25736,0.13774 -3.01625,1.95036 -6.13088,4.02806 -5.60302,3.73766 -5.65315,3.77942 -4.73691,3.94632 1.22131,0.22247 20.11015,0.2812 21.88456,0.068 z m -18.78998,-5.35146 c 3.05954,-2.01832 5.65087,-3.81218 5.75852,-3.98635 0.2267,-0.36682 0.12337,-0.45375 -3.42914,-2.88493 -3.8765,-2.65291 -6.78061,-4.34985 -7.01488,-4.09897 -0.11305,0.12107 -0.39912,2.77997 -0.6357,5.90867 -0.23659,3.1287 -0.5026,6.37315 -0.59115,7.20989 -0.0965,0.9121 -0.0588,1.52136 0.0943,1.52136 0.1404,0 2.75853,-1.65135 5.81807,-3.66967 z m 22.19132,2.54519 c -0.0806,-0.61846 -0.32689,-3.4462 -0.54736,-6.28385 -0.49227,-6.33618 -0.62761,-7.40834 -0.93511,-7.40834 -0.3506,0 -9.60261,6.21371 -10.04413,6.74571 -0.32134,0.3872 -0.31975,0.48049 0.0115,0.67537 0.21141,0.12437 2.76563,1.83151 5.67604,3.79366 2.91042,1.96214 5.44779,3.57527 5.63861,3.58473 0.25613,0.0127 0.30859,-0.27715 0.20042,-1.10728 z m -11.31964,-9.76258 c 1.41361,-0.89465 3.8002,-2.4673 5.30354,-3.49477 2.18838,-1.49567 2.63677,-1.90617 2.24896,-2.05893 -0.62196,-0.24499 -19.58291,-0.23574 -20.46043,0.01 -0.60743,0.17009 -0.45614,0.32352 1.85209,1.87834 2.17038,1.46198 8.19077,5.24094 8.41001,5.27892 0.0416,0.007 1.23223,-0.71889 2.64583,-1.61354 z m -15.02459,-8.42752 c 0,-0.14553 -0.11907,-0.26459 -0.26459,-0.26459 -0.14552,0 -0.26458,0.11906 -0.26458,0.26459 0,0.14552 0.11906,0.26458 0.26458,0.26458 0.14552,0 0.26459,-0.11906 0.26459,-0.26458 z m 23.94427,-8.4e-4 c -0.0902,-0.14599 -2.60291,-2.00727 -5.58374,-4.13618 -4.30817,-3.0769 -5.51817,-3.82285 -5.89983,-3.63718 -0.85439,0.41564 -10.86186,7.63543 -10.86762,7.84034 -0.003,0.10914 5.0616,0.19844 11.25482,0.19844 7.46333,0 11.20509,-0.0895 11.09637,-0.26542 z m -20.44942,-3.90177 c 6.06761,-4.26312 7.34418,-5.22404 7.26689,-5.47001 -0.073,-0.23238 -2.73192,-2.1916 -7.50699,-5.53155 l -2.1692,-1.51727 -0.14179,0.86853 c -0.078,0.47769 -0.32132,3.13072 -0.54076,5.89561 -0.21944,2.7649 -0.47111,5.7117 -0.55927,6.54844 -0.0972,0.9222 -0.0586,1.52136 0.0979,1.52136 0.142,0 1.74095,-1.0418 3.55322,-2.31511 z m 21.1114,1.08324 c 0,-1.08382 -0.85849,-11.16343 -1.01815,-11.95424 l -0.17827,-0.88298 -1.45231,0.98531 c -0.79878,0.54192 -2.74894,1.94644 -4.3337,3.12115 l -2.88138,2.13584 0.95848,0.82854 c 1.33353,1.15274 8.39854,6.2045 8.67715,6.2045 0.1255,0 0.22818,-0.19716 0.22818,-0.43812 z m -6.90229,-11.24426 4.21532,-3.002 -4.46028,-0.0723 c -2.45316,-0.0398 -6.56157,-0.0398 -9.1298,0 l -4.66951,0.0723 1.27901,0.90328 c 6.6031,4.66332 7.6451,5.33734 8.07671,5.22447 0.26027,-0.0681 2.37012,-1.47465 4.68855,-3.12575 z m 3.99187,-5.73359 1.19062,-0.17883 -2.77812,-2.0192 c -4.4219,-3.21395 -7.38537,-5.05768 -7.84549,-4.88112 -0.22808,0.0875 -2.54519,1.6759 -5.14913,3.52973 -4.62985,3.29613 -4.71543,3.37421 -3.87356,3.5342 1.17929,0.22412 16.97808,0.23715 18.45568,0.0152 z m -16.36734,-4.71584 c 3.81162,-2.66665 5.2568,-3.77274 5.24984,-4.01803 -0.003,-0.0969 -1.46126,-1.20119 -3.24115,-2.45394 -4.026,-2.83367 -4.67605,-3.24972 -4.83268,-3.09309 -0.16683,0.16683 -0.914,8.70519 -0.91568,10.46405 -7.3e-4,0.76399 0.10454,1.38907 0.23394,1.38907 0.12939,0 1.70697,-1.02963 3.50573,-2.28806 z m 17.33614,-2.27601 c -0.24009,-5.61955 -0.41369,-6.87959 -0.92103,-6.6849 -0.66709,0.25598 -6.92694,4.7163 -6.92694,4.93563 0,0.37086 7.25329,5.75444 7.78049,5.77487 0.14058,0.005 0.16851,-1.6607 0.0675,-4.0256 z m -6.23713,-5.52966 c 1.9517,-1.33144 3.83248,-2.64113 4.17953,-2.91042 0.61776,-0.47933 0.45151,-0.4896 -7.92427,-0.4896 -5.05808,0 -8.45252,0.097 -8.30391,0.23729 0.68038,0.64233 7.93498,5.58354 8.19765,5.58354 0.16636,0 1.89931,-1.08936 3.851,-2.42081 z m 2.3461,-6.01523 c 0.60143,-0.16775 0.45416,-0.33863 -1.98437,-2.302358 -1.44872,-1.16664 -3.07882,-2.45529 -3.62246,-2.86367 l -0.98844,-0.74251 -3.43568,2.87281 c -3.26092,2.726688 -3.39905,2.881308 -2.71573,3.039948 0.97578,0.22652 11.93244,0.2229 12.74668,-0.004 z m -12.35376,-3.705358 c 4.10111,-3.2954 4.11739,-3.31437 3.4724,-4.04411 -0.66988,-0.7579 -5.62773,-4.71657 -5.90705,-4.71657 -0.29074,0 -0.47519,1.41209 -0.81219,6.21771 -0.15308,2.18281 -0.33658,4.236638 -0.40779,4.564058 -0.0712,0.32742 -0.0107,0.59531 0.13454,0.59531 0.1452,0 1.72924,-1.177378 3.52009,-2.616398 z m 15.27599,2.165818 c 0,-0.526498 -0.78383,-10.356398 -0.86862,-10.893208 -0.0342,-0.21635 -1.42623,0.73996 -3.43746,2.36144 -1.85902,1.49877 -3.34731,2.81291 -3.30729,2.92032 0.11038,0.29632 7.14336,6.062028 7.39443,6.062028 0.12041,0 0.21894,-0.20276 0.21894,-0.45058 z m -5.82083,-9.890478 2.77812,-2.22664 -1.45521,-0.17228 c -1.83965,-0.21778 -7.26812,-0.21507 -9.52486,0.005 l -1.71966,0.16752 3.15987,2.5744 c 2.71638,2.21308 3.21768,2.52559 3.57174,2.22664 0.22653,-0.19126 1.66203,-1.34974 3.19,-2.5744 z m -13.75834,-6.85685 c 0,-0.87313 -0.0772,-1.5875 -0.1716,-1.5875 -0.20252,0 -4.48836,2.30377 -5.24508,2.81939 -0.45149,0.30763 -0.12132,0.35561 2.44739,0.35561 h 2.96929 z m 18.35762,0.59531 c -0.35653,-2.72216 -0.363,-2.73775 -1.29925,-3.12894 -0.70172,-0.2932 -2.42719,-0.37679 -7.77746,-0.37679 h -6.87568 l -0.13014,0.8599 c -0.0716,0.47294 -0.19042,1.48497 -0.2641,2.24895 l -0.13397,1.38907 h 8.30527 8.30528 z m 5.52663,0.46933 c -0.46986,-0.28649 -1.45212,-0.82383 -2.18281,-1.19409 l -1.32852,-0.67322 v 1.19509 1.19508 l 2.18281,-9.9e-4 2.18281,-9.9e-4 z m -10.13013,-8.40683 c -1.21811,-1.27331 -2.52196,-2.64305 -2.89745,-3.04387 l -0.68271,-0.72877 -2.85693,3.04387 -2.85693,3.04387 h 5.75438 5.75439 z m -6.8175,-3.0526 c 1.29459,-1.451149 1.55709,-1.89303 1.36763,-2.302253 -0.2788,-0.602196 -4.61862,-5.364286 -4.75988,-5.223022 -0.14906,0.149058 -0.89159,8.859075 -0.89529,10.501785 l -0.003,1.44526 1.34435,-1.31297 c 0.73939,-0.72213 2.06529,-2.12109 2.94643,-3.1088 z m 10.39598,-1.422068 c -0.2399,-3.032344 -0.5281,-5.607626 -0.64045,-5.72285 -0.21563,-0.221153 -5.05048,4.676374 -5.05048,5.115956 0,0.318278 5.85746,6.389902 6.01374,6.233622 0.0624,-0.0623 -0.0829,-2.59438 -0.32281,-5.626728 z m -5.03337,-4.256582 c 1.08908,-1.127786 1.98197,-2.139818 1.9842,-2.248958 0.002,-0.109141 -1.8414,-0.198438 -4.09697,-0.198438 -2.25557,0 -4.10063,0.0893 -4.10013,0.198438 0.001,0.301598 3.71095,4.299479 3.98942,4.299479 0.13384,0 1.13441,-0.922735 2.22348,-2.050521 z m 19.18619,-4.975497 c 0,-0.329976 -12.86956,-5.328038 -13.10723,-5.090365 -0.0673,0.06732 -0.0451,1.210964 0.0493,2.541435 l 0.17171,2.419039 4.52487,0.0789 c 2.48869,0.04339 5.38808,0.105662 6.44311,0.138372 1.05502,0.03271 1.91823,-0.0066 1.91823,-0.08738 z m -29.80316,-1.109919 c 0.25451,-1.539769 0.19902,-3.241146 -0.10571,-3.241146 -0.38106,0 -7.80711,2.766795 -9.54786,3.557336 l -1.4214,0.645514 5.45549,0.01524 5.45548,0.01524 z m 14.85454,-0.396875 c -0.0826,-0.763985 -0.21352,-1.98214 -0.29093,-2.707012 -0.0774,-0.724873 -0.28182,-1.407659 -0.45424,-1.517303 -0.17243,-0.109644 -2.90311,-0.201176 -6.06819,-0.203405 l -5.75469,-0.0041 v 1.284104 c 0,0.706258 -0.0765,2.015945 -0.16998,2.910417 l -0.16998,1.626312 h 6.52909 6.5291 z m -0.6618,-6.997637 c 0,-0.392581 -0.13768,-2.357112 -0.30597,-4.365625 l -0.30596,-3.651842 h -5.10178 -5.10178 l -0.13995,1.124479 c -0.077,0.618464 -0.21009,2.196042 -0.29583,3.505729 -0.0857,1.309688 -0.22191,2.768203 -0.30259,3.241146 l -0.1467,0.859896 h 5.85028 5.85028 z M 59.067649,40.675283 c 0.14924,-1.70987 0.23583,-3.150096 0.19242,-3.200504 -0.23037,-0.267503 -8.35751,5.767111 -8.17172,6.067723 0.0821,0.132899 1.85002,0.241635 3.92864,0.241635 h 3.77931 z m 11.60029,0.529167 c -0.27256,-4.208662 -0.27208,-4.207163 -1.40934,-4.39516 -0.54259,-0.08969 -2.48968,-0.164389 -4.32688,-0.165991 l -3.34037,-0.0029 -0.17191,0.859543 c -0.0945,0.472748 -0.24659,2.080092 -0.33786,3.571874 l -0.16596,2.712333 h 4.95969 4.9597 z m 10.09247,2.369761 c 0.20328,-0.129217 -1.01775,-1.150187 -3.39409,-2.837997 -2.04138,-1.449896 -3.83594,-2.786003 -3.98792,-2.969126 -0.64217,-0.773772 -0.78481,-0.244946 -0.69796,2.587557 0.0686,2.236435 0.18252,2.979169 0.48643,3.170949 0.47136,0.297442 7.13499,0.340106 7.59354,0.04862 z M 187.73198,194.39819 c 2.9e-4,-0.5457 0.2996,-4.74266 0.66514,-9.32656 3.02042,-37.87688 7.53625,-95.545988 7.53633,-96.242178 l 9e-5,-0.8599 h -5.15937 -5.15938 v -1.18383 c 0,-1.06963 0.083,-1.22596 0.8599,-1.62056 0.47294,-0.2402 2.96567,-1.62035 5.5394,-3.06702 l 4.6795,-2.63029 0.15219,-1.37155 c 0.1645,-1.48238 0.939,-11.684427 0.93952,-12.375729 2.9e-4,-0.372441 -0.995,-0.441962 -8.65174,-0.604326 -4.75864,-0.100909 -8.6741,-0.20918 -8.70103,-0.240603 -0.0269,-0.03142 -0.12814,-0.537041 -0.22493,-1.123595 -0.17301,-1.048523 -0.15905,-1.072483 0.82967,-1.424365 4.58848,-1.633017 16.94927,-6.463413 17.21435,-6.72709 0.29976,-0.298166 0.52374,-2.13817 0.94723,-7.781561 l 0.12409,-1.653646 h -5.80957 -5.80957 l 0.08,-1.35551 0.08,-1.355509 5.90134,-4.168452 c 4.13103,-2.917982 6.19467,-4.21695 6.87917,-4.33012 0.5378,-0.08892 3.5604,-0.162979 6.71688,-0.16458 l 5.73905,-0.0029 6.23334,4.413137 6.23334,4.413138 v 1.275404 1.275404 h -5.85007 -5.85007 l 0.1911,3.180471 c 0.1051,1.749259 0.26709,3.79092 0.35996,4.537023 l 0.16888,1.356552 9.92187,3.731206 9.92188,3.731206 0.0806,1.25677 0.0806,1.256771 h -9.70227 -9.70228 l 0.16686,1.389063 c 0.0918,0.763984 0.34641,3.829843 0.56587,6.813021 0.44401,6.03546 0.4785,6.22719 1.27688,7.09948 0.6106,0.66712 4.64042,3.00446 7.43341,4.31145 l 1.73045,0.80978 v 1.16569 1.16568 h -4.6302 c -2.54662,0 -4.63021,0.0982 -4.63021,0.2183 0,0.12007 0.47966,6.28155 1.06591,13.692188 2.61908,33.10728 4.83126,61.21945 5.93222,75.38639 0.65591,8.44021 1.26323,15.97091 1.34959,16.73489 l 0.15702,1.38907 h -1.04099 -1.04098 l -0.18102,-2.31511 c -0.0996,-1.2733 -0.25139,-2.94018 -0.3374,-3.70416 l -0.15638,-1.38907 h -16.21761 c -15.21807,0 -16.22585,0.0285 -16.35121,0.46302 -0.0735,0.25467 -0.20452,1.41553 -0.29119,2.57969 -0.32684,4.38985 -0.31937,4.36563 -1.34688,4.36563 -0.87507,0 -0.90981,-0.0379 -0.90931,-0.99219 z m 31.19591,-9.02676 1.69539,-0.16751 -2.62143,-2.0806 c -5.14282,-4.0818 -10.59726,-8.10586 -10.98715,-8.10586 -0.41172,0 -5.29938,3.6044 -10.54211,7.77427 l -3.03282,2.41219 1.44532,0.15531 c 1.9645,0.2111 21.9272,0.22123 24.0428,0.0122 z m -21.30803,-6.11048 c 3.47409,-2.69772 6.56972,-5.10831 6.87917,-5.35686 0.41932,-0.3368 0.49524,-0.5541 0.29805,-0.85311 -0.48058,-0.72872 -11.6337,-9.15608 -12.02183,-9.08376 -0.59588,0.11104 -0.74005,1.1044 -1.45894,10.05192 -0.78155,9.72751 -0.81182,10.63925 -0.34371,10.35065 0.1819,-0.11214 3.17317,-2.41112 6.64726,-5.10884 z m 24.93119,3.49557 c -0.0836,-0.5457 -0.33395,-3.43297 -0.55643,-6.41614 -0.57377,-7.69356 -0.94381,-11.45607 -1.16568,-11.85277 -0.31239,-0.55852 -11.53394,8.13745 -11.53394,8.93805 0,0.34593 2.92754,2.71477 9.9113,8.01978 1.66768,1.2668 3.13666,2.30327 3.2644,2.30327 0.12775,0 0.16391,-0.44648 0.0804,-0.99219 z m -10.44305,-14.639 c 2.67295,-2.04872 4.97303,-3.83466 5.11127,-3.96875 0.15342,-0.14881 -3.81569,-0.23962 -10.18646,-0.23306 l -10.43781,0.0108 0.92604,0.79503 c 1.61334,1.38509 9.26702,7.12096 9.50189,7.12096 0.12383,0 2.41212,-1.67622 5.08507,-3.72494 z m 5.52137,-6.82032 1.19063,-0.1873 -5.6681,-3.76827 c -3.11745,-2.07255 -5.95189,-3.83951 -6.29876,-3.92656 -0.91282,-0.22911 -12.63245,7.55738 -11.84047,7.86676 0.65613,0.2563 20.99717,0.27013 22.6167,0.0154 z m -19.01134,-5.39588 c 3.09011,-2.07368 5.65921,-3.90132 5.70912,-4.06143 0.0827,-0.26545 -8.97003,-6.45055 -10.04502,-6.86303 -0.28071,-0.1077 -0.51128,-0.0368 -0.58998,0.18138 -0.10169,0.28195 -1.19819,13.35436 -1.19819,14.28472 0,0.12577 0.11378,0.22867 0.25285,0.22867 0.13907,0 2.78112,-1.69664 5.87122,-3.77031 z m 21.80904,0.79375 c -0.279,-4.18273 -0.96564,-11.68375 -1.08,-11.7981 -0.13699,-0.137 -1.40271,0.64334 -5.81874,3.58733 -5.04326,3.36215 -4.78389,3.14272 -4.34286,3.67413 0.68344,0.82349 10.58281,7.23202 11.18997,7.24402 0.13034,0.003 0.15303,-1.18714 0.0516,-2.70738 z m -8.12421,-9.92188 5.45881,-3.63802 -10.35363,-0.0692 c -5.69449,-0.038 -10.6252,0.0313 -10.95713,0.15406 -0.53446,0.19772 -0.0159,0.62016 4.53279,3.69278 2.82497,1.90824 5.29921,3.47602 5.49833,3.48396 0.19911,0.008 2.81849,-1.62268 5.82083,-3.62359 z m 6.32922,-6.29538 c -0.89649,-0.89649 -11.05338,-7.79368 -11.47707,-7.79368 -0.45658,0 -7.15596,4.53 -10.84591,7.3338 l -0.77243,0.58693 11.61961,0.008 c 6.39079,0.005 11.5549,-0.0563 11.4758,-0.13544 z m -18.82491,-5.41876 c 2.88997,-2.04077 5.2545,-3.81706 5.2545,-3.9473 0,-0.27569 -1.2731,-1.26591 -6.04174,-4.69924 -2.96852,-2.13727 -3.48501,-2.42309 -3.6364,-2.01234 -0.097,0.26331 -0.37139,3.09813 -0.60965,6.29958 -0.23826,3.20146 -0.49882,6.32685 -0.57902,6.94532 -0.0827,0.6374 -0.0368,1.12448 0.10599,1.12448 0.1385,0 2.61634,-1.66973 5.50632,-3.7105 z m 19.01951,0.99852 c -0.0772,-0.90951 -0.26075,-3.20146 -0.40792,-5.09323 -0.14716,-1.89177 -0.3388,-4.06171 -0.42585,-4.82208 -0.18601,-1.62466 -0.13325,-1.63384 -3.14166,0.54638 -5.84933,4.23906 -5.75818,4.15661 -5.2373,4.73749 0.40135,0.44758 5.87742,4.42709 8.01542,5.82488 1.19148,0.77896 1.3512,0.61975 1.19731,-1.19344 z m -6.55453,-9.93248 c 1.92848,-1.36908 3.57262,-2.5965 3.65364,-2.7276 0.0863,-0.13965 -3.60632,-0.23836 -8.91705,-0.23836 -5.22814,0 -8.95799,0.0985 -8.81301,0.23267 0.26624,0.24644 6.51179,4.73589 8.02139,5.76596 l 0.89087,0.60788 0.82892,-0.57566 c 0.45591,-0.31661 2.40677,-1.69581 4.33524,-3.06489 z m 4.41491,-5.5852 c 0.44593,-0.17458 0.32504,-0.33813 -0.92604,-1.25271 -4.0916,-2.99109 -8.42052,-5.91763 -8.75331,-5.91763 -0.35185,0 -6.76647,4.37154 -9.06995,6.18114 -1.02534,0.8055 -1.03036,0.8181 -0.39687,0.99513 0.88647,0.24774 18.51217,0.24228 19.14617,-0.006 z m -16.45195,-5.11982 c 2.33795,-1.63711 4.37563,-3.05859 4.52817,-3.15885 0.17754,-0.11669 0.0907,-0.3905 -0.2413,-0.76088 -0.63568,-0.70916 -7.56108,-5.33176 -7.73191,-5.16094 -0.10603,0.10604 -1.08535,10.32067 -1.11158,11.59421 -0.005,0.25466 0.0614,0.46302 0.14813,0.46302 0.0867,0 2.07053,-1.33945 4.40849,-2.97656 z m 16.7511,-2.53473 c -0.22834,-2.62303 -0.41517,-5.07542 -0.41517,-5.44976 0,-0.37434 -0.13676,-0.68062 -0.30392,-0.68062 -0.35236,0 -6.07376,4.06219 -6.70714,4.76206 -0.39759,0.43933 -0.35011,0.53257 0.71287,1.40001 1.71639,1.40066 6.89032,4.97567 7.01728,4.8487 0.0612,-0.0612 -0.0756,-2.25736 -0.30392,-4.88039 z m -6.0732,-4.95863 c 2.02051,-1.39284 3.848,-2.70252 4.06108,-2.91042 0.33598,-0.3278 -0.71701,-0.37799 -7.93015,-0.37799 -8.20762,0 -8.31068,0.007 -7.79576,0.50814 0.80974,0.78853 7.36291,5.31269 7.69533,5.31269 0.16272,0 1.94899,-1.13959 3.9695,-2.53242 z m 1.76146,-5.84047 0.99823,-0.16497 -1.1107,-0.95659 c -2.25171,-1.939278 -5.65356,-4.528458 -5.94981,-4.528458 -0.32332,0 -3.2421,2.18389 -5.61999,4.204988 -1.35796,1.1542 -1.39457,1.21816 -0.79375,1.38655 0.81021,0.22708 11.16229,0.27561 12.47602,0.0585 z m -11.44283,-4.158328 c 1.90329,-1.58065 3.4246,-3.03241 3.38069,-3.22611 -0.0774,-0.34157 -6.35033,-5.44473 -6.50395,-5.29112 -0.14278,0.14278 -0.84976,8.47199 -0.85084,10.02415 -6.2e-4,0.884428 0.10878,1.505748 0.25624,1.455208 0.14153,-0.0485 1.81457,-1.381468 3.71786,-2.962128 z m 14.70119,1.35258 c -0.0831,-0.90951 -0.27734,-3.26099 -0.43156,-5.22552 -0.42605,-5.42753 -0.005,-5.19737 -3.84558,-2.10009 -2.89467,2.33418 -3.27133,2.72687 -2.97017,3.09658 0.52837,0.64863 6.90586,5.882668 7.16783,5.882668 0.12685,0 0.16262,-0.74414 0.0795,-1.653638 z m -5.92903,-8.53281 2.96079,-2.38125 -1.43792,-0.17228 c -1.94159,-0.23261 -6.51051,-0.25908 -9.15693,-0.0531 l -2.16276,0.16838 1.10443,0.93098 c 1.99096,1.67829 5.27335,4.04224 5.50485,3.96456 0.12471,-0.0418 1.5591,-1.14765 3.18754,-2.45734 z m -13.70786,-6.01928 c 0.21358,-0.79695 0.21024,-2.57968 -0.005,-2.57968 -0.20252,0 -4.48836,2.30377 -5.24509,2.81939 -0.45232,0.30821 -0.14785,0.35561 2.28425,0.35561 2.68641,0 2.81294,-0.0254 2.96567,-0.59532 z m 18.37494,-1.12777 c -0.1751,-2.75001 0.1871,-2.63058 -8.22916,-2.7134 -3.96049,-0.039 -7.33228,0.0206 -7.49288,0.1323 -0.1606,0.11173 -0.37392,1.12588 -0.47406,2.25367 l -0.18206,2.05052 h 8.24394 8.24394 z m 4.4494,0.53049 c -1.14453,-0.65376 -2.12679,-1.18865 -2.18281,-1.18865 -0.056,0 -0.10185,0.53578 -0.10185,1.19062 v 1.19063 l 2.18282,-0.002 2.18281,-0.002 z m -7.45822,-6.0173 c -0.88508,-1.06859 -4.9975,-5.22552 -5.16957,-5.22552 -0.0923,0 -1.38562,1.30969 -2.87416,2.91042 l -2.70644,2.91041 h 5.62163 5.62162 z m -9.46478,-3.52452 c 1.57541,-1.68382 2.86439,-3.156432 2.86439,-3.272465 0,-0.328416 -4.88411,-5.40658 -5.04512,-5.24557 -0.0786,0.07864 -0.31321,2.269719 -0.52127,4.869069 -0.20805,2.599356 -0.44112,5.172576 -0.51793,5.718276 -0.0768,0.54571 -0.0282,0.99219 0.10795,0.99219 0.13618,0 1.53657,-1.37767 3.11198,-3.0615 z m 11.59856,-2.40092 c -0.43894,-5.402868 -0.56672,-6.266756 -0.90638,-6.127664 -0.10839,0.04439 -1.29373,1.231874 -2.63406,2.638851 l -2.43698,2.558142 2.41612,2.601231 c 2.45339,2.64137 3.72729,3.84343 3.89518,3.67554 0.0511,-0.0511 -0.0992,-2.45684 -0.33388,-5.3461 z m -6.63568,-2.884379 c 0.34357,-0.225115 1.36042,-1.237146 2.25966,-2.248958 l 1.635,-1.839659 h -4.57824 -4.57823 l 2.23727,2.248959 c 1.23051,1.236927 2.27386,2.248958 2.31858,2.248958 0.0447,0 0.36239,-0.184185 0.70596,-0.4093 z m 20.66587,-6.717943 c -0.0843,-0.136441 -1.96658,-0.954342 -4.1828,-1.817556 -6.62438,-2.580193 -8.66473,-3.309184 -8.82194,-3.151973 -0.0821,0.08207 -0.0494,1.200314 0.0727,2.484978 l 0.22188,2.335752 4.49792,0.14202 c 2.47385,0.07811 5.36815,0.167408 6.43176,0.198438 1.15043,0.03356 1.87173,-0.04408 1.78052,-0.191659 z M 198.14654,61.342 c 0.26675,-1.946206 0.2065,-3.00578 -0.17092,-3.00578 -0.35819,0 -10.78802,3.895246 -11.00154,4.108761 -0.0685,0.06851 2.37941,0.124572 5.43982,0.124572 h 5.56438 z m 14.89685,0.367657 c -0.0808,-0.472942 -0.22713,-1.78263 -0.32511,-2.910416 l -0.17816,-2.050521 h -5.89336 -5.89335 l -0.15653,0.623642 c -0.0861,0.343003 -0.23562,1.65269 -0.3323,2.910416 l -0.17577,2.286775 h 6.55077 6.55077 z m -0.62538,-7.011458 c 0.0614,-0.10914 0.0165,-1.150937 -0.0996,-2.315104 -0.11611,-1.164167 -0.28873,-3.041883 -0.3836,-4.172704 l -0.17248,-2.056036 -5.20243,0.07166 -5.20243,0.07166 -0.17459,2.381249 c -0.096,1.309688 -0.24982,3.244454 -0.34177,4.29948 l -0.16717,1.918229 h 5.81626 c 3.19893,0 5.86644,-0.0893 5.92778,-0.198438 z M 199.71267,41.799762 c 0.11399,-1.018646 0.17352,-2.422272 0.13229,-3.119169 l -0.075,-1.267086 -3.44931,2.457711 c -4.39406,3.130874 -4.90545,3.539759 -4.69292,3.752284 0.0958,0.09581 1.90747,0.141381 4.02592,0.101271 l 3.85173,-0.07293 z m 11.5106,-1.326548 c -0.0702,-1.821008 -0.21509,-3.398586 -0.32208,-3.505729 -0.10699,-0.107143 -2.05076,-0.194806 -4.31948,-0.194806 h -4.12495 l -0.21603,0.79375 c -0.11882,0.436562 -0.29523,1.906461 -0.39203,3.266442 -0.14078,1.977991 -0.10165,2.519754 0.19557,2.707927 0.20436,0.12938 2.38193,0.237059 4.83905,0.239287 l 4.4675,0.0041 z m 10.63112,3.112485 c -0.009,-0.225462 -0.007,-0.223743 -4.8831,-3.669261 -1.9806,-1.399562 -3.66503,-2.480717 -3.74318,-2.402565 -0.30637,0.306367 0.24063,5.511412 0.61895,5.889733 0.29582,0.295821 1.23035,0.380531 4.19809,0.380531 2.09966,0 3.81382,-0.0893 3.80924,-0.198438 z M 99.460669,176.00965 c 0.23395,-2.01818 0.705841,-7.88479 3.208271,-39.88594 1.23467,-15.78901 2.36461,-30.17229 2.51098,-31.96285 0.14636,-1.79055 0.26612,-3.66578 0.26612,-4.167178 v -0.91163 h -3.70417 -3.704161 v -0.75274 c 0,-0.97377 0.27974,-1.19936 4.283711,-3.45453 1.84672,-1.04013 3.4209,-2.09658 3.49818,-2.34767 0.24933,-0.81011 0.94936,-7.0127 0.94936,-8.41184 v -1.35654 l -2.97657,-0.17151 c -1.63711,-0.0943 -4.494611,-0.17205 -6.350001,-0.17272 l -3.37343,-0.001 v -0.88386 -0.88386 l 4.56406,-1.74897 c 2.510231,-0.96193 5.529081,-2.11584 6.708551,-2.56424 l 2.1445,-0.81529 0.18186,-3.04185 c 0.10002,-1.673018 0.24906,-3.216993 0.33121,-3.431055 0.12775,-0.332921 -0.48606,-0.389204 -4.24458,-0.389204 h -4.393941 l 0.004,-0.727604 c 0.002,-0.400182 0.0915,-0.864355 0.19844,-1.031496 0.10691,-0.167141 2.218451,-1.744049 4.692301,-3.504239 l 4.49792,-3.200347 4.52204,-0.0015 4.52203,-0.0015 3.94463,2.801306 c 4.81955,3.422632 5.39984,3.951479 5.39984,4.921112 v 0.744248 h -4.27365 -4.27366 l 0.17502,3.108855 c 0.12004,2.132184 0.28732,3.192634 0.53249,3.375544 0.1966,0.14668 3.46974,1.4423 7.27363,2.87914 l 6.91617,2.61245 -2.7e-4,0.95732 -2.8e-4,0.95732 h -6.72477 c -3.69863,0 -6.81455,0.0899 -6.92427,0.19972 -0.19118,0.19139 0.27512,7.82797 0.60037,9.83227 0.16536,1.01896 0.025,0.92202 6.50079,4.49131 0.54677,0.30137 0.7276,0.60138 0.7276,1.2071 v 0.80605 h -3.38262 -3.38261 l 0.5891,7.606778 c 0.32401,4.18372 1.30916,16.77458 2.18923,27.97968 0.88006,11.20511 1.96052,25.07589 2.401,30.82396 0.44049,5.74807 0.82869,10.7487 0.86266,11.1125 0.0501,0.53621 -0.0694,0.67668 -0.63124,0.74184 -0.82711,0.0959 -1.01774,-0.39351 -1.02316,-2.627 -0.002,-0.81855 -0.078,-1.86035 -0.16897,-2.3151 l -0.16537,-0.82682 h -11.72472 -11.72468 l -0.13706,1.12448 c -0.0754,0.61846 -0.20603,1.751 -0.29033,2.51676 -0.2095,1.90299 -0.35151,2.17959 -1.119031,2.17959 -0.64464,0 -0.65903,-0.0398 -0.50262,-1.38906 z m 22.243231,-6.24643 1.57349,-0.16972 -1.30891,-1.09173 c -3.48215,-2.9044 -8.40232,-6.42905 -8.7207,-6.24723 -0.79255,0.45261 -9.36813,7.09035 -9.37821,7.25899 -0.006,0.10154 0.61405,0.22834 1.37803,0.28179 2.41679,0.16907 14.81547,0.14489 16.4563,-0.0321 z m -15.56135,-3.94003 c 2.19361,-1.70987 4.45232,-3.4894 5.01937,-3.95451 l 1.03099,-0.84565 -1.04685,-0.87414 c -2.62293,-2.19017 -7.71503,-6.02989 -7.99891,-6.03161 -0.38296,-0.002 -0.50956,0.88427 -1.01264,7.09165 -0.43795,5.40374 -0.49396,7.72311 -0.18648,7.72311 0.11338,0 2.00092,-1.39898 4.19452,-3.10885 z m 18.50095,-0.39687 c -0.27601,-4.43595 -0.87015,-10.53432 -1.04317,-10.70735 -0.19752,-0.19752 -1.55103,0.70756 -4.9469,3.30794 -4.25934,3.26159 -4.1704,2.78157 -0.97556,5.26533 4.4719,3.47656 6.6724,5.10052 6.91836,5.10572 0.13083,0.003 0.1515,-1.29648 0.0473,-2.97164 z m -7.15892,-8.33576 3.70417,-2.84289 -3.75413,-0.0733 c -2.06477,-0.0403 -5.48849,-0.0403 -7.60826,0 l -3.85413,0.0733 3.63951,2.84314 c 2.00173,1.56372 3.75857,2.84302 3.90409,2.84289 0.14552,-1.4e-4 1.93146,-1.27955 3.96875,-2.84314 z m 4.48469,-5.05656 c -0.38745,-0.35345 -4.80217,-3.27004 -6.80864,-4.49814 -1.72939,-1.0585 -1.82195,-1.08379 -2.56332,-0.70041 -0.73083,0.37793 -7.89445,5.0245 -8.168,5.29805 -0.0714,0.0714 3.90245,0.1298 8.83076,0.1298 5.07139,0 8.85146,-0.0995 8.7092,-0.2293 z m -14.53886,-3.62385 c 1.16417,-0.76575 2.63612,-1.77034 3.271,-2.23243 l 1.15434,-0.84016 -3.72991,-2.49026 c -3.54057,-2.36384 -4.25985,-2.74963 -4.273,-2.29182 -0.003,0.10914 -0.17824,2.10344 -0.38913,4.43177 -0.21088,2.32834 -0.38691,4.68131 -0.39117,5.22884 l -0.008,0.99551 1.12448,-0.70459 c 0.61846,-0.38753 2.07698,-1.33111 3.24114,-2.09686 z m 16.00579,1.93492 c -0.003,-1.12184 -0.81447,-9.83386 -0.92659,-9.94598 -0.11909,-0.1191 -5.48371,3.18041 -6.96123,4.2815 l -0.87786,0.6542 2.59766,1.83915 c 3.59379,2.54442 5.44958,3.73727 5.8388,3.75304 0.1819,0.007 0.33005,-0.25449 0.32922,-0.58191 z m -6.45934,-8.28344 c 1.87998,-1.24529 3.59248,-2.43591 3.80556,-2.64583 0.33766,-0.33264 -0.60562,-0.38167 -7.34218,-0.38167 -4.42723,0 -7.72962,0.10215 -7.72962,0.23909 0,0.3087 7.04266,5.05258 7.50094,5.05258 0.19094,0 1.88533,-1.01888 3.7653,-2.26417 z m 4.86303,-4.81344 c -0.0122,-0.23485 -1.60939,-1.43204 -4.88448,-3.66127 -3.75491,-2.55582 -3.23478,-2.50285 -5.89391,-0.60028 -4.56482,3.26608 -5.42439,3.98609 -5.04542,4.22627 0.43789,0.27751 15.83819,0.31185 15.82381,0.0353 z m -13.48053,-4.08366 c 2.03569,-1.48203 3.70126,-2.77721 3.70126,-2.87818 0,-0.10097 -1.10132,-1.00672 -2.44739,-2.01278 -3.9828,-2.97676 -4.19836,-3.11086 -4.42126,-2.75021 -0.42827,0.69296 -1.05248,10.33577 -0.66907,10.33577 0.0744,0 1.80076,-1.21257 3.83646,-2.6946 z m 13.49887,-3.12623 c -0.16864,-2.11006 -0.38827,-3.9155 -0.48805,-4.01209 -0.1669,-0.16156 -4.01849,2.31203 -5.70582,3.66442 l -0.72161,0.57837 1.93237,1.43467 c 1.06281,0.78908 2.64675,1.91436 3.51988,2.50064 l 1.5875,1.06596 0.0912,-0.69776 c 0.0502,-0.38376 -0.0468,-2.42416 -0.21545,-4.53421 z m -4.63661,-3.20942 3.09754,-2.21454 -3.33552,-0.074 c -1.83453,-0.0407 -4.84957,-0.0407 -6.70008,0 l -3.36457,0.074 3.16613,2.30068 c 1.74137,1.26538 3.36251,2.26192 3.60254,2.21454 0.24003,-0.0474 1.83031,-1.08268 3.53396,-2.30068 z m 3.45414,-4.43732 c -0.17218,-0.27859 -6.9112,-5.05326 -7.13224,-5.05326 -0.20077,0 -7.30373,5.03726 -7.30373,5.17965 0,0.0616 3.28125,0.11201 7.29166,0.11201 4.25983,0 7.23039,-0.0991 7.14431,-0.2384 z m -12.05472,-3.42346 c 3.39467,-2.32193 3.505,-2.42281 3.13605,-2.86736 -0.65139,-0.78488 -5.31187,-3.83621 -5.52846,-3.61962 -0.20739,0.20739 -0.78259,5.95624 -0.78259,7.82163 0,0.89632 -0.22489,0.99086 3.175,-1.33465 z m 12.33139,-0.76991 c -0.40905,-4.7384 -0.50355,-5.35781 -0.8174,-5.35781 -0.31323,0 -5.16399,3.35952 -5.16399,3.57646 0,0.24213 5.40368,3.83187 5.76817,3.83187 0.32558,0 0.36091,-0.33971 0.21322,-2.05052 z m -2.99374,-5.75469 c 0.8272,-0.58208 1.50541,-1.14763 1.50713,-1.25677 0.002,-0.10914 -2.67577,-0.19843 -5.94999,-0.19843 -3.27422,0 -5.94726,0.0893 -5.94008,0.19843 0.007,0.10914 1.32784,1.11121 2.93481,2.22681 l 2.92177,2.02837 1.51118,-0.97003 c 0.83115,-0.53353 2.18798,-1.44629 3.01518,-2.02838 z m -1.18693,-3.30729 c 1.44945,0 1.454,-0.003 0.96742,-0.5402 -0.26888,-0.29711 -1.36167,-1.20871 -2.42843,-2.02578 -2.25969,-1.73078 -2.01293,-1.76898 -5.10221,0.78997 l -1.98438,1.64372 1.5875,0.17038 c 0.87313,0.0937 2.46867,0.12348 3.54565,0.0661 1.07699,-0.0573 2.61349,-0.10424 3.41445,-0.10424 z m -7.19046,-3.10486 2.52032,-2.05261 -1.01269,-0.8623 c -0.55697,-0.47427 -1.68574,-1.39625 -2.50836,-2.04885 l -1.49568,-1.186558 -0.15033,1.518738 c -0.0827,0.8353 -0.21953,2.4117 -0.30413,3.50311 -0.0846,1.09141 -0.22047,2.32967 -0.30197,2.7517 -0.20612,1.06749 0.19446,0.86759 3.25284,-1.62323 z m 10.28174,-0.93003 c -0.10361,-1.78263 -0.26442,-3.67933 -0.35737,-4.2149 l -0.16901,-0.973748 -2.49252,2.012478 -2.49253,2.01248 0.90503,0.77262 c 1.11253,0.94977 4.5746,3.62055 4.70198,3.6273 0.051,0.003 0.008,-1.4536 -0.0956,-3.23623 z m -4.38552,-3.9175 c 1.16959,-0.88132 2.19598,-1.714758 2.28085,-1.852078 0.0945,-0.15291 -1.64648,-0.24969 -4.49151,-0.24969 -2.5552,0 -4.64582,0.0511 -4.64582,0.11366 0,0.17358 4.31835,3.590498 4.53772,3.590498 0.10572,0 1.14916,-0.72108 2.31876,-1.60239 z m -9.81783,-5.210618 c 0.0447,-0.61847 -0.003,-1.12448 -0.10686,-1.12448 -0.31862,0 -3.51273,1.84818 -3.6901,2.13516 -0.10942,0.17704 0.50232,0.24324 1.77431,0.192 l 1.94129,-0.0782 z m 13.43016,-0.1323 c -0.10048,-0.76398 -0.30012,-1.50812 -0.44365,-1.65364 -0.15112,-0.15322 -2.52299,-0.30045 -5.63534,-0.34981 l -5.37438,-0.0852 -0.16918,0.8459 c -0.0931,0.46525 -0.16918,1.24774 -0.16918,1.73887 v 0.89297 h 5.98721 5.98722 z m 4.47704,1.11945 c -0.23522,-0.38058 -2.68,-1.58929 -2.85685,-1.41243 -0.0805,0.0805 -0.095,0.31323 -0.0322,0.51729 0.0627,0.20405 0.16986,0.5496 0.23805,0.76788 0.0889,0.28456 0.50513,0.39688 1.47082,0.39688 0.84728,0 1.28503,-0.10001 1.18021,-0.26962 z m -6.62644,-5.0882 c -0.27163,-0.32742 -1.20969,-1.33977 -2.08459,-2.24967 l -1.59074,-1.65435 -1.92516,1.91232 c -1.05884,1.05177 -1.92517,1.99631 -1.92517,2.09897 0,0.31249 1.03802,0.41437 4.60507,0.45202 l 3.41444,0.036 z m -4.88593,-5.03833 c 0.007,-0.23615 -3.21025,-3.82411 -3.46554,-3.86502 -0.22537,-0.0361 -0.44915,1.91008 -0.63586,5.52992 l -0.15694,3.04271 2.12612,-2.24896 c 1.16937,-1.23693 2.12887,-2.34332 2.13222,-2.45865 z m 6.49359,1.59875 c -0.10947,-1.63711 -0.27449,-3.55922 -0.3667,-4.27137 l -0.16766,-1.2948 -1.78594,1.89508 c -0.98226,1.04229 -1.78594,1.99211 -1.78594,2.1107 0,0.24434 3.9359,4.53695 4.15994,4.53695 0.0799,0 0.0558,-1.33945 -0.0537,-2.97656 z m -3.74557,-4.15585 c 0.67476,-0.72137 1.22683,-1.43575 1.22683,-1.5875 0,-0.32047 -4.34124,-0.35181 -5.14536,-0.0371 -0.46657,0.18258 -0.39455,0.33052 0.76381,1.5689 0.70343,0.75203 1.42497,1.36732 1.60343,1.36732 0.17845,0 0.87654,-0.59021 1.55129,-1.31158 z m -7.56778,-5.03842 c 0.11821,-2.04181 0.0439,-2.04892 -4.18446,-0.40042 -2.09057,0.81505 -3.858581,1.53946 -3.928911,1.60979 -0.0703,0.0703 1.710891,0.0949 3.958281,0.0546 l 4.08616,-0.0733 z m 10.51124,-0.59531 c -0.10404,-1.05503 -0.24222,-2.00753 -0.30705,-2.11667 -0.0648,-0.10914 -2.00098,-0.19844 -4.30254,-0.19844 h -4.18464 l -0.16537,0.82683 c -0.0909,0.45475 -0.16536,1.40725 -0.16536,2.11666 v 1.28985 h 4.65706 4.65706 z m 10.57327,1.67959 c -0.3096,-0.29393 -7.33093,-2.9103 -8.36531,-3.11717 -0.74379,-0.14876 -0.74959,-0.1396 -0.74959,1.18443 0,2.28751 -0.25905,2.17138 4.84373,2.17138 2.69656,0 4.42104,-0.0964 4.27117,-0.23864 z m -10.96857,-6.3098 c -8.7e-4,-0.5457 -0.078,-1.974453 -0.1715,-3.175 l -0.16993,-2.182813 -3.46651,0.0041 c -1.90658,0.0022 -3.60989,0.09519 -3.78514,0.206574 -0.19494,0.123906 -0.38927,1.295234 -0.50062,3.017454 l -0.18199,2.814935 0.7652,0.11385 c 0.42086,0.0626 2.28325,0.13169 4.13864,0.15349 l 3.37344,0.0396 z m -9.15484,-7.62841 c 0.2542,-0.662446 0.18663,-3.502914 -0.0874,-3.672249 -0.23638,-0.146092 -5.39191,3.319323 -5.71435,3.841036 -0.0932,0.150774 0.99386,0.249727 2.74338,0.249727 2.39827,0 2.92541,-0.07214 3.05833,-0.418514 z m 8.50237,-1.89659 c -0.10311,-1.273307 -0.27606,-2.408485 -0.38432,-2.522617 -0.10827,-0.114132 -1.55604,-0.173663 -3.21726,-0.132292 l -3.0204,0.07522 -0.23652,2.025049 c -0.13009,1.113777 -0.16359,2.215105 -0.0744,2.447395 0.13704,0.357112 0.69946,0.422347 3.64125,0.422347 h 3.47918 z m 7.41213,2.068631 c -0.0838,-0.13556 -1.43026,-1.154308 -2.99218,-2.263886 l -2.83985,-2.017413 -0.0827,1.40399 c -0.0455,0.772195 -0.0103,1.790944 0.0781,2.263886 l 0.16085,0.859896 h 2.91404 c 1.73258,0 2.85229,-0.09993 2.76172,-0.246473 z m 18.64193,110.224817 c 0,-0.33961 0.3536,-5.13187 0.78579,-10.64947 0.43218,-5.51761 1.68073,-21.46201 2.77456,-35.43201 1.09383,-13.97 2.10904,-26.70968 2.25602,-28.31041 0.14698,-1.60073 0.26765,-2.999708 0.26814,-3.108848 5e-4,-0.10914 -1.7255,-0.19844 -3.83555,-0.19844 h -3.83646 l 6.9e-4,-0.8599 c 6.7e-4,-0.82946 0.1259,-0.92919 3.53873,-2.81813 1.94593,-1.07703 3.78035,-2.14859 4.07649,-2.38125 0.46302,-0.36376 0.57885,-0.91939 0.82689,-3.96662 0.15865,-1.94899 0.28845,-4.1642 0.28845,-4.92268 v -1.37907 l -1.78594,-0.16867 c -0.98226,-0.0928 -3.76535,-0.16951 -6.18463,-0.17055 l -4.3987,-0.002 -0.1672,-0.83601 c -0.092,-0.4598 -0.13661,-0.86584 -0.0992,-0.90231 0.0374,-0.0365 2.80642,-1.09849 6.1534,-2.36005 3.34698,-1.26157 6.341,-2.45755 6.65338,-2.65774 0.58556,-0.37528 0.59369,-0.41582 1.04541,-5.216284 l 0.16806,-1.785938 h -4.26415 -4.26416 v -0.771263 c 0,-0.580947 0.29001,-1.026544 1.17528,-1.805789 2.15008,-1.892573 7.02097,-5.145897 8.26502,-5.520302 0.80401,-0.241971 2.53824,-0.369312 5.0296,-0.369312 h 3.80246 l 3.94229,2.796878 c 4.9259,3.494698 5.30202,3.8397 5.30202,4.863405 v 0.806383 h -4.26087 -4.26088 l 0.17072,2.182813 c 0.29446,3.764999 0.39143,4.142609 1.16536,4.538059 0.38685,0.19768 3.44181,1.39399 6.78879,2.65847 5.97119,2.25591 7.01146,2.82803 7.01146,3.85611 0,0.44482 -0.46029,0.48281 -6.85744,0.566 -3.7716,0.0491 -6.92602,0.15789 -7.00983,0.24189 -0.0838,0.084 0.0247,2.40571 0.24111,5.15937 0.21642,2.75367 0.39428,5.14534 0.39525,5.31484 9.6e-4,0.1695 1.61085,1.18153 3.57755,2.24896 2.63896,1.43231 3.61775,2.09998 3.73594,2.54841 0.0881,0.3342 0.115,0.65277 0.0598,0.70794 -0.0552,0.0552 -1.56127,0.18576 -3.3469,0.2902 -1.78563,0.10445 -3.30887,0.29066 -3.38498,0.4138 -0.0761,0.12314 0.0466,2.576608 0.27264,5.452158 0.22605,2.87555 1.35898,17.25358 2.51762,31.95118 3.13316,39.74497 3.16473,40.16708 3.02142,40.39897 -0.0729,0.11801 -0.35425,0.21457 -0.62515,0.21457 -0.57141,0 -0.69289,-0.46761 -0.94514,-3.63802 l -0.17367,-2.18281 h -11.8441 -11.84409 l -0.164,0.99219 c -0.0902,0.5457 -0.16693,1.5875 -0.17052,2.3151 -0.01,1.96378 -0.21883,2.51354 -0.9562,2.51354 -0.48427,0 -0.6306,-0.14328 -0.6306,-0.61748 z m 23.48392,-7.01029 c 0.23097,-0.14663 -0.21453,-0.65034 -1.45521,-1.64533 -4.14082,-3.32083 -7.57176,-5.80815 -8.01161,-5.80815 -0.71393,0 -9.84325,7.20684 -9.44765,7.45814 0.42953,0.27286 18.48434,0.26841 18.91447,-0.005 z m -15.61993,-4.87732 c 2.50619,-1.92621 4.56002,-3.62582 4.56407,-3.7769 0.009,-0.32209 -1.10145,-1.26769 -5.37213,-4.57615 -3.01513,-2.3358 -3.87836,-2.80139 -3.88319,-2.09446 -0.001,0.1819 -0.23711,3.18823 -0.52417,6.68073 -0.28705,3.4925 -0.52415,6.7437 -0.5269,7.22489 -0.006,1.05347 -0.5681,1.39196 5.74232,-3.45811 z m 16.87225,-4.29595 c -0.24368,-3.20146 -0.53232,-5.91505 -0.64141,-6.0302 -0.18652,-0.19687 -6.5267,4.42557 -7.94856,5.79507 -0.65164,0.62764 -0.65228,0.63314 -0.1323,1.14518 0.28737,0.28298 2.42749,2.00379 4.75582,3.82402 l 4.23334,3.30951 0.0881,-1.11137 c 0.0485,-0.61126 -0.11129,-3.73075 -0.35497,-6.93221 z m -6.81887,-3.50418 c 1.77815,-1.36021 3.30323,-2.58673 3.38906,-2.72561 0.0976,-0.15795 -2.57446,-0.2525 -7.13561,-0.2525 -4.45597,0 -7.29165,0.0983 -7.29165,0.25269 0,0.55873 7.08654,5.63301 7.50962,5.37723 0.16257,-0.0983 1.75043,-1.2916 3.52858,-2.65181 z m 4.57221,-4.97227 c 0,-0.14354 -7.03413,-4.79598 -8.13593,-5.38118 -0.73031,-0.3879 -0.65731,-0.42397 -5.42293,2.67949 -2.00035,1.30265 -3.5709,2.47541 -3.49012,2.60612 0.15403,0.24921 17.04898,0.34392 17.04898,0.0956 z m -14.37806,-3.87133 c 3.34085,-2.2194 3.99538,-2.75628 3.73816,-3.06622 -0.43334,-0.52214 -6.92801,-4.82662 -7.28249,-4.82662 -0.2834,0 -0.42213,1.1759 -0.73355,6.2177 -0.0809,1.30969 -0.21312,2.82774 -0.29383,3.37344 -0.10358,0.70035 -0.0484,0.99219 0.18749,0.99219 0.18383,0 2.15673,-1.21072 4.38422,-2.69049 z m 15.86624,2.22747 c -0.0742,-0.25466 -0.28039,-2.51166 -0.4581,-5.01554 -0.17772,-2.50389 -0.41758,-4.70537 -0.53304,-4.89218 -0.15374,-0.24876 -1.15117,0.30195 -3.72692,2.05775 -1.93434,1.31858 -3.51699,2.56497 -3.51699,2.76974 0,0.40882 7.41337,5.54325 8.00364,5.54325 0.22398,0 0.31393,-0.17997 0.23141,-0.46302 z m -6.09674,-8.69302 c 2.09815,-1.3978 3.81481,-2.58843 3.81481,-2.64584 0,-0.0574 -3.52226,-0.10437 -7.82725,-0.10437 -5.12346,0 -7.79666,0.0918 -7.73868,0.26575 0.12289,0.36866 7.14979,5.02509 7.58393,5.02554 0.19381,2.1e-4 2.06904,-1.14328 4.16719,-2.54108 z m 4.17465,-4.54237 c 0.12367,-0.20009 -2.40734,-2.17763 -5.98588,-4.67691 l -1.78958,-1.24986 -1.12083,0.66852 c -1.93911,1.15659 -6.89737,4.78656 -7.01014,5.13218 -0.0847,0.25964 1.5997,0.33073 7.83601,0.33073 4.36917,0 8.00086,-0.0921 8.07042,-0.20466 z m -13.589,-3.7789 c 1.81901,-1.31358 3.54541,-2.56648 3.83646,-2.78423 0.52336,-0.39157 0.52191,-0.40159 -0.1323,-0.91333 -2.00399,-1.5676 -6.39519,-4.53271 -6.52319,-4.40472 -0.15558,0.15559 -0.85702,7.77709 -0.87489,9.50615 -0.006,0.5457 0.079,0.99045 0.18819,0.98832 0.10914,-0.002 1.68672,-1.07861 3.50573,-2.39219 z m 13.93269,-1.79076 c -0.20266,-4.00419 -0.43149,-5.86735 -0.72061,-5.86735 -0.29374,0 -5.43284,3.84725 -5.68577,4.2565 -0.13419,0.21711 0.11164,0.602 0.69728,1.09175 1.47438,1.23295 5.31589,3.91217 5.60934,3.91217 0.18041,0 0.21387,-1.13832 0.0998,-3.39307 z m -4.85215,-4.69797 c 1.55414,-1.10309 2.82571,-2.11513 2.82571,-2.24896 0,-0.32051 -12.09116,-0.32172 -12.28923,-0.001 -0.0823,0.13316 0.71435,0.87092 1.77032,1.63948 3.13088,2.27872 3.68454,2.61633 4.29054,2.61633 0.31733,0 1.84853,-0.90253 3.40266,-2.00562 z m 2.3783,-4.34341 c 0.84533,-5.3e-4 1.47466,-0.10179 1.39851,-0.22501 -0.37384,-0.60487 -7.33669,-5.0778 -7.63247,-4.90308 -0.18155,0.10724 -1.85348,1.27494 -3.7154,2.5949 l -3.38531,2.39993 2.19469,0.16816 c 1.20707,0.0925 3.86155,0.12268 5.89885,0.0671 2.03729,-0.0556 4.3958,-0.10148 5.24113,-0.10201 z m -9.64462,-4.50685 c 2.61091,-1.89834 2.66502,-1.68674 -1.0887,-4.25771 -1.66182,-1.13821 -2.43059,-1.52846 -2.56918,-1.30421 -0.10878,0.17601 -0.27702,1.59053 -0.37387,3.14338 -0.0968,1.55286 -0.25047,3.40619 -0.34138,4.11851 l -0.16528,1.29513 1.16366,-0.69372 c 0.64001,-0.38155 2.15865,-1.41717 3.37475,-2.30138 z m 11.05993,-0.20442 c -0.23085,-3.52263 -0.4631,-5.07928 -0.75783,-5.07928 -0.48662,0 -5.27175,3.51055 -5.05827,3.71094 0.55604,0.52195 5.53691,3.94951 5.74786,3.95537 0.13671,0.004 0.16579,-1.0986 0.0682,-2.58703 z m -4.3898,-4.48397 c 1.58785,-1.12778 2.88828,-2.13982 2.88986,-2.24896 0.002,-0.10914 -2.69985,-0.19843 -6.00317,-0.19843 -3.55046,0 -5.90328,0.0969 -5.75469,0.23709 0.33422,0.31526 5.78324,4.24968 5.89431,4.25594 0.0477,0.003 1.38585,-0.91785 2.97369,-2.04564 z m -0.60189,-4.20884 2.19392,-0.17078 -0.73871,-0.77673 c -0.9885,-1.03936 -3.75383,-3.11188 -4.15214,-3.11188 -0.17505,0 -1.35488,0.85556 -2.62183,1.90124 -1.58998,1.31229 -2.20042,1.96672 -1.97061,2.11262 0.40287,0.25577 4.27761,0.27997 7.28937,0.0455 z m 4.00455,-4.59913 c -0.16374,-2.08398 -0.37523,-3.99573 -0.46997,-4.24833 -0.14354,-0.382748 -0.5384,-0.1498 -2.36924,1.39775 -1.20835,1.02137 -2.16085,2.02126 -2.11667,2.22197 0.0849,0.38556 4.99073,4.68051 5.1567,4.51455 0.0533,-0.0533 -0.0371,-1.80196 -0.20082,-3.88594 z m -10.64392,1.69459 c 1.49449,-1.2144 2.45472,-2.18142 2.40744,-2.42446 -0.10893,-0.55993 -4.19687,-3.84972 -4.44805,-3.5796 -0.11201,0.12046 -0.33558,1.7393 -0.49682,3.59744 -0.3405,3.9239 -0.35423,4.42677 -0.12091,4.42677 0.0947,0 1.29099,-0.90907 2.65834,-2.02015 z m 6.54332,-5.38818 2.35878,-1.852078 h -4.67572 c -2.57165,0 -4.67572,0.0672 -4.67572,0.14937 0,0.27579 4.13371,3.554788 4.48139,3.554788 0.0839,0 1.21393,-0.83343 2.51127,-1.85208 z m -10.32159,-3.864758 c 0.50635,-0.19431 0.6005,-2.22065 0.10317,-2.22065 -0.3422,0 -3.91799,2.06331 -3.91799,2.26077 0,0.18035 3.3316,0.14531 3.81482,-0.0401 z m 13.64768,-1.26873 c 0,-1.36531 -0.0373,-1.44233 -0.83323,-1.71979 -0.49099,-0.17116 -2.88186,-0.29047 -5.82084,-0.29047 h -4.9876 v 1.7198 1.71979 h 5.82083 5.82084 z m 4.38112,1.18981 c -0.15639,-0.25303 -2.38407,-1.61257 -2.6423,-1.61257 -0.0832,0 -0.15132,0.41672 -0.15132,0.92605 v 0.92604 h 1.47082 c 0.81054,0 1.40437,-0.10753 1.3228,-0.23952 z m -6.64219,-5.38288 c -2.19517,-2.44329 -3.18563,-3.37344 -3.59218,-3.37344 -0.40183,0 -3.93634,3.64987 -3.93634,4.06481 0,0.0927 1.86775,0.16853 4.15055,0.16853 h 4.15054 z m -4.6181,-4.7265 c 0,-0.0958 -0.77013,-0.99137 -1.71139,-1.99022 -1.31077,-1.39096 -1.76802,-1.7313 -1.95329,-1.4539 -0.23143,0.34652 -0.34171,1.2661 -0.71809,5.98781 l -0.16872,2.11667 2.27574,-2.24312 c 1.25166,-1.23372 2.27575,-2.32147 2.27575,-2.41724 z m 6.31884,0.9443 c -0.15149,-1.88523 -0.35857,-3.76839 -0.46018,-4.18479 l -0.18476,-0.7571 -1.79951,2.01064 -1.7995,2.01063 1.91671,2.11243 c 1.67472,1.84573 2.3347,2.43601 2.54667,2.2777 0.0308,-0.023 -0.0679,-1.58427 -0.21943,-3.46951 z m -3.74747,-3.61709 c 0.76856,-0.75902 1.39738,-1.47339 1.39738,-1.5875 0,-0.11412 -1.30969,-0.20748 -2.91042,-0.20748 -1.60073,0 -2.91041,0.068 -2.91041,0.15107 0,0.27922 2.51067,3.01722 2.7698,3.02059 0.14095,0.002 0.88509,-0.61767 1.65365,-1.37668 z m -7.80385,-3.99835 c 0.10851,-0.17059 0.19912,-0.88374 0.20135,-1.58477 0.004,-1.19871 -0.0314,-1.26404 -0.59127,-1.09719 -1.24479,0.37095 -7.34002,2.81565 -7.44612,2.98652 -0.0611,0.0985 1.63256,0.14 3.76379,0.0923 2.58841,-0.0579 3.94046,-0.18969 4.07225,-0.39688 z m 10.73371,-1.69923 -0.0773,-2.05052 -4.2796,-0.0726 c -4.82809,-0.0819 -4.39961,-0.28554 -4.72025,2.24322 -0.096,0.75728 -0.0976,1.50142 -0.004,1.65365 0.1082,0.17506 1.8223,0.27677 4.66449,0.27677 h 4.49343 z m 10.87004,1.92943 c -0.11109,-0.11109 -8.97917,-3.58308 -9.15183,-3.58308 -0.16164,0 -0.0657,3.36139 0.1007,3.52778 0.097,0.097 2.20045,0.17639 4.6743,0.17639 2.47386,0 4.44343,-0.0545 4.37683,-0.12109 z m -11.37549,-7.88256 c -0.0172,-1.346066 -0.10692,-2.800193 -0.19935,-3.231392 l -0.16804,-0.783998 -3.57097,0.07726 c -1.96403,0.04249 -3.64679,0.157166 -3.73946,0.254831 -0.0927,0.09767 -0.25154,1.517026 -0.35303,3.154135 l -0.18453,2.976564 h 4.12334 4.12334 z m -8.96223,-6.614582 c 0.001,-0.472942 0.079,-1.498922 0.17282,-2.279955 l 0.17051,-1.42006 -0.63583,0.336362 c -0.82439,0.436104 -5.53063,3.917073 -5.53063,4.090722 0,0.07305 1.30968,0.132827 2.91041,0.132827 h 2.91042 z m 7.86905,0.693133 c 0.51987,-0.139318 0.59495,-0.331671 0.59241,-1.517741 -0.002,-0.747012 -0.0767,-1.804688 -0.16692,-2.350391 l -0.16399,-0.992188 h -3.27268 -3.27267 v 1.686719 c 0,0.927695 -0.0744,2.058789 -0.16536,2.513541 l -0.16537,0.826823 3.00964,-0.0036 c 1.6553,-0.002 3.27752,-0.0754 3.60494,-0.16315 z m 8.12271,-0.05514 c -0.60091,-0.53051 -5.89186,-4.276011 -6.04035,-4.276011 -0.20944,0 -0.2063,1.330362 0.007,3.108854 l 0.16685,1.389062 h 3.05877 c 1.68232,0 2.94566,-0.09986 2.80741,-0.221905 z"
       id="path4" /></g></svg>
