<?xml version="1.0" encoding="UTF-8" standalone="no"?>
<!-- Created with Inkscape (http://www.inkscape.org/) -->

<svg
   width="2.1444178in"
   height="6.3229165in"
   viewBox="0 0 54.468211 160.60208"
   version="1.1"
   id="svg53678"
   xml:space="preserve"
   xmlns="http://www.w3.org/2000/svg"
   xmlns:svg="http://www.w3.org/2000/svg"><defs
     id="defs53675" /><g
     id="layer1"
     transform="translate(-114.56135,-32.280477)"><path
       style="fill:#000000"
       d="m 122.16986,191.89035 c 2.9e-4,-0.5457 0.2996,-4.74266 0.66514,-9.32656 3.02042,-37.87688 7.53625,-95.545989 7.53633,-96.242179 l 9e-5,-0.8599 h -5.15937 -5.15938 v -1.18383 c 0,-1.06963 0.083,-1.22596 0.8599,-1.62056 0.47294,-0.2402 2.96567,-1.62035 5.5394,-3.06702 l 4.6795,-2.63029 0.15219,-1.37155 c 0.1645,-1.48238 0.939,-11.684427 0.93952,-12.375729 2.9e-4,-0.372441 -0.995,-0.441962 -8.65174,-0.604326 -4.75864,-0.100909 -8.6741,-0.20918 -8.70103,-0.240603 -0.0269,-0.03142 -0.12814,-0.537041 -0.22493,-1.123595 -0.17301,-1.048523 -0.15905,-1.072483 0.82967,-1.424365 4.58848,-1.633017 16.94927,-6.463413 17.21435,-6.72709 0.29976,-0.298166 0.52374,-2.13817 0.94723,-7.781561 l 0.12409,-1.653646 h -5.80957 -5.80957 l 0.08,-1.35551 0.08,-1.355509 5.90134,-4.168452 c 4.13103,-2.917982 6.19467,-4.21695 6.87917,-4.33012 0.5378,-0.08892 3.5604,-0.162979 6.71688,-0.16458 l 5.73905,-0.0029 6.23334,4.413137 6.23334,4.413138 v 1.275404 1.275404 h -5.85007 -5.85007 l 0.1911,3.180471 c 0.1051,1.749259 0.26709,3.79092 0.35996,4.537023 l 0.16888,1.356552 9.92187,3.731206 9.92188,3.731206 0.0806,1.25677 0.0806,1.256771 h -9.70227 -9.70228 l 0.16686,1.389063 c 0.0918,0.763984 0.34641,3.829843 0.56587,6.813021 0.44401,6.03546 0.4785,6.22719 1.27688,7.09948 0.6106,0.66712 4.64042,3.00446 7.43341,4.31145 l 1.73045,0.80978 v 1.16569 1.16568 h -4.6302 c -2.54662,0 -4.63021,0.0982 -4.63021,0.2183 0,0.12007 0.47966,6.28155 1.06591,13.692188 2.61908,33.107281 4.83126,61.219451 5.93222,75.386391 0.65591,8.44021 1.26323,15.97091 1.34959,16.73489 l 0.15702,1.38907 h -1.04099 -1.04098 l -0.18102,-2.31511 c -0.0996,-1.2733 -0.25139,-2.94018 -0.3374,-3.70416 l -0.15638,-1.38907 h -16.21761 c -15.21807,0 -16.22585,0.0285 -16.35121,0.46302 -0.0735,0.25467 -0.20452,1.41553 -0.29119,2.57969 -0.32684,4.38985 -0.31937,4.36563 -1.34688,4.36563 -0.87507,0 -0.90981,-0.0379 -0.90931,-0.99219 z m 31.19591,-9.02676 1.69539,-0.16751 -2.62143,-2.0806 c -5.14282,-4.0818 -10.59726,-8.10586 -10.98715,-8.10586 -0.41172,0 -5.29938,3.6044 -10.54211,7.77427 l -3.03282,2.41219 1.44532,0.15531 c 1.9645,0.2111 21.9272,0.22123 24.0428,0.0122 z m -21.30803,-6.11048 c 3.47409,-2.69772 6.56972,-5.10831 6.87917,-5.35686 0.41932,-0.3368 0.49524,-0.5541 0.29805,-0.85311 -0.48058,-0.72872 -11.6337,-9.15608 -12.02183,-9.08376 -0.59588,0.11104 -0.74005,1.1044 -1.45894,10.05192 -0.78155,9.72751 -0.81182,10.63925 -0.34371,10.35065 0.1819,-0.11214 3.17317,-2.41112 6.64726,-5.10884 z m 24.93119,3.49557 c -0.0836,-0.5457 -0.33395,-3.43297 -0.55643,-6.41614 -0.57377,-7.69356 -0.94381,-11.45607 -1.16568,-11.85277 -0.31239,-0.55852 -11.53394,8.13745 -11.53394,8.93805 0,0.34593 2.92754,2.71477 9.9113,8.01978 1.66768,1.2668 3.13666,2.30327 3.2644,2.30327 0.12775,0 0.16391,-0.44648 0.0804,-0.99219 z m -10.44305,-14.639 c 2.67295,-2.04872 4.97303,-3.83466 5.11127,-3.96875 0.15342,-0.14881 -3.81569,-0.23962 -10.18646,-0.23306 l -10.43781,0.0108 0.92604,0.79503 c 1.61334,1.38509 9.26702,7.12096 9.50189,7.12096 0.12383,0 2.41212,-1.67622 5.08507,-3.72494 z m 5.52137,-6.82032 1.19063,-0.1873 -5.6681,-3.76827 c -3.11745,-2.07255 -5.95189,-3.83951 -6.29876,-3.92656 -0.91282,-0.22911 -12.63245,7.55738 -11.84047,7.86676 0.65613,0.2563 20.99717,0.27013 22.6167,0.0154 z m -19.01134,-5.39588 c 3.09011,-2.07368 5.65921,-3.90132 5.70912,-4.06143 0.0827,-0.26545 -8.97003,-6.45055 -10.04502,-6.86303 -0.28071,-0.1077 -0.51128,-0.0368 -0.58998,0.18138 -0.10169,0.28195 -1.19819,13.35436 -1.19819,14.28472 0,0.12577 0.11378,0.22867 0.25285,0.22867 0.13907,0 2.78112,-1.69664 5.87122,-3.77031 z m 21.80904,0.79375 c -0.279,-4.18273 -0.96564,-11.68375 -1.08,-11.7981 -0.13699,-0.137 -1.40271,0.64334 -5.81874,3.58733 -5.04326,3.36215 -4.78389,3.14272 -4.34286,3.67413 0.68344,0.82349 10.58281,7.23202 11.18997,7.24402 0.13034,0.003 0.15303,-1.18714 0.0516,-2.70738 z m -8.12421,-9.92188 5.45881,-3.63802 -10.35363,-0.0692 c -5.69449,-0.038 -10.6252,0.0313 -10.95713,0.15406 -0.53446,0.19772 -0.0159,0.62016 4.53279,3.69278 2.82497,1.90824 5.29921,3.47602 5.49833,3.48396 0.19911,0.008 2.81849,-1.62268 5.82083,-3.62359 z m 6.32922,-6.29538 c -0.89649,-0.89649 -11.05338,-7.79368 -11.47707,-7.79368 -0.45658,0 -7.15596,4.53 -10.84591,7.3338 l -0.77243,0.58693 11.61961,0.008 c 6.39079,0.005 11.5549,-0.0563 11.4758,-0.13544 z m -18.82491,-5.41876 c 2.88997,-2.04077 5.2545,-3.81706 5.2545,-3.9473 0,-0.27569 -1.2731,-1.26591 -6.04174,-4.69924 -2.96852,-2.13727 -3.48501,-2.42309 -3.6364,-2.01234 -0.097,0.26331 -0.37139,3.09813 -0.60965,6.29958 -0.23826,3.20146 -0.49882,6.32685 -0.57902,6.94532 -0.0827,0.6374 -0.0368,1.12448 0.10599,1.12448 0.1385,0 2.61634,-1.66973 5.50632,-3.7105 z m 19.01951,0.99852 c -0.0772,-0.90951 -0.26075,-3.20146 -0.40792,-5.09323 -0.14716,-1.89177 -0.3388,-4.06171 -0.42585,-4.82208 -0.18601,-1.62466 -0.13325,-1.63384 -3.14166,0.54638 -5.84933,4.23906 -5.75818,4.15661 -5.2373,4.73749 0.40135,0.44758 5.87742,4.42709 8.01542,5.82488 1.19148,0.77896 1.3512,0.61975 1.19731,-1.19344 z m -6.55453,-9.93248 c 1.92848,-1.36908 3.57262,-2.5965 3.65364,-2.7276 0.0863,-0.13965 -3.60632,-0.23836 -8.91705,-0.23836 -5.22814,0 -8.95799,0.0985 -8.81301,0.23267 0.26624,0.24644 6.51179,4.73589 8.02139,5.76596 l 0.89087,0.60788 0.82892,-0.57566 c 0.45591,-0.31661 2.40677,-1.69581 4.33524,-3.06489 z m 4.41491,-5.5852 c 0.44593,-0.17458 0.32504,-0.33813 -0.92604,-1.25271 -4.0916,-2.99109 -8.42052,-5.91763 -8.75331,-5.91763 -0.35185,0 -6.76647,4.37154 -9.06995,6.18114 -1.02534,0.8055 -1.03036,0.8181 -0.39687,0.99513 0.88647,0.24774 18.51217,0.24228 19.14617,-0.006 z m -16.45195,-5.11982 c 2.33795,-1.63711 4.37563,-3.05859 4.52817,-3.15885 0.17754,-0.11669 0.0907,-0.3905 -0.2413,-0.76088 -0.63568,-0.70916 -7.56108,-5.33176 -7.73191,-5.16094 -0.10603,0.10604 -1.08535,10.32067 -1.11158,11.59421 -0.005,0.25466 0.0614,0.46302 0.14813,0.46302 0.0867,0 2.07053,-1.33945 4.40849,-2.97656 z m 16.7511,-2.53473 c -0.22834,-2.62303 -0.41517,-5.07542 -0.41517,-5.44976 0,-0.37434 -0.13676,-0.68062 -0.30392,-0.68062 -0.35236,0 -6.07376,4.06219 -6.70714,4.76206 -0.39759,0.43933 -0.35011,0.53257 0.71287,1.40001 1.71639,1.40066 6.89032,4.97567 7.01728,4.8487 0.0612,-0.0612 -0.0756,-2.25736 -0.30392,-4.88039 z m -6.0732,-4.95863 c 2.02051,-1.39284 3.848,-2.70252 4.06108,-2.91042 0.33598,-0.3278 -0.71701,-0.37799 -7.93015,-0.37799 -8.20762,0 -8.31068,0.007 -7.79576,0.50814 0.80974,0.78853 7.36291,5.31269 7.69533,5.31269 0.16272,0 1.94899,-1.13959 3.9695,-2.53242 z m 1.76146,-5.840471 0.99823,-0.16497 -1.1107,-0.95659 c -2.25171,-1.939278 -5.65356,-4.528458 -5.94981,-4.528458 -0.32332,0 -3.2421,2.18389 -5.61999,4.204988 -1.35796,1.1542 -1.39457,1.21816 -0.79375,1.38655 0.81021,0.22708 11.16229,0.27561 12.47602,0.0585 z m -11.44283,-4.158328 c 1.90329,-1.58065 3.4246,-3.03241 3.38069,-3.22611 -0.0774,-0.34157 -6.35033,-5.44473 -6.50395,-5.29112 -0.14278,0.14278 -0.84976,8.47199 -0.85084,10.02415 -6.2e-4,0.884428 0.10878,1.505748 0.25624,1.455208 0.14153,-0.0485 1.81457,-1.381468 3.71786,-2.962128 z m 14.70119,1.35258 c -0.0831,-0.90951 -0.27734,-3.26099 -0.43156,-5.22552 -0.42605,-5.42753 -0.005,-5.19737 -3.84558,-2.10009 -2.89467,2.33418 -3.27133,2.72687 -2.97017,3.09658 0.52837,0.64863 6.90586,5.882668 7.16783,5.882668 0.12685,0 0.16262,-0.74414 0.0795,-1.653638 z m -5.92903,-8.53281 2.96079,-2.38125 -1.43792,-0.17228 c -1.94159,-0.23261 -6.51051,-0.25908 -9.15693,-0.0531 l -2.16276,0.16838 1.10443,0.93098 c 1.99096,1.67829 5.27335,4.04224 5.50485,3.96456 0.12471,-0.0418 1.5591,-1.14765 3.18754,-2.45734 z m -13.70786,-6.01928 c 0.21358,-0.79695 0.21024,-2.57968 -0.005,-2.57968 -0.20252,0 -4.48836,2.30377 -5.24509,2.81939 -0.45232,0.30821 -0.14785,0.35561 2.28425,0.35561 2.68641,0 2.81294,-0.0254 2.96567,-0.59532 z m 18.37494,-1.12777 c -0.1751,-2.75001 0.1871,-2.63058 -8.22916,-2.7134 -3.96049,-0.039 -7.33228,0.0206 -7.49288,0.1323 -0.1606,0.11173 -0.37392,1.12588 -0.47406,2.25367 l -0.18206,2.05052 h 8.24394 8.24394 z m 4.4494,0.53049 c -1.14453,-0.65376 -2.12679,-1.18865 -2.18281,-1.18865 -0.056,0 -0.10185,0.53578 -0.10185,1.19062 v 1.19063 l 2.18282,-0.002 2.18281,-0.002 z m -7.45822,-6.0173 c -0.88508,-1.06859 -4.9975,-5.22552 -5.16957,-5.22552 -0.0923,0 -1.38562,1.30969 -2.87416,2.91042 l -2.70644,2.91041 h 5.62163 5.62162 z m -9.46478,-3.52452 c 1.57541,-1.68382 2.86439,-3.156432 2.86439,-3.272465 0,-0.328416 -4.88411,-5.40658 -5.04512,-5.24557 -0.0786,0.07864 -0.31321,2.269719 -0.52127,4.869069 -0.20805,2.599356 -0.44112,5.172576 -0.51793,5.718276 -0.0768,0.54571 -0.0282,0.99219 0.10795,0.99219 0.13618,0 1.53657,-1.37767 3.11198,-3.0615 z m 11.59856,-2.40092 c -0.43894,-5.402868 -0.56672,-6.266756 -0.90638,-6.127664 -0.10839,0.04439 -1.29373,1.231874 -2.63406,2.638851 l -2.43698,2.558142 2.41612,2.601231 c 2.45339,2.64137 3.72729,3.84343 3.89518,3.67554 0.0511,-0.0511 -0.0992,-2.45684 -0.33388,-5.3461 z m -6.63568,-2.884379 c 0.34357,-0.225115 1.36042,-1.237146 2.25966,-2.248958 l 1.635,-1.839659 h -4.57824 -4.57823 l 2.23727,2.248959 c 1.23051,1.236927 2.27386,2.248958 2.31858,2.248958 0.0447,0 0.36239,-0.184185 0.70596,-0.4093 z m 20.66587,-6.717943 c -0.0843,-0.136441 -1.96658,-0.954342 -4.1828,-1.817556 -6.62438,-2.580193 -8.66473,-3.309184 -8.82194,-3.151973 -0.0821,0.08207 -0.0494,1.200314 0.0727,2.484978 l 0.22188,2.335752 4.49792,0.14202 c 2.47385,0.07811 5.36815,0.167408 6.43176,0.198438 1.15043,0.03356 1.87173,-0.04408 1.78052,-0.191659 z m -29.67949,-1.24406 c 0.26675,-1.946206 0.2065,-3.00578 -0.17092,-3.00578 -0.35819,0 -10.78802,3.895246 -11.00154,4.108761 -0.0685,0.06851 2.37941,0.124572 5.43982,0.124572 h 5.56438 z m 14.89685,0.367657 c -0.0808,-0.472942 -0.22713,-1.78263 -0.32511,-2.910416 L 146.978,54.240879 h -5.89336 -5.89335 l -0.15653,0.623642 c -0.0861,0.343003 -0.23562,1.65269 -0.3323,2.910416 l -0.17577,2.286775 h 6.55077 6.55077 z m -0.62538,-7.011458 c 0.0614,-0.10914 0.0165,-1.150937 -0.0996,-2.315104 -0.11611,-1.164167 -0.28873,-3.041883 -0.3836,-4.172704 l -0.17248,-2.056036 -5.20243,0.07166 -5.20243,0.07166 -0.17459,2.381249 c -0.096,1.309688 -0.24982,3.244454 -0.34177,4.29948 l -0.16717,1.918229 h 5.81626 c 3.19893,0 5.86644,-0.0893 5.92778,-0.198438 z M 134.15055,39.291921 c 0.11399,-1.018646 0.17352,-2.422272 0.13229,-3.119169 l -0.075,-1.267086 -3.44931,2.457711 c -4.39406,3.130874 -4.90545,3.539759 -4.69292,3.752284 0.0958,0.09581 1.90747,0.141381 4.02592,0.101271 l 3.85173,-0.07293 z m 11.5106,-1.326548 c -0.0702,-1.821008 -0.21509,-3.398586 -0.32208,-3.505729 -0.10699,-0.107143 -2.05076,-0.194806 -4.31948,-0.194806 h -4.12495 l -0.21603,0.79375 c -0.11882,0.436562 -0.29523,1.906461 -0.39203,3.266442 -0.14078,1.977991 -0.10165,2.519754 0.19557,2.707927 0.20436,0.12938 2.38193,0.237059 4.83905,0.239287 l 4.4675,0.0041 z m 10.63112,3.112485 c -0.009,-0.225462 -0.007,-0.223743 -4.8831,-3.669261 -1.9806,-1.399562 -3.66503,-2.480717 -3.74318,-2.402565 -0.30637,0.306367 0.24063,5.511412 0.61895,5.889733 0.29582,0.295821 1.23035,0.380531 4.19809,0.380531 2.09966,0 3.81382,-0.0893 3.80924,-0.198438 z"
       id="path4" /></g></svg>
