<?xml version="1.0" encoding="UTF-8" standalone="no"?>
<!-- Created with Inkscape (http://www.inkscape.org/) -->

<svg
   width="2.2332993in"
   height="3.1974611in"
   viewBox="0 0 56.725801 81.215513"
   version="1.1"
   id="svg53678"
   xml:space="preserve"
   xmlns="http://www.w3.org/2000/svg"
   xmlns:svg="http://www.w3.org/2000/svg"><defs
     id="defs53675" /><g
     id="layer1"
     transform="translate(-141.4025,120.9111)"><path
       style="fill:#ffffff;stroke-width:1.4285"
       d="m 141.63866,-39.885669 c -0.7016,-0.70159 0.0384,-2.15832 3.87704,-7.63134 l 4.14551,-5.91065 -1.39639,-0.67921 c -2.65817,-1.29296 -4.88443,-4.07273 -5.81849,-7.26514 -0.1842,-0.62954 -0.33114,-10.79611 -0.32654,-22.59236 0.007,-20.102931 0.0531,-21.565591 0.72252,-23.327251 1.58763,-4.1783 4.96508,-7.38308 9.02452,-8.5632 1.7395,-0.50568 2.03746,-0.73375 2.23246,-1.70877 0.12371,-0.61886 0.72507,-1.62522 1.33621,-2.23635 l 1.11116,-1.11116 h 13.17037 13.17037 l 1.11116,1.11116 c 0.61114,0.61113 1.21032,1.60694 1.33151,2.21291 0.18336,0.91682 0.5017,1.18052 1.89659,1.57107 4.25502,1.19133 7.65306,4.3085 9.3924,8.61606 l 0.87786,2.17404 v 21.354611 c 0,19.67818 -0.054,21.50951 -0.68807,23.32765 -0.83454,2.39307 -3.52454,5.49457 -5.5348,6.3815 l -1.4638,0.64583 2.03616,2.86998 c 5.78299,8.15119 6.60462,9.51675 6.19101,10.28957 -0.33171,0.61983 -0.72652,0.72542 -2.35923,0.63097 l -1.96084,-0.11342 -4.5355,-6.5142 -4.53549,-6.51419 -14.92393,0.0889 -14.92394,0.0889 -4.47676,6.42527 -4.47676,6.42529 -1.96892,0.111 c -1.08292,0.061 -2.08974,-0.01 -2.23739,-0.15748 z m 47.87809,-19.51282 c 0.30423,-0.48237 0.30423,-0.84047 0,-1.32285 -0.38699,-0.61361 -1.80433,-0.66851 -19.60893,-0.7594 -19.7815,-0.101 -20.22255,-0.0706 -20.22255,1.39151 0,1.54153 0.14347,1.55184 20.1641,1.45005 17.86034,-0.0908 19.28034,-0.14564 19.66738,-0.75931 z m -33.95596,-6.88055 c 0.51025,-0.51024 0.92772,-1.36837 0.92772,-1.90696 0,-0.53859 -0.41747,-1.39673 -0.92772,-1.90697 -2.61833,-2.61833 -6.4559,1.16739 -3.91985,3.86689 1.08941,1.15963 2.72943,1.13747 3.91985,-0.053 z m 32.29821,0.17181 c 1.71791,-1.71792 0.47768,-4.91346 -1.90698,-4.91346 -1.43367,0 -3.00648,1.48294 -3.00648,2.83469 0,2.30656 3.29264,3.69959 4.91346,2.07877 z m -20.40972,-25.13419 v -13.039551 h -9.37671 c -7.49808,0 -9.52369,0.10743 -10.11036,0.53608 -0.6942,0.50723 -0.7396,1.15803 -0.84385,12.096141 l -0.11013,11.56006 0.94341,0.94341 0.94339,0.9434 h 9.27715 9.27715 z m 24.03319,12.09614 0.9434,-0.94341 -0.11014,-11.56006 c -0.10428,-10.938111 -0.14965,-11.588911 -0.84383,-12.096141 -0.58669,-0.42867 -2.6123,-0.53608 -10.11038,-0.53608 h -9.3767 v 13.039551 13.03954 h 9.27715 9.27713 z m -10.88026,-30.502681 c 0.58746,-0.58747 0.58746,-3.41889 0,-4.00635 -0.33098,-0.33098 -3.28948,-0.45355 -10.94748,-0.45355 -9.98821,0 -10.51278,0.0352 -10.88518,0.73106 -0.21519,0.40209 -0.39125,1.17864 -0.39125,1.72566 0,0.54703 0.17606,1.32357 0.39125,1.72566 0.3724,0.69584 0.89697,0.73107 10.88518,0.73107 7.658,0 10.6165,-0.12257 10.94748,-0.45355 z m -29.78307,67.504871 c 0,-0.12385 0.29178,-0.71912 0.64842,-1.32286 l 0.64843,-1.09769 h 17.63905 17.63906 l 0.61041,0.9316 c 0.33573,0.51237 0.6104,1.10766 0.6104,1.32285 0,0.26448 -6.12307,0.39125 -18.89788,0.39125 -10.39383,0 -18.89789,-0.10128 -18.89789,-0.22515 z m 3.77957,-5.64649 c 0,-0.11128 0.27469,-0.6215 0.61041,-1.13388 l 0.6104,-0.93159 h 13.91524 13.91523 l 0.80739,1.13387 0.80739,1.13387 h -15.33302 c -8.43317,0 -15.33304,-0.091 -15.33304,-0.20227 z"
       id="path4" /></g></svg>
