<?xml version="1.0" encoding="UTF-8" standalone="no"?>
<!-- Created with Inkscape (http://www.inkscape.org/) -->

<svg
   width="2.9872913in"
   height="2.7061226in"
   viewBox="0 0 75.8772 68.735515"
   version="1.1"
   id="svg53678"
   xml:space="preserve"
   xmlns="http://www.w3.org/2000/svg"
   xmlns:svg="http://www.w3.org/2000/svg"><defs
     id="defs53675" /><g
     id="layer1"
     transform="translate(-227.27531,124.6767)"><path
       style="fill:#ffffff;stroke-width:0.488364"
       d="m 227.357,-72.965072 c 0.0866,-18.059364 0.0919,-18.214538 0.72765,-21.352451 1.84301,-9.097257 6.96947,-17.202127 14.43659,-22.824077 1.96041,-1.476 3.84269,-2.61124 6.30771,-3.80432 3.90084,-1.88802 7.55053,-2.99605 11.69378,-3.55017 1.6151,-0.216 6.10198,-0.24405 8.45648,-0.0528 5.87011,0.47666 12.74387,2.97431 17.60708,6.3977 2.54782,1.79351 5.88455,4.84531 7.84924,7.17899 2.90544,3.45113 5.39137,8.01603 6.9025,12.675001 0.62167,1.916697 1.28243,4.769618 1.44546,6.240959 0.13227,1.1938 0.22465,8.576512 0.30922,24.711994 l 0.0598,11.403053 H 285.97246 268.7924 v -3.424148 -3.424148 h -3.55336 -3.55336 v 3.424148 3.424148 h -17.20519 -17.20517 z m 41.43536,-0.161507 v -3.488754 h -3.55336 -3.55336 v 3.488754 3.488747 h 3.55336 3.55336 z m 27.47184,-10.401655 c -0.0642,-7.06915 -0.0959,-7.544132 -0.67672,-10.143221 -2.04765,-9.162705 -8.05787,-16.804715 -16.55359,-21.047955 -2.80882,-1.40287 -5.55567,-2.30247 -8.77714,-2.87453 -1.43059,-0.25404 -2.1105,-0.29518 -4.95314,-0.29971 -3.44247,-0.005 -4.11075,0.0589 -6.8209,0.65709 -9.12749,2.01462 -16.97794,8.16272 -21.08558,16.51318 -1.3234,2.690355 -2.07379,4.855363 -2.79357,8.05994 l -0.33954,1.511637 -0.0181,10.616454 c -0.01,5.83905 0.0216,10.656352 0.07,10.705121 0.0485,0.04881 2.40337,-1.63956 5.23313,-3.751841 2.82976,-2.112282 6.66391,-4.974434 8.52035,-6.360346 l 3.37532,-2.519829 0.0667,-3.181858 c 0.0736,-3.509982 0.24604,-4.529072 1.12313,-6.635923 1.26564,-3.040209 4.07878,-5.849335 7.20004,-7.189792 2.14,-0.919043 2.51387,-0.986003 5.46896,-0.979443 2.54933,0.006 2.69015,0.0195 3.74718,0.36924 4.58822,1.517906 7.78103,4.686871 9.30495,9.235453 0.33889,1.011526 0.39711,1.422533 0.51649,3.646719 0.074,1.378682 0.1476,3.010577 0.16356,3.626438 l 0.029,1.119736 8.52805,6.379041 8.52807,6.379035 0.10273,-3.493173 c 0.0565,-1.921243 0.0747,-6.574904 0.0405,-10.341463 z m -24.09555,-1.873585 c -0.0432,-2.620166 -0.17221,-3.479649 -0.67748,-4.512945 -0.53107,-1.086088 -2.07944,-2.665993 -3.08645,-3.14931 -1.43671,-0.689552 -3.34038,-0.927251 -4.78088,-0.596956 -1.79726,0.412106 -3.67143,1.866272 -4.49403,3.486928 -0.68852,1.356476 -0.80046,1.991096 -0.80217,4.547281 l -10e-4,2.294651 6.93777,-0.0334 6.93779,-0.0334 z"
       id="path6" /></g></svg>
