<?xml version="1.0" encoding="UTF-8" standalone="no"?>
<!-- Created with Inkscape (http://www.inkscape.org/) -->

<svg
   width="2.3820415in"
   height="2.3410866in"
   viewBox="0 0 60.503853 59.4636"
   version="1.1"
   id="svg53678"
   xml:space="preserve"
   xmlns="http://www.w3.org/2000/svg"
   xmlns:svg="http://www.w3.org/2000/svg"><defs
     id="defs53675" /><g
     id="layer1"
     transform="translate(-237.9803,201.48513)"><path
       style="fill:#ffffff;stroke-width:0.635808"
       d="m 240.77716,-143.95723 2.70831,-1.93571 h 24.747 24.74699 l 1.7152,1.21309 c 0.94335,0.6672 2.1588,1.53827 2.70099,1.93571 l 0.9858,0.72261 h -30.15631 -30.15631 z m -2.77952,-15.85405 0.0641,-14.92994 0.43346,-2.01869 c 0.95129,-4.43029 2.77071,-8.6926 5.13435,-12.02807 1.45854,-2.05823 5.20965,-5.81077 7.27552,-7.27829 2.00636,-1.42523 5.75698,-3.30856 8.10275,-4.06868 3.35812,-1.08816 5.14822,-1.35018 9.22439,-1.35018 4.07397,0 5.90422,0.26782 9.27619,1.35739 2.30457,0.74466 6.01501,2.61679 8.05095,4.06216 2.0655,1.46636 5.8159,5.21783 7.27553,7.2776 2.36363,3.33547 4.18305,7.59778 5.13434,12.02807 l 0.43345,2.01869 0.0641,14.92994 c 0.0353,8.21146 0.0151,14.92994 -0.0449,14.92994 -0.06,0 -1.08124,-0.70024 -2.26949,-1.55608 l -2.16047,-1.55608 -0.0622,-13.28975 c -0.0608,-12.98118 -0.0709,-13.32768 -0.43337,-14.92346 -1.13508,-4.99665 -3.37576,-9.27447 -6.65483,-12.70507 -5.37342,-5.62172 -12.29077,-8.42608 -19.87098,-8.05587 -6.44913,0.31497 -12.13183,2.87572 -16.82591,7.58213 -3.71444,3.72419 -5.96799,7.86573 -7.1798,13.19493 -0.35828,1.57563 -0.36944,1.96242 -0.43008,14.90734 l -0.0622,13.28975 -2.16046,1.55608 c -1.18825,0.85584 -2.20953,1.55608 -2.26951,1.55608 -0.06,0 -0.0802,-6.71848 -0.0449,-14.92994 z m 8.3794,11.84176 c 0.0385,-0.0331 0.97432,-0.71439 2.07947,-1.51403 l 2.00938,-1.45389 h 17.76633 17.76635 l 2.00937,1.45389 c 1.10516,0.79964 2.04092,1.48095 2.07946,1.51403 0.0385,0.0331 -9.79627,0.0602 -21.85518,0.0602 -12.0589,0 -21.89373,-0.0271 -21.85518,-0.0602 z m 0.70652,-14.78569 c 0.0728,-12.29 0.0429,-11.87104 1.07293,-15.01405 1.75258,-5.34763 5.67034,-9.87887 10.73927,-12.42091 6.79396,-3.40715 14.60222,-2.91204 20.97415,1.32994 3.93202,2.61764 7.0577,6.71725 8.52027,11.17508 0.93957,2.86375 0.92115,2.58765 0.99086,14.84582 0.0357,6.26848 0.0167,11.39722 -0.0421,11.39722 -0.0588,0 -2.65546,-1.8302 -5.77036,-4.06711 -3.11489,-2.2369 -5.94444,-4.26191 -6.28789,-4.5 l -0.62447,-0.4329 -0.006,-3.70766 c -0.007,-4.11023 -0.14216,-4.9737 -1.04224,-6.66243 -1.44131,-2.70418 -4.20465,-4.36934 -7.29126,-4.39365 -3.88166,-0.0305 -7.25084,2.57044 -8.23776,6.35949 -0.19241,0.73869 -0.2592,1.92714 -0.26395,4.69659 l -0.006,3.70766 -2.64318,1.88684 c -1.45375,1.03776 -4.27075,3.06124 -6.26001,4.49662 -1.98924,1.43537 -3.67795,2.6113 -3.75268,2.61317 -0.0747,0.002 -0.1057,-5.08751 -0.0688,-11.30972 z m 5.672,10.2297 c 0,-0.0408 0.90211,-0.72204 2.00471,-1.51403 l 2.00469,-1.43996 h 11.46726 11.46727 l 2.0047,1.43996 c 1.10259,0.79199 2.0047,1.47329 2.0047,1.51403 0,0.0408 -6.96449,0.074 -15.47667,0.074 -8.51216,0 -15.47666,-0.0333 -15.47666,-0.074 z m 5.46362,-3.99829 c 0.18302,-0.10611 0.93452,-0.63372 1.66999,-1.17245 l 1.33721,-0.97951 h 7.02107 7.02107 l 1.31831,0.97745 c 0.72508,0.53761 1.46972,1.06521 1.65476,1.17246 0.25774,0.14938 -2.08381,0.195 -10.00937,0.195 -7.86217,0 -10.26593,-0.0463 -10.01304,-0.19295 z"
       id="path5" /></g></svg>
