<?xml version="1.0" encoding="UTF-8" standalone="no"?>
<!-- Created with Inkscape (http://www.inkscape.org/) -->

<svg
   width="33.18454mm"
   height="6.6145782mm"
   viewBox="0 0 33.18454 6.6145782"
   version="1.1"
   id="svg5"
   inkscape:version="1.2.2 (732a01da63, 2022-12-09)"
   xmlns:inkscape="http://www.inkscape.org/namespaces/inkscape"
   xmlns:sodipodi="http://sodipodi.sourceforge.net/DTD/sodipodi-0.dtd"
   xmlns="http://www.w3.org/2000/svg"
   xmlns:svg="http://www.w3.org/2000/svg">
  <sodipodi:namedview
     id="namedview7"
     pagecolor="#505050"
     bordercolor="#ffffff"
     borderopacity="1"
     inkscape:showpageshadow="0"
     inkscape:pageopacity="0"
     inkscape:pagecheckerboard="1"
     inkscape:deskcolor="#505050"
     inkscape:document-units="mm"
     showgrid="false"
     inkscape:zoom="2.0888418"
     inkscape:cx="201.30773"
     inkscape:cy="484.95773"
     inkscape:window-width="1920"
     inkscape:window-height="1009"
     inkscape:window-x="-8"
     inkscape:window-y="-8"
     inkscape:window-maximized="1"
     inkscape:current-layer="layer1" />
  <defs
     id="defs2" />
  <g
     inkscape:label="Layer 1"
     inkscape:groupmode="layer"
     id="layer1"
     transform="translate(-40.602174,-134.31584)">
    <path
       id="path4996"
       style="font-size:8.4561px;line-height:0px;font-family:'Gloucester MT Extra Condensed';-inkscape-font-specification:'Gloucester MT Extra Condensed, ';fill:#ffffff;fill-rule:evenodd;stroke-width:0.0849837"
       d="m 50.978284,134.31583 c -0.335822,0 -0.652529,0.18046 -0.949813,0.54105 -0.294532,0.3606 -0.502619,0.80665 -0.623735,1.33791 -0.121116,0.5285 -0.181384,1.08317 -0.181384,1.66398 0,2.0342 0.623227,3.05149 1.87017,3.05149 0.264253,0 0.504114,-0.0387 0.718819,-0.11575 0.214705,-0.0771 0.356481,-0.13924 0.425297,-0.18604 0.06882,-0.0496 0.102836,-0.10291 0.102836,-0.16071 v -0.14883 c 0,-0.0468 -0.01658,-0.0841 -0.04961,-0.11162 -0.04129,-0.0385 -0.06149,-0.096 -0.06149,-0.17312 v -1.15652 c 0,-0.11836 0.0069,-0.26653 0.02067,-0.44545 0.0083,-0.0743 0.0124,-0.12269 0.0124,-0.14469 0,-0.0496 -0.0097,-0.0813 -0.02894,-0.0951 -0.01652,-0.0165 -0.05934,-0.0248 -0.128157,-0.0248 h -1.040764 c -0.06882,0 -0.102836,0.0318 -0.102836,0.0951 v 0.17364 c 0,0.0495 0.03039,0.0863 0.09095,0.1111 0.123865,0.0523 0.204856,0.11308 0.243396,0.1819 0.03854,0.0661 0.05788,0.17607 0.05788,0.33022 v 0.89193 c 0,0.34683 -0.121053,0.52038 -0.363285,0.52038 -0.112858,0 -0.212325,-0.0345 -0.297656,-0.10335 -0.08258,-0.0688 -0.153897,-0.19678 -0.214457,-0.38396 -0.06056,-0.18993 -0.113057,-0.46934 -0.157097,-0.83819 -0.04404,-0.3716 -0.06615,-0.8439 -0.06615,-1.41645 0,-0.54502 0.02211,-1.0914 0.06615,-1.63918 0.0468,-0.55052 0.124158,-0.90125 0.231511,-1.05264 0.107352,-0.1514 0.243602,-0.22738 0.40876,-0.22738 0.344079,0 0.584805,0.32085 0.722437,0.96221 0.03578,0.16237 0.05789,0.25027 0.06615,0.26407 0.01101,0.011 0.04416,0.0165 0.09922,0.0165 h 0.173116 c 0.06882,0 0.103353,-0.0395 0.103353,-0.11938 v -1.3627 c 0,-0.0743 -0.03868,-0.11162 -0.115755,-0.11162 h -0.160714 c -0.02477,0 -0.05516,0.008 -0.09095,0.0248 -0.0468,0.022 -0.07857,0.0331 -0.09508,0.0331 -0.03303,0 -0.07862,-0.0138 -0.136426,-0.0413 -0.198189,-0.0936 -0.380893,-0.14056 -0.548803,-0.14056 z m 9.711035,0 c -0.542269,0 -0.956545,0.30013 -1.242818,0.90021 -0.283522,0.59732 -0.425297,1.40652 -0.425297,2.42775 0,1.02123 0.140393,1.82077 0.421163,2.39882 0.283521,0.57806 0.712992,0.86714 1.288293,0.86714 0.487216,0 0.878007,-0.27665 1.172538,-0.82993 0.297285,-0.55328 0.445968,-1.38183 0.445968,-2.48563 0,-1.08179 -0.150065,-1.89791 -0.450102,-2.44843 -0.297284,-0.55328 -0.700508,-0.82993 -1.209745,-0.82993 z m -5.020882,0.0413 c -0.330317,0 -0.611105,0.1473 -0.842326,0.44184 -0.228469,0.29452 -0.342615,0.67012 -0.342615,1.12706 0,0.24774 0.03592,0.47517 0.107487,0.68161 0.07432,0.20645 0.170508,0.39191 0.288871,0.55707 0.121116,0.16241 0.323677,0.3926 0.607198,0.68988 0.366101,0.38813 0.612352,0.69603 0.738973,0.9245 0.129374,0.22846 0.194304,0.47661 0.194304,0.74362 0,0.25875 -0.06079,0.47875 -0.181901,0.66042 -0.118364,0.18168 -0.282243,0.27234 -0.491443,0.27234 -0.401885,0 -0.659188,-0.3604 -0.772046,-1.08159 -0.02753,-0.18719 -0.04963,-0.29581 -0.06615,-0.32608 -0.01377,-0.033 -0.04416,-0.0496 -0.09095,-0.0496 h -0.177251 c -0.07432,0 -0.111621,0.0525 -0.111621,0.1571 v 1.55649 c 0,0.0743 0.03454,0.11163 0.103353,0.11163 h 0.206189 c 0.01927,0 0.04552,-0.01 0.07855,-0.0289 0.04404,-0.0275 0.07996,-0.0413 0.107487,-0.0413 0.03028,0 0.08139,0.0152 0.152963,0.0455 0.225715,0.0881 0.422233,0.13178 0.590144,0.13178 0.377111,0 0.702107,-0.16388 0.974618,-0.49145 0.275264,-0.32756 0.412895,-0.75289 0.412895,-1.27589 0,-0.38812 -0.08289,-0.74713 -0.248047,-1.07745 -0.162405,-0.33307 -0.457009,-0.71834 -0.883667,-1.156 -0.333069,-0.34133 -0.555835,-0.61659 -0.668693,-0.82579 -0.110105,-0.21196 -0.164848,-0.41866 -0.164848,-0.6196 0,-0.17342 0.04645,-0.32573 0.140043,-0.45786 0.09634,-0.13212 0.222922,-0.19843 0.379822,-0.19843 0.291779,0 0.502629,0.29875 0.632003,0.89607 0.03854,0.17341 0.06479,0.27374 0.07855,0.30127 0.01651,0.0248 0.04915,0.0372 0.0987,0.0372 H 56.7092 c 0.06056,0 0.09095,-0.0345 0.09095,-0.10336 v -1.36632 c 0,-0.0743 -0.04006,-0.11162 -0.11989,-0.11162 h -0.152962 c -0.04955,0 -0.09047,0.01 -0.123507,0.0289 -0.03303,0.022 -0.06342,0.0331 -0.09095,0.0331 -0.02753,0 -0.08002,-0.0193 -0.157097,-0.0579 -0.173415,-0.0853 -0.335914,-0.12816 -0.487308,-0.12816 z m -13.055534,0.0212 c -0.01376,0 -0.02619,0.002 -0.03721,0.008 l -0.697632,0.32608 c -0.04129,0.0193 -0.06201,0.0428 -0.06201,0.0703 0,0.011 0.0069,0.0621 0.02067,0.15296 l 0.04134,0.28061 -0.962215,4.80229 c -0.03578,0.16515 -0.110385,0.28206 -0.223242,0.35088 -0.06056,0.0358 -0.09043,0.0828 -0.09043,0.14056 v 0.21446 c 0,0.0661 0.04783,0.0992 0.144177,0.0992 h 0.862997 c 0.07983,0 0.119889,-0.0332 0.119889,-0.0992 v -0.18139 c 0,-0.0495 -0.04006,-0.10756 -0.119889,-0.17363 -0.123869,-0.0991 -0.185519,-0.18976 -0.185519,-0.27234 0,-0.0165 0.0041,-0.0427 0.0124,-0.0785 l 0.173117,-0.82993 h 1.07797 l 0.173116,0.863 c 0.0055,0.0358 0.0083,0.0676 0.0083,0.0951 0,0.0991 -0.05336,0.17733 -0.160714,0.23513 -0.08808,0.044 -0.132291,0.0979 -0.132291,0.16123 v 0.18139 c 0,0.0661 0.0373,0.0992 0.111621,0.0992 h 1.378727 c 0.0523,0 0.07855,-0.0332 0.07855,-0.0992 v -0.18139 c 0,-0.0495 -0.03177,-0.0938 -0.09508,-0.13229 -0.08258,-0.0495 -0.138702,-0.0965 -0.168982,-0.14056 -0.02753,-0.044 -0.05101,-0.11674 -0.07028,-0.21859 l -1.122929,-5.59914 c -0.01101,-0.0495 -0.03587,-0.0739 -0.07441,-0.0739 z m 10.157003,0.0243 c -0.07157,0 -0.106971,0.0318 -0.106971,0.0951 v 0.1819 c 0,0.0661 0.0354,0.12219 0.106971,0.16899 0.1046,0.0716 0.157096,0.17743 0.157096,0.31781 v 4.8891 c 0,0.14038 -0.0525,0.24762 -0.157096,0.32195 -0.07157,0.0496 -0.106971,0.10431 -0.106971,0.16485 v 0.1943 c 0,0.0578 0.02987,0.0868 0.09043,0.0868 h 1.288294 c 0.07157,0 0.107487,-0.0318 0.107487,-0.0951 v -0.18603 c 0,-0.0633 -0.03592,-0.11805 -0.107487,-0.16485 -0.104601,-0.0716 -0.15658,-0.17933 -0.15658,-0.32246 v -4.88859 c 0,-0.13763 0.05198,-0.24349 0.15658,-0.31781 0.07157,-0.0495 0.107487,-0.10617 0.107487,-0.1695 v -0.18965 c 0,-0.0578 -0.03039,-0.0868 -0.09095,-0.0868 z m 13.857035,0 -0.978752,0.0331 c -0.06056,0 -0.09095,0.0249 -0.09095,0.0744 v 0.15296 c 0,0.0468 0.02487,0.0822 0.07441,0.10697 0.118363,0.0606 0.177767,0.16503 0.177767,0.31367 v 5.0829 c 0,0.14589 -0.05802,0.24761 -0.173633,0.30541 -0.0523,0.0248 -0.07855,0.0648 -0.07855,0.11989 v 0.15296 c 0,0.0523 0.03039,0.0786 0.09095,0.0786 h 1.139466 c 0.06056,0 0.09095,-0.0262 0.09095,-0.0786 v -0.15296 c 0,-0.0523 -0.02487,-0.0924 -0.07441,-0.11989 -0.118363,-0.0606 -0.17725,-0.16228 -0.17725,-0.30541 z m 1.040246,0.34261 c -0.121115,0 -0.232499,0.047 -0.334346,0.14056 -0.0991,0.0936 -0.148311,0.21189 -0.148311,0.35502 0,0.13488 0.04784,0.2504 0.144177,0.34675 0.09634,0.0963 0.213252,0.14469 0.350883,0.14469 0.134879,0 0.250406,-0.0483 0.346749,-0.14469 0.09634,-0.0964 0.144694,-0.21187 0.144694,-0.34675 0,-0.13763 -0.04835,-0.25454 -0.144694,-0.35088 -0.09634,-0.0963 -0.216014,-0.1447 -0.359152,-0.1447 z m -6.965466,0.0413 c 0.121116,0 0.220066,0.0511 0.29714,0.15297 0.07708,0.0991 0.148914,0.32324 0.214974,0.67282 0.06606,0.34684 0.09922,0.79013 0.09922,1.32964 0,0.59732 -0.0221,1.2537 -0.06614,1.96939 -0.04404,0.71568 -0.118643,1.15344 -0.223243,1.3131 -0.101848,0.15965 -0.214612,0.23926 -0.33848,0.23926 -0.2092,0 -0.364791,-0.16613 -0.466638,-0.4992 -0.101848,-0.33306 -0.152446,-0.88911 -0.152446,-1.66811 0,-0.62485 0.01658,-1.22787 0.04961,-1.80868 0.03579,-0.5808 0.07533,-0.97021 0.119373,-1.1684 0.04679,-0.20094 0.110343,-0.33996 0.190169,-0.41703 0.08258,-0.0771 0.174622,-0.11576 0.276469,-0.11576 z m -18.543054,1.75494 0.417029,2.11821 h -0.84646 z m 5.768123,0.30127 c -0.385369,0 -0.70622,0.16941 -0.962215,0.50798 -0.253242,0.33582 -0.379822,0.85734 -0.379822,1.56476 0,0.6744 0.119673,1.17571 0.359152,1.50327 0.239479,0.32757 0.545134,0.49093 0.91674,0.49093 0.630354,0 0.970546,-0.4331 1.020092,-1.30018 l -0.445967,-0.0455 c -0.03854,0.523 -0.184457,0.78445 -0.4377,0.78445 -0.333069,0 -0.499711,-0.40185 -0.499711,-1.20561 v -0.95395 c 0,-0.63586 0.158354,-0.95395 0.474907,-0.95395 0.145889,0 0.218591,0.0456 0.218591,0.13643 0,0.022 -0.01468,0.0551 -0.04496,0.0992 -0.06882,0.10185 -0.103352,0.19941 -0.103352,0.293 0,0.1046 0.03454,0.1925 0.103352,0.26407 0.07157,0.0716 0.16223,0.10749 0.272335,0.10749 0.123869,0 0.226963,-0.0428 0.309542,-0.12816 0.08258,-0.0881 0.124024,-0.20499 0.124024,-0.35088 0,-0.23122 -0.0898,-0.4236 -0.268718,-0.57775 -0.176169,-0.1569 -0.394791,-0.23564 -0.656291,-0.23564 z m 24.765414,0 c -0.368853,0 -0.663456,0.1846 -0.883667,0.55345 -0.217458,0.36886 -0.326079,0.87518 -0.326079,1.51929 0,0.66339 0.115528,1.16193 0.346749,1.495 0.231221,0.33307 0.543784,0.4992 0.937411,0.4992 0.594566,0 0.923706,-0.36455 0.98702,-1.09399 l -0.441834,-0.0744 c -0.07983,0.40188 -0.224365,0.60307 -0.433565,0.60307 -0.178921,0 -0.304119,-0.099 -0.375688,-0.29714 -0.07157,-0.1982 -0.107487,-0.48313 -0.107487,-0.85473 v -0.339 h 1.288294 c 0.06882,0 0.103353,-0.0326 0.103353,-0.0987 v -0.34727 c 0,-0.4707 -0.100848,-0.84906 -0.301791,-1.13533 -0.200942,-0.28627 -0.465153,-0.42943 -0.792716,-0.42943 z m -26.709998,0.0331 c -0.327563,0 -0.582104,0.29598 -0.763777,0.8878 v -0.83405 l -0.735356,0.0124 c -0.07707,0.003 -0.115239,0.0318 -0.115239,0.0868 v 0.20205 c 0,0.022 0.01796,0.0524 0.05374,0.091 0.09084,0.0936 0.135909,0.21326 0.135909,0.35915 v 2.54765 c 0,0.11563 -0.04369,0.19386 -0.131775,0.23513 -0.03854,0.0165 -0.05788,0.0372 -0.05788,0.062 v 0.25631 c 0,0.0275 0.01658,0.0413 0.04961,0.0413 h 1.127063 c 0.03579,0 0.05374,-0.0208 0.05374,-0.062 v -0.2067 c 0,-0.0193 -0.02211,-0.0483 -0.06615,-0.0868 -0.1046,-0.0991 -0.157096,-0.21048 -0.157096,-0.33434 v -1.40354 c 0,-0.44042 0.09947,-0.81929 0.297656,-1.13584 0.1046,0.12386 0.220128,0.18603 0.346749,0.18603 0.115611,0 0.209035,-0.0428 0.280603,-0.12816 0.07157,-0.0881 0.107487,-0.19393 0.107487,-0.31781 0,-0.12386 -0.03868,-0.23111 -0.115755,-0.32194 -0.07432,-0.0908 -0.177415,-0.13643 -0.309542,-0.13643 z m 18.543054,0.0165 c -0.278016,0 -0.533938,0.1252 -0.767911,0.37569 v -0.33848 l -0.978752,0.0289 c -0.06056,0.003 -0.09095,0.029 -0.09095,0.0785 v 0.15245 c 0,0.0468 0.02487,0.0827 0.07442,0.10749 0.118363,0.0578 0.177766,0.16228 0.177766,0.31367 v 2.56832 c 0,0.12387 -0.04559,0.22144 -0.136425,0.29301 -0.03579,0.0275 -0.05374,0.051 -0.05374,0.0703 v 0.2191 c 0,0.0413 0.02211,0.0615 0.06615,0.0615 h 1.024227 c 0.03854,0 0.05736,-0.0174 0.05736,-0.0532 v -0.22737 c 0,-0.0138 -0.01468,-0.0373 -0.04496,-0.0703 -0.06331,-0.0688 -0.09508,-0.14981 -0.09508,-0.2434 v -2.52698 c 0.126621,-0.16516 0.258726,-0.24753 0.396358,-0.24753 0.143136,0 0.214457,0.10033 0.214457,0.30128 v 2.51457 c 0,0.0798 -0.03678,0.14839 -0.111104,0.20619 -0.03028,0.0221 -0.04548,0.0442 -0.04548,0.0661 v 0.21497 c 0,0.0441 0.02349,0.0662 0.07028,0.0662 h 1.007174 c 0.04129,0 0.06201,-0.0221 0.06201,-0.0662 v -0.17363 c 0,-0.0165 -0.01796,-0.0469 -0.05374,-0.091 -0.07432,-0.0908 -0.111621,-0.17874 -0.111621,-0.26407 v -2.47323 c 0,-0.256 -0.05889,-0.46409 -0.17725,-0.62374 -0.11561,-0.15965 -0.276727,-0.23926 -0.483175,-0.23926 z m 5.809465,0 c -0.278016,0 -0.533938,0.1252 -0.767912,0.37569 v -0.33848 l -0.978751,0.0289 c -0.06056,0.003 -0.09095,0.029 -0.09095,0.0785 v 0.15245 c 0,0.0468 0.02487,0.0827 0.07441,0.10749 0.118363,0.0578 0.177767,0.16228 0.177767,0.31367 v 2.56832 c 0,0.12387 -0.04559,0.22144 -0.136426,0.29301 -0.03579,0.0275 -0.05374,0.051 -0.05374,0.0703 v 0.2191 c 0,0.0413 0.02211,0.0615 0.06615,0.0615 h 1.024226 c 0.03854,0 0.05736,-0.0174 0.05736,-0.0532 v -0.22737 c 0,-0.0138 -0.01468,-0.0373 -0.04496,-0.0703 -0.06331,-0.0688 -0.09508,-0.14981 -0.09508,-0.2434 v -2.52698 c 0.126621,-0.16516 0.258727,-0.24753 0.396358,-0.24753 0.143138,0 0.214458,0.10033 0.214458,0.30128 v 2.51457 c 0,0.0798 -0.03678,0.14839 -0.111105,0.20619 -0.03028,0.0221 -0.04547,0.0442 -0.04547,0.0661 v 0.21497 c 0,0.0441 0.02297,0.0662 0.06976,0.0662 h 1.007691 c 0.04129,0 0.06201,-0.0221 0.06201,-0.0662 v -0.17363 c 0,-0.0165 -0.01796,-0.0469 -0.05374,-0.091 -0.07432,-0.0908 -0.111621,-0.17874 -0.111621,-0.26407 v -2.47323 c 0,-0.256 -0.05889,-0.46409 -0.17725,-0.62374 -0.115611,-0.15965 -0.276727,-0.23926 -0.483175,-0.23926 z m -2.238106,0.0372 -0.978235,0.0289 c -0.06056,0.003 -0.09095,0.029 -0.09095,0.0785 v 0.15245 c 0,0.044 0.02487,0.0799 0.07441,0.10749 0.118364,0.0606 0.17725,0.16503 0.17725,0.31367 v 2.55592 c 0,0.14589 -0.0575,0.24761 -0.173116,0.30541 -0.0523,0.0248 -0.07855,0.0648 -0.07855,0.11989 v 0.15296 c 0,0.0523 0.03039,0.0786 0.09095,0.0786 h 1.139465 c 0.06056,0 0.09095,-0.0262 0.09095,-0.0786 v -0.15296 c 0,-0.0523 -0.02487,-0.0924 -0.07441,-0.11989 -0.118364,-0.0606 -0.177767,-0.16228 -0.177767,-0.30541 z m 4.591451,0.3054 c 0.203695,0 0.305407,0.19842 0.305407,0.5948 v 0.56947 h -0.598413 v -0.40462 c 0,-0.50649 0.09757,-0.75965 0.293006,-0.75965 z"
       inkscape:label="ArcGISOnlinePath"
       inkscape:export-filename="arcgis-online.svg"
       inkscape:export-xdpi="96"
       inkscape:export-ydpi="96" />
  </g>
</svg>
