<?xml version="1.0" encoding="UTF-8" standalone="no"?>
<!-- Created with Inkscape (http://www.inkscape.org/) -->

<svg
   width="47.8498mm"
   height="6.6145935mm"
   viewBox="0 0 47.8498 6.6145935"
   version="1.1"
   id="svg5"
   xmlns:inkscape="http://www.inkscape.org/namespaces/inkscape"
   xmlns:sodipodi="http://sodipodi.sourceforge.net/DTD/sodipodi-0.dtd"
   xmlns="http://www.w3.org/2000/svg"
   xmlns:svg="http://www.w3.org/2000/svg">
  <sodipodi:namedview
     id="namedview7"
     pagecolor="#505050"
     bordercolor="#ffffff"
     borderopacity="1"
     inkscape:showpageshadow="0"
     inkscape:pageopacity="0"
     inkscape:pagecheckerboard="1"
     inkscape:deskcolor="#505050"
     inkscape:document-units="mm"
     showgrid="false" />
  <defs
     id="defs2" />
  <g
     inkscape:label="Layer 1"
     inkscape:groupmode="layer"
     id="layer1"
     transform="translate(-34.664498,-93.534208)">
    <g
       aria-label="ArcGIS Pro"
       id="text4747"
       style="font-size:10.5833px;line-height:0px;font-family:'Bauhaus 93';-inkscape-font-specification:'Bauhaus 93, ';fill:#ffffff;fill-rule:evenodd;stroke-width:0.106362">
      <path
         id="path4749"
         style="font-family:'Modern No. 20';-inkscape-font-specification:'Modern No. 20, ';stroke-width:0.100415"
         d="m 62.141335,93.534205 c -0.499577,0 -0.932354,0.179896 -1.29871,0.539583 -0.359695,0.353041 -0.539584,0.786293 -0.539584,1.299193 0,0.57285 0.199443,1.00921 0.599104,1.30895 0.273102,0.19983 0.756228,0.39618 1.448973,0.58935 0.699409,0.18651 1.189214,0.3664 1.468977,0.53959 0.406323,0.25311 0.609349,0.59953 0.609349,1.03916 0,0.35969 -0.15007,0.65935 -0.449816,0.89914 -0.259779,0.2065 -0.54607,0.309809 -0.859138,0.309809 -0.672763,0 -1.185708,-0.190159 -1.538742,-0.569839 -0.179848,-0.19316 -0.336111,-0.43628 -0.469331,-0.72937 -0.159865,-0.34636 -0.303254,-0.80587 -0.429814,-1.37871 l -0.08976,0.0103 v 2.757439 c 0.01999,-0.02 0.22969,-0.292909 0.629352,-0.819139 0.226474,0.29308 0.492723,0.50279 0.79913,0.62936 0.313068,0.126549 0.666166,0.189779 1.059166,0.189779 0.512898,0 0.94926,-0.153169 1.308955,-0.459569 0.426305,-0.3597 0.639598,-0.86906 0.639598,-1.5285 0,-0.69941 -0.206611,-1.19899 -0.619595,-1.49873 -0.253119,-0.17985 -0.789201,-0.37001 -1.608507,-0.56985 -0.632798,-0.14653 -1.092786,-0.31615 -1.379209,-0.50933 -0.339712,-0.22647 -0.509336,-0.51945 -0.509336,-0.879138 0,-0.373009 0.156263,-0.656206 0.46933,-0.849376 0.25312,-0.159871 0.55326,-0.240034 0.899633,-0.240034 0.499577,0 0.945716,0.19993 1.338715,0.599589 0.393,0.393005 0.636112,0.882799 0.729366,1.468979 l 0.08976,0.0297 v -2.177847 c -0.05328,0.03996 -0.272771,0.22963 -0.659111,0.569341 -0.306407,-0.213147 -0.503242,-0.339597 -0.589835,-0.379561 -0.273102,-0.126564 -0.622615,-0.190271 -1.04892,-0.190271 z m -24.179322,4.91e-4 -1.689006,4.695735 c -0.219814,0.60616 -0.399703,1.00602 -0.539585,1.19919 -0.253118,0.34638 -0.609312,0.51958 -1.068922,0.51958 v 0.109779 h 2.528142 v -0.109779 c -0.339712,0 -0.602865,-0.0534 -0.789374,-0.16002 -0.186509,-0.10657 -0.280037,-0.28288 -0.280037,-0.52933 0,-0.15988 0.04009,-0.35002 0.120016,-0.56985 l 0.309798,-0.87913 h 1.938306 l 0.639598,1.75877 0.02,0.0995 c 0,0.11325 -0.09353,0.18982 -0.280038,0.22979 -0.186508,0.0333 -0.52934,0.0502 -1.028917,0.0502 v 0.109779 h 3.676588 v -0.109779 c -0.499578,0 -0.79923,-0.0236 -0.899145,-0.0702 -0.09992,-0.0532 -0.199637,-0.21623 -0.299552,-0.48934 l -2.148091,-5.854915 z m 14.317518,0 c -0.612814,0 -1.209022,0.289391 -1.788531,0.868889 -0.679424,0.679426 -1.01916,1.538786 -1.01916,2.577906 0,1.07243 0.309918,1.89171 0.929393,2.45788 0.512898,0.47293 1.145605,0.709369 1.898302,0.709369 0.293085,0 0.519738,-0.0298 0.679603,-0.0898 0.166524,-0.06 0.376232,-0.186399 0.629352,-0.379569 0.06661,-0.0666 0.136513,-0.13342 0.209783,-0.20003 0.153204,-0.13322 0.34287,-0.19954 0.569345,-0.19954 0.126559,0 0.229866,0.0664 0.309797,0.19954 0.08659,0.12656 0.130262,0.31981 0.130262,0.579599 h 0.08976 v -2.617919 c 0,-0.18651 0.02004,-0.31295 0.06001,-0.37956 0.01999,-0.0333 0.06675,-0.0569 0.140019,-0.0702 0.07994,-0.0133 0.229514,-0.0334 0.449327,-0.06 0.219815,-0.0266 0.403287,-0.0396 0.54983,-0.0396 v -0.10003 h -3.437532 v 0.10001 c 0.146543,0 0.319752,0.01 0.519582,0.0297 0.206492,0.02 0.3432,0.0436 0.409811,0.0702 0.06661,0.0266 0.10979,0.0632 0.129773,0.10977 0.01999,0.0466 0.03025,0.15971 0.03025,0.33956 v 1.20894 c 0,0.45961 -0.126444,0.80961 -0.379562,1.04941 -0.253119,0.2398 -0.606217,0.359559 -1.059167,0.359559 -0.486254,0 -0.869659,-0.276519 -1.149421,-0.829379 -0.273102,-0.55287 -0.409323,-1.34233 -0.409323,-2.36812 0,-1.03246 0.146486,-1.8317 0.439571,-2.397873 0.299745,-0.566188 0.705801,-0.849385 1.218699,-0.849385 0.539543,0 1.009308,0.226647 1.408969,0.6796 0.426306,0.486248 0.709499,1.172398 0.849381,2.058318 h 0.100013 V 93.534503 L 54.22808,94.58342 c -0.313067,-0.426302 -0.629665,-0.716184 -0.949394,-0.869381 -0.25312,-0.119898 -0.586175,-0.179536 -0.999159,-0.179536 z m 3.876615,0.07952 v 0.100017 c 0.599492,0 0.996257,0.0365 1.189427,0.109769 0.07327,0.02668 0.116449,0.05339 0.129774,0.08001 0.02664,0.04662 0.04,0.163289 0.04,0.349803 v 5.135796 c 0,0.18649 -0.01336,0.30317 -0.04,0.3498 -0.01999,0.0399 -0.06984,0.0765 -0.149776,0.10978 -0.07327,0.0266 -0.216662,0.0497 -0.429814,0.0698 -0.206492,0.02 -0.453187,0.0302 -0.739611,0.0302 v 0.109779 h 3.937111 v -0.109779 c -0.599492,0 -0.996257,-0.037 -1.189428,-0.11026 -0.0666,-0.0267 -0.106203,-0.0529 -0.119528,-0.0795 -0.02664,-0.0533 -0.04,-0.17663 -0.04,-0.36981 v -5.135796 c 0,-0.219821 0.02314,-0.349841 0.06977,-0.389813 l 0.100014,-0.03952 c 0.08659,-0.03329 0.233079,-0.06 0.43957,-0.08001 0.213153,-0.02002 0.462944,-0.03024 0.749368,-0.03024 v -0.100017 z m 11.860118,0 v 0.100017 c 0.672764,0 1.112709,0.0365 1.3192,0.109769 0.06661,0.02668 0.106204,0.05339 0.119528,0.08001 0.02664,0.05328 0.04001,0.169954 0.04001,0.349803 v 5.135796 c 0,0.19315 -0.01337,0.31601 -0.04001,0.36933 -0.01332,0.0267 -0.0596,0.0569 -0.13953,0.0903 -0.07994,0.0266 -0.233587,0.0497 -0.460062,0.0698 -0.219813,0.02 -0.499423,0.0302 -0.839136,0.0302 v 0.109779 h 4.316185 v -0.109779 c -0.406321,0 -0.726015,-0.0102 -0.959152,-0.0302 -0.233135,-0.02 -0.389398,-0.0431 -0.46933,-0.0698 -0.07993,-0.0333 -0.126696,-0.0636 -0.140019,-0.0903 -0.02664,-0.0532 -0.04,-0.17615 -0.04,-0.36933 v -2.2481 h 1.518739 c 0.706069,0 1.265778,-0.19325 1.678761,-0.57959 0.333051,-0.31307 0.499579,-0.65948 0.499579,-1.03916 0,-0.55953 -0.216389,-1.012334 -0.649356,-1.35872 -0.45961,-0.366352 -1.086125,-0.549826 -1.878786,-0.549826 z m 3.167251,0.100017 h 0.479577 c 0.512898,0 0.892718,0.146484 1.139176,0.439566 0.246458,0.293092 0.369806,0.722762 0.369806,1.288952 0,0.53953 -0.09353,0.93271 -0.280038,1.17918 -0.219813,0.28642 -0.605825,0.42981 -1.158691,0.42981 h -1.009403 v -2.797925 c 0,-0.193141 0.0067,-0.319583 0.02,-0.37957 0.01999,-0.06658 0.06316,-0.10976 0.129773,-0.129774 0.06661,-0.02002 0.169917,-0.03024 0.309797,-0.03024 z m -33.661561,1.438718 0.919635,2.5379 h -1.838781 z m 7.064357,0.6396 c -0.333051,0 -0.609565,0.16653 -0.829379,0.49958 -0.159867,0.2398 -0.253395,0.49627 -0.280037,0.76937 v -1.25871 l -1.928063,0.14978 v 0.10002 c 0.426306,0 0.699236,0.0164 0.819135,0.0498 0.03996,0.0133 0.08314,0.0534 0.129773,0.12001 0.02664,0.0333 0.04,0.11657 0.04,0.24979 v 3.097 c 0,0.15987 -0.02004,0.25651 -0.06001,0.28979 -0.113236,0.0399 -0.249457,0.0667 -0.409322,0.08 -0.153204,0.0133 -0.326411,0.02 -0.519582,0.02 V 100.059 h 2.917463 v -0.100019 c -0.439627,0 -0.729503,-0.0231 -0.869384,-0.0698 -0.04663,-0.0199 -0.07644,-0.04 -0.08976,-0.06 -0.01999,-0.0399 -0.03025,-0.12682 -0.03025,-0.26004 v -1.85829 c 0,-0.5662 0.126931,-1.02928 0.38005,-1.38897 0.19317,-0.27976 0.385932,-0.41957 0.579101,-0.41957 0.199831,0 0.320082,0.0668 0.360049,0.20004 -0.119899,-0.0266 -0.226789,0.0201 -0.320043,0.14001 -0.08659,0.1199 -0.129773,0.23966 -0.129773,0.35956 0,0.18651 0.04676,0.32631 0.140018,0.41957 0.09326,0.0933 0.206338,0.14002 0.339558,0.14002 0.08659,0 0.156493,-0.0134 0.209784,-0.04 0.219813,-0.0999 0.3298,-0.28291 0.3298,-0.54935 0,-0.0999 -0.02672,-0.21348 -0.08001,-0.34004 -0.04663,-0.12656 -0.143252,-0.22987 -0.289795,-0.3098 -0.146542,-0.0866 -0.282763,-0.12978 -0.409322,-0.12978 z m 2.837451,0 c -0.426305,0 -0.835944,0.18967 -1.228944,0.56935 -0.45295,0.43962 -0.679603,1.00291 -0.679603,1.689 0,0.63945 0.223069,1.16527 0.669358,1.57826 0.373017,0.34637 0.776463,0.519579 1.20943,0.519579 0.532881,0 0.952296,-0.169619 1.258704,-0.509329 0.306407,-0.33971 0.459574,-0.8028 0.459574,-1.38897 h -0.08977 c 0,0.60615 -0.163431,1.06564 -0.489822,1.37872 -0.259779,0.24646 -0.575889,0.3698 -0.948906,0.3698 -0.313068,0 -0.562859,-0.16962 -0.749368,-0.50933 -0.186509,-0.34637 -0.280038,-0.85264 -0.280038,-1.51875 0,-0.71938 0.07349,-1.24569 0.22003,-1.57874 0.146542,-0.33305 0.406111,-0.49958 0.779127,-0.49958 0.239798,0 0.439728,0.0566 0.599593,0.16978 0.159866,0.10658 0.252908,0.26642 0.27955,0.47958 -0.153204,0 -0.276064,0.0467 -0.369318,0.14001 -0.08659,0.0866 -0.130261,0.19968 -0.130261,0.33956 0,0.1532 0.04676,0.27655 0.140018,0.36981 0.09992,0.0866 0.209902,0.12978 0.3298,0.12978 0.09992,0 0.186764,-0.0231 0.260036,-0.0698 0.199829,-0.11325 0.299551,-0.27668 0.299551,-0.48982 0,-0.0866 -0.01695,-0.18991 -0.05025,-0.3098 -0.08659,-0.31973 -0.316343,-0.55616 -0.689361,-0.70936 -0.246457,-0.0999 -0.512706,-0.14978 -0.799131,-0.14978 z m 30.0845,0 c -0.333051,0 -0.609566,0.16653 -0.829379,0.49958 -0.159867,0.2398 -0.252907,0.49627 -0.27955,0.76937 v -1.25871 l -1.92855,0.14978 v 0.10002 c 0.426307,0 0.699723,0.0164 0.819622,0.0498 0.03996,0.0133 0.08315,0.0534 0.129773,0.12001 0.02664,0.0333 0.04001,0.11657 0.04001,0.24979 v 3.097 c 0,0.15987 -0.02004,0.25651 -0.06001,0.28979 -0.113238,0.0399 -0.249947,0.0667 -0.409812,0.08 -0.153203,0.0133 -0.326411,0.02 -0.519581,0.02 V 100.059 h 2.917462 v -0.100019 c -0.439628,0 -0.729015,-0.0231 -0.868896,-0.0698 -0.04663,-0.0199 -0.07693,-0.04 -0.09025,-0.06 -0.01999,-0.0399 -0.02976,-0.12682 -0.02976,-0.26004 v -1.85829 c 0,-0.5662 0.126443,-1.02928 0.379562,-1.38897 0.193169,-0.27976 0.38642,-0.41957 0.57959,-0.41957 0.19983,0 0.319594,0.0668 0.35956,0.20004 -0.119899,-0.0266 -0.226301,0.0201 -0.319555,0.14001 -0.08659,0.1199 -0.129773,0.23966 -0.129773,0.35956 0,0.18651 0.04628,0.32631 0.13953,0.41957 0.09326,0.0933 0.206826,0.14002 0.340046,0.14002 0.08659,0 0.156493,-0.0134 0.209784,-0.04 0.219814,-0.0999 0.329801,-0.28291 0.329801,-0.54935 0,-0.0999 -0.02672,-0.21348 -0.08001,-0.34004 -0.04663,-0.12656 -0.143252,-0.22987 -0.289794,-0.3098 -0.146543,-0.0866 -0.283252,-0.12978 -0.409811,-0.12978 z m 2.967713,0 c -0.506239,0 -0.962641,0.18967 -1.368963,0.56935 -0.446289,0.41964 -0.669358,0.95263 -0.669358,1.59874 0,0.67942 0.226166,1.22887 0.679115,1.64852 0.38634,0.35969 0.839646,0.539579 1.359206,0.539579 0.506238,0 0.962153,-0.193249 1.368474,-0.579589 0.446289,-0.42631 0.669846,-0.96239 0.669846,-1.60851 0,-0.67276 -0.226653,-1.21553 -0.679603,-1.62851 -0.393,-0.3597 -0.845819,-0.53958 -1.358717,-0.53958 z m 0,0.0898 c 0.393,0 0.662833,0.1732 0.809376,0.51958 0.12656,0.29975 0.189781,0.81937 0.189781,1.55874 0,0.71939 -0.07658,1.24928 -0.229787,1.58899 -0.153203,0.33972 -0.409675,0.509349 -0.76937,0.509349 -0.393001,0 -0.659738,-0.166539 -0.799619,-0.499589 -0.133221,-0.33305 -0.199539,-0.86603 -0.199539,-1.59875 0,-0.71939 0.07658,-1.24569 0.229786,-1.57875 0.153204,-0.33305 0.409676,-0.49957 0.769372,-0.49957 z"
         inkscape:label="ArcGIS Pro Path"
         inkscape:export-filename="arcgis-pro.svg"
         inkscape:export-xdpi="96"
         inkscape:export-ydpi="96" />
    </g>
  </g>
</svg>
