<?xml version="1.0" encoding="UTF-8" standalone="no"?>
<!-- Created with Inkscape (http://www.inkscape.org/) -->

<svg
   width="53.595589mm"
   height="9.260437mm"
   viewBox="0 0 53.595589 9.260437"
   version="1.1"
   id="svg5"
   xmlns:inkscape="http://www.inkscape.org/namespaces/inkscape"
   xmlns:sodipodi="http://sodipodi.sourceforge.net/DTD/sodipodi-0.dtd"
   xmlns="http://www.w3.org/2000/svg"
   xmlns:svg="http://www.w3.org/2000/svg">
  <sodipodi:namedview
     id="namedview7"
     pagecolor="#505050"
     bordercolor="#ffffff"
     borderopacity="1"
     inkscape:showpageshadow="0"
     inkscape:pageopacity="0"
     inkscape:pagecheckerboard="1"
     inkscape:deskcolor="#505050"
     inkscape:document-units="mm"
     showgrid="false" />
  <defs
     id="defs2" />
  <g
     inkscape:label="Layer 1"
     inkscape:groupmode="layer"
     id="layer1"
     transform="translate(-30.22671,-107.22159)">
    <path
       id="path4825"
       style="font-size:10.5833px;line-height:0px;font-family:'Harlow Solid Italic';-inkscape-font-specification:'Harlow Solid Italic, ';fill:#ffffff;fill-rule:evenodd;stroke-width:0.0874313"
       d="m 55.327483,107.22159 c -0.617357,0 -1.15826,0.2308 -1.622694,0.6924 -0.464434,0.4616 -0.696653,0.99968 -0.696653,1.61421 0,0.42196 0.126027,0.78443 0.378062,1.08744 0.25204,0.30019 0.555058,0.45028 0.909047,0.45028 0.184074,0 0.337,-0.0524 0.458773,-0.15717 0.1246,-0.10766 0.186907,-0.24355 0.186907,-0.40779 0,-0.17841 -0.09204,-0.30443 -0.276113,-0.37806 -0.206731,-0.0822 -0.349743,-0.17133 -0.429037,-0.26762 -0.07645,-0.0963 -0.114688,-0.23222 -0.114688,-0.40781 0,-0.30301 0.114688,-0.57629 0.344078,-0.81984 0.229386,-0.24637 0.485676,-0.36955 0.768867,-0.36955 0.150092,0 0.283193,0.051 0.399303,0.15292 0.116102,0.0991 0.174162,0.21239 0.174162,0.33983 0,0.15858 -0.08638,0.45027 -0.259121,0.87506 l -0.853824,2.09845 c -0.116116,0.28886 -0.174164,0.51401 -0.174164,0.67542 0,0.22939 0.08071,0.40496 0.24213,0.52675 0.161418,0.119 0.397887,0.1784 0.709396,0.1784 h 0.773117 c 0.249208,0 0.44178,-0.0524 0.577712,-0.15717 0.138767,-0.10766 0.208147,-0.25771 0.208147,-0.45028 0,-0.27186 -0.195405,-0.4078 -0.586208,-0.4078 h -0.71365 l 1.002501,-2.46377 c 0.14726,-0.36249 0.22089,-0.68957 0.22089,-0.98126 0,-0.40496 -0.155758,-0.74338 -0.467268,-1.01525 -0.308677,-0.27186 -0.695238,-0.40779 -1.159672,-0.40779 z m -19.905603,0.085 c -0.186905,0 -0.345495,0.0581 -0.475764,0.17416 -0.127427,0.11606 -0.191154,0.26054 -0.191154,0.43328 0,0.27187 0.157174,0.40781 0.471516,0.40781 h 0.114688 0.420542 l -2.000756,4.92755 h -1.507999 c -0.526738,0 -0.94445,0.0892 -1.253127,0.26761 -0.237882,0.13874 -0.426207,0.33134 -0.56497,0.57771 -0.138768,0.24921 -0.208146,0.51542 -0.208146,0.79861 0,0.4616 0.162836,0.84108 0.488508,1.13844 0.322838,0.30017 0.736301,0.45027 1.240383,0.45027 0.611692,0 1.15401,-0.21664 1.62694,-0.64992 0.181242,-0.16709 0.328505,-0.33984 0.441781,-0.51824 0.113274,-0.17842 0.269033,-0.48853 0.467267,-0.9303 l 0.05097,-0.119 h 0.297352 c 0.753289,0 1.398973,-0.1218 1.937038,-0.36531 0.540895,-0.24355 1.025158,-0.63151 1.452778,-1.16392 0.75612,-0.94586 1.134185,-1.98661 1.134185,-3.1222 0,-0.7448 -0.222308,-1.31544 -0.666918,-1.7119 -0.444611,-0.39647 -1.083215,-0.59471 -1.915797,-0.59471 h -1.244628 z m 1.537736,1.01525 c 0.3993,0 0.715063,0.119 0.947279,0.35682 0.232217,0.23788 0.348326,0.56356 0.348326,0.97701 0,0.37099 -0.08354,0.77454 -0.250625,1.21065 -0.16425,0.43611 -0.389391,0.84109 -0.675414,1.2149 -0.59187,0.77878 -1.326761,1.16817 -2.204654,1.16817 h -0.169915 z m 40.032093,0.17841 c -0.16425,0 -0.304432,0.0581 -0.420541,0.17416 -0.113273,0.11326 -0.169914,0.25205 -0.169914,0.41629 0,0.16425 0.05664,0.30445 0.169914,0.42055 0.116102,0.11326 0.256291,0.16992 0.420541,0.16992 0.164252,0 0.303017,-0.0567 0.416293,-0.16992 0.116102,-0.11606 0.174164,-0.2563 0.174164,-0.42055 0,-0.16424 -0.05806,-0.30301 -0.174164,-0.41629 -0.113273,-0.11606 -0.252041,-0.17416 -0.416293,-0.17416 z m -31.515078,0.2124 c -0.286024,0 -0.495588,0.15716 -0.628687,0.47152 l -0.04673,0.11466 -0.225137,0.55647 h -0.195403 c -0.226553,0 -0.403549,0.0496 -0.530986,0.14868 -0.124599,0.0963 -0.186907,0.23221 -0.186907,0.40779 0,0.24638 0.158588,0.36957 0.475763,0.36957 h 0.06371 l -0.501251,1.23613 -0.08071,0.18691 c -0.05097,0.1274 -0.07647,0.24354 -0.07647,0.34833 0,0.16991 0.0623,0.30442 0.186908,0.40354 0.127441,0.0991 0.298767,0.14868 0.513993,0.14868 h 0.760373 c 0.226552,0 0.402132,-0.0482 0.526738,-0.14443 0.127441,-0.0963 0.191154,-0.2308 0.191154,-0.40355 0,-0.25204 -0.179828,-0.37805 -0.53948,-0.37805 h -0.475764 l 0.569216,-1.39756 h 0.310096 c 0.223721,0 0.399302,-0.0482 0.526738,-0.14444 0.127442,-0.0963 0.191154,-0.23079 0.191154,-0.40355 0,-0.25204 -0.179828,-0.37805 -0.53948,-0.37805 h -0.131684 l 0.157172,-0.33558 c 0.07363,-0.16425 0.110446,-0.30019 0.110446,-0.40781 0,-0.11046 -0.04248,-0.20389 -0.127442,-0.28036 -0.08212,-0.0792 -0.181243,-0.119 -0.297352,-0.119 z m 18.325388,0 c -0.286023,0 -0.495588,0.15716 -0.628688,0.47152 l -0.04673,0.11466 -0.225139,0.55647 H 62.70606 c -0.226553,0 -0.40355,0.0496 -0.530986,0.14868 -0.1246,0.0963 -0.186908,0.23221 -0.186908,0.40779 0,0.24638 0.15859,0.36957 0.475764,0.36957 h 0.06371 l -0.501252,1.23613 -0.08071,0.18691 c -0.05097,0.1274 -0.07647,0.24354 -0.07647,0.34833 0,0.16991 0.0623,0.30442 0.186908,0.40354 0.127441,0.0991 0.298769,0.14868 0.513995,0.14868 h 0.760371 c 0.226553,0 0.402134,-0.0482 0.526738,-0.14443 0.127441,-0.0963 0.191155,-0.2308 0.191155,-0.40355 0,-0.25204 -0.179829,-0.37805 -0.539481,-0.37805 H 63.03313 l 0.569218,-1.39756 h 0.310095 c 0.22372,0 0.399302,-0.0482 0.526737,-0.14444 0.127442,-0.0963 0.191156,-0.23079 0.191156,-0.40355 0,-0.25204 -0.179829,-0.37805 -0.539482,-0.37805 H 63.95917 l 0.157171,-0.33558 c 0.07363,-0.16425 0.110446,-0.30019 0.110446,-0.40781 0,-0.11046 -0.04248,-0.20389 -0.127442,-0.28036 -0.08212,-0.0792 -0.181245,-0.119 -0.297352,-0.119 z m 15.772406,0 c -0.286023,0 -0.495587,0.15716 -0.628688,0.47152 l -0.04673,0.11466 -0.225138,0.55647 h -0.195403 c -0.226553,0 -0.403551,0.0496 -0.530987,0.14868 -0.124599,0.0963 -0.186906,0.23221 -0.186906,0.40779 0,0.24638 0.158589,0.36957 0.475763,0.36957 h 0.06371 l -0.50125,1.23613 -0.08071,0.18691 c -0.05097,0.1274 -0.07647,0.24354 -0.07647,0.34833 0,0.16991 0.0623,0.30442 0.186907,0.40354 0.127441,0.0991 0.298769,0.14868 0.513994,0.14868 h 0.760372 c 0.226553,0 0.402135,-0.0482 0.526739,-0.14443 0.127442,-0.0963 0.191154,-0.2308 0.191154,-0.40355 0,-0.25204 -0.179828,-0.37805 -0.539482,-0.37805 h -0.475762 l 0.569216,-1.39756 h 0.310097 c 0.223721,0 0.399301,-0.0482 0.526737,-0.14444 0.127442,-0.0963 0.191156,-0.23079 0.191156,-0.40355 0,-0.25204 -0.17983,-0.37805 -0.539483,-0.37805 h -0.131684 l 0.157172,-0.33558 c 0.07363,-0.16425 0.110446,-0.30019 0.110446,-0.40781 0,-0.11046 -0.04248,-0.20389 -0.127442,-0.28036 -0.08212,-0.0792 -0.181245,-0.119 -0.297352,-0.119 z m -6.847595,0.56071 c -0.212394,0 -0.376647,0.14302 -0.492754,0.42904 l -0.480011,1.18516 c -0.0623,0.15575 -0.09345,0.26621 -0.09345,0.33133 0,0.11326 0.04248,0.20816 0.127442,0.28461 0.08495,0.0764 0.191155,0.11466 0.318591,0.11466 0.209563,0 0.379479,-0.15859 0.509747,-0.47576 l 0.144428,-0.35683 h 0.44178 c -0.243544,0.27186 -0.413461,0.50125 -0.509745,0.68817 -0.09629,0.18689 -0.14443,0.37946 -0.14443,0.5777 0,0.3115 0.08921,0.56497 0.267618,0.76037 0.181242,0.19541 0.413462,0.2931 0.696654,0.2931 h 0.832585 c 0.226554,0 0.402135,-0.0482 0.526739,-0.14442 0.127441,-0.0963 0.191155,-0.23222 0.191155,-0.40779 0,-0.24923 -0.17983,-0.37381 -0.539483,-0.37381 h -0.535234 c -0.260535,0 -0.390805,-0.1176 -0.390805,-0.35259 0,-0.23505 0.225139,-0.5678 0.675414,-0.99826 l 0.04673,-0.0424 c 0.470098,0 0.705149,-0.17983 0.705149,-0.53947 0,-0.26054 -0.185491,-0.39081 -0.556472,-0.39081 h -0.994006 c -0.133097,0 -0.216642,-0.008 -0.250624,-0.0255 -0.03398,-0.0169 -0.05947,-0.0595 -0.07647,-0.1274 l -0.03398,-0.13174 c -0.04815,-0.19824 -0.176997,-0.29736 -0.386559,-0.29736 z m -31.442864,0.52249 c -0.47293,0 -0.897722,0.21524 -1.274366,0.64568 -0.373813,0.42763 -0.560723,0.9133 -0.560723,1.45703 0,0.35965 0.09488,0.65135 0.28461,0.87507 0.192569,0.22088 0.444614,0.33133 0.756124,0.33133 h 0.484259 c 0.198234,0 0.40355,-0.0949 0.615944,-0.28461 0.08779,0.18974 0.253458,0.28461 0.497003,0.28461 h 0.543729 c 0.223722,0 0.399303,-0.0482 0.526739,-0.14443 0.127441,-0.0991 0.191154,-0.23506 0.191154,-0.40779 0,-0.24923 -0.178413,-0.37381 -0.535233,-0.37381 h -0.467268 l 0.611696,-1.51226 0.04673,-0.11466 c 0.0453,-0.11046 0.06797,-0.20531 0.06797,-0.28461 0,-0.11606 -0.04248,-0.21381 -0.127442,-0.2931 -0.08212,-0.0792 -0.185491,-0.119 -0.310095,-0.119 -0.229385,0 -0.414879,0.10626 -0.556475,0.31859 -0.167081,-0.25204 -0.431869,-0.37806 -0.794354,-0.37806 z m 6.681927,0 c -0.47293,0 -0.897722,0.21524 -1.274366,0.64568 -0.373813,0.42763 -0.560721,0.9133 -0.560721,1.45703 0,0.35965 0.09488,0.65135 0.284608,0.87507 0.192571,0.22088 0.444613,0.33133 0.756124,0.33133 h 0.484259 c 0.198235,0 0.40355,-0.0949 0.615944,-0.28461 0.08779,0.18974 0.253458,0.28461 0.497002,0.28461 h 0.543731 c 0.223721,0 0.399302,-0.0482 0.526738,-0.14443 0.127441,-0.0991 0.191155,-0.23506 0.191155,-0.40779 0,-0.24923 -0.178413,-0.37381 -0.535235,-0.37381 h -0.467267 l 0.611696,-1.51226 0.04673,-0.11466 c 0.0453,-0.11046 0.06797,-0.20531 0.06797,-0.28461 0,-0.11606 -0.04248,-0.21381 -0.127442,-0.2931 -0.08212,-0.0792 -0.185491,-0.119 -0.310097,-0.119 -0.229383,0 -0.414876,0.10626 -0.556471,0.31859 -0.167084,-0.25204 -0.431871,-0.37806 -0.794356,-0.37806 z m 12.301883,0 c -0.274695,0 -0.563555,0.11606 -0.86657,0.34832 -0.09345,-0.19255 -0.249209,-0.28884 -0.467267,-0.28884 -0.2662,0 -0.454525,0.13734 -0.564969,0.41204 l -0.858073,2.11503 -0.04673,0.11508 c -0.0453,0.11046 -0.06797,0.20489 -0.06797,0.28419 0,0.10766 0.04248,0.19824 0.127442,0.27186 0.08495,0.0736 0.188325,0.11046 0.310096,0.11046 0.297351,0 0.521076,-0.18691 0.671167,-0.56072 l 0.50125,-1.23189 c 0.17841,-0.43894 0.413463,-0.658 0.705149,-0.658 0.09062,0 0.164253,0.0241 0.22089,0.0722 0.05949,0.0482 0.08781,0.10626 0.08495,0.17416 -0.0028,0.0595 -0.02407,0.13734 -0.06371,0.23365 l -0.373814,0.92604 c -0.0793,0.19256 -0.118944,0.33699 -0.118944,0.43328 0,0.15858 0.05806,0.29027 0.174165,0.39506 0.118944,0.10472 0.264784,0.15716 0.437531,0.15716 h 0.88781 c 0.22372,0 0.399302,-0.0482 0.526737,-0.14442 0.127442,-0.0963 0.191156,-0.23081 0.191156,-0.40355 0,-0.25204 -0.179829,-0.37806 -0.539482,-0.37806 h -0.509751 l 0.463019,-1.14311 c 0.0623,-0.15576 0.09345,-0.29835 0.09345,-0.42861 0,-0.23504 -0.08638,-0.42904 -0.259121,-0.58196 -0.172746,-0.15292 -0.392223,-0.22939 -0.658423,-0.22939 z m 6.061736,0 c -0.509745,0 -0.950113,0.19824 -1.321094,0.59471 -0.368148,0.39646 -0.552225,0.86798 -0.552225,1.41454 0,0.4248 0.116115,0.74764 0.348327,0.96853 0.235048,0.22088 0.576299,0.33133 1.02374,0.33133 h 1.202154 c 0.226551,0 0.402133,-0.0482 0.526737,-0.14443 0.127442,-0.0963 0.191154,-0.2308 0.191154,-0.40355 0,-0.25204 -0.178411,-0.37805 -0.535234,-0.37805 h -1.261622 c -0.320006,0 -0.48001,-0.10626 -0.48001,-0.3186 h 0.849577 c 0.342662,0 0.600369,-0.0524 0.773116,-0.15718 0.31151,-0.18407 0.467267,-0.46726 0.467267,-0.84957 0,-0.31717 -0.113274,-0.57205 -0.339831,-0.76462 -0.223721,-0.1954 -0.521076,-0.29311 -0.892056,-0.29311 z m 3.483267,0 c -0.475761,0 -0.904801,0.21807 -1.28711,0.65418 -0.382309,0.43611 -0.573464,0.92604 -0.573464,1.46977 0,0.337 0.09345,0.61027 0.28036,0.81984 0.189738,0.20957 0.436118,0.31434 0.739133,0.31434 0.158587,0 0.327088,-0.0538 0.505498,-0.16142 l -0.131684,0.33134 h -0.913296 c -0.506912,0 -0.910465,0.0836 -1.210648,0.25063 -0.243545,0.13594 -0.434701,0.31859 -0.573465,0.54797 -0.141596,0.23222 -0.212394,0.48002 -0.212394,0.74338 0,0.40497 0.145845,0.74197 0.437533,1.011 0.288854,0.26903 0.651344,0.40355 1.087458,0.40355 0.832582,0 1.465523,-0.531 1.898806,-1.59296 l 0.178411,-0.43753 h 0.70515 c 0.223721,0 0.399302,-0.0496 0.526738,-0.14868 0.127441,-0.0963 0.191155,-0.2308 0.191155,-0.40355 0,-0.24921 -0.179829,-0.37381 -0.539482,-0.37381 h -0.509747 l 1.066221,-2.62519 c 0.07363,-0.18124 0.110446,-0.31576 0.110446,-0.40355 0,-0.11046 -0.04248,-0.20391 -0.127442,-0.28036 -0.08212,-0.0792 -0.18266,-0.119 -0.3016,-0.119 -0.243545,0 -0.431869,0.11326 -0.56497,0.33983 -0.172745,-0.22656 -0.433285,-0.33983 -0.781611,-0.33983 z m 6.902817,0.0595 c -0.288854,0 -0.498419,0.16001 -0.628686,0.48002 l -0.04673,0.119 -0.700901,1.72466 c -0.05947,0.14441 -0.08921,0.26336 -0.08921,0.35681 0,0.17559 0.0708,0.31434 0.212395,0.41629 0.144427,0.10192 0.341246,0.15292 0.590455,0.15292 h 0.675414 c 0.226553,0 0.402134,-0.0482 0.526739,-0.14442 0.127428,-0.0963 0.191154,-0.2308 0.191154,-0.40355 0,-0.25204 -0.178412,-0.37805 -0.535234,-0.37805 h -0.480004 l 0.607449,-1.50377 c 0.07645,-0.1869 0.114688,-0.32567 0.114688,-0.41629 0,-0.11046 -0.04389,-0.20531 -0.131684,-0.2846 -0.08495,-0.0792 -0.186908,-0.119 -0.305849,-0.119 z m 4.693917,0 c -0.286024,0 -0.497003,0.16001 -0.632936,0.48002 l -0.04673,0.119 -0.463019,1.14269 c -0.121772,0.30019 -0.18266,0.52532 -0.18266,0.6754 0,0.24639 0.09345,0.44747 0.280361,0.60322 0.189738,0.15292 0.436118,0.22937 0.739133,0.22937 0.175578,0 0.36815,-0.044 0.577713,-0.13174 l -0.123186,0.30585 h -0.692406 c -0.586207,0 -1.029406,0.0694 -1.329589,0.20815 -0.260537,0.1218 -0.470101,0.30301 -0.628688,0.54373 -0.161419,0.24356 -0.242128,0.5055 -0.242128,0.78586 0,0.40213 0.14726,0.73913 0.441778,1.01099 0.29452,0.27187 0.658426,0.40781 1.091708,0.40781 0.713642,0 1.257377,-0.35399 1.631189,-1.06198 0.215225,-0.40213 0.363902,-0.72496 0.446027,-0.96852 h 0.688159 c 0.226553,0 0.402134,-0.0482 0.526737,-0.14443 0.127442,-0.0963 0.191156,-0.2308 0.191156,-0.40354 0,-0.25205 -0.179828,-0.37807 -0.539482,-0.37807 h -0.492755 l 1.057724,-2.60395 0.05097,-0.11466 c 0.04248,-0.10766 0.06371,-0.20249 0.06371,-0.28461 0,-0.119 -0.04248,-0.21806 -0.127442,-0.29736 -0.08212,-0.0822 -0.185493,-0.1232 -0.310097,-0.1232 -0.288854,0 -0.499835,0.16001 -0.632935,0.48002 l -0.04248,0.119 -0.569216,1.38906 c -0.03682,0.0963 -0.123186,0.18266 -0.259123,0.25913 -0.135925,0.0764 -0.269031,0.11466 -0.3993,0.11466 -0.184073,0 -0.271864,-0.0694 -0.26337,-0.20814 0.0028,-0.0482 0.03682,-0.15435 0.101948,-0.3186 l 0.416293,-1.01525 c 0.07363,-0.18407 0.110446,-0.31717 0.110446,-0.39929 0,-0.1218 -0.04248,-0.22231 -0.127442,-0.3016 -0.08212,-0.0792 -0.185492,-0.119 -0.310096,-0.119 z m -11.558503,0.78161 c 0.113274,0 0.206731,0.0283 0.280361,0.085 0.07647,0.0567 0.114688,0.1274 0.114688,0.21239 0,0.0454 -0.01415,0.10332 -0.04248,0.17416 l -0.34408,0.84109 c -0.0623,0.15009 -0.213811,0.22513 -0.454523,0.22513 -0.277528,0 -0.416293,-0.14868 -0.416293,-0.44604 0,-0.26052 0.09204,-0.50691 0.276113,-0.73912 0.186905,-0.23503 0.382309,-0.35258 0.586208,-0.35258 z m -28.522441,0.0169 c 0.0064,-2.3e-4 0.0126,0 0.01911,0 0.104775,0 0.193986,0.0283 0.267616,0.085 0.07647,0.0567 0.114688,0.1232 0.114688,0.19965 0,0.0651 -0.01982,0.14585 -0.05947,0.24213 l -0.297352,0.73489 c -0.07645,0.18974 -0.230803,0.2846 -0.46302,0.2846 h -0.106204 c -0.235048,0 -0.352573,-0.14584 -0.352573,-0.43753 0,-0.25771 0.0977,-0.50691 0.293103,-0.74762 0.189296,-0.23318 0.384159,-0.35378 0.584085,-0.36107 z m 6.681927,0 c 0.0064,-2.3e-4 0.0126,0 0.01911,0 0.104775,0 0.193986,0.0283 0.267617,0.085 0.07647,0.0567 0.114688,0.1232 0.114688,0.19965 0,0.0651 -0.01982,0.14585 -0.05947,0.24213 l -0.297352,0.73489 c -0.07645,0.18974 -0.230802,0.2846 -0.46302,0.2846 h -0.106203 c -0.235048,0 -0.352575,-0.14584 -0.352575,-0.43753 0,-0.25771 0.0977,-0.50691 0.293104,-0.74762 0.189295,-0.23318 0.384158,-0.35378 0.584084,-0.36107 z m 18.280785,0.008 c 0.186907,0 0.28461,0.075 0.293104,0.22513 0.0085,0.13314 -0.138768,0.19965 -0.44178,0.19965 h -0.467268 c 0.150091,-0.28319 0.355408,-0.42478 0.615944,-0.42478 z m 1.941284,3.48751 h 0.734885 c -0.181242,0.4078 -0.348327,0.6924 -0.501252,0.85383 -0.152921,0.16141 -0.331336,0.24212 -0.535232,0.24212 -0.141596,0 -0.260538,-0.0468 -0.356823,-0.14017 -0.09629,-0.0935 -0.144429,-0.20674 -0.144429,-0.33983 0,-0.1954 0.06938,-0.34691 0.208147,-0.45453 0.141596,-0.10766 0.339832,-0.16142 0.594704,-0.16142 z m 12.433567,0.0552 h 0.594705 c -0.192571,0.40498 -0.369566,0.68817 -0.530986,0.84959 -0.158587,0.16142 -0.341248,0.24213 -0.547978,0.24213 -0.150091,0 -0.269033,-0.044 -0.356823,-0.13174 -0.09062,-0.0878 -0.135926,-0.20391 -0.135926,-0.34833 0,-0.40779 0.325675,-0.6117 0.977013,-0.6117 z m -48.442911,0.0595 h 1.125691 c -0.155756,0.36532 -0.351161,0.64994 -0.586209,0.85383 -0.235048,0.20674 -0.482844,0.3101 -0.74338,0.3101 -0.175579,0 -0.324256,-0.0553 -0.446028,-0.16567 -0.121771,-0.11046 -0.18266,-0.24637 -0.18266,-0.40779 0,-0.39364 0.277532,-0.59047 0.832586,-0.59047 z"
       inkscape:label="DataIntegrityPath"
       inkscape:export-filename="data-integrity.svg"
       inkscape:export-xdpi="96"
       inkscape:export-ydpi="96" />
  </g>
</svg>
