<?xml version="1.0" encoding="UTF-8" standalone="no"?>
<!-- Created with Inkscape (http://www.inkscape.org/) -->

<svg
   width="45.473175mm"
   height="33.728691mm"
   viewBox="0 0 45.473175 33.728691"
   version="1.1"
   id="svg2015"
   xml:space="preserve"
   xmlns:inkscape="http://www.inkscape.org/namespaces/inkscape"
   xmlns:sodipodi="http://sodipodi.sourceforge.net/DTD/sodipodi-0.dtd"
   xmlns="http://www.w3.org/2000/svg"
   xmlns:svg="http://www.w3.org/2000/svg"><sodipodi:namedview
     id="namedview2017"
     pagecolor="#505050"
     bordercolor="#ffffff"
     borderopacity="1"
     inkscape:showpageshadow="0"
     inkscape:pageopacity="0"
     inkscape:pagecheckerboard="1"
     inkscape:deskcolor="#505050"
     inkscape:document-units="mm"
     showgrid="false" /><defs
     id="defs2012" /><g
     inkscape:label="Layer 1"
     inkscape:groupmode="layer"
     id="layer1"
     transform="translate(-78.332689,-122.43697)"><path
       id="path3306"
       style="fill:#0d6efd;fill-opacity:1;stroke-width:0.0537992"
       d="m 116.64663,122.43697 v 5.2e-4 c -0.0407,9e-5 -0.0818,5e-5 -0.12248,5.1e-4 -0.0343,10e-4 -0.0681,10e-4 -0.10232,0.003 -0.0378,0.002 -0.0759,0.007 -0.11368,0.0103 -0.0506,0.002 -0.10082,0.002 -0.15142,0.002 -0.0485,0 -0.0972,7.3e-4 -0.14572,0.001 -0.033,10e-4 -0.0658,0.002 -0.0987,0.005 -0.007,9e-4 -0.0141,0.002 -0.0212,0.003 0.0167,3e-4 0.0334,0.001 0.0501,0.001 -0.54899,0.0715 -0.65923,0.19171 -0.66301,0.72295 -0.003,0.3881 -0.1574,0.69113 -0.43046,0.84336 -0.12357,0.0689 -0.59173,0.33702 -1.04025,0.59583 -0.44851,0.2588 -0.87655,0.47067 -0.95136,0.47077 -0.0748,1.1e-4 -0.31511,-0.0854 -0.53382,-0.19017 -0.29059,-0.13926 -0.43825,-0.18189 -0.5488,-0.15761 -0.39108,0.0859 -1.39103,1.61773 -1.55494,2.38176 -0.0798,0.3721 -0.001,0.5218 0.40411,0.76688 0.19968,0.12098 0.34572,0.25283 0.38757,0.35089 0.0468,0.10971 0.0675,0.53373 0.0692,1.40508 l 0.002,1.24747 -0.40462,0.30489 c -0.50501,0.38008 -0.54126,0.44347 -0.46148,0.79995 0.127,0.5675 0.82754,1.7694 1.26763,2.17506 0.30114,0.27758 0.41996,0.28362 0.93586,0.0351 0.21611,-0.10357 0.4353,-0.18862 0.48679,-0.18862 0.0515,0 0.32201,0.14765 0.601,0.32763 0.27899,0.17999 0.71276,0.43147 0.96428,0.55914 0.25151,0.12767 0.51253,0.29153 0.57981,0.3638 0.1463,0.15714 0.22737,0.41522 0.22737,0.72399 0,0.48169 0.19167,0.63614 0.89866,0.72398 0.58654,0.0729 1.66837,0.0256 2.04897,-0.0894 0.36814,-0.11124 0.49478,-0.30051 0.49506,-0.74104 4.1e-4,-0.53328 0.0695,-0.62556 0.7338,-0.97978 0.32144,-0.17138 0.71783,-0.40175 0.88057,-0.5116 0.38307,-0.25857 0.6157,-0.37672 0.74156,-0.37672 0.0556,0 0.21978,0.062 0.36535,0.13798 0.5085,0.26517 0.63578,0.29494 0.80977,0.18913 0.33691,-0.20489 0.81633,-0.8755 1.20819,-1.69033 0.14314,-0.29763 0.26561,-0.57484 0.27544,-0.62322 V 132.04 c 10e-4,-0.0246 0.0124,-0.0374 0.0248,-0.0444 -6.1e-4,-0.004 -0.001,-0.009 -0.001,-0.0145 0,-0.0222 0.004,-0.0441 0.007,-0.0661 0.003,-0.021 0.006,-0.0424 0.007,-0.0636 6.8e-4,-0.01 0.001,-0.0193 0.002,-0.0289 v -5.1e-4 c 0,-0.001 1e-5,-0.002 0,-0.004 -6e-5,-0.0231 3e-4,-0.0467 0,-0.0698 0,-0.0203 -0.001,-0.0402 -0.002,-0.0605 -4.5e-4,-0.009 -10e-4,-0.0189 -0.002,-0.0284 L 123.64,131.50412 c -0.0763,-0.0907 -0.2821,-0.25305 -0.45734,-0.36122 l -0.31832,-0.19689 v -1.32705 c 0,-1.50679 -0.0376,-1.37592 0.49971,-1.74563 0.16784,-0.1154 0.31907,-0.2549 0.33641,-0.30954 0.0173,-0.0546 0.0425,-0.0992 0.0553,-0.0992 5.1e-4,0 0.001,0.0181 0.002,0.0243 0.002,-0.009 0.006,-0.0177 0.0103,-0.0264 0.003,-0.0119 0.004,-0.0241 0.005,-0.0362 0.001,-0.02 0.002,-0.0399 0.002,-0.0599 2.7e-4,-0.021 4.6e-4,-0.042 5.2e-4,-0.063 5e-5,-0.0218 -1e-5,-0.0433 0,-0.0651 10e-6,-0.0234 0,-0.0469 0,-0.0703 v -0.004 l -0.17725,-0.40514 c -0.35104,-0.80398 -0.86236,-1.59664 -1.23042,-1.90634 -0.20195,-0.16992 -0.35648,-0.15547 -0.86299,0.0853 -0.18461,0.0874 -0.39316,0.15863 -0.46354,0.15865 -0.0704,2e-5 -0.37475,-0.15478 -0.67644,-0.34416 -0.30169,-0.18939 -0.74579,-0.44355 -0.98702,-0.56483 -0.24122,-0.12129 -0.47903,-0.28214 -0.52814,-0.35708 -0.0491,-0.0749 -0.10707,-0.31636 -0.12867,-0.53692 -0.0392,-0.40048 -0.0645,-0.46066 -0.31626,-0.73897 l -0.10645,-0.11731 h -0.0176 -0.10594 -0.11989 -0.15038 -0.14418 -0.16381 -0.154 -0.13487 -0.12196 -0.13694 -0.15296 c -0.0407,0 -0.0813,-1e-5 -0.12196,0 -0.0424,1e-5 -0.0847,-8e-5 -0.12712,0 z m -28.464932,2.73575 c -0.112624,0.001 -0.20566,0.0103 -0.272852,0.0284 -0.382432,0.10298 -0.524336,0.26849 -0.659391,0.76998 -0.223928,0.83139 -0.328006,0.93814 -1.058334,1.08417 -0.387916,0.0776 -1.008408,0.28663 -2.021065,0.68058 -0.303321,0.11799 -0.313698,0.11877 -0.559139,0.0248 -0.1375,-0.0525 -0.378248,-0.21222 -0.535368,-0.3545 -0.611523,-0.55383 -0.915432,-0.49109 -1.811775,0.37465 -0.990037,0.95623 -1.653646,1.87175 -1.653646,2.28152 0,0.26474 0.06169,0.38077 0.377754,0.71055 0.358764,0.37433 0.536692,0.65886 0.535885,0.85524 -4.06e-4,0.092 -0.06231,0.36066 -0.137976,0.59738 -0.07566,0.23672 -0.186761,0.74549 -0.246497,1.13016 -0.226585,1.45927 -0.216282,1.43807 -0.838708,1.69499 -0.552552,0.22807 -0.751181,0.35564 -0.840776,0.54002 v 0.0145 0.0532 0.0506 0.0496 0.0527 0.0455 0.0465 0.0568 c 0,0.02 -2e-6,0.0399 0,0.0599 2e-6,0.0182 -1.9e-5,0.0367 0,0.0548 1.9e-5,0.0165 -1.08e-4,0.0331 0,0.0496 1.14e-4,0.0138 -1.6e-5,0.0275 5.17e-4,0.0413 6e-4,0.0133 0.0018,0.0265 0.0036,0.0398 0.0023,0.0174 0.0057,0.0348 0.0078,0.0522 0.0024,0.0182 0.0046,0.0365 0.0047,0.0548 v 0.0486 0.0558 c 10e-7,0.0158 -2e-6,0.0317 0,0.0475 3e-6,0.0131 -1.5e-5,0.0263 0,0.0393 1.8e-5,0.0133 -8.5e-5,0.0265 0,0.0398 1e-4,0.0137 5.87e-4,0.0277 0.001,0.0413 2.23e-4,0.007 1.6e-4,0.0145 5.17e-4,0.0217 0.119096,0.59199 0.479145,1.66102 0.713135,2.11408 0.118248,0.22895 0.309561,0.51328 0.42478,0.632 0.246614,0.25412 0.390995,0.27194 0.91674,0.11214 0.339388,-0.10316 0.549911,-0.13496 0.789616,-0.11937 0.07803,0.005 0.32988,0.20506 0.67231,0.5333 0.301234,0.28873 0.843916,0.77356 1.206128,1.07797 0.418718,0.35186 0.671147,0.6034 0.692981,0.6904 0.01889,0.0753 0.01888,0.2738 -0.0021,0.44131 -0.01999,0.16751 -0.05059,0.45682 -0.06821,0.64286 l -0.03204,0.33848 0.241329,0.23099 c 0.189304,0.18139 0.338423,0.26189 0.693498,0.37466 1.244729,0.39535 2.615074,0.56898 3.081982,0.39067 0.294565,-0.11249 0.386157,-0.2463 0.511597,-0.74827 0.05377,-0.21518 0.125896,-0.44389 0.160197,-0.50798 0.121985,-0.22799 0.414638,-0.38057 1.136881,-0.59325 0.399459,-0.11763 0.931913,-0.29921 1.18339,-0.40359 0.941702,-0.39082 1.017954,-0.38531 1.727544,0.12712 0.245037,0.17698 0.50191,0.33573 0.570507,0.35295 0.570012,0.14306 2.711531,-2.0919 2.842721,-2.96674 0.04351,-0.29012 -0.0053,-0.38205 -0.466638,-0.87747 -0.485107,-0.521 -0.493402,-0.57323 -0.245463,-1.56838 0.107156,-0.43008 0.232503,-1.0339 0.278536,-1.34203 0.135185,-0.90508 0.247351,-1.07818 0.843876,-1.3038 0.7074,-0.26757 0.797367,-0.36921 0.797367,-0.90124 0,-1.11177 -0.851454,-3.24597 -1.402498,-3.51554 -0.186546,-0.0913 -0.206243,-0.0896 -0.699182,0.0398 -0.279065,0.0733 -0.56344,0.1338 -0.631486,0.13436 -0.211663,0.002 -0.415685,-0.14101 -1.117762,-0.78187 -0.373684,-0.34112 -0.848389,-0.75522 -1.054716,-0.91984 -0.544526,-0.43449 -0.598066,-0.5384 -0.55087,-1.06815 0.08671,-0.97317 0.04783,-1.11034 -0.385507,-1.35651 -0.586808,-0.33338 -2.336535,-0.70276 -3.124873,-0.69298 z m 28.540892,1.17667 c 0.11001,-0.001 0.23099,8.7e-4 0.36535,0.002 l 0.81339,0.0119 0.45062,0.22944 c 1.05953,0.53935 1.73479,1.4686 1.82624,2.51406 0.11193,1.27959 -0.11289,1.97487 -0.88728,2.74557 -0.61078,0.60786 -1.11327,0.86499 -1.83658,0.93999 -0.91732,0.0951 -1.47958,-0.007 -2.13785,-0.38809 -0.61914,-0.35853 -1.16967,-0.9958 -1.44798,-1.67587 -0.15928,-0.38919 -0.19901,-1.52913 -0.0729,-2.02778 0.16509,-0.64593 0.68075,-1.36458 1.28726,-1.7942 0.63025,-0.44654 0.86966,-0.54705 1.63969,-0.55553 z m 7.0373,1.1927 c 3.2e-4,0.008 0.001,0.0114 0.001,0.0186 0.002,-10e-4 0.004,-10e-4 0.006,-0.002 -0.003,-0.005 -0.005,-0.0107 -0.007,-0.0165 z m -36.09444,2.79414 c 0.348239,0.004 0.852379,0.0508 1.113627,0.11214 1.224861,0.28788 2.312621,1.16252 2.906799,2.33732 0.394913,0.78077 0.52293,2.00851 0.300757,2.88303 -0.381472,1.50183 -1.591278,2.77731 -2.992582,3.15433 -0.58892,0.15846 -1.936671,0.17428 -2.414323,0.0279 -1.258642,-0.38481 -2.351703,-1.39343 -2.844271,-2.62465 -0.353897,-0.88469 -0.340951,-2.31499 0.02894,-3.18637 0.646136,-1.52204 1.894084,-2.45077 3.619417,-2.69234 0.06676,-0.009 0.165557,-0.0127 0.281637,-0.0114 z m -9.288322,1.38028 c -0.008,6.9e-4 -0.01578,0.002 -0.02429,0.002 -0.0071,0.0421 -0.01335,0.0845 -0.02015,0.1266 0.01507,-0.0305 0.02954,-0.0611 0.04444,-0.0909 -2e-5,-0.011 1.9e-5,-0.0267 0,-0.0377 z m 27.384892,0.93482 c -0.23978,-7.4e-4 -0.47389,0.009 -0.68368,0.031 -0.48147,0.0507 -0.83178,0.13388 -1.05575,0.2496 -0.2555,0.13201 -0.32701,0.35287 -0.36897,1.13946 -0.0407,0.7622 -0.0975,0.98159 -0.28474,1.10433 -0.13136,0.0861 -1.59478,0.68755 -2.12855,0.87488 -0.4255,0.14933 -0.434,0.14545 -1.10381,-0.46354 -0.265009,-0.24107 -0.553347,-0.47516 -0.640784,-0.52038 -0.385868,-0.19954 -0.911527,0.0412 -1.704289,0.78083 -0.668358,0.62345 -1.163646,1.25453 -1.26969,1.61799 -0.121473,0.41634 -0.04681,0.61802 0.413411,1.11414 0.529306,0.57085 0.660678,0.75714 0.655774,0.92966 -0.0024,0.0828 -0.118841,0.41467 -0.258899,0.73743 -0.140025,0.32276 -0.341382,0.82697 -0.447517,1.11982 -0.263415,0.72718 -0.265607,0.72869 -1.321884,0.81132 -0.687814,0.054 -0.868696,0.0854 -0.986503,0.1726 -0.331657,0.24561 -0.529108,1.19419 -0.47904,2.30271 0.0356,0.78807 0.167947,1.46245 0.318843,1.6247 0.176638,0.18989 0.556322,0.28747 1.253154,0.32195 0.379951,0.0188 0.706466,0.0627 0.793233,0.10645 0.165861,0.0837 0.301052,0.32267 0.505912,0.89297 0.07699,0.21429 0.242806,0.61962 0.367937,0.90072 0.125096,0.2811 0.242744,0.57492 0.261482,0.65267 0.04151,0.17223 -0.09316,0.38384 -0.610298,0.96015 -0.649006,0.72327 -0.684871,0.97062 -0.235645,1.63349 0.530877,0.78329 1.832862,1.91363 2.306319,2.00246 0.26319,0.0494 0.555463,-0.10889 1.097604,-0.59479 0.24825,-0.22245 0.53233,-0.45445 0.63149,-0.51573 l 0.18035,-0.11162 0.60565,0.2682 c 0.33315,0.14734 0.82662,0.35248 1.09657,0.4563 0.89821,0.34545 0.93253,0.39523 0.98444,1.42524 0.0263,0.52152 0.0629,0.78555 0.12557,0.90382 0.19253,0.36334 1.06783,0.54486 2.32647,0.48266 1.23152,-0.0608 1.62874,-0.17947 1.77251,-0.52969 0.0392,-0.0955 0.0875,-0.464 0.10748,-0.81907 0.0201,-0.35508 0.0614,-0.72387 0.0909,-0.81907 0.0762,-0.24414 0.29892,-0.41051 0.81236,-0.6072 0.24464,-0.0937 0.74594,-0.30331 1.11414,-0.4656 0.52693,-0.23226 0.69324,-0.28403 0.78032,-0.2434 0.0609,0.0284 0.36472,0.27545 0.67541,0.5488 0.63434,0.55808 0.83931,0.67065 1.12241,0.61754 0.51692,-0.097 1.91208,-1.33667 2.36471,-2.10117 0.3802,-0.64215 0.32662,-0.8568 -0.41909,-1.67431 -0.16691,-0.18299 -0.35046,-0.41971 -0.40773,-0.52607 -0.10376,-0.19267 -0.1022,-0.19458 0.0134,-0.50126 0.26408,-0.69384 0.82314,-2.021 0.90072,-2.1394 0.0956,-0.14586 0.20333,-0.16876 0.99838,-0.20878 1.25939,-0.0634 1.44426,-0.29723 1.49242,-1.88825 0.0373,-1.23111 -0.10526,-2.01405 -0.4222,-2.31769 -0.14302,-0.13703 -0.19698,-0.15007 -0.81338,-0.1912 -1.27694,-0.0852 -1.23254,-0.0587 -1.57097,-0.93535 -0.12518,-0.32424 -0.30188,-0.75871 -0.39222,-0.96583 -0.2516,-0.57684 -0.30279,-0.75212 -0.2651,-0.90227 0.019,-0.0759 0.2366,-0.35718 0.48369,-0.62529 0.77011,-0.83563 0.81998,-1.04676 0.39842,-1.68361 -0.26881,-0.4066 -1.41202,-1.56377 -1.78645,-1.80868 -0.64528,-0.42207 -0.85863,-0.38428 -1.6061,0.28267 -0.31171,0.27812 -0.61665,0.53226 -0.67748,0.56482 -0.17225,0.0922 -0.15031,0.0998 -2.25929,-0.79323 -0.51831,-0.21945 -0.55219,-0.28747 -0.62477,-1.2609 -0.0683,-0.91634 -0.10366,-1.013 -0.42995,-1.16996 -0.30812,-0.14821 -1.07746,-0.24582 -1.79679,-0.24805 z m -0.0413,6.72311 c 0.10139,-5.4e-4 0.20502,0.001 0.30489,0.003 0.64972,0.0155 0.78129,0.0359 1.25005,0.19224 2.66555,0.88923 4.11193,3.57677 3.34709,6.21719 -0.24044,0.82973 -0.60791,1.46112 -1.19683,2.05517 -1.122,1.13176 -2.56685,1.65997 -4.14187,1.51463 -1.81439,-0.16721 -3.46491,-1.44451 -4.14445,-3.20652 -0.90996,-2.35961 0.14019,-5.08728 2.39624,-6.22339 0.45169,-0.22747 1.06824,-0.44224 1.47639,-0.51521 0.11842,-0.0211 0.40431,-0.0351 0.70849,-0.0367 z m 18.08262,15.91531 0.002,0.87591 5.2e-4,-0.87436 c -2.4e-4,-1.7e-4 -0.002,-7.6e-4 -0.003,-0.002 z" /></g></svg>
