<?xml version="1.0" encoding="UTF-8" standalone="no"?>
<!-- Created with Inkscape (http://www.inkscape.org/) -->

<svg
   width="49.508553mm"
   height="6.6146393mm"
   viewBox="0 0 49.508553 6.6146393"
   version="1.1"
   id="svg5"
   inkscape:version="1.2.2 (732a01da63, 2022-12-09)"
   xmlns:inkscape="http://www.inkscape.org/namespaces/inkscape"
   xmlns:sodipodi="http://sodipodi.sourceforge.net/DTD/sodipodi-0.dtd"
   xmlns="http://www.w3.org/2000/svg"
   xmlns:svg="http://www.w3.org/2000/svg">
  <sodipodi:namedview
     id="namedview7"
     pagecolor="#505050"
     bordercolor="#ffffff"
     borderopacity="1"
     inkscape:showpageshadow="0"
     inkscape:pageopacity="0"
     inkscape:pagecheckerboard="1"
     inkscape:deskcolor="#505050"
     inkscape:document-units="mm"
     showgrid="false"
     inkscape:zoom="2.0888418"
     inkscape:cx="201.30773"
     inkscape:cy="484.95773"
     inkscape:window-width="1920"
     inkscape:window-height="1009"
     inkscape:window-x="-8"
     inkscape:window-y="-8"
     inkscape:window-maximized="1"
     inkscape:current-layer="layer1" />
  <defs
     id="defs2" />
  <g
     inkscape:label="Layer 1"
     inkscape:groupmode="layer"
     id="layer1"
     transform="translate(-33.230943,-121.43158)">
    <path
       id="path4926"
       style="font-size:7.57485px;line-height:0px;font-family:'Bernard MT Condensed';-inkscape-font-specification:'Bernard MT Condensed, ';fill:#ffffff;fill-rule:evenodd;stroke-width:0.0717653"
       d="m 65.553175,121.43157 c -0.195257,0 -0.394048,0.0409 -0.596277,0.12228 -0.202231,0.0814 -0.303499,0.19879 -0.303499,0.35221 0,0.19293 0.144358,0.28937 0.432594,0.28937 0.223151,0 0.42194,-0.0479 0.596278,-0.14322 0.176661,-0.0976 0.265012,-0.21616 0.265012,-0.35563 0,-0.17666 -0.131441,-0.26501 -0.394108,-0.26501 z m 7.29076,0 c -0.195257,0 -0.394047,0.0409 -0.596278,0.12228 -0.20223,0.0814 -0.303498,0.19879 -0.303498,0.35221 0,0.19293 0.144357,0.28937 0.432594,0.28937 0.223151,0 0.421941,-0.0479 0.596277,-0.14322 0.176662,-0.0976 0.265013,-0.21616 0.265013,-0.35563 0,-0.17666 -0.131441,-0.26501 -0.394108,-0.26501 z m -31.216885,0.0385 c -0.297534,0 -0.446234,0.10826 -0.446234,0.32444 0,0.10693 0.06301,0.19746 0.188529,0.27184 0.09298,0.0534 0.139326,0.11162 0.139326,0.1744 0,0.0441 -0.03826,0.10451 -0.114968,0.18122 -0.174337,-0.0372 -0.320865,-0.0555 -0.439414,-0.0555 -0.416083,0 -0.770574,0.16814 -1.063459,0.50519 -0.290561,0.33472 -0.436004,0.76139 -0.436004,1.27975 0,0.58112 0.214964,1.04122 0.644993,1.3806 -0.455598,0.1813 -0.682991,0.45445 -0.682991,0.81939 0,0.32311 0.158957,0.55473 0.477412,0.69419 l -0.08379,0.0419 c -0.134819,0.0674 -0.228598,0.12882 -0.282063,0.18463 -0.05346,0.0581 -0.08038,0.13728 -0.08038,0.23724 0,0.18595 0.130356,0.32174 0.390698,0.40775 0.262667,0.086 0.609072,0.1291 1.039102,0.1291 1.115752,0 1.673377,-0.32758 1.673377,-0.98308 0,-0.30916 -0.108269,-0.53378 -0.324445,-0.67325 -0.216177,-0.13947 -0.493661,-0.20899 -0.833035,-0.20899 h -0.951901 c -0.25337,0 -0.379981,-0.0571 -0.379981,-0.171 0,-0.065 0.04043,-0.1254 0.121789,-0.18121 0.08368,-0.0558 0.162861,-0.0838 0.237245,-0.0838 0.03952,0 0.09878,0.009 0.177811,0.0278 0.144118,0.0395 0.276645,0.0594 0.397518,0.0594 0.38819,0 0.729765,-0.15787 1.024974,-0.474 0.297535,-0.31612 0.446235,-0.74497 0.446235,-1.28657 0,-0.63226 -0.256968,-1.13111 -0.77068,-1.49605 0.302184,-0.27662 0.453541,-0.51741 0.453541,-0.72197 0,-0.10692 -0.04201,-0.19745 -0.125685,-0.27183 -0.08368,-0.0744 -0.216209,-0.11155 -0.397519,-0.11155 z m 29.316493,0.0278 c -0.05346,0 -0.08956,0.008 -0.108148,0.0243 -0.01627,0.014 -0.03028,0.0537 -0.04189,0.11887 -0.03254,0.18363 -0.133323,0.35551 -0.303011,0.51589 -0.169688,0.16038 -0.338303,0.25357 -0.505667,0.27915 -0.05114,0.007 -0.0824,0.0173 -0.09403,0.0312 -0.0093,0.0139 -0.01413,0.0441 -0.01413,0.0906 v 0.25138 c 0,0.0418 0.0048,0.0672 0.01413,0.0764 0.01162,0.009 0.03696,0.0141 0.07648,0.0141 h 0.135916 v 3.61225 c 0,0.29986 0.084,0.524 0.251371,0.67276 h 1.101457 c 0.04881,0 0.07681,-0.004 0.08379,-0.0107 0.0093,-0.007 0.01413,-0.0403 0.01413,-0.10084 0,-0.0976 -0.0081,-0.16497 -0.02436,-0.20218 -0.01627,-0.0372 -0.05127,-0.0689 -0.104739,-0.0945 -0.10925,-0.0534 -0.163683,-0.14181 -0.163683,-0.26501 v -3.61226 h 0.215809 c 0.08136,0 0.122276,-0.0371 0.122276,-0.11156 v -0.25088 c 0,-0.0767 -0.04092,-0.11497 -0.122276,-0.11497 h -0.215809 v -0.80186 c 0,-0.0814 -0.03067,-0.12227 -0.0911,-0.12227 z m -37.562564,0.0594 c -0.06044,0 -0.09761,0.0129 -0.111559,0.0385 -0.01394,0.0233 -0.02095,0.0858 -0.02095,0.18805 0,0.086 0.0081,0.14791 0.02436,0.18511 0.01627,0.0371 0.06045,0.0706 0.132506,0.10084 0.08368,0.0372 0.125686,0.0991 0.125686,0.18512 v 4.14228 c 0,0.20221 -0.06626,0.324 -0.198759,0.36586 -0.04185,0.0139 -0.06985,0.035 -0.08379,0.0629 -0.01162,0.0255 -0.01753,0.0848 -0.01753,0.17781 0,0.12087 0.049,0.18122 0.146634,0.18122 h 2.294499 c 0.06741,0 0.111585,-0.0139 0.132506,-0.0418 0.02325,-0.0279 0.04159,-0.085 0.05553,-0.171 l 0.122276,-0.83303 c 0.01162,-0.072 0.01705,-0.12431 0.01705,-0.15686 0,-0.0465 -0.01509,-0.0778 -0.04531,-0.094 -0.03022,-0.0186 -0.09757,-0.0283 -0.20217,-0.0283 -0.0953,0 -0.162651,0.0129 -0.202169,0.0385 -0.03952,0.0233 -0.07295,0.0917 -0.100841,0.20558 -0.07904,0.29521 -0.143126,0.48375 -0.191939,0.56511 -0.04881,0.0814 -0.12425,0.12179 -0.226527,0.12179 h -0.198746 v -4.49791 c 0,-0.11389 0.05817,-0.19041 0.174401,-0.22994 0.06276,-0.0209 0.101023,-0.0441 0.114969,-0.0697 0.01627,-0.0279 0.02436,-0.0801 0.02436,-0.15687 0,-0.12783 -0.01183,-0.20592 -0.03508,-0.23382 -0.02093,-0.0303 -0.06135,-0.0454 -0.121789,-0.0454 z m 13.005574,0 c -0.09763,0 -0.146147,0.0371 -0.146147,0.11156 v 0.1744 c 0,0.0883 0.03935,0.15241 0.118379,0.19194 0.06276,0.0279 0.09402,0.0823 0.09402,0.16369 v 4.32008 c 0,0.0558 -0.0059,0.0941 -0.01753,0.11497 -0.01162,0.0186 -0.04071,0.0396 -0.0872,0.0629 -0.07206,0.0395 -0.107661,0.0999 -0.107661,0.18123 v 0.19875 c 0,0.072 0.03561,0.10815 0.107661,0.10815 h 1.279756 c 0.104601,0 0.156864,-0.0361 0.156864,-0.10815 v -0.19876 c 0,-0.0604 -0.02426,-0.0998 -0.07307,-0.11839 -0.06973,-0.0255 -0.104738,-0.0918 -0.104738,-0.19876 v -4.87105 c 0,-0.0698 -0.0091,-0.10908 -0.02776,-0.11839 -0.01859,-0.009 -0.05685,-0.0141 -0.114969,-0.0141 z m 3.671686,0 c -0.125523,0 -0.203617,0.0139 -0.233834,0.0419 -0.03021,0.0279 -0.04531,0.0849 -0.04531,0.17099 0,0.11853 0.01075,0.19614 0.03167,0.23334 0.02093,0.0349 0.06135,0.0617 0.121788,0.0804 0.07671,0.0232 0.11871,0.0583 0.125686,0.10473 v 4.22217 c 0,0.1325 -0.06518,0.23219 -0.195348,0.2996 -0.06044,0.0325 -0.09435,0.0617 -0.101329,0.0872 -0.007,0.0255 -0.01023,0.0886 -0.01023,0.18854 0,0.0837 0.0091,0.1381 0.02776,0.16368 0.02092,0.0233 0.057,0.0351 0.108148,0.0351 h 1.840958 c 0.497441,0 0.897193,-0.23006 1.199376,-0.69031 0.302183,-0.46257 0.453541,-1.15864 0.453541,-2.08842 0,-1.02046 -0.157273,-1.75044 -0.471078,-2.18977 -0.311481,-0.43933 -0.705319,-0.65912 -1.181839,-0.65912 z m 1.296807,0.41506 h 0.132506 c 0.137144,0 0.243241,0.0485 0.317625,0.14614 0.07438,0.0976 0.111558,0.22473 0.111558,0.38047 v 3.56305 c 0,0.27661 -0.03018,0.46949 -0.09061,0.57874 -0.06044,0.10693 -0.155789,0.16077 -0.285961,0.16077 h -0.185118 z m -13.587725,0.40093 c -0.460248,0 -0.831997,0.21012 -1.115584,0.63086 -0.283587,0.41841 -0.425286,1.02878 -0.425286,1.83073 0,0.80194 0.153042,1.40266 0.459874,1.80247 0.306832,0.39749 0.680155,0.59628 1.119482,0.59628 0.38354,0 0.691684,-0.13953 0.924133,-0.41846 0.232449,-0.27894 0.348315,-0.59735 0.348315,-0.95532 0,-0.10226 -0.01726,-0.16587 -0.05212,-0.19145 -0.03254,-0.0255 -0.111721,-0.0385 -0.237244,-0.0385 -0.144121,0 -0.228729,0.014 -0.254295,0.0418 -0.02325,0.0279 -0.03616,0.11142 -0.03848,0.25088 -0.007,0.26035 -0.06407,0.46614 -0.170992,0.61723 -0.104601,0.14877 -0.245215,0.22312 -0.421875,0.22312 -0.1139,0 -0.207679,-0.0534 -0.282063,-0.16027 -0.07206,-0.10693 -0.108149,-0.25455 -0.108149,-0.44283 v -1.42639 h 1.565229 v -0.32396 c 0,-0.65085 -0.119611,-1.15295 -0.359033,-1.50628 -0.239423,-0.35332 -0.556738,-0.53002 -0.951901,-0.53002 z m 6.565387,0 c -0.413759,0 -0.749418,0.0943 -1.007436,0.28254 -0.255695,0.18829 -0.383391,0.43125 -0.383391,0.72879 0,0.31612 0.147614,0.474 0.442824,0.474 0.144118,0 0.278816,-0.0232 0.404338,-0.0697 0.127847,-0.0488 0.209197,-0.10699 0.244065,-0.17441 0.03719,-0.0674 0.05553,-0.18002 0.05553,-0.33808 0,-0.28126 0.103439,-0.42188 0.310318,-0.42188 0.151092,0 0.227014,0.0927 0.227014,0.27866 v 0.67325 c -0.183635,0.0883 -0.415257,0.18585 -0.694195,0.29277 -0.439328,0.17202 -0.734556,0.36007 -0.885647,0.56461 -0.151093,0.20224 -0.226528,0.56639 -0.226528,1.09172 0,0.52534 0.08026,0.90409 0.240655,1.13653 0.162714,0.23013 0.391678,0.3454 0.686888,0.3454 0.132496,0 0.261279,-0.029 0.386801,-0.0872 0.125522,-0.0582 0.289796,-0.19221 0.492026,-0.40142 0.06741,0.19294 0.16119,0.32329 0.282063,0.3907 0.120874,0.065 0.272231,0.0974 0.453541,0.0974 0.148768,0 0.272123,-0.0161 0.36975,-0.0487 0.09996,-0.0325 0.162477,-0.067 0.188043,-0.10425 0.02558,-0.0395 0.03848,-0.10579 0.03848,-0.19876 0,-0.0674 -0.02317,-0.11858 -0.06967,-0.15346 -0.06508,-0.0535 -0.100087,-0.0884 -0.104739,-0.10474 v -3.18355 c 0,-0.21154 -0.06518,-0.4055 -0.195348,-0.58215 -0.130171,-0.17666 -0.304703,-0.30219 -0.523205,-0.37657 -0.216177,-0.0744 -0.460229,-0.11156 -0.732194,-0.11156 z m 10.944909,0 c -0.460248,0 -0.831997,0.21012 -1.115585,0.63086 -0.283587,0.41841 -0.425286,1.02878 -0.425286,1.83073 0,0.80194 0.15353,1.40266 0.460361,1.80247 0.306833,0.39749 0.679667,0.59628 1.118995,0.59628 0.383541,0 0.691685,-0.13953 0.924132,-0.41846 0.23245,-0.27894 0.348317,-0.59735 0.348317,-0.95532 0,-0.10226 -0.01726,-0.16587 -0.05212,-0.19145 -0.03254,-0.0255 -0.111723,-0.0385 -0.237245,-0.0385 -0.144115,0 -0.228722,0.014 -0.254295,0.0418 -0.02325,0.0279 -0.03616,0.11142 -0.03848,0.25088 -0.007,0.26035 -0.06358,0.46614 -0.170504,0.61723 -0.104602,0.14877 -0.245702,0.22312 -0.422364,0.22312 -0.1139,0 -0.207679,-0.0534 -0.282062,-0.16027 -0.07206,-0.10693 -0.108149,-0.25455 -0.108149,-0.44283 v -1.42639 h 1.565229 v -0.32396 c 0,-0.65085 -0.119611,-1.15295 -0.359033,-1.50628 -0.239422,-0.35332 -0.556738,-0.53002 -0.951901,-0.53002 z m 2.447953,0 c -0.225475,0 -0.417265,0.0905 -0.57533,0.27182 -0.158065,0.18132 -0.237244,0.45663 -0.237244,0.82623 0,0.27196 0.05226,0.54292 0.156863,0.81257 0.106927,0.26963 0.279287,0.60421 0.516384,1.00402 0.225475,0.37657 0.376347,0.64754 0.453055,0.81257 0.07904,0.16504 0.118379,0.30349 0.118379,0.41507 0,0.12552 -0.05226,0.18804 -0.156864,0.18804 -0.162714,0 -0.334588,-0.18914 -0.515898,-0.56803 -0.04881,-0.0999 -0.08974,-0.16029 -0.122276,-0.18122 -0.03021,-0.0209 -0.08574,-0.0317 -0.167094,-0.0317 -0.15574,0 -0.233834,0.0323 -0.233834,0.0974 0,0.0116 0.0038,0.0407 0.01072,0.0872 l 0.174402,0.97285 c 0.0093,0.0581 0.02547,0.099 0.04872,0.12227 0.02325,0.0233 0.07442,0.0346 0.153454,0.0346 0.102277,0 0.162626,-0.009 0.181221,-0.0277 0.01859,-0.0162 0.03259,-0.0556 0.04189,-0.11838 0.0046,-0.0535 0.02299,-0.0804 0.05553,-0.0804 0.02789,0 0.08282,0.0269 0.164171,0.0804 0.148767,0.0976 0.290466,0.14614 0.425286,0.14614 0.213853,0 0.399728,-0.10077 0.557792,-0.303 0.158066,-0.20456 0.237245,-0.48953 0.237245,-0.85447 0,-0.34403 -0.05226,-0.65325 -0.156864,-0.92755 -0.104602,-0.27429 -0.303393,-0.65195 -0.596277,-1.13312 -0.339375,-0.55322 -0.509077,-0.88889 -0.509077,-1.00743 0,-0.0441 0.01292,-0.0824 0.03848,-0.11498 0.02789,-0.0325 0.05915,-0.0492 0.09403,-0.0492 0.09065,0 0.193008,0.0733 0.306908,0.21971 0.113898,0.14644 0.198506,0.27305 0.254295,0.37998 0.04881,0.0907 0.0919,0.14665 0.129095,0.16758 0.03952,0.0209 0.10095,0.0312 0.184632,0.0312 0.125522,0 0.188529,-0.0323 0.188529,-0.0974 0,-0.0233 -0.0022,-0.0502 -0.0068,-0.0804 l -0.191939,-0.96554 c -0.01394,-0.0604 -0.03012,-0.0965 -0.04872,-0.10815 -0.01627,-0.014 -0.05344,-0.0209 -0.111558,-0.0209 -0.09066,0 -0.14992,0.006 -0.177812,0.0175 -0.02789,0.0116 -0.04672,0.0429 -0.05602,0.094 -0.007,0.0488 -0.02906,0.0731 -0.06625,0.0731 -0.02789,0 -0.08016,-0.021 -0.156864,-0.0629 -0.15109,-0.0814 -0.285789,-0.12179 -0.404338,-0.12179 z m 2.980901,0 c -0.283588,0 -0.520638,0.0916 -0.711246,0.27524 -0.188283,0.18131 -0.348813,0.45927 -0.481309,0.83352 -0.132496,0.37191 -0.198272,0.83902 -0.198272,1.40154 0,0.75081 0.129868,1.33101 0.390211,1.74012 0.260342,0.40911 0.593831,0.61333 1.000616,0.61333 0.346348,0 0.613574,-0.13204 0.801857,-0.39703 0.188284,-0.26732 0.282549,-0.58138 0.282549,-0.94168 0,-0.11156 -0.01726,-0.18482 -0.05212,-0.2197 -0.03487,-0.0349 -0.100045,-0.0521 -0.195348,-0.0521 -0.109253,0 -0.18686,0.0113 -0.233347,0.0346 -0.04417,0.0233 -0.06625,0.0965 -0.06625,0.21971 l 0.0034,0.0979 c 0,0.22779 -0.03283,0.41367 -0.09792,0.55779 -0.06276,0.1418 -0.152199,0.2124 -0.268423,0.2124 -0.086,0 -0.153356,-0.0312 -0.20217,-0.094 -0.04648,-0.065 -0.06967,-0.13835 -0.06967,-0.21971 v -3.37842 c 0,-0.0581 0.01991,-0.11144 0.05943,-0.16028 0.03952,-0.0488 0.08695,-0.0735 0.142736,-0.0735 0.05811,0 0.109286,0.021 0.153454,0.0629 0.04417,0.0419 0.06625,0.093 0.06625,0.15346 0,0.0581 -0.0091,0.13729 -0.02777,0.23724 -0.01394,0.086 -0.02095,0.16144 -0.02095,0.22653 0,0.15341 0.03609,0.28112 0.108149,0.38339 0.07438,0.10228 0.179993,0.15346 0.317138,0.15346 0.132496,0 0.231105,-0.0534 0.29619,-0.16028 0.06508,-0.10692 0.09792,-0.23728 0.09792,-0.3907 0,-0.2952 -0.0991,-0.55434 -0.296677,-0.7775 -0.195258,-0.22547 -0.461397,-0.33808 -0.798447,-0.33808 z m 3.218632,0 c -0.102277,0 -0.196544,0.0383 -0.28255,0.11496 -0.08368,0.0767 -0.169861,0.26633 -0.258192,0.56851 -0.03952,0.13946 -0.07295,0.23697 -0.100841,0.29278 v -0.71465 c 0,-0.093 -0.0086,-0.15115 -0.02485,-0.1744 -0.01627,-0.0255 -0.04645,-0.0385 -0.09061,-0.0385 h -0.941184 c -0.05812,0 -0.100119,0.0103 -0.125685,0.0312 -0.02325,0.0209 -0.03459,0.0736 -0.03459,0.15734 0,0.0999 0.0043,0.1603 0.01364,0.18123 0.0093,0.0186 0.0443,0.045 0.104739,0.0798 0.05579,0.0349 0.08379,0.0919 0.08379,0.17098 v 3.51142 c 0,0.0814 -0.03983,0.14169 -0.118866,0.18122 -0.03952,0.0209 -0.05895,0.064 -0.05895,0.1291 v 0.19145 c 0,0.086 0.04526,0.12909 0.135916,0.12909 h 1.314343 c 0.06044,0 0.09653,-0.007 0.108149,-0.0209 0.01394,-0.0162 0.02095,-0.0523 0.02095,-0.10815 v -0.15687 c 0,-0.0883 -0.04043,-0.1524 -0.121789,-0.19194 -0.08136,-0.0419 -0.122276,-0.10653 -0.122276,-0.19486 v -2.78604 c 0,-0.23011 0.05226,-0.34539 0.156864,-0.34539 0.04184,0 0.08276,0.0409 0.122276,0.12227 0.06508,0.1418 0.157779,0.2124 0.278652,0.2124 0.241747,0 0.362931,-0.21496 0.362931,-0.64499 0,-0.19991 -0.03609,-0.36587 -0.108148,-0.49836 -0.06973,-0.1325 -0.174259,-0.19875 -0.313728,-0.19875 z m 4.633817,0 c -0.155741,0 -0.290925,0.0323 -0.404825,0.0974 -0.1139,0.065 -0.239427,0.1631 -0.376571,0.29327 V 122.572 c 0,-0.0674 -0.0081,-0.10941 -0.02436,-0.12569 -0.01394,-0.0163 -0.05437,-0.0243 -0.121788,-0.0243 h -1.06346 c -0.05579,0 -0.09079,0.006 -0.104738,0.0175 -0.01162,0.0116 -0.01753,0.0487 -0.01753,0.11156 v 0.10814 c 0,0.0512 0.0038,0.0846 0.01072,0.10084 0.0093,0.0163 0.03463,0.0399 0.07648,0.0701 0.06044,0.0442 0.09061,0.10887 0.09061,0.19487 v 4.51203 c 0,0.0511 -0.01943,0.0883 -0.05895,0.11155 -0.07904,0.0465 -0.118866,0.11276 -0.118866,0.19876 v 0.1291 c 0,0.0465 0.04683,0.0697 0.139814,0.0697 h 1.342111 c 0.05114,0 0.0824,-0.006 0.09402,-0.0175 0.01162,-0.009 0.01754,-0.0384 0.01754,-0.0872 v -0.12519 c 0,-0.0837 -0.04309,-0.14077 -0.129096,-0.171 -0.08833,-0.0302 -0.132506,-0.0851 -0.132506,-0.16417 v -0.77749 c 0.199905,0.32077 0.44553,0.4813 0.736091,0.4813 0.241746,0 0.455624,-0.10935 0.641582,-0.32785 0.18596,-0.21851 0.30557,-0.49865 0.359034,-0.84034 0.05346,-0.34171 0.07989,-0.77755 0.07989,-1.30753 0,-0.81589 -0.08352,-1.40852 -0.250885,-1.77812 -0.165038,-0.37191 -0.426348,-0.55779 -0.784319,-0.55779 z m 6.71202,0 c -0.457924,0 -0.827989,0.20686 -1.109252,0.62063 -0.278938,0.41376 -0.417978,1.02414 -0.417978,1.83073 0,0.56485 0.06035,1.00985 0.181221,1.33529 0.123198,0.32542 0.297242,0.58565 0.522717,0.78091 0.225476,0.19525 0.491616,0.29278 0.798448,0.29278 0.443976,0 0.815127,-0.21279 1.112661,-0.63818 0.297534,-0.42769 0.446234,-1.0575 0.446234,-1.88966 0,-0.77174 -0.146529,-1.35254 -0.439414,-1.74305 -0.292884,-0.39284 -0.657633,-0.58945 -1.094637,-0.58945 z m 4.162739,0 c -0.355647,0 -0.67139,0.17453 -0.948003,0.5232 v -0.36634 c 0,-0.0442 -0.0059,-0.0733 -0.01753,-0.0872 -0.01162,-0.014 -0.0418,-0.0209 -0.09061,-0.0209 h -1.13702 c -0.06508,0 -0.09743,0.0361 -0.09743,0.10816 v 0.18463 c 0,0.0534 0.02209,0.0906 0.06625,0.11156 0.07904,0.0372 0.118379,0.0965 0.118379,0.17781 v 3.41008 c 0,0.11854 -0.0081,0.19555 -0.02436,0.23043 -0.01627,0.0349 -0.05236,0.072 -0.108149,0.11156 -0.04185,0.0279 -0.06236,0.0753 -0.06236,0.14273 v 0.1291 c 0,0.0698 0.0081,0.1139 0.02436,0.1325 0.01627,0.0163 0.05454,0.0243 0.114969,0.0243 h 1.23786 c 0.1139,0 0.170504,-0.0393 0.170504,-0.11837 v -0.17781 c 0,-0.0744 -0.02426,-0.12555 -0.07307,-0.15346 -0.08136,-0.0465 -0.121788,-0.11167 -0.121788,-0.19535 v -3.25322 c 0.113899,-0.10227 0.219509,-0.15345 0.317137,-0.15345 0.148767,0 0.223117,0.091 0.223117,0.27231 v 3.31558 c 0,0.19061 0.06952,0.34523 0.208989,0.46377 h 0.980156 c 0.05579,0 0.09188,-0.0103 0.108149,-0.0312 0.0186,-0.0209 0.02777,-0.085 0.02777,-0.19194 0,-0.13482 -0.02691,-0.21833 -0.08038,-0.25088 -0.05812,-0.0395 -0.0872,-0.0966 -0.0872,-0.171 v -3.34042 c 0,-0.2371 -0.0636,-0.43323 -0.191452,-0.58897 -0.127846,-0.15806 -0.314208,-0.23724 -0.558279,-0.23724 z m 2.018769,0 c -0.225475,0 -0.416778,0.0905 -0.574843,0.27182 -0.158064,0.18132 -0.237244,0.45663 -0.237244,0.82623 0,0.27196 0.05226,0.54292 0.156864,0.81257 0.106927,0.26963 0.278799,0.60421 0.515898,1.00402 0.225474,0.37657 0.376832,0.64754 0.45354,0.81257 0.07904,0.16504 0.118379,0.30349 0.118379,0.41507 0,0.12552 -0.05226,0.18804 -0.156864,0.18804 -0.162714,0 -0.334587,-0.18914 -0.515897,-0.56803 -0.04881,-0.0999 -0.08974,-0.16029 -0.122275,-0.18122 -0.03022,-0.0209 -0.08574,-0.0317 -0.167095,-0.0317 -0.15574,0 -0.233834,0.0323 -0.233834,0.0974 0,0.0116 0.0038,0.0407 0.01072,0.0872 l 0.173914,0.97285 c 0.0093,0.0581 0.02595,0.099 0.0492,0.12227 0.02325,0.0233 0.07443,0.0346 0.153454,0.0346 0.102276,0 0.162625,-0.009 0.181222,-0.0277 0.01859,-0.0162 0.0326,-0.0556 0.04189,-0.11838 0.0046,-0.0535 0.02299,-0.0804 0.05553,-0.0804 0.0279,0 0.08233,0.0269 0.163685,0.0804 0.148766,0.0976 0.290953,0.14614 0.425773,0.14614 0.213853,0 0.399727,-0.10077 0.557792,-0.303 0.158066,-0.20456 0.237245,-0.48953 0.237245,-0.85447 0,-0.34403 -0.05274,-0.65325 -0.157351,-0.92755 -0.104602,-0.27429 -0.302906,-0.65195 -0.595791,-1.13312 -0.339374,-0.55322 -0.509077,-0.88889 -0.509077,-1.00743 0,-0.0441 0.01244,-0.0824 0.038,-0.11498 0.02789,-0.0325 0.05964,-0.0492 0.09451,-0.0492 0.09065,0 0.192521,0.0733 0.306421,0.21971 0.113898,0.14644 0.198993,0.27305 0.254782,0.37998 0.04881,0.0907 0.0919,0.14665 0.129096,0.16758 0.03952,0.0209 0.10095,0.0312 0.184632,0.0312 0.125522,0 0.188529,-0.0323 0.188529,-0.0974 0,-0.0233 -0.0026,-0.0502 -0.0074,-0.0804 l -0.191452,-0.96554 c -0.01394,-0.0604 -0.03061,-0.0965 -0.0492,-0.10815 -0.01627,-0.014 -0.05344,-0.0209 -0.111559,-0.0209 -0.09066,0 -0.14992,0.006 -0.177811,0.0175 -0.0279,0.0116 -0.04624,0.0429 -0.05554,0.094 -0.007,0.0488 -0.02906,0.0731 -0.06625,0.0731 -0.02789,0 -0.08016,-0.021 -0.156865,-0.0629 -0.15109,-0.0814 -0.286276,-0.12179 -0.404825,-0.12179 z m -16.736205,0.0487 c -0.09298,0 -0.139327,0.0383 -0.139327,0.11498 v 0.23042 c 0,0.0558 0.021,0.0892 0.06284,0.10084 0.09995,0.0279 0.150044,0.10925 0.150044,0.24407 v 3.47633 c 0,0.0674 -0.03717,0.11375 -0.111559,0.13933 -0.06044,0.0209 -0.0911,0.0942 -0.0911,0.21971 0,0.10459 0.0048,0.16976 0.01413,0.19535 0.0093,0.0235 0.0303,0.0375 0.06284,0.0419 h 1.35283 c 0.06276,0 0.09994,-0.0129 0.111558,-0.0385 0.01162,-0.0255 0.01753,-0.10209 0.01753,-0.22994 0,-0.11156 -0.04201,-0.18374 -0.125686,-0.2163 -0.03487,-0.014 -0.05586,-0.029 -0.06284,-0.0453 -0.007,-0.0162 -0.01023,-0.0523 -0.01023,-0.10815 v -4.00977 c 0,-0.0767 -0.03983,-0.11497 -0.118865,-0.11497 z m 7.29076,0 c -0.09298,0 -0.139327,0.0383 -0.139327,0.11498 v 0.23042 c 0,0.0558 0.021,0.0892 0.06284,0.10084 0.09995,0.0279 0.150043,0.10925 0.150043,0.24407 v 3.47633 c 0,0.0674 -0.03717,0.11375 -0.111559,0.13933 -0.06044,0.0209 -0.09109,0.0942 -0.09109,0.21971 0,0.10459 0.0048,0.16976 0.01413,0.19535 0.0093,0.0235 0.0303,0.0375 0.06284,0.0419 h 1.352829 c 0.06276,0 0.09994,-0.0129 0.111559,-0.0385 0.01162,-0.0255 0.01753,-0.10209 0.01753,-0.22994 0,-0.11156 -0.04201,-0.18374 -0.125686,-0.2163 -0.03487,-0.014 -0.05586,-0.029 -0.06284,-0.0453 -0.007,-0.0162 -0.01023,-0.0523 -0.01023,-0.10815 v -4.00977 c 0,-0.0767 -0.03983,-0.11497 -0.118865,-0.11497 z m -34.257219,0.39412 c 0.15574,0 0.233835,0.10934 0.233835,0.32785 v 1.15407 h -0.470592 v -1.15407 c 0,-0.21851 0.0787,-0.32785 0.236757,-0.32785 z m 17.510782,0 c 0.155741,0 0.233348,0.10934 0.233348,0.32785 v 1.15407 h -0.470592 v -1.15407 c 0,-0.21851 0.07918,-0.32785 0.237244,-0.32785 z m 20.010374,0 c 0.167363,0 0.250885,0.14387 0.250885,0.43211 v 2.99551 c 0,0.35099 -0.09209,0.52613 -0.275729,0.52613 -0.165038,0 -0.247476,-0.17514 -0.247476,-0.52613 v -2.8976 c 0,-0.35332 0.09101,-0.53002 0.27232,-0.53002 z m -34.30642,0.0277 c 0.167362,0 0.251371,0.15136 0.251371,0.45354 v 1.70114 c 0,0.10693 -0.02583,0.19528 -0.07697,0.26501 -0.04881,0.0674 -0.11242,0.10134 -0.191452,0.10134 -0.07439,0 -0.136306,-0.0312 -0.185119,-0.094 -0.04648,-0.065 -0.06967,-0.14535 -0.06967,-0.24065 v -1.73281 c 0,-0.10925 0.02426,-0.21161 0.07307,-0.30691 0.04881,-0.0976 0.115077,-0.14664 0.198759,-0.14664 z m 27.071196,0.15004 c 0.06973,0 0.133825,0.0361 0.191939,0.10815 0.05812,0.0698 0.0872,0.17643 0.0872,0.32055 v 2.7685 c 0,0.22083 -0.07109,0.33126 -0.212887,0.33126 -0.086,0 -0.161441,-0.0345 -0.226527,-0.10425 -0.06508,-0.0697 -0.09792,-0.13597 -0.09792,-0.19876 v -2.92926 c 0,-0.0767 0.03017,-0.14512 0.09061,-0.20558 0.06044,-0.0604 0.116442,-0.0906 0.167581,-0.0906 z m -23.409741,1.26563 v 1.78542 c 0,0.29754 -0.08943,0.44624 -0.268422,0.44624 -0.102274,0 -0.174454,-0.049 -0.216297,-0.14664 -0.04185,-0.1 -0.06284,-0.33701 -0.06284,-0.71124 0,-0.50907 0.02535,-0.83555 0.07648,-0.97967 0.05114,-0.14644 0.208413,-0.27788 0.471078,-0.39411 z m -4.274784,2.90783 v 4.8e-4 c 0.07206,0.005 0.146409,0.007 0.223117,0.007 h 0.965541 c 0.197582,0 0.296678,0.0577 0.296678,0.17391 0,0.20456 -0.293057,0.30691 -0.878828,0.30691 -0.339375,0 -0.56351,-0.0221 -0.672761,-0.0663 -0.106926,-0.0442 -0.160274,-0.11042 -0.160274,-0.19875 0,-0.0883 0.07543,-0.16266 0.226527,-0.22311 z"
       inkscape:label="LegalDescriptionsPath" />
  </g>
</svg>
