<?xml version="1.0" encoding="UTF-8" standalone="no"?>
<!-- Created with Inkscape (http://www.inkscape.org/) -->

<svg
   width="23.791412mm"
   height="33.866653mm"
   viewBox="0 0 23.791412 33.866653"
   version="1.1"
   id="svg2015"
   xmlns:inkscape="http://www.inkscape.org/namespaces/inkscape"
   xmlns:sodipodi="http://sodipodi.sourceforge.net/DTD/sodipodi-0.dtd"
   xmlns="http://www.w3.org/2000/svg"
   xmlns:svg="http://www.w3.org/2000/svg">
  <sodipodi:namedview
     id="namedview2017"
     pagecolor="#505050"
     bordercolor="#ffffff"
     borderopacity="1"
     inkscape:showpageshadow="0"
     inkscape:pageopacity="0"
     inkscape:pagecheckerboard="1"
     inkscape:deskcolor="#505050"
     inkscape:document-units="mm"
     showgrid="false" />
  <defs
     id="defs2012" />
  <g
     inkscape:label="Layer 1"
     inkscape:groupmode="layer"
     id="layer1"
     transform="translate(-100.80759,-106.05111)">
    <path
       style="fill:#0d6efd;fill-opacity:1;stroke-width:0.0587155"
       d="m 112.28649,139.86761 c -0.29635,-0.0588 -0.7788,-0.14665 -1.23303,-0.22466 -0.19376,-0.0333 -0.50422,-0.0883 -0.68991,-0.12216 -0.18569,-0.0339 -0.48293,-0.0881 -0.66055,-0.12036 -0.65196,-0.11854 -0.9749,-0.17764 -2.73027,-0.49963 -0.98496,-0.18067 -1.94936,-0.3558 -2.14312,-0.38918 -0.19376,-0.0334 -0.47119,-0.0826 -0.61652,-0.10936 -0.14532,-0.0268 -0.42275,-0.076 -0.61651,-0.10947 -0.19376,-0.0334 -0.50422,-0.0885 -0.68991,-0.12245 -0.18569,-0.0339 -0.48293,-0.0881 -0.66055,-0.12037 -0.17761,-0.0323 -0.47486,-0.0867 -0.66055,-0.12088 -0.18569,-0.0342 -0.4367,-0.0773 -0.5578,-0.0958 -0.1211,-0.0185 -0.22018,-0.0508 -0.22018,-0.0719 0,-0.021 0.19156,-0.0715 0.42569,-0.11222 0.23413,-0.0407 0.54458,-0.0973 0.68991,-0.12573 0.14532,-0.0285 0.43596,-0.0825 0.64587,-0.12004 0.55301,-0.0989 0.99036,-0.17878 1.29174,-0.23582 0.14532,-0.0275 0.44918,-0.0801 0.67523,-0.11688 0.22606,-0.0368 0.50349,-0.0902 0.61651,-0.11881 0.61172,-0.15466 0.80325,-0.14417 2.17248,0.11896 0.14532,0.0279 0.43596,0.0812 0.64587,0.11837 0.20991,0.0372 0.50055,0.09 0.64587,0.11743 0.14533,0.0274 0.43597,0.0795 0.64587,0.11568 0.65593,0.11318 1.46395,0.2625 1.90826,0.35266 0.12917,0.0262 0.52757,0.0949 0.88531,0.15258 0.69795,0.11259 0.6898,0.11329 2.49084,-0.21525 0.14532,-0.0265 0.41614,-0.0758 0.60183,-0.1095 0.18569,-0.0337 0.48294,-0.0877 0.66055,-0.12002 0.17762,-0.0323 0.46826,-0.0851 0.64587,-0.11743 0.17762,-0.0323 0.46826,-0.0851 0.64587,-0.11743 2.14378,-0.38978 2.35165,-0.41994 2.63859,-0.38282 0.15948,0.0206 0.55582,0.0887 0.88074,0.15125 0.32492,0.0626 0.7493,0.14225 0.94306,0.1771 0.19376,0.0349 0.47119,0.0862 0.61651,0.1141 0.14533,0.0279 0.44918,0.0808 0.67523,0.1176 0.22606,0.0368 0.50349,0.0883 0.61652,0.1146 0.11303,0.0263 0.41027,0.0823 0.66055,0.1245 0.25027,0.0422 0.45504,0.0922 0.45504,0.11105 0,0.0189 -0.19155,0.0676 -0.42568,0.10827 -0.23413,0.0407 -0.54459,0.0973 -0.68991,0.12573 -0.14532,0.0285 -0.43596,0.0822 -0.64587,0.11935 -0.20991,0.0372 -0.50055,0.09 -0.64588,0.11743 -0.14532,0.0274 -0.43596,0.0795 -0.64587,0.11568 -0.20991,0.0362 -0.51376,0.0917 -0.67523,0.12339 -0.23699,0.0464 -2.20795,0.40313 -3.8899,0.70396 -0.16954,0.0303 -0.45358,0.0816 -0.6312,0.11385 -0.17761,0.0323 -0.46825,0.0851 -0.64587,0.11743 -0.17761,0.0323 -0.47486,0.0865 -0.66055,0.12037 -0.18569,0.0339 -0.49615,0.0889 -0.68991,0.12215 -0.48316,0.083 -0.87505,0.15084 -1.29174,0.22367 -0.38913,0.068 -0.42501,0.0681 -0.7633,0.001 z m -0.17615,-3.76324 c -0.16147,-0.0295 -0.57101,-0.1056 -0.91009,-0.16921 -0.33908,-0.0636 -0.77505,-0.14344 -0.96881,-0.17742 -0.37477,-0.0657 -0.75842,-0.13504 -1.30642,-0.23606 -0.43024,-0.0793 -0.83194,-0.15114 -1.27706,-0.22835 -0.19377,-0.0336 -0.62973,-0.11425 -0.96881,-0.17919 -0.53117,-0.10173 -3.48605,-0.62945 -4.63853,-0.8284 -0.20991,-0.0362 -0.45826,-0.0892 -0.55188,-0.1178 -0.0936,-0.0285 -0.27418,-0.0519 -0.40123,-0.0519 -0.15774,0 -0.22329,-0.0231 -0.20671,-0.0728 0.0218,-0.0653 0.34901,-0.13426 2.15799,-0.45506 0.35667,-0.0633 0.64596,-0.11614 1.29174,-0.23614 0.14532,-0.027 0.43596,-0.0795 0.64587,-0.1167 0.2099,-0.0372 0.50556,-0.0943 0.657,-0.12688 0.19329,-0.0416 0.37703,-0.0393 0.61651,0.008 0.60979,0.12 1.37558,0.26214 1.89713,0.35213 0.20991,0.0362 0.51376,0.0917 0.67523,0.12338 1.57439,0.30854 3.63901,0.66037 3.87523,0.66037 0.2387,0 1.66618,-0.24231 3.87522,-0.65782 0.16147,-0.0304 0.46533,-0.0859 0.67523,-0.1235 0.20991,-0.0375 0.50056,-0.0907 0.64588,-0.11811 0.14532,-0.0274 0.43596,-0.0803 0.64587,-0.11743 0.20991,-0.0372 0.50715,-0.0947 0.66055,-0.12773 0.18875,-0.0407 0.36904,-0.041 0.5578,-8.9e-4 0.41667,0.0886 0.90235,0.18087 1.10091,0.2092 0.0969,0.0138 0.32808,0.0542 0.51376,0.0897 0.54429,0.10406 0.98838,0.18383 1.36514,0.24522 1.05925,0.17258 1.75423,0.32589 1.77618,0.39181 0.0168,0.0504 -0.0479,0.0734 -0.20656,0.0734 -0.12705,0 -0.3076,0.0234 -0.40122,0.0519 -0.0936,0.0285 -0.35519,0.0833 -0.58124,0.12163 -0.22606,0.0384 -0.54312,0.095 -0.70459,0.1259 -0.16147,0.0309 -1.11266,0.20015 -2.11376,0.37614 -1.0011,0.17598 -1.9655,0.34856 -2.14312,0.38351 -0.31182,0.0614 -0.60895,0.11633 -1.29174,0.23899 -0.17762,0.0319 -0.44184,0.081 -0.58716,0.10911 -0.14532,0.0281 -0.43596,0.0809 -0.64587,0.1173 -0.20991,0.0364 -0.51376,0.0918 -0.67523,0.12298 -2.04833,0.39611 -2.48391,0.44474 -3.05321,0.34087 z m 0.2055,-3.69485 c -0.14532,-0.0268 -0.40954,-0.0751 -0.58715,-0.10748 -0.17761,-0.0324 -0.61358,-0.11357 -0.96881,-0.18049 -0.35523,-0.0669 -0.93651,-0.17294 -1.29174,-0.2356 -0.35523,-0.0627 -0.88367,-0.15767 -1.17431,-0.21115 -0.58587,-0.10782 -0.88589,-0.16141 -1.40918,-0.25173 -0.19376,-0.0334 -0.50422,-0.0885 -0.68991,-0.12246 -0.18568,-0.0339 -0.48293,-0.0881 -0.66054,-0.12036 -0.17762,-0.0323 -0.46826,-0.0851 -0.64588,-0.11744 -0.17761,-0.0323 -0.46165,-0.0839 -0.63119,-0.1147 -1.55156,-0.28185 -3.22327,-0.59057 -3.39082,-0.6262 -0.19687,-0.0419 0.36892,-0.1532 4.57981,-0.90112 0.20991,-0.0373 0.50055,-0.0906 0.64587,-0.11853 0.14532,-0.0279 0.43597,-0.0812 0.64588,-0.11834 0.2099,-0.0372 0.50054,-0.09 0.64587,-0.11743 0.14532,-0.0274 0.43596,-0.0806 0.64587,-0.11812 0.77219,-0.13814 1.03275,-0.18596 1.26238,-0.23166 0.12918,-0.0257 0.66422,-0.12251 1.18899,-0.21511 0.74075,-0.13071 0.95413,-0.18832 0.95413,-0.25762 0,-0.0491 -0.26755,-0.55126 -0.59456,-1.11594 -0.327,-0.56468 -0.64407,-1.11256 -0.70459,-1.21752 -0.0605,-0.10495 -0.15954,-0.27669 -0.22006,-0.38165 -0.0605,-0.10495 -0.26168,-0.45505 -0.44702,-0.77798 -0.18534,-0.32294 -0.38683,-0.67303 -0.44776,-0.77798 -0.0609,-0.10496 -0.16063,-0.2767 -0.22155,-0.38165 -0.0609,-0.10496 -0.30773,-0.53431 -0.54845,-0.95413 -0.55278,-0.96405 -2.12735,-3.6811 -2.31381,-3.99266 -0.25691,-0.42927 -0.83223,-1.63897 -0.94944,-1.99634 -0.2852,-0.86953 -0.37215,-1.45253 -0.37215,-2.49518 0,-0.9118 0.032,-1.19797 0.22304,-1.99533 0.33769,-1.40937 1.1092,-2.75204 2.19372,-3.81774 1.55763,-1.53062 3.42193,-2.28578 5.65031,-2.28875 1.38282,-0.002 2.47106,0.24413 3.63705,0.82208 2.31494,1.14748 3.84316,3.21876 4.39619,5.95841 0.092,0.45573 0.0932,2.20016 0.002,2.61555 -0.13712,0.62342 -0.19653,0.85261 -0.31132,1.20096 -0.12265,0.37226 -0.69659,1.58015 -0.9625,2.02569 -0.2149,0.36006 -0.29336,0.49532 -0.81741,1.40918 -0.25001,0.43596 -0.50065,0.87192 -0.55698,0.96881 -1.14809,1.97457 -1.64928,2.84176 -1.85962,3.21768 -0.14096,0.25192 -0.37092,0.64825 -0.51102,0.88073 -0.14009,0.23248 -0.32119,0.54159 -0.40245,0.68691 -0.0812,0.14532 -0.33863,0.59449 -0.57194,0.99816 -0.65177,1.12767 -0.76479,1.3378 -0.76479,1.42191 0,0.0538 0.23956,0.11959 0.77798,0.21352 0.42789,0.0746 0.97615,0.17329 1.21835,0.21921 0.24221,0.0459 0.5989,0.11179 0.79266,0.14639 0.19376,0.0346 0.4712,0.0853 0.61652,0.11273 0.14532,0.0274 0.43596,0.0803 0.64587,0.11744 0.20991,0.0372 0.50055,0.09 0.64587,0.11743 0.14532,0.0274 0.43596,0.0795 0.64587,0.11568 0.20991,0.0362 0.51376,0.0915 0.67523,0.12293 0.47153,0.0917 3.77291,0.68365 4.27829,0.76714 0.5986,0.0989 0.70894,0.0695 -2.19388,0.58363 -0.37138,0.0658 -0.8734,0.15794 -1.1156,0.20481 -0.2422,0.0469 -0.5989,0.11352 -0.79266,0.14812 -0.19376,0.0346 -0.47119,0.0853 -0.61652,0.11273 -0.14532,0.0274 -0.43596,0.0795 -0.64587,0.11568 -0.43343,0.0748 -0.89243,0.15879 -1.3211,0.24178 -0.16147,0.0313 -1.03339,0.18953 -1.93761,0.3517 -0.90422,0.16217 -1.78276,0.31996 -1.9523,0.35065 -0.69438,0.12567 -0.98653,0.1722 -1.0422,0.16597 -0.0323,-0.004 -0.17761,-0.0285 -0.32293,-0.0552 z m 1.53478,-13.20467 c 0.63771,-0.16073 1.12376,-0.37718 1.67397,-0.74548 1.07,-0.71625 1.86061,-1.88398 2.14061,-3.16169 0.12227,-0.55796 0.0956,-1.67038 -0.054,-2.24919 -0.50219,-1.94351 -2.12121,-3.43386 -4.09791,-3.77224 -0.52362,-0.0896 -1.56275,-0.0433 -2.07819,0.0928 -1.63296,0.43092 -3.03243,1.74081 -3.54257,3.31581 -0.25137,0.77608 -0.32246,1.90833 -0.16222,2.58349 0.47748,2.01185 1.84464,3.43095 3.79035,3.93433 0.589,0.15238 1.72979,0.15346 2.32995,0.002 z"
       id="path475"
       inkscape:export-filename="marker.svg"
       inkscape:export-xdpi="23.692375"
       inkscape:export-ydpi="23.692375" />
  </g>
</svg>
