<?xml version="1.0" encoding="UTF-8" standalone="no"?>
<svg
   viewBox="0 0 599.99996 320.48963"
   version="1.1"
   id="svg25896"
   sodipodi:docname="raster-interval-data.svg"
   inkscape:version="1.2.2 (732a01da63, 2022-12-09)"
   width="599.99994"
   height="320.48962"
   xmlns:inkscape="http://www.inkscape.org/namespaces/inkscape"
   xmlns:sodipodi="http://sodipodi.sourceforge.net/DTD/sodipodi-0.dtd"
   xmlns="http://www.w3.org/2000/svg"
   xmlns:svg="http://www.w3.org/2000/svg">
  <sodipodi:namedview
     id="namedview25898"
     pagecolor="#505050"
     bordercolor="#ffffff"
     borderopacity="1"
     inkscape:showpageshadow="0"
     inkscape:pageopacity="0"
     inkscape:pagecheckerboard="1"
     inkscape:deskcolor="#505050"
     showgrid="false"
     inkscape:zoom="1.4201061"
     inkscape:cx="305.25888"
     inkscape:cy="188.71829"
     inkscape:window-width="1920"
     inkscape:window-height="1009"
     inkscape:window-x="-8"
     inkscape:window-y="-8"
     inkscape:window-maximized="1"
     inkscape:current-layer="svg25896" />
  <defs
     id="defs25640">
    <style
       id="style25638">.cls-1{fill:#00a900;}.cls-2{fill:#00a800;}.cls-3{fill:#00fd00;}.cls-4{fill:#389add;}.cls-5{fill:#44a900;}.cls-6{fill:#7ffd7f;}.cls-7{fill:#00d200;}.cls-8{fill:#54fc54;}.cls-9{fill:#2afc2a;}.cls-10{fill:#d3fcd3;}.cls-11{fill:#00fe00;}.cls-12{fill:#a9fda9;}.cls-13{fill:#a9fea9;}.cls-14{fill:none;stroke:#fff;stroke-miterlimit:10;stroke-width:0.5px;}</style>
  </defs>
  <rect
     style="fill:#ffffff;fill-rule:evenodd;stroke-width:0.402"
     id="rect26149"
     width="318.28607"
     height="317.58191"
     x="280.07346"
     y="1.1235181"
     ry="0"
     inkscape:export-filename="..\..\Inkscape-Exports-Temporary\raster-interval.svg"
     inkscape:export-xdpi="96"
     inkscape:export-ydpi="96" />
  <g
     id="Layer_2"
     data-name="Layer 2"
     transform="scale(0.43949606)">
    <g
       id="g26194"
       inkscape:label="GroupNumbers"
       style="fill:#ffffff">
      <path
         class="cls-4"
         d="m 220.7,49.78 c 0,12.77 -9.17,22.34 -21.23,22.29 -11.87,-0.06 -21,-9.88 -20.94,-22.63 0,-12.59 9.38,-22.41 21.28,-22.34 11.9,0.07 20.94,9.95 20.89,22.68 z m -21.2,9.14 c 4.21,0.06 7.95,-4.15 8.08,-9.08 0.13,-5.28 -3.51,-9.53 -8.11,-9.46 -4.4,0.07 -7.81,4.11 -7.81,9.25 0,5.14 3.57,9.23 7.84,9.29 z"
         id="path25656"
         style="fill:#ffffff" />
      <path
         class="cls-4"
         d="m 256.73,307.35 c 0.06,12.81 -9,22.62 -20.85,22.68 -11.85,0.06 -21.25,-9.64 -21.32,-22.26 -0.07,-12.62 9.05,-22.59 20.9,-22.71 11.85,-0.12 21.21,9.64 21.27,22.29 z m -13.16,0.34 c 0.08,-5.05 -3.3,-9.21 -7.67,-9.43 -4.37,-0.22 -8.05,3.86 -8.22,8.9 -0.17,5.04 3.53,9.73 7.93,9.73 4.25,-0.01 7.89,-4.21 7.96,-9.2 z"
         id="path25658"
         style="fill:#ffffff" />
      <path
         class="cls-4"
         d="m 224.47,49.51 c 0,-12.63 9.33,-22.5 21.17,-22.41 11.84,0.09 21,9.91 21,22.61 0,12.7 -9.19,22.4 -21.19,22.36 -12,-0.04 -20.98,-9.75 -20.98,-22.56 z m 13.13,-0.3 c -0.15,5 3.2,9.44 7.39,9.71 4.41,0.29 8.43,-4 8.54,-9.18 0.11,-4.94 -3.43,-9.25 -7.73,-9.42 -4.3,-0.17 -8.06,3.83 -8.2,8.89 z"
         id="path25660"
         style="fill:#ffffff" />
      <path
         class="cls-4"
         d="m 229.64,717 c -11.67,-0.14 -21.08,-10.38 -20.94,-22.81 0.14,-12.43 9.62,-22.26 21.53,-22.17 11.65,0.08 21.3,10.55 21,22.77 -0.31,12.56 -9.81,22.34 -21.59,22.21 z m 8.14,-22.46 c 0.06,-5.24 -3.17,-9.17 -7.68,-9.34 -4.3,-0.16 -8,3.92 -8.16,9 -0.16,5.08 3.65,9.71 8,9.68 4.27,-0.05 7.78,-4.24 7.84,-9.34 z"
         id="path25662"
         style="fill:#ffffff" />
      <path
         class="cls-4"
         d="m 200.41,178.39 c 0.05,-12.67 9.3,-22.39 21.25,-22.32 11.95,0.07 21,10.06 20.94,22.7 -0.06,12.64 -9.32,22.31 -21.31,22.28 -11.99,-0.03 -20.92,-9.85 -20.88,-22.66 z m 13.15,0.1 c 0,5.14 3.36,9.32 7.64,9.42 4.43,0.1 8.34,-4.37 8.28,-9.47 -0.06,-5.1 -3.76,-9.2 -8,-9.18 -4.24,0.02 -7.88,4.11 -7.92,9.23 z"
         id="path25664"
         style="fill:#ffffff" />
      <path
         class="cls-4"
         d="m 212.36,436.4 c 0,-12.71 9.26,-22.45 21.19,-22.34 11.93,0.11 21.09,10 21,22.6 -0.09,12.6 -9.41,22.39 -21.29,22.36 -11.88,-0.03 -20.93,-9.82 -20.9,-22.62 z m 21.1,-9.17 c -4.44,0 -7.88,3.93 -7.93,9.13 -0.05,5.2 3.27,9.35 7.55,9.51 4.28,0.16 8.38,-4.34 8.36,-9.41 -0.02,-5.07 -3.71,-9.21 -7.98,-9.23 z"
         id="path25666"
         style="fill:#ffffff" />
      <path
         class="cls-4"
         d="m 357.05,72.06 c -11.71,-0.1 -21.16,-10.28 -21,-22.67 0.16,-12.39 9.64,-22.39 21.42,-22.28 11.78,0.11 21.13,10.27 21,22.72 -0.13,12.45 -9.54,22.34 -21.42,22.23 z m -7.62,-22.53 c 0,5.32 3.18,9.27 7.58,9.4 4.4,0.13 8.42,-4.48 8.29,-9.47 -0.13,-4.99 -3.8,-9.18 -8.09,-9.16 -4.29,0.02 -7.77,4.01 -7.78,9.23 z"
         id="path25668"
         style="fill:#ffffff" />
      <path
         class="cls-4"
         d="m 235,588 c -11.74,0 -21.28,-10 -21.32,-22.43 -0.04,-12.43 9.37,-22.48 21.2,-22.54 11.83,-0.06 21.33,10 21.35,22.43 C 256.25,577.89 246.74,588 235,588 Z m 7.75,-22.51 c 0,-5.26 -3.26,-9.19 -7.73,-9.28 -4.47,-0.09 -7.95,4 -8.08,9.08 -0.13,5.08 3.68,9.68 8.11,9.58 4.43,-0.1 7.72,-4.21 7.74,-9.38 z"
         id="path25670"
         style="fill:#ffffff" />
      <path
         class="cls-4"
         d="m 384.45,313.86 c -1,0.15 -2,0.27 -2.95,0.46 -8.14,1.55 -15,-2.16 -17,-9.22 -2.34,-8.16 1.63,-16.17 9.41,-19 9,-3.28 18.74,-0.91 23.56,5.71 5.62,7.73 5.14,20.4 -1.11,28 a 28,28 0 0 1 -15.85,9.68 c -8.42,1.92 -10.38,0.48 -11.17,-8.72 5.32,-1.7 12.22,0 15.6,-6.41 0,-0.34 0.07,-0.68 0.11,-1 z M 387.77,301 c -0.08,-3.83 -2.6,-6.26 -6.3,-6.08 -3.7,0.18 -5.12,2.48 -5.06,6 0.07,3.87 2.24,6 5.89,5.86 3.32,-0.17 5.55,-2.08 5.47,-5.78 z"
         id="path25672"
         style="fill:#ffffff" />
      <path
         class="cls-4"
         d="m 371,578.63 c 5.65,-1.29 12,-0.28 16.09,-6.69 -1.95,0.19 -3.19,0.26 -4.41,0.45 -8.13,1.26 -14.69,-2.68 -16.58,-10 A 15.32,15.32 0 0 1 376,544 c 9.13,-3.18 18.69,-0.76 23.5,6 5.5,7.67 5.33,20.82 -1.59,27.83 A 40.78,40.78 0 0 1 383,587 c -8.75,3.15 -10.47,1.56 -12,-8.37 z m 7.28,-19.86 c 0.07,3.82 2.17,6 5.85,5.88 3.27,-0.11 5.61,-1.88 5.51,-5.68 -0.1,-3.8 -2.59,-6.27 -6.25,-6.12 -3.81,0.15 -5.13,2.43 -5.09,5.92 z"
         id="path25674"
         style="fill:#ffffff" />
      <path
         class="cls-4"
         d="m 387.59,62.47 c 6,-0.73 12.25,-0.4 16.36,-6.91 a 65.87,65.87 0 0 1 -7.35,1.21 C 389.1,57.1 383.26,52.36 382.1,45.19 A 15.26,15.26 0 0 1 392.5,28 c 10.07,-3.25 19.49,-0.31 24.15,7.53 5.13,8.65 3.38,22.06 -4.65,28.73 a 40.88,40.88 0 0 1 -13.9,7.21 c -7.7,2.38 -10.1,0.07 -10.51,-9 z M 400,36.9 c -4.05,0.14 -5.52,2.32 -5.5,5.86 0,3.84 2,6 5.78,6 3.4,0 5.73,-1.81 5.57,-5.58 C 405.69,39.41 404,36.86 400,36.9 Z"
         id="path25676"
         style="fill:#ffffff" />
      <path
         class="cls-4"
         d="m 340.91,191.68 c 5.36,-1.41 12,-0.11 16,-6.72 -1.7,0.15 -2.81,0.17 -3.89,0.36 -8.38,1.46 -15.53,-2.56 -17.2,-9.71 -1.93,-8.29 2.32,-16 10.23,-18.64 9.45,-3.12 18.78,-0.45 23.61,6.76 5.12,7.63 4.47,21 -2.57,27.75 a 42,42 0 0 1 -15.14,8.84 c -7.89,2.68 -10.44,0.3 -11.04,-8.64 z m 6.83,-20 c 0.3,3.47 1.92,6.08 5.69,6.12 3.51,0 6.17,-1.75 6,-5.67 -0.15,-3.42 -1.75,-6 -5.68,-6.18 -3.93,-0.18 -5.66,1.96 -6.01,5.69 z"
         id="path25678"
         style="fill:#ffffff" />
      <path
         class="cls-4"
         d="m 380.63,443.05 c -1.45,0.13 -2.93,0.16 -4.36,0.4 -7.27,1.22 -14,-2.34 -16.17,-8.62 -2.53,-7.3 0.46,-15.64 7.27,-18.75 7.34,-3.35 15,-3.78 21.83,1.13 7.41,5.32 8.41,13.31 7.08,21.55 -1.88,11.64 -15,21.69 -26.64,20.24 -5.17,-0.64 -4,-5.74 -5.36,-9.39 6.3,-1.25 13,-0.06 16.26,-6.63 a 2.49,2.49 0 0 0 0.32,-0.2 c 0,0 0,-0.16 0,-0.24 z m -2.75,-19.18 c -3.7,-0.29 -6.09,1.72 -6.18,5.38 -0.09,3.66 1.65,6.16 5.37,6.45 3.32,0.25 5.76,-1.41 6.3,-4.93 a 6.14,6.14 0 0 0 -5.49,-6.9 z"
         id="path25680"
         style="fill:#ffffff" />
      <path
         class="cls-4"
         d="m 361.91,707.49 c 6.79,-0.88 12.94,-0.33 16.86,-6.72 a 57.71,57.71 0 0 1 -7.81,0.84 c -6.74,-0.19 -12,-4.32 -13.28,-10.07 -1.58,-7.17 1.15,-13.88 7,-17.24 7,-4 17.95,-3.28 23.5,1.59 6.45,5.66 8.44,16.27 4.75,25.33 -3.77,9.28 -15.1,16.64 -25.05,15.79 -5.64,-0.48 -3.88,-5.8 -5.97,-9.52 z M 369.6,688 c 0.37,3.22 2.1,5.72 5.84,5.7 3.56,0 6.1,-2 5.86,-5.84 -0.21,-3.41 -1.92,-5.93 -5.86,-6 -3.94,-0.07 -5.57,2.14 -5.84,6.14 z"
         id="path25682"
         style="fill:#ffffff" />
      <path
         class="cls-4"
         d="m 200.88,672.24 c -0.45,4 -0.82,7.22 -1.13,9.94 -5.39,2.79 -12.18,-2.79 -16,3.18 l 0.28,1.8 c 2.08,0 4.16,-0.07 6.23,0 8.59,0.35 14.47,5.41 15.14,13 0.73,8.16 -3.78,14.62 -12.49,15.87 -6,0.86 -12.22,0.09 -18.3,-0.39 -1.1,-0.09 -2.69,-2.27 -2.88,-3.64 -0.31,-2.36 0.3,-4.85 0.5,-7.07 4.8,0.46 9,1.33 13.2,1.05 1.87,-0.13 3.59,-2.57 5.38,-4 -1.53,-1.88 -2.71,-4.65 -4.66,-5.4 -2.46,-1 -5.6,-0.58 -8.35,-0.16 -3.16,0.48 -4.32,-0.41 -4.12,-3.59 0.35,-5.65 0.3,-11.34 0.91,-17 0.14,-1.32 2.18,-3.44 3.43,-3.49 7.26,-0.27 14.57,-0.1 22.86,-0.1 z"
         id="path25684"
         style="fill:#ffffff" />
      <path
         class="cls-4"
         d="m 320.76,704.86 c 4.54,0.49 8.59,1.12 12.66,1.3 3,0.13 6.35,-1.13 5.81,-4.52 -0.33,-2 -3.21,-4.62 -5.39,-5.18 -3.39,-0.88 -7.16,-0.23 -11.06,-0.23 0,-7.05 -0.13,-14.14 0.16,-21.21 0,-1 2.15,-2.61 3.36,-2.66 6.64,-0.28 13.3,-0.3 19.94,0 1,0 2.84,2.1 2.85,3.23 0,7.42 -0.36,7.64 -8,7.27 -1.83,-0.09 -3.78,-0.57 -5.44,-0.07 -1.36,0.4 -2.37,2 -4.47,3.9 5.31,0.55 8.81,0.59 12.15,1.35 6.2,1.41 10,6 10.33,11.84 0.45,7.7 -2.32,12.74 -8.61,15.25 -7.44,3 -15.05,2.08 -22.56,0.39 -1.08,-0.24 -2.37,-2.31 -2.47,-3.61 -0.16,-2.41 0.48,-4.91 0.74,-7.05 z"
         id="path25686"
         style="fill:#ffffff" />
      <path
         class="cls-4"
         d="m 325.75,320.17 c 8.44,-0.55 12.54,-6.83 16.93,-12.64 2.08,-2.75 3.67,-5.89 1.21,-9.15 -2.46,-3.26 -6.14,-2.77 -9.56,-1.53 -2.31,0.84 -4.5,2 -7.24,3.23 a 75.51,75.51 0 0 1 -1.43,-8.76 4,4 0 0 1 2.11,-2.88 c 7.15,-3.3 14.59,-4.73 22.27,-2 8.24,2.88 11.4,10.35 7.13,18.05 -2.61,4.7 -6.39,8.74 -9.79,13.27 h 13.56 v 11.41 c -10.65,0 -20.75,0.09 -30.85,-0.11 -1.14,0 -2.75,-1.42 -3.25,-2.57 -0.75,-1.78 -0.71,-3.86 -1.09,-6.32 z"
         id="path25688"
         style="fill:#ffffff" />
      <path
         class="cls-4"
         d="m 357.48,545.07 v 23.47 l 4.8,0.91 v 9.72 l -4.81,1.16 v 6.44 h -14.58 c 0.22,-2.28 0.41,-4.23 0.68,-7 -3.93,0 -7.66,0.16 -11.37,-0.06 -2.19,-0.13 -6,-0.51 -6.21,-1.36 -0.62,-3.09 -1.13,-7.12 0.36,-9.55 5.28,-8.62 11.35,-16.77 17.29,-25 a 4.49,4.49 0 0 1 3.7,-1.4 c 3.4,0.6 6.71,1.74 10.14,2.67 z m -13.11,11.74 c -3.33,4.92 -6.23,9.2 -9.58,14.13 l 9.58,-0.69 z"
         id="path25690"
         style="fill:#ffffff" />
      <path
         class="cls-4"
         d="m 179,446.6 c 4.19,0.58 7.79,1.58 11.31,1.36 1.74,-0.1 3.34,-2.44 5,-3.77 -1.59,-1.35 -3,-3.49 -4.79,-3.88 -3,-0.64 -6.2,-0.17 -9.87,-0.17 0,-2.19 0,-3.8 0,-5.4 0,-2.8 1.24,-4 4.06,-3.37 1.13,0.25 2.49,0.77 3.41,0.39 a 26.42,26.42 0 0 0 4.48,-3 c -1.22,-1.5 -2.27,-4 -3.69,-4.27 -3.14,-0.49 -6.46,0.18 -9.69,0.38 -1.89,-8.88 -1.91,-9.14 6.68,-10.27 a 35.15,35.15 0 0 1 11.8,0.4 c 10.39,2.23 13.86,12.43 5.07,20.35 4.81,3.27 8,7.36 6.28,13.58 -1.52,5.58 -6.78,9.6 -14.1,9.87 -4.6,0.17 -9.24,-0.61 -13.84,-1.16 -4,-0.47 -5.62,-2.34 -3.54,-6.37 A 27.41,27.41 0 0 0 179,446.6 Z"
         id="path25692"
         style="fill:#ffffff" />
      <path
         class="cls-4"
         d="m 205.38,545 v 23.81 l 4.88,0.42 v 10.13 l -4.59,0.8 c -0.14,2.23 -0.27,4.33 -0.41,6.71 H 191 c 0.18,-2.41 0.34,-4.48 0.53,-7.09 -3.89,0 -7.51,0.15 -11.1,0 -2.21,-0.12 -6.09,-0.4 -6.28,-1.25 -0.67,-3.08 -1.25,-7.14 0.22,-9.55 5.36,-8.77 11.52,-17.05 17.52,-25.4 a 4,4 0 0 1 3.37,-1.15 c 3.41,0.62 6.74,1.67 10.12,2.57 z m -12.44,12.57 -0.84,-0.37 -9.22,13.85 9.48,-0.94 c 0.22,-4.61 0.4,-8.57 0.58,-12.53 z"
         id="path25694"
         style="fill:#ffffff" />
      <path
         class="cls-4"
         d="m 327.66,440.11 c 0,-2.4 0,-4 0,-5.67 0,-2.6 1.36,-3.58 3.89,-3.08 1,0.2 2.17,0.72 2.92,0.36 a 46.36,46.36 0 0 0 5.15,-3.31 c -1.52,-1.42 -2.88,-3.77 -4.58,-4.05 -2.82,-0.48 -5.85,0.38 -8.77,0.68 -2,-8.56 -1.76,-9.28 6.22,-10.33 a 33.74,33.74 0 0 1 11.82,0.25 c 11.43,2.69 13.73,11.5 5.48,20.5 5.09,3.17 8,7.47 6.21,13.68 -1.8,6.37 -6.93,8.75 -12.77,9.58 a 36.61,36.61 0 0 1 -20,-2.82 c 1,-3.33 1.94,-6.4 2.82,-9.33 4,0.58 7.57,1.66 11.07,1.4 1.83,-0.14 3.47,-2.64 5.2,-4.07 -1.69,-1.26 -3.22,-3.22 -5.1,-3.63 -2.81,-0.62 -5.88,-0.16 -9.56,-0.16 z"
         id="path25696"
         style="fill:#ffffff" />
      <path
         class="cls-4"
         d="m 177.47,300.16 a 81.18,81.18 0 0 1 -1.09,-9.17 c 0,-0.92 1.34,-2.27 2.37,-2.74 6.86,-3.08 14,-4.33 21.36,-2.08 8.47,2.58 12,10.29 7.72,18.13 -2.57,4.72 -6.29,8.82 -9.74,13.53 h 14 c -0.22,4.23 -0.41,8 -0.6,11.55 h -33.4 l -1.77,-9.12 c 8.8,-0.87 13.37,-7.11 17.39,-13.57 a 10.22,10.22 0 0 0 0.77,-8.12 c -1.41,-3.41 -5.23,-3.09 -8.36,-2.11 -2.7,0.84 -5.2,2.2 -8.65,3.7 z"
         id="path25698"
         style="fill:#ffffff" />
      <path
         class="cls-4"
         d="m 317.45,39.47 h -17.36 c 0.34,-4.28 0.65,-8.17 0.94,-11.76 h 31.05 c 1.58,4.65 1.58,8 -1.29,11.76 -6.08,8 -8.93,17.46 -9.94,27.33 -0.43,4.19 -2.09,5.24 -6,5.25 -10.49,0 -11.48,-0.83 -7.73,-10.58 2.88,-7.39 6.73,-14.39 10.33,-22 z"
         id="path25700"
         style="fill:#ffffff" />
      <path
         class="cls-4"
         d="m 307.65,297.47 h -17.24 c 0.2,-4.08 0.4,-8 0.64,-12.62 4.93,0.3 9.49,0.64 14.05,0.83 4.15,0.17 8.31,0.19 12.47,0.24 5.61,0.07 8.41,4.61 5,9.11 -7.13,9.32 -10.3,19.91 -12,31.24 a 5.39,5.39 0 0 1 -3.62,3.51 c -11.67,1.64 -13.65,-0.79 -9.19,-11.77 2.79,-6.87 6.41,-13.39 9.89,-20.54 z"
         id="path25702"
         style="fill:#ffffff" />
      <path
         class="cls-4"
         d="m 155,555.43 h -17.39 c 0.37,-4 0.72,-7.93 1.14,-12.6 4.11,0.2 8.18,0.43 12.25,0.59 4.65,0.2 9.29,0.39 13.94,0.49 5.38,0.11 8.18,4.65 4.93,9.08 -6.9,9.4 -10.49,19.82 -11.77,31.28 -0.15,1.33 -2.44,3.4 -3.79,3.44 -12,0.4 -13.76,1.42 -9.29,-11.18 2.57,-7.26 6.56,-14.01 9.98,-21.1 z"
         id="path25704"
         style="fill:#ffffff" />
      <path
         class="cls-4"
         d="m 306.9,555.43 h -17.33 c 0.34,-4 0.67,-7.87 1,-12.18 3,0 5.86,-0.07 8.76,0 5.81,0.17 11.62,0.35 17.42,0.71 1.84,0.11 5.07,0.56 5.19,1.29 0.46,2.61 0.87,6.14 -0.5,8 a 59.6,59.6 0 0 0 -11.16,29.93 c -0.3,3.11 -1.59,4.62 -5,4.78 -11.4,0.51 -12.65,-0.8 -8.46,-11.4 2.82,-7.02 6.51,-13.7 10.08,-21.13 z"
         id="path25706"
         style="fill:#ffffff" />
      <path
         class="cls-4"
         d="m 168,672.72 c 1.66,5.22 0.83,8.82 -2.08,12.75 -5.65,7.62 -8.27,16.68 -9.18,26 -0.39,4.05 -1.76,5.42 -5.77,5.46 -10.5,0.1 -11.62,-1 -7.84,-11 2.23,-5.87 5.42,-11.37 8.2,-17 0.7,-1.43 1.47,-2.84 2.58,-5 -5.08,0.25 -9.35,0.36 -13.59,0.71 -3.33,0.27 -5.17,-0.27 -4.13,-4.31 0.64,-2.52 0.5,-5.23 0.7,-7.66 z"
         id="path25708"
         style="fill:#ffffff" />
      <path
         class="cls-4"
         d="m 302.16,684.41 h -17.7 c 0.41,-4.19 0.8,-8.09 1.13,-11.44 10.07,0 19.84,-0.13 29.6,0.09 2.58,0.06 3.63,6.42 1.38,9.32 a 55,55 0 0 0 -11.21,29.42 c -0.41,4.44 -2.81,5.22 -6.7,5.2 -9.93,-0.06 -10.74,-0.77 -7.21,-10.17 2.32,-6.19 5.58,-12 8.44,-18 0.62,-1.34 1.32,-2.59 2.27,-4.42 z"
         id="path25710"
         style="fill:#ffffff" />
      <path
         class="cls-4"
         d="m 293.55,168.13 -17.48,0.78 c 0.3,-4.45 0.57,-8.31 0.83,-12.17 h 31.16 c 1.35,4.89 1.26,8.38 -1.7,12.26 -6,7.83 -8.67,17.19 -9.6,26.9 -0.37,3.89 -1.84,5.08 -5.57,5.14 -10.69,0.15 -11.86,-1.07 -7.88,-11.22 2.82,-7.2 6.58,-14.03 10.24,-21.69 z"
         id="path25712"
         style="fill:#ffffff" />
      <path
         class="cls-4"
         d="M 305.77,426.39 H 288 c 0.33,-4.15 0.63,-7.9 0.94,-11.7 H 320 c 1.46,5.07 1,8.66 -1.95,12.64 -5.76,7.74 -8.44,16.94 -9.33,26.5 -0.36,3.82 -1.74,5.12 -5.53,5.18 -10.82,0.15 -11.75,-0.92 -8,-11.22 a 109.79,109.79 0 0 1 4.92,-10.9 c 1.67,-3.38 3.58,-6.66 5.66,-10.5 z"
         id="path25714"
         style="fill:#ffffff" />
      <path
         class="cls-4"
         d="m 158.83,168.12 -18,0.82 c 0.35,-4.47 0.65,-8.34 1,-12.81 2.31,0 4.57,-0.07 6.82,0 6.31,0.24 12.63,0.44 18.94,0.86 2,0.13 5.38,0.56 5.58,1.44 0.6,2.57 0.93,6.19 -0.45,8.06 -6.74,9.16 -9.93,19.41 -11.41,30.48 -0.2,1.47 -2.44,3.62 -3.94,3.82 -11.56,1.47 -13.27,-0.67 -9,-11.63 2.17,-5.55 5.17,-10.77 7.82,-16.13 0.75,-1.42 1.53,-2.82 2.64,-4.91 z"
         id="path25716"
         style="fill:#ffffff" />
      <path
         class="cls-4"
         d="m 160.18,39.52 h -17.71 c 0.39,-4.17 0.75,-8.06 1.08,-11.5 10,0 19.7,-0.12 29.43,0.08 2.66,0 4,6.23 1.72,9.17 -6.95,9 -10.38,19.18 -11.5,30.28 -0.38,3.67 -2.34,4.45 -5.68,4.49 -11,0.14 -11.66,-0.43 -7.89,-10.65 2.16,-5.88 5.37,-11.39 8.07,-17.06 0.7,-1.44 1.46,-2.84 2.48,-4.81 z"
         id="path25718"
         style="fill:#ffffff" />
      <path
         class="cls-4"
         d="m 158.23,297.46 h -17.35 c 0.35,-4.24 0.67,-8.12 1,-11.79 h 31.08 c 1.29,4.8 1.18,8.36 -1.67,12.18 -5.78,7.75 -8.59,16.87 -9.54,26.4 -0.42,4.17 -1.73,5.81 -6.05,5.8 -10.24,0 -11.4,-1.11 -7.7,-10.7 2.82,-7.35 6.66,-14.35 10.23,-21.89 z"
         id="path25720"
         style="fill:#ffffff" />
      <path
         class="cls-4"
         d="m 158.29,426.36 h -17.45 c 0.36,-4.17 0.69,-7.93 1.07,-12.22 2.46,0 4.88,-0.07 7.3,0 6.14,0.21 12.29,0.59 18.44,0.74 5.79,0.13 8.77,4.52 5.39,9.17 -6.9,9.44 -10.37,19.91 -11.75,31.35 -0.16,1.3 -2.4,3.17 -3.86,3.35 -11.6,1.48 -13.35,-0.62 -9,-11.56 2.75,-7.02 6.44,-13.7 9.86,-20.83 z"
         id="path25722"
         style="fill:#ffffff" />
      <path
         class="cls-4"
         d="m 181.24,200 v -29 h -5 c -2.22,-11.06 6.4,-17.6 18.21,-13.74 0,13.15 0.07,26.41 -0.13,39.67 0,1 -1.83,2.75 -3,2.9 -3.07,0.43 -6.26,0.17 -10.08,0.17 z"
         id="path25724"
         style="fill:#ffffff" />
      <path
         class="cls-4"
         d="m 316.45,200 v -28.83 h -5.15 c -1.21,-5 -1.44,-8.85 4.06,-11.72 3.77,-2 6.75,-5.55 11.42,-3.07 1.25,0.67 2.73,2.38 2.75,3.63 0.18,11.82 0,23.65 0.11,35.48 0,3.53 -1.25,4.82 -4.67,4.58 -2.63,-0.18 -5.27,-0.07 -8.52,-0.07 z"
         id="path25726"
         style="fill:#ffffff" />
      <path
         class="cls-4"
         d="m 281.41,688.34 c -0.78,3.77 -1.54,7.46 -2.34,11.31 l -24,1.15 c 1.12,-4 2,-7.52 3.21,-11 a 3,3 0 0 1 2.3,-1.41 c 6.75,-0.1 13.5,-0.05 20.83,-0.05 z"
         id="path25728"
         style="fill:#ffffff" />
      <path
         class="cls-4"
         d="m 284.66,430.4 c -0.6,3.39 -1.28,7.2 -2,11.26 l -24.16,1.21 c 1.13,-4 2,-7.47 3.17,-10.81 a 3.43,3.43 0 0 1 2.67,-1.58 c 6.58,-0.14 13.16,-0.08 20.32,-0.08 z"
         id="path25730"
         style="fill:#ffffff" />
      <path
         class="cls-4"
         d="m 286.42,559.38 -2.29,11.27 -24.13,1.19 c 1.26,-4.17 2.27,-7.73 3.47,-11.22 a 2.5,2.5 0 0 1 1.93,-1.19 c 6.84,-0.09 13.72,-0.05 21.02,-0.05 z"
         id="path25732"
         style="fill:#ffffff" />
      <path
         class="cls-4"
         d="m 296.77,43.52 c -0.5,3.07 -0.84,6.19 -1.6,9.19 a 3.61,3.61 0 0 1 -2.55,2.22 c -6.89,0.19 -13.79,0.1 -21.6,0.1 0.82,-3.06 1.6,-6.49 2.73,-9.81 a 3.42,3.42 0 0 1 2.61,-1.63 c 6.57,-0.14 13.14,-0.07 20.41,-0.07 z"
         id="path25734"
         style="fill:#ffffff" />
      <path
         class="cls-4"
         d="m 261.07,313 c 0.87,-3.2 1.71,-6.66 2.82,-10 a 3,3 0 0 1 2.3,-1.44 c 6.71,-0.12 13.43,-0.07 20.65,-0.07 -0.54,3.29 -1,6.67 -1.75,10 -0.17,0.7 -1.71,1.49 -2.63,1.51 -6.75,0.06 -13.46,0 -21.39,0 z"
         id="path25736"
         style="fill:#ffffff" />
      <path
         class="cls-4"
         d="m 270.66,183.71 -24,1.14 c 1.11,-4 2,-7.5 3.06,-10.87 a 2.93,2.93 0 0 1 2.27,-1.39 c 6.72,-0.11 13.44,-0.06 20.74,-0.06 -0.67,3.62 -1.37,7.41 -2.07,11.18 z"
         id="path25738"
         style="fill:#ffffff" />
    </g>
    <g
       id="Layer_1-2"
       data-name="Layer 1">
      <path
         class="cls-1"
         d="m 1363.57,456 v 180 h -90.65 v -89.67 h 88.18 V 545 H 1273 v -89 z"
         id="path25642" />
      <path
         class="cls-2"
         d="m 1363.57,638 v 90 l -1.5,-0.17 a 50.77,50.77 0 0 0 -5.84,-0.69 q -38.71,-0.06 -77.43,0 h -5.8 v -88.88 a 8.79,8.79 0 0 1 1.75,-0.44 z"
         id="path25644" />
      <path
         class="cls-3"
         d="m 1363.57,0 v 90 c -0.14,-0.08 -0.29,-0.23 -0.44,-0.23 H 1272.7 V 0.84 h 6.06 q 39.69,0 79.38,0 a 45.21,45.21 0 0 0 5.28,-0.62 z"
         id="path25646" />
      <path
         class="cls-1"
         d="m 1363.57,364 v 90 h -90.67 c -0.13,-1.55 -0.25,-2.36 -0.25,-3.18 q 0,-41.19 0,-82.38 a 18.06,18.06 0 0 1 0.81,-3.76 q 44.19,0.09 88.37,0.16 a 3.12,3.12 0 0 0 0.93,-0.32 z"
         id="path25648" />
      <path
         class="cls-3"
         d="m 1363.57,92 v 89 c -0.14,-0.08 -0.29,-0.23 -0.43,-0.23 h -90.43 V 92.19 c 2,-0.07 4,-0.19 6,-0.19 q 42.4,0 84.86,0 z"
         id="path25650" />
      <path
         class="cls-3"
         d="m 1363.57,183 v 89 c -0.15,-0.08 -0.29,-0.23 -0.44,-0.23 h -90.45 v -88.59 c 2,-0.07 4,-0.21 6,-0.21 q 42.44,0.03 84.89,0.03 z"
         id="path25652" />
      <path
         class="cls-1"
         d="m 1363.57,274 v 89 l -1.93,0.11 h -88.12 a 22.35,22.35 0 0 1 -0.85,-4.2 q 0,-42.39 0,-84.78 z"
         id="path25654" />
      <path
         class="cls-5"
         d="m 1270.61,455.39 a 17.54,17.54 0 0 1 0.86,3.77 q 0.08,41.41 0,82.84 a 12.7,12.7 0 0 1 -0.89,3.19 H 1182 V 455.8 c 27.76,0 55.24,0 82.72,0 1.93,-0.02 3.91,-0.27 5.89,-0.41 z"
         id="path25740" />
      <path
         class="cls-5"
         d="m 1270.61,364.45 a 22,22 0 0 1 0.86,4.25 q 0.08,40.65 0,81.3 a 20.75,20.75 0 0 1 -0.89,4.19 h -88.64 v -89.37 c 25.93,0 51.57,0 77.22,0 3.84,-0.02 7.63,-0.25 11.45,-0.37 z"
         id="path25742" />
      <path
         class="cls-5"
         d="m 1270.61,546.38 a 27.38,27.38 0 0 1 0.86,4.76 q 0.06,42.33 0,84.67 h -89.79 v -89 c 28.15,0 55.57,0 83,0 1.97,-0.05 3.95,-0.3 5.93,-0.43 z"
         id="path25744" />
      <path
         class="cls-5"
         d="m 1271.46,274.17 q 0,42.42 0,84.83 a 20.75,20.75 0 0 1 -0.89,4.19 h -88.92 c 0,-29.73 0,-58.5 0.11,-87.27 0,-0.75 1.78,-1.49 2.73,-2.24 2.48,0.08 5,0.24 7.43,0.25 z"
         id="path25746" />
      <path
         class="cls-3"
         d="m 1271.45,92.19 v 88.64 h -89.79 V 92.21 Z"
         id="path25748" />
      <path
         class="cls-5"
         d="m 1271.46,183.17 q 0,44.31 0,88.62 c -2.16,0.06 -4.32,0.16 -6.49,0.17 q -40.2,0.12 -80.42,0.21 c -3.46,0.15 -2.88,-2.33 -2.87,-4.42 v -84.56 z"
         id="path25750" />
      <path
         class="cls-3"
         d="m 1271.41,1.16 v 88.65 c -2.5,0.06 -5,0.18 -7.49,0.18 q -40.74,0.11 -81.48,0.17 a 19.87,19.87 0 0 1 -0.73,-3.75 q -0.06,-40.92 0,-81.84 a 19.6,19.6 0 0 1 0.76,-3.73 c 2.33,0.05 4.66,0.16 7,0.16 z"
         id="path25752" />
      <path
         class="cls-1"
         d="m 1270.66,637.84 a 42,42 0 0 1 0.77,5.75 q 0.09,41.61 0.07,83.22 a 23.41,23.41 0 0 1 -2.48,0.25 q -41.73,0 -83.47,0 c -1.11,0 -2.23,-0.21 -3.59,-0.34 -0.1,-1.22 -0.26,-2.18 -0.26,-3.15 q 0,-41 0,-82 a 19.6,19.6 0 0 1 0.78,-3.77 z"
         id="path25754" />
      <path
         class="cls-6"
         d="m 88.21,129.14 v 87.65 h -88 v -87.65 z"
         id="path25756" />
      <path
         class="cls-7"
         d="M 88.13,598.9 H 0.2 v -87.6 h 87.93 z"
         id="path25758" />
      <path
         class="cls-8"
         d="m 0.14,256.16 h 88 v 88.31 h -88 z"
         id="path25760" />
      <path
         class="cls-9"
         d="m 88.41,383.5 v 88.15 H 0 V 383.5 Z"
         id="path25762" />
      <path
         class="cls-10"
         d="M 88.15,89.76 H 0 V 1.53 h 88.15 z"
         id="path25764" />
      <path
         class="cls-2"
         d="M 88.14,726.58 H 0 v -88.19 h 88.1 z"
         id="path25766" />
      <path
         class="cls-3"
         d="M 816.41,544.94 H 727.22 V 456 c 1.9,-0.09 3.81,-0.26 5.72,-0.26 q 38.44,0 76.88,0 c 2,0 4,-0.25 5.95,-0.38 a 15.73,15.73 0 0 1 0.73,3.31 q 0,43.14 -0.09,86.27 z"
         id="path25768" />
      <path
         class="cls-1"
         d="m 816.48,726.83 -88.91,0.21 a 14.49,14.49 0 0 1 -0.76,-3.29 q -0.06,-41.16 0,-82.32 c 0,-1 0.2,-1.92 0.34,-3.29 h 89.36 q -0.02,44.36 -0.03,88.69 z"
         id="path25770" />
      <path
         class="cls-5"
         d="m 907.52,456.1 q 0,42 0,83.92 a 30.34,30.34 0 0 1 -0.88,5.21 l -88.05,-0.16 a 1.16,1.16 0 0 0 -0.65,-0.18 q -0.12,-44.29 -0.22,-88.57 z"
         id="path25772" />
      <path
         class="cls-11"
         d="m 636.54,638 c 16.47,-0.09 32.93,-0.21 49.39,-0.27 13,0 26,0 39.26,0 v 89.21 H 636.64 Q 636.6,682.42 636.54,638 Z"
         id="path25774" />
      <path
         class="cls-5"
         d="m 906.6,546.79 a 16.19,16.19 0 0 1 0.89,3.7 q 0.07,41.24 0,82.47 c 0,0.8 -0.14,1.6 -0.24,2.71 h -88.77 c 0,-0.7 -0.11,-1.46 -0.11,-2.23 q 0,-41 0,-82 c 0,-1.16 -0.18,-2.32 -0.28,-3.48 l 0.48,-1 a 3.28,3.28 0 0 0 0.93,-0.19 z"
         id="path25776" />
      <path
         class="cls-3"
         d="m 816.57,547 q 0,44.46 0,88.91 H 727.42 V 547.2 a 31.77,31.77 0 0 1 3.77,-0.44 q 41.46,0 82.91,0 c 0.82,-0.01 1.64,0.15 2.47,0.24 z"
         id="path25778" />
      <path
         class="cls-3"
         d="m 636.28,546.88 h 89 V 636 h -88.67 c -0.1,-2 -0.29,-4 -0.3,-5.94 q -0.03,-41.59 -0.03,-83.18 z"
         id="path25780" />
      <path
         class="cls-3"
         d="m 636.33,455.9 h 89 V 545 h -88.74 c -0.1,-1.31 -0.28,-2.63 -0.28,-4 q 0,-42.54 0.02,-85.1 z"
         id="path25782" />
      <path
         class="cls-3"
         d="m 816.51,453.84 h -89 c -0.15,-1.45 -0.36,-2.57 -0.36,-3.68 q 0,-41 0,-81.92 a 28.77,28.77 0 0 1 0.4,-3.44 c 3.33,0 6.66,0.1 10,0.11 l 79,0.17 z"
         id="path25784" />
      <path
         class="cls-11"
         d="m 636.58,454 q -0.14,-37.22 -0.26,-74.42 c 0,-4.63 0,-9.27 0,-14.45 h 89.16 V 454 Z"
         id="path25786" />
      <path
         class="cls-12"
         d="m 907.48,92.15 q 0,44.34 0,88.68 c -2,0 -4,0.13 -6,0.14 l -82.94,0.1 a 16.3,16.3 0 0 1 -0.69,-3.24 q 0,-41.36 0,-82.7 a 16.46,16.46 0 0 1 0.68,-3.26 c 3.33,0 6.66,0.11 10,0.12 z"
         id="path25788" />
      <path
         class="cls-12"
         d="m 907.49,183.13 q 0,44.35 0,88.69 c -2.17,0 -4.33,0.12 -6.49,0.12 l -82.43,0.11 a 16.3,16.3 0 0 1 -0.69,-3.24 q 0,-41.35 0,-82.72 a 16.59,16.59 0 0 1 0.66,-3.28 c 4,0 8,0.11 12,0.12 q 38.46,0.07 76.95,0.2 z"
         id="path25790" />
      <path
         class="cls-12"
         d="M 818.54,0.87 901,1 c 2.17,0 4.33,0.09 6.49,0.15 v 88.69 c -2.16,0.06 -4.33,0.15 -6.49,0.15 l -82.45,0.13 a 16.46,16.46 0 0 1 -0.68,-3.26 q 0,-41.35 0,-82.73 a 16.46,16.46 0 0 1 0.67,-3.26 z"
         id="path25792" />
      <path
         class="cls-12"
         d="m 816.4,362.94 -88.78,0.15 a 39.35,39.35 0 0 1 -0.7,-5.25 q -0.1,-41.71 -0.12,-83.45 a 9.59,9.59 0 0 1 1.94,-0.41 q 43.88,0.06 87.75,0.16 z"
         id="path25794" />
      <path
         class="cls-12"
         d="m 907.49,274.13 q 0,44.39 0,88.78 l -89.61,-0.13 v 0 -88.45 a 10.33,10.33 0 0 1 2,-0.38 q 43.73,0.05 87.61,0.18 z"
         id="path25796" />
      <path
         class="cls-3"
         d="m 816.47,92.15 v 88.65 h -89.32 c -0.12,-1.36 -0.3,-2.49 -0.3,-3.62 q 0,-40.74 0,-81.49 a 20.91,20.91 0 0 1 0.68,-3.8 c 3.16,0 6.32,0.09 9.49,0.1 z"
         id="path25798" />
      <path
         class="cls-13"
         d="m 636.69,271.93 c -0.12,-5 -0.35,-10 -0.33,-14.95 q 0.09,-37 0.28,-73.93 h 88.82 v 88.77 z"
         id="path25800" />
      <path
         class="cls-11"
         d="m 636.58,1 88.89,0.15 q 0,42.71 0,85.39 a 16.4,16.4 0 0 1 -0.85,3.69 H 636.3 c 0,-9.48 0,-17.94 0,-26.41 Q 636.43,32.4 636.58,1 Z"
         id="path25802" />
      <path
         class="cls-12"
         d="m 727.13,1 89.35,0.2 q 0,44.37 0,88.75 l -88.89,0.21 a 6.29,6.29 0 0 1 -0.6,-1.84 Q 727,44.62 727.13,1 Z"
         id="path25804" />
      <path
         class="cls-13"
         d="m 636.69,363 c -0.12,-5.29 -0.34,-10.59 -0.33,-15.88 q 0,-36.54 0.21,-73.09 l 88.92,0.13 q 0,44.39 0,88.76 z"
         id="path25806" />
      <path
         class="cls-13"
         d="M 636.55,181.23 V 92.06 h 5.23 q 38.7,0 77.4,0 c 1.82,0 3.64,-0.16 5.47,-0.25 a 12.51,12.51 0 0 1 0.84,3.14 q 0.06,42.18 0,84.37 a 14.27,14.27 0 0 1 -0.32,1.93 z"
         id="path25808" />
      <path
         class="cls-12"
         d="m 727.55,272 a 19.51,19.51 0 0 1 -0.59,-3.34 q -0.06,-41.19 0,-82.38 c 0,-1 0.14,-1.95 0.24,-3.21 h 89.28 v 88.71 z"
         id="path25810" />
      <path
         class="cls-5"
         d="M 1090.7,635.75 V 547 h 89.75 v 88.8 c -11.8,0.07 -23.6,0.21 -35.4,0.19 -18.12,0.01 -36.24,-0.16 -54.35,-0.24 z"
         id="path25812" />
      <path
         class="cls-3"
         d="M 1180.45,183.19 V 272 h -89.74 v -88.78 z"
         id="path25814" />
      <path
         class="cls-3"
         d="m 1089.49,274.13 v 88.95 h -89.77 v -88.83 z"
         id="path25816" />
      <path
         class="cls-5"
         d="m 1000,544.62 v -88.39 h 89.32 v 88.39 z"
         id="path25818" />
      <path
         class="cls-12"
         d="m 998.54,180.92 q -44,0.08 -88,0.15 a 8.75,8.75 0 0 1 -1.84,-0.49 v -88.3 l 89.74,-0.14 z"
         id="path25820" />
      <path
         class="cls-12"
         d="m 1089.48,92.14 v 88.69 H 999.75 V 92.25 Z"
         id="path25822" />
      <path
         class="cls-5"
         d="m 1000.53,636.17 a 18.54,18.54 0 0 1 -0.81,-3.74 q -0.06,-41 0,-81.95 c 0,-1 0.13,-1.94 0.22,-3.3 h 89.56 v 88.66 c -2.66,0 -5.33,0.15 -8,0.16 q -40.5,0.11 -80.97,0.17 z"
         id="path25824" />
      <path
         class="cls-5"
         d="m 909.55,636.11 a 18.67,18.67 0 0 1 -0.79,-3.76 q -0.06,-41 0,-82 c 0,-1 0.16,-1.93 0.27,-3.14 a 34.1,34.1 0 0 1 3.56,-0.39 q 41.74,0 83.48,0 c 0.83,0 1.66,0.16 2.48,0.24 l -0.06,88.78 c -2.16,0 -4.33,0.16 -6.49,0.16 q -41.23,0.07 -82.45,0.11 z"
         id="path25826" />
      <path
         class="cls-3"
         d="m 1180.45,92.2 v 88.59 h -89.71 q 0,-44.25 0,-88.52 z"
         id="path25828" />
      <path
         class="cls-3"
         d="m 909.53,272.08 a 15.37,15.37 0 0 1 -0.74,-3.25 q -0.06,-41.49 0,-83 c 0,-0.8 0.14,-1.6 0.2,-2.23 0.56,-0.31 0.84,-0.6 1.12,-0.6 q 44.22,0 88.45,0.06 0,44.37 -0.07,88.76 c -3,0 -6,0.11 -9,0.11 z"
         id="path25830" />
      <path
         class="cls-3"
         d="m 1000.52,272.1 a 13.87,13.87 0 0 1 -0.78,-3.22 q -0.06,-41.73 0,-83.46 a 20.77,20.77 0 0 1 0.26,-2.25 h 89.47 v 88.65 c -3.33,0 -6.66,0.12 -10,0.12 z"
         id="path25832" />
      <path
         class="cls-5"
         d="m 1091.08,365 h 89 v 88.62 h -89 z"
         id="path25834" />
      <path
         class="cls-3"
         d="m 997.58,454.48 c -15.31,-0.1 -30.63,-0.22 -46,-0.28 -12.32,-0.05 -24.65,0 -37,0 h -5.92 v -88.9 l 89.77,-0.19 q 0,42.6 0,85.2 a 19,19 0 0 1 -0.85,4.17 z"
         id="path25836" />
      <path
         class="cls-12"
         d="M 909.52,0.83 Q 949,0.91 988.52,1 c 3.33,0 6.66,0.09 10,0.13 v 88.73 c -3.48,0 -7,0.12 -10.43,0.13 l -78.56,0.17 a 15.11,15.11 0 0 1 -0.71,-3.23 q -0.06,-41.45 0,-82.88 a 14.4,14.4 0 0 1 0.7,-3.22 z"
         id="path25838" />
      <path
         class="cls-12"
         d="m 999.76,1.25 c 17.78,-0.09 35.55,-0.21 53.33,-0.24 12.13,0 24.26,0.08 36.39,0.13 v 88.71 c -12.47,0.05 -24.93,0.16 -37.39,0.13 -17.45,0 -34.89,-0.16 -52.34,-0.25 q 0.02,-44.23 0.01,-88.48 z"
         id="path25840" />
      <path
         class="cls-3"
         d="m 1091.52,0.82 76.93,0.19 c 4,0 8,0.09 12,0.14 q 0,44.34 0,88.67 h -89.74 q 0,-42.37 0,-84.74 a 22.3,22.3 0 0 1 0.81,-4.26 z"
         id="path25842" />
      <path
         class="cls-3"
         d="m 909.53,363.08 a 37.48,37.48 0 0 1 -0.74,-5.22 q -0.07,-41.78 0,-83.55 l 89.75,-0.19 v 88.71 c -3,0 -6,0.11 -9,0.11 z"
         id="path25844" />
      <path
         class="cls-5"
         d="m 1091,362.58 v -88.25 h 89.15 v 88.25 z"
         id="path25846" />
      <path
         class="cls-1"
         d="M 998.47,726.84 919,727 c -3.17,0 -6.33,0.07 -9.49,0.1 a 22.68,22.68 0 0 1 -0.79,-4.25 q -0.07,-40.35 0,-80.71 a 22.68,22.68 0 0 1 0.79,-4.25 c 3.16,0 6.33,0.09 9.49,0.1 l 79.43,0.16 z"
         id="path25848" />
      <path
         class="cls-1"
         d="m 1089.47,726.84 -79,0.16 c -3.33,0 -6.66,0.09 -10,0.14 a 22.6,22.6 0 0 1 -0.8,-4.24 q -0.08,-40.41 0,-80.81 a 22.6,22.6 0 0 1 0.8,-4.24 c 3.33,0 6.66,0.13 10,0.14 l 79,0.16 z"
         id="path25850" />
      <path
         class="cls-1"
         d="m 1180.46,638.17 v 88.57 h -89.38 a 34.27,34.27 0 0 1 -0.39,-3.79 q 0,-40.43 0,-80.86 a 24.59,24.59 0 0 1 0.79,-4.25 c 4,0 8,0.14 12,0.15 z"
         id="path25852" />
      <path
         class="cls-5"
         d="m 1180.19,456.09 v 88.47 H 1091 v -88.47 z"
         id="path25854" />
      <path
         class="cls-5"
         d="M 998.5,544.83 H 909.77 V 456.14 H 998.5 Z"
         id="path25856" />
      <path
         class="cls-5"
         d="m 1000.51,453.6 v -88.29 h 88.71 v 88.29 z"
         id="path25858" />
      <path
         class="cls-1"
         d="m 818.57,727.05 q -0.41,-0.19 -0.81,-0.36 v -88.62 h 89.72 v 88.77 z"
         id="path25860" />
      <path
         class="cls-3"
         d="m 818.55,454.09 a 29.88,29.88 0 0 1 -0.73,-4.74 q -0.06,-42 0,-84.08 l 89.67,-0.18 v 88.74 c -2,0.05 -4,0.15 -6,0.15 q -41.49,0.07 -82.94,0.11 z"
         id="path25862" />
      <line
         class="cls-14"
         x1="727.13"
         y1="0.95999998"
         x2="725.19"
         y2="726.89001"
         id="line25864" />
      <line
         class="cls-14"
         x1="817.98999"
         y1="2.04"
         x2="816.04999"
         y2="727.96002"
         id="line25866" />
      <line
         class="cls-14"
         x1="910.13"
         y1="1.0700001"
         x2="908.20001"
         y2="727"
         id="line25868" />
      <line
         class="cls-14"
         x1="818.79999"
         y1="3.29"
         x2="816.85999"
         y2="729.21997"
         id="line25870" />
      <line
         class="cls-14"
         x1="1000.87"
         y1="2.04"
         x2="998.94"
         y2="727.96002"
         id="line25872" />
      <line
         class="cls-14"
         x1="1091.54"
         y1="2.04"
         x2="1089.6"
         y2="727.96002"
         id="line25874" />
      <line
         class="cls-14"
         x1="1181.87"
         y1="0.039999999"
         x2="1179.9399"
         y2="725.96002"
         id="line25876" />
      <line
         class="cls-14"
         x1="1272.87"
         y1="0.69999999"
         x2="1270.9399"
         y2="726.63"
         id="line25878" />
      <line
         class="cls-14"
         x1="1364.54"
         y1="91"
         x2="638.60999"
         y2="91"
         id="line25880" />
      <line
         class="cls-14"
         x1="1362.54"
         y1="181.33"
         x2="636.60999"
         y2="181.33"
         id="line25882" />
      <line
         class="cls-14"
         x1="1362.87"
         y1="273.32999"
         x2="636.94"
         y2="273.32999"
         id="line25884" />
      <line
         class="cls-14"
         x1="1363.54"
         y1="364.32999"
         x2="637.60999"
         y2="364.32999"
         id="line25886" />
      <line
         class="cls-14"
         x1="1365.2"
         y1="455"
         x2="639.27002"
         y2="455"
         id="line25888" />
      <line
         class="cls-14"
         x1="1362.9399"
         y1="545.32001"
         x2="637.01001"
         y2="545.32001"
         id="line25890" />
      <line
         class="cls-14"
         x1="1362.9301"
         y1="636.64001"
         x2="637"
         y2="636.64001"
         id="line25892" />
    </g>
  </g>
</svg>
