<?xml version="1.0" encoding="UTF-8" standalone="no"?>
<!-- Created with Inkscape (http://www.inkscape.org/) -->

<svg
   width="49.611958mm"
   height="6.6321564mm"
   viewBox="0 0 49.611958 6.6321564"
   version="1.1"
   id="svg5"
   inkscape:version="1.2.2 (732a01da63, 2022-12-09)"
   sodipodi:docname="FontToPath.svg"
   xmlns:inkscape="http://www.inkscape.org/namespaces/inkscape"
   xmlns:sodipodi="http://sodipodi.sourceforge.net/DTD/sodipodi-0.dtd"
   xmlns="http://www.w3.org/2000/svg"
   xmlns:svg="http://www.w3.org/2000/svg">
  <sodipodi:namedview
     id="namedview7"
     pagecolor="#505050"
     bordercolor="#ffffff"
     borderopacity="1"
     inkscape:showpageshadow="0"
     inkscape:pageopacity="0"
     inkscape:pagecheckerboard="1"
     inkscape:deskcolor="#505050"
     inkscape:document-units="mm"
     showgrid="false"
     inkscape:zoom="2.0888418"
     inkscape:cx="201.30773"
     inkscape:cy="484.95773"
     inkscape:window-width="1920"
     inkscape:window-height="1009"
     inkscape:window-x="-8"
     inkscape:window-y="-8"
     inkscape:window-maximized="1"
     inkscape:current-layer="layer1" />
  <defs
     id="defs2" />
  <g
     inkscape:label="Layer 1"
     inkscape:groupmode="layer"
     id="layer1"
     transform="translate(-33.512166,-147.19204)">
    <path
       id="path5124"
       style="font-size:8.5956px;line-height:0px;font-family:'Gloucester MT Extra Condensed';-inkscape-font-specification:'Gloucester MT Extra Condensed, ';fill:#ffffff;fill-rule:evenodd;stroke-width:0.0863857"
       inkscape:label="RelationalDatabasePath"
       d="m 33.62172,147.19205 c -0.07275,0 -0.109554,0.0323 -0.109554,0.0966 v 0.18449 c 0,0.0672 0.03681,0.12455 0.109554,0.17208 0.106326,0.0727 0.159164,0.1808 0.159164,0.3235 v 4.9692 c 0,0.1427 -0.05284,0.25157 -0.159164,0.32711 -0.07275,0.0504 -0.109554,0.10642 -0.109554,0.16795 v 0.19741 c 0,0.0587 0.03094,0.0884 0.0925,0.0884 h 1.309481 c 0.07275,0 0.109037,-0.0323 0.109037,-0.0966 v -0.18914 c 0,-0.0644 -0.03629,-0.12041 -0.109037,-0.16795 -0.106326,-0.0728 -0.15968,-0.18162 -0.15968,-0.32711 v -2.27479 c 0.11472,0.003 0.208887,0.0418 0.281636,0.1173 0.07555,0.0755 0.144119,0.24095 0.205673,0.49558 l 0.570507,2.30838 c 0.02238,0.0895 0.0744,0.13436 0.155546,0.13436 h 0.839226 c 0.06155,0 0.0925,-0.031 0.0925,-0.0925 v -0.23926 c 0,-0.0363 -0.01254,-0.0628 -0.03772,-0.0796 -0.08674,-0.0532 -0.149963,-0.10922 -0.189136,-0.16795 -0.03637,-0.0616 -0.074,-0.17762 -0.113171,-0.3483 l -0.306442,-1.33067 c -0.06435,-0.2742 -0.156669,-0.48124 -0.276985,-0.62115 -0.117518,-0.1427 -0.290942,-0.26997 -0.520382,-0.38189 0.780654,-0.24622 1.170988,-0.79024 1.170988,-1.63246 0,-0.52883 -0.162218,-0.93355 -0.486792,-1.21336 -0.324573,-0.2798 -0.797871,-0.41961 -1.419035,-0.41961 z m 7.12618,0 -0.994771,0.0336 c -0.06155,0 -0.09198,0.025 -0.09198,0.0754 v 0.15554 c 0,0.0476 0.02508,0.0838 0.07545,0.10904 0.120314,0.0615 0.18035,0.16775 0.18035,0.31884 v 5.16661 c 0,0.14832 -0.0587,0.25185 -0.176216,0.31058 -0.05316,0.0251 -0.07958,0.0659 -0.07958,0.12195 v 0.15503 c 0,0.0531 0.03095,0.0801 0.0925,0.0801 h 1.158069 c 0.06156,0 0.0925,-0.027 0.0925,-0.0801 v -0.15503 c 0,-0.0531 -0.02508,-0.094 -0.07545,-0.12195 -0.120316,-0.0616 -0.180868,-0.16508 -0.180868,-0.31058 z m 16.053801,0 -0.994255,0.0336 c -0.06156,0 -0.0925,0.025 -0.0925,0.0754 v 0.15554 c 0,0.0476 0.02508,0.0838 0.07545,0.10904 0.120316,0.0615 0.180351,0.16775 0.180351,0.31884 v 5.16661 c 0,0.14832 -0.0587,0.25185 -0.176217,0.31058 -0.05317,0.0251 -0.07958,0.0659 -0.07958,0.12195 v 0.15503 c 0,0.0531 0.03094,0.0801 0.0925,0.0801 h 1.158069 c 0.06156,0 0.0925,-0.027 0.0925,-0.0801 v -0.15503 c 0,-0.0531 -0.02508,-0.094 -0.07545,-0.12195 -0.120316,-0.0616 -0.180867,-0.16508 -0.180867,-0.31058 z m 2.289783,0.0171 c -0.06435,0 -0.09612,0.0211 -0.09612,0.0631 v 0.21807 c 0,0.0644 0.0403,0.12575 0.12144,0.18449 0.09234,0.0644 0.138493,0.16787 0.138493,0.31057 v 4.96921 c 0,0.1399 -0.0515,0.24928 -0.155029,0.32763 -0.06995,0.0504 -0.104904,0.10641 -0.104904,0.16795 v 0.21394 c 0,0.0476 0.02508,0.0713 0.07545,0.0713 H 60.1493 c 0.665933,0 1.138713,-0.14382 1.418518,-0.43202 0.282603,-0.28819 0.486971,-0.69693 0.612883,-1.22576 0.12871,-0.53163 0.19327,-1.08819 0.19327,-1.67018 0,-1.12762 -0.211566,-1.9419 -0.63407,-2.44275 -0.422505,-0.50364 -0.941442,-0.75551 -1.557011,-0.75551 z m 11.915551,0 -0.93586,0.0124 c -0.05596,0 -0.08372,0.0225 -0.08372,0.0672 v 0.18501 c 0,0.0251 0.01922,0.0542 0.0584,0.0879 0.08674,0.0727 0.130224,0.17626 0.130224,0.31057 v 5.93039 h 0.113172 c 0.165084,-0.15669 0.291014,-0.23461 0.377754,-0.23461 0.04477,0 0.123206,0.0291 0.235128,0.0879 0.218247,0.11192 0.408738,0.16795 0.571025,0.16795 0.366542,0 0.647496,-0.1945 0.843359,-0.58343 0.198661,-0.39173 0.298173,-0.93307 0.298173,-1.62419 0,-1.26751 -0.3303,-1.90118 -0.990637,-1.90118 -0.195863,0 -0.401567,0.0878 -0.617017,0.26407 z m -24.723038,0.33125 c -0.123114,0 -0.236504,0.0475 -0.340031,0.14263 -0.10073,0.0951 -0.150896,0.21572 -0.150896,0.36121 0,0.13711 0.04883,0.2545 0.146762,0.35244 0.09793,0.0979 0.216664,0.14676 0.356567,0.14676 0.137104,0 0.255018,-0.0488 0.35295,-0.14676 0.09793,-0.0979 0.146761,-0.21533 0.146761,-0.35244 0,-0.1399 -0.04883,-0.25863 -0.146761,-0.35656 -0.09793,-0.0979 -0.219855,-0.14728 -0.365352,-0.14728 z m -11.529529,0.15968 c 0.29939,0 0.520825,0.0758 0.663525,0.22686 0.145499,0.14829 0.218075,0.46019 0.218075,0.93586 0,0.48686 -0.07124,0.82517 -0.213941,1.01544 -0.1427,0.19027 -0.365471,0.28525 -0.667659,0.28525 z m 25.47028,0.008 c 0.22664,0.0168 0.398729,0.0643 0.516247,0.14262 0.117518,0.0784 0.215694,0.21281 0.294039,0.40308 0.08115,0.18747 0.148378,0.46709 0.201538,0.83923 0.05316,0.37212 0.07958,0.87585 0.07958,1.51101 0,0.58759 -0.03495,1.10838 -0.104903,1.56167 -0.06995,0.45328 -0.182004,0.74677 -0.335897,0.88108 -0.153893,0.13431 -0.370803,0.20154 -0.650606,0.20154 z m -15.363404,0.62166 c -0.01399,0 -0.0436,0.002 -0.08837,0.008 l -0.512114,0.0548 c -0.08954,0.0112 -0.134358,0.0507 -0.134358,0.11782 v 0.68782 c 0,0.16788 -0.0112,0.2898 -0.03359,0.36535 -0.02238,0.0728 -0.07389,0.13867 -0.155029,0.1974 -0.06156,0.0476 -0.0925,0.10043 -0.0925,0.15917 v 0.21032 c 0,0.0559 0.03228,0.0837 0.09663,0.0837 h 0.146761 v 2.7745 c 0,0.54562 0.220098,0.81856 0.659391,0.81856 0.162287,0 0.335711,-0.0435 0.520382,-0.13023 0.184671,-0.0896 0.276985,-0.1648 0.276985,-0.22634 0,-0.008 -0.0045,-0.0214 -0.01292,-0.0382 l -0.06304,-0.20102 c -0.01399,-0.0392 -0.04575,-0.0589 -0.09612,-0.0589 -0.01679,0 -0.04053,0.004 -0.07131,0.0124 -0.04477,0.0112 -0.08692,0.0171 -0.12609,0.0171 -0.170681,0 -0.255798,-0.13847 -0.255798,-0.41547 v -2.55179 h 0.453202 c 0.06435,0 0.09612,-0.0336 0.09612,-0.10077 v -0.25631 c 0,-0.0643 -0.0403,-0.0966 -0.12144,-0.0966 h -0.42788 v -1.33015 c 0,-0.0671 -0.01974,-0.10077 -0.05891,-0.10077 z m 21.558374,0.0171 c -0.01399,0 -0.04308,0.002 -0.08785,0.008 l -0.512113,0.0548 c -0.08954,0.0112 -0.134359,0.0502 -0.134359,0.1173 v 0.68833 c 0,0.16788 -0.0112,0.28981 -0.03359,0.36535 -0.02238,0.0728 -0.0744,0.13816 -0.155546,0.19689 -0.06156,0.0476 -0.09198,0.10095 -0.09198,0.15968 v 0.20981 c 0,0.0559 0.03176,0.0842 0.09612,0.0842 h 0.147278 v 2.77451 c 0,0.54562 0.219581,0.81855 0.658874,0.81855 0.162287,0 0.335711,-0.0435 0.520382,-0.13022 0.184671,-0.0896 0.276985,-0.16533 0.276985,-0.22686 0,-0.008 -0.004,-0.0209 -0.0124,-0.0377 l -0.06304,-0.20153 c -0.01399,-0.0392 -0.04627,-0.0589 -0.09664,-0.0589 -0.01679,0 -0.04053,0.005 -0.07131,0.0129 -0.04477,0.0112 -0.08692,0.0165 -0.12609,0.0165 -0.170681,0 -0.255798,-0.13847 -0.255798,-0.41548 v -2.55178 h 0.453202 c 0.06435,0 0.09664,-0.0336 0.09664,-0.10077 v -0.2558 c 0,-0.0643 -0.04081,-0.0966 -0.121957,-0.0966 h -0.42788 v -1.33015 c 0,-0.0672 -0.01974,-0.10077 -0.05891,-0.10077 z m -28.114563,1.3255 c -0.374937,0 -0.674293,0.1873 -0.898136,0.56224 -0.221046,0.37494 -0.331246,0.88986 -0.331246,1.54461 0,0.67432 0.117399,1.18072 0.352433,1.51928 0.235036,0.33856 0.552794,0.50798 0.952914,0.50798 0.604378,0 0.938686,-0.37061 1.003039,-1.11207 l -0.449068,-0.0754 c -0.08114,0.40851 -0.228149,0.61236 -0.4408,0.61236 -0.181873,0 -0.30914,-0.10033 -0.381889,-0.30179 -0.07275,-0.20146 -0.109037,-0.49146 -0.109037,-0.86919 v -0.34365 h 1.309481 c 0.06995,0 0.104903,-0.0336 0.104903,-0.10077 v -0.35295 c 0,-0.47847 -0.102184,-0.86294 -0.306441,-1.15394 -0.204257,-0.29099 -0.473186,-0.43666 -0.806153,-0.43666 z m 4.012675,0 c -0.260216,0 -0.489669,0.0699 -0.68833,0.2098 -0.195862,0.13711 -0.294039,0.3164 -0.294039,0.53744 0,0.13431 0.04081,0.24316 0.121957,0.32711 0.08114,0.0811 0.188672,0.12196 0.322978,0.12196 0.123112,0 0.219953,-0.0363 0.289904,-0.10904 0.06995,-0.0756 0.104903,-0.16652 0.104903,-0.27285 0,-0.0588 -0.01707,-0.12866 -0.05064,-0.20981 -0.01679,-0.0447 -0.02481,-0.0784 -0.02481,-0.10077 0,-0.0587 0.04749,-0.0884 0.142627,-0.0884 0.268612,0 0.402559,0.17343 0.402559,0.52038 v 0.58756 c -0.968122,0.24903 -1.452108,0.76847 -1.452108,1.55753 0,0.30778 0.0771,0.56097 0.230994,0.75964 0.153893,0.19586 0.349727,0.29352 0.587561,0.29352 0.249026,0 0.508085,-0.15502 0.776697,-0.4656 0.117518,0.29659 0.329902,0.44493 0.637687,0.44493 0.229439,0 0.344165,-0.0744 0.344165,-0.22272 v -0.18035 c 0,-0.0588 -0.03362,-0.095 -0.100769,-0.10904 -0.08115,-0.0168 -0.133983,-0.055 -0.159163,-0.11369 -0.02239,-0.0615 -0.03359,-0.14935 -0.03359,-0.26407 v -2.09031 c 0,-0.36095 -0.102183,-0.63923 -0.306441,-0.83509 -0.201459,-0.19866 -0.485601,-0.29817 -0.852145,-0.29817 z m 6.157247,0 c -0.360946,0 -0.658966,0.16542 -0.894002,0.49557 -0.235036,0.32738 -0.35295,0.84898 -0.35295,1.56528 0,0.68552 0.112053,1.20313 0.335897,1.55288 0.226641,0.34696 0.548407,0.52038 0.965316,0.52038 0.411311,0 0.726397,-0.17743 0.944645,-0.53278 0.218247,-0.35535 0.327112,-0.86043 0.327112,-1.51515 0,-1.39063 -0.441837,-2.08618 -1.326018,-2.08618 z m 5.699394,0 c -0.260218,0 -0.489669,0.0699 -0.68833,0.2098 -0.195863,0.13711 -0.293522,0.3164 -0.293522,0.53744 0,0.13431 0.0403,0.24316 0.121439,0.32711 0.08114,0.0811 0.189189,0.12196 0.323495,0.12196 0.123114,0 0.219437,-0.0363 0.289388,-0.10904 0.06995,-0.0756 0.104903,-0.16652 0.104903,-0.27285 0,-0.0588 -0.01655,-0.12866 -0.05013,-0.20981 -0.01679,-0.0447 -0.02532,-0.0784 -0.02532,-0.10077 0,-0.0587 0.0475,-0.0884 0.142627,-0.0884 0.268613,0 0.403077,0.17343 0.403077,0.52038 v 0.58756 c -0.968122,0.24903 -1.452625,0.76847 -1.452625,1.55753 0,0.30778 0.0771,0.56097 0.230994,0.75964 0.153892,0.19586 0.349727,0.29352 0.587561,0.29352 0.249026,0 0.508085,-0.15502 0.776697,-0.4656 0.117516,0.29659 0.329902,0.44493 0.637687,0.44493 0.22944,0 0.344165,-0.0744 0.344165,-0.22272 v -0.18035 c 0,-0.0588 -0.03362,-0.095 -0.100769,-0.10904 -0.08115,-0.0168 -0.133984,-0.055 -0.159164,-0.11369 -0.02239,-0.0615 -0.03359,-0.14935 -0.03359,-0.26407 v -2.09031 c 0,-0.36095 -0.102184,-0.63923 -0.306442,-0.83509 -0.201458,-0.19866 -0.4856,-0.29817 -0.852144,-0.29817 z m 9.701733,0.0171 c -0.260216,0 -0.489669,0.0699 -0.68833,0.20981 -0.195862,0.1371 -0.293522,0.31587 -0.293522,0.53692 0,0.1343 0.0403,0.24368 0.12144,0.32762 0.08114,0.0811 0.189188,0.12144 0.323494,0.12144 0.123114,0 0.219437,-0.0363 0.289388,-0.10903 0.06995,-0.0755 0.104903,-0.16653 0.104903,-0.27286 0,-0.0588 -0.01655,-0.12866 -0.05013,-0.2098 -0.01679,-0.0447 -0.02532,-0.0784 -0.02532,-0.10077 0,-0.0587 0.04749,-0.0879 0.142627,-0.0879 0.268612,0 0.403076,0.17343 0.403076,0.52038 v 0.58756 c -0.968123,0.24903 -1.452108,0.76796 -1.452108,1.55701 0,0.30778 0.07659,0.56098 0.230477,0.75965 0.153893,0.19586 0.349727,0.29404 0.587561,0.29404 0.249026,0 0.508085,-0.15555 0.776697,-0.46613 0.117518,0.2966 0.329902,0.44494 0.637687,0.44494 0.22944,0 0.344165,-0.0739 0.344165,-0.22221 v -0.18087 c 0,-0.0588 -0.03362,-0.095 -0.100769,-0.10904 -0.08115,-0.0168 -0.133983,-0.0544 -0.159163,-0.11317 -0.02239,-0.0616 -0.03359,-0.14986 -0.03359,-0.26458 v -2.08979 c 0,-0.36096 -0.102183,-0.63975 -0.306441,-0.83561 -0.201459,-0.19866 -0.485601,-0.29766 -0.852145,-0.29766 z m 4.528923,0 c -0.260218,0 -0.489669,0.0699 -0.68833,0.20981 -0.195863,0.1371 -0.294039,0.31587 -0.294039,0.53692 0,0.1343 0.04081,0.24368 0.121956,0.32762 0.08114,0.0811 0.188672,0.12144 0.322978,0.12144 0.123115,0 0.219437,-0.0363 0.289388,-0.10903 0.06995,-0.0755 0.10542,-0.16653 0.10542,-0.27286 0,-0.0588 -0.01707,-0.12866 -0.05064,-0.2098 -0.01679,-0.0447 -0.02532,-0.0784 -0.02532,-0.10077 0,-0.0587 0.04801,-0.0879 0.143143,-0.0879 0.268613,0 0.40256,0.17343 0.40256,0.52038 v 0.58756 c -0.968122,0.24903 -1.452108,0.76796 -1.452108,1.55701 0,0.30778 0.0771,0.56098 0.230994,0.75965 0.153892,0.19586 0.349727,0.29404 0.587561,0.29404 0.249025,0 0.507568,-0.15555 0.77618,-0.46613 0.117518,0.2966 0.330419,0.44494 0.638204,0.44494 0.229438,0 0.344165,-0.0739 0.344165,-0.22221 v -0.18087 c 0,-0.0588 -0.03362,-0.095 -0.100769,-0.10904 -0.08115,-0.0168 -0.134501,-0.0544 -0.159681,-0.11317 -0.02238,-0.0616 -0.03359,-0.14986 -0.03359,-0.26458 v -2.08979 c 0,-0.36096 -0.102185,-0.63975 -0.306441,-0.83561 -0.20146,-0.19866 -0.485084,-0.29766 -0.851628,-0.29766 z m 5.649268,0 c -0.260218,0 -0.489669,0.0699 -0.688331,0.20981 -0.195862,0.1371 -0.294038,0.31587 -0.294038,0.53692 0,0.1343 0.04081,0.24368 0.121956,0.32762 0.08114,0.0811 0.188672,0.12144 0.322978,0.12144 0.123114,0 0.219436,-0.0363 0.289388,-0.10903 0.06995,-0.0755 0.10542,-0.16653 0.10542,-0.27286 0,-0.0588 -0.01707,-0.12866 -0.05064,-0.2098 -0.01679,-0.0447 -0.02532,-0.0784 -0.02532,-0.10077 0,-0.0587 0.04749,-0.0879 0.142627,-0.0879 0.268613,0 0.403076,0.17343 0.403076,0.52038 v 0.58756 c -0.968122,0.24903 -1.452107,0.76796 -1.452107,1.55701 0,0.30778 0.0771,0.56098 0.230993,0.75965 0.153893,0.19586 0.349729,0.29404 0.587561,0.29404 0.249026,0 0.507569,-0.15555 0.77618,-0.46613 0.117518,0.2966 0.33042,0.44494 0.638204,0.44494 0.22944,0 0.344165,-0.0739 0.344165,-0.22221 v -0.18087 c 0,-0.0588 -0.03361,-0.095 -0.100769,-0.10904 -0.08115,-0.0168 -0.1345,-0.0544 -0.15968,-0.11317 -0.02239,-0.0616 -0.03359,-0.14986 -0.03359,-0.26458 v -2.08979 c 0,-0.36096 -0.102183,-0.63975 -0.306441,-0.83561 -0.201459,-0.19866 -0.485085,-0.29766 -0.851627,-0.29766 z m 2.799312,0 c -0.302188,0 -0.5706,0.10352 -0.805636,0.31058 -0.235034,0.20705 -0.35295,0.47679 -0.35295,0.80977 0,0.26021 0.06857,0.48432 0.205672,0.67179 0.137105,0.18467 0.373753,0.40559 0.709518,0.66301 0.249026,0.19026 0.415252,0.34127 0.499194,0.4532 0.08674,0.10912 0.130225,0.22971 0.130225,0.36122 0,0.12031 -0.04883,0.22784 -0.146761,0.32298 -0.09793,0.0923 -0.22119,0.13849 -0.369487,0.13849 -0.195863,0 -0.293522,-0.0686 -0.293522,-0.20567 0,-0.0252 0.008,-0.0687 0.02481,-0.13023 0.01679,-0.0671 0.02532,-0.12129 0.02532,-0.16329 0,-0.25462 -0.134464,-0.38189 -0.403076,-0.38189 -0.148296,0 -0.261169,0.0475 -0.339514,0.14262 -0.07834,0.0923 -0.117822,0.20254 -0.117822,0.33125 0,0.23503 0.09817,0.42953 0.294039,0.58343 0.19866,0.15109 0.457203,0.22686 0.77618,0.22686 0.335764,0 0.625252,-0.10353 0.86868,-0.31058 0.24343,-0.20985 0.365353,-0.50386 0.365353,-0.8816 0,-0.23783 -0.06137,-0.45022 -0.184485,-0.63769 -0.123114,-0.19026 -0.340024,-0.3973 -0.650606,-0.62115 -0.321775,-0.23223 -0.520799,-0.40031 -0.596346,-0.50384 -0.07555,-0.10632 -0.113172,-0.21838 -0.113172,-0.3359 0,-0.13711 0.04081,-0.2433 0.121957,-0.31884 0.08394,-0.0784 0.178928,-0.11731 0.285254,-0.11731 0.148295,0 0.222208,0.0488 0.222208,0.14676 0,0.0195 -0.008,0.0487 -0.02481,0.0879 -0.02518,0.0588 -0.03772,0.11215 -0.03772,0.15968 0,0.11754 0.0403,0.20852 0.121439,0.27285 0.08394,0.0615 0.178928,0.0925 0.285254,0.0925 0.131508,0 0.238217,-0.0435 0.319361,-0.13022 0.08394,-0.0867 0.125573,-0.19026 0.125573,-0.31058 0,-0.20984 -0.08913,-0.38327 -0.2682,-0.52038 -0.176278,-0.1371 -0.40172,-0.20567 -0.675928,-0.20567 z m 2.585372,0 c -0.374938,0 -0.674293,0.18731 -0.898137,0.56224 -0.221044,0.37494 -0.331762,0.88986 -0.331762,1.54461 0,0.67433 0.117914,1.18072 0.35295,1.51929 0.235034,0.33856 0.552277,0.50798 0.952396,0.50798 0.60438,0 0.938687,-0.3706 1.00304,-1.11208 l -0.449068,-0.076 c -0.08114,0.40852 -0.228148,0.61289 -0.4408,0.61289 -0.181873,0 -0.30914,-0.10085 -0.381889,-0.30231 -0.07275,-0.20146 -0.109037,-0.49095 -0.109037,-0.86868 v -0.34417 h 1.30948 c 0.06995,0 0.104904,-0.0336 0.104904,-0.10077 v -0.35243 c 0,-0.47846 -0.102185,-0.86345 -0.306442,-1.15445 -0.204256,-0.29099 -0.472669,-0.43615 -0.805635,-0.43615 z m 2.614827,0 c -0.302188,0 -0.571116,0.10352 -0.806152,0.31058 -0.235036,0.20705 -0.352433,0.47679 -0.352433,0.80977 0,0.26021 0.06857,0.48432 0.205672,0.67179 0.137104,0.18467 0.373753,0.40559 0.709517,0.66301 0.249026,0.19026 0.415253,0.34127 0.499195,0.4532 0.08674,0.10912 0.130224,0.22971 0.130224,0.36122 0,0.12031 -0.04883,0.22784 -0.146761,0.32298 -0.09793,0.0923 -0.221192,0.13849 -0.369486,0.13849 -0.195863,0 -0.293522,-0.0686 -0.293522,-0.20567 0,-0.0252 0.008,-0.0687 0.0248,-0.13023 0.01679,-0.0671 0.02532,-0.12129 0.02532,-0.16329 0,-0.25462 -0.134464,-0.38189 -0.403077,-0.38189 -0.148295,0 -0.261686,0.0475 -0.34003,0.14262 -0.07835,0.0923 -0.117306,0.20254 -0.117306,0.33125 0,0.23503 0.09818,0.42953 0.294039,0.58343 0.198661,0.15109 0.457203,0.22686 0.77618,0.22686 0.335766,0 0.625251,-0.10353 0.868681,-0.31058 0.24343,-0.20985 0.365352,-0.50386 0.365352,-0.8816 0,-0.23783 -0.06137,-0.45022 -0.184485,-0.63769 -0.123114,-0.19026 -0.340023,-0.3973 -0.650606,-0.62115 -0.321775,-0.23223 -0.520799,-0.40031 -0.596346,-0.50384 -0.07555,-0.10632 -0.113171,-0.21838 -0.113171,-0.3359 0,-0.13711 0.04081,-0.2433 0.121956,-0.31884 0.08394,-0.0784 0.178928,-0.11731 0.285254,-0.11731 0.148296,0 0.222209,0.0488 0.222209,0.14676 0,0.0195 -0.008,0.0487 -0.02481,0.0879 -0.02518,0.0588 -0.03772,0.11215 -0.03772,0.15968 0,0.11754 0.0403,0.20852 0.12144,0.27285 0.08394,0.0615 0.178928,0.0925 0.285254,0.0925 0.131507,0 0.238217,-0.0435 0.31936,-0.13022 0.08394,-0.0867 0.125574,-0.19026 0.125574,-0.31058 0,-0.20984 -0.08964,-0.38327 -0.268718,-0.52038 -0.176276,-0.1371 -0.401202,-0.20567 -0.675411,-0.20567 z m -30.134594,0.0336 c -0.272416,0.008 -0.523558,0.13523 -0.75396,0.38189 v -0.34417 l -0.994771,0.0295 c -0.06156,0.003 -0.0925,0.0293 -0.0925,0.0796 v 0.15503 c 0,0.0476 0.02508,0.0844 0.07545,0.10956 0.120316,0.0588 0.180867,0.16495 0.180867,0.31884 v 2.61069 c 0,0.12592 -0.04616,0.22491 -0.138492,0.29766 -0.03637,0.0279 -0.05478,0.0517 -0.05478,0.0713 v 0.22273 c 0,0.042 0.02241,0.063 0.06718,0.063 h 1.040763 c 0.03917,0 0.05891,-0.0184 0.05891,-0.0548 v -0.231 c 0,-0.0139 -0.01521,-0.0377 -0.04599,-0.0713 -0.06435,-0.07 -0.09663,-0.1524 -0.09663,-0.24753 v -2.56832 c 0.12871,-0.16789 0.262657,-0.25218 0.40256,-0.25218 0.145498,0 0.218591,0.10218 0.218591,0.30644 v 2.55592 c 0,0.0812 -0.03814,0.15107 -0.113688,0.2098 -0.03078,0.0223 -0.04599,0.0448 -0.04599,0.0672 v 0.21859 c 0,0.0447 0.02375,0.0672 0.07131,0.0672 h 1.024227 c 0.04197,0 0.06305,-0.0224 0.06305,-0.0672 v -0.17621 c 0,-0.0168 -0.01841,-0.0478 -0.05478,-0.0925 -0.07555,-0.0923 -0.113172,-0.18198 -0.113172,-0.26872 V 150.6 c 0,-0.26022 -0.06003,-0.47127 -0.180351,-0.63355 -0.117518,-0.16229 -0.28159,-0.2434 -0.491442,-0.2434 -0.0088,0 -0.01757,-2.5e-4 -0.02636,0 z m -5.19865,0.0377 -0.994771,0.0295 c -0.06155,0.003 -0.0925,0.0293 -0.0925,0.0796 v 0.15503 c 0,0.0448 0.02508,0.0816 0.07545,0.10956 0.120316,0.0616 0.180867,0.16775 0.180867,0.31884 v 2.59777 c 0,0.14832 -0.0587,0.25185 -0.176216,0.31058 -0.05316,0.0251 -0.0801,0.0659 -0.0801,0.12195 v 0.15503 c 0,0.0531 0.03095,0.0801 0.0925,0.0801 h 1.158069 c 0.06156,0 0.0925,-0.027 0.0925,-0.0801 v -0.15503 c 0,-0.0531 -0.02508,-0.094 -0.07545,-0.12195 -0.120316,-0.0616 -0.180351,-0.16508 -0.180351,-0.31058 z m -8.419641,0.31058 c 0.207055,0 0.310576,0.20118 0.310576,0.6041 v 0.57929 h -0.608232 v -0.41134 c 0,-0.51484 0.099,-0.77205 0.297656,-0.77205 z m 10.207646,0.0165 c 0.131507,0 0.226494,0.0896 0.285254,0.26871 0.05876,0.17628 0.08785,0.50391 0.08785,0.98237 v 0.99891 c 0,0.40291 -0.02909,0.67986 -0.08785,0.83096 -0.05596,0.14829 -0.145604,0.2222 -0.268718,0.2222 -0.145498,0 -0.246347,-0.0963 -0.302307,-0.28938 -0.05316,-0.19586 -0.07958,-0.54591 -0.07958,-1.04955 v -0.94826 c 0,-0.67713 0.121922,-1.01596 0.365352,-1.01596 z m 30.926278,0 c 0.207054,0 0.310575,0.20169 0.310575,0.60461 v 0.57929 h -0.608748 v -0.41134 c 0,-0.51484 0.09951,-0.77256 0.298173,-0.77256 z m -8.159192,0.18086 c 0.15669,0 0.268744,0.0825 0.335897,0.24753 0.06715,0.16229 0.100769,0.4894 0.100769,0.98186 0,0.81703 -0.03094,1.32928 -0.0925,1.53634 -0.06156,0.20706 -0.183479,0.31057 -0.365353,0.31057 -0.06995,0 -0.152396,-0.0197 -0.24753,-0.0589 v -2.9254 c 0.07275,-0.0615 0.162392,-0.092 0.268718,-0.092 z m -28.630811,1.35548 v 1.12034 c 0,0.10633 -0.02508,0.2045 -0.07545,0.29404 -0.05037,0.0867 -0.120269,0.13023 -0.209807,0.13023 -0.204256,0 -0.306441,-0.1945 -0.306441,-0.58343 0,-0.49525 0.197172,-0.81568 0.591695,-0.96118 z m 11.857158,0 v 1.12034 c 0,0.10633 -0.0256,0.2045 -0.07596,0.29404 -0.05036,0.0867 -0.120269,0.13023 -0.209806,0.13023 -0.204257,0 -0.306441,-0.1945 -0.306441,-0.58343 0,-0.49525 0.197687,-0.81568 0.592212,-0.96118 z m 9.701733,0.0165 v 1.12087 c 0,0.10631 -0.02508,0.20449 -0.07545,0.29403 -0.05036,0.0867 -0.120785,0.12971 -0.210323,0.12971 -0.204256,0 -0.305924,-0.19449 -0.305924,-0.58343 0,-0.49524 0.197171,-0.81568 0.591695,-0.96118 z m 4.528406,0 v 1.12087 c 0,0.10631 -0.02508,0.20449 -0.07545,0.29403 -0.05036,0.0867 -0.120269,0.12971 -0.209806,0.12971 -0.204257,0 -0.306441,-0.19449 -0.306441,-0.58343 0,-0.49524 0.19717,-0.81568 0.591695,-0.96118 z m 5.649267,0 v 1.12087 c 0,0.10631 -0.02508,0.20449 -0.07545,0.29403 -0.05036,0.0867 -0.120269,0.12971 -0.209807,0.12971 -0.204256,0 -0.306441,-0.19449 -0.306441,-0.58343 0,-0.49524 0.197172,-0.81568 0.591695,-0.96118 z"
       inkscape:export-filename="..\..\..\Documents\BootStrap-Website\learn.com\img\relational-databases.svg"
       inkscape:export-xdpi="96"
       inkscape:export-ydpi="96" />
  </g>
</svg>
