<?xml version="1.0" encoding="UTF-8" standalone="no"?>
<!-- Created with Inkscape (http://www.inkscape.org/) -->

<svg
   width="40.509129mm"
   height="6.6146011mm"
   viewBox="0 0 40.509129 6.6146011"
   version="1.1"
   id="svg5"
   xmlns:inkscape="http://www.inkscape.org/namespaces/inkscape"
   xmlns:sodipodi="http://sodipodi.sourceforge.net/DTD/sodipodi-0.dtd"
   xmlns="http://www.w3.org/2000/svg"
   xmlns:svg="http://www.w3.org/2000/svg">
  <sodipodi:namedview
     id="namedview7"
     pagecolor="#505050"
     bordercolor="#ffffff"
     borderopacity="1"
     inkscape:showpageshadow="0"
     inkscape:pageopacity="0"
     inkscape:pagecheckerboard="1"
     inkscape:deskcolor="#505050"
     inkscape:document-units="mm"
     showgrid="false" />
  <defs
     id="defs2" />
  <g
     inkscape:label="Layer 1"
     inkscape:groupmode="layer"
     id="layer1"
     transform="translate(-38.147138,-80.454908)">
    <path
       id="path4682"
       style="font-size:10.5833px;line-height:0px;font-family:'Bauhaus 93';-inkscape-font-specification:'Bauhaus 93, ';fill:#ffffff;fill-rule:evenodd;stroke:none;stroke-width:0.0950058"
       d="m 50.554673,80.454926 c -0.587756,0 -1.093969,0.21541 -1.51863,0.646226 -0.421584,0.427738 -0.632379,0.938568 -0.632379,1.532478 0,0.49236 0.140018,0.984727 0.420047,1.477088 0.175404,0.310802 0.263107,0.512365 0.263107,0.604683 0,0.141553 -0.05539,0.260028 -0.166173,0.355424 -0.107703,0.09232 -0.243104,0.138476 -0.406199,0.138476 -0.138477,0 -0.296957,-0.05693 -0.475437,-0.170787 v 1.82328 c 0.295415,0.138476 0.593913,0.207715 0.895484,0.207715 0.627759,0 1.158592,-0.212333 1.592485,-0.636994 0.43697,-0.424662 0.655458,-0.943185 0.655458,-1.555558 0,-0.418506 -0.129246,-0.852405 -0.387736,-1.301683 l -0.143092,-0.249259 c -0.110783,-0.193867 -0.166174,-0.353886 -0.166174,-0.480054 0,-0.147708 0.05078,-0.273876 0.152326,-0.378503 0.101549,-0.104626 0.223102,-0.156941 0.364656,-0.156941 0.07385,0 0.178481,0.02308 0.31388,0.06924 v -1.795586 c -0.249257,-0.08616 -0.503133,-0.129245 -0.761623,-0.129245 z m 11.230482,0 c -0.766236,0 -1.361692,0.21541 -1.786353,0.646226 -0.421583,0.427738 -0.632378,1.029348 -0.632378,1.804816 v 4.006601 h 1.874055 v -1.500167 h 0.54006 v -1.661724 h -0.54006 v -0.784703 c 0,-0.43697 0.146171,-0.655458 0.43851,-0.655458 0.150783,0 0.255411,0.0477 0.313882,0.143093 0.05847,0.0954 0.0877,0.266184 0.0877,0.512365 v 3.946594 h 1.874054 v -4.071224 c 0,-0.812394 -0.176943,-1.412466 -0.530828,-1.8002 -0.353884,-0.390811 -0.900103,-0.586219 -1.638644,-0.586219 z m 5.576006,0 c -0.353884,0 -0.697002,0.07232 -1.029345,0.216947 -0.332344,0.144631 -0.6093,0.341578 -0.830862,0.590835 -0.196944,0.22464 -0.336961,0.467746 -0.420047,0.729312 -0.08001,0.25849 -0.120013,0.590838 -0.120013,0.997034 v 3.923515 h 1.874055 v -4.117382 c 0,-0.363117 0.146171,-0.544677 0.43851,-0.544677 0.289262,0 0.433894,0.132324 0.433894,0.396967 0,0.289263 -0.189252,0.433895 -0.567755,0.433895 v 1.652492 l 0.286186,0.0046 c 0.720077,0 1.258603,-0.176944 1.615564,-0.530828 0.390811,-0.384658 0.58622,-0.886256 0.58622,-1.504783 0,-0.636991 -0.218488,-1.170902 -0.655458,-1.601717 C 68.538217,80.67032 68.00123,80.45491 67.361161,80.45491 Z m -29.214024,0.156941 v 6.300702 h 1.874055 v -4.606667 h 0.332345 c 0.455434,0 0.683153,0.149248 0.683153,0.447741 0,0.338498 -0.196947,0.507749 -0.590836,0.507749 h -0.147708 v 1.620181 l 0.909332,2.030996 h 1.966373 l -1.08012,-2.598751 c 0.556983,-0.436971 0.835478,-0.973958 0.835478,-1.610949 0,-0.624682 -0.224642,-1.140128 -0.673922,-1.546326 -0.40312,-0.363116 -0.970881,-0.544676 -1.703267,-0.544676 z m 7.505452,0 c -0.62776,0 -1.115511,0.166173 -1.46324,0.498516 -0.344653,0.332344 -0.516981,0.800092 -0.516981,1.403234 v 2.469506 c 0,0.624682 0.183099,1.103201 0.549292,1.435544 0.366194,0.329267 0.895488,0.493902 1.587869,0.493902 h 1.472472 V 85.112368 H 46.02186 c -0.218484,0 -0.363117,-0.02 -0.433894,-0.06001 -0.07078,-0.04308 -0.106166,-0.130785 -0.106166,-0.263107 0,-0.116937 0.03385,-0.200024 0.10155,-0.249259 0.07078,-0.04923 0.189252,-0.07385 0.355425,-0.07385 h 1.223212 v -1.403234 h -1.033961 c -0.196944,0 -0.333883,-0.02308 -0.410815,-0.06924 -0.07693,-0.04924 -0.115397,-0.135401 -0.115397,-0.258491 0,-0.209253 0.161558,-0.313881 0.484669,-0.313881 h 1.195518 v -1.809432 z m 6.046828,0 v 1.809432 h 1.435544 v 4.49127 h 1.874055 v -4.49127 h 1.430928 v -1.809432 z m 18.703622,0 v 6.300702 h 1.874054 v -6.300702 z m 2.861857,0 0.355424,2.524897 h 0.932411 l 0.355425,-2.524897 z m 4.869773,1.763272 c -0.600065,0 -1.069351,0.164636 -1.407849,0.493902 -0.193867,0.187712 -0.323113,0.376966 -0.387736,0.567755 -0.06154,0.190791 -0.104627,0.521599 -0.129245,0.992419 -0.01846,0.289261 -0.0877,0.492362 -0.207715,0.609299 -0.116936,0.113857 -0.313883,0.170787 -0.590835,0.170787 h -0.07847 v 1.827897 h 0.240026 c 0.59391,0 1.052427,-0.0954 1.375538,-0.286186 0.609297,-0.366194 0.953953,-0.993961 1.033961,-1.883287 0.02462,-0.267721 0.08155,-0.446204 0.170789,-0.535444 0.09232,-0.09232 0.26003,-0.138477 0.503133,-0.138477 v -1.818665 z"
       inkscape:label="REST API's Path"
       inkscape:export-filename="rest-api.svg"
       inkscape:export-xdpi="96"
       inkscape:export-ydpi="96" />
  </g>
</svg>
