<?xml version="1.0" encoding="UTF-8" standalone="no"?>
<!-- Created with Inkscape (http://www.inkscape.org/) -->

<svg
   width="33.843704mm"
   height="33.866669mm"
   viewBox="0 0 33.843704 33.866669"
   version="1.1"
   id="svg1631"
   xmlns:inkscape="http://www.inkscape.org/namespaces/inkscape"
   xmlns:sodipodi="http://sodipodi.sourceforge.net/DTD/sodipodi-0.dtd"
   xmlns="http://www.w3.org/2000/svg"
   xmlns:svg="http://www.w3.org/2000/svg">
  <sodipodi:namedview
     id="namedview1633"
     pagecolor="#505050"
     bordercolor="#ffffff"
     borderopacity="1"
     inkscape:showpageshadow="0"
     inkscape:pageopacity="0"
     inkscape:pagecheckerboard="1"
     inkscape:deskcolor="#505050"
     inkscape:document-units="mm"
     showgrid="false" />
  <defs
     id="defs1628" />
  <g
     inkscape:label="Layer 1"
     inkscape:groupmode="layer"
     id="layer1"
     transform="translate(-80.167421,-100.21866)">
    <g
       id="b949cace-c811-463d-a8b1-2ec5b414ab06"
       data-name="Layer 2"
       style="fill:#0d6efd;fill-opacity:1"
       inkscape:export-filename="..\S3-Uploads\satellite-vs2.svg"
       inkscape:export-xdpi="96"
       inkscape:export-ydpi="96"
       transform="matrix(0.1042019,0,0,0.1042019,80.170508,100.21866)">
      <g
         id="b5f48041-a383-4b27-91df-da154113ac72"
         data-name="Satellite"
         style="fill:#0d6efd;fill-opacity:1">
        <path
           id="ed876b28-e173-4e66-a998-e61d36ca1d1d"
           data-name="Satellite"
           d="m 157.07,109 -17.84,16.32 c 0.36,1.51 0.34,1.91 0.53,2.13 8,9.4 8.16,9.54 17,1 q 21.72,-21 43.06,-42.47 c 3.27,-3.27 6.73,-4.19 10.84,-2.61 14.47,5.53 24.47,15.68 30.38,29.92 2,4.69 0.77,8.47 -2.89,12.11 -15.35,15.28 -30.5,30.76 -45.72,46.17 -1.26,1.28 -2.46,2.61 -4.31,4.59 l 10.49,9.1 17,-18.67 109.15,109 -46.34,44.78 -107.61,-108.16 18.51,-15.9 -10.38,-11.08 c -4.88,4.7 -9.15,8.86 -13.48,12.94 -6.68,6.29 -10.4,6.36 -18,1 a 5,5 0 0 0 -4.45,0 64.65,64.65 0 0 0 -7.17,5.4 l 2.07,0.75 c 3.48,8.73 7.75,17.25 10.14,26.27 1.29,4.91 0.21,10.91 -1.29,16 -1.81,6.09 -5.59,7.54 -11.23,4.68 A 140.39,140.39 0 0 1 117.8,241.2 c -4.72,-3.35 -9,-7.39 -13.63,-11.32 -3.75,3.05 -7.31,5.87 -8.34,11.19 -1,5.14 -5.66,7.72 -11,7.07 a 9.35,9.35 0 0 1 -8.4,-9 c -0.35,-5.41 2.82,-9 7.73,-10.79 3.94,-1.44 7.4,-4.22 11.69,-6.78 -3.35,-3.82 -6,-6.36 -8.07,-9.3 -5.19,-7.3 -10.68,-14.49 -15,-22.3 -3.66,-6.6 -1.51,-10.31 5.68,-12.88 9,-3.2 17.44,-0.61 25.71,2.67 a 43.73,43.73 0 0 1 10,5.5 c 3.76,2.83 6.49,2.33 9.23,-1.18 1.2,-1.54 2.68,-2.86 4.13,-4.38 l -2.77,-3.35 c -4.65,-5.59 -4.66,-10.2 0.22,-15.49 4.49,-4.87 9.14,-9.58 14.36,-15 l -10.6,-9.58 -16.3,18.75 C 75.56,117.4 39.82,81.16 4.42,45.27 L 49.13,0 Z m -18.22,-1.26 -9.86,-10 -9,8.47 9.08,11.09 z m 108.77,126.75 c 7.9,11.36 10.89,11.56 18.53,1.46 0.09,-0.12 0.08,-0.32 0,0 l -9.35,-10.4 z M 70.11,58.08 c 3.09,-3.92 7.93,-7.39 7.78,-10.64 -0.13,-3 -5.49,-7.77 -8.79,-8 -3,-0.19 -6.24,4.78 -9.33,7.43 z m 20.13,19.65 c 2.59,-2.81 5,-5.12 7,-7.73 0.66,-0.85 0.92,-2.86 0.37,-3.63 -2.29,-3.21 -4.95,-6.14 -7.37,-9.05 L 78.63,68.14 c 2.8,2.21 5.15,4 7.47,5.93 1.14,0.93 2.22,1.93 4.14,3.66 z m 206.53,187.41 c -12.85,10.63 -10.41,8.53 -1.92,17.25 0.67,0.68 1.49,1.21 2.75,2.23 l 8.53,-9.46 z M 40.5,26.71 49.65,37.71 58.38,29 49.59,18.32 Z m 59.9,60.43 8.62,9.7 c 3.63,-3.34 6.71,-6.2 9.44,-8.72 -3.24,-3.59 -6.2,-6.89 -9.51,-10.57 z m 175.85,158.39 -8.83,8.77 9.9,10.81 9.44,-9.75 z m -68.92,-50 a 108.9,108.9 0 0 0 8.06,7.38 4.51,4.51 0 0 0 4.12,0.17 87,87 0 0 0 7.61,-5.68 l -10,-11.81 z m 29.78,10.13 -10.4,9.91 c 3.17,2.73 5.82,5.25 8.73,7.4 a 4.08,4.08 0 0 0 3.71,0.26 c 3,-2 5.73,-4.33 8.32,-6.35 z m 9.64,49.68 -8.7,-10.85 -9.37,8.51 c 1,1.24 1.59,2 2.26,2.73 8.34,8.85 8.49,8.84 15.81,-0.35 z M 41.29,64.94 52.16,76.08 c 2.54,-3.35 7.18,-6.85 6.77,-9.61 -0.47,-3.22 -5.07,-7.5 -8.43,-8.08 -2.59,-0.39 -6.04,4.13 -9.21,6.55 z m 69.17,70 9.87,-8.28 -9.81,-9.59 -10.1,8.15 z M 287.39,294.45 C 278.15,282.9 275,282.73 269,293.29 l 9.51,10 z M 79.4,87.78 70.35,78 l -9,7.65 c 11.56,12.73 8.49,11.75 18,2 0.19,-0.17 0.18,-0.38 0.05,0.13 z m 2.24,17.69 9.21,10.12 c 3.29,-3.15 6.19,-5.92 8.86,-8.49 L 90,96.65 Z m 107.92,107.64 8.64,9.6 9.14,-7.35 -9.34,-10.79 c -3.14,3.16 -5.8,5.87 -8.44,8.54 z m 28.44,29.52 9.56,-7.53 -9.28,-10.17 -9.06,8.07 c 3.47,3.81 6.46,7.07 8.78,9.63 z M 22,45.54 l 9,10.14 9,-8.3 c -7.5,-11.13 -10.61,-11.44 -18,-2 -0.07,0.12 0,0.31 0,0.16 z m 235.21,219 -8.26,8.2 9.93,11.09 9.36,-9.45 z m -172,47.17 A 86,86 0 0 1 68,309.6 C 37.11,302.13 8.71,271.89 13,229.38 c 0.79,-7.82 0.56,-7.85 -7.19,-9.58 l -1,-0.27 c -2.77,-0.83 -4.32,0.42 -4.31,3.1 0,10.93 -1.52,22.2 0.59,32.74 C 9.82,298.7 49,331.76 102,323.83 a 27.18,27.18 0 0 0 3.58,-1.11 c -1,-4.25 -2,-8.2 -2.84,-11.91 -6.28,0.37 -11.92,1.11 -17.52,0.92 z m 13.22,-19.6 c -0.32,-4.86 -2.67,-6.28 -7.48,-5.87 A 52.91,52.91 0 0 1 75.55,285.74 48.25,48.25 0 0 1 37.9,243.61 C 37.36,238.4 37.82,233.08 37.82,227.4 l -12.21,-2.54 c -3.87,21.79 0.93,40.55 15.86,56.17 15.84,16.58 35.43,21.79 58.24,17.78 a 56.74,56.74 0 0 1 -1.27,-6.68 z M 92,264.82 c -0.43,-2.55 -1.57,-3.75 -4.34,-3.46 -12.33,1.26 -25.23,-9.58 -24.76,-24.67 0,-1.18 -0.78,-3.19 -1.63,-3.46 -3.34,-1.06 -6.85,-1.57 -10.57,-2.35 -2.24,14.49 1.38,26 11.8,35 8.91,7.75 19.31,10.18 31.5,8.12 -0.86,-3.68 -1.57,-6.41 -2,-9.18 z"
           fill="#2c6db0"
           style="fill:#0d6efd;fill-opacity:1" />
      </g>
    </g>
  </g>
</svg>
