<svg xmlns="http://www.w3.org/2000/svg" viewBox="0 0 3462.74 3023.72"><defs><style>.cls-1,.cls-2{fill:#fff;}.cls-2{stroke:#fff;stroke-miterlimit:10;stroke-width:30px;}</style></defs><g id="Layer_2" data-name="Layer 2"><g id="XYZ"><path id="Grid" class="cls-1" d="M1747,2543.91c13.06,4.15,26.4-.79,39.74,3.66-.36,2.75-.31,5.2-1,7.39q-22.83,68.23-45.85,136.4c-.93,2.76-2.35,5.36-4.18,9.46-2.3-2.81-4.28-4.28-5-6.21-5.07-14.64-9.85-29.37-14.78-44.06q-15.73-46.89-31.49-93.78c-.91-2.7-1.29-5.57-2.08-9.14,13.63-4.68,27.49.5,40.92-3.71.62-2.89,1.66-5.71,1.74-8.55.25-8.49.14-17,.14-25.49q0-115.5,0-231c0-5.92-.38-11.85-.58-18-5.08-2.74-9.39-5.21-13.82-7.42q-98.62-49.17-197.29-98.28-52.35-26-104.79-51.92-117.61-58.1-235.27-116.13-121.71-60-243.52-119.75Q872,1839,814.14,1810.6c-1.35-.66-2.76-1.22-4-2-8.27-5-16.19-4.92-25.43-1.26-44.12,17.49-88.54,34.27-132.83,51.33-4.62,1.78-9.15,3.78-14.93,6.18,2,2.51,3.09,4.78,4.87,5.87,6.8,4.2,13.89,7.92,20.76,12,2.89,1.73,5.5,4,9.61,6.94-3.55,1.57-5.51,3-7.6,3.26-13.9,1.56-27.84,2.88-41.76,4.24q-73.12,7.15-146.25,14.25c-3.29.32-6.63,0-9.67,0-1.43-4.89,1.87-6.08,4.15-7.64,14.83-10.18,29.75-20.25,44.63-30.37,15.7-10.68,31.38-21.42,47.11-32,4.08-2.76,8.35-5.23,13-8.14,8.69,4.85,17.17,9.07,25.1,14.15,6.52,4.18,12.54,4.67,19.77,1.85,47-18.35,94.14-36.39,141.21-54.61,2.13-.83,4-2.38,7.18-4.31-3.89-2.7-6.44-5-9.39-6.43q-65.24-32.13-130.56-64.07-48.45-23.79-96.85-47.67Q432,1623,331.64,1573.91c-29.16-14.31-58.19-28.88-87.34-43.22q-86.1-42.36-172.25-84.6a110.16,110.16,0,0,1-10.6-5.58c-1.92-1.22-3.3-3.27-5.92-6,4-2.06,6.76-4,9.83-5q40.71-12.94,81.52-25.6,158.87-49.47,317.76-98.88,184.65-57.4,369.32-114.74,55.83-17.36,111.56-35c3.25-1,6.38-2.42,11.13-4.26-2.8-2.3-4.25-4.22-6.16-5-15.35-6-30.78-11.84-46.2-17.67-17.3-6.53-34.68-12.83-51.89-19.59-6-2.36-11.45-2.78-17.24.3-3.51,1.87-7.41,3-11,4.76-5.41,2.64-10.2,2.61-15.38-1.07C787.62,1097.73,766.23,1083,745,1068c-1.08-.76-1.65-2.25-2.38-3.27,1.3-3.53,4.07-2.91,6.37-2.7q32.85,3,65.67,6.2,35.08,3.36,70.14,6.78c5.34.52,10.88.27,16.59,3.71-6.59,8.66-19.06,6.91-25.67,16.1a91.35,91.35,0,0,0,8.26,4.24c32.68,12.47,65.45,24.69,98,37.39,7.93,3.09,15.15,3.13,23.22.59q94.38-29.68,188.92-58.84,96.61-30,193.24-60.09,161-50.16,321.93-100.41c4.71-1.48,9.3-3.37,14.35-5.22.54-3.84,1.17-7.19,1.44-10.56.23-3,.06-6,.06-9q0-203.23,0-406.46c0-5.92,1.05-12-1.59-18.21-12.75-4.61-26.62.59-40.5-3.44.31-2.93.1-5.87,1-8.44q22.8-68.24,45.9-136.36c.88-2.6,2.68-4.88,4.41-8,5,4.79,6.14,10.24,7.84,15.28,9.28,27.45,18.37,55,27.58,82.43,4.77,14.21,9.72,28.36,14.44,42.58,1.23,3.7,1.93,7.59,3,11.94-13.49,5-27.4-.61-40.48,3.94-.49,2.08-1.31,4-1.31,5.85q0,218.22.1,436.45c0,1.9.91,3.79,1.58,6.4,13.25,4.24,26.47,8.61,39.78,12.7q141.81,43.62,283.67,87.12,103.17,31.62,206.39,63.11,89.57,27.51,179,55.42c8.08,2.53,15.15,2.74,23.12-.44,28.31-11.28,56.87-22,85.29-33,2.17-.84,4-2.42,6.54-4-5.62-7.52-15-6.88-20.78-12.55.69-4.23,4.33-3.36,6.82-3.62q33.55-3.43,67.15-6.53,36.57-3.42,73.15-6.65c2.43-.22,4.9,0,8.8,0-1.37,2.63-1.77,4.69-3,5.6q-31.46,23.06-63.11,45.81c-1.17.84-2.69,1.2-5.1,2.24-7.62-3.19-15.94-6.47-24.08-10.17a19.35,19.35,0,0,0-15.92-.33c-28.42,11-56.88,21.92-85.3,32.94-1.31.51-2.36,1.71-3.83,2.81,1.61,4.68,6,4.81,9.42,5.88q45.1,14.06,90.27,27.85,121.8,37.35,243.63,74.62c68.34,20.78,136.84,41,205.18,61.77q109,33.12,217.85,66.8,61.62,18.92,123.2,37.89c4.2,1.29,8.65,2,12.5,6.17a33.37,33.37,0,0,1-3.93,4.07,38.63,38.63,0,0,1-5.31,2.76q-166.07,83.6-332.15,167.16c-60.3,30.3-120.72,60.34-181,90.59q-61.65,30.91-123.16,62.1-24.77,12.5-49.43,25.19c-2.18,1.13-4.21,2.56-6.07,3.7-.61,5.53,3.54,5.82,6.6,7q47.64,18.09,95.33,36c13.06,4.94,26.12,9.85,39.54,14.91l34.8-19.13c37.17,24.13,73,49.55,109.44,74,1,.68,1.42,2.28,2.09,3.43-1.11.79-1.9,1.84-2.57,1.77q-100-9.85-199.91-20c-1.29-.13-2.49-1.15-4.67-2.21,4.29-6.59,11.42-8.28,16.85-12.14,5.6-4,12.65-5.89,18-12.42-3.53-1.88-6.3-3.76-9.35-4.92q-53.22-20.31-106.51-40.42c-7-2.66-14.21-4.9-21-8-6.61-3.08-12.27-2-18.46,1.16-18.2,9.41-36.63,18.39-54.93,27.61q-55.58,28-111.11,56-148,74.52-296,149-66.3,33.37-132.56,66.82-138.6,69.81-277.2,139.6c-13.39,6.74-26.72,13.62-40,20.53-3,1.59-5.87,3.61-8.33,5.15C1744.59,2282.37,1744.76,2530.63,1747,2543.91ZM1993.73,2133c-2.08-1.7-3.08-2.9-4.35-3.48q-57.17-26.36-114.37-52.65c-4.54-2.1-8.5-1.64-12.83.49-12.55,6.17-25.24,12.06-37.84,18.13q-33.09,15.95-66.11,32c-2.5,1.22-5.8,1.93-6.18,6.8,12.29,8.53,27,13.47,40.62,20.28,13.87,6.9,27.92,13.44,41.93,20s27.92,13,41,19.11C1905,2181.41,1982.05,2141.92,1993.73,2133ZM1606,2193.59c2.83-1,4.3-1.37,5.63-2q41.83-20.14,83.65-40.35c8.54-4.13,17.09-8.26,25.52-12.62,4.54-2.35,4.88-6.86.56-9.33-6-3.46-12.4-6.42-18.7-9.43-27-12.89-54.32-25.3-81-38.81-8.7-4.39-15.65-4.37-23.75.4-6.42,3.78-13.54,6.37-20.33,9.53-25.36,11.8-50.73,23.55-76,35.5-4.3,2-9.65,2.87-12.48,9.05C1527.63,2155.85,1566.85,2174.27,1606,2193.59Zm272.31-124c4.39,3.09,6.13,4.75,8.21,5.71,36.72,17,73.52,33.77,110.22,50.8a16.57,16.57,0,0,0,15.65-.29c33-16.67,66.09-33.12,99.13-49.71,2-1,4.7-2,3.91-6.86-40.55-18-81.76-36.71-123.43-54.69Zm-515.69,2.4c3.89,2.78,5.66,4.45,7.76,5.49,33.49,16.65,67.06,33.13,100.5,49.87,4.94,2.48,9.19,2.72,14.11.2,8.42-4.32,17-8.27,25.62-12.28,26.21-12.22,52.47-24.34,78.63-36.65,3.34-1.57,7.82-2.19,8.75-7.75a54.38,54.38,0,0,0-6-3.84c-32.35-15.56-64.78-31-97.09-46.6-6.81-3.3-12.85-3.32-19.9-.06-33.48,15.47-67.2,30.44-100.82,45.64C1371.11,2067.46,1368.13,2069.18,1362.63,2072Zm640.57-61.13c3,1.95,4.74,3.51,6.81,4.43,36.91,16.53,73.88,32.92,110.75,49.53,5.15,2.32,9.46,1.48,14.21-.9,32.12-16.18,64.32-32.19,96.45-48.34,2-1,4.77-1.87,4.42-6.12a72.09,72.09,0,0,0-7-3.93c-35.33-15.17-70.73-30.18-106-45.49-6.44-2.8-12.06-3-18.5.18-31.81,15.66-63.8,31-95.7,46.44C2007,2007.48,2005.69,2008.93,2003.2,2010.9Zm-508.9,1.87c3.67,2.19,4.88,3.06,6.21,3.69,33.82,16,67.73,31.86,101.44,48.1,6.55,3.15,12.07,2.82,18.44-.21,30.65-14.56,61.49-28.71,92.13-43.3,4.55-2.17,12.11-2.51,11.47-9.78-.51-5.72-7-6.51-11.34-8.53-29-13.4-58.15-26.44-87-40.1-7.91-3.74-14.58-3.86-22.59-.11-32.1,15-64.5,29.35-96.76,44C1503.17,2007.93,1500.21,2009.68,1494.3,2012.77Zm-19.36-.11c-3.52-2.38-5-3.71-6.78-4.55-32.91-15.66-65.88-31.19-98.74-47-5-2.42-9.35-2-14.22.24-9.49,4.46-19.17,8.51-28.79,12.69q-37.1,16.1-74.22,32.15c-3.46,1.5-7.25,2.58-9.58,6.93a78,78,0,0,0,6.77,4.37c30.87,15.31,61.88,30.33,92.56,46,7.94,4,14.57,4,22.56.31,33.06-15.33,66.39-30.09,99.6-45.13C1467.18,2017.3,1470,2015.4,1474.94,2012.66Zm505.72-.67c-2.77-2.19-4.38-4.09-6.43-5-34.11-15.28-68.32-30.33-102.38-45.72-6-2.71-11.07-2.58-17,.25-31.95,15.21-64.07,30.06-96.09,45.13-2.47,1.17-4.58,3.09-7.85,5.35,3.15,2,5.06,3.53,7.22,4.53,34.4,15.87,68.87,31.58,103.21,47.57,5.54,2.58,10.1,2.28,15.52-.39,30.84-15.21,61.86-30.07,92.78-45.14C1973.1,2016.87,1976.3,2014.61,1980.66,2012Zm-377.7-57.6c-2.8-2.07-4.49-3.8-6.54-4.76-32.12-14.86-64.3-29.57-96.4-44.47-4.84-2.24-9.13-2.65-14.22-.41-35.13,15.46-70.38,30.64-105.56,46-1.7.74-3.07,2.24-5.71,4.23,4.15,2.54,7.24,4.82,10.64,6.46,30.54,14.69,61.18,29.17,91.66,44,6,2.9,11.21,2.65,17.07,0,34-15.53,68.1-30.85,102.13-46.33C1598.14,1958.08,1599.94,1956.44,1603,1954.39Zm748.74-1a69.53,69.53,0,0,0-6-3.55c-36.87-15.32-73.79-30.54-110.62-46-6.11-2.55-11.39-1.7-17.14,1.12-29.57,14.51-59.27,28.76-88.88,43.19-1.62.8-2.87,2.37-5.13,4.3,2.75,1.79,4.6,3.4,6.74,4.32,36.68,15.79,73.42,31.42,110.06,47.29,5,2.17,9.25,2.18,14.17-.33,29.35-15,58.83-29.68,88.22-44.56C2345.63,1958,2347.81,1956.11,2351.7,1953.44Zm-249-.93c-5.94-2.74-9-4.26-12.19-5.62-30.23-12.94-60.43-26-90.74-38.75-18.18-7.66-14.22-8-31.88.89-1.33.67-2.75,1.18-4.1,1.81-26.2,12.22-52.43,24.36-78.54,36.77-3.25,1.54-8.11,1.84-8.6,7.63a31.67,31.67,0,0,0,4.65,3.12c34.58,15.42,69.24,30.68,103.75,46.26,5.68,2.56,10.31,1.73,15.57-.85,30.42-14.92,61-29.59,91.42-44.45C2095,1957.88,2097.66,1955.78,2102.73,1952.51Zm-750.18,1.91c-3.91-2.57-6.52-4.73-9.48-6.18-12.11-5.92-24.33-11.61-36.5-17.42q-24.33-11.62-48.63-23.29c-5.49-2.63-10.64-4.44-17.1-1.66-35.77,15.41-71.73,30.38-107.58,45.59-2.08.88-4.91,1.53-4.88,5.23.86.8,1.72,2.09,2.93,2.69,30.85,15.35,61.77,30.56,92.58,46,5.49,2.74,10.4,2.07,15.74-.27,34.76-15.23,69.59-30.3,104.36-45.5C1346.57,1958.45,1348.86,1956.67,1352.55,1954.42Zm1110.3-56.5c-2.81-2.22-3.81-3.43-5.1-4-37-15-74-29.74-110.91-44.82-5.76-2.35-10.46-1.2-15.63,1.31-28.24,13.74-56.58,27.28-84.84,41-2.51,1.22-4.71,3.08-7.5,4.94,3.42,4.83,7.93,5.74,11.91,7.4,33.6,14,67.3,27.72,100.77,42,7.66,3.26,13.95,2.63,21.16-1.12,27.43-14.25,55.11-28,82.67-42C2457.52,1901.57,2459.46,1900.09,2462.85,1897.92Zm-488.69.3c-6.66-3.35-10.51-5.49-14.52-7.26-8.22-3.62-16.53-7-24.79-10.54q-33.74-14.39-67.43-28.83c-5.18-2.23-10-3.63-15.74-1-32.19,14.77-64.51,29.27-96.73,44-1.47.68-2.41,2.51-4.19,4.45,2.54,1.64,4,2.91,5.73,3.67,33.7,15,67.48,29.92,101.1,45.15,5.19,2.35,9.31,1.66,14.12-.61,29.31-13.87,58.73-27.51,88.08-41.29C1963.74,1904.07,1967.49,1901.81,1974.16,1898.22Zm-248.45.07c-4.08-2.64-6.71-4.85-9.72-6.21-30.06-13.51-60.23-26.79-90.26-40.36-5.91-2.67-11.27-2.86-17.22-.25-32.92,14.48-65.93,28.74-98.86,43.18-1.56.68-2.69,2.32-4.74,4.17,2.36,1.78,3.71,3.22,5.38,4,32.62,15.11,65.32,30.06,97.9,45.26,5.11,2.39,9.37,1.64,14.2-.62,16.29-7.6,32.74-14.88,49.12-22.29,15-6.8,30.07-13.51,45-20.47C1719.44,1903.32,1721.91,1901,1725.71,1898.29Zm-244,.54c-2.87-2.49-3.82-3.77-5.09-4.36q-46.2-21.43-92.44-42.75c-5.43-2.52-10.43-1.78-15.81.52-33.06,14.12-66.22,28-99.3,42-3,1.28-5.76,3.27-9.15,5.24,1.74,1.83,2.51,3.22,3.67,3.78,30.59,14.71,61.29,29.21,91.8,44.09,6,2.93,11.05,2.74,17,.09,33.32-14.77,66.79-29.2,100.19-43.8C1475.18,1902.54,1477.61,1901,1481.67,1898.83Zm-243.77,1.29c-3.79-2.91-5.11-4.34-6.75-5.12-29.22-14-58.53-27.8-87.71-41.9-5.49-2.65-10.26-2.17-15.68.08-34.07,14.14-68.25,28-102.37,42.06-3.14,1.29-6.11,3-10.71,5.2,4,2.71,6.47,4.87,9.33,6.3,27.22,13.56,54.62,26.77,81.69,40.64,7.5,3.84,13.77,3.35,21.21.12,30.65-13.27,61.53-26,92.31-39C1224.68,1906.19,1230,1903.65,1237.9,1900.12Zm978.21-2.85c-5.63-3.61-10.69-5.44-15.69-7.5-30-12.35-60-24.62-89.75-37.36-7.9-3.38-14.53-3.6-22.56.32-27.32,13.35-55.08,25.8-82.63,38.68-3,1.41-5.83,3.35-10.06,5.82,3.56,2.36,5.7,4.25,8.18,5.34,13.71,6,27.5,11.77,41.26,17.64,19.72,8.42,39.48,16.75,59.12,25.35,5.85,2.57,11.11,3,17.09,0,29.52-14.54,59.2-28.76,88.77-43.2C2211.84,1901.41,2213.39,1899.53,2216.11,1897.27Zm353.89-53.5c-3.17-2.11-4.64-3.5-6.39-4.19q-55.09-21.66-110.25-43.21c-3.45-1.36-6.56-1.69-10,0-29.19,14.24-58.44,28.36-87.6,42.64-1.5.74-2.4,2.72-4.11,4.76,4.47,2.11,8,4,11.61,5.45,33.33,13.51,66.75,26.82,100,40.51,7,2.9,13.05,2.84,19.91-.73,26.61-13.82,53.46-27.16,80.2-40.73C2565.06,1847.4,2566.57,1846.11,2570,1843.77Zm-1444,2.34c-5.37-3.13-8.18-5-11.2-6.49-10.78-5.22-21.62-10.32-32.45-15.43-16.25-7.67-32.56-15.22-48.74-23-4.79-2.32-9.13-2.94-14.28-.88-35.66,14.33-71.43,28.4-107.12,42.67-2,.8-3.6,2.62-6.17,4.56,2.61,1.92,4,3.3,5.7,4.14,28.17,14,56.44,27.77,84.53,41.93,6,3,11.25,2.44,17.11,0,34.59-14.32,69.27-28.43,103.89-42.67C1119.45,1850,1121.48,1848.6,1126,1846.11Zm238.34-2c-1.41-1.07-2.75-2.5-4.4-3.26-29.44-13.58-58.94-27-88.35-40.67-5-2.32-9.43-1.83-14.32.19-34.12,14.08-68.32,28-102.45,42-2.11.87-3.89,2.57-6.78,4.54,2.9,2,4.71,3.67,6.81,4.73,6.68,3.36,13.46,6.53,20.21,9.75,21.61,10.31,43.27,20.5,64.79,31,5.88,2.87,11.34,3.07,17.17.28,4.5-2.14,9.16-4,13.75-5.89q42.06-17.73,84.1-35.49C1358.31,1849.81,1362.77,1849.42,1364.3,1844.09Zm23.79,1.1c3.15,2.44,4.19,3.6,5.49,4.2,30.79,14.19,61.65,28.25,92.41,42.51,5,2.3,9.38,2.14,14.3,0,32.9-14.37,65.88-28.57,98.78-42.94,2.06-.9,3.69-2.81,6.1-4.7-2.44-1.73-3.88-3.16-5.62-3.94-30-13.5-60.1-26.86-90.09-40.43-5.93-2.68-11.28-2.35-17.2.19-31.63,13.54-63.38,26.8-95.06,40.22C1394.6,1841.39,1392.21,1843,1388.09,1845.19Zm699.34-1.1a81.68,81.68,0,0,0-7.49-4.16c-32.69-13.59-65.44-27-98.11-40.7a20,20,0,0,0-17.22.41c-29.92,13.7-60,27.11-89.94,40.73-1.52.69-2.57,2.4-3.8,3.6,1.21,1.41,1.7,2.49,2.51,2.84q52.89,22.79,105.84,45.47c4,1.73,7.6,1.12,11.44-.68,29.81-14,59.69-27.78,89.48-41.78C2082.61,1848.66,2084.56,1846.39,2087.43,1844.09Zm23.24-.34c4.72,2.37,6.84,3.61,9.08,4.54,33.12,13.8,66.3,27.47,99.36,41.41,7.1,3,13.36,2,20-1.22,26.37-13,52.86-25.8,79.27-38.74,2.55-1.26,4.86-3,8.41-5.28-3.1-2-4.88-3.67-7-4.53-33.69-13.73-67.48-27.22-101.09-41.14-6.27-2.59-11.51-1.53-17.12,1.12-27.06,12.74-54.16,25.37-81.22,38.11C2117.78,1839.24,2115.41,1840.93,2110.67,1843.75ZM1253,1793.48c-2.51-1.83-3.92-3.26-5.64-4-28.57-13.21-57.2-26.29-85.74-39.54a17.07,17.07,0,0,0-14.4-.26c-34.78,13.95-69.61,27.77-104.36,41.77-1.48.59-2.42,2.52-3.56,3.77,1.27,1.39,1.79,2.41,2.61,2.8,29.28,14,58.62,27.94,87.86,42.06,5,2.39,9.3,2.12,14.28.06,34.17-14.13,68.43-28,102.62-42.08C1248.78,1797.15,1250.47,1795.35,1253,1793.48Zm236.08-.86c-2.16-1.48-3.94-3.14-6-4.08-29.19-13-58.45-25.78-87.61-38.83-5-2.24-9.41-1.89-14.31.14q-49.12,20.3-98.37,40.34c-2.31,1-4.7,1.89-3.93,6.38,32.18,15.25,65.29,30.2,97.55,44.75C1400.13,1833.61,1480.41,1799,1489.11,1792.62Zm496.06-1c4.87,2.63,7.32,4.25,10,5.35,32.3,13.38,64.66,26.59,96.9,40.1,6.09,2.56,11.36,2.09,17.18-.66,28-13.23,56.12-26.19,84.17-39.31,2.08-1,4.68-1.89,4.12-5.77a31.89,31.89,0,0,0-4.67-2.83c-32.82-13.42-65.71-26.67-98.49-40.2-6.64-2.74-12.36-1.69-18.62,1.19-27.23,12.53-54.61,24.7-81.91,37.06C1991.65,1787.54,1989.67,1789,1985.17,1791.62Zm-236.41.5c2.55,2,3.59,3.14,4.91,3.71q48.81,21.06,97.65,42.05c5.53,2.39,10.44,1.6,15.76-.83,29.51-13.47,59.14-26.68,88.69-40.09,2-.91,4.73-1.77,4.27-5.82-2.25-1.19-4.73-2.78-7.42-3.89-30.42-12.63-60.93-25-91.27-37.86-6-2.52-11-2.83-17.09-.14-29.65,13.15-59.5,25.88-89.25,38.81C1753.27,1788.82,1751.78,1790.13,1748.76,1792.12Zm475.1-.72c2,1.63,3,2.83,4.19,3.33q52.59,21.4,105.23,42.73c4.53,1.84,8.6,1.08,12.89-1,27.32-13.31,54.74-26.43,82.06-39.75,2.43-1.19,5.9-1.83,5.92-6.52a23.77,23.77,0,0,0-4.37-2.86c-33.38-13.13-66.82-26.09-100.16-39.31-6.52-2.58-12.23-2.17-18.58.86-27,12.87-54.17,25.31-81.23,38C2227.79,1787.83,2226.16,1789.62,2223.86,1791.4Zm-711.09,1.31c2.82,2.19,4.44,4,6.47,4.93,30,13.46,60.11,26.71,90.1,40.24a18,18,0,0,0,15.74,0c30.57-13.43,61.21-26.69,91.78-40.13,2.44-1.07,4.46-3.12,7.66-5.42-3.14-2.07-5-3.73-7.15-4.66-30.23-13-60.54-25.73-90.72-38.79-5.11-2.21-9.35-1.45-14.21.62-29.79,12.73-59.69,25.18-89.52,37.81C1519.82,1788.61,1516.94,1790.47,1512.77,1792.71ZM1166.2,1743.8c3.23,2.27,4.34,3.33,5.66,3.94,29,13.38,58,26.64,86.9,40.12,5,2.36,9.46,1.68,14.31-.33,31.8-13.13,63.66-26.09,95.47-39.19,2.55-1,4.85-2.7,7.83-4.4-1.74-1.94-2.46-3.41-3.61-3.92-29.58-13.24-59.21-26.34-88.8-39.56-4.44-2-8.49-1.6-12.93.18-32.4,13-64.87,25.78-97.28,38.71C1171.6,1740.21,1169.7,1741.71,1166.2,1743.8Zm1142.19-2.43c-2.66-1.62-4.17-2.85-5.9-3.55-8.32-3.37-16.69-6.62-25-9.89-23.71-9.28-47.51-18.29-71.06-27.94-8.07-3.3-15.2-3.55-22.76.9-4.27,2.52-9,4.19-13.6,6.23-20.49,9.21-41,18.33-61.41,27.73-3.29,1.52-8,2-8.55,7.73a82.06,82.06,0,0,0,7.64,4c31.48,12.68,63.07,25.1,94.44,38,7.17,3,13.13,2.33,19.93-.92,26.57-12.69,53.36-24.91,80-37.41C2304.11,1745.34,2305.72,1743.49,2308.39,1741.37Zm-442.93.15c3.6,2.26,5.82,4.12,8.37,5.19,30.87,12.9,61.81,25.63,92.67,38.56a18.33,18.33,0,0,0,15.81-.12c28.15-12.91,56.42-25.56,84.59-38.41,2.12-1,3.86-2.76,6.66-4.82-2.87-1.93-4.68-3.62-6.81-4.5-31-12.69-62-25.23-93-37.91-6-2.47-11.41-1.53-17.25,1.06-27.4,12.15-55,23.93-82.42,35.93C1871.52,1737.64,1869.16,1739.36,1865.46,1741.52ZM1401,1743c2.06,2.26,2.58,3.29,3.41,3.66q45.75,20.42,91.54,40.72c3.95,1.76,7.64,1.43,11.52-.22,32.13-13.63,64.29-27.17,96.38-40.87,1.43-.61,2.28-2.55,3.58-4.07-2-1.45-3-2.6-4.33-3.17-29.31-12.61-58.71-25-87.93-37.83-5.6-2.45-10.27-2-15.67.27-29.46,12.24-59,24.17-88.57,36.3C1407.82,1739,1405,1740.84,1401,1743Zm-593.33-47.32c-4.27-2.85-6.09-4.38-8.17-5.4-9-4.39-18-8.63-27-12.92-14.84-7.09-29.7-14.14-44.51-21.3-5.56-2.69-11-4.19-17.22-1.91-35.55,13.07-71.17,26-106.72,39-1.54.56-2.66,2.26-4.79,4.14,3.5,2,6,3.64,8.57,5q14,7.1,28.1,14c13.86,6.83,27.91,13.3,41.56,20.53,6.82,3.62,13.12,4.08,19.91.78.89-.43,1.85-.74,2.78-1.09q46.23-17.27,92.44-34.56C796.75,1700.38,800.77,1698.52,807.64,1695.63ZM809,1799.51c2.94,2.45,3.92,3.65,5.18,4.27,24.57,12.21,49.21,24.3,73.76,36.56,4.9,2.44,9.38,2.12,14.34.13,35.65-14.32,71.38-28.45,107-42.75,1.6-.65,2.8-2.31,5-4.21-3.78-2.41-6.46-4.54-9.46-6-21.6-10.35-43.37-20.33-64.85-30.92-7.33-3.61-13.81-3.67-21.37-.68-33.41,13.18-67,25.88-100.51,38.83C815.53,1795.8,813.09,1797.39,809,1799.51Zm1650.16-8.68c3,1.7,4.94,3.11,7.1,4,35.76,14.09,71.59,28,107.31,42.24,5.19,2.07,9.54,1.42,14.26-1,14.68-7.47,29.47-14.74,44.21-22.11,8.93-4.46,17.91-8.84,26.74-13.51,1.83-1,3.07-3.06,4.82-4.89-2.06-1.57-3.1-2.8-4.42-3.3-35.91-13.68-71.88-27.21-107.76-41-6.12-2.35-11.41-1.79-17.19,1.06-23.28,11.48-46.72,22.63-70.05,34C2462.63,1787.09,2461.48,1788.73,2459.19,1790.83Zm413-99c-5.41-2.63-8.29-4.37-11.39-5.48-32.42-11.62-65-22.84-97.25-34.9-8.81-3.29-16.12-2.58-24.22,1.47-22.33,11.16-44.91,21.8-67.33,32.76-2.5,1.22-4.62,3.2-8.07,5.65,3.31,1.79,5.29,3.17,7.48,4,34.62,12.88,69.31,25.57,103.88,38.6,7.27,2.74,13.36,1.3,19.91-2.1,22.16-11.49,44.51-22.61,66.76-33.93C2864.63,1696.59,2867.08,1694.93,2872.24,1691.86Zm-1581.82,2.7c1.9,2.07,2.17,2.59,2.59,2.78q44.37,19.94,88.75,39.86c5.48,2.47,10.48,1.63,15.83-.59,30.43-12.61,61-25,91.41-37.55,2.08-.86,3.88-2.41,5.83-3.65-1.15-1.7-1.5-2.9-2.24-3.22-30.2-13.14-60.45-26.16-90.65-39.31-4-1.77-7.65-1-11.51.51-31.08,12.35-62.2,24.59-93.27,36.95C1295.05,1691.18,1293.23,1692.77,1290.42,1694.56Zm228.3.22c4.65,2.69,6.59,4.09,8.74,5,28.39,12.22,56.86,24.27,85.19,36.63,5.52,2.41,10.43,2.12,15.79-.15,29.83-12.67,59.73-25.17,89.55-37.85,2.07-.88,3.73-2.75,6.55-4.91-3.47-2.11-5.77-4-8.39-5-28.05-11.74-56.2-23.26-84.2-35.11-5.54-2.35-10.23-1.91-15.67.36-28.06,11.72-56.28,23.06-84.41,34.62C1528.26,1689.82,1524.83,1691.77,1518.72,1694.78Zm459.39-2.47c3.3,2.44,4.64,3.93,6.32,4.61,31.86,12.88,63.8,25.58,95.62,38.53,5.14,2.1,9.57,1.31,14.29-.83,27.68-12.54,55.41-25,83.08-37.52,2.07-.95,4.8-1.87,3.89-6-2.68-1.3-5.66-3-8.83-4.26-29.25-11.37-58.6-22.5-87.77-34.08-6.53-2.6-12.17-2.62-18.59.24-25.5,11.32-51.17,22.24-76.75,33.39C1986.24,1687.77,1983.3,1689.58,1978.11,1692.31Zm-228.86,1.53c2,1.56,3,2.79,4.3,3.33,31.29,13,62.64,25.82,93.89,38.89,5.16,2.16,9.52,1.16,14.29-.92,28.76-12.55,57.61-24.93,86.39-37.45,2.11-.92,4.79-1.7,4.62-4.89-.63-.83-1.06-2-1.83-2.3-31.36-12.82-62.76-25.52-94.1-38.36-5-2.05-9.48-1.58-14.37.5-28.86,12.33-57.82,24.43-86.71,36.71C1753.65,1690.23,1751.93,1692,1749.25,1693.84Zm-814.68-46.16c-3.91-2.66-5.41-4-7.15-4.82-24.91-11.5-49.87-22.85-74.75-34.4-5.37-2.5-10.27-2.32-15.8-.26-32.26,12-64.63,23.61-96.93,35.47-3.13,1.15-6,3-9.93,4.92,2.42,2,3.74,3.51,5.43,4.31,24.73,11.85,49.57,23.49,74.25,35.44,6.33,3.06,12.15,3,18.65.53,32.16-12.23,64.44-24.15,96.65-36.27C927.61,1651.62,930,1650.05,934.57,1647.68Zm-33.7,92.56c-3.08-2.56-4.08-3.78-5.37-4.4-23.34-11.24-46.77-22.3-70-33.67-6-2.94-11.42-1.76-17.21.43-32.17,12.12-64.41,24.07-96.6,36.16-4.12,1.55-8.09,3.52-13.32,5.82,2.63,2.38,4.09,4.41,6.07,5.39,22.3,11.1,44.76,21.9,67,33.11,6.81,3.42,12.86,3.24,19.93.46,33.39-13.1,67-25.68,100.47-38.53C894.42,1744,896.81,1742.4,900.87,1740.24Zm41.11,7.82c1.71,2.41,2.09,3.56,2.85,3.92,25.59,12.32,51.23,24.53,76.83,36.83,3.95,1.9,7.59,1.29,11.48-.27q51.34-20.58,102.74-41c2.15-.86,5-1.18,5.44-5.46a55.35,55.35,0,0,0-6.68-4.23c-22.14-10.3-44.46-20.22-66.43-30.86-7.47-3.63-13.9-3.18-21.33-.25-31.53,12.41-63.23,24.38-94.84,36.58C948.85,1744.51,945.85,1746.21,942,1748.06Zm466.43-100.12c4,2.33,5.65,3.5,7.44,4.27,27.48,11.76,55,23.37,82.44,35.26,5.75,2.5,11,3.72,17.13,1.13,29.86-12.51,59.87-24.68,89.79-37,2.13-.89,5-1.33,5.23-5.48-1.09-.83-2.39-2.32-4-3-28.49-11.93-57-23.71-85.51-35.66-5.47-2.3-10.48-1.77-15.85.38-29.59,11.85-59.27,23.5-88.87,35.31C1414.06,1644,1412.23,1645.53,1408.41,1647.94Zm1163.19,87.8c2.53,1.67,4,3,5.71,3.71,36.38,13.88,72.8,27.63,109.17,41.52,4.63,1.77,8.63,1,12.88-1.11,22.74-11.47,45.56-22.77,68.29-34.24,2-1,4.78-2,3.8-6a40.14,40.14,0,0,0-4.75-2.43c-35.11-13-70.3-25.8-105.31-39-6.79-2.57-12.47-1.66-18.59,1.37-21,10.4-42.17,20.58-63.22,30.94C2577,1731.68,2574.8,1733.58,2571.6,1735.74Zm393.69-91.85c-3.48-2.07-5-3.38-6.82-4-34.84-12.05-69.73-24-104.54-36.07-5.67-2-10.52-1-15.73,1.53-23.28,11.36-46.69,22.45-70,33.75-1.6.78-2.77,2.46-5.09,4.58,3.47,1.75,5.9,3.3,8.54,4.26,33.76,12.13,67.58,24,101.28,36.34,6.59,2.4,12.2,2.31,18.52-1,22.52-11.76,45.28-23.06,67.92-34.61C2961,1647.83,2962.29,1646.34,2965.29,1643.89Zm-902.42,2.51c-3.09-2.06-4.84-3.71-6.91-4.52-29.69-11.63-59.44-23.08-89.12-34.73a21.64,21.64,0,0,0-17.33.42c-26.56,11.37-53.21,22.53-79.79,33.85-2.18.92-4.12,2.4-7.38,4.34,3.43,2.25,5.58,4.19,8.09,5.23,28.56,11.75,57.24,23.22,85.74,35.12,7,2.94,13.19,2.56,20-.49,26.38-11.78,52.94-23.18,79.39-34.79C2057.72,1649.89,2059.61,1648.4,2062.87,1646.4Zm468.51,98.86c-3.24-2-4.4-3-5.75-3.55-34.08-13-68.2-25.84-102.26-38.87-5.58-2.13-10.66-1.48-15.89,1-23.05,10.85-46.17,21.57-69.2,32.48-1.9.9-3.25,3-5,4.59,1.65,1.35,2.32,2.22,3.19,2.57q53,20.77,106.07,41.47c4.59,1.8,8.67.88,12.92-1.21,22.88-11.23,45.84-22.29,68.72-33.49C2526.32,1749.19,2528.13,1747.54,2531.38,1745.26Zm-2120.76-141c3.85,2.5,6.51,4.61,9.49,6.1q25.49,12.69,51.12,25.12c5.84,2.85,11.8,5.43,17.61,8.32,4.35,2.17,8.38,1.9,12.93.25,33.83-12.22,67.75-24.19,101.62-36.3,2.66-1,5.15-2.39,9.25-4.32-3-2.29-4.66-4-6.66-5-23-11-46-21.88-68.93-33a19.1,19.1,0,0,0-15.77-1c-34.46,11.92-69,23.54-103.52,35.38C415.6,1600.53,413.76,1602.24,410.62,1604.24Zm2125.9,40.2c5.32,2.76,7.77,4.39,10.46,5.38,31.35,11.54,62.82,22.71,94,34.61,8.27,3.15,15.2,2.4,22.81-1.38,21.87-10.88,43.95-21.33,65.89-32.06,2.49-1.22,4.62-3.16,8.14-5.63-3.35-1.79-5.33-3.17-7.52-4-32.81-11.84-65.7-23.46-98.43-35.53-6.31-2.33-11.59-1.25-17.17,1.37-20.3,9.53-40.65,19-60.95,28.52C2548.91,1638.05,2544.15,1640.59,2536.52,1644.44ZM506.31,1649.8c2,2.44,2.47,3.51,3.27,3.91q36.12,18.07,72.29,36c4.38,2.18,8.56,1.67,13,0q52.68-19.3,105.42-38.47c2.24-.82,4.9-1.47,4.31-5.19a18.86,18.86,0,0,0-3.31-2.53c-23.38-11.2-46.84-22.25-70.18-33.55-5.45-2.64-10.36-1.94-15.79,0-33.78,12.18-67.63,24.12-101.45,36.2C511.67,1647.05,509.62,1648.24,506.31,1649.8Zm523.47,40.5c-3.25-1.8-4.91-2.86-6.69-3.67-23.57-10.81-47.18-21.54-70.73-32.39-4.91-2.26-9.53-1.82-14.44,0-33.61,12.62-67.27,25.09-100.88,37.72-2.15.81-4,2.53-7,4.5,4,2.38,6.82,4.33,9.85,5.79,20.68,9.93,41.55,19.47,62.05,29.75,7.32,3.68,13.71,4,21.29,1,32-12.66,64.16-24.83,96.24-37.26C1022.16,1694.69,1024.58,1693.07,1029.78,1690.3Zm496.13-89.36c2.9,2.06,4.65,3.83,6.77,4.72,28.11,11.76,56.32,23.31,84.4,35.14,5.53,2.33,10.51,2,15.87-.2,28.15-11.66,56.37-23.16,84.52-34.82,2.14-.89,3.93-2.59,5.73-3.81-1.86-5.31-6.23-5.79-9.77-7.23-25.47-10.31-51.08-20.27-76.45-30.83-7.53-3.14-14.13-2.86-21.55.17-26.82,11-53.83,21.44-80.74,32.19C1532,1597.33,1529.58,1599,1525.91,1600.94Zm680.9,91.64c3.75,2,5.42,3,7.23,3.73,32.56,12.71,65.17,25.27,97.66,38.14a20.31,20.31,0,0,0,17.23-.51c23.49-11.06,47-22,70.5-33.1,1.5-.7,2.46-2.54,4.44-4.68-4.17-1.85-7.25-3.4-10.46-4.62-31.26-11.86-62.59-23.57-93.8-35.59-6-2.32-11.41-2.35-17.27.34-23.14,10.62-46.4,21-69.57,31.54C2211.12,1688.58,2209.83,1690.13,2206.81,1692.58Zm-1348.24-90.9c1.52,2.25,1.71,2.87,2.1,3q39.93,18.7,79.91,37.36c4.38,2.05,8.71,1.51,13.07-.12q49-18.37,98-36.82c1.42-.54,2.29-2.52,3.41-3.81-1.42-1.29-2-2.2-2.89-2.58-26-11.6-52-23.1-77.89-34.73-5.43-2.44-10.54-1.81-15.92.16-30.91,11.35-61.87,22.54-92.78,33.86C863.45,1598.84,861.48,1600.17,858.57,1601.68Zm211.64,97.66c2.23,1.88,3.46,3.46,5.08,4.2,24.4,11.3,48.88,22.44,73.29,33.74,5,2.3,9.54,1.61,14.38-.33,31.9-12.76,63.85-25.4,95.75-38.17,2.12-.85,4-2.43,7-4.38-3.57-2.31-5.79-4.2-8.35-5.34-22.73-10.17-45.58-20.08-68.24-30.38-6-2.72-11.29-2.3-17.19,0-31.55,12.28-63.2,24.31-94.78,36.52C1075,1696,1073.09,1697.6,1070.21,1699.34Zm1342.31-100.28c4.92,2.38,7,3.59,9.18,4.4,31.78,11.78,63.66,23.27,95.3,35.4,7.46,2.86,13.48,1.13,19.92-1.9,21.64-10.2,43.33-20.3,65-30.52,3.07-1.45,5.92-3.34,10.16-5.77-3.63-2.07-5.91-3.86-8.51-4.8-31.41-11.3-63-22.23-94.25-33.88-7.26-2.7-13.16-2.19-19.9,1-21.67,10.13-43.57,19.79-65.34,29.71C2421,1594.07,2418.09,1595.94,2412.52,1599.06Zm-663,1.74c2.94,2,4.76,3.68,6.92,4.55,28.24,11.38,56.58,22.53,84.77,34,6,2.43,11.15,2.66,17.19.06,27-11.66,54.27-22.88,81.37-34.39,2-.82,3.45-2.68,6.06-4.79-3.43-1.8-5.49-3.16-7.74-4-27.88-10.93-55.83-21.68-83.65-32.76-6.55-2.61-12.35-2-18.7.64-25.79,10.76-51.72,21.17-77.57,31.81C1755.5,1597,1753.1,1598.75,1749.52,1600.8Zm887-1.94c4.91,2.24,7.43,3.6,10.1,4.57q32.33,11.65,64.71,23.19c10.32,3.7,20.62,7.45,30.93,11.15,5.34,1.91,10.58,2.32,15.93-.32,23.69-11.68,47.45-23.2,71.12-34.92,1.47-.73,2.37-2.65,3.74-4.27-2-1.32-3.05-2.44-4.39-2.9-33.9-11.74-67.84-23.35-101.72-35.14a15.89,15.89,0,0,0-12.89.77c-23.43,11.08-47,21.92-70.43,32.92C2641.9,1594.72,2640.45,1596.1,2636.52,1598.86Zm-190.8,88.68c3.36,4.37,7.89,5.29,12,6.85,29.88,11.35,59.89,22.36,89.59,34.14,8.68,3.44,16,3.22,24.24-.91,21-10.54,42.25-20.47,63.35-30.75,1.56-.77,2.71-2.38,5.18-4.61-4.62-2.2-8-4.12-11.57-5.45-30.44-11.3-61-22.22-91.31-33.87-8.19-3.16-15.08-2.84-22.84.93-20.66,10.05-41.61,19.5-62.39,29.3C2449.81,1684.18,2448,1685.91,2445.72,1687.54ZM833.24,1601.45c-2.43-1.81-3.8-3.26-5.47-4-23.13-10.71-46.35-21.2-69.41-32-6-2.8-11.27-2.21-17.26,0-31.47,11.41-63.07,22.46-94.59,33.73-3.17,1.13-6.13,2.84-10.47,4.89,3,2.14,4.74,3.83,6.83,4.84,22.5,10.86,45.09,21.53,67.56,32.45,5.88,2.86,11.33,2.45,17.3.26,32.82-12.08,65.74-23.9,98.59-35.9C828.5,1604.81,830.39,1603.2,833.24,1601.45Zm2220.34-3.54c-2.54-1.3-5.3-3.17-8.35-4.21-33.58-11.39-67.22-22.6-100.79-34-5.12-1.74-9.55-1.14-14.34,1.23-21.94,10.83-44,21.36-66,32.14-1.86.91-3.19,2.89-5.51,5.07,3.45,1.64,5.59,2.91,7.89,3.71,34,11.78,68,23.43,101.92,35.3,6.15,2.15,11.5,1.4,17.21-1.51,20.46-10.45,41.1-20.54,61.61-30.9C3049.71,1603.48,3053,1602.77,3053.58,1597.91ZM540.86,1559c4.41,2.87,6.3,4.41,8.43,5.44,22.52,10.82,45.11,21.51,67.61,32.37a19.49,19.49,0,0,0,15.91.64c32.94-11.77,65.94-23.38,98.88-35.15,2.08-.74,3.84-2.38,5.43-3.4-1-4.75-4.45-5-7-6.22-21.75-10.13-43.68-19.86-65.3-30.25-6.94-3.34-13-3-20-.54-31.08,11-62.32,21.61-93.48,32.41C548.61,1555.28,546,1556.69,540.86,1559Zm633.16-.78c-1-1.74-1.32-3-2-3.31q-40.5-17.58-81.06-35c-3.93-1.69-7.71-1.17-11.62.26-31.38,11.52-62.79,22.94-94.15,34.52-1.55.57-2.66,2.34-4.22,3.77,1.76,1.54,2.7,2.85,4,3.41,26,11.57,52,23,78,34.61,4.46,2,8.47,1.68,12.94,0,30.8-11.61,61.69-23,92.5-34.6C1170.42,1561.12,1172.16,1559.47,1174,1558.25Zm1339.14,88.41c-2.27-2.25-2.84-3.26-3.68-3.57-34.05-12.74-68.15-25.36-102.18-38.16-4.63-1.74-8.66-1-12.92.9-22.2,10.13-44.47,20.14-66.67,30.29-2.07,1-3.85,2.54-7.12,4.75,3.72,2.16,6,3.92,8.57,4.9,31.65,12.07,63.36,23.94,95,36,6.5,2.49,12.22,2.11,18.56-1,21.05-10.25,42.36-19.95,63.54-29.93A77.66,77.66,0,0,0,2513.16,1646.66ZM2707.35,1556c-2-1.71-3.15-3.46-4.74-4-32.57-11.3-65.22-22.37-97.76-33.75-6-2.11-11.46-2.11-17.29.57-22.7,10.44-45.51,20.65-68.24,31-2.12,1-4.86,1.74-4.36,5.9a26,26,0,0,0,4.5,2.57c32.44,11.66,64.93,23.18,97.36,34.88a19.22,19.22,0,0,0,15.83-.87c23-11,46.19-21.56,69.26-32.38C2703.63,1559.07,2705.05,1557.64,2707.35,1556Zm-1556.9,88.35c-1.72-2-2.43-3.49-3.58-4-24.13-10.78-48.33-21.4-72.46-32.2-4.47-2-8.55-1.61-13,.06-31.72,12-63.5,23.79-95.22,35.77-2.58,1-4.84,2.78-8.4,4.87,3.73,2.21,6.12,3.94,8.76,5.15,21.28,9.82,42.72,19.3,63.86,29.42,6.89,3.3,12.88,3.47,20,.68,30.61-12.06,61.41-23.66,92.11-35.51C1145.1,1647.52,1147.47,1645.9,1150.45,1644.3Zm-828.18-84.53c2.8,2.61,3.7,3.93,5,4.55,21.9,10.87,43.87,21.6,65.74,32.52,4.89,2.44,9.53,2.22,14.44.41q9.83-3.63,19.74-7c27.38-9.37,54.78-18.67,82.13-28.1,2.63-.91,6.1-1.42,5.78-5.58-.68-.73-1.21-1.73-2-2.12-22-10.58-44.13-21-66.13-31.68a19.38,19.38,0,0,0-15.8-.79c-32.07,11-64.27,21.67-96.4,32.53C331.05,1555.74,327.58,1557.5,322.27,1559.77Zm1060.52,88.56c-1-5.31-5-5.51-8-6.81-21.52-9.35-43.19-18.34-64.59-28-7-3.14-12.94-3.08-20-.28-29.7,11.74-59.62,22.94-89.43,34.42-2.25.86-4.25,2.37-7.35,4.14,2.65,2,4.32,3.86,6.4,4.8,23.69,10.6,47.47,21,71.16,31.61a17.31,17.31,0,0,0,14.41.29c31-12.5,62.12-24.84,93.15-37.32C1380.19,1650.55,1381.56,1649.18,1382.79,1648.33Zm895.44.74c-2.82-1.46-4.48-2.54-6.29-3.23-31.2-11.88-62.46-23.61-93.6-35.67-5.71-2.21-10.65-1.23-15.81,1-22.83,10-45.68,19.93-68.47,30-2,.9-3.67,2.7-5.55,4.13,1.27,1.42,1.79,2.51,2.61,2.84q48.63,19.24,97.32,38.37c5,2,9.69,1.23,14.44-.94,23.14-10.53,46.33-20.94,69.43-31.54C2274.32,1653.16,2275.82,1651.15,2278.23,1649.07ZM2487,1556.23c-3-2-4.75-3.71-6.82-4.46-29.5-10.72-59.07-21.23-88.56-32a25.07,25.07,0,0,0-20.14.79c-23.17,10.43-46.6,20.28-69.87,30.5-1.95.85-3.42,2.77-6,5,3.46,1.66,5.58,2.89,7.85,3.73,29.85,11.19,59.76,22.24,89.58,33.52,6.11,2.31,11.52,1.48,17.25-1.15,23.09-10.62,46.28-21,69.4-31.55C2481.79,1559.63,2483.74,1558.19,2487,1556.23Zm-1387.18-42.54c1.84,2.69,2.2,3.87,2.94,4.19,27,11.77,53.88,23.58,81,35,2.82,1.18,7,.76,10-.35q46.29-17.07,92.37-34.74c1.5-.57,2.52-2.43,4-4-1.79-1.49-2.76-2.76-4-3.29-25.29-10.59-50.67-20.94-75.88-31.69-6.6-2.81-12.5-1.67-18.74.62-26.19,9.62-52.44,19.1-78.65,28.71C1108.69,1509.67,1104.72,1511.59,1099.81,1513.69Zm1850.12,39.71c3.24,1.89,5.14,3.46,7.33,4.2,33.59,11.36,67.3,22.43,100.8,34.07,6.81,2.37,12.34,1.72,18.5-1.44,19.56-10,39.3-19.7,58.94-29.58a82.9,82.9,0,0,0,7.15-4.66c-3.05-2-4.83-3.65-7-4.36-33.62-11.31-67.33-22.34-100.89-33.82-6.27-2.15-11.5-1.5-17.18,1.3-19.27,9.49-38.68,18.7-58,28.14C2956.66,1548.71,2954,1550.81,2949.93,1553.4ZM764.4,1558.18c1.49,2.31,1.82,3.52,2.55,3.86q37.21,17.39,74.49,34.64c3.42,1.59,6.65,1.18,10.09-.07,32.27-11.78,64.59-23.44,96.85-35.27,2-.75,3.64-2.68,6.32-4.73-3.23-1.95-5.17-3.43-7.34-4.39-22.3-9.9-44.68-19.64-67-29.63a21.31,21.31,0,0,0-17.2-.67c-30.4,11.1-61,21.78-91.44,32.67A76.37,76.37,0,0,0,764.4,1558.18Zm-335.55-41.67c-4.28-3.24-6-5-8-6-20.67-10-41.43-19.72-62.08-29.69-4.87-2.36-9.55-2.28-14.47-.6q-15.58,5.32-31.19,10.52c-23.2,7.67-46.43,15.25-69.6,23-2.53.84-6.23.93-6,6,2.09,1.29,4.45,3,7,4.31,17.88,8.85,35.94,17.33,53.64,26.52,8.12,4.21,15.46,4.81,24.24,1.68,24.88-8.9,50.09-16.9,75.16-25.27C407,1523.88,416.45,1520.69,428.85,1516.51ZM2923,1555.94c-1.83-1.61-2.76-3-4-3.47-33.44-11.49-67-22.77-100.37-34.36-5.7-2-10.63-1.14-15.77,1.29-21.17,10-42.38,19.93-63.54,30-2,1-4.92,1.53-4.46,5.3.94.76,1.91,2.06,3.18,2.5,33.87,11.84,67.78,23.54,101.63,35.41,5.18,1.82,9.56.81,14.27-1.51,20.56-10.14,41.25-20,61.84-30.09C2918.21,1559.76,2920.33,1557.81,2923,1555.94ZM859.56,1515.72c-2.3-2-3.48-3.61-5.06-4.32-23.23-10.4-46.53-20.61-69.75-31-5.9-2.65-11.52-2.22-17.42-.19-30.67,10.54-61.38,20.95-92,31.52-2.14.73-4,2.37-6.85,4.16,2.61,1.91,4,3.3,5.66,4.07,23.55,10.89,47.18,21.62,70.7,32.59,5,2.3,9.42,2,14.39.16,31.45-11.35,63-22.49,94.45-33.76C855.34,1518.3,856.85,1517.2,859.56,1515.72ZM1311.71,1606c4.28,2.73,5.8,4,7.55,4.76,23.33,10.13,46.76,20,70,30.35,6.1,2.7,11.49,1.79,17.26-.53,29.64-11.86,59.33-23.58,89-35.41,2.16-.87,4.76-1.68,4.19-5.24a19.74,19.74,0,0,0-3.49-2.43c-23.47-9.83-47-19.5-70.42-29.41-6.43-2.72-12.35-2.32-18.77.2-27.39,10.75-54.92,21.15-82.37,31.75C1321.1,1601.39,1317.7,1603.2,1311.71,1606Zm-861.33-89.24c3.78,2.37,5,3.29,6.31,3.93,21.64,10.29,43.36,20.44,64.92,30.9,5.87,2.85,11.2,2.75,17.24.58,18.79-6.74,37.75-13,56.63-19.54,13.69-4.71,27.39-9.37,41-14.27,2-.71,3.5-2.63,6.3-4.83-4.26-2.35-7.16-4.2-10.25-5.62-18.59-8.56-37.37-16.73-55.79-25.66-7.78-3.77-14.73-4.07-22.92-1.22-29.7,10.33-59.64,20-89.47,30C460.67,1512.2,457.13,1513.92,450.38,1516.73Zm1520.68,83.86c1.92,1.46,3,2.68,4.28,3.2,31.09,12.17,62.24,24.21,93.3,36.44,5.14,2,9.57,1,14.34-1.1,23.27-10.22,46.64-20.2,69.91-30.42,2-.85,3.43-2.81,5.47-4.55-2.13-1.43-3.25-2.51-4.6-3-30.72-11.71-61.49-23.31-92.19-35.09a18.13,18.13,0,0,0-14.41.43c-23.39,9.94-46.85,19.74-70.22,29.72C1974.88,1597.07,1973.23,1598.93,1971.06,1600.59Zm1066.33-89.29c5.1,2.22,7.24,3.34,9.51,4.1,33.09,11.12,66.23,22.07,99.25,33.37a18.52,18.52,0,0,0,15.68-1.25c20.38-10.52,40.89-20.78,61.3-31.23,1.63-.83,3.73-1.83,2.78-5.43a43.28,43.28,0,0,0-5.83-2.79c-33.14-10.92-66.33-21.7-99.45-32.68-5.68-1.88-10.58-.91-15.77,1.65-18.77,9.28-37.7,18.25-56.51,27.44C3045.35,1506,3042.63,1508,3037.39,1511.3Zm-1956.27,91c2.9,2.4,3.89,3.64,5.17,4.22,23.19,10.4,46.42,20.7,69.62,31.08a17.72,17.72,0,0,0,14.47.22c6.48-2.6,13-5,19.52-7.55,23.71-9.15,47.42-18.26,71.09-27.51,2.51-1,4.69-2.81,7.94-4.81-2.6-1.9-4-3.37-5.7-4.11-22.85-9.92-45.77-19.68-68.6-29.64-5.48-2.39-10.53-1.66-15.89.36-29.82,11.29-59.71,22.41-89.55,33.65C1087,1599,1085,1600.32,1081.12,1602.3Zm1307.3-2.47c-1.66-1.28-3-2.87-4.63-3.49-30.9-11.47-61.87-22.76-92.75-34.27a19.79,19.79,0,0,0-15.87.34c-22.39,9.86-44.91,19.45-67.33,29.25-2.12.93-4.78,1.91-4,6.48,34.69,13.32,69.85,27,104.44,39.32C2338,1625.91,2379.13,1606.63,2388.42,1599.83Zm-19.6-86.28c-3.08-1.8-5-3.33-7.12-4.11-29.59-10.71-59.26-21.21-88.8-32.07-5.65-2.08-10.43-1.54-15.8.76-23.41,10-47,19.73-70.43,29.68-2.09.89-4.88,1.57-5.12,5.67,1.18.79,2.56,2.18,4.24,2.8,29.94,11.21,59.92,22.3,89.87,33.49,5.52,2.07,10.56,1.39,15.9-1,23.29-10.33,46.71-20.37,70-30.6C2363.78,1517.24,2365.66,1515.61,2368.82,1513.55Zm429.54-.11c-2.83-1.94-3.9-3.06-5.2-3.5q-50.28-17.2-100.61-34.33c-4.14-1.42-7.83-.63-11.56,1.06-21.36,9.7-42.75,19.34-64,29.15-2.47,1.13-4.5,3.2-8.12,5.84,5.51,2.36,9.42,4.34,13.53,5.76,29.24,10.11,58.63,19.83,87.72,30.34,7.22,2.61,13.06,2.52,19.9-.8,20.64-10,41.58-19.48,62.36-29.23C2794.06,1516.92,2795.5,1515.51,2798.36,1513.44Zm-1724.23.87c-4.12-2.6-5.64-3.85-7.38-4.6-22.44-9.67-45-19.16-67.33-29-6.39-2.79-12.33-2.64-18.79-.31-29.06,10.5-58.22,20.74-87.3,31.18-2.64.94-5,2.67-8.66,4.66,2.16,1.6,3.2,2.71,4.48,3.28,24.59,11,49.23,21.8,73.79,32.82,4,1.81,7.53,1.11,11.45-.34,30.39-11.22,60.84-22.26,91.25-33.43C1067.83,1517.81,1069.83,1516.51,1074.13,1514.31Zm1507.48-.81c-1.3-4.52-4.64-4.82-7.26-5.73-29.65-10.26-59.37-20.32-89-30.63-5-1.75-9.44-1.86-14.37.32-23.69,10.48-47.5,20.69-71.21,31.1-1.55.68-2.69,2.32-4.41,3.87,2,1.49,3,2.64,4.29,3.1,31.39,11.32,62.82,22.52,94.19,33.87,5.11,1.84,9.54.87,14.32-1.33,22.17-10.22,44.48-20.12,66.69-30.24C2577.34,1516.69,2579.52,1514.86,2581.61,1513.5Zm431.94-1.39c-4.65-2.17-6.76-3.42-9-4.18-32.14-10.69-64.32-21.26-96.44-32-5.1-1.71-9.45-1.15-14.28,1.19-20.18,9.77-40.54,19.15-60.78,28.78-2.55,1.22-4.79,3.1-8.43,5.5,3.74,2,6.1,3.6,8.72,4.49,32.55,11.06,65.15,21.93,97.67,33.06,4.72,1.61,8.6.79,12.83-1.28,20.57-10.08,41.24-20,61.83-30C3007.75,1516.57,3009.55,1514.92,3013.55,1512.11Zm-1609.67-38.95c-2.46-2.26-3.37-3.67-4.64-4.19-26.33-10.66-52.72-21.17-79-31.87-4.56-1.86-8.64-1.15-13,.44-28.55,10.42-57.15,20.71-85.69,31.17-2,.74-5,1.11-4.87,4.85,1,.84,1.94,2.11,3.19,2.63,25.75,10.77,51.56,21.39,77.29,32.21,5.46,2.3,10.43,1.82,15.86-.25,27-10.28,54.13-20.28,81.19-30.44C1396.9,1476.69,1399.46,1475.25,1403.88,1473.16Zm1061.9-1.35c-3.05-2-4.83-3.71-7-4.45-29.7-10.4-59.48-20.58-89.17-31a18.51,18.51,0,0,0-14.42.39c-23.88,10.25-47.86,20.25-71.78,30.38-2.25,1-4.6,2.05-3.67,5.28a11.46,11.46,0,0,0,2.44,1.72c30.54,11,61.16,21.87,91.61,33.14,6.39,2.36,11.7.71,17.26-1.7q33-14.33,66-28.73C2459.7,1475.64,2462.1,1473.94,2465.78,1471.81Zm-1080.15,81.68c-2.72-2.07-3.75-3.25-5.06-3.8-23.43-9.86-46.9-19.61-70.34-29.46-4.41-1.85-8.52-1.59-13,.1-30.3,11.47-60.68,22.72-91,34.12-1.7.64-3.12,2-5.84,3.83,3.42,2.19,5.59,4,8.09,5.11,21,9.16,42.2,18,63.12,27.34,6.86,3.07,12.85,3.29,20,.47,29.19-11.55,58.62-22.5,87.93-33.75C1381.23,1556.78,1382.7,1555.41,1385.63,1553.49Zm-595-79.07c2.42,1.88,3.78,3.42,5.48,4.18,23.2,10.4,46.46,20.65,69.67,31,4.88,2.18,9.55,1.91,14.48.1,13.57-5,27.21-9.74,40.83-14.57,16.43-5.84,32.9-11.59,49.3-17.55,2.51-.91,6.18-1.36,5.36-5.68a10.87,10.87,0,0,0-2.28-1.91q-35.67-15.43-71.38-30.82a19.07,19.07,0,0,0-14.52-.32c-30.12,10.48-60.29,20.82-90.4,31.34C795,1470.94,793.27,1472.66,790.59,1474.42Zm1076.07,724.06c-10.5-8.24-20.58-11.43-29.87-15.87-28.71-13.71-57.71-26.84-86.64-40.11-.69-.31-1.85.41-3.12.73-.45,1.13-1.42,2.44-1.43,3.76q-.16,53-.09,106.07c0,1.3,1,2.61,1.8,4.56,2-.46,4-.53,5.64-1.34C1790.23,2237.6,1827.88,2219.63,1866.66,2198.48Zm403.87-641.74c-2.24-2.15-2.83-3.14-3.68-3.46q-46.12-17.35-92.27-34.63c-5.51-2.08-10.67-1.42-15.93.81-22.45,9.53-45,18.93-67.39,28.55-1.85.8-3.16,2.87-5.11,4.71a42.41,42.41,0,0,0,4.85,2.8c29.76,11.37,59.59,22.57,89.29,34.11,7.12,2.77,13.32,1.75,20.05-1.27,20-9,40.17-17.48,60.24-26.26C2263.67,1560.75,2266.53,1558.91,2270.53,1556.74ZM554,1473c-4.76-2.74-6.8-4.13-9-5.15-19.06-8.74-38.29-17.11-57.14-26.25a26.53,26.53,0,0,0-21.52-1.39c-30.74,10.37-61.62,20.33-92.41,30.55-2.6.86-4.93,2.57-8.22,4.34,3.49,4.61,7.77,6.05,11.69,7.91,17.58,8.35,35.36,16.32,52.71,25.11,6.86,3.48,13,3.7,20,1.3,31.17-10.61,62.46-20.92,93.67-31.42C546.48,1477.09,548.9,1475.52,554,1473Zm2571.69-3.84c2.53,1.6,4,3,5.83,3.6q50.41,16.62,100.9,33.07a17.91,17.91,0,0,0,14.42-1.25c20-10.19,40.13-20.1,60.11-30.31,1.8-.91,2.91-3.18,5.42-6.07-12.91-4-24.28-7.55-35.64-11.14q-34.22-10.82-68.41-21.73c-5.87-1.88-11.49-2.78-17.39.13-19.68,9.69-39.47,19.16-59.15,28.84C3129.77,1465.28,3128.17,1467.14,3125.71,1469.14Zm-2974.25,6c2.68,3,3.41,4.43,4.58,5,20.53,10.22,41.15,20.26,61.66,30.53,4.92,2.46,9.44,1.86,14.38.21,33.58-11.17,67.22-22.18,100.82-33.3,2.23-.74,4.94-1.3,5.06-5.36a26.74,26.74,0,0,0-4.22-3c-18.87-9.07-37.87-17.89-56.64-27.16-6.74-3.33-12.91-3.58-20.07-1.17-23.61,8-47.44,15.3-71.16,22.94C175,1467.3,164.25,1470.94,151.46,1475.16Zm1461.34,82.35c-1-1.7-1.21-3-1.87-3.22q-38.07-15.64-76.23-31.11c-3.92-1.59-7.8-1-11.66.49q-43.27,16.77-86.55,33.53c-2.13.83-3.93,2.5-6.81,4.39,3.08,2,5,3.64,7.14,4.55,22.11,9.22,44.39,18,66.35,27.61,7.54,3.29,14.09,3,21.49,0,26.81-10.92,53.78-21.43,80.66-32.19A69.59,69.59,0,0,0,1612.8,1557.51Zm244.18-.35c2.73,1.47,4,2.31,5.34,2.84,29.72,11.59,59.48,23.08,89.16,34.78,5.07,2,9.58,1.43,14.39-.61,23.4-9.94,46.86-19.72,70.27-29.63,2.2-.93,4.72-1.94,4.15-5.43a19.5,19.5,0,0,0-3.59-2.31q-44-16.75-88-33.44c-5-1.9-9.56-1.45-14.45.58-22.56,9.38-45.22,18.5-67.81,27.82C1863.83,1552.81,1861.54,1554.52,1857,1557.16Zm1241.91-86.45c-2.56-1.87-3.58-3.07-4.86-3.49q-48.92-16.2-97.9-32.25c-5.45-1.79-10.6-1.19-15.88,1.36-19.73,9.53-39.62,18.74-59.42,28.14-2.16,1-4.1,2.52-7.24,4.48,2.94,1.91,4.71,3.65,6.84,4.36,31.62,10.66,63.33,21.07,94.91,31.84,7.21,2.46,13.47,1.49,20-1.84,15.54-7.88,31.3-15.35,46.91-23.11C3087.56,1477.59,3093.42,1475.94,3098.89,1470.71ZM1004,1474.39c2.3,1.74,3.67,3.26,5.38,4,23.33,10.08,46.75,20,70.06,30.11,5.51,2.39,10.53,1.62,15.89-.36,29-10.68,58.07-21.17,87.09-31.81,2.2-.81,4.14-2.31,6.61-3.72-1.6-1.7-2.38-3.2-3.58-3.7q-36.54-15.33-73.16-30.43a17.66,17.66,0,0,0-13.14,0c-30.05,10.71-60.12,21.34-90.14,32.11C1007.38,1471.17,1006.1,1472.78,1004,1474.39Zm-426.33-.61c3.52,2.78,4.87,4.31,6.56,5.1,21.68,10,43.43,20,65.13,30a18.2,18.2,0,0,0,14.5.52c6.08-2.22,12.16-4.43,18.28-6.53,24.5-8.38,49-16.67,73.5-25.15,2.89-1,7.25-1,6.82-6a13.65,13.65,0,0,0-2.44-1.89c-21.81-9.77-43.7-19.39-65.45-29.3-6.33-2.89-12.23-2.82-18.75-.59-29.21,10-58.53,19.7-87.79,29.56C585.34,1470.41,582.74,1471.68,577.69,1473.78Zm1490-2.94c2.41,2.19,3,3.14,3.87,3.46,29.5,10.87,59,21.62,88.52,32.57,5.62,2.09,10.64,1.21,15.89-1,23.41-10,46.88-19.85,70.3-29.83,2.08-.89,4.83-1.51,4.3-5.4a28.22,28.22,0,0,0-4.79-2.81c-28.65-10.31-57.36-20.44-86-30.87-5.15-1.88-9.53-1.22-14.37.79-23.5,9.77-47.1,19.3-70.64,29C2072.69,1467.6,2070.77,1469.05,2067.72,1470.84Zm819.76,1.6c-1.7-2.19-2.15-3.4-2.92-3.66q-49.68-16.66-99.42-33.19c-4.08-1.37-7.75-.62-11.56,1.13-21.31,9.84-42.7,19.51-64,29.42-1.85.87-3,3.13-4.59,4.78,1.57,1.36,2.21,2.3,3.06,2.59q48.22,16.38,96.48,32.66c6.18,2.1,11.64.44,17.26-2.25,16.22-7.77,32.59-15.21,48.85-22.88C2876,1478.5,2881.23,1475.65,2887.48,1472.44ZM254.42,1433.91c-9.07-7.15-51.93-28.12-70.4-34.72-51,14-103.52,31-114.48,37.38a54.79,54.79,0,0,0,6.13,4.22c15.19,7.61,30.44,15.09,45.65,22.67,17.89,8.9,17.87,8.91,36.65,2.89,29-9.29,58.07-18.52,87.07-27.91C248.16,1437.43,251,1435.58,254.42,1433.91Zm1071.82-2.1c3.87,2.18,5.48,3.32,7.25,4,24.92,10.09,49.89,20.07,74.77,30.23a22.41,22.41,0,0,0,17.35.12c26.53-10.06,53.15-19.9,79.7-29.92,2-.77,3.82-2.29,6.82-4.14-2.79-1.9-4.2-3.3-5.9-4-25-9.84-50.14-19.42-75.08-29.45-6.58-2.64-12.49-1.9-18.75.41-25.69,9.48-51.42,18.81-77.12,28.26C1333,1428.21,1331,1429.48,1326.24,1431.81Zm-232.55.85c-2.8-2-4.57-3.69-6.69-4.58-22.53-9.48-45.16-18.74-67.67-28.27-5.94-2.51-11.6-2.23-17.46-.19q-42.39,14.76-84.8,29.51c-2.55.89-4.88,2.42-9,4.48,4,2.42,6.31,4.18,8.89,5.3,22,9.52,44.08,18.73,66,28.47,6.08,2.71,11.28,2.1,17.21-.08,20.6-7.55,41.45-14.44,62-22.12C1072.33,1441.38,1083.06,1438.8,1093.69,1432.66Zm1396.61,37.8c7,3,10.9,5,15,6.47,26.85,9.4,53.78,18.56,80.59,28.09,7.09,2.52,13.37,2,20.17-1.12,19.46-9.05,39.17-17.57,58.72-26.43,3.08-1.39,5.85-3.46,9.87-5.88-3-1.92-4.89-3.63-7.06-4.36-29.77-10.13-59.63-20-89.34-30.27-5.61-1.94-10.36-1.94-15.76.51-20.47,9.25-41.12,18.12-61.66,27.21C2498.18,1465.85,2495.73,1467.46,2490.3,1470.46Zm-535.37-39.85c5.09,2.52,7.11,3.76,9.29,4.57,27.13,10,54.32,19.94,81.4,30.1,6.56,2.46,12.45,1.78,18.78-.88,21.61-9.09,43.38-17.8,65-26.75,3.08-1.28,5.94-3.1,8.83-4.63-1.53-5.54-6-5.7-9.59-7-24.86-9-49.85-17.64-74.6-26.93-8-3-15.17-3.12-23,.11-21.68,8.93-43.53,17.44-65.3,26.17C1963.08,1426.46,1960.53,1427.89,1954.93,1430.61ZM1747.36,1513c2.85,2.46,3.8,3.8,5.09,4.3,28.75,11.3,57.56,22.45,86.31,33.75,5,2,9.61,1.59,14.45-.41,23-9.51,46.11-18.88,69.12-28.43,2.06-.85,3.75-2.62,6.75-4.79-4.33-2.22-7.2-4-10.31-5.23-26.07-9.94-52.26-19.57-78.23-29.76-7-2.76-13.17-2.51-20,.32-21.19,8.74-42.57,17-63.85,25.53C1754,1509.29,1751.54,1510.81,1747.36,1513Zm-1050-79.46c4.88,3.06,6.75,4.57,8.87,5.51,21.44,9.57,43,18.94,64.36,28.64,5,2.26,9.36,1.89,14.36.15,29.73-10.32,59.57-20.35,89.34-30.58,2.66-.92,5.08-2.55,8.87-4.48-3.19-2.06-5.06-3.66-7.23-4.6-21.09-9.13-42.32-18-63.3-27.32-7-3.14-13.31-2.32-20.23,0-26,8.91-52.12,17.43-78.17,26.18C709.53,1428.61,705,1430.55,697.33,1433.49Zm1652.5-2.28c-5.11-2.59-7.56-4.16-10.23-5.13-8.43-3-16.94-5.82-25.4-8.78q-26.79-9.36-53.55-18.77c-5.69-2-11.14-3.4-17.33-.78-24.3,10.27-48.78,20.11-73.12,30.28-1.3.55-1.95,2.68-3.11,4.37,2.27,1.12,3.54,1.91,4.91,2.4,28.1,10.14,56.25,20.14,84.29,30.42a21.83,21.83,0,0,0,17.27-.54c22.39-9.67,44.93-19,67.39-28.53C2343.15,1435.22,2345.15,1433.83,2349.83,1431.21Zm-2068,3.88c1,1.5,1.38,2.69,2.13,3.05,21.08,10.22,42.2,20.33,63.28,30.54,4.37,2.11,8.59,1.81,13,.33,32.64-10.87,65.31-21.64,97.93-32.54,2.07-.7,5-1,5-5a31.16,31.16,0,0,0-4.51-3.07c-19.9-9.21-39.89-18.24-59.76-27.54-4.89-2.29-9.33-2.08-14.38-.45-32.24,10.47-64.57,20.65-96.83,31C285.62,1432.13,283.82,1433.84,281.84,1435.09Zm1872.81,78.48c-3-2.25-4.05-3.43-5.33-3.89-29.52-10.88-59.09-21.61-88.59-32.55-4.6-1.7-8.71-1.21-13,.57-23.08,9.53-46.21,19-69.26,28.58-1.44.6-2.36,2.43-3.75,3.93,2,1.48,3.11,2.66,4.43,3.16,28.48,10.83,57,21.5,85.46,32.41,6.54,2.51,12.4,1.81,18.72-.94,21.07-9.16,42.32-17.92,63.47-26.89C2149,1517,2151,1515.61,2154.65,1513.57ZM2793.06,1429c3.36,2.13,4.85,3.53,6.62,4.13,31.64,10.62,63.32,21.09,94.94,31.75,4.63,1.56,8.58,1,12.88-1.09,15.7-7.56,31.54-14.86,47.31-22.28,5.41-2.54,10.87-5,16.14-7.8,1.35-.72,2-2.68,3-4-1.53-1.29-2.18-2.22-3-2.5-31.7-10.42-63.44-20.74-95.13-31.19-5.62-1.85-10.59-.84-15.81,1.59-19.87,9.25-39.87,18.22-59.8,27.34C2798.4,1425.72,2796.8,1426.83,2793.06,1429Zm-1295.7,81.81c-2.24-2-3.43-3.69-5-4.35-23.14-9.4-46.35-18.62-69.5-28a17.2,17.2,0,0,0-13.09.1q-43.5,16.26-87,32.48c-2.32.87-4.66,2-3.53,5.91,1.4.67,3.14,1.58,4.94,2.33,21.66,9,43.41,17.9,65,27.2a22.74,22.74,0,0,0,18.66.19c26.94-10.63,54-20.88,81-31.36C1491.41,1514.27,1493.84,1512.67,1497.36,1510.8Zm-824.51-77.08c-1.84-2.22-2.31-3.31-3.11-3.67-22.27-10-44.59-19.92-66.86-29.93a17.17,17.17,0,0,0-13.09-.41c-7.08,2.4-14.14,4.85-21.24,7.19-23.18,7.67-46.39,15.27-69.55,23-2.61.87-6.1.95-6.81,6.6.33.17,1.63.86,3,1.48,21.71,10,43.46,20,65.12,30.16,4.45,2.09,8.4,1.71,12.9.17,30.17-10.33,60.42-20.41,90.62-30.63C666.55,1436.75,669.15,1435.35,672.85,1433.72Zm2719.81-4.67c-3.37-1.59-5.43-2.89-7.68-3.58-32.45-10-64.94-19.93-97.37-30a20.24,20.24,0,0,0-15.9,1.1c-18.81,9.28-37.75,18.3-56.57,27.55-1.5.73-2.52,2.45-3.71,3.66,1.3,1.47,1.79,2.6,2.57,2.85,34.28,10.84,68.6,21.54,102.86,32.46,5.76,1.84,10.66.68,15.77-1.92,17.82-9,35.75-17.87,53.57-26.91C3388.22,1433.24,3389.81,1431.39,3392.66,1429.05Zm-2272.91,3.33c1.62,1.74,2.42,3.28,3.65,3.8q36.49,15.35,73.09,30.49c4.4,1.84,8.73,1.52,13.09-.12q7-2.64,14-5.16c23-8.32,45.93-16.55,68.81-25,2.85-1.06,7.4-.81,7.27-6.43a37.56,37.56,0,0,0-4.83-2.79c-22.62-9.16-45.31-18.16-67.89-27.42-6.41-2.62-12.44-2.4-18.85-.08-25.75,9.32-51.59,18.41-77.36,27.7C1127.11,1428.63,1123.7,1430.55,1119.75,1432.38Zm1255.6-2.76c3,2.07,4.65,3.85,6.69,4.57,29.25,10.2,58.59,20.17,87.8,30.47,5.52,1.94,10.4,2.25,15.85-.19,21.44-9.59,43-18.85,64.5-28.36,2-.9,5-1.54,4.38-5.75a24.16,24.16,0,0,0-4.53-2.66c-29.79-10.18-59.64-20.19-89.39-30.49-5.18-1.79-9.7-1-14.44,1-21.13,9-42.3,18-63.42,27.06C2380.61,1426.21,2378.66,1427.67,2375.35,1429.62Zm-652.73,83.8c-5.81-2.83-9.2-4.78-12.81-6.19-20.45-8-41.06-15.64-61.37-24a25,25,0,0,0-20.1-.09c-24.59,9.75-49.36,19-74,28.6-3.56,1.38-6.9,3.32-10,4.85.25,4.08,2.78,4.8,5.07,5.72,22.68,9.17,45.42,18.18,68,27.57,6.53,2.71,12.4,2.2,18.75-.36,26.39-10.64,52.89-21,79.31-31.6C1717.19,1517.22,1718.71,1515.9,1722.62,1513.42Zm1460.18-83.59c-1.73-1.51-2.66-2.92-3.92-3.32q-49.15-15.71-98.38-31.2c-5.52-1.74-10.77-.89-16,1.58-19.36,9.21-38.78,18.27-58.13,27.51-1.51.73-2.57,2.39-4.82,4.56a82.77,82.77,0,0,0,7.73,3.5c31.79,10.25,63.64,20.3,95.37,30.74a19.5,19.5,0,0,0,15.75-1.27c18.79-9.26,37.68-18.3,56.46-27.55C3179,1433.36,3180.62,1431.54,3182.8,1429.83Zm-416.65.57c-5.13-2.25-7.29-3.41-9.58-4.16-11.38-3.77-22.8-7.42-34.19-11.13-17.57-5.74-35.2-11.32-52.67-17.34-6-2.07-11.35-2.25-17.3.43-20.49,9.26-41.17,18.08-61.74,27.16-2.14,1-4,2.56-7.18,4.65,3.79,2,6.19,3.65,8.84,4.55,29.31,10,58.72,19.72,88,29.92,5.78,2,10.55,1.27,15.78-1.12,20.44-9.36,41-18.5,61.45-27.79C2759.62,1434.61,2761.53,1433.18,2766.15,1430.4Zm-1948-36.64c1.38,1.83,2,3.51,3.1,4,22.84,9.94,45.76,19.71,68.61,29.63,4.48,1.94,8.64,1.37,13-.13,29.69-10.15,59.42-20.2,89.09-30.41,2.08-.71,5-1.37,4.41-5.45a39.38,39.38,0,0,0-4.68-2.72c-22.07-9.21-44.22-18.22-66.21-27.6-5.59-2.39-10.46-1.45-15.83.39-27.79,9.55-55.67,18.83-83.49,28.31C823.56,1390.68,821.14,1392.27,818.18,1393.76Zm1418.76-1.48c-2.58-1.71-4-3.08-5.61-3.66-28.19-9.87-56.43-19.61-84.62-29.46a21.87,21.87,0,0,0-16,.59c-23.1,9.27-46.26,18.39-69.34,27.71-2,.82-4.93,1.62-4.2,5.36a18.1,18.1,0,0,0,3.49,2.24c28.09,10.14,56.24,20.14,84.3,30.38,6.09,2.22,11.56,1.39,17.33-1,23-9.55,46-18.89,69.06-28.39C2233,1395.37,2234.37,1394,2236.94,1392.28Zm-2040.32,4.16c5.24,2.88,7.75,4.42,10.4,5.68,17.12,8.19,34.42,16,51.33,24.63,6.81,3.47,12.8,3.73,20,1.36,31.3-10.31,62.77-20.11,94.15-30.19,2.2-.71,4.16-2.19,7.44-4-3-2.13-4.79-3.82-6.9-4.8-18.56-8.63-37.26-17-55.76-25.75-5.88-2.78-11.36-2.63-17.35-.74-31.44,9.92-62.93,19.63-94.38,29.49C203.28,1392.86,201.23,1394.2,196.62,1396.44Zm1665.05,71.66c4.85,2.29,7,3.5,9.31,4.37,28,10.6,56,21,83.89,31.83,4.66,1.8,8.55,1.31,12.88-.48,22.57-9.33,45.22-18.49,67.78-27.84,2-.82,3.56-2.58,5.74-4.22-2.08-1.58-3.11-2.82-4.42-3.3-29-10.71-58-21.25-87-32.07-5.15-1.92-9.57-1.13-14.38.82-21.72,8.78-43.53,17.35-65.27,26.07C1868,1464.15,1866.11,1465.57,1861.67,1468.1ZM791,1393.13c-4.76-2.6-8-4.69-11.45-6.2q-22.61-9.81-45.34-19.35c-23.25-9.77-16-9.74-40.94-1.58q-37.62,12.32-75.21,24.72c-2.7.9-6.06,1.44-5.81,5.8a19.37,19.37,0,0,0,3.42,2.52c21.38,9.55,42.81,19,64.15,28.57,5,2.24,9.48,1.63,14.41,0,29.7-10.11,59.47-20,89.18-30.09C785.6,1396.74,787.48,1395.19,791,1393.13Zm414.26.5c-2.76-2.42-3.66-3.72-4.88-4.22-23.61-9.54-47.3-18.87-70.86-28.53-5.06-2.08-9.52-1.66-14.44.1-15,5.39-30.17,10.5-45.28,15.7-12.74,4.38-25.53,8.66-38.23,13.18-2,.71-3.6,2.48-6.61,4.64,4,2.1,6.44,3.65,9.09,4.75,20.72,8.69,41.61,17,62.15,26.07,7.54,3.33,14.15,2.94,21.57.23,25.79-9.42,51.73-18.43,77.59-27.65C1198.16,1396.92,1200.8,1395.58,1205.29,1393.63Zm1263.17-2.14c2.51,1.73,3.91,3.1,5.59,3.76,4.18,1.64,8.48,3,12.73,4.41,24.1,8.21,48.23,16.34,72.28,24.69,5.87,2,11.43,3,17.4.34,21.46-9.5,43-18.82,64.48-28.26,2.26-1,4.64-2.08,4-5.77a31.49,31.49,0,0,0-4.95-2.61c-28.42-9.46-56.89-18.78-85.3-28.28-6.59-2.2-12.59-1.3-18.84,1.41-20.17,8.71-40.48,17.08-60.68,25.71C2473.09,1387.79,2471.34,1389.48,2468.46,1391.49Zm615.34-2.81c6.5,2.58,10,4.24,13.7,5.4q44.17,14,88.4,27.77c6.15,1.92,12.07,3.85,18.73.47,18.66-9.45,37.62-18.32,56.38-27.58,1.42-.7,2.24-2.6,3.55-4.19-2-1.37-3.11-2.55-4.44-3-32.87-10-65.8-19.87-98.61-30.12-6.29-2-11.45-1-17.11,1.74-15.65,7.69-31.51,14.93-47.26,22.42C3093.6,1383.32,3090.2,1385.29,3083.8,1388.68Zm-407.46.45c1.69,1.83,2.43,3.37,3.56,3.76,31.22,10.58,62.5,21,93.74,31.56,4.09,1.38,7.71.68,11.54-1.07,20.44-9.36,41-18.52,61.42-27.87,2.12-1,3.89-2.68,6.63-4.62-2.5-1.69-3.92-3.18-5.65-3.74-29.94-9.68-59.95-19.15-89.86-28.94a20.9,20.9,0,0,0-15.9,1c-19.64,8.73-39.35,17.28-59,26A61.9,61.9,0,0,0,2676.34,1389.13ZM1410.15,1393c-3.58-2.62-4.93-4.11-6.61-4.77-23.65-9.29-47.36-18.42-71-27.73-5-2-9.56-1.52-14.48.26-26.7,9.66-53.48,19.1-80.19,28.72-2.08.75-3.87,2.34-7,4.29,4,2.09,6.42,3.69,9.1,4.76,20.79,8.38,41.79,16.28,62.36,25.16,8.44,3.64,15.79,3.86,24.33.57,23.71-9.14,47.72-17.52,71.58-26.25C1401.49,1396.79,1404.61,1395.31,1410.15,1393ZM1607,1468.61c-3.92-2.27-5.49-3.47-7.26-4.16-21.83-8.54-43.73-16.87-65.49-25.57-6.47-2.59-12.35-2.34-18.77.11-25.63,9.75-51.39,19.16-77.06,28.8-2.58,1-4.91,2.61-7.88,4.23,2.4,4.2,5.86,5.11,9,6.36,20.35,8.2,40.83,16.08,61,24.62,6.93,2.93,12.92,3.11,20,.3,25.93-10.34,52.1-20.06,78.15-30.1C1600.93,1472.34,1603,1470.88,1607,1468.61Zm1273.88-79.21c4,2.32,5.53,3.62,7.31,4.19,31.26,10.14,62.57,20.14,93.81,30.33a14.88,14.88,0,0,0,11.54-.65c20.72-9.76,41.46-19.49,62.13-29.36,1.09-.52,1.61-2.24,2.51-3.58-1.31-1.13-2.26-2.54-3.54-2.95-31.34-9.86-62.77-19.45-94-29.54-6.37-2-11.65-.76-17.2,1.78-17.66,8.09-35.36,16.09-53,24.21C2887.82,1385,2885.46,1386.71,2880.89,1389.4Zm-2475.5,5.71c2.42,2.21,3,3.11,3.89,3.5,20.82,9.67,41.68,19.26,62.5,28.94a16.64,16.64,0,0,0,13,.53c31.25-10.4,62.56-20.61,93.82-31,1.6-.53,2.87-2.08,5.44-4-4.12-2.29-6.94-4.14-10-5.5-17.32-7.73-34.81-15.1-52-23.1a27.45,27.45,0,0,0-21.56-1.17c-28,9.21-56.08,18-84.11,27C413.2,1391.33,410.22,1393,405.39,1395.11Zm2036.32-3.21c-4.57-2-6.74-3.17-9-4-26.9-9.25-53.85-18.34-80.7-27.73-6.55-2.29-12.44-1.89-18.8.8-20.22,8.56-40.62,16.69-60.9,25.1-2.62,1.09-5,2.87-8.63,5.05,3.07,1.95,4.88,3.63,7,4.38,27.77,9.77,55.61,19.36,83.39,29.12A20.54,20.54,0,0,0,2370,1424c21.53-9.33,43.19-18.34,64.76-27.56C2436.45,1395.74,2437.92,1394.42,2441.71,1391.9Zm292.9-40.21c-2.19-1-4.71-2.3-7.39-3.17-28-9.06-56.08-17.9-84-27.17-5.79-1.92-10.72-.87-15.87,1.31-20.68,8.75-41.38,17.45-62,26.29-2,.86-5.07,1.3-4.57,4.71.73.82,1.25,1.92,2,2.19q45.39,15.23,90.83,30.3c5,1.66,9.8.82,14.54-1.28,20.54-9.07,41.12-18,61.66-27.12C2732,1356.78,2734.6,1355.93,2734.61,1351.69Zm-2005.1,5.57c1.16,1,2.39,2.5,4,3.2,21.07,9.13,42.24,18,63.27,27.26,5.49,2.41,10.37,2,15.86.06,28.32-9.76,56.75-19.2,85.12-28.83,2.24-.76,4.29-2.11,7.4-3.66-2.14-2-3.27-3.77-4.85-4.44-21.16-8.93-42.4-17.67-63.58-26.56-5.37-2.25-10.56-2.11-16-.29-27.94,9.32-55.94,18.47-83.88,27.8C734.2,1352.68,730.83,1352.88,729.51,1357.26Zm380.27-1.79c-2.92-2.55-3.86-3.87-5.12-4.39-22.22-9-44.5-17.9-66.72-26.92-6.46-2.62-12.53-1.74-18.93.47-26,8.94-52.07,17.55-78.08,26.41-2.54.87-4.79,2.63-8.91,5,4.67,2.49,7.51,4.29,10.57,5.58,19.36,8.11,38.88,15.84,58.09,24.28,7.91,3.48,15.08,3.22,23,.39,25.41-9.06,51-17.68,76.46-26.53C1102.87,1358.77,1105.43,1357.4,1109.78,1355.47Zm-409.59.09c-1.35-1.85-1.76-3-2.53-3.38-21-9.1-42.1-18.07-63.11-27.19-4.4-1.92-8.48-1.75-13-.28-29.37,9.54-58.82,18.85-88.2,28.35-2.64.86-5,2.56-7.92,4.08,1.68,1.78,2.49,3.29,3.72,3.84,20.47,9.14,41,18.1,61.47,27.26a19,19,0,0,0,14.49.45c30.25-10.08,60.54-20.06,90.79-30.15C697.2,1358.11,698.25,1356.93,700.19,1355.56Zm436.58.07c2.75,1.84,4.17,3.18,5.86,3.86,22.65,9.18,45.38,18.17,68,27.43,5.46,2.24,10.41,1.94,15.88,0,26.27-9.52,52.64-18.73,79-28.13,2.17-.78,4.09-2.24,7.11-3.94-2.44-1.9-3.76-3.48-5.43-4.14-22.28-8.79-44.66-17.34-66.91-26.19a23.75,23.75,0,0,0-17.43-.46c-26.39,9.15-52.86,18.08-79.26,27.22C1141.47,1352,1139.74,1353.67,1136.77,1355.63Zm-640,2.18c.38-1.1.76-2.19,1.15-3.28-1.29-.71-2.52-1.53-3.86-2.12-20.53-9.07-41.09-18.08-61.61-27.18a13.66,13.66,0,0,0-10.13-.59c-31.39,9.9-62.83,19.68-94.21,29.61-1.59.5-2.84,2.12-5.18,4,3,1.91,4.89,3.44,7,4.44,17.21,7.94,34.6,15.51,51.65,23.79,7.72,3.75,14.74,4.18,22.94,1.41,24.08-8.16,48.42-15.55,72.64-23.32C483.76,1362.42,490.24,1360.05,496.76,1357.81Zm1831.78-3.53c-2.08-1.46-3.15-2.63-4.47-3.08-28.28-9.64-56.61-19.13-84.87-28.82a19.85,19.85,0,0,0-14.49.41c-21.75,8.65-43.55,17.18-65.27,25.9-2,.81-5,1.33-4.81,5.67a43.88,43.88,0,0,0,5.87,3c27.25,9.56,54.54,19,81.79,28.57a21.5,21.5,0,0,0,16-.71c21.17-8.77,42.38-17.41,63.52-26.23C2323.87,1358.15,2325.58,1356.4,2328.54,1354.28Zm-469.3,717.16c-4.75-3-6.62-4.55-8.74-5.53q-48.33-22.24-96.73-44.28c-2.07-.94-4.59-.89-6.91-1.3-1.92,11.37-2.82,69.44-1.53,96.46a56,56,0,0,0,1.26,7.07c2.22,0,3.9.49,5.06-.07C1786.62,2106.83,1821.83,2090.34,1859.24,2071.44Zm672.43-717.59c-8.76-5.46-16.22-6.63-23.24-9-21.32-7.14-42.65-14.24-63.94-21.46-6.31-2.15-12.28-3.08-18.86-.27-21.13,9-42.45,17.6-63.7,26.36-2.24.93-4.87,1.55-4.55,5.49a29.54,29.54,0,0,0,4.79,2.6c27.44,9.35,54.91,18.58,82.34,28,6.5,2.23,12.49,1.74,18.84-1,19.66-8.66,39.52-16.85,59.26-25.33C2525.2,1358.05,2527.52,1356.31,2531.67,1353.85Zm232.18-2.67c2.7,2,3.4,2.86,4.28,3.14,29.88,9.83,59.82,19.47,89.64,29.49,6.08,2,11.29,2.11,17.22-.66,19-8.9,38.23-17.25,57.32-25.93,2.08-1,3.83-2.65,7-4.9-3.62-1.64-5.65-2.83-7.85-3.53-29.51-9.34-59.09-18.47-88.54-28-5.77-1.87-10.58-.91-15.8,1.41-18.71,8.32-37.54,16.36-56.28,24.6C2768.72,1347.73,2766.84,1349.28,2763.85,1351.18Zm-1156,45.49c-2.35-1.83-3.67-3.45-5.36-4.1q-38.36-14.71-76.79-29.23a20.12,20.12,0,0,0-14.59,0c-22.91,8.4-45.85,16.7-68.73,25.2-2,.74-3.55,2.64-5.72,4.32,2.16,1.58,3.21,2.74,4.52,3.26,25,9.85,50.1,19.57,75.11,29.45,6.39,2.53,12.41,2.26,18.82-.19,21.38-8.21,42.91-16.07,64.33-24.18C1602.07,1400.24,1604.44,1398.54,1607.84,1396.67Zm1358.42-45.5c2.8,1.71,4.24,3,5.93,3.56,31.35,10,62.76,19.72,94.08,29.76,4.72,1.52,8.71.76,12.91-1.23,18.46-8.76,37-17.4,55.38-26.26,1.87-.9,3.14-3,5.29-5.23-3.45-1.47-5.65-2.66-8-3.38-30-9.15-60.1-18.12-90.08-27.44a20.66,20.66,0,0,0-15.82,1.24c-17.62,8.21-35.35,16.17-53,24.34C2970.9,1347.48,2969.16,1349.13,2966.26,1351.17ZM1218.78,1317c-4.57-2.1-6.31-3-8.13-3.73-21.3-8.41-42.66-16.66-63.87-25.28-6.46-2.63-12.46-2.3-18.83-.1-25.41,8.77-50.88,17.36-76.3,26.08a54.84,54.84,0,0,0-6.05,2.88c.86,5.5,4.9,5.58,7.91,6.8,20.29,8.25,40.7,16.19,60.9,24.66,6.46,2.71,12.35,2.58,18.77.35,25.85-9,51.78-17.75,77.65-26.72C1212.92,1321.24,1214.71,1319.6,1218.78,1317Zm1027-1.1c1.84,1.58,2.77,2.94,4,3.37,28.76,9.88,57.56,19.63,86.32,29.49,4.06,1.4,7.74.84,11.58-.76,22.08-9.21,44.22-18.29,66.29-27.52,1.63-.69,2.88-2.28,5.13-4.13-2.7-1.43-4.26-2.55-6-3.13-27.44-9.12-54.94-18-82.31-27.33-5.77-2-10.72-.63-15.89,1.41-20.41,8-40.84,16-61.22,24.1C2251.1,1312.47,2248.78,1314.2,2245.77,1315.93Zm-629.41,881.14c2.43,2.36,3.54,4.11,5.14,4.91q47.63,23.71,95.4,47.14c1.92.94,4.54.47,7.12.68.44-2.76,1-4.7,1-6.65q.09-45,0-90c0-2.38.11-5.1-3.22-6.48-1.1.17-2.68.06-3.92.66q-48.62,23.41-97.14,47C1619.43,2195,1618.22,2195.91,1616.36,2197.07ZM440.5,1319.87c3,2.44,3.93,3.65,5.2,4.22,19.55,8.75,39.17,17.34,58.68,26.16,5.34,2.41,10.4,2.4,15.9.62,29.85-9.68,59.76-19.15,89.61-28.81,1.6-.52,2.88-2,6.13-4.45-2.42-1.27-3.69-2.06-5-2.64-20.15-8.61-40.38-17.06-60.45-25.88-5.08-2.24-9.49-1.34-14.38.2-28.51,9-57.08,17.71-85.62,26.59C447.78,1316.73,445.16,1318,440.5,1319.87Zm2180.2-3.17c-2.19-1.94-2.82-2.92-3.68-3.2-28.86-9.4-57.76-18.69-86.62-28.12a17.88,17.88,0,0,0-13,.5c-21.63,8.92-43.34,17.64-65,26.56-1.58.66-2.75,2.31-5.11,4.37,4.17,1.88,7.15,3.53,10.32,4.59,25.51,8.49,51.14,16.65,76.55,25.43a25.4,25.4,0,0,0,20-.77c19.56-8.69,39.38-16.79,59.06-25.2C2615.45,1319.93,2617.44,1318.54,2620.7,1316.7Zm-1605.23.78c-1.2-1.45-1.43-2-1.83-2.18q-33.9-14-67.83-27.87c-4.37-1.78-8.81-1.4-13.21,0q-42,13.82-83.9,27.72c-1.6.53-2.8,2.23-5,4,2.48,1.62,3.95,2.93,5.67,3.65,20.72,8.69,41.5,17.23,62.2,26a21.53,21.53,0,0,0,16,.38q41.82-14.27,83.65-28.51C1012.55,1320.28,1013.53,1319,1015.47,1317.48Zm-199.82.48c-2.36-2.23-3-3.18-3.8-3.53-20.66-8.73-41.37-17.36-62-26.08-4.92-2.08-9.65-1.59-14.55.06-9,3-18,5.88-27,8.74-19,6-38.05,11.94-57,18.13-2.9.94-7.34.94-7,6a11.23,11.23,0,0,0,2.34,1.93c20.12,8.74,40.28,17.36,60.37,26.17,5.88,2.58,11.55,2.22,17.44.26,27.91-9.27,55.84-18.44,83.74-27.74C810.34,1321.16,812.3,1319.74,815.65,1318ZM2821,1316.31c-4.8-5.92-11.35-5.59-16.88-7.38-24.18-7.85-48.5-15.28-72.74-23-5.83-1.85-11.27-2.73-17.36,0-19.6,8.68-39.45,16.78-59.12,25.29-1.82.79-3.06,2.92-4.7,4.55,1.71,1.23,2.43,2,3.32,2.33q44.07,14.4,88.17,28.73c6.08,2,11.75.86,17.41-1.65,18.23-8.08,36.52-16,54.73-24.17C2816.34,1319.87,2818.51,1318,2821,1316.31Zm-903.28-35.12c-4.91-2.42-7.34-4-10-4.87-24-8.38-48-16.52-71.91-25-6.08-2.17-11.65-1.57-17.42.53-21.51,7.85-43.05,15.62-64.52,23.57-2.56.95-4.76,2.87-7,4.27,1.89,5.37,6.28,5.75,9.86,7,22.48,8.11,45.09,15.83,67.46,24.23,6.58,2.47,12.31,2.16,18.65-.26,22.32-8.51,44.77-16.69,67.14-25.07C1911.76,1284.92,1913.35,1283.69,1917.7,1281.19Zm1102.62,35.26c-2-1.44-3-2.65-4.26-3q-46.54-14.36-93.12-28.6c-4.63-1.43-8.83-.51-13.07,1.36q-27.45,12.08-54.92,24.07c-2.35,1-4.53,2.23-3.8,5.45.34.32.65.84,1.08,1q47.08,15.06,94.17,30.07c5.08,1.62,9.77.66,14.51-1.52,17.69-8.17,35.47-16.15,53.17-24.33C3016.18,1319.9,3017.93,1318.17,3020.32,1316.45Zm-1158.76,78.92c.74,1.31.88,2,1.2,2.07,25.18,9.48,50.32,19.08,75.64,28.16,3.38,1.21,8.1.71,11.57-.64,24.65-9.54,49.15-19.47,73.64-29.42,1.51-.62,2.52-2.44,4.2-4.14-2.58-1.56-4.14-2.88-5.94-3.54-22.51-8.15-45.08-16.14-67.57-24.34-5.51-2-10.63-1.56-16,.51-23.71,9.2-47.5,18.19-71.21,27.4C1865,1392.24,1863.33,1394.08,1861.56,1395.37ZM729.65,1282.48c-2.63-2.42-3.23-3.35-4.07-3.7-20.27-8.51-40.57-16.92-60.84-25.44a16.24,16.24,0,0,0-11.66-.43c-30,9.43-60.07,18.77-90.06,28.28-1.4.45-2.33,2.34-3.52,3.6,1.57,1.33,2.22,2.19,3.08,2.57,19.71,8.54,39.46,17,59.16,25.55,5.89,2.55,11.62,2,17.52.07,26.6-8.66,53.24-17.19,79.83-25.86C722.22,1286.1,725.15,1284.48,729.65,1282.48Zm989.73,73c-2-2.52-2.47-3.68-3.25-4-26.21-9.74-52.48-19.35-78.7-29.08-5-1.86-9.73-1.39-14.59.4-21.56,8-43.16,15.8-64.7,23.81-1.57.58-2.78,2.12-5.22,4.07,3.34,1.89,5.28,3.32,7.44,4.15,24.73,9.45,49.56,18.66,74.21,28.32,5.75,2.26,10.66,1.12,15.88-.84,19.18-7.2,38.39-14.3,57.55-21.56C1711.62,1359.44,1715,1357.55,1719.38,1355.51Zm618.22-75.41c2.71,1.64,4.22,3,6,3.57,26.93,9,53.9,17.82,80.83,26.8,6.06,2,11.68,1.2,17.41-1.21,19.73-8.3,39.54-16.44,59.28-24.72,2.16-.91,4.09-2.36,7.16-4.17-2.63-1.75-4-3.17-5.68-3.71-26.51-8.66-53.08-17.14-79.58-25.82a24.17,24.17,0,0,0-17.41.72c-19.85,8-39.82,15.73-59.69,23.7C2343.32,1276.29,2341,1278.07,2337.6,1280.1Zm-1213.17,1.52c-2.43-2.09-3.07-3-3.93-3.33-22.24-8.82-44.52-17.55-66.77-26.35-4.43-1.76-8.74-1.36-13.14.1-27,9-54,17.85-80.9,26.9-1.58.53-2.77,2.23-4.45,3.65,1.76,1.51,2.71,2.83,4,3.35,21.72,8.8,43.5,17.43,65.19,26.29,4.48,1.83,8.51,1.59,13,.07,26.43-9,52.94-17.72,79.39-26.63C1119,1284.93,1121,1283.49,1124.43,1281.62Zm422.8-1c3,2.45,4,3.74,5.28,4.21,23.86,8.79,47.78,17.41,71.62,26.25,5,1.86,9.68,1.42,14.52-.34,23.88-8.72,47.8-17.34,71.66-26.12,2.12-.78,3.89-2.5,6.93-4.52-4-1.91-6.55-3.42-9.28-4.4-21.13-7.57-42.39-14.76-63.38-22.68-8-3-15.14-2.88-23.1.09-21.48,8-43.22,15.34-64.83,23C1554,1277.12,1551.46,1278.61,1547.23,1280.65Zm-790.5,3.28c2.92,1.47,4.21,2.23,5.57,2.8,20.72,8.68,41.46,17.29,62.16,26,4.46,1.89,8.65,1.34,13.08-.14,27.45-9.18,55-18.24,82.42-27.38,2.3-.76,4.86-1.47,5.08-4.94a16.52,16.52,0,0,0-3.31-2.43c-20.35-8.25-40.77-16.34-61.08-24.68-4.95-2-9.48-1.86-14.49-.23-26.56,8.67-53.22,17.07-79.8,25.7C763.8,1279.47,761.54,1281.25,756.73,1283.93Zm1949.14-3.8c-2.44-1.79-3.78-3.38-5.46-3.91-27.55-8.69-55.17-17.19-82.72-25.9a22.43,22.43,0,0,0-16,.9c-19.34,8-38.73,15.84-58,23.93-2,.82-3.43,2.83-6,5.07,4.91,2,8.48,3.72,12.21,4.93,25.12,8.16,50.3,16.1,75.38,24.36a23.16,23.16,0,0,0,17.37-1c18.74-8.13,37.58-16,56.34-24.12C2701.09,1283.48,2703,1281.94,2705.87,1280.13Zm-746.33,76.8c3.29,2.45,4.34,3.67,5.66,4.15,23,8.29,46,16.46,68.92,24.76a21.65,21.65,0,0,0,16-.42q34.71-13.85,69.42-27.69c2.34-.93,4.52-2.25,3.53-5.71a26.1,26.1,0,0,0-3.69-2c-22.55-8-45.19-15.67-67.63-23.93-6.82-2.51-12.68-.81-18.76,1.51q-31.41,12-62.78,24.11C1967.12,1352.94,1964.21,1354.64,1959.54,1356.93Zm-619.66-2.35c2.92,2.31,3.91,3.53,5.19,4,23.64,9.32,47.33,18.52,71,27.83a19.52,19.52,0,0,0,14.51-.12c22.92-8.41,45.91-16.67,68.83-25.09,1.73-.63,3.15-2.1,5.55-3.76-2.17-1.59-3.51-3.1-5.19-3.74-23.72-9.09-47.5-18-71.24-27.1-5.48-2.09-10.73-1.28-16,.62-21.59,7.73-43.2,15.37-64.77,23.13C1345.47,1351.2,1343.47,1352.63,1339.88,1354.58Zm361.46,78.74c-1.44-2.42-1.74-3.74-2.45-4-24.24-9.29-48.52-18.46-72.78-27.69-4-1.52-7.79-1-11.66.46-23.38,8.77-46.79,17.44-70.13,26.32-1.88.71-3.27,2.72-5.46,4.62,2.81,1.65,4.41,2.89,6.23,3.6,21.85,8.56,43.79,16.9,65.58,25.63,6,2.42,11.48,2,17.33-.29,19-7.52,38.16-14.82,57.24-22.23C1690.32,1437.76,1695.36,1435.71,1701.34,1433.32Zm1202.43-152.78c-3.09-1.73-4.3-2.72-5.68-3.14-29.1-9-58.24-17.75-87.29-26.81-5.68-1.77-10.76-1-16,1.26-17.9,7.65-35.84,15.21-53.68,23-1.82.79-3.06,2.92-5.37,5.24,3.6,1.49,5.81,2.61,8.13,3.35q41.39,13.11,82.79,26.17c6,1.91,11.6,1.31,17.4-1.3,17.74-8,35.64-15.64,53.44-23.5C2899.26,1284.06,2900.68,1282.69,2903.77,1280.54ZM1767.49,1431.11c1.63,1.8,1.89,2.33,2.29,2.49q37.58,14.54,75.17,29c4,1.55,7.8,1,11.61-.54,22.64-9.09,45.29-18.14,67.89-27.33,1.54-.63,2.69-2.24,4.72-4-2.59-1.72-4-3.11-5.75-3.74-22.88-8.44-45.85-16.63-68.67-25.24-5.58-2.1-10.41-1.65-15.79.46-21.31,8.37-42.75,16.41-64.1,24.67C1772.66,1427.76,1770.71,1429.25,1767.49,1431.11ZM1912,1351.46c-1.62-1.85-2.35-3.44-3.49-3.86-22.51-8.22-45.08-16.28-67.61-24.45-5.45-2-10.65-1.61-16,.44-23.33,8.88-46.74,17.57-70.07,26.44-2.12.81-3.92,2.44-7,4.42,3.26,2,5.13,3.57,7.28,4.37,21.53,8,43.14,15.77,64.64,23.83,5.53,2.07,10.59,1.67,16-.44,23.23-9.12,46.54-18,69.79-27.13A61.4,61.4,0,0,0,1912,1351.46Zm-71.09-105.79a51.15,51.15,0,0,0,5.09,2.64c25.94,9.09,51.9,18.09,77.81,27.26,5,1.79,9.67,1.3,14.54-.56,21.49-8.17,43.05-16.15,64.54-24.33,2-.78,3.71-2.51,6.59-4.53-2.84-1.7-4.35-3-6.09-3.59-25-8.64-50.13-17.12-75.15-25.83a18.34,18.34,0,0,0-13.07.31c-22.53,8.24-45.12,16.29-67.66,24.5C1845.86,1242.14,1844.45,1243.43,1840.92,1245.67ZM1851.45,1954c-2.65-1.78-4.83-3.64-7.33-4.85-45.53-22.22-86.64-39.55-97-41-2.4,10.53-3.19,46.63-1.77,86.11a62.55,62.55,0,0,0,1.3,8.06c1.85.32,3,.91,3.72.58q48.81-22.41,97.53-45C1849.06,1957.32,1849.82,1955.82,1851.45,1954Zm938.38-708.29c-3.84-2-5.41-3.11-7.17-3.66-28.12-8.74-56.28-17.34-84.38-26.15a24,24,0,0,0-17.43,1c-17.45,7.42-35,14.51-52.52,21.86-2.1.89-3.86,2.61-7,4.82,4.47,2,7.38,3.72,10.52,4.72,26.62,8.49,53.3,16.78,79.91,25.29a25.51,25.51,0,0,0,18.88-1c17.39-7.57,34.93-14.78,52.38-22.22C2784.72,1249.62,2786.19,1248.23,2789.83,1245.74ZM840.32,1247.5c-3-2.6-4-3.9-5.23-4.42-19.43-7.93-38.9-15.75-58.36-23.6a21.17,21.17,0,0,0-14.67-.62q-41.47,13-82.92,26c-1.62.51-2.92,2.06-5.49,3.95,4.19,2.33,7,4.24,10,5.52,16.57,7,33.36,13.47,49.77,20.82,7.41,3.32,14.07,3.33,21.63.81,24.16-8.06,48.51-15.57,72.76-23.39C831.51,1251.41,835,1249.68,840.32,1247.5Zm516.83-35.61c5.1,2.8,7.07,4.24,9.27,5,21.55,8,43.18,15.72,64.7,23.78,6,2.24,11.51,2,17.46-.14,23.54-8.32,47.18-16.36,70.78-24.53,2.27-.78,4.94-1.32,4.64-4.7a9.81,9.81,0,0,0-2.35-1.81q-35.19-12.86-70.4-25.63c-5-1.81-9.66-1.27-14.59.45-15.56,5.43-31.25,10.5-46.84,15.84C1380,1203.58,1370.19,1207.21,1357.15,1211.89Zm-323.9,34.39c-1.7-1.62-2.54-3-3.75-3.48-19.91-7.93-39.91-15.65-59.81-23.63-6.5-2.61-12.6-1.56-18.93.48-24.66,8-49.38,15.79-74,23.76-2.63.85-5.06,2.33-9,4.19,2.78,2,4.11,3.41,5.75,4.07,20.32,8.25,40.73,16.31,61,24.62a17.7,17.7,0,0,0,13,.2c27-9,54-17.79,80.91-26.78C1030.05,1249.17,1031.35,1247.66,1033.25,1246.28Zm421.5.75c1.72,1.54,2.63,2.92,3.89,3.38,23,8.51,46,16.83,68.92,25.41,4.59,1.72,8.72,1.16,13.08-.39,24-8.52,48.06-16.94,72.06-25.51,2.17-.78,5-1.54,4.51-5.3a15.87,15.87,0,0,0-3.36-2.28c-22.08-8-44.22-15.83-66.27-23.89a22.8,22.8,0,0,0-16,0c-24.07,8.35-48.2,16.54-72.27,24.93C1457.67,1243.94,1456.47,1245.6,1454.75,1247Zm973.17-2.65c3,1.64,5,3.13,7.16,3.85,26.05,8.49,52.16,16.78,78.19,25.33,6.08,2,11.61,1.41,17.38-1,18.36-7.73,36.84-15.19,55.21-22.9,2.56-1.07,4.79-2.92,8.34-5.14-3.06-1.64-4.6-2.79-6.32-3.34-26.58-8.46-53.19-16.82-79.78-25.27-5-1.6-9.65-.8-14.49,1.14-19.87,8-39.86,15.7-59.77,23.6C2432.1,1241.32,2430.61,1242.65,2427.92,1244.38Zm-1181.37,74c1.7,1.5,2.64,2.86,3.91,3.36q34.72,13.79,69.54,27.38c4.93,1.94,9.63,1.3,14.54-.48,22.48-8.16,45-16.09,67.55-24.19,2.14-.77,5-1.16,4.75-4.56-.36-.45-.58-1-1-1.19q-36.19-14-72.42-28a18.67,18.67,0,0,0-13.17.06c-23.08,7.94-46.19,15.84-69.23,23.89C1249.43,1315.26,1248.23,1317,1246.55,1318.41Zm600.32-1.5c3.55,2.22,5.36,3.83,7.47,4.6,21.59,7.83,43.26,15.45,64.84,23.32a19.35,19.35,0,0,0,14.48-.39c23.25-9.09,46.61-17.9,69.86-27,2-.76,3.41-2.79,6-5-4.48-1.87-7.61-3.36-10.85-4.49-19.33-6.75-38.77-13.18-58-20.22a27.14,27.14,0,0,0-20.28.25c-21,8.08-42.08,15.76-63.09,23.7C1854.3,1312.82,1851.49,1314.58,1846.87,1316.91ZM2102.64,1212c-4.3-2.4-6.23-3.9-8.42-4.63-23.66-7.89-47.4-15.58-71-23.52a25,25,0,0,0-17.48.53c-20.58,7.66-41.27,15-61.88,22.61-2.18.8-4.08,2.39-7.12,4.22,2.41,1.74,3.74,3.27,5.41,3.84,25,8.63,50.06,17,75.05,25.72,4.62,1.6,8.64.85,13-.8,21.46-8.15,43-16.09,64.49-24.14C2096.45,1215.15,2098.15,1214.16,2102.64,1212Zm-379.09,908.72c.83-3.43,1.47-4.86,1.47-6.29q.11-41.08,0-82.19c0-2.23-1-4.45-1.49-6.77-2.5.14-4.13-.2-5.35.36q-46.14,21.2-92.19,42.58a17.93,17.93,0,0,0-3.28,2.51c.66,1.54.79,2.91,1.43,3.23q44.31,21.51,88.72,42.82C1715.88,2118.41,1719.21,2119.22,1723.55,2120.72ZM1313.64,1285c-2.69-1.84-4.07-3.21-5.74-3.85-22.33-8.54-44.72-17-67.06-25.46a22.86,22.86,0,0,0-16.07,0c-22.18,7.52-44.39,14.94-66.57,22.48a26.29,26.29,0,0,0-4.56,2.59c.94,5.27,4.94,5.44,8,6.64,20.37,8.07,40.87,15.86,61.16,24.13,6.46,2.64,12.24,2.44,18.72.13,21.58-7.7,43.34-14.91,65-22.43C1308.61,1288.43,1310.45,1286.88,1313.64,1285Zm302.72,31.49c-1.83-1.37-2.86-2.57-4.15-3.06-23.82-8.83-47.69-17.52-71.5-26.38-5.49-2-10.71-1.54-16,.38q-32.32,11.65-64.67,23.29c-1.35.49-2.65,1.13-3.5,1.49,1.51,2.54,1.81,3.85,2.52,4.13,25.07,9.69,50.14,19.41,75.34,28.74a16,16,0,0,0,10-.22c22.53-8,45-16.28,67.35-24.62C1613.42,1319.61,1614.65,1317.91,1616.36,1316.47Zm440,3.36c5.07,2.65,7.46,4.28,10.1,5.2,20.69,7.24,41.5,14.13,62.11,21.58,7,2.53,13.29,2.65,20.2-.18,21.22-8.66,42.62-16.88,63.88-25.43,2-.81,3.6-2.67,5.6-4.22-1.65-1.29-2.33-2.15-3.2-2.45-23.55-8.1-47.2-15.95-70.65-24.31-6.34-2.26-11.71-.67-17.32,1.48q-30.69,11.79-61.35,23.66C2063.41,1316,2061.29,1317.33,2056.31,1319.83ZM949.13,1213.59c-4.09-2.9-5.45-4.31-7.1-5-19.47-7.68-39-15.12-58.46-22.91-5-2-9.6-1.5-14.5,0-26.63,8.34-53.31,16.54-79.93,24.89-1.63.51-2.95,2-5.64,3.85,2.13,1.44,3.25,2.49,4.58,3,19.39,7.88,38.84,15.63,58.21,23.55,5.9,2.42,11.57,2.09,17.48.14,16.1-5.29,32.26-10.38,48.38-15.58C923.49,1222,934.81,1218.25,949.13,1213.59Zm796.93-3c1.9,2.41,2.35,3.59,3.12,3.87,24.39,8.71,48.82,17.3,73.22,26,4,1.43,7.7.87,11.6-.56,22.46-8.24,45-16.3,67.44-24.51,1.68-.61,3.11-1.91,5.91-3.68-3.2-2-5-3.56-7.13-4.29-22.61-7.76-45.32-15.26-67.89-23.14a24.49,24.49,0,0,0-17.4.34c-20.59,7.52-41.31,14.68-61.94,22.09C1750.77,1207.45,1748.82,1209,1746.06,1210.56Zm-31.75.61c-1.51-1.13-2.8-2.68-4.44-3.25-22.61-7.94-45.28-15.71-67.9-23.63a16.83,16.83,0,0,0-11.66.19c-24,8.44-48.09,16.73-72.12,25.17-1.17.41-2,1.8-3.78,3.46,2.7,1.56,4.59,3.07,6.74,3.85,21.61,7.78,43.33,15.26,64.85,23.27,5.68,2.11,10.52,1.37,15.88-.57,20.66-7.48,41.45-14.57,62.08-22.12C1707.44,1216.26,1711.9,1216,1714.31,1211.17Zm-92.39-31.31c-2.58-2.32-3.2-3.28-4.05-3.59q-35.19-12.48-70.43-24.86a19.32,19.32,0,0,0-13.16,0c-23.08,7.91-46.19,15.76-69.24,23.76-1.56.54-2.76,2.12-5.34,4.2,3.48,1.74,5.47,3,7.62,3.77,21.06,7.66,42.19,15.13,63.21,22.92,6.43,2.39,12.47,2.11,18.82-.1,20.7-7.19,41.49-14.14,62.2-21.31C1614.66,1183.63,1617.55,1181.93,1621.92,1179.86Zm216.76-2.16c2.37,1.88,3.64,3.53,5.28,4.1,23.06,8,46.17,15.77,69.25,23.68a25.3,25.3,0,0,0,17.51-.41c21-7.7,42.16-15.21,63.18-23,1.89-.7,3.33-2.66,5.45-4.42-2.26-1.45-3.38-2.53-4.72-3-23.1-7.84-46.23-15.56-69.33-23.41a25.28,25.28,0,0,0-17.48.38c-20.58,7.5-41.25,14.75-61.86,22.18C1843.76,1174.65,1841.77,1176.05,1838.68,1177.7Zm312.63,105.71c2.06,2.15,2.6,3.19,3.4,3.47q34.73,12,69.5,23.79c5,1.71,9.75,1.11,14.59-.8,20.91-8.26,41.89-16.33,62.78-24.65,2.53-1,4.63-3.08,7.7-5.19-2.86-1.49-4.52-2.65-6.36-3.27-21.78-7.38-43.61-14.58-65.35-22-6.1-2.09-11.67-1.26-17.46,1-20.49,8-41.05,15.74-61.55,23.68C2156.32,1280.27,2154.31,1281.73,2151.31,1283.41Zm-122.24-106.14c2.53,2,3.8,3.6,5.43,4.14q36.84,12.31,73.79,24.37c5.42,1.78,10.72,1.3,16.07-.73,20-7.63,40.13-15,60.13-22.71,1.92-.73,3.36-2.7,5.82-4.75-2.93-1.51-4.56-2.66-6.38-3.25-23.67-7.76-47.38-15.4-71-23.17-6-2-11.62-1.29-17.48.87-19.63,7.25-39.37,14.19-59,21.33C2034.19,1174.17,2032.22,1175.56,2029.07,1177.27Zm-599.54,2.08c-1.42-2.17-1.61-2.83-2-3-22.86-8.42-45.68-17-68.68-25-3.44-1.2-8-.86-11.58.28-24.18,7.69-48.25,15.75-72.3,23.86-2,.67-3.5,2.65-6,4.62a65.43,65.43,0,0,0,6.41,3.37c20,7.48,40.14,14.86,60.19,22.36a26.8,26.8,0,0,0,18.88.07c22.57-7.83,45.22-15.44,67.82-23.2C1424.49,1182,1426.53,1180.76,1429.53,1179.35Zm1246.21,32c-3.15-2.27-4.21-3.5-5.52-3.91q-39.21-12.23-78.47-24.3a21.34,21.34,0,0,0-14.61.67c-18.52,7.34-37,14.64-55.49,22.15-1.9.77-3.26,2.83-5.71,5,3.5,1.57,5.65,2.8,7.95,3.53,24.67,7.84,49.39,15.53,74.05,23.42a25.44,25.44,0,0,0,18.81-1.09c16.45-7.11,33.12-13.71,49.66-20.61C2669.05,1215.19,2671.5,1213.63,2675.74,1211.38Zm-731.66,68.92c2.91,1.94,4.65,3.68,6.75,4.42,21.64,7.68,43.37,15.11,65,22.82a19.56,19.56,0,0,0,14.49-.41c21.87-8.5,43.83-16.75,65.69-25.25,2.09-.81,3.74-2.72,6.38-4.71-2.81-1.48-4.44-2.61-6.24-3.24-21.23-7.34-42.5-14.54-63.72-21.92-6-2.09-11.54-1.72-17.45.56-21,8.1-42,15.84-63.07,23.78C1949.64,1277.21,1947.55,1278.53,1944.08,1280.3ZM1362.64,1278c1.71,2.1,1.95,2.69,2.36,2.84,23.77,9.1,47.58,18.12,71.33,27.28,4.5,1.74,8.63,1.34,13.06-.25,21.15-7.6,42.38-15,63.53-22.56,2.11-.75,3.88-2.42,6.47-4.08-2.15-1.62-3.13-2.77-4.36-3.23-22.94-8.53-45.92-16.93-68.84-25.49a20.23,20.23,0,0,0-14.55.13c-21.19,7.46-42.48,14.65-63.71,22C1366.27,1275.21,1364.87,1276.52,1362.64,1278Zm-299.71-31.51c1.39,1.54,2.15,3.13,3.35,3.61,22.23,8.83,44.52,17.49,66.77,26.28,4,1.57,7.64,1.12,11.59-.21,22.67-7.63,45.4-15,68.06-22.69,2.07-.69,3.79-2.41,7.18-4.65-5.08-2.38-8.46-4.24-12-5.6-17.68-6.76-35.59-13-53-20.27-8.46-3.54-16-3.38-24.44-.47-20.71,7.16-41.63,13.72-62.43,20.65C1066.22,1243.67,1064.79,1245.17,1062.93,1246.44ZM1715.14,1148c-2.08-2.55-2.53-3.71-3.3-4-23.57-8.18-47.12-16.42-70.82-24.2a20,20,0,0,0-11.65.21c-22.78,7.38-45.44,15.18-68.08,23-1.49.51-2.57,2.2-4.19,3.66,2.12,1.54,3.17,2.72,4.47,3.18,22.6,8,45.24,15.77,67.83,23.73,6,2.12,11.6,1.22,17.47-.9,18.29-6.63,36.73-12.87,55.07-19.35C1706.1,1151.82,1710.12,1150,1715.14,1148Zm528.74,100.94c2.07,1.44,2.8,2.23,3.7,2.54q34,11.58,68,23.06a20.69,20.69,0,0,0,14.64-.42c21.35-8.39,42.72-16.73,64-25.21,1.61-.64,2.83-2.29,5.35-4.42-3.45-1.49-5.5-2.57-7.68-3.29-21.78-7.19-43.6-14.28-65.38-21.51a18.51,18.51,0,0,0-13.11.22c-21.84,8.5-43.72,16.89-65.55,25.42C2246.68,1245.75,2245.82,1247.1,2243.88,1248.89ZM1269.25,1243c1.8,1.48,2.77,2.75,4,3.24,23.31,9,46.67,17.79,70,26.75,4,1.54,7.71,1.15,11.64-.22,21.22-7.42,42.5-14.7,63.72-22.1,2.18-.76,4.89-1.4,4.53-4.69-.7-.82-1.2-1.94-2-2.24-23.41-8.68-46.87-17.25-70.28-25.93a18.53,18.53,0,0,0-13.1,0c-21.27,7.27-42.64,14.26-63.92,21.5C1272.23,1239.86,1271,1241.56,1269.25,1243Zm769.32,2.38c2.69,2.23,3.36,3.14,4.23,3.45,23,8,46.1,16.1,69.25,23.85a13.87,13.87,0,0,0,8.6-.43q34.28-12.93,68.34-26.41c1.48-.58,2.46-2.45,4-4.06-2.12-1.33-3.23-2.36-4.54-2.8-21.73-7.34-43.52-14.5-65.2-22a19.8,19.8,0,0,0-14.45.5c-20.94,8-42,15.83-62.94,23.8C2043.74,1242.11,2041.85,1243.52,2038.57,1245.38Zm81.31-101c1.59,1.76,2.35,3.4,3.52,3.78,25.57,8.37,51.2,16.59,76.8,24.86a17,17,0,0,0,11.66-.66c20-7.61,40.13-15.08,60.17-22.69,2.23-.84,4.64-2,3.4-5.59a25.23,25.23,0,0,0-3.75-1.88c-23.28-7.4-46.59-14.68-69.84-22.16a27.32,27.32,0,0,0-18.92.39c-18.19,6.85-36.55,13.25-54.8,19.93A86.67,86.67,0,0,0,2119.88,1144.42Zm-372.94,744.32c10.06-1.54,39.74-14.16,91.89-39.07,2.52-1.2,4.73-3.05,7.4-4.81-9.54-6.75-60.41-29.59-91.89-41.36-2.19-.83-4.69-.82-7.14-1.22-.74,2-1.68,3.37-1.68,4.73q-.13,38.91,0,77.8C1745.53,1886.14,1746.46,1887.47,1746.94,1888.74Zm-378-742.18c3.93,2.17,5.89,3.6,8.08,4.39,20.09,7.33,40.25,14.49,60.34,21.84,5.45,2,10.63,1.65,16-.18,22.62-7.69,45.29-15.21,67.9-22.92,1.61-.55,2.87-2.11,4.77-3.56-1.93-1.54-2.88-2.77-4.11-3.2-21.56-7.67-43.18-15.19-64.74-22.86-5-1.77-9.7-1.32-14.57.31-22.66,7.55-45.35,15-68,22.54C1373.33,1143.35,1372.24,1144.42,1369,1146.56Zm-186.48.59c1.49,1.61,2.25,3.13,3.41,3.57,20.54,7.7,41.15,15.24,61.72,22.87,5,1.84,9.79,1.35,14.64-.26,23.67-7.84,47.35-15.63,71-23.6,2-.66,3.48-2.56,6.45-4.83-4.76-1.94-7.9-3.36-11.13-4.52-17.37-6.22-34.86-12.12-52.1-18.68a24.07,24.07,0,0,0-17.3-.46c-23.19,7.68-46.54,14.86-69.8,22.34C1187.07,1144.3,1185.05,1145.78,1182.47,1147.15Zm749.08-2.37c3,2,4.7,3.84,6.8,4.55,22.62,7.66,45.34,15.06,67.94,22.77a22.34,22.34,0,0,0,15.92,0c20.5-7.69,41.15-15,61.66-22.62,1.83-.68,3.13-2.8,4.8-4.37-1.2-1.09-1.51-1.59-1.94-1.73q-36.17-11.88-72.35-23.72c-6-2-11.57-1.31-17.45.82-18.25,6.62-36.65,12.8-54.94,19.28C1938.8,1140.9,1935.85,1142.69,1931.55,1144.78Zm-306,808.47c8.92,6.85,73.59,37.91,91.79,44.48,1.72.62,3.77.33,5.56.46,2.67-10.33,3.75-53.12,2.1-82.23-.1-1.76-1.11-3.47-1.92-5.87-3.06.79-5.55,1.06-7.69,2.06C1686.15,1925.76,1656.29,1938.07,1625.56,1953.25Zm275.87-808.15c-2.1-1.33-3.25-2.4-4.6-2.86q-34-11.41-68-22.72c-4.49-1.5-8.86-.94-13.18.58-21.61,7.6-43.22,15.19-64.77,23-1.47.53-2.42,2.49-4.33,4.55,4.67,2.13,8.13,4,11.81,5.31,19.29,6.69,38.66,13.14,58,19.84,5,1.74,9.65,1.36,14.54-.38,21.59-7.66,43.26-15.11,64.84-22.82C1897.69,1148.83,1899.25,1146.83,1901.43,1145.1Zm382.93,63.26c-2.75-1.79-4.2-3.21-5.92-3.78q-32.62-10.71-65.33-21.2c-5.4-1.73-10.65-1.2-16,.86-20,7.68-40,15.06-60,22.69-2.06.78-3.76,2.51-6.72,4.55,2.84,1.64,4.34,2.88,6.07,3.47,21.67,7.36,43.41,14.51,65,22,5.17,1.78,9.61.74,14.39-1.12,19.95-7.73,40-15.23,59.95-22.92C2278.41,1211.89,2280.81,1210.26,2284.36,1208.36Zm-80.13-95.78c5.64,2.83,8,4.43,10.63,5.27,23.24,7.39,46.56,14.56,69.79,22,5,1.6,9.62,1.88,14.53,0,19.57-7.38,39.18-14.62,58.74-22,1.3-.49,2.32-1.74,4.4-3.36-3-1.69-4.93-3.21-7.1-3.89-20.42-6.4-41.08-12.1-61.26-19.17-12.46-4.37-24-5.31-35.7,1.37-2.12,1.21-4.7,1.58-7,2.44C2236.77,1100.58,2222.33,1105.91,2204.23,1112.58Zm129.18,100.76c3.19,2.18,4.88,4,6.93,4.64,21.31,7,42.7,13.68,64,20.67a24.23,24.23,0,0,0,17.42-.31c19.88-8,39.87-15.71,59.76-23.68,1.51-.61,2.56-2.36,4.09-3.85-1.95-1.4-3-2.63-4.34-3-22.32-7.1-44.69-14-67-21.19-6.1-2-11.68-1.14-17.44,1.11-17.64,6.89-35.35,13.58-53,20.46C2340.76,1209.35,2337.85,1211.11,2333.41,1213.34ZM975,1212.86c3.76,2.62,5.2,4.09,6.94,4.77,19.46,7.64,39,15.06,58.43,22.79a21.83,21.83,0,0,0,15.92.3c22.16-7.51,44.42-14.73,66.6-22.16,1.62-.54,3-1.89,5.37-3.49-2.62-1.87-4-3.32-5.67-4-20-7.67-40-15.12-60-22.85-5-2-9.54-1.31-14.46.31-20.33,6.67-40.76,13-61.13,19.59C983.78,1209.19,980.7,1210.61,975,1212.86Zm1045.07-100.1c4.11,2.8,5.48,4.25,7.14,4.79,23.66,7.68,47.38,15.16,71,22.88,4.58,1.49,8.68.92,13-.68,20.07-7.41,40.2-14.64,60.26-22.06,1.54-.57,2.69-2.19,4-3.29-1.17-1.55-1.6-2.77-2.35-3-24.16-7.74-48.38-15.3-72.53-23.09a19.1,19.1,0,0,0-13,.52c-14,5.06-28.18,9.85-42.25,14.81C2037.88,1106.25,2030.46,1109,2020.06,1112.76Zm-399.79,1.45c-2.52-1.6-4-3-5.69-3.55-19.79-6.84-39.69-13.39-59.41-20.41-7-2.5-13.47-2.23-20.38.08-20.8,6.94-41.72,13.54-62.54,20.44-2,.66-3.67,2.46-6,4.07,2,1.61,2.94,2.93,4.21,3.38,21.62,7.66,43.28,15.19,64.9,22.83a17.11,17.11,0,0,0,11.68,0c22.66-7.68,45.36-15.25,68-23C1616.69,1117.54,1618,1116,1620.27,1114.21Zm-367.36,1.55c-2.76-2.25-3.74-3.56-5-4q-29.54-10.74-59.12-21.31c-4.92-1.77-9.73-1.34-14.66.22-23.3,7.38-46.64,14.61-69.95,22-2.2.7-5.05.92-5.74,4.93,1.25.86,2.62,2.25,4.27,2.86,19.16,7.17,38.37,14.18,57.53,21.32,6,2.24,11.66,1.19,17.51-.72,22.76-7.42,45.59-14.63,68.38-22C1247.88,1118.47,1249.51,1117.42,1252.91,1115.76Zm79.35,96.68c-5.48-2.8-7.9-4.37-10.55-5.34-19.68-7.24-39.51-14.09-59.06-21.67a25.37,25.37,0,0,0-18.75-.21c-18.87,6.56-37.92,12.57-56.86,18.9a80,80,0,0,0-8.11,3.79c2,3.76,4.73,4.8,7.48,5.84,20.08,7.57,40.22,15,60.23,22.76a21.49,21.49,0,0,0,15.91.21c18.84-6.63,37.84-12.78,56.76-19.18C1322.56,1216.44,1325.71,1215,1332.26,1212.44ZM1838,1114.33c3.64,2,5.89,3.78,8.44,4.64,16.07,5.39,32.62,9.6,48.2,16.12,15.37,6.45,29.33,6,44.43-.59s30.91-11.22,46.38-16.79c2.32-.84,4.74-2,2.59-6.23-23.46-7.53-47.63-15.24-71.76-23.09-4.1-1.33-7.82-.59-11.65.76-20.21,7.12-40.44,14.18-60.63,21.36C1842.32,1111.12,1840.89,1112.48,1838,1114.33Zm-947,65.6c2.4,2.07,3,3,3.9,3.31,20.36,8.06,40.77,16,61.1,24.13,5,2,9.57,1.35,14.47-.26,21.76-7.14,43.59-14,65.36-21.11,1.64-.54,3-1.84,5.65-3.48-2.56-1.91-3.86-3.38-5.48-4-19.5-7.54-39-14.93-58.57-22.41-4.92-1.89-9.68-1.39-14.59.17-21.35,6.78-42.75,13.42-64.1,20.18A82.34,82.34,0,0,0,891,1179.93Zm544.06-65.06c-2.15-1.87-3.07-3.24-4.32-3.68-19.72-7-39.49-13.78-59.21-20.72a24.36,24.36,0,0,0-16.08,0c-21.81,7-43.67,13.83-65.47,20.86-2.13.68-4,2.28-6.39,3.73,2.42,4.17,6,4.89,9.1,6,17.32,6.29,34.79,12.17,52,18.72a26.08,26.08,0,0,0,18.77.16c22.16-7.51,44.48-14.56,66.71-21.86C1431.52,1117.69,1432.62,1116.54,1435.09,1114.87Zm785.09,62.61c3.33,2,5.2,3.61,7.36,4.32,20.85,6.84,41.75,13.48,62.6,20.28a20.93,20.93,0,0,0,14.61-.27c20-7.77,40-15.45,59.95-23.31,1.57-.62,2.72-2.33,4.73-4.13-2.5-1.52-4-2.88-5.78-3.45-20.89-6.68-41.83-13.22-62.74-19.84a23.37,23.37,0,0,0-16.06.51c-19.07,7.35-38.26,14.43-57.36,21.71C2225.34,1174.12,2223.44,1175.59,2220.18,1177.48Zm200.57,3.44c3,1.53,5.11,3,7.42,3.7,21.82,7,43.69,13.76,65.5,20.73,5,1.62,9.68,1.09,14.52-.85,18.95-7.58,38-14.93,56.94-22.54,1.46-.59,2.4-2.49,3.59-3.79-1.4-1.25-2-2.24-2.87-2.51-22.79-7.17-45.62-14.21-68.4-21.4a21.33,21.33,0,0,0-14.59.59c-19.06,7.31-38.14,14.57-57.15,22C2424.05,1177.49,2422.8,1179.19,2420.75,1180.92Zm-340.91-96.87c-5-2.72-6.86-4.17-9-4.85-20.88-6.7-41.81-13.23-62.7-19.91a28.74,28.74,0,0,0-19,.56c-18.8,6.63-37.65,13.12-56.47,19.7-2.35.82-4.74,1.72-4.5,5,.36.34.66.86,1.09,1q35.44,11.82,70.9,23.62c4.56,1.53,8.7.55,13-1.05,13.57-5,27.26-9.65,40.87-14.51C2061.52,1090.9,2068.94,1088.08,2079.84,1084.05Zm-365.77.33c-3.64-2.77-4.65-4-5.94-4.45q-30.44-10.37-60.91-20.54a22.45,22.45,0,0,0-14.68.11c-21.72,7.31-43.46,14.56-65.15,22-1.48.5-2.57,2.11-4.23,3.54,2.14,1.42,3.25,2.52,4.59,3,20.71,7.18,41.46,14.26,62.18,21.4,5,1.73,9.71.93,14.57-.79,12.22-4.31,24.54-8.3,36.78-12.55C1691.5,1092.52,1701.65,1088.81,1714.07,1084.38Zm396.46-2.62c1.07,2.28,1.18,3,1.48,3.09,25.07,8.21,50.12,16.46,75.27,24.41a14.63,14.63,0,0,0,8.7-.38c20.64-7.42,41.17-15.1,61.69-22.85,1-.36,1.37-2.16,2.14-3.45-1.64-1-2.77-2.16-4.12-2.58-22.34-7-44.72-13.85-67.08-20.8a26.47,26.47,0,0,0-17.52.27c-17.8,6.45-35.73,12.52-53.58,18.83A66.91,66.91,0,0,0,2110.53,1081.76Zm-913.7,2.22c3.08,2.74,4,4.13,5.26,4.59,19.23,7,38.5,13.94,57.75,20.89,6.44,2.32,12.6,1.43,19-.68,20.38-6.73,40.9-13,61.34-19.63,2.77-.9,5.37-2.36,9.08-4-2.3-1.77-3.59-3.37-5.24-4-19.77-7-39.62-13.72-59.37-20.77-5.09-1.82-9.7-1.11-14.58.44-18.07,5.74-36.2,11.34-54.3,17C1210.13,1079.63,1204.51,1081.5,1196.83,1084Zm430.07,760c5.59,3.18,8,4.79,10.63,6,8.17,3.75,16.41,7.36,24.63,11,17.81,7.88,35.59,15.83,53.48,23.54,2.41,1,5.35.87,8,1.26,2.36-16,2-70.71-.43-81.5-1.38-.1-3-.73-4.25-.22C1689.15,1816.63,1659.33,1829.3,1626.9,1843.94Zm-248.34-759.66c2.49,1.91,3.79,3.49,5.44,4.08,19.77,7,39.6,13.86,59.4,20.8,5.46,1.91,10.63,1.26,16.07-.57,19.42-6.5,39-12.62,58.43-19,3.68-1.21,7.18-2.95,12.52-5.18-3.83-2.31-6-4.19-8.56-5.07-17.46-6.06-35.1-11.63-52.46-18a31.33,31.33,0,0,0-21.82-.2c-20.38,6.78-40.93,13-61.39,19.61C1383.92,1081.51,1381.83,1082.77,1378.56,1084.28Zm367.61-.06c3.19,1.68,4.83,2.85,6.65,3.47,20.75,7.07,41.56,14,62.3,21.1a21.16,21.16,0,0,0,14.57-.26c20.19-7.17,40.45-14.15,60.65-21.29,1.62-.57,3-1.78,5.68-3.39-2.73-1.77-4.16-3.17-5.86-3.72q-32-10.5-64-20.78a22.78,22.78,0,0,0-14.68.11q-30.45,10.24-60.85,20.59C1749.46,1080.46,1748.61,1081.91,1746.17,1084.22ZM1239,1178.08c-3.33-1.8-4.94-2.95-6.74-3.61-19.18-7.06-38.45-13.86-57.54-21.15-5.56-2.13-10.56-1.72-16,0-19.91,6.44-39.89,12.7-59.81,19.12-2.22.71-5,1.19-5.08,4.81,1,.77,2,2,3.28,2.44,20,7.67,40.07,15.22,60.08,22.87a20.85,20.85,0,0,0,14.6.14c20.8-6.93,41.64-13.76,62.43-20.73C1235.44,1181.59,1236.36,1180.27,1239,1178.08Zm602.11,564c-9.37-6.2-63.83-29.82-88.35-38.42-1.73-.61-3.75-.38-6-.57-.54,2.44-1.32,4.34-1.32,6.23q0,34.38.28,68.75c0,1.31,1,2.61,1.81,4.44,2-.16,4,0,5.76-.54C1769.24,1776.49,1832.33,1747.9,1841.06,1742Zm173-688.82c2.74,1.82,3.85,3,5.18,3.37q33.49,10.65,67,21.14a22.64,22.64,0,0,0,14.7,0c19.27-6.8,38.54-13.6,57.76-20.56,1.5-.54,2.56-2.26,4.25-3.82-2.19-1.46-3.26-2.57-4.55-3-22.84-7.14-45.75-14.08-68.55-21.34-4.68-1.48-8.83-.65-13.1.83q-29,10-57.93,20.12C2017.57,1050.42,2016.52,1051.52,2014.05,1053.22Zm-719.77,1.43c1.6,2,1.82,2.63,2.2,2.77,21.07,7.51,42.1,15.12,63.28,22.3,3,1,7,.66,10.1-.3,22.35-6.85,44.62-14,66.88-21.15,2.12-.68,4.92-1.32,4.51-5.11-1-.72-2-1.89-3.28-2.34-18.79-6.53-37.62-13-56.43-19.44a24.71,24.71,0,0,0-16.07-.15c-21.35,6.73-42.78,13.18-64.14,19.85C1299.05,1051.79,1297,1053.24,1294.28,1054.65Zm1012.53,90.28c2.39,1.49,3.52,2.54,4.84,3,22.75,7.3,45.48,14.66,68.33,21.6,3,.92,7,.38,10.1-.76,19.59-7.29,39.06-14.9,58.51-22.57,1.51-.59,2.52-2.42,4.33-4.25-2.67-1.42-4.29-2.63-6.1-3.2-20.44-6.34-40.92-12.55-61.35-18.89-6-1.86-11.62-1.35-17.47.9-17.19,6.61-34.52,12.87-51.75,19.38C2313.56,1141.12,2311.09,1142.72,2306.81,1144.93Zm-471.39-91.67c2,2.12,2.61,3.2,3.44,3.47,22.21,7.26,44.46,14.42,66.69,21.63,4.48,1.45,8.82.91,13.16-.59,19.74-6.85,39.5-13.64,59.2-20.59,1.56-.55,2.75-2.17,5.08-4.08-2.88-1.56-4.41-2.72-6.12-3.27-20.39-6.49-40.82-12.82-61.18-19.35a27,27,0,0,0-17.55.43c-18.83,6.41-37.71,12.72-56.54,19.14C1839.86,1050.64,1838.3,1051.74,1835.42,1053.26Zm-213.53-.63c-.88-.7-1.81-1.92-3-2.34-19.31-6.63-38.65-13.15-58-19.71a22.68,22.68,0,0,0-14.67,0c-21.8,7-43.63,13.91-65.41,21-1.57.51-2.76,2.2-4.11,3.32,1.1,1.42,1.54,2.61,2.31,2.88,20.2,7,40.44,14,60.66,21,4.45,1.53,8.8,1,13.18-.39,21.31-6.89,42.64-13.71,63.94-20.64C1619,1057,1621.68,1056.33,1621.89,1052.63Zm-469.28,95.67c-2.92-2.71-3.79-4.11-5-4.56-19.59-7.31-39.26-14.39-58.82-21.78-5.52-2.09-10.64-1.41-16,.27-19.47,6.14-39,12.1-58.43,18.29-2.08.67-3.84,2.38-6.51,4.09,2.65,1.7,4.18,3.06,6,3.75,18.58,7.14,37.22,14.12,55.8,21.28,6.39,2.47,12.57,2.08,18.94,0,15.12-5,30.32-9.77,45.46-14.73C1139.63,1153,1145.17,1150.94,1152.61,1148.3Zm234.55-123.38c5.63,3.08,7.95,4.81,10.55,5.71,17.88,6.19,35.85,12.1,53.71,18.31,6,2.09,11.58,1.36,17.47-.56,19.86-6.48,39.85-12.61,59.74-19,2.72-.88,5.19-2.53,9.06-4.47-3.28-1.84-5.22-3.35-7.42-4.1-17.9-6.1-35.92-11.85-53.75-18.16-7-2.49-13.62-1.85-20.38.29q-21.35,6.77-42.69,13.52C1405.91,1018.84,1398.38,1021.3,1387.16,1024.92Zm682-.49c-3-1.79-4.54-3.12-6.3-3.67-20.49-6.36-41-12.53-61.51-19a22.38,22.38,0,0,0-14.57-.06c-19.38,6.54-38.87,12.78-58.28,19.24-1.75.59-3.24,2-5.32,3.28,1.61,1.43,2.48,2.79,3.66,3.17,22.33,7.15,44.66,14.31,67.09,21.11a17.77,17.77,0,0,0,10.11-.27c19.9-6.57,39.68-13.5,59.47-20.37C2064.91,1027.43,2066.07,1026.39,2069.2,1024.43Zm-90.54-27.71c-3.11-1.86-4.53-3.14-6.19-3.66-21.85-6.79-43.74-13.46-65.61-20.21a20.75,20.75,0,0,0-13.14.3c-18.88,6.27-37.84,12.28-56.73,18.54-2.07.69-5,1.17-4.72,5.35a30.81,30.81,0,0,0,4.74,2.39c20.38,6.46,40.82,12.75,61.17,19.29a29.07,29.07,0,0,0,18.94-.41c17.44-5.89,35-11.39,52.48-17.17C1972.21,1000.28,1974.59,998.74,1978.66,996.72Zm-233.88,28.06c4,2.47,5.55,3.84,7.33,4.43,19.92,6.55,39.92,12.89,59.82,19.51,4.62,1.54,8.69.74,13.07-.77,19.34-6.7,38.77-13.15,58.12-19.85,2-.69,5-.91,4.93-4.91-1.49-.85-3-2.13-4.84-2.7-19.52-6.18-39.09-12.17-58.59-18.4a24.53,24.53,0,0,0-16,0c-18,6-36.11,11.61-54.13,17.53C1751.77,1020.51,1749.38,1022.29,1744.78,1024.78Zm-21.16,679.66c-4.23,1.12-7.66,1.61-10.73,2.91q-39.14,16.64-78.14,33.59c-.56.24-.59,1.7-1,3,1,.81,1.88,2.06,3.11,2.59q39.8,17.08,79.69,34c2.08.88,4.63.64,6.92.91C1725.63,1769.32,1725.82,1720.33,1723.62,1704.44Zm-154.27-680c1.5,1.64,2.29,3.29,3.49,3.69,20.76,7,41.53,14,62.43,20.67a18,18,0,0,0,10.1-.4c20.46-6.35,40.83-13,61.18-19.7,2-.64,3.52-2.42,5.84-4.08-2.34-1.46-3.48-2.52-4.83-3-19.4-6.37-38.85-12.61-58.25-19-6-2-11.75-1.24-17.57.63-18,5.79-36.08,11.48-54.08,17.33C1574.92,1021.54,1572.39,1023.06,1569.35,1024.48Zm267.38,621.16c-1.39-1.06-2.69-2.59-4.34-3.25q-39.44-15.89-79-31.48c-2-.78-4.53-.11-6.71-.11-2.23,14.9-2,62.25.34,73.48,1.36,0,3,.45,4.21-.06q41.89-17.62,83.67-35.5C1835.65,1648.42,1835.92,1647.1,1836.73,1645.64ZM1623.66,998.78c.11-1,.23-2,.35-3.08a49.47,49.47,0,0,0-6.22-3c-18.45-6-37-11.87-55.4-18-5.52-1.82-10.74-1.31-16.09.36-19.48,6.1-39,12.12-58.45,18.29-1.62.51-2.94,2-4.92,3.34,2.07,1.5,3.1,2.68,4.37,3.11,19.81,6.7,39.66,13.24,59.45,20,4.54,1.55,8.71,1,13.11-.45,14.21-4.59,28.5-8.94,42.73-13.47C1609.64,1003.59,1616.64,1001.14,1623.66,998.78Zm-52.9-30.13c2.71,2.35,3.34,3.3,4.2,3.58,19.87,6.46,39.79,12.72,59.61,19.32,5.62,1.88,10.72.88,16-.81,18.48-5.91,37-11.7,55.48-17.61,2.25-.72,5-1.11,5.59-5.27a82.89,82.89,0,0,0-8.72-3.89c-17-5.48-34.2-10.68-51.22-16.26a27.43,27.43,0,0,0-17.52,0c-18,5.76-36.1,11.3-54.13,17C1577.41,965.61,1574.91,966.9,1570.76,968.65Zm313.12-.62c-1.17-1.31-1.69-2.46-2.49-2.71-20-6.33-40-12.74-60.06-18.66a21.64,21.64,0,0,0-11.7.22c-19.57,6-39,12.39-58.46,18.76-1.76.58-3.81,1.53-3.05,4.6.89.67,1.92,1.92,3.21,2.34,19,6.09,38,12.24,57.14,17.93a21.09,21.09,0,0,0,11.68.1c20.9-6.68,41.64-13.86,62.42-20.9C1883,969.58,1883.17,969,1883.88,968Zm-160.4,643.34c-3.41.9-5.84,1.26-8,2.15q-36.81,14.91-73.52,30c-1.54.64-2.63,2.39-4.27,3.94,1.93,1.52,2.91,2.68,4.16,3.2q37.32,15.63,74.73,31c2.07.85,4.64.47,6.91.65C1725.68,1670.09,1725.8,1626.25,1723.48,1611.37Zm110-55.37c-27.75-11.87-54.36-21.47-80.66-31.8-1.72-.67-3.78-.48-6.16-.74-.54,2.37-1.35,4.23-1.34,6.1q.12,29.88.53,59.75c0,.76,1.08,1.5,1.76,2.38,1.35,0,3,.44,4.2-.06q38.1-15.36,76.11-31C1829.23,1560.16,1830.18,1558.86,1833.52,1556Zm-110.26-32.73c-2.78.55-5.69.73-8.32,1.69-41.55,15.08-67.44,26.1-75.44,32.16,1.74,1.22,3.13,2.64,4.82,3.32q36,14.55,72.13,28.82c2.09.82,4.67.39,6.94.53C1725.85,1576.8,1725.79,1535.36,1723.26,1523.27Zm-77.4-206.92c.7,1.18,1,2.5,1.71,2.76q35.7,13.29,71.48,26.31c1.24.45,2.88-.17,4.26-.29,2.5-11.43,2.56-44.19.11-56.49-1.4-.11-3-.7-4.29-.25q-35.19,12.55-70.27,25.38C1647.68,1314.21,1646.82,1315.51,1645.86,1316.35Zm77.77-43.87c2.3-15.32,2-42.08-.4-53.23-1.84,0-4-.53-5.67.08q-33.8,12-67.44,24.39c-.6.22-.74,1.68-1.19,2.8,1,.87,2,2.18,3.26,2.64q33.07,11.89,66.23,23.53C1719.69,1273.13,1721.29,1272.6,1723.63,1272.48Zm-.26,232.75c2.82-17.09,2.39-46.63-.5-56.34-1.4,0-3-.41-4.26.07q-31.36,11.86-62.59,24c-1.43.55-2.27,2.6-4.33,5.1C1676,1487.29,1698.67,1497.13,1723.37,1505.23Zm23.43-161.09c2.49,0,4.08.41,5.36-.06q31.65-11.6,63.19-23.48c1.4-.54,2.23-2.59,4.17-5-23.83-8.4-46.37-16.38-69-24.2-1.1-.38-2.67.58-3.88.88C1744.72,1305.13,1744.73,1331,1746.8,1344.14Zm.65,105.13c-3,12.29-3,42-.14,53.29,8.68-.39,32.74-8.9,63.89-22.76,2-.91,3.71-2.63,7-5-21.89-9.78-43-16.81-63.75-24.71C1752.25,1449.29,1749.71,1449.52,1747.45,1449.27Zm-24.07-244c2.56-15.9,2.34-39.77-.2-50.84-1.83,0-3.93-.52-5.63.08q-31.56,11.1-63,22.58c-.57.2-.71,1.62-1.44,3.45,2.89,1.38,5.74,3.11,8.83,4.13C1682.1,1191.36,1701.84,1199.3,1723.38,1205.28Zm0,208.92c2.62-12.37,2.49-39.34-.23-50.48-1.39-.09-3-.69-4.27-.23q-30.88,11.44-61.66,23.19c-.62.23-.84,1.54-1.41,2.67,1,.91,1.82,2.33,3,2.79q30.09,11.38,60.28,22.48C1720.32,1415.07,1722,1414.36,1723.34,1414.2Zm-71.71-299.6c1.55,1.54,2.12,2.58,2.95,2.86,20.75,7.12,41.5,14.22,62.32,21.12,2.06.69,4.55.09,7.85.09.14-8.74.58-16.65.33-24.55-.25-7.71,1.74-15.74-1.85-23.1C1712.21,1092.18,1660.88,1109,1651.63,1114.6ZM1815.17,1388c-22.59-9.28-43.32-16.37-64-23.6-1.24-.43-2.84.18-4.19.3-2.74,13.78-2.4,38.56.6,48.59.94.25,2,1,2.79.68q28.81-10.47,57.52-21.19C1809.65,1392.1,1811.11,1390.68,1815.17,1388Zm-158.39-335.41c.9,1.89,1.11,3.28,1.72,3.49q30.46,10.41,61,20.53c1.19.4,2.76-.37,4.4-.63,2.2-7.54,1.21-15.07,1.12-22.48s1.52-14.81-1.62-21.79C1712.68,1032.69,1676.11,1044.16,1656.78,1052.57ZM1748,1222c-4.06,5.87-2.36,11.51-2.65,16.81-.28,5-.22,10,0,15,.22,5.22-1.11,10.78,2,15.47,10.16-1.6,48.73-14.58,61.35-20.62,1.14-.55,1.86-2,3.19-3.44-2.41-3.26-5.8-4.24-8.94-5.21C1784.41,1234.32,1766.72,1226.26,1748,1222Zm-92.18-224.41c21.11,8.38,40.78,13.4,59.92,19.92,2.18.74,4.77.3,7,.41,3.12-10.88,3.34-28.54.68-41.36C1714.33,976.73,1672.68,989.34,1655.77,997.59Zm154.7,180.85c-3.13-1.81-4.29-2.75-5.62-3.19q-27.69-9.23-55.45-18.24c-.66-.21-1.71.76-3.56,1.65-.19,4.38-.47,9.28-.58,14.18-.1,4.5-.2,9,0,13.49.24,4.73-1.33,9.9,2.93,14.75,19.36-5.45,37.79-12.94,56.55-19.44C1806.14,1181.17,1807.35,1180.22,1810.47,1178.44Zm-152.06-237c2.76,1.95,4.13,3.53,5.8,4,19.57,5.42,38.45,13.38,58.43,17.29,3.29-11.68,3.38-28.52.44-40.74-8.83-1.6-16.45,3.07-24.38,5.47C1685.6,931.45,1672.15,934.64,1658.41,941.48Zm87.49,153.3c-.78,13.19-1.52,26.31.48,39.85,2.48,0,4.56.51,6.26-.07q26-8.93,51.94-18.22c.56-.2.68-1.62,1-2.47-.55-.79-.95-2-1.68-2.29q-26.12-8.76-52.32-17.24C1750.3,1093.93,1748.69,1094.53,1745.9,1094.78Zm.81-22.79c10-1.17,41.13-10.8,52.87-16.34.6-.28.69-1.65,1-2.52-.56-.74-1-1.93-1.7-2.16q-24.12-7.76-48.32-15.24c-1.13-.35-2.66.59-4.53,1.07C1745.21,1048.67,1744,1060.34,1746.71,1072Zm-.23-58.82c2,.21,3.6.84,4.86.43q21.86-7.11,43.6-14.59c1.45-.5,2.47-2.21,4-3.65-16-7.25-41.11-14.74-52.24-15.62C1744.26,990.84,1744.67,1001.92,1746.48,1013.17Zm.21-54.69c3.48-.38,6.48-.23,9.16-1.1,13.68-4.42,27.28-9.08,40.87-13.78.64-.22.86-1.66,1.28-2.53-11.41-6.19-39.64-14.64-51.2-15.19C1744.33,936.5,1744.58,947.1,1746.69,958.48Z"/><path id="Plus_Sign_X" data-name="Plus Sign X" class="cls-2" d="M3115.37,1998.19h100m-50,50v-100"/><path id="Plus_X" data-name="Plus X" class="cls-1" d="M3272.31,2073.19l33.4-44.38,24.76-34-46-71.19q21.39.3,36.77.29,19.34,0,31.79-.29l15.52,33.55q1.47,3.08,4.25,9.52,11.28-19.34,26.66-43.07,13,.3,31.2.29,16.85,0,32.08-.29l-23.43,30.76q-6.9,9.09-29.45,39.85,13.48,23.28,49.22,79-16.56-.29-32.66-.29-19.64,0-35.16.29-9.53-20.51-14.58-30.32t-8.57-18l-4.68,8.06q-2.2,3.66-6.74,10.84l-18.6,29.44q-15.83-.29-30.77-.29Q3290,2072.9,3272.31,2073.19Z"/><line id="Minus_Sign_Z" data-name="Minus Sign Z" class="cls-2" x1="1530.98" y1="2951.33" x2="1630.98" y2="2951.33"/><path id="Minus_Z" data-name="Minus Z" class="cls-1" d="M1697.92,3023.72q.58-16.26,1-43.95,6-5.26,10.4-9.52l59-57.13q-36.18.3-61.81,2.2.43-6.74.88-20.21l.29-13.48v-7.47q17.58.28,66.65.29,39.1,0,60.79-.29-.73,6.45-2.2,46.58-5.42,4.7-9.37,8.5l-58.3,54.78q14.2.43,40.72.44,10.24,0,24.17-.58-1.32,10.83-2.93,39.84-18.9-.3-64.45-.29Q1718.29,3023.43,1697.92,3023.72Z"/><line id="Minus_Sign_X" data-name="Minus Sign X" class="cls-2" x1="284.68" y1="916.91" x2="384.68" y2="916.91"/><path id="Minus_X" data-name="Minus X" class="cls-1" d="M413.32,997.52l33.4-44.39,24.75-34-46-71.19q21.38.28,36.76.29,19.35,0,31.79-.29l15.53,33.54q1.45,3.07,4.25,9.52,11.28-19.34,26.66-43.06,13,.28,31.2.29,16.85,0,32.08-.29l-23.44,30.76q-6.88,9.07-29.44,39.84,13.47,23.3,49.22,79-16.56-.3-32.67-.3-19.63,0-35.16.3-9.53-20.5-14.57-30.33t-8.57-18l-4.69,8.05q-2.19,3.67-6.74,10.84l-18.6,29.45q-15.82-.3-30.76-.3Q431,997.22,413.32,997.52Z"/><line id="Minus_Sign_Y" data-name="Minus Sign Y" class="cls-2" y1="1997.89" x2="100" y2="1997.89"/><path id="Minus_Y" data-name="Minus Y" class="cls-1" d="M136.79,2120q-4.53-35-6.15-43.5a80.1,80.1,0,0,0,16.35,6,56.27,56.27,0,0,0,12.24,1.61,34.32,34.32,0,0,0,10.18-1.46A24,24,0,0,0,177,2079a33.64,33.64,0,0,0,6.09-6.52A55,55,0,0,0,188,2065a50,50,0,0,0,3.23-9l-27.57-83.35L140,1903.48q21.84.3,30.64.29,10.26,0,28-.29,2.79,11.28,10.34,39t10.92,43.36q1.91,8.65,3.67,22l3.07-11.72c1-3.13,2.1-6.69,3.36-10.7s2.88-8.78,4.84-14.35l9.51-26.66,15.81-40.87q18.29.3,27.66.29,8.21,0,29.28-.29l-28.25,63.87-51.09,118.5a96.08,96.08,0,0,1-9.53,15.82,58.8,58.8,0,0,1-9.23,9.23,50.85,50.85,0,0,1-10.11,6.15,77.94,77.94,0,0,1-16.12,5.28,95.06,95.06,0,0,1-19.65,2.05q-4.54,0-12-.66T149,2122.4Q144.41,2121.74,136.79,2120Z"/><path id="Plus_Z" data-name="Plus Z" class="cls-1" d="M1754.71,149.56q.58-16.26,1-43.94,6-5.28,10.4-9.53l59-57.13q-36.2.3-61.82,2.2.44-6.73.88-20.21l.29-13.48V0q17.58.3,66.65.29Q1870.29.29,1892,0q-.74,6.45-2.19,46.58-5.43,4.7-9.38,8.5l-58.3,54.78q14.21.45,40.72.44,10.26,0,24.17-.58-1.32,10.83-2.93,39.84-18.9-.28-64.45-.29Q1775.07,149.27,1754.71,149.56Z"/><path id="Plus_Sign_Z" data-name="Plus Sign Z" class="cls-2" d="M1589.74,74.56h100m-50,50v-100"/><path id="Plus_Y" data-name="Plus Y" class="cls-1" d="M2913.33,983.85q-4.54-35-6.16-43.5a80.1,80.1,0,0,0,16.35,6,56.27,56.27,0,0,0,12.24,1.61A34.72,34.72,0,0,0,2946,946.5a24.26,24.26,0,0,0,7.55-3.59,34,34,0,0,0,6.08-6.52,54.07,54.07,0,0,0,4.91-7.54,49.51,49.51,0,0,0,3.23-9l-27.57-83.35-23.6-69.14q21.84.3,30.64.29,10.26,0,28-.29,2.79,11.28,10.34,39t10.92,43.36q1.9,8.66,3.67,22l3.07-11.72q1.47-4.7,3.37-10.7t4.83-14.35l9.51-26.66,15.81-40.87q18.3.3,27.66.29,8.21,0,29.28-.29l-28.25,63.87-51.08,118.5a97.49,97.49,0,0,1-9.53,15.82,59.22,59.22,0,0,1-9.23,9.23,50.93,50.93,0,0,1-10.12,6.15,77.94,77.94,0,0,1-16.12,5.28,95,95,0,0,1-19.64,2q-4.54,0-12-.66t-12.1-1.32Q2921,985.61,2913.33,983.85Z"/><path id="Plus_Sign_Y" data-name="Plus Sign Y" class="cls-2" d="M2752,903.35h100m-50,50v-100"/></g></g></svg>