<?xml version="1.0" encoding="UTF-8" standalone="no"?>
<!-- Created with Inkscape (http://www.inkscape.org/) -->

<svg
   width="43.425694mm"
   height="33.866669mm"
   viewBox="0 0 43.425694 33.866669"
   version="1.1"
   id="svg10704"
   xmlns:inkscape="http://www.inkscape.org/namespaces/inkscape"
   xmlns:sodipodi="http://sodipodi.sourceforge.net/DTD/sodipodi-0.dtd"
   xmlns="http://www.w3.org/2000/svg"
   xmlns:svg="http://www.w3.org/2000/svg">
  <sodipodi:namedview
     id="namedview10706"
     pagecolor="#505050"
     bordercolor="#ffffff"
     borderopacity="1"
     inkscape:showpageshadow="0"
     inkscape:pageopacity="0"
     inkscape:pagecheckerboard="1"
     inkscape:deskcolor="#505050"
     inkscape:document-units="mm"
     showgrid="false" />
  <defs
     id="defs10701" />
  <g
     inkscape:label="Layer 1"
     inkscape:groupmode="layer"
     id="layer1"
     transform="translate(-61.557538,-92.150029)">
    <g
       id="Layer_2"
       data-name="Layer 2"
       transform="matrix(0.16501007,0,0,0.16501007,58.767221,84.581015)"
       style="fill:#0d6efd;fill-opacity:1"
       inkscape:export-filename="flight-path.svg"
       inkscape:export-xdpi="96"
       inkscape:export-ydpi="96">
      <g
         id="Layer_1-2"
         data-name="Layer 1"
         style="fill:#0d6efd;fill-opacity:1">
        <g
           id="Cloud"
           style="fill:#0d6efd;fill-opacity:1">
          <g
             id="Icon_Background"
             data-name="Icon Background"
             style="fill:#0d6efd;fill-opacity:1">
            <path
               class="cls-1"
               d="M 258.5,0 A 38.62,38.62 0 0 1 297,38.5 v 220 A 38.62,38.62 0 0 1 258.5,297 H 38.5 A 38.61,38.61 0 0 1 0,258.5 V 38.5 A 38.61,38.61 0 0 1 38.5,0 Z"
               id="path10555"
               style="display:none;fill:#0d6efd;fill-opacity:1" />
          </g>
          <path
             class="cls-2"
             d="m 148.31,105.6 c 18.31,48.4 36.63,96.79 55.07,145.51 H 91.93 l 55.42,-145.57 z"
             id="path10558"
             style="fill:#0d6efd;fill-opacity:1" />
          <path
             class="cls-2"
             d="m 280.08,65.83 c -3.44,0.86 -6.85,1.86 -10.32,2.56 -8.72,1.76 -17.48,3.36 -26.2,5.09 -3.05,0.6 -3.11,0.89 -1.24,3.44 3.28,4.48 2.7,8.92 -1.61,12.35 A 8,8 0 0 1 229.41,88 9,9 0 0 1 228.23,78.64 c 0.2,-0.52 0.35,-1.07 0.51,-1.61 0,-0.07 -0.09,-0.17 -0.4,-0.67 l -12.57,2.23 c -14.33,2.56 -28.64,5.18 -43,7.64 a 7.83,7.83 0 0 0 -6.26,4.54 c -7.33,14.38 -27,15.74 -35.35,2 -3.32,-5.47 -7.59,-6.82 -13,-7.71 C 107.75,83.36 97.37,81.41 87,79.55 80.84,78.45 74.67,77.33 68.51,76.25 a 14.72,14.72 0 0 0 -2.15,0 c 0.32,1.73 0.55,3.22 0.87,4.68 A 8.08,8.08 0 0 1 63.61,89.81 8.22,8.22 0 0 1 53.74,89 8.52,8.52 0 0 1 51.47,79.89 c 0.8,-1.87 1.92,-3.61 3.26,-6.09 L 16.91,66.07 17,64.83 a 20.93,20.93 0 0 1 4.67,-0.61 c 7,0.63 14,1.42 21,2.22 7.58,0.87 15.16,1.82 22.74,2.71 7.58,0.89 15,1.69 22.44,2.59 9.23,1.12 18.45,2.29 27.67,3.44 3.3,0.41 6.59,1 9.91,1.19 A 3.33,3.33 0 0 0 128.05,75 C 132.2,67.18 139.58,62.59 146,57 a 16.55,16.55 0 0 0 1.88,-2.41 c -0.89,-0.67 -1.69,-1.68 -2.7,-2 -2.89,-0.81 -5.86,-1.32 -8.75,-2.35 1.78,0.23 3.56,0.41 5.33,0.69 4.56,0.73 5.32,0.23 6.9,-5.06 0.12,1 0.14,1.72 0.28,2.37 0.49,2.29 1.39,3.6 4.24,2.91 a 46.77,46.77 0 0 1 10.2,-1 c -3.6,0.79 -7.21,1.53 -10.79,2.38 -3.87,0.92 -4.24,2 -1.47,4.68 3.59,3.51 7.43,6.76 11,10.33 A 38.17,38.17 0 0 1 167,74 c 1.14,1.82 2.46,2.69 4.57,2.42 15.05,-1.93 30.08,-3.91 45.14,-5.75 9.33,-1.14 18.7,-2 28,-3.09 9.12,-1.06 18.21,-2.36 27.33,-3.37 a 59.16,59.16 0 0 1 7.87,0.13 z M 153.2,89.51 c 0.05,-2.39 -3,-6 -5.13,-6.1 -2,-0.13 -5.24,3.3 -5.26,5.58 a 5.61,5.61 0 0 0 5,5.25 5.22,5.22 0 0 0 5.39,-4.73 z"
             id="path10560"
             style="fill:#0d6efd;fill-opacity:1" />
        </g>
      </g>
    </g>
  </g>
</svg>
